%TF.GenerationSoftware,KiCad,Pcbnew,7.0.11+dfsg-1build4*%
%TF.CreationDate,2025-11-16T19:22:10-06:00*%
%TF.ProjectId,AdapterBoard,41646170-7465-4724-926f-6172642e6b69,rev?*%
%TF.SameCoordinates,Original*%
%TF.FileFunction,Copper,L1,Top*%
%TF.FilePolarity,Positive*%
%FSLAX46Y46*%
G04 Gerber Fmt 4.6, Leading zero omitted, Abs format (unit mm)*
G04 Created by KiCad (PCBNEW 7.0.11+dfsg-1build4) date 2025-11-16 19:22:10*
%MOMM*%
%LPD*%
G01*
G04 APERTURE LIST*
%TA.AperFunction,ComponentPad*%
%ADD10R,3.000000X3.000000*%
%TD*%
%TA.AperFunction,ComponentPad*%
%ADD11C,3.000000*%
%TD*%
%TA.AperFunction,ComponentPad*%
%ADD12C,1.600000*%
%TD*%
%TA.AperFunction,ComponentPad*%
%ADD13O,1.600000X1.600000*%
%TD*%
%TA.AperFunction,ComponentPad*%
%ADD14R,1.700000X1.700000*%
%TD*%
%TA.AperFunction,ComponentPad*%
%ADD15O,1.700000X1.700000*%
%TD*%
%TA.AperFunction,ComponentPad*%
%ADD16R,1.500000X1.500000*%
%TD*%
%TA.AperFunction,ComponentPad*%
%ADD17C,1.500000*%
%TD*%
%TA.AperFunction,ComponentPad*%
%ADD18C,2.400000*%
%TD*%
%TA.AperFunction,ComponentPad*%
%ADD19O,2.400000X2.400000*%
%TD*%
%TA.AperFunction,ComponentPad*%
%ADD20R,1.600000X1.600000*%
%TD*%
%TA.AperFunction,ComponentPad*%
%ADD21C,1.440000*%
%TD*%
%TA.AperFunction,ComponentPad*%
%ADD22C,1.800000*%
%TD*%
%TA.AperFunction,Conductor*%
%ADD23C,0.500000*%
%TD*%
G04 APERTURE END LIST*
D10*
%TO.P,J9,1,Pin_1*%
%TO.N,Net-(J1-Pin_1)*%
X35000000Y-81000000D03*
D11*
%TO.P,J9,2,Pin_2*%
%TO.N,Net-(J9-Pin_2)*%
X40080000Y-81000000D03*
%TD*%
D10*
%TO.P,J13,1,Pin_1*%
%TO.N,Net-(J13-Pin_1)*%
X126080000Y-80500000D03*
D11*
%TO.P,J13,2,Pin_2*%
%TO.N,Net-(J13-Pin_2)*%
X121000000Y-80500000D03*
%TD*%
D12*
%TO.P,R12,1*%
%TO.N,Net-(C7-Pad1)*%
X48990000Y-91580000D03*
D13*
%TO.P,R12,2*%
%TO.N,Net-(U2B--)*%
X56610000Y-91580000D03*
%TD*%
D14*
%TO.P,J31,1,Pin_1*%
%TO.N,+5V*%
X49270000Y-116180000D03*
D15*
%TO.P,J31,2,Pin_2*%
%TO.N,GND*%
X46730000Y-116180000D03*
%TD*%
D16*
%TO.P,Q1,1,E*%
%TO.N,GND*%
X35220000Y-123470000D03*
D17*
%TO.P,Q1,2,B*%
%TO.N,Net-(Q1-B)*%
X37760000Y-123470000D03*
%TO.P,Q1,3,C*%
%TO.N,Net-(Q1-C)*%
X40300000Y-123470000D03*
%TD*%
D18*
%TO.P,R1,1*%
%TO.N,Net-(J9-Pin_2)*%
X45760000Y-80000000D03*
D19*
%TO.P,R1,2*%
%TO.N,Net-(J1-Pin_2)*%
X61000000Y-80000000D03*
%TD*%
D14*
%TO.P,J33,1,Pin_1*%
%TO.N,Net-(J33-Pin_1)*%
X67320000Y-96980000D03*
D15*
%TO.P,J33,2,Pin_2*%
%TO.N,GND*%
X67320000Y-99520000D03*
%TD*%
D12*
%TO.P,R13,1*%
%TO.N,Net-(C7-Pad1)*%
X55920000Y-99760000D03*
D13*
%TO.P,R13,2*%
%TO.N,GND*%
X63540000Y-99760000D03*
%TD*%
D12*
%TO.P,R9,1*%
%TO.N,Net-(C6-Pad1)*%
X41390000Y-108870000D03*
D13*
%TO.P,R9,2*%
%TO.N,Net-(U2A--)*%
X49010000Y-108870000D03*
%TD*%
D14*
%TO.P,J26,1,Pin_1*%
%TO.N,Net-(J25-Pin_1)*%
X78320000Y-109040000D03*
D15*
%TO.P,J26,2,Pin_2*%
%TO.N,Net-(J25-Pin_3)*%
X80860000Y-109040000D03*
%TO.P,J26,3,Pin_3*%
%TO.N,Net-(J25-Pin_5)*%
X83400000Y-109040000D03*
%TO.P,J26,4,Pin_4*%
%TO.N,Net-(J25-Pin_7)*%
X85940000Y-109040000D03*
%TO.P,J26,5,Pin_5*%
%TO.N,Net-(J25-Pin_9)*%
X88480000Y-109040000D03*
%TO.P,J26,6,Pin_6*%
%TO.N,Net-(J25-Pin_11)*%
X91020000Y-109040000D03*
%TO.P,J26,7,Pin_7*%
%TO.N,Net-(J25-Pin_13)*%
X93560000Y-109040000D03*
%TO.P,J26,8,Pin_8*%
%TO.N,Net-(J25-Pin_15)*%
X96100000Y-109040000D03*
%TO.P,J26,9,Pin_9*%
%TO.N,Net-(J25-Pin_17)*%
X98640000Y-109040000D03*
%TO.P,J26,10,Pin_10*%
%TO.N,Net-(J25-Pin_19)*%
X101180000Y-109040000D03*
%TO.P,J26,11,Pin_11*%
%TO.N,Net-(J25-Pin_21)*%
X103720000Y-109040000D03*
%TO.P,J26,12,Pin_12*%
%TO.N,Net-(J25-Pin_23)*%
X106260000Y-109040000D03*
%TO.P,J26,13,Pin_13*%
%TO.N,Net-(J25-Pin_25)*%
X108800000Y-109040000D03*
%TO.P,J26,14,Pin_14*%
%TO.N,Net-(J25-Pin_27)*%
X111340000Y-109040000D03*
%TO.P,J26,15,Pin_15*%
%TO.N,Net-(J25-Pin_29)*%
X113880000Y-109040000D03*
%TO.P,J26,16,Pin_16*%
%TO.N,Net-(J25-Pin_31)*%
X116420000Y-109040000D03*
%TO.P,J26,17,Pin_17*%
%TO.N,Net-(J25-Pin_33)*%
X118960000Y-109040000D03*
%TO.P,J26,18,Pin_18*%
%TO.N,Net-(J25-Pin_35)*%
X121500000Y-109040000D03*
%TO.P,J26,19,Pin_19*%
%TO.N,Net-(J25-Pin_37)*%
X124040000Y-109040000D03*
%TO.P,J26,20,Pin_20*%
%TO.N,Net-(J25-Pin_39)*%
X126580000Y-109040000D03*
%TD*%
D12*
%TO.P,C1,1*%
%TO.N,Net-(C1-Pad1)*%
X69930000Y-127410000D03*
%TO.P,C1,2*%
%TO.N,GND*%
X69930000Y-122410000D03*
%TD*%
%TO.P,C4,1*%
%TO.N,+5V*%
X41220000Y-91630000D03*
%TO.P,C4,2*%
%TO.N,GND*%
X46220000Y-91630000D03*
%TD*%
%TO.P,R11,1*%
%TO.N,Net-(C6-Pad1)*%
X38354000Y-97790000D03*
D13*
%TO.P,R11,2*%
%TO.N,GND*%
X38354000Y-90170000D03*
%TD*%
D14*
%TO.P,J28,1,Pin_1*%
%TO.N,Net-(J25-Pin_6)*%
X83400000Y-91260000D03*
D15*
%TO.P,J28,2,Pin_2*%
%TO.N,Net-(J25-Pin_10)*%
X85940000Y-91260000D03*
%TO.P,J28,3,Pin_3*%
%TO.N,Net-(J25-Pin_8)*%
X88480000Y-91260000D03*
%TO.P,J28,4,Pin_4*%
%TO.N,Net-(J25-Pin_12)*%
X91020000Y-91260000D03*
%TD*%
D20*
%TO.P,U1,1*%
%TO.N,Net-(C1-Pad1)*%
X66530000Y-125560000D03*
D13*
%TO.P,U1,2*%
%TO.N,Net-(R3-Pad1)*%
X66530000Y-123020000D03*
%TO.P,U1,3*%
X66530000Y-120480000D03*
%TO.P,U1,4*%
%TO.N,Net-(J29-Pin_1)*%
X66530000Y-117940000D03*
%TO.P,U1,5*%
%TO.N,Net-(R3-Pad1)*%
X66530000Y-115400000D03*
%TO.P,U1,6*%
%TO.N,Net-(J29-Pin_1)*%
X66530000Y-112860000D03*
%TO.P,U1,7,GND*%
%TO.N,GND*%
X66530000Y-110320000D03*
%TO.P,U1,8*%
%TO.N,Net-(J29-Pin_2)*%
X58910000Y-110320000D03*
%TO.P,U1,9*%
%TO.N,Net-(U1-Pad11)*%
X58910000Y-112860000D03*
%TO.P,U1,10*%
%TO.N,Net-(J29-Pin_2)*%
X58910000Y-115400000D03*
%TO.P,U1,11*%
%TO.N,Net-(U1-Pad11)*%
X58910000Y-117940000D03*
%TO.P,U1,12*%
X58910000Y-120480000D03*
%TO.P,U1,13*%
%TO.N,Net-(R3-Pad1)*%
X58910000Y-123020000D03*
%TO.P,U1,14,VCC*%
%TO.N,+5V*%
X58910000Y-125560000D03*
%TD*%
D14*
%TO.P,J27,1,Pin_1*%
%TO.N,Net-(J25-Pin_2)*%
X78320000Y-96340000D03*
D15*
%TO.P,J27,2,Pin_2*%
%TO.N,Net-(J25-Pin_4)*%
X80860000Y-96340000D03*
%TO.P,J27,3,Pin_3*%
%TO.N,Net-(J25-Pin_6)*%
X83400000Y-96340000D03*
%TO.P,J27,4,Pin_4*%
%TO.N,Net-(J25-Pin_8)*%
X85940000Y-96340000D03*
%TO.P,J27,5,Pin_5*%
%TO.N,Net-(J25-Pin_10)*%
X88480000Y-96340000D03*
%TO.P,J27,6,Pin_6*%
%TO.N,Net-(J25-Pin_12)*%
X91020000Y-96340000D03*
%TO.P,J27,7,Pin_7*%
%TO.N,Net-(J25-Pin_14)*%
X93560000Y-96340000D03*
%TO.P,J27,8,Pin_8*%
%TO.N,Net-(J25-Pin_16)*%
X96100000Y-96340000D03*
%TO.P,J27,9,Pin_9*%
%TO.N,Net-(J25-Pin_18)*%
X98640000Y-96340000D03*
%TO.P,J27,10,Pin_10*%
%TO.N,Net-(J25-Pin_20)*%
X101180000Y-96340000D03*
%TO.P,J27,11,Pin_11*%
%TO.N,Net-(J25-Pin_22)*%
X103720000Y-96340000D03*
%TO.P,J27,12,Pin_12*%
%TO.N,Net-(J25-Pin_24)*%
X106260000Y-96340000D03*
%TO.P,J27,13,Pin_13*%
%TO.N,Net-(J25-Pin_26)*%
X108800000Y-96340000D03*
%TO.P,J27,14,Pin_14*%
%TO.N,Net-(J25-Pin_28)*%
X111340000Y-96340000D03*
%TO.P,J27,15,Pin_15*%
%TO.N,Net-(J25-Pin_30)*%
X113880000Y-96340000D03*
%TO.P,J27,16,Pin_16*%
%TO.N,Net-(J25-Pin_32)*%
X116420000Y-96340000D03*
%TO.P,J27,17,Pin_17*%
%TO.N,Net-(J25-Pin_34)*%
X118960000Y-96340000D03*
%TO.P,J27,18,Pin_18*%
%TO.N,Net-(J25-Pin_36)*%
X121500000Y-96340000D03*
%TO.P,J27,19,Pin_19*%
%TO.N,Net-(J25-Pin_38)*%
X124040000Y-96340000D03*
%TO.P,J27,20,Pin_20*%
%TO.N,Net-(J25-Pin_40)*%
X126580000Y-96340000D03*
%TD*%
D12*
%TO.P,R6,1*%
%TO.N,Net-(U2A-+)*%
X45920000Y-112620000D03*
D13*
%TO.P,R6,2*%
%TO.N,GND*%
X38300000Y-112620000D03*
%TD*%
D14*
%TO.P,J29,1,Pin_1*%
%TO.N,Net-(J29-Pin_1)*%
X63970000Y-106250000D03*
D15*
%TO.P,J29,2,Pin_2*%
%TO.N,Net-(J29-Pin_2)*%
X61430000Y-106250000D03*
%TD*%
D12*
%TO.P,R10,1*%
%TO.N,Net-(U2B--)*%
X52800000Y-98100000D03*
D13*
%TO.P,R10,2*%
%TO.N,Net-(C6-Pad2)*%
X52800000Y-105720000D03*
%TD*%
D12*
%TO.P,C7,1*%
%TO.N,Net-(C7-Pad1)*%
X55920000Y-96510000D03*
%TO.P,C7,2*%
%TO.N,Net-(J33-Pin_1)*%
X60920000Y-96510000D03*
%TD*%
%TO.P,R3,1*%
%TO.N,Net-(R3-Pad1)*%
X51490000Y-119920000D03*
D13*
%TO.P,R3,2*%
%TO.N,Net-(R3-Pad2)*%
X51490000Y-127540000D03*
%TD*%
D20*
%TO.P,U2,1*%
%TO.N,Net-(C6-Pad1)*%
X41740000Y-102560000D03*
D13*
%TO.P,U2,2,-*%
%TO.N,Net-(U2A--)*%
X44280000Y-102560000D03*
%TO.P,U2,3,+*%
%TO.N,Net-(U2A-+)*%
X46820000Y-102560000D03*
%TO.P,U2,4,V-*%
%TO.N,GND*%
X49360000Y-102560000D03*
%TO.P,U2,5,+*%
%TO.N,Net-(U2A-+)*%
X49360000Y-94940000D03*
%TO.P,U2,6,-*%
%TO.N,Net-(U2B--)*%
X46820000Y-94940000D03*
%TO.P,U2,7*%
%TO.N,Net-(C7-Pad1)*%
X44280000Y-94940000D03*
%TO.P,U2,8,V+*%
%TO.N,+5V*%
X41740000Y-94940000D03*
%TD*%
D14*
%TO.P,J30,1,Pin_1*%
%TO.N,GND*%
X31740000Y-103875000D03*
D15*
%TO.P,J30,2,Pin_2*%
%TO.N,Net-(J30-Pin_2)*%
X31740000Y-101335000D03*
%TD*%
D18*
%TO.P,R2,1*%
%TO.N,Net-(J13-Pin_2)*%
X115000000Y-79500000D03*
D19*
%TO.P,R2,2*%
%TO.N,Net-(J15-Pin_2)*%
X99760000Y-79500000D03*
%TD*%
D12*
%TO.P,R5,1*%
%TO.N,Net-(J32-Pin_1)*%
X35370000Y-127400000D03*
D13*
%TO.P,R5,2*%
%TO.N,Net-(Q1-B)*%
X42990000Y-127400000D03*
%TD*%
D12*
%TO.P,R4,1*%
%TO.N,Net-(C1-Pad1)*%
X42800000Y-118840000D03*
D13*
%TO.P,R4,2*%
%TO.N,Net-(Q1-C)*%
X35180000Y-118840000D03*
%TD*%
D12*
%TO.P,C2,1*%
%TO.N,Net-(J30-Pin_2)*%
X31790000Y-97190000D03*
%TO.P,C2,2*%
%TO.N,Net-(C2-Pad2)*%
X31790000Y-92190000D03*
%TD*%
D21*
%TO.P,RV2,1,1*%
%TO.N,Net-(C6-Pad1)*%
X36510000Y-103040000D03*
%TO.P,RV2,2,2*%
%TO.N,Net-(U2A--)*%
X36510000Y-105580000D03*
%TO.P,RV2,3,3*%
%TO.N,unconnected-(RV2-Pad3)*%
X36510000Y-108120000D03*
%TD*%
D12*
%TO.P,C3,1*%
%TO.N,+5V*%
X55100000Y-122440000D03*
%TO.P,C3,2*%
%TO.N,GND*%
X55100000Y-127440000D03*
%TD*%
D14*
%TO.P,J32,1,Pin_1*%
%TO.N,Net-(J32-Pin_1)*%
X32090000Y-127050000D03*
D15*
%TO.P,J32,2,Pin_2*%
%TO.N,GND*%
X32090000Y-124510000D03*
%TD*%
D21*
%TO.P,RV1,1,1*%
%TO.N,Net-(R3-Pad2)*%
X47100000Y-126460000D03*
%TO.P,RV1,2,2*%
%TO.N,Net-(C1-Pad1)*%
X47100000Y-123920000D03*
%TO.P,RV1,3,3*%
%TO.N,unconnected-(RV1-Pad3)*%
X47100000Y-121380000D03*
%TD*%
D12*
%TO.P,C5,1*%
%TO.N,GND*%
X31100000Y-112560000D03*
%TO.P,C5,2*%
%TO.N,Net-(U2A-+)*%
X36100000Y-112560000D03*
%TD*%
%TO.P,R8,1*%
%TO.N,Net-(U2A--)*%
X35130000Y-98010000D03*
D13*
%TO.P,R8,2*%
%TO.N,Net-(C2-Pad2)*%
X35130000Y-90390000D03*
%TD*%
D12*
%TO.P,C6,1*%
%TO.N,Net-(C6-Pad1)*%
X43520000Y-105690000D03*
%TO.P,C6,2*%
%TO.N,Net-(C6-Pad2)*%
X48520000Y-105690000D03*
%TD*%
%TO.P,R7,1*%
%TO.N,+5V*%
X55770000Y-112690000D03*
D13*
%TO.P,R7,2*%
%TO.N,Net-(U2A-+)*%
X48150000Y-112690000D03*
%TD*%
D22*
%TO.P,J11,1,Pin_1*%
%TO.N,Net-(J1-Pin_1)*%
X43000000Y-34000000D03*
%TO.P,J11,2,Pin_2*%
%TO.N,Net-(J1-Pin_2)*%
X43000000Y-42890000D03*
%TD*%
%TO.P,J21,1,Pin_1*%
%TO.N,Net-(J13-Pin_1)*%
X103171682Y-63555000D03*
%TO.P,J21,2,Pin_2*%
%TO.N,Net-(J15-Pin_2)*%
X103171682Y-72445000D03*
%TD*%
%TO.P,J7,1,Pin_1*%
%TO.N,Net-(J1-Pin_1)*%
X58000000Y-33555000D03*
%TO.P,J7,2,Pin_2*%
%TO.N,Net-(J1-Pin_2)*%
X58000000Y-42445000D03*
%TD*%
%TO.P,J1,1,Pin_1*%
%TO.N,Net-(J1-Pin_1)*%
X73000000Y-33555000D03*
%TO.P,J1,2,Pin_2*%
%TO.N,Net-(J1-Pin_2)*%
X73000000Y-42445000D03*
%TD*%
%TO.P,J2,1,Pin_1*%
%TO.N,Net-(J1-Pin_1)*%
X43000000Y-49000000D03*
%TO.P,J2,2,Pin_2*%
%TO.N,Net-(J1-Pin_2)*%
X43000000Y-57890000D03*
%TD*%
%TO.P,J20,1,Pin_1*%
%TO.N,Net-(J13-Pin_1)*%
X103171682Y-48726682D03*
%TO.P,J20,2,Pin_2*%
%TO.N,Net-(J15-Pin_2)*%
X103171682Y-57616682D03*
%TD*%
%TO.P,J3,1,Pin_1*%
%TO.N,Net-(J1-Pin_1)*%
X73000000Y-49000000D03*
%TO.P,J3,2,Pin_2*%
%TO.N,Net-(J1-Pin_2)*%
X73000000Y-57890000D03*
%TD*%
D14*
%TO.P,J25,1,Pin_1*%
%TO.N,Net-(J25-Pin_1)*%
X78320000Y-103960000D03*
D15*
%TO.P,J25,2,Pin_2*%
%TO.N,Net-(J25-Pin_2)*%
X78320000Y-101420000D03*
%TO.P,J25,3,Pin_3*%
%TO.N,Net-(J25-Pin_3)*%
X80860000Y-103960000D03*
%TO.P,J25,4,Pin_4*%
%TO.N,Net-(J25-Pin_4)*%
X80860000Y-101420000D03*
%TO.P,J25,5,Pin_5*%
%TO.N,Net-(J25-Pin_5)*%
X83400000Y-103960000D03*
%TO.P,J25,6,Pin_6*%
%TO.N,Net-(J25-Pin_6)*%
X83400000Y-101420000D03*
%TO.P,J25,7,Pin_7*%
%TO.N,Net-(J25-Pin_7)*%
X85940000Y-103960000D03*
%TO.P,J25,8,Pin_8*%
%TO.N,Net-(J25-Pin_8)*%
X85940000Y-101420000D03*
%TO.P,J25,9,Pin_9*%
%TO.N,Net-(J25-Pin_9)*%
X88480000Y-103960000D03*
%TO.P,J25,10,Pin_10*%
%TO.N,Net-(J25-Pin_10)*%
X88480000Y-101420000D03*
%TO.P,J25,11,Pin_11*%
%TO.N,Net-(J25-Pin_11)*%
X91020000Y-103960000D03*
%TO.P,J25,12,Pin_12*%
%TO.N,Net-(J25-Pin_12)*%
X91020000Y-101420000D03*
%TO.P,J25,13,Pin_13*%
%TO.N,Net-(J25-Pin_13)*%
X93560000Y-103960000D03*
%TO.P,J25,14,Pin_14*%
%TO.N,Net-(J25-Pin_14)*%
X93560000Y-101420000D03*
%TO.P,J25,15,Pin_15*%
%TO.N,Net-(J25-Pin_15)*%
X96100000Y-103960000D03*
%TO.P,J25,16,Pin_16*%
%TO.N,Net-(J25-Pin_16)*%
X96100000Y-101420000D03*
%TO.P,J25,17,Pin_17*%
%TO.N,Net-(J25-Pin_17)*%
X98640000Y-103960000D03*
%TO.P,J25,18,Pin_18*%
%TO.N,Net-(J25-Pin_18)*%
X98640000Y-101420000D03*
%TO.P,J25,19,Pin_19*%
%TO.N,Net-(J25-Pin_19)*%
X101180000Y-103960000D03*
%TO.P,J25,20,Pin_20*%
%TO.N,Net-(J25-Pin_20)*%
X101180000Y-101420000D03*
%TO.P,J25,21,Pin_21*%
%TO.N,Net-(J25-Pin_21)*%
X103720000Y-103960000D03*
%TO.P,J25,22,Pin_22*%
%TO.N,Net-(J25-Pin_22)*%
X103720000Y-101420000D03*
%TO.P,J25,23,Pin_23*%
%TO.N,Net-(J25-Pin_23)*%
X106260000Y-103960000D03*
%TO.P,J25,24,Pin_24*%
%TO.N,Net-(J25-Pin_24)*%
X106260000Y-101420000D03*
%TO.P,J25,25,Pin_25*%
%TO.N,Net-(J25-Pin_25)*%
X108800000Y-103960000D03*
%TO.P,J25,26,Pin_26*%
%TO.N,Net-(J25-Pin_26)*%
X108800000Y-101420000D03*
%TO.P,J25,27,Pin_27*%
%TO.N,Net-(J25-Pin_27)*%
X111340000Y-103960000D03*
%TO.P,J25,28,Pin_28*%
%TO.N,Net-(J25-Pin_28)*%
X111340000Y-101420000D03*
%TO.P,J25,29,Pin_29*%
%TO.N,Net-(J25-Pin_29)*%
X113880000Y-103960000D03*
%TO.P,J25,30,Pin_30*%
%TO.N,Net-(J25-Pin_30)*%
X113880000Y-101420000D03*
%TO.P,J25,31,Pin_31*%
%TO.N,Net-(J25-Pin_31)*%
X116420000Y-103960000D03*
%TO.P,J25,32,Pin_32*%
%TO.N,Net-(J25-Pin_32)*%
X116420000Y-101420000D03*
%TO.P,J25,33,Pin_33*%
%TO.N,Net-(J25-Pin_33)*%
X118960000Y-103960000D03*
%TO.P,J25,34,Pin_34*%
%TO.N,Net-(J25-Pin_34)*%
X118960000Y-101420000D03*
%TO.P,J25,35,Pin_35*%
%TO.N,Net-(J25-Pin_35)*%
X121500000Y-103960000D03*
%TO.P,J25,36,Pin_36*%
%TO.N,Net-(J25-Pin_36)*%
X121500000Y-101420000D03*
%TO.P,J25,37,Pin_37*%
%TO.N,Net-(J25-Pin_37)*%
X124040000Y-103960000D03*
%TO.P,J25,38,Pin_38*%
%TO.N,Net-(J25-Pin_38)*%
X124040000Y-101420000D03*
%TO.P,J25,39,Pin_39*%
%TO.N,Net-(J25-Pin_39)*%
X126580000Y-103960000D03*
%TO.P,J25,40,Pin_40*%
%TO.N,Net-(J25-Pin_40)*%
X126580000Y-101420000D03*
%TD*%
D22*
%TO.P,J8,1,Pin_1*%
%TO.N,Net-(J1-Pin_1)*%
X73000000Y-64000000D03*
%TO.P,J8,2,Pin_2*%
%TO.N,Net-(J1-Pin_2)*%
X73000000Y-72890000D03*
%TD*%
%TO.P,J4,1,Pin_1*%
%TO.N,Net-(J1-Pin_1)*%
X58000000Y-48555000D03*
%TO.P,J4,2,Pin_2*%
%TO.N,Net-(J1-Pin_2)*%
X58000000Y-57445000D03*
%TD*%
%TO.P,J24,1,Pin_1*%
%TO.N,Net-(J13-Pin_1)*%
X88343364Y-63555000D03*
%TO.P,J24,2,Pin_2*%
%TO.N,Net-(J15-Pin_2)*%
X88343364Y-72445000D03*
%TD*%
%TO.P,J22,1,Pin_1*%
%TO.N,Net-(J13-Pin_1)*%
X88343364Y-33898364D03*
%TO.P,J22,2,Pin_2*%
%TO.N,Net-(J15-Pin_2)*%
X88343364Y-42788364D03*
%TD*%
%TO.P,J6,1,Pin_1*%
%TO.N,Net-(J1-Pin_1)*%
X58000000Y-64000000D03*
%TO.P,J6,2,Pin_2*%
%TO.N,Net-(J1-Pin_2)*%
X58000000Y-72890000D03*
%TD*%
%TO.P,J19,1,Pin_1*%
%TO.N,Net-(J13-Pin_1)*%
X103171682Y-33898364D03*
%TO.P,J19,2,Pin_2*%
%TO.N,Net-(J15-Pin_2)*%
X103171682Y-42788364D03*
%TD*%
%TO.P,J17,1,Pin_1*%
%TO.N,Net-(J13-Pin_1)*%
X118000000Y-48726682D03*
%TO.P,J17,2,Pin_2*%
%TO.N,Net-(J15-Pin_2)*%
X118000000Y-57616682D03*
%TD*%
%TO.P,J23,1,Pin_1*%
%TO.N,Net-(J13-Pin_1)*%
X88343364Y-48726682D03*
%TO.P,J23,2,Pin_2*%
%TO.N,Net-(J15-Pin_2)*%
X88343364Y-57616682D03*
%TD*%
%TO.P,J5,1,Pin_1*%
%TO.N,Net-(J1-Pin_1)*%
X43000000Y-64000000D03*
%TO.P,J5,2,Pin_2*%
%TO.N,Net-(J1-Pin_2)*%
X43000000Y-72890000D03*
%TD*%
%TO.P,J15,1,Pin_1*%
%TO.N,Net-(J13-Pin_1)*%
X118000000Y-33898364D03*
%TO.P,J15,2,Pin_2*%
%TO.N,Net-(J15-Pin_2)*%
X118000000Y-42788364D03*
%TD*%
%TO.P,J18,1,Pin_1*%
%TO.N,Net-(J13-Pin_1)*%
X118000000Y-63555000D03*
%TO.P,J18,2,Pin_2*%
%TO.N,Net-(J15-Pin_2)*%
X118000000Y-72445000D03*
%TD*%
D23*
%TO.N,Net-(J25-Pin_8)*%
X85940000Y-95070000D02*
X88480000Y-92530000D01*
X88480000Y-92530000D02*
X88480000Y-91260000D01*
X85940000Y-96340000D02*
X85940000Y-95070000D01*
%TD*%
M02*
