%TF.GenerationSoftware,KiCad,Pcbnew,7.0.11+dfsg-1build4*%
%TF.CreationDate,2025-11-16T19:22:08-06:00*%
%TF.ProjectId,AdapterBoard,41646170-7465-4724-926f-6172642e6b69,rev?*%
%TF.SameCoordinates,Original*%
%TF.FileFunction,Drillmap*%
%TF.FilePolarity,Positive*%
%FSLAX45Y45*%
G04 Gerber Fmt 4.5, Leading zero omitted, Abs format (unit mm)*
G04 Created by KiCad (PCBNEW 7.0.11+dfsg-1build4) date 2025-11-16 19:22:08*
%MOMM*%
%LPD*%
G01*
G04 APERTURE LIST*
%ADD10C,0.150000*%
%ADD11C,0.200000*%
%ADD12C,0.100000*%
%ADD13C,0.120000*%
%ADD14C,0.152000*%
G04 APERTURE END LIST*
D10*
X13000000Y-3000000D02*
X13000000Y-13000000D01*
X3000000Y-3000000D02*
X13000000Y-3000000D01*
X13000000Y-13000000D02*
X3000000Y-13000000D01*
X3000000Y-13000000D02*
X3000000Y-3000000D01*
D11*
D12*
X3070000Y-11216000D02*
X3150000Y-11296000D01*
X3150000Y-11216000D02*
X3070000Y-11296000D01*
X3139000Y-9179000D02*
X3219000Y-9259000D01*
X3219000Y-9179000D02*
X3139000Y-9259000D01*
X3139000Y-9679000D02*
X3219000Y-9759000D01*
X3219000Y-9679000D02*
X3139000Y-9759000D01*
X3473000Y-8999000D02*
X3553000Y-9079000D01*
X3553000Y-8999000D02*
X3473000Y-9079000D01*
X3473000Y-9761000D02*
X3553000Y-9841000D01*
X3553000Y-9761000D02*
X3473000Y-9841000D01*
X3478000Y-11844000D02*
X3558000Y-11924000D01*
X3558000Y-11844000D02*
X3478000Y-11924000D01*
X3482000Y-12307000D02*
X3562000Y-12387000D01*
X3562000Y-12307000D02*
X3482000Y-12387000D01*
X3497000Y-12700000D02*
X3577000Y-12780000D01*
X3577000Y-12700000D02*
X3497000Y-12780000D01*
X3570000Y-11216000D02*
X3650000Y-11296000D01*
X3650000Y-11216000D02*
X3570000Y-11296000D01*
X3611000Y-10264000D02*
X3691000Y-10344000D01*
X3691000Y-10264000D02*
X3611000Y-10344000D01*
X3611000Y-10518000D02*
X3691000Y-10598000D01*
X3691000Y-10518000D02*
X3611000Y-10598000D01*
X3611000Y-10772000D02*
X3691000Y-10852000D01*
X3691000Y-10772000D02*
X3611000Y-10852000D01*
X3736000Y-12307000D02*
X3816000Y-12387000D01*
X3816000Y-12307000D02*
X3736000Y-12387000D01*
X3790000Y-11222000D02*
X3870000Y-11302000D01*
X3870000Y-11222000D02*
X3790000Y-11302000D01*
X3795400Y-8977000D02*
X3875400Y-9057000D01*
X3875400Y-8977000D02*
X3795400Y-9057000D01*
X3795400Y-9739000D02*
X3875400Y-9819000D01*
X3875400Y-9739000D02*
X3795400Y-9819000D01*
X3990000Y-12307000D02*
X4070000Y-12387000D01*
X4070000Y-12307000D02*
X3990000Y-12387000D01*
X4082000Y-9123000D02*
X4162000Y-9203000D01*
X4162000Y-9123000D02*
X4082000Y-9203000D01*
X4099000Y-10847000D02*
X4179000Y-10927000D01*
X4179000Y-10847000D02*
X4099000Y-10927000D01*
X4134000Y-9454000D02*
X4214000Y-9534000D01*
X4214000Y-9454000D02*
X4134000Y-9534000D01*
X4134000Y-10216000D02*
X4214000Y-10296000D01*
X4214000Y-10216000D02*
X4134000Y-10296000D01*
X4240000Y-11844000D02*
X4320000Y-11924000D01*
X4320000Y-11844000D02*
X4240000Y-11924000D01*
X4259000Y-12700000D02*
X4339000Y-12780000D01*
X4339000Y-12700000D02*
X4259000Y-12780000D01*
X4312000Y-10529000D02*
X4392000Y-10609000D01*
X4392000Y-10529000D02*
X4312000Y-10609000D01*
X4388000Y-9454000D02*
X4468000Y-9534000D01*
X4468000Y-9454000D02*
X4388000Y-9534000D01*
X4388000Y-10216000D02*
X4468000Y-10296000D01*
X4468000Y-10216000D02*
X4388000Y-10296000D01*
X4552000Y-11222000D02*
X4632000Y-11302000D01*
X4632000Y-11222000D02*
X4552000Y-11302000D01*
X4582000Y-9123000D02*
X4662000Y-9203000D01*
X4662000Y-9123000D02*
X4582000Y-9203000D01*
X4642000Y-9454000D02*
X4722000Y-9534000D01*
X4722000Y-9454000D02*
X4642000Y-9534000D01*
X4642000Y-10216000D02*
X4722000Y-10296000D01*
X4722000Y-10216000D02*
X4642000Y-10296000D01*
X4670000Y-12098000D02*
X4750000Y-12178000D01*
X4750000Y-12098000D02*
X4670000Y-12178000D01*
X4670000Y-12352000D02*
X4750000Y-12432000D01*
X4750000Y-12352000D02*
X4670000Y-12432000D01*
X4670000Y-12606000D02*
X4750000Y-12686000D01*
X4750000Y-12606000D02*
X4670000Y-12686000D01*
X4775000Y-11229000D02*
X4855000Y-11309000D01*
X4855000Y-11229000D02*
X4775000Y-11309000D01*
X4812000Y-10529000D02*
X4892000Y-10609000D01*
X4892000Y-10529000D02*
X4812000Y-10609000D01*
X4859000Y-9118000D02*
X4939000Y-9198000D01*
X4939000Y-9118000D02*
X4859000Y-9198000D01*
X4861000Y-10847000D02*
X4941000Y-10927000D01*
X4941000Y-10847000D02*
X4861000Y-10927000D01*
X4896000Y-9454000D02*
X4976000Y-9534000D01*
X4976000Y-9454000D02*
X4896000Y-9534000D01*
X4896000Y-10216000D02*
X4976000Y-10296000D01*
X4976000Y-10216000D02*
X4896000Y-10296000D01*
X5109000Y-11952000D02*
X5189000Y-12032000D01*
X5189000Y-11952000D02*
X5109000Y-12032000D01*
X5109000Y-12714000D02*
X5189000Y-12794000D01*
X5189000Y-12714000D02*
X5109000Y-12794000D01*
X5240000Y-9770000D02*
X5320000Y-9850000D01*
X5320000Y-9770000D02*
X5240000Y-9850000D01*
X5240000Y-10532000D02*
X5320000Y-10612000D01*
X5320000Y-10532000D02*
X5240000Y-10612000D01*
X5470000Y-12204000D02*
X5550000Y-12284000D01*
X5550000Y-12204000D02*
X5470000Y-12284000D01*
X5470000Y-12704000D02*
X5550000Y-12784000D01*
X5550000Y-12704000D02*
X5470000Y-12784000D01*
X5537000Y-11229000D02*
X5617000Y-11309000D01*
X5617000Y-11229000D02*
X5537000Y-11309000D01*
X5552000Y-9611000D02*
X5632000Y-9691000D01*
X5632000Y-9611000D02*
X5552000Y-9691000D01*
X5552000Y-9936000D02*
X5632000Y-10016000D01*
X5632000Y-9936000D02*
X5552000Y-10016000D01*
X5621000Y-9118000D02*
X5701000Y-9198000D01*
X5701000Y-9118000D02*
X5621000Y-9198000D01*
X5851000Y-10992000D02*
X5931000Y-11072000D01*
X5931000Y-10992000D02*
X5851000Y-11072000D01*
X5851000Y-11246000D02*
X5931000Y-11326000D01*
X5931000Y-11246000D02*
X5851000Y-11326000D01*
X5851000Y-11500000D02*
X5931000Y-11580000D01*
X5931000Y-11500000D02*
X5851000Y-11580000D01*
X5851000Y-11754000D02*
X5931000Y-11834000D01*
X5931000Y-11754000D02*
X5851000Y-11834000D01*
X5851000Y-12008000D02*
X5931000Y-12088000D01*
X5931000Y-12008000D02*
X5851000Y-12088000D01*
X5851000Y-12262000D02*
X5931000Y-12342000D01*
X5931000Y-12262000D02*
X5851000Y-12342000D01*
X5851000Y-12516000D02*
X5931000Y-12596000D01*
X5931000Y-12516000D02*
X5851000Y-12596000D01*
X6052000Y-9611000D02*
X6132000Y-9691000D01*
X6132000Y-9611000D02*
X6052000Y-9691000D01*
X6314000Y-9936000D02*
X6394000Y-10016000D01*
X6394000Y-9936000D02*
X6314000Y-10016000D01*
X6613000Y-10992000D02*
X6693000Y-11072000D01*
X6693000Y-10992000D02*
X6613000Y-11072000D01*
X6613000Y-11246000D02*
X6693000Y-11326000D01*
X6693000Y-11246000D02*
X6613000Y-11326000D01*
X6613000Y-11500000D02*
X6693000Y-11580000D01*
X6693000Y-11500000D02*
X6613000Y-11580000D01*
X6613000Y-11754000D02*
X6693000Y-11834000D01*
X6693000Y-11754000D02*
X6613000Y-11834000D01*
X6613000Y-12008000D02*
X6693000Y-12088000D01*
X6693000Y-12008000D02*
X6613000Y-12088000D01*
X6613000Y-12262000D02*
X6693000Y-12342000D01*
X6693000Y-12262000D02*
X6613000Y-12342000D01*
X6613000Y-12516000D02*
X6693000Y-12596000D01*
X6693000Y-12516000D02*
X6613000Y-12596000D01*
X6953000Y-12201000D02*
X7033000Y-12281000D01*
X7033000Y-12201000D02*
X6953000Y-12281000D01*
X6953000Y-12701000D02*
X7033000Y-12781000D01*
X7033000Y-12701000D02*
X6953000Y-12781000D01*
X3224000Y-10133500D02*
G75*
G03*
X3124000Y-10133500I-50000J0D01*
G01*
X3124000Y-10133500D02*
G75*
G03*
X3224000Y-10133500I50000J0D01*
G01*
X3224000Y-10387500D02*
G75*
G03*
X3124000Y-10387500I-50000J0D01*
G01*
X3124000Y-10387500D02*
G75*
G03*
X3224000Y-10387500I50000J0D01*
G01*
X3259000Y-12451000D02*
G75*
G03*
X3159000Y-12451000I-50000J0D01*
G01*
X3159000Y-12451000D02*
G75*
G03*
X3259000Y-12451000I50000J0D01*
G01*
X3259000Y-12705000D02*
G75*
G03*
X3159000Y-12705000I-50000J0D01*
G01*
X3159000Y-12705000D02*
G75*
G03*
X3259000Y-12705000I50000J0D01*
G01*
X4350000Y-3400000D02*
G75*
G03*
X4250000Y-3400000I-50000J0D01*
G01*
X4250000Y-3400000D02*
G75*
G03*
X4350000Y-3400000I50000J0D01*
G01*
X4350000Y-4289000D02*
G75*
G03*
X4250000Y-4289000I-50000J0D01*
G01*
X4250000Y-4289000D02*
G75*
G03*
X4350000Y-4289000I50000J0D01*
G01*
X4350000Y-4900000D02*
G75*
G03*
X4250000Y-4900000I-50000J0D01*
G01*
X4250000Y-4900000D02*
G75*
G03*
X4350000Y-4900000I50000J0D01*
G01*
X4350000Y-5789000D02*
G75*
G03*
X4250000Y-5789000I-50000J0D01*
G01*
X4250000Y-5789000D02*
G75*
G03*
X4350000Y-5789000I50000J0D01*
G01*
X4350000Y-6400000D02*
G75*
G03*
X4250000Y-6400000I-50000J0D01*
G01*
X4250000Y-6400000D02*
G75*
G03*
X4350000Y-6400000I50000J0D01*
G01*
X4350000Y-7289000D02*
G75*
G03*
X4250000Y-7289000I-50000J0D01*
G01*
X4250000Y-7289000D02*
G75*
G03*
X4350000Y-7289000I50000J0D01*
G01*
X4723000Y-11618000D02*
G75*
G03*
X4623000Y-11618000I-50000J0D01*
G01*
X4623000Y-11618000D02*
G75*
G03*
X4723000Y-11618000I50000J0D01*
G01*
X4977000Y-11618000D02*
G75*
G03*
X4877000Y-11618000I-50000J0D01*
G01*
X4877000Y-11618000D02*
G75*
G03*
X4977000Y-11618000I50000J0D01*
G01*
X5850000Y-3355500D02*
G75*
G03*
X5750000Y-3355500I-50000J0D01*
G01*
X5750000Y-3355500D02*
G75*
G03*
X5850000Y-3355500I50000J0D01*
G01*
X5850000Y-4244500D02*
G75*
G03*
X5750000Y-4244500I-50000J0D01*
G01*
X5750000Y-4244500D02*
G75*
G03*
X5850000Y-4244500I50000J0D01*
G01*
X5850000Y-4855500D02*
G75*
G03*
X5750000Y-4855500I-50000J0D01*
G01*
X5750000Y-4855500D02*
G75*
G03*
X5850000Y-4855500I50000J0D01*
G01*
X5850000Y-5744500D02*
G75*
G03*
X5750000Y-5744500I-50000J0D01*
G01*
X5750000Y-5744500D02*
G75*
G03*
X5850000Y-5744500I50000J0D01*
G01*
X5850000Y-6400000D02*
G75*
G03*
X5750000Y-6400000I-50000J0D01*
G01*
X5750000Y-6400000D02*
G75*
G03*
X5850000Y-6400000I50000J0D01*
G01*
X5850000Y-7289000D02*
G75*
G03*
X5750000Y-7289000I-50000J0D01*
G01*
X5750000Y-7289000D02*
G75*
G03*
X5850000Y-7289000I50000J0D01*
G01*
X6193000Y-10625000D02*
G75*
G03*
X6093000Y-10625000I-50000J0D01*
G01*
X6093000Y-10625000D02*
G75*
G03*
X6193000Y-10625000I50000J0D01*
G01*
X6447000Y-10625000D02*
G75*
G03*
X6347000Y-10625000I-50000J0D01*
G01*
X6347000Y-10625000D02*
G75*
G03*
X6447000Y-10625000I50000J0D01*
G01*
X6782000Y-9698000D02*
G75*
G03*
X6682000Y-9698000I-50000J0D01*
G01*
X6682000Y-9698000D02*
G75*
G03*
X6782000Y-9698000I50000J0D01*
G01*
X6782000Y-9952000D02*
G75*
G03*
X6682000Y-9952000I-50000J0D01*
G01*
X6682000Y-9952000D02*
G75*
G03*
X6782000Y-9952000I50000J0D01*
G01*
X7350000Y-3355500D02*
G75*
G03*
X7250000Y-3355500I-50000J0D01*
G01*
X7250000Y-3355500D02*
G75*
G03*
X7350000Y-3355500I50000J0D01*
G01*
X7350000Y-4244500D02*
G75*
G03*
X7250000Y-4244500I-50000J0D01*
G01*
X7250000Y-4244500D02*
G75*
G03*
X7350000Y-4244500I50000J0D01*
G01*
X7350000Y-4900000D02*
G75*
G03*
X7250000Y-4900000I-50000J0D01*
G01*
X7250000Y-4900000D02*
G75*
G03*
X7350000Y-4900000I50000J0D01*
G01*
X7350000Y-5789000D02*
G75*
G03*
X7250000Y-5789000I-50000J0D01*
G01*
X7250000Y-5789000D02*
G75*
G03*
X7350000Y-5789000I50000J0D01*
G01*
X7350000Y-6400000D02*
G75*
G03*
X7250000Y-6400000I-50000J0D01*
G01*
X7250000Y-6400000D02*
G75*
G03*
X7350000Y-6400000I50000J0D01*
G01*
X7350000Y-7289000D02*
G75*
G03*
X7250000Y-7289000I-50000J0D01*
G01*
X7250000Y-7289000D02*
G75*
G03*
X7350000Y-7289000I50000J0D01*
G01*
X7882000Y-9634000D02*
G75*
G03*
X7782000Y-9634000I-50000J0D01*
G01*
X7782000Y-9634000D02*
G75*
G03*
X7882000Y-9634000I50000J0D01*
G01*
X7882000Y-10142000D02*
G75*
G03*
X7782000Y-10142000I-50000J0D01*
G01*
X7782000Y-10142000D02*
G75*
G03*
X7882000Y-10142000I50000J0D01*
G01*
X7882000Y-10396000D02*
G75*
G03*
X7782000Y-10396000I-50000J0D01*
G01*
X7782000Y-10396000D02*
G75*
G03*
X7882000Y-10396000I50000J0D01*
G01*
X7882000Y-10904000D02*
G75*
G03*
X7782000Y-10904000I-50000J0D01*
G01*
X7782000Y-10904000D02*
G75*
G03*
X7882000Y-10904000I50000J0D01*
G01*
X8136000Y-9634000D02*
G75*
G03*
X8036000Y-9634000I-50000J0D01*
G01*
X8036000Y-9634000D02*
G75*
G03*
X8136000Y-9634000I50000J0D01*
G01*
X8136000Y-10142000D02*
G75*
G03*
X8036000Y-10142000I-50000J0D01*
G01*
X8036000Y-10142000D02*
G75*
G03*
X8136000Y-10142000I50000J0D01*
G01*
X8136000Y-10396000D02*
G75*
G03*
X8036000Y-10396000I-50000J0D01*
G01*
X8036000Y-10396000D02*
G75*
G03*
X8136000Y-10396000I50000J0D01*
G01*
X8136000Y-10904000D02*
G75*
G03*
X8036000Y-10904000I-50000J0D01*
G01*
X8036000Y-10904000D02*
G75*
G03*
X8136000Y-10904000I50000J0D01*
G01*
X8390000Y-9126000D02*
G75*
G03*
X8290000Y-9126000I-50000J0D01*
G01*
X8290000Y-9126000D02*
G75*
G03*
X8390000Y-9126000I50000J0D01*
G01*
X8390000Y-9634000D02*
G75*
G03*
X8290000Y-9634000I-50000J0D01*
G01*
X8290000Y-9634000D02*
G75*
G03*
X8390000Y-9634000I50000J0D01*
G01*
X8390000Y-10142000D02*
G75*
G03*
X8290000Y-10142000I-50000J0D01*
G01*
X8290000Y-10142000D02*
G75*
G03*
X8390000Y-10142000I50000J0D01*
G01*
X8390000Y-10396000D02*
G75*
G03*
X8290000Y-10396000I-50000J0D01*
G01*
X8290000Y-10396000D02*
G75*
G03*
X8390000Y-10396000I50000J0D01*
G01*
X8390000Y-10904000D02*
G75*
G03*
X8290000Y-10904000I-50000J0D01*
G01*
X8290000Y-10904000D02*
G75*
G03*
X8390000Y-10904000I50000J0D01*
G01*
X8644000Y-9126000D02*
G75*
G03*
X8544000Y-9126000I-50000J0D01*
G01*
X8544000Y-9126000D02*
G75*
G03*
X8644000Y-9126000I50000J0D01*
G01*
X8644000Y-9634000D02*
G75*
G03*
X8544000Y-9634000I-50000J0D01*
G01*
X8544000Y-9634000D02*
G75*
G03*
X8644000Y-9634000I50000J0D01*
G01*
X8644000Y-10142000D02*
G75*
G03*
X8544000Y-10142000I-50000J0D01*
G01*
X8544000Y-10142000D02*
G75*
G03*
X8644000Y-10142000I50000J0D01*
G01*
X8644000Y-10396000D02*
G75*
G03*
X8544000Y-10396000I-50000J0D01*
G01*
X8544000Y-10396000D02*
G75*
G03*
X8644000Y-10396000I50000J0D01*
G01*
X8644000Y-10904000D02*
G75*
G03*
X8544000Y-10904000I-50000J0D01*
G01*
X8544000Y-10904000D02*
G75*
G03*
X8644000Y-10904000I50000J0D01*
G01*
X8884336Y-3389836D02*
G75*
G03*
X8784336Y-3389836I-50000J0D01*
G01*
X8784336Y-3389836D02*
G75*
G03*
X8884336Y-3389836I50000J0D01*
G01*
X8884336Y-4278836D02*
G75*
G03*
X8784336Y-4278836I-50000J0D01*
G01*
X8784336Y-4278836D02*
G75*
G03*
X8884336Y-4278836I50000J0D01*
G01*
X8884336Y-4872668D02*
G75*
G03*
X8784336Y-4872668I-50000J0D01*
G01*
X8784336Y-4872668D02*
G75*
G03*
X8884336Y-4872668I50000J0D01*
G01*
X8884336Y-5761668D02*
G75*
G03*
X8784336Y-5761668I-50000J0D01*
G01*
X8784336Y-5761668D02*
G75*
G03*
X8884336Y-5761668I50000J0D01*
G01*
X8884336Y-6355500D02*
G75*
G03*
X8784336Y-6355500I-50000J0D01*
G01*
X8784336Y-6355500D02*
G75*
G03*
X8884336Y-6355500I50000J0D01*
G01*
X8884336Y-7244500D02*
G75*
G03*
X8784336Y-7244500I-50000J0D01*
G01*
X8784336Y-7244500D02*
G75*
G03*
X8884336Y-7244500I50000J0D01*
G01*
X8898000Y-9126000D02*
G75*
G03*
X8798000Y-9126000I-50000J0D01*
G01*
X8798000Y-9126000D02*
G75*
G03*
X8898000Y-9126000I50000J0D01*
G01*
X8898000Y-9634000D02*
G75*
G03*
X8798000Y-9634000I-50000J0D01*
G01*
X8798000Y-9634000D02*
G75*
G03*
X8898000Y-9634000I50000J0D01*
G01*
X8898000Y-10142000D02*
G75*
G03*
X8798000Y-10142000I-50000J0D01*
G01*
X8798000Y-10142000D02*
G75*
G03*
X8898000Y-10142000I50000J0D01*
G01*
X8898000Y-10396000D02*
G75*
G03*
X8798000Y-10396000I-50000J0D01*
G01*
X8798000Y-10396000D02*
G75*
G03*
X8898000Y-10396000I50000J0D01*
G01*
X8898000Y-10904000D02*
G75*
G03*
X8798000Y-10904000I-50000J0D01*
G01*
X8798000Y-10904000D02*
G75*
G03*
X8898000Y-10904000I50000J0D01*
G01*
X9152000Y-9126000D02*
G75*
G03*
X9052000Y-9126000I-50000J0D01*
G01*
X9052000Y-9126000D02*
G75*
G03*
X9152000Y-9126000I50000J0D01*
G01*
X9152000Y-9634000D02*
G75*
G03*
X9052000Y-9634000I-50000J0D01*
G01*
X9052000Y-9634000D02*
G75*
G03*
X9152000Y-9634000I50000J0D01*
G01*
X9152000Y-10142000D02*
G75*
G03*
X9052000Y-10142000I-50000J0D01*
G01*
X9052000Y-10142000D02*
G75*
G03*
X9152000Y-10142000I50000J0D01*
G01*
X9152000Y-10396000D02*
G75*
G03*
X9052000Y-10396000I-50000J0D01*
G01*
X9052000Y-10396000D02*
G75*
G03*
X9152000Y-10396000I50000J0D01*
G01*
X9152000Y-10904000D02*
G75*
G03*
X9052000Y-10904000I-50000J0D01*
G01*
X9052000Y-10904000D02*
G75*
G03*
X9152000Y-10904000I50000J0D01*
G01*
X9406000Y-9634000D02*
G75*
G03*
X9306000Y-9634000I-50000J0D01*
G01*
X9306000Y-9634000D02*
G75*
G03*
X9406000Y-9634000I50000J0D01*
G01*
X9406000Y-10142000D02*
G75*
G03*
X9306000Y-10142000I-50000J0D01*
G01*
X9306000Y-10142000D02*
G75*
G03*
X9406000Y-10142000I50000J0D01*
G01*
X9406000Y-10396000D02*
G75*
G03*
X9306000Y-10396000I-50000J0D01*
G01*
X9306000Y-10396000D02*
G75*
G03*
X9406000Y-10396000I50000J0D01*
G01*
X9406000Y-10904000D02*
G75*
G03*
X9306000Y-10904000I-50000J0D01*
G01*
X9306000Y-10904000D02*
G75*
G03*
X9406000Y-10904000I50000J0D01*
G01*
X9660000Y-9634000D02*
G75*
G03*
X9560000Y-9634000I-50000J0D01*
G01*
X9560000Y-9634000D02*
G75*
G03*
X9660000Y-9634000I50000J0D01*
G01*
X9660000Y-10142000D02*
G75*
G03*
X9560000Y-10142000I-50000J0D01*
G01*
X9560000Y-10142000D02*
G75*
G03*
X9660000Y-10142000I50000J0D01*
G01*
X9660000Y-10396000D02*
G75*
G03*
X9560000Y-10396000I-50000J0D01*
G01*
X9560000Y-10396000D02*
G75*
G03*
X9660000Y-10396000I50000J0D01*
G01*
X9660000Y-10904000D02*
G75*
G03*
X9560000Y-10904000I-50000J0D01*
G01*
X9560000Y-10904000D02*
G75*
G03*
X9660000Y-10904000I50000J0D01*
G01*
X9914000Y-9634000D02*
G75*
G03*
X9814000Y-9634000I-50000J0D01*
G01*
X9814000Y-9634000D02*
G75*
G03*
X9914000Y-9634000I50000J0D01*
G01*
X9914000Y-10142000D02*
G75*
G03*
X9814000Y-10142000I-50000J0D01*
G01*
X9814000Y-10142000D02*
G75*
G03*
X9914000Y-10142000I50000J0D01*
G01*
X9914000Y-10396000D02*
G75*
G03*
X9814000Y-10396000I-50000J0D01*
G01*
X9814000Y-10396000D02*
G75*
G03*
X9914000Y-10396000I50000J0D01*
G01*
X9914000Y-10904000D02*
G75*
G03*
X9814000Y-10904000I-50000J0D01*
G01*
X9814000Y-10904000D02*
G75*
G03*
X9914000Y-10904000I50000J0D01*
G01*
X10168000Y-9634000D02*
G75*
G03*
X10068000Y-9634000I-50000J0D01*
G01*
X10068000Y-9634000D02*
G75*
G03*
X10168000Y-9634000I50000J0D01*
G01*
X10168000Y-10142000D02*
G75*
G03*
X10068000Y-10142000I-50000J0D01*
G01*
X10068000Y-10142000D02*
G75*
G03*
X10168000Y-10142000I50000J0D01*
G01*
X10168000Y-10396000D02*
G75*
G03*
X10068000Y-10396000I-50000J0D01*
G01*
X10068000Y-10396000D02*
G75*
G03*
X10168000Y-10396000I50000J0D01*
G01*
X10168000Y-10904000D02*
G75*
G03*
X10068000Y-10904000I-50000J0D01*
G01*
X10068000Y-10904000D02*
G75*
G03*
X10168000Y-10904000I50000J0D01*
G01*
X10367168Y-3389836D02*
G75*
G03*
X10267168Y-3389836I-50000J0D01*
G01*
X10267168Y-3389836D02*
G75*
G03*
X10367168Y-3389836I50000J0D01*
G01*
X10367168Y-4278836D02*
G75*
G03*
X10267168Y-4278836I-50000J0D01*
G01*
X10267168Y-4278836D02*
G75*
G03*
X10367168Y-4278836I50000J0D01*
G01*
X10367168Y-4872668D02*
G75*
G03*
X10267168Y-4872668I-50000J0D01*
G01*
X10267168Y-4872668D02*
G75*
G03*
X10367168Y-4872668I50000J0D01*
G01*
X10367168Y-5761668D02*
G75*
G03*
X10267168Y-5761668I-50000J0D01*
G01*
X10267168Y-5761668D02*
G75*
G03*
X10367168Y-5761668I50000J0D01*
G01*
X10367168Y-6355500D02*
G75*
G03*
X10267168Y-6355500I-50000J0D01*
G01*
X10267168Y-6355500D02*
G75*
G03*
X10367168Y-6355500I50000J0D01*
G01*
X10367168Y-7244500D02*
G75*
G03*
X10267168Y-7244500I-50000J0D01*
G01*
X10267168Y-7244500D02*
G75*
G03*
X10367168Y-7244500I50000J0D01*
G01*
X10422000Y-9634000D02*
G75*
G03*
X10322000Y-9634000I-50000J0D01*
G01*
X10322000Y-9634000D02*
G75*
G03*
X10422000Y-9634000I50000J0D01*
G01*
X10422000Y-10142000D02*
G75*
G03*
X10322000Y-10142000I-50000J0D01*
G01*
X10322000Y-10142000D02*
G75*
G03*
X10422000Y-10142000I50000J0D01*
G01*
X10422000Y-10396000D02*
G75*
G03*
X10322000Y-10396000I-50000J0D01*
G01*
X10322000Y-10396000D02*
G75*
G03*
X10422000Y-10396000I50000J0D01*
G01*
X10422000Y-10904000D02*
G75*
G03*
X10322000Y-10904000I-50000J0D01*
G01*
X10322000Y-10904000D02*
G75*
G03*
X10422000Y-10904000I50000J0D01*
G01*
X10676000Y-9634000D02*
G75*
G03*
X10576000Y-9634000I-50000J0D01*
G01*
X10576000Y-9634000D02*
G75*
G03*
X10676000Y-9634000I50000J0D01*
G01*
X10676000Y-10142000D02*
G75*
G03*
X10576000Y-10142000I-50000J0D01*
G01*
X10576000Y-10142000D02*
G75*
G03*
X10676000Y-10142000I50000J0D01*
G01*
X10676000Y-10396000D02*
G75*
G03*
X10576000Y-10396000I-50000J0D01*
G01*
X10576000Y-10396000D02*
G75*
G03*
X10676000Y-10396000I50000J0D01*
G01*
X10676000Y-10904000D02*
G75*
G03*
X10576000Y-10904000I-50000J0D01*
G01*
X10576000Y-10904000D02*
G75*
G03*
X10676000Y-10904000I50000J0D01*
G01*
X10930000Y-9634000D02*
G75*
G03*
X10830000Y-9634000I-50000J0D01*
G01*
X10830000Y-9634000D02*
G75*
G03*
X10930000Y-9634000I50000J0D01*
G01*
X10930000Y-10142000D02*
G75*
G03*
X10830000Y-10142000I-50000J0D01*
G01*
X10830000Y-10142000D02*
G75*
G03*
X10930000Y-10142000I50000J0D01*
G01*
X10930000Y-10396000D02*
G75*
G03*
X10830000Y-10396000I-50000J0D01*
G01*
X10830000Y-10396000D02*
G75*
G03*
X10930000Y-10396000I50000J0D01*
G01*
X10930000Y-10904000D02*
G75*
G03*
X10830000Y-10904000I-50000J0D01*
G01*
X10830000Y-10904000D02*
G75*
G03*
X10930000Y-10904000I50000J0D01*
G01*
X11184000Y-9634000D02*
G75*
G03*
X11084000Y-9634000I-50000J0D01*
G01*
X11084000Y-9634000D02*
G75*
G03*
X11184000Y-9634000I50000J0D01*
G01*
X11184000Y-10142000D02*
G75*
G03*
X11084000Y-10142000I-50000J0D01*
G01*
X11084000Y-10142000D02*
G75*
G03*
X11184000Y-10142000I50000J0D01*
G01*
X11184000Y-10396000D02*
G75*
G03*
X11084000Y-10396000I-50000J0D01*
G01*
X11084000Y-10396000D02*
G75*
G03*
X11184000Y-10396000I50000J0D01*
G01*
X11184000Y-10904000D02*
G75*
G03*
X11084000Y-10904000I-50000J0D01*
G01*
X11084000Y-10904000D02*
G75*
G03*
X11184000Y-10904000I50000J0D01*
G01*
X11438000Y-9634000D02*
G75*
G03*
X11338000Y-9634000I-50000J0D01*
G01*
X11338000Y-9634000D02*
G75*
G03*
X11438000Y-9634000I50000J0D01*
G01*
X11438000Y-10142000D02*
G75*
G03*
X11338000Y-10142000I-50000J0D01*
G01*
X11338000Y-10142000D02*
G75*
G03*
X11438000Y-10142000I50000J0D01*
G01*
X11438000Y-10396000D02*
G75*
G03*
X11338000Y-10396000I-50000J0D01*
G01*
X11338000Y-10396000D02*
G75*
G03*
X11438000Y-10396000I50000J0D01*
G01*
X11438000Y-10904000D02*
G75*
G03*
X11338000Y-10904000I-50000J0D01*
G01*
X11338000Y-10904000D02*
G75*
G03*
X11438000Y-10904000I50000J0D01*
G01*
X11692000Y-9634000D02*
G75*
G03*
X11592000Y-9634000I-50000J0D01*
G01*
X11592000Y-9634000D02*
G75*
G03*
X11692000Y-9634000I50000J0D01*
G01*
X11692000Y-10142000D02*
G75*
G03*
X11592000Y-10142000I-50000J0D01*
G01*
X11592000Y-10142000D02*
G75*
G03*
X11692000Y-10142000I50000J0D01*
G01*
X11692000Y-10396000D02*
G75*
G03*
X11592000Y-10396000I-50000J0D01*
G01*
X11592000Y-10396000D02*
G75*
G03*
X11692000Y-10396000I50000J0D01*
G01*
X11692000Y-10904000D02*
G75*
G03*
X11592000Y-10904000I-50000J0D01*
G01*
X11592000Y-10904000D02*
G75*
G03*
X11692000Y-10904000I50000J0D01*
G01*
X11850000Y-3389836D02*
G75*
G03*
X11750000Y-3389836I-50000J0D01*
G01*
X11750000Y-3389836D02*
G75*
G03*
X11850000Y-3389836I50000J0D01*
G01*
X11850000Y-4278836D02*
G75*
G03*
X11750000Y-4278836I-50000J0D01*
G01*
X11750000Y-4278836D02*
G75*
G03*
X11850000Y-4278836I50000J0D01*
G01*
X11850000Y-4872668D02*
G75*
G03*
X11750000Y-4872668I-50000J0D01*
G01*
X11750000Y-4872668D02*
G75*
G03*
X11850000Y-4872668I50000J0D01*
G01*
X11850000Y-5761668D02*
G75*
G03*
X11750000Y-5761668I-50000J0D01*
G01*
X11750000Y-5761668D02*
G75*
G03*
X11850000Y-5761668I50000J0D01*
G01*
X11850000Y-6355500D02*
G75*
G03*
X11750000Y-6355500I-50000J0D01*
G01*
X11750000Y-6355500D02*
G75*
G03*
X11850000Y-6355500I50000J0D01*
G01*
X11850000Y-7244500D02*
G75*
G03*
X11750000Y-7244500I-50000J0D01*
G01*
X11750000Y-7244500D02*
G75*
G03*
X11850000Y-7244500I50000J0D01*
G01*
X11946000Y-9634000D02*
G75*
G03*
X11846000Y-9634000I-50000J0D01*
G01*
X11846000Y-9634000D02*
G75*
G03*
X11946000Y-9634000I50000J0D01*
G01*
X11946000Y-10142000D02*
G75*
G03*
X11846000Y-10142000I-50000J0D01*
G01*
X11846000Y-10142000D02*
G75*
G03*
X11946000Y-10142000I50000J0D01*
G01*
X11946000Y-10396000D02*
G75*
G03*
X11846000Y-10396000I-50000J0D01*
G01*
X11846000Y-10396000D02*
G75*
G03*
X11946000Y-10396000I50000J0D01*
G01*
X11946000Y-10904000D02*
G75*
G03*
X11846000Y-10904000I-50000J0D01*
G01*
X11846000Y-10904000D02*
G75*
G03*
X11946000Y-10904000I50000J0D01*
G01*
X12200000Y-9634000D02*
G75*
G03*
X12100000Y-9634000I-50000J0D01*
G01*
X12100000Y-9634000D02*
G75*
G03*
X12200000Y-9634000I50000J0D01*
G01*
X12200000Y-10142000D02*
G75*
G03*
X12100000Y-10142000I-50000J0D01*
G01*
X12100000Y-10142000D02*
G75*
G03*
X12200000Y-10142000I50000J0D01*
G01*
X12200000Y-10396000D02*
G75*
G03*
X12100000Y-10396000I-50000J0D01*
G01*
X12100000Y-10396000D02*
G75*
G03*
X12200000Y-10396000I50000J0D01*
G01*
X12200000Y-10904000D02*
G75*
G03*
X12100000Y-10904000I-50000J0D01*
G01*
X12100000Y-10904000D02*
G75*
G03*
X12200000Y-10904000I50000J0D01*
G01*
X12454000Y-9634000D02*
G75*
G03*
X12354000Y-9634000I-50000J0D01*
G01*
X12354000Y-9634000D02*
G75*
G03*
X12454000Y-9634000I50000J0D01*
G01*
X12454000Y-10142000D02*
G75*
G03*
X12354000Y-10142000I-50000J0D01*
G01*
X12354000Y-10142000D02*
G75*
G03*
X12454000Y-10142000I50000J0D01*
G01*
X12454000Y-10396000D02*
G75*
G03*
X12354000Y-10396000I-50000J0D01*
G01*
X12354000Y-10396000D02*
G75*
G03*
X12454000Y-10396000I50000J0D01*
G01*
X12454000Y-10904000D02*
G75*
G03*
X12354000Y-10904000I-50000J0D01*
G01*
X12354000Y-10904000D02*
G75*
G03*
X12454000Y-10904000I50000J0D01*
G01*
X12708000Y-9634000D02*
G75*
G03*
X12608000Y-9634000I-50000J0D01*
G01*
X12608000Y-9634000D02*
G75*
G03*
X12708000Y-9634000I50000J0D01*
G01*
X12708000Y-10142000D02*
G75*
G03*
X12608000Y-10142000I-50000J0D01*
G01*
X12608000Y-10142000D02*
G75*
G03*
X12708000Y-10142000I50000J0D01*
G01*
X12708000Y-10396000D02*
G75*
G03*
X12608000Y-10396000I-50000J0D01*
G01*
X12608000Y-10396000D02*
G75*
G03*
X12708000Y-10396000I50000J0D01*
G01*
X12708000Y-10904000D02*
G75*
G03*
X12608000Y-10904000I-50000J0D01*
G01*
X12608000Y-10904000D02*
G75*
G03*
X12708000Y-10904000I50000J0D01*
G01*
D13*
X4576000Y-7940000D02*
X4576000Y-8060000D01*
X4516000Y-8000000D02*
X4636000Y-8000000D01*
X6100000Y-7940000D02*
X6100000Y-8060000D01*
X6040000Y-8000000D02*
X6160000Y-8000000D01*
X9976000Y-7890000D02*
X9976000Y-8010000D01*
X9916000Y-7950000D02*
X10036000Y-7950000D01*
X11500000Y-7890000D02*
X11500000Y-8010000D01*
X11440000Y-7950000D02*
X11560000Y-7950000D01*
D14*
X3553741Y-8153741D02*
X3553741Y-8046259D01*
X3446259Y-8046259D01*
X3446259Y-8153741D01*
X3553741Y-8153741D01*
X4061741Y-8153741D02*
X4061741Y-8046259D01*
X3954259Y-8046259D01*
X3954259Y-8153741D01*
X4061741Y-8153741D01*
X12153741Y-8103741D02*
X12153741Y-7996259D01*
X12046259Y-7996259D01*
X12046259Y-8103741D01*
X12153741Y-8103741D01*
X12661741Y-8103741D02*
X12661741Y-7996259D01*
X12554259Y-7996259D01*
X12554259Y-8103741D01*
X12661741Y-8103741D01*
D11*
X3253277Y-13318984D02*
X3253277Y-13118984D01*
X3253277Y-13118984D02*
X3300896Y-13118984D01*
X3300896Y-13118984D02*
X3329467Y-13128508D01*
X3329467Y-13128508D02*
X3348515Y-13147555D01*
X3348515Y-13147555D02*
X3358039Y-13166603D01*
X3358039Y-13166603D02*
X3367562Y-13204698D01*
X3367562Y-13204698D02*
X3367562Y-13233269D01*
X3367562Y-13233269D02*
X3358039Y-13271365D01*
X3358039Y-13271365D02*
X3348515Y-13290412D01*
X3348515Y-13290412D02*
X3329467Y-13309460D01*
X3329467Y-13309460D02*
X3300896Y-13318984D01*
X3300896Y-13318984D02*
X3253277Y-13318984D01*
X3453277Y-13318984D02*
X3453277Y-13185650D01*
X3453277Y-13223746D02*
X3462801Y-13204698D01*
X3462801Y-13204698D02*
X3472324Y-13195174D01*
X3472324Y-13195174D02*
X3491372Y-13185650D01*
X3491372Y-13185650D02*
X3510420Y-13185650D01*
X3577086Y-13318984D02*
X3577086Y-13185650D01*
X3577086Y-13118984D02*
X3567562Y-13128508D01*
X3567562Y-13128508D02*
X3577086Y-13138031D01*
X3577086Y-13138031D02*
X3586610Y-13128508D01*
X3586610Y-13128508D02*
X3577086Y-13118984D01*
X3577086Y-13118984D02*
X3577086Y-13138031D01*
X3700896Y-13318984D02*
X3681848Y-13309460D01*
X3681848Y-13309460D02*
X3672324Y-13290412D01*
X3672324Y-13290412D02*
X3672324Y-13118984D01*
X3805658Y-13318984D02*
X3786610Y-13309460D01*
X3786610Y-13309460D02*
X3777086Y-13290412D01*
X3777086Y-13290412D02*
X3777086Y-13118984D01*
X4034229Y-13318984D02*
X4034229Y-13118984D01*
X4034229Y-13118984D02*
X4100896Y-13261841D01*
X4100896Y-13261841D02*
X4167562Y-13118984D01*
X4167562Y-13118984D02*
X4167562Y-13318984D01*
X4348515Y-13318984D02*
X4348515Y-13214222D01*
X4348515Y-13214222D02*
X4338991Y-13195174D01*
X4338991Y-13195174D02*
X4319944Y-13185650D01*
X4319944Y-13185650D02*
X4281848Y-13185650D01*
X4281848Y-13185650D02*
X4262801Y-13195174D01*
X4348515Y-13309460D02*
X4329467Y-13318984D01*
X4329467Y-13318984D02*
X4281848Y-13318984D01*
X4281848Y-13318984D02*
X4262801Y-13309460D01*
X4262801Y-13309460D02*
X4253277Y-13290412D01*
X4253277Y-13290412D02*
X4253277Y-13271365D01*
X4253277Y-13271365D02*
X4262801Y-13252317D01*
X4262801Y-13252317D02*
X4281848Y-13242793D01*
X4281848Y-13242793D02*
X4329467Y-13242793D01*
X4329467Y-13242793D02*
X4348515Y-13233269D01*
X4443753Y-13185650D02*
X4443753Y-13385650D01*
X4443753Y-13195174D02*
X4462801Y-13185650D01*
X4462801Y-13185650D02*
X4500896Y-13185650D01*
X4500896Y-13185650D02*
X4519944Y-13195174D01*
X4519944Y-13195174D02*
X4529467Y-13204698D01*
X4529467Y-13204698D02*
X4538991Y-13223746D01*
X4538991Y-13223746D02*
X4538991Y-13280888D01*
X4538991Y-13280888D02*
X4529467Y-13299936D01*
X4529467Y-13299936D02*
X4519944Y-13309460D01*
X4519944Y-13309460D02*
X4500896Y-13318984D01*
X4500896Y-13318984D02*
X4462801Y-13318984D01*
X4462801Y-13318984D02*
X4443753Y-13309460D01*
X4624705Y-13299936D02*
X4634229Y-13309460D01*
X4634229Y-13309460D02*
X4624705Y-13318984D01*
X4624705Y-13318984D02*
X4615182Y-13309460D01*
X4615182Y-13309460D02*
X4624705Y-13299936D01*
X4624705Y-13299936D02*
X4624705Y-13318984D01*
X4624705Y-13195174D02*
X4634229Y-13204698D01*
X4634229Y-13204698D02*
X4624705Y-13214222D01*
X4624705Y-13214222D02*
X4615182Y-13204698D01*
X4615182Y-13204698D02*
X4624705Y-13195174D01*
X4624705Y-13195174D02*
X4624705Y-13214222D01*
D12*
X2912500Y-13607500D02*
X2992500Y-13687500D01*
X2992500Y-13607500D02*
X2912500Y-13687500D01*
D11*
X3291372Y-13538984D02*
X3310420Y-13538984D01*
X3310420Y-13538984D02*
X3329467Y-13548508D01*
X3329467Y-13548508D02*
X3338991Y-13558031D01*
X3338991Y-13558031D02*
X3348515Y-13577079D01*
X3348515Y-13577079D02*
X3358039Y-13615174D01*
X3358039Y-13615174D02*
X3358039Y-13662793D01*
X3358039Y-13662793D02*
X3348515Y-13700888D01*
X3348515Y-13700888D02*
X3338991Y-13719936D01*
X3338991Y-13719936D02*
X3329467Y-13729460D01*
X3329467Y-13729460D02*
X3310420Y-13738984D01*
X3310420Y-13738984D02*
X3291372Y-13738984D01*
X3291372Y-13738984D02*
X3272324Y-13729460D01*
X3272324Y-13729460D02*
X3262801Y-13719936D01*
X3262801Y-13719936D02*
X3253277Y-13700888D01*
X3253277Y-13700888D02*
X3243753Y-13662793D01*
X3243753Y-13662793D02*
X3243753Y-13615174D01*
X3243753Y-13615174D02*
X3253277Y-13577079D01*
X3253277Y-13577079D02*
X3262801Y-13558031D01*
X3262801Y-13558031D02*
X3272324Y-13548508D01*
X3272324Y-13548508D02*
X3291372Y-13538984D01*
X3443753Y-13719936D02*
X3453277Y-13729460D01*
X3453277Y-13729460D02*
X3443753Y-13738984D01*
X3443753Y-13738984D02*
X3434229Y-13729460D01*
X3434229Y-13729460D02*
X3443753Y-13719936D01*
X3443753Y-13719936D02*
X3443753Y-13738984D01*
X3567562Y-13624698D02*
X3548515Y-13615174D01*
X3548515Y-13615174D02*
X3538991Y-13605650D01*
X3538991Y-13605650D02*
X3529467Y-13586603D01*
X3529467Y-13586603D02*
X3529467Y-13577079D01*
X3529467Y-13577079D02*
X3538991Y-13558031D01*
X3538991Y-13558031D02*
X3548515Y-13548508D01*
X3548515Y-13548508D02*
X3567562Y-13538984D01*
X3567562Y-13538984D02*
X3605658Y-13538984D01*
X3605658Y-13538984D02*
X3624705Y-13548508D01*
X3624705Y-13548508D02*
X3634229Y-13558031D01*
X3634229Y-13558031D02*
X3643753Y-13577079D01*
X3643753Y-13577079D02*
X3643753Y-13586603D01*
X3643753Y-13586603D02*
X3634229Y-13605650D01*
X3634229Y-13605650D02*
X3624705Y-13615174D01*
X3624705Y-13615174D02*
X3605658Y-13624698D01*
X3605658Y-13624698D02*
X3567562Y-13624698D01*
X3567562Y-13624698D02*
X3548515Y-13634222D01*
X3548515Y-13634222D02*
X3538991Y-13643746D01*
X3538991Y-13643746D02*
X3529467Y-13662793D01*
X3529467Y-13662793D02*
X3529467Y-13700888D01*
X3529467Y-13700888D02*
X3538991Y-13719936D01*
X3538991Y-13719936D02*
X3548515Y-13729460D01*
X3548515Y-13729460D02*
X3567562Y-13738984D01*
X3567562Y-13738984D02*
X3605658Y-13738984D01*
X3605658Y-13738984D02*
X3624705Y-13729460D01*
X3624705Y-13729460D02*
X3634229Y-13719936D01*
X3634229Y-13719936D02*
X3643753Y-13700888D01*
X3643753Y-13700888D02*
X3643753Y-13662793D01*
X3643753Y-13662793D02*
X3634229Y-13643746D01*
X3634229Y-13643746D02*
X3624705Y-13634222D01*
X3624705Y-13634222D02*
X3605658Y-13624698D01*
X3767562Y-13538984D02*
X3786610Y-13538984D01*
X3786610Y-13538984D02*
X3805658Y-13548508D01*
X3805658Y-13548508D02*
X3815182Y-13558031D01*
X3815182Y-13558031D02*
X3824705Y-13577079D01*
X3824705Y-13577079D02*
X3834229Y-13615174D01*
X3834229Y-13615174D02*
X3834229Y-13662793D01*
X3834229Y-13662793D02*
X3824705Y-13700888D01*
X3824705Y-13700888D02*
X3815182Y-13719936D01*
X3815182Y-13719936D02*
X3805658Y-13729460D01*
X3805658Y-13729460D02*
X3786610Y-13738984D01*
X3786610Y-13738984D02*
X3767562Y-13738984D01*
X3767562Y-13738984D02*
X3748515Y-13729460D01*
X3748515Y-13729460D02*
X3738991Y-13719936D01*
X3738991Y-13719936D02*
X3729467Y-13700888D01*
X3729467Y-13700888D02*
X3719943Y-13662793D01*
X3719943Y-13662793D02*
X3719943Y-13615174D01*
X3719943Y-13615174D02*
X3729467Y-13577079D01*
X3729467Y-13577079D02*
X3738991Y-13558031D01*
X3738991Y-13558031D02*
X3748515Y-13548508D01*
X3748515Y-13548508D02*
X3767562Y-13538984D01*
X3958039Y-13538984D02*
X3977086Y-13538984D01*
X3977086Y-13538984D02*
X3996134Y-13548508D01*
X3996134Y-13548508D02*
X4005658Y-13558031D01*
X4005658Y-13558031D02*
X4015182Y-13577079D01*
X4015182Y-13577079D02*
X4024705Y-13615174D01*
X4024705Y-13615174D02*
X4024705Y-13662793D01*
X4024705Y-13662793D02*
X4015182Y-13700888D01*
X4015182Y-13700888D02*
X4005658Y-13719936D01*
X4005658Y-13719936D02*
X3996134Y-13729460D01*
X3996134Y-13729460D02*
X3977086Y-13738984D01*
X3977086Y-13738984D02*
X3958039Y-13738984D01*
X3958039Y-13738984D02*
X3938991Y-13729460D01*
X3938991Y-13729460D02*
X3929467Y-13719936D01*
X3929467Y-13719936D02*
X3919943Y-13700888D01*
X3919943Y-13700888D02*
X3910420Y-13662793D01*
X3910420Y-13662793D02*
X3910420Y-13615174D01*
X3910420Y-13615174D02*
X3919943Y-13577079D01*
X3919943Y-13577079D02*
X3929467Y-13558031D01*
X3929467Y-13558031D02*
X3938991Y-13548508D01*
X3938991Y-13548508D02*
X3958039Y-13538984D01*
X4110420Y-13738984D02*
X4110420Y-13605650D01*
X4110420Y-13624698D02*
X4119943Y-13615174D01*
X4119943Y-13615174D02*
X4138991Y-13605650D01*
X4138991Y-13605650D02*
X4167563Y-13605650D01*
X4167563Y-13605650D02*
X4186610Y-13615174D01*
X4186610Y-13615174D02*
X4196134Y-13634222D01*
X4196134Y-13634222D02*
X4196134Y-13738984D01*
X4196134Y-13634222D02*
X4205658Y-13615174D01*
X4205658Y-13615174D02*
X4224705Y-13605650D01*
X4224705Y-13605650D02*
X4253277Y-13605650D01*
X4253277Y-13605650D02*
X4272325Y-13615174D01*
X4272325Y-13615174D02*
X4281848Y-13634222D01*
X4281848Y-13634222D02*
X4281848Y-13738984D01*
X4377086Y-13738984D02*
X4377086Y-13605650D01*
X4377086Y-13624698D02*
X4386610Y-13615174D01*
X4386610Y-13615174D02*
X4405658Y-13605650D01*
X4405658Y-13605650D02*
X4434229Y-13605650D01*
X4434229Y-13605650D02*
X4453277Y-13615174D01*
X4453277Y-13615174D02*
X4462801Y-13634222D01*
X4462801Y-13634222D02*
X4462801Y-13738984D01*
X4462801Y-13634222D02*
X4472325Y-13615174D01*
X4472325Y-13615174D02*
X4491372Y-13605650D01*
X4491372Y-13605650D02*
X4519944Y-13605650D01*
X4519944Y-13605650D02*
X4538991Y-13615174D01*
X4538991Y-13615174D02*
X4548515Y-13634222D01*
X4548515Y-13634222D02*
X4548515Y-13738984D01*
X4938991Y-13529460D02*
X4767563Y-13786603D01*
X5196134Y-13538984D02*
X5215182Y-13538984D01*
X5215182Y-13538984D02*
X5234229Y-13548508D01*
X5234229Y-13548508D02*
X5243753Y-13558031D01*
X5243753Y-13558031D02*
X5253277Y-13577079D01*
X5253277Y-13577079D02*
X5262801Y-13615174D01*
X5262801Y-13615174D02*
X5262801Y-13662793D01*
X5262801Y-13662793D02*
X5253277Y-13700888D01*
X5253277Y-13700888D02*
X5243753Y-13719936D01*
X5243753Y-13719936D02*
X5234229Y-13729460D01*
X5234229Y-13729460D02*
X5215182Y-13738984D01*
X5215182Y-13738984D02*
X5196134Y-13738984D01*
X5196134Y-13738984D02*
X5177087Y-13729460D01*
X5177087Y-13729460D02*
X5167563Y-13719936D01*
X5167563Y-13719936D02*
X5158039Y-13700888D01*
X5158039Y-13700888D02*
X5148515Y-13662793D01*
X5148515Y-13662793D02*
X5148515Y-13615174D01*
X5148515Y-13615174D02*
X5158039Y-13577079D01*
X5158039Y-13577079D02*
X5167563Y-13558031D01*
X5167563Y-13558031D02*
X5177087Y-13548508D01*
X5177087Y-13548508D02*
X5196134Y-13538984D01*
X5348515Y-13719936D02*
X5358039Y-13729460D01*
X5358039Y-13729460D02*
X5348515Y-13738984D01*
X5348515Y-13738984D02*
X5338991Y-13729460D01*
X5338991Y-13729460D02*
X5348515Y-13719936D01*
X5348515Y-13719936D02*
X5348515Y-13738984D01*
X5481848Y-13538984D02*
X5500896Y-13538984D01*
X5500896Y-13538984D02*
X5519944Y-13548508D01*
X5519944Y-13548508D02*
X5529468Y-13558031D01*
X5529468Y-13558031D02*
X5538991Y-13577079D01*
X5538991Y-13577079D02*
X5548515Y-13615174D01*
X5548515Y-13615174D02*
X5548515Y-13662793D01*
X5548515Y-13662793D02*
X5538991Y-13700888D01*
X5538991Y-13700888D02*
X5529468Y-13719936D01*
X5529468Y-13719936D02*
X5519944Y-13729460D01*
X5519944Y-13729460D02*
X5500896Y-13738984D01*
X5500896Y-13738984D02*
X5481848Y-13738984D01*
X5481848Y-13738984D02*
X5462801Y-13729460D01*
X5462801Y-13729460D02*
X5453277Y-13719936D01*
X5453277Y-13719936D02*
X5443753Y-13700888D01*
X5443753Y-13700888D02*
X5434229Y-13662793D01*
X5434229Y-13662793D02*
X5434229Y-13615174D01*
X5434229Y-13615174D02*
X5443753Y-13577079D01*
X5443753Y-13577079D02*
X5453277Y-13558031D01*
X5453277Y-13558031D02*
X5462801Y-13548508D01*
X5462801Y-13548508D02*
X5481848Y-13538984D01*
X5615182Y-13538984D02*
X5738991Y-13538984D01*
X5738991Y-13538984D02*
X5672325Y-13615174D01*
X5672325Y-13615174D02*
X5700896Y-13615174D01*
X5700896Y-13615174D02*
X5719944Y-13624698D01*
X5719944Y-13624698D02*
X5729467Y-13634222D01*
X5729467Y-13634222D02*
X5738991Y-13653269D01*
X5738991Y-13653269D02*
X5738991Y-13700888D01*
X5738991Y-13700888D02*
X5729467Y-13719936D01*
X5729467Y-13719936D02*
X5719944Y-13729460D01*
X5719944Y-13729460D02*
X5700896Y-13738984D01*
X5700896Y-13738984D02*
X5643753Y-13738984D01*
X5643753Y-13738984D02*
X5624706Y-13729460D01*
X5624706Y-13729460D02*
X5615182Y-13719936D01*
X5929467Y-13738984D02*
X5815182Y-13738984D01*
X5872325Y-13738984D02*
X5872325Y-13538984D01*
X5872325Y-13538984D02*
X5853277Y-13567555D01*
X5853277Y-13567555D02*
X5834229Y-13586603D01*
X5834229Y-13586603D02*
X5815182Y-13596127D01*
X6110420Y-13538984D02*
X6015182Y-13538984D01*
X6015182Y-13538984D02*
X6005658Y-13634222D01*
X6005658Y-13634222D02*
X6015182Y-13624698D01*
X6015182Y-13624698D02*
X6034229Y-13615174D01*
X6034229Y-13615174D02*
X6081848Y-13615174D01*
X6081848Y-13615174D02*
X6100896Y-13624698D01*
X6100896Y-13624698D02*
X6110420Y-13634222D01*
X6110420Y-13634222D02*
X6119944Y-13653269D01*
X6119944Y-13653269D02*
X6119944Y-13700888D01*
X6119944Y-13700888D02*
X6110420Y-13719936D01*
X6110420Y-13719936D02*
X6100896Y-13729460D01*
X6100896Y-13729460D02*
X6081848Y-13738984D01*
X6081848Y-13738984D02*
X6034229Y-13738984D01*
X6034229Y-13738984D02*
X6015182Y-13729460D01*
X6015182Y-13729460D02*
X6005658Y-13719936D01*
X6196134Y-13538984D02*
X6196134Y-13577079D01*
X6272325Y-13538984D02*
X6272325Y-13577079D01*
X6567563Y-13815174D02*
X6558039Y-13805650D01*
X6558039Y-13805650D02*
X6538991Y-13777079D01*
X6538991Y-13777079D02*
X6529468Y-13758031D01*
X6529468Y-13758031D02*
X6519944Y-13729460D01*
X6519944Y-13729460D02*
X6510420Y-13681841D01*
X6510420Y-13681841D02*
X6510420Y-13643746D01*
X6510420Y-13643746D02*
X6519944Y-13596127D01*
X6519944Y-13596127D02*
X6529468Y-13567555D01*
X6529468Y-13567555D02*
X6538991Y-13548508D01*
X6538991Y-13548508D02*
X6558039Y-13519936D01*
X6558039Y-13519936D02*
X6567563Y-13510412D01*
X6729468Y-13538984D02*
X6691372Y-13538984D01*
X6691372Y-13538984D02*
X6672325Y-13548508D01*
X6672325Y-13548508D02*
X6662801Y-13558031D01*
X6662801Y-13558031D02*
X6643753Y-13586603D01*
X6643753Y-13586603D02*
X6634229Y-13624698D01*
X6634229Y-13624698D02*
X6634229Y-13700888D01*
X6634229Y-13700888D02*
X6643753Y-13719936D01*
X6643753Y-13719936D02*
X6653277Y-13729460D01*
X6653277Y-13729460D02*
X6672325Y-13738984D01*
X6672325Y-13738984D02*
X6710420Y-13738984D01*
X6710420Y-13738984D02*
X6729468Y-13729460D01*
X6729468Y-13729460D02*
X6738991Y-13719936D01*
X6738991Y-13719936D02*
X6748515Y-13700888D01*
X6748515Y-13700888D02*
X6748515Y-13653269D01*
X6748515Y-13653269D02*
X6738991Y-13634222D01*
X6738991Y-13634222D02*
X6729468Y-13624698D01*
X6729468Y-13624698D02*
X6710420Y-13615174D01*
X6710420Y-13615174D02*
X6672325Y-13615174D01*
X6672325Y-13615174D02*
X6653277Y-13624698D01*
X6653277Y-13624698D02*
X6643753Y-13634222D01*
X6643753Y-13634222D02*
X6634229Y-13653269D01*
X6815182Y-13538984D02*
X6948515Y-13538984D01*
X6948515Y-13538984D02*
X6862801Y-13738984D01*
X7177087Y-13738984D02*
X7177087Y-13538984D01*
X7262801Y-13738984D02*
X7262801Y-13634222D01*
X7262801Y-13634222D02*
X7253277Y-13615174D01*
X7253277Y-13615174D02*
X7234230Y-13605650D01*
X7234230Y-13605650D02*
X7205658Y-13605650D01*
X7205658Y-13605650D02*
X7186610Y-13615174D01*
X7186610Y-13615174D02*
X7177087Y-13624698D01*
X7386610Y-13738984D02*
X7367563Y-13729460D01*
X7367563Y-13729460D02*
X7358039Y-13719936D01*
X7358039Y-13719936D02*
X7348515Y-13700888D01*
X7348515Y-13700888D02*
X7348515Y-13643746D01*
X7348515Y-13643746D02*
X7358039Y-13624698D01*
X7358039Y-13624698D02*
X7367563Y-13615174D01*
X7367563Y-13615174D02*
X7386610Y-13605650D01*
X7386610Y-13605650D02*
X7415182Y-13605650D01*
X7415182Y-13605650D02*
X7434230Y-13615174D01*
X7434230Y-13615174D02*
X7443753Y-13624698D01*
X7443753Y-13624698D02*
X7453277Y-13643746D01*
X7453277Y-13643746D02*
X7453277Y-13700888D01*
X7453277Y-13700888D02*
X7443753Y-13719936D01*
X7443753Y-13719936D02*
X7434230Y-13729460D01*
X7434230Y-13729460D02*
X7415182Y-13738984D01*
X7415182Y-13738984D02*
X7386610Y-13738984D01*
X7567563Y-13738984D02*
X7548515Y-13729460D01*
X7548515Y-13729460D02*
X7538991Y-13710412D01*
X7538991Y-13710412D02*
X7538991Y-13538984D01*
X7719944Y-13729460D02*
X7700896Y-13738984D01*
X7700896Y-13738984D02*
X7662801Y-13738984D01*
X7662801Y-13738984D02*
X7643753Y-13729460D01*
X7643753Y-13729460D02*
X7634230Y-13710412D01*
X7634230Y-13710412D02*
X7634230Y-13634222D01*
X7634230Y-13634222D02*
X7643753Y-13615174D01*
X7643753Y-13615174D02*
X7662801Y-13605650D01*
X7662801Y-13605650D02*
X7700896Y-13605650D01*
X7700896Y-13605650D02*
X7719944Y-13615174D01*
X7719944Y-13615174D02*
X7729468Y-13634222D01*
X7729468Y-13634222D02*
X7729468Y-13653269D01*
X7729468Y-13653269D02*
X7634230Y-13672317D01*
X7805658Y-13729460D02*
X7824706Y-13738984D01*
X7824706Y-13738984D02*
X7862801Y-13738984D01*
X7862801Y-13738984D02*
X7881849Y-13729460D01*
X7881849Y-13729460D02*
X7891372Y-13710412D01*
X7891372Y-13710412D02*
X7891372Y-13700888D01*
X7891372Y-13700888D02*
X7881849Y-13681841D01*
X7881849Y-13681841D02*
X7862801Y-13672317D01*
X7862801Y-13672317D02*
X7834230Y-13672317D01*
X7834230Y-13672317D02*
X7815182Y-13662793D01*
X7815182Y-13662793D02*
X7805658Y-13643746D01*
X7805658Y-13643746D02*
X7805658Y-13634222D01*
X7805658Y-13634222D02*
X7815182Y-13615174D01*
X7815182Y-13615174D02*
X7834230Y-13605650D01*
X7834230Y-13605650D02*
X7862801Y-13605650D01*
X7862801Y-13605650D02*
X7881849Y-13615174D01*
X7958039Y-13815174D02*
X7967563Y-13805650D01*
X7967563Y-13805650D02*
X7986611Y-13777079D01*
X7986611Y-13777079D02*
X7996134Y-13758031D01*
X7996134Y-13758031D02*
X8005658Y-13729460D01*
X8005658Y-13729460D02*
X8015182Y-13681841D01*
X8015182Y-13681841D02*
X8015182Y-13643746D01*
X8015182Y-13643746D02*
X8005658Y-13596127D01*
X8005658Y-13596127D02*
X7996134Y-13567555D01*
X7996134Y-13567555D02*
X7986611Y-13548508D01*
X7986611Y-13548508D02*
X7967563Y-13519936D01*
X7967563Y-13519936D02*
X7958039Y-13510412D01*
D12*
X2992500Y-13911500D02*
G75*
G03*
X2892500Y-13911500I-50000J0D01*
G01*
X2892500Y-13911500D02*
G75*
G03*
X2992500Y-13911500I50000J0D01*
G01*
D11*
X3358039Y-14002984D02*
X3243753Y-14002984D01*
X3300896Y-14002984D02*
X3300896Y-13802984D01*
X3300896Y-13802984D02*
X3281848Y-13831555D01*
X3281848Y-13831555D02*
X3262801Y-13850603D01*
X3262801Y-13850603D02*
X3243753Y-13860127D01*
X3443753Y-13983936D02*
X3453277Y-13993460D01*
X3453277Y-13993460D02*
X3443753Y-14002984D01*
X3443753Y-14002984D02*
X3434229Y-13993460D01*
X3434229Y-13993460D02*
X3443753Y-13983936D01*
X3443753Y-13983936D02*
X3443753Y-14002984D01*
X3577086Y-13802984D02*
X3596134Y-13802984D01*
X3596134Y-13802984D02*
X3615182Y-13812508D01*
X3615182Y-13812508D02*
X3624705Y-13822031D01*
X3624705Y-13822031D02*
X3634229Y-13841079D01*
X3634229Y-13841079D02*
X3643753Y-13879174D01*
X3643753Y-13879174D02*
X3643753Y-13926793D01*
X3643753Y-13926793D02*
X3634229Y-13964888D01*
X3634229Y-13964888D02*
X3624705Y-13983936D01*
X3624705Y-13983936D02*
X3615182Y-13993460D01*
X3615182Y-13993460D02*
X3596134Y-14002984D01*
X3596134Y-14002984D02*
X3577086Y-14002984D01*
X3577086Y-14002984D02*
X3558039Y-13993460D01*
X3558039Y-13993460D02*
X3548515Y-13983936D01*
X3548515Y-13983936D02*
X3538991Y-13964888D01*
X3538991Y-13964888D02*
X3529467Y-13926793D01*
X3529467Y-13926793D02*
X3529467Y-13879174D01*
X3529467Y-13879174D02*
X3538991Y-13841079D01*
X3538991Y-13841079D02*
X3548515Y-13822031D01*
X3548515Y-13822031D02*
X3558039Y-13812508D01*
X3558039Y-13812508D02*
X3577086Y-13802984D01*
X3767562Y-13802984D02*
X3786610Y-13802984D01*
X3786610Y-13802984D02*
X3805658Y-13812508D01*
X3805658Y-13812508D02*
X3815182Y-13822031D01*
X3815182Y-13822031D02*
X3824705Y-13841079D01*
X3824705Y-13841079D02*
X3834229Y-13879174D01*
X3834229Y-13879174D02*
X3834229Y-13926793D01*
X3834229Y-13926793D02*
X3824705Y-13964888D01*
X3824705Y-13964888D02*
X3815182Y-13983936D01*
X3815182Y-13983936D02*
X3805658Y-13993460D01*
X3805658Y-13993460D02*
X3786610Y-14002984D01*
X3786610Y-14002984D02*
X3767562Y-14002984D01*
X3767562Y-14002984D02*
X3748515Y-13993460D01*
X3748515Y-13993460D02*
X3738991Y-13983936D01*
X3738991Y-13983936D02*
X3729467Y-13964888D01*
X3729467Y-13964888D02*
X3719943Y-13926793D01*
X3719943Y-13926793D02*
X3719943Y-13879174D01*
X3719943Y-13879174D02*
X3729467Y-13841079D01*
X3729467Y-13841079D02*
X3738991Y-13822031D01*
X3738991Y-13822031D02*
X3748515Y-13812508D01*
X3748515Y-13812508D02*
X3767562Y-13802984D01*
X3958039Y-13802984D02*
X3977086Y-13802984D01*
X3977086Y-13802984D02*
X3996134Y-13812508D01*
X3996134Y-13812508D02*
X4005658Y-13822031D01*
X4005658Y-13822031D02*
X4015182Y-13841079D01*
X4015182Y-13841079D02*
X4024705Y-13879174D01*
X4024705Y-13879174D02*
X4024705Y-13926793D01*
X4024705Y-13926793D02*
X4015182Y-13964888D01*
X4015182Y-13964888D02*
X4005658Y-13983936D01*
X4005658Y-13983936D02*
X3996134Y-13993460D01*
X3996134Y-13993460D02*
X3977086Y-14002984D01*
X3977086Y-14002984D02*
X3958039Y-14002984D01*
X3958039Y-14002984D02*
X3938991Y-13993460D01*
X3938991Y-13993460D02*
X3929467Y-13983936D01*
X3929467Y-13983936D02*
X3919943Y-13964888D01*
X3919943Y-13964888D02*
X3910420Y-13926793D01*
X3910420Y-13926793D02*
X3910420Y-13879174D01*
X3910420Y-13879174D02*
X3919943Y-13841079D01*
X3919943Y-13841079D02*
X3929467Y-13822031D01*
X3929467Y-13822031D02*
X3938991Y-13812508D01*
X3938991Y-13812508D02*
X3958039Y-13802984D01*
X4110420Y-14002984D02*
X4110420Y-13869650D01*
X4110420Y-13888698D02*
X4119943Y-13879174D01*
X4119943Y-13879174D02*
X4138991Y-13869650D01*
X4138991Y-13869650D02*
X4167563Y-13869650D01*
X4167563Y-13869650D02*
X4186610Y-13879174D01*
X4186610Y-13879174D02*
X4196134Y-13898222D01*
X4196134Y-13898222D02*
X4196134Y-14002984D01*
X4196134Y-13898222D02*
X4205658Y-13879174D01*
X4205658Y-13879174D02*
X4224705Y-13869650D01*
X4224705Y-13869650D02*
X4253277Y-13869650D01*
X4253277Y-13869650D02*
X4272325Y-13879174D01*
X4272325Y-13879174D02*
X4281848Y-13898222D01*
X4281848Y-13898222D02*
X4281848Y-14002984D01*
X4377086Y-14002984D02*
X4377086Y-13869650D01*
X4377086Y-13888698D02*
X4386610Y-13879174D01*
X4386610Y-13879174D02*
X4405658Y-13869650D01*
X4405658Y-13869650D02*
X4434229Y-13869650D01*
X4434229Y-13869650D02*
X4453277Y-13879174D01*
X4453277Y-13879174D02*
X4462801Y-13898222D01*
X4462801Y-13898222D02*
X4462801Y-14002984D01*
X4462801Y-13898222D02*
X4472325Y-13879174D01*
X4472325Y-13879174D02*
X4491372Y-13869650D01*
X4491372Y-13869650D02*
X4519944Y-13869650D01*
X4519944Y-13869650D02*
X4538991Y-13879174D01*
X4538991Y-13879174D02*
X4548515Y-13898222D01*
X4548515Y-13898222D02*
X4548515Y-14002984D01*
X4938991Y-13793460D02*
X4767563Y-14050603D01*
X5196134Y-13802984D02*
X5215182Y-13802984D01*
X5215182Y-13802984D02*
X5234229Y-13812508D01*
X5234229Y-13812508D02*
X5243753Y-13822031D01*
X5243753Y-13822031D02*
X5253277Y-13841079D01*
X5253277Y-13841079D02*
X5262801Y-13879174D01*
X5262801Y-13879174D02*
X5262801Y-13926793D01*
X5262801Y-13926793D02*
X5253277Y-13964888D01*
X5253277Y-13964888D02*
X5243753Y-13983936D01*
X5243753Y-13983936D02*
X5234229Y-13993460D01*
X5234229Y-13993460D02*
X5215182Y-14002984D01*
X5215182Y-14002984D02*
X5196134Y-14002984D01*
X5196134Y-14002984D02*
X5177087Y-13993460D01*
X5177087Y-13993460D02*
X5167563Y-13983936D01*
X5167563Y-13983936D02*
X5158039Y-13964888D01*
X5158039Y-13964888D02*
X5148515Y-13926793D01*
X5148515Y-13926793D02*
X5148515Y-13879174D01*
X5148515Y-13879174D02*
X5158039Y-13841079D01*
X5158039Y-13841079D02*
X5167563Y-13822031D01*
X5167563Y-13822031D02*
X5177087Y-13812508D01*
X5177087Y-13812508D02*
X5196134Y-13802984D01*
X5348515Y-13983936D02*
X5358039Y-13993460D01*
X5358039Y-13993460D02*
X5348515Y-14002984D01*
X5348515Y-14002984D02*
X5338991Y-13993460D01*
X5338991Y-13993460D02*
X5348515Y-13983936D01*
X5348515Y-13983936D02*
X5348515Y-14002984D01*
X5481848Y-13802984D02*
X5500896Y-13802984D01*
X5500896Y-13802984D02*
X5519944Y-13812508D01*
X5519944Y-13812508D02*
X5529468Y-13822031D01*
X5529468Y-13822031D02*
X5538991Y-13841079D01*
X5538991Y-13841079D02*
X5548515Y-13879174D01*
X5548515Y-13879174D02*
X5548515Y-13926793D01*
X5548515Y-13926793D02*
X5538991Y-13964888D01*
X5538991Y-13964888D02*
X5529468Y-13983936D01*
X5529468Y-13983936D02*
X5519944Y-13993460D01*
X5519944Y-13993460D02*
X5500896Y-14002984D01*
X5500896Y-14002984D02*
X5481848Y-14002984D01*
X5481848Y-14002984D02*
X5462801Y-13993460D01*
X5462801Y-13993460D02*
X5453277Y-13983936D01*
X5453277Y-13983936D02*
X5443753Y-13964888D01*
X5443753Y-13964888D02*
X5434229Y-13926793D01*
X5434229Y-13926793D02*
X5434229Y-13879174D01*
X5434229Y-13879174D02*
X5443753Y-13841079D01*
X5443753Y-13841079D02*
X5453277Y-13822031D01*
X5453277Y-13822031D02*
X5462801Y-13812508D01*
X5462801Y-13812508D02*
X5481848Y-13802984D01*
X5615182Y-13802984D02*
X5738991Y-13802984D01*
X5738991Y-13802984D02*
X5672325Y-13879174D01*
X5672325Y-13879174D02*
X5700896Y-13879174D01*
X5700896Y-13879174D02*
X5719944Y-13888698D01*
X5719944Y-13888698D02*
X5729467Y-13898222D01*
X5729467Y-13898222D02*
X5738991Y-13917269D01*
X5738991Y-13917269D02*
X5738991Y-13964888D01*
X5738991Y-13964888D02*
X5729467Y-13983936D01*
X5729467Y-13983936D02*
X5719944Y-13993460D01*
X5719944Y-13993460D02*
X5700896Y-14002984D01*
X5700896Y-14002984D02*
X5643753Y-14002984D01*
X5643753Y-14002984D02*
X5624706Y-13993460D01*
X5624706Y-13993460D02*
X5615182Y-13983936D01*
X5834229Y-14002984D02*
X5872325Y-14002984D01*
X5872325Y-14002984D02*
X5891372Y-13993460D01*
X5891372Y-13993460D02*
X5900896Y-13983936D01*
X5900896Y-13983936D02*
X5919944Y-13955365D01*
X5919944Y-13955365D02*
X5929467Y-13917269D01*
X5929467Y-13917269D02*
X5929467Y-13841079D01*
X5929467Y-13841079D02*
X5919944Y-13822031D01*
X5919944Y-13822031D02*
X5910420Y-13812508D01*
X5910420Y-13812508D02*
X5891372Y-13802984D01*
X5891372Y-13802984D02*
X5853277Y-13802984D01*
X5853277Y-13802984D02*
X5834229Y-13812508D01*
X5834229Y-13812508D02*
X5824706Y-13822031D01*
X5824706Y-13822031D02*
X5815182Y-13841079D01*
X5815182Y-13841079D02*
X5815182Y-13888698D01*
X5815182Y-13888698D02*
X5824706Y-13907746D01*
X5824706Y-13907746D02*
X5834229Y-13917269D01*
X5834229Y-13917269D02*
X5853277Y-13926793D01*
X5853277Y-13926793D02*
X5891372Y-13926793D01*
X5891372Y-13926793D02*
X5910420Y-13917269D01*
X5910420Y-13917269D02*
X5919944Y-13907746D01*
X5919944Y-13907746D02*
X5929467Y-13888698D01*
X6100896Y-13869650D02*
X6100896Y-14002984D01*
X6053277Y-13793460D02*
X6005658Y-13936317D01*
X6005658Y-13936317D02*
X6129467Y-13936317D01*
X6196134Y-13802984D02*
X6196134Y-13841079D01*
X6272325Y-13802984D02*
X6272325Y-13841079D01*
X6567563Y-14079174D02*
X6558039Y-14069650D01*
X6558039Y-14069650D02*
X6538991Y-14041079D01*
X6538991Y-14041079D02*
X6529468Y-14022031D01*
X6529468Y-14022031D02*
X6519944Y-13993460D01*
X6519944Y-13993460D02*
X6510420Y-13945841D01*
X6510420Y-13945841D02*
X6510420Y-13907746D01*
X6510420Y-13907746D02*
X6519944Y-13860127D01*
X6519944Y-13860127D02*
X6529468Y-13831555D01*
X6529468Y-13831555D02*
X6538991Y-13812508D01*
X6538991Y-13812508D02*
X6558039Y-13783936D01*
X6558039Y-13783936D02*
X6567563Y-13774412D01*
X6748515Y-14002984D02*
X6634229Y-14002984D01*
X6691372Y-14002984D02*
X6691372Y-13802984D01*
X6691372Y-13802984D02*
X6672325Y-13831555D01*
X6672325Y-13831555D02*
X6653277Y-13850603D01*
X6653277Y-13850603D02*
X6634229Y-13860127D01*
X6815182Y-13802984D02*
X6938991Y-13802984D01*
X6938991Y-13802984D02*
X6872325Y-13879174D01*
X6872325Y-13879174D02*
X6900896Y-13879174D01*
X6900896Y-13879174D02*
X6919944Y-13888698D01*
X6919944Y-13888698D02*
X6929468Y-13898222D01*
X6929468Y-13898222D02*
X6938991Y-13917269D01*
X6938991Y-13917269D02*
X6938991Y-13964888D01*
X6938991Y-13964888D02*
X6929468Y-13983936D01*
X6929468Y-13983936D02*
X6919944Y-13993460D01*
X6919944Y-13993460D02*
X6900896Y-14002984D01*
X6900896Y-14002984D02*
X6843753Y-14002984D01*
X6843753Y-14002984D02*
X6824706Y-13993460D01*
X6824706Y-13993460D02*
X6815182Y-13983936D01*
X7062801Y-13802984D02*
X7081849Y-13802984D01*
X7081849Y-13802984D02*
X7100896Y-13812508D01*
X7100896Y-13812508D02*
X7110420Y-13822031D01*
X7110420Y-13822031D02*
X7119944Y-13841079D01*
X7119944Y-13841079D02*
X7129468Y-13879174D01*
X7129468Y-13879174D02*
X7129468Y-13926793D01*
X7129468Y-13926793D02*
X7119944Y-13964888D01*
X7119944Y-13964888D02*
X7110420Y-13983936D01*
X7110420Y-13983936D02*
X7100896Y-13993460D01*
X7100896Y-13993460D02*
X7081849Y-14002984D01*
X7081849Y-14002984D02*
X7062801Y-14002984D01*
X7062801Y-14002984D02*
X7043753Y-13993460D01*
X7043753Y-13993460D02*
X7034229Y-13983936D01*
X7034229Y-13983936D02*
X7024706Y-13964888D01*
X7024706Y-13964888D02*
X7015182Y-13926793D01*
X7015182Y-13926793D02*
X7015182Y-13879174D01*
X7015182Y-13879174D02*
X7024706Y-13841079D01*
X7024706Y-13841079D02*
X7034229Y-13822031D01*
X7034229Y-13822031D02*
X7043753Y-13812508D01*
X7043753Y-13812508D02*
X7062801Y-13802984D01*
X7367563Y-14002984D02*
X7367563Y-13802984D01*
X7453277Y-14002984D02*
X7453277Y-13898222D01*
X7453277Y-13898222D02*
X7443753Y-13879174D01*
X7443753Y-13879174D02*
X7424706Y-13869650D01*
X7424706Y-13869650D02*
X7396134Y-13869650D01*
X7396134Y-13869650D02*
X7377087Y-13879174D01*
X7377087Y-13879174D02*
X7367563Y-13888698D01*
X7577087Y-14002984D02*
X7558039Y-13993460D01*
X7558039Y-13993460D02*
X7548515Y-13983936D01*
X7548515Y-13983936D02*
X7538991Y-13964888D01*
X7538991Y-13964888D02*
X7538991Y-13907746D01*
X7538991Y-13907746D02*
X7548515Y-13888698D01*
X7548515Y-13888698D02*
X7558039Y-13879174D01*
X7558039Y-13879174D02*
X7577087Y-13869650D01*
X7577087Y-13869650D02*
X7605658Y-13869650D01*
X7605658Y-13869650D02*
X7624706Y-13879174D01*
X7624706Y-13879174D02*
X7634230Y-13888698D01*
X7634230Y-13888698D02*
X7643753Y-13907746D01*
X7643753Y-13907746D02*
X7643753Y-13964888D01*
X7643753Y-13964888D02*
X7634230Y-13983936D01*
X7634230Y-13983936D02*
X7624706Y-13993460D01*
X7624706Y-13993460D02*
X7605658Y-14002984D01*
X7605658Y-14002984D02*
X7577087Y-14002984D01*
X7758039Y-14002984D02*
X7738991Y-13993460D01*
X7738991Y-13993460D02*
X7729468Y-13974412D01*
X7729468Y-13974412D02*
X7729468Y-13802984D01*
X7910420Y-13993460D02*
X7891372Y-14002984D01*
X7891372Y-14002984D02*
X7853277Y-14002984D01*
X7853277Y-14002984D02*
X7834230Y-13993460D01*
X7834230Y-13993460D02*
X7824706Y-13974412D01*
X7824706Y-13974412D02*
X7824706Y-13898222D01*
X7824706Y-13898222D02*
X7834230Y-13879174D01*
X7834230Y-13879174D02*
X7853277Y-13869650D01*
X7853277Y-13869650D02*
X7891372Y-13869650D01*
X7891372Y-13869650D02*
X7910420Y-13879174D01*
X7910420Y-13879174D02*
X7919944Y-13898222D01*
X7919944Y-13898222D02*
X7919944Y-13917269D01*
X7919944Y-13917269D02*
X7824706Y-13936317D01*
X7996134Y-13993460D02*
X8015182Y-14002984D01*
X8015182Y-14002984D02*
X8053277Y-14002984D01*
X8053277Y-14002984D02*
X8072325Y-13993460D01*
X8072325Y-13993460D02*
X8081849Y-13974412D01*
X8081849Y-13974412D02*
X8081849Y-13964888D01*
X8081849Y-13964888D02*
X8072325Y-13945841D01*
X8072325Y-13945841D02*
X8053277Y-13936317D01*
X8053277Y-13936317D02*
X8024706Y-13936317D01*
X8024706Y-13936317D02*
X8005658Y-13926793D01*
X8005658Y-13926793D02*
X7996134Y-13907746D01*
X7996134Y-13907746D02*
X7996134Y-13898222D01*
X7996134Y-13898222D02*
X8005658Y-13879174D01*
X8005658Y-13879174D02*
X8024706Y-13869650D01*
X8024706Y-13869650D02*
X8053277Y-13869650D01*
X8053277Y-13869650D02*
X8072325Y-13879174D01*
X8148515Y-14079174D02*
X8158039Y-14069650D01*
X8158039Y-14069650D02*
X8177087Y-14041079D01*
X8177087Y-14041079D02*
X8186611Y-14022031D01*
X8186611Y-14022031D02*
X8196134Y-13993460D01*
X8196134Y-13993460D02*
X8205658Y-13945841D01*
X8205658Y-13945841D02*
X8205658Y-13907746D01*
X8205658Y-13907746D02*
X8196134Y-13860127D01*
X8196134Y-13860127D02*
X8186611Y-13831555D01*
X8186611Y-13831555D02*
X8177087Y-13812508D01*
X8177087Y-13812508D02*
X8158039Y-13783936D01*
X8158039Y-13783936D02*
X8148515Y-13774412D01*
D13*
X2932500Y-14115500D02*
X2932500Y-14235500D01*
X2872500Y-14175500D02*
X2992500Y-14175500D01*
D11*
X3358039Y-14266984D02*
X3243753Y-14266984D01*
X3300896Y-14266984D02*
X3300896Y-14066984D01*
X3300896Y-14066984D02*
X3281848Y-14095555D01*
X3281848Y-14095555D02*
X3262801Y-14114603D01*
X3262801Y-14114603D02*
X3243753Y-14124127D01*
X3443753Y-14247936D02*
X3453277Y-14257460D01*
X3453277Y-14257460D02*
X3443753Y-14266984D01*
X3443753Y-14266984D02*
X3434229Y-14257460D01*
X3434229Y-14257460D02*
X3443753Y-14247936D01*
X3443753Y-14247936D02*
X3443753Y-14266984D01*
X3529467Y-14086031D02*
X3538991Y-14076508D01*
X3538991Y-14076508D02*
X3558039Y-14066984D01*
X3558039Y-14066984D02*
X3605658Y-14066984D01*
X3605658Y-14066984D02*
X3624705Y-14076508D01*
X3624705Y-14076508D02*
X3634229Y-14086031D01*
X3634229Y-14086031D02*
X3643753Y-14105079D01*
X3643753Y-14105079D02*
X3643753Y-14124127D01*
X3643753Y-14124127D02*
X3634229Y-14152698D01*
X3634229Y-14152698D02*
X3519943Y-14266984D01*
X3519943Y-14266984D02*
X3643753Y-14266984D01*
X3767562Y-14066984D02*
X3786610Y-14066984D01*
X3786610Y-14066984D02*
X3805658Y-14076508D01*
X3805658Y-14076508D02*
X3815182Y-14086031D01*
X3815182Y-14086031D02*
X3824705Y-14105079D01*
X3824705Y-14105079D02*
X3834229Y-14143174D01*
X3834229Y-14143174D02*
X3834229Y-14190793D01*
X3834229Y-14190793D02*
X3824705Y-14228888D01*
X3824705Y-14228888D02*
X3815182Y-14247936D01*
X3815182Y-14247936D02*
X3805658Y-14257460D01*
X3805658Y-14257460D02*
X3786610Y-14266984D01*
X3786610Y-14266984D02*
X3767562Y-14266984D01*
X3767562Y-14266984D02*
X3748515Y-14257460D01*
X3748515Y-14257460D02*
X3738991Y-14247936D01*
X3738991Y-14247936D02*
X3729467Y-14228888D01*
X3729467Y-14228888D02*
X3719943Y-14190793D01*
X3719943Y-14190793D02*
X3719943Y-14143174D01*
X3719943Y-14143174D02*
X3729467Y-14105079D01*
X3729467Y-14105079D02*
X3738991Y-14086031D01*
X3738991Y-14086031D02*
X3748515Y-14076508D01*
X3748515Y-14076508D02*
X3767562Y-14066984D01*
X3958039Y-14066984D02*
X3977086Y-14066984D01*
X3977086Y-14066984D02*
X3996134Y-14076508D01*
X3996134Y-14076508D02*
X4005658Y-14086031D01*
X4005658Y-14086031D02*
X4015182Y-14105079D01*
X4015182Y-14105079D02*
X4024705Y-14143174D01*
X4024705Y-14143174D02*
X4024705Y-14190793D01*
X4024705Y-14190793D02*
X4015182Y-14228888D01*
X4015182Y-14228888D02*
X4005658Y-14247936D01*
X4005658Y-14247936D02*
X3996134Y-14257460D01*
X3996134Y-14257460D02*
X3977086Y-14266984D01*
X3977086Y-14266984D02*
X3958039Y-14266984D01*
X3958039Y-14266984D02*
X3938991Y-14257460D01*
X3938991Y-14257460D02*
X3929467Y-14247936D01*
X3929467Y-14247936D02*
X3919943Y-14228888D01*
X3919943Y-14228888D02*
X3910420Y-14190793D01*
X3910420Y-14190793D02*
X3910420Y-14143174D01*
X3910420Y-14143174D02*
X3919943Y-14105079D01*
X3919943Y-14105079D02*
X3929467Y-14086031D01*
X3929467Y-14086031D02*
X3938991Y-14076508D01*
X3938991Y-14076508D02*
X3958039Y-14066984D01*
X4110420Y-14266984D02*
X4110420Y-14133650D01*
X4110420Y-14152698D02*
X4119943Y-14143174D01*
X4119943Y-14143174D02*
X4138991Y-14133650D01*
X4138991Y-14133650D02*
X4167563Y-14133650D01*
X4167563Y-14133650D02*
X4186610Y-14143174D01*
X4186610Y-14143174D02*
X4196134Y-14162222D01*
X4196134Y-14162222D02*
X4196134Y-14266984D01*
X4196134Y-14162222D02*
X4205658Y-14143174D01*
X4205658Y-14143174D02*
X4224705Y-14133650D01*
X4224705Y-14133650D02*
X4253277Y-14133650D01*
X4253277Y-14133650D02*
X4272325Y-14143174D01*
X4272325Y-14143174D02*
X4281848Y-14162222D01*
X4281848Y-14162222D02*
X4281848Y-14266984D01*
X4377086Y-14266984D02*
X4377086Y-14133650D01*
X4377086Y-14152698D02*
X4386610Y-14143174D01*
X4386610Y-14143174D02*
X4405658Y-14133650D01*
X4405658Y-14133650D02*
X4434229Y-14133650D01*
X4434229Y-14133650D02*
X4453277Y-14143174D01*
X4453277Y-14143174D02*
X4462801Y-14162222D01*
X4462801Y-14162222D02*
X4462801Y-14266984D01*
X4462801Y-14162222D02*
X4472325Y-14143174D01*
X4472325Y-14143174D02*
X4491372Y-14133650D01*
X4491372Y-14133650D02*
X4519944Y-14133650D01*
X4519944Y-14133650D02*
X4538991Y-14143174D01*
X4538991Y-14143174D02*
X4548515Y-14162222D01*
X4548515Y-14162222D02*
X4548515Y-14266984D01*
X4938991Y-14057460D02*
X4767563Y-14314603D01*
X5196134Y-14066984D02*
X5215182Y-14066984D01*
X5215182Y-14066984D02*
X5234229Y-14076508D01*
X5234229Y-14076508D02*
X5243753Y-14086031D01*
X5243753Y-14086031D02*
X5253277Y-14105079D01*
X5253277Y-14105079D02*
X5262801Y-14143174D01*
X5262801Y-14143174D02*
X5262801Y-14190793D01*
X5262801Y-14190793D02*
X5253277Y-14228888D01*
X5253277Y-14228888D02*
X5243753Y-14247936D01*
X5243753Y-14247936D02*
X5234229Y-14257460D01*
X5234229Y-14257460D02*
X5215182Y-14266984D01*
X5215182Y-14266984D02*
X5196134Y-14266984D01*
X5196134Y-14266984D02*
X5177087Y-14257460D01*
X5177087Y-14257460D02*
X5167563Y-14247936D01*
X5167563Y-14247936D02*
X5158039Y-14228888D01*
X5158039Y-14228888D02*
X5148515Y-14190793D01*
X5148515Y-14190793D02*
X5148515Y-14143174D01*
X5148515Y-14143174D02*
X5158039Y-14105079D01*
X5158039Y-14105079D02*
X5167563Y-14086031D01*
X5167563Y-14086031D02*
X5177087Y-14076508D01*
X5177087Y-14076508D02*
X5196134Y-14066984D01*
X5348515Y-14247936D02*
X5358039Y-14257460D01*
X5358039Y-14257460D02*
X5348515Y-14266984D01*
X5348515Y-14266984D02*
X5338991Y-14257460D01*
X5338991Y-14257460D02*
X5348515Y-14247936D01*
X5348515Y-14247936D02*
X5348515Y-14266984D01*
X5481848Y-14066984D02*
X5500896Y-14066984D01*
X5500896Y-14066984D02*
X5519944Y-14076508D01*
X5519944Y-14076508D02*
X5529468Y-14086031D01*
X5529468Y-14086031D02*
X5538991Y-14105079D01*
X5538991Y-14105079D02*
X5548515Y-14143174D01*
X5548515Y-14143174D02*
X5548515Y-14190793D01*
X5548515Y-14190793D02*
X5538991Y-14228888D01*
X5538991Y-14228888D02*
X5529468Y-14247936D01*
X5529468Y-14247936D02*
X5519944Y-14257460D01*
X5519944Y-14257460D02*
X5500896Y-14266984D01*
X5500896Y-14266984D02*
X5481848Y-14266984D01*
X5481848Y-14266984D02*
X5462801Y-14257460D01*
X5462801Y-14257460D02*
X5453277Y-14247936D01*
X5453277Y-14247936D02*
X5443753Y-14228888D01*
X5443753Y-14228888D02*
X5434229Y-14190793D01*
X5434229Y-14190793D02*
X5434229Y-14143174D01*
X5434229Y-14143174D02*
X5443753Y-14105079D01*
X5443753Y-14105079D02*
X5453277Y-14086031D01*
X5453277Y-14086031D02*
X5462801Y-14076508D01*
X5462801Y-14076508D02*
X5481848Y-14066984D01*
X5719944Y-14133650D02*
X5719944Y-14266984D01*
X5672325Y-14057460D02*
X5624706Y-14200317D01*
X5624706Y-14200317D02*
X5748515Y-14200317D01*
X5805658Y-14066984D02*
X5938991Y-14066984D01*
X5938991Y-14066984D02*
X5853277Y-14266984D01*
X6005658Y-14086031D02*
X6015182Y-14076508D01*
X6015182Y-14076508D02*
X6034229Y-14066984D01*
X6034229Y-14066984D02*
X6081848Y-14066984D01*
X6081848Y-14066984D02*
X6100896Y-14076508D01*
X6100896Y-14076508D02*
X6110420Y-14086031D01*
X6110420Y-14086031D02*
X6119944Y-14105079D01*
X6119944Y-14105079D02*
X6119944Y-14124127D01*
X6119944Y-14124127D02*
X6110420Y-14152698D01*
X6110420Y-14152698D02*
X5996134Y-14266984D01*
X5996134Y-14266984D02*
X6119944Y-14266984D01*
X6196134Y-14066984D02*
X6196134Y-14105079D01*
X6272325Y-14066984D02*
X6272325Y-14105079D01*
X6567563Y-14343174D02*
X6558039Y-14333650D01*
X6558039Y-14333650D02*
X6538991Y-14305079D01*
X6538991Y-14305079D02*
X6529468Y-14286031D01*
X6529468Y-14286031D02*
X6519944Y-14257460D01*
X6519944Y-14257460D02*
X6510420Y-14209841D01*
X6510420Y-14209841D02*
X6510420Y-14171746D01*
X6510420Y-14171746D02*
X6519944Y-14124127D01*
X6519944Y-14124127D02*
X6529468Y-14095555D01*
X6529468Y-14095555D02*
X6538991Y-14076508D01*
X6538991Y-14076508D02*
X6558039Y-14047936D01*
X6558039Y-14047936D02*
X6567563Y-14038412D01*
X6729468Y-14133650D02*
X6729468Y-14266984D01*
X6681848Y-14057460D02*
X6634229Y-14200317D01*
X6634229Y-14200317D02*
X6758039Y-14200317D01*
X6986610Y-14266984D02*
X6986610Y-14066984D01*
X7072325Y-14266984D02*
X7072325Y-14162222D01*
X7072325Y-14162222D02*
X7062801Y-14143174D01*
X7062801Y-14143174D02*
X7043753Y-14133650D01*
X7043753Y-14133650D02*
X7015182Y-14133650D01*
X7015182Y-14133650D02*
X6996134Y-14143174D01*
X6996134Y-14143174D02*
X6986610Y-14152698D01*
X7196134Y-14266984D02*
X7177087Y-14257460D01*
X7177087Y-14257460D02*
X7167563Y-14247936D01*
X7167563Y-14247936D02*
X7158039Y-14228888D01*
X7158039Y-14228888D02*
X7158039Y-14171746D01*
X7158039Y-14171746D02*
X7167563Y-14152698D01*
X7167563Y-14152698D02*
X7177087Y-14143174D01*
X7177087Y-14143174D02*
X7196134Y-14133650D01*
X7196134Y-14133650D02*
X7224706Y-14133650D01*
X7224706Y-14133650D02*
X7243753Y-14143174D01*
X7243753Y-14143174D02*
X7253277Y-14152698D01*
X7253277Y-14152698D02*
X7262801Y-14171746D01*
X7262801Y-14171746D02*
X7262801Y-14228888D01*
X7262801Y-14228888D02*
X7253277Y-14247936D01*
X7253277Y-14247936D02*
X7243753Y-14257460D01*
X7243753Y-14257460D02*
X7224706Y-14266984D01*
X7224706Y-14266984D02*
X7196134Y-14266984D01*
X7377087Y-14266984D02*
X7358039Y-14257460D01*
X7358039Y-14257460D02*
X7348515Y-14238412D01*
X7348515Y-14238412D02*
X7348515Y-14066984D01*
X7529468Y-14257460D02*
X7510420Y-14266984D01*
X7510420Y-14266984D02*
X7472325Y-14266984D01*
X7472325Y-14266984D02*
X7453277Y-14257460D01*
X7453277Y-14257460D02*
X7443753Y-14238412D01*
X7443753Y-14238412D02*
X7443753Y-14162222D01*
X7443753Y-14162222D02*
X7453277Y-14143174D01*
X7453277Y-14143174D02*
X7472325Y-14133650D01*
X7472325Y-14133650D02*
X7510420Y-14133650D01*
X7510420Y-14133650D02*
X7529468Y-14143174D01*
X7529468Y-14143174D02*
X7538991Y-14162222D01*
X7538991Y-14162222D02*
X7538991Y-14181269D01*
X7538991Y-14181269D02*
X7443753Y-14200317D01*
X7615182Y-14257460D02*
X7634230Y-14266984D01*
X7634230Y-14266984D02*
X7672325Y-14266984D01*
X7672325Y-14266984D02*
X7691372Y-14257460D01*
X7691372Y-14257460D02*
X7700896Y-14238412D01*
X7700896Y-14238412D02*
X7700896Y-14228888D01*
X7700896Y-14228888D02*
X7691372Y-14209841D01*
X7691372Y-14209841D02*
X7672325Y-14200317D01*
X7672325Y-14200317D02*
X7643753Y-14200317D01*
X7643753Y-14200317D02*
X7624706Y-14190793D01*
X7624706Y-14190793D02*
X7615182Y-14171746D01*
X7615182Y-14171746D02*
X7615182Y-14162222D01*
X7615182Y-14162222D02*
X7624706Y-14143174D01*
X7624706Y-14143174D02*
X7643753Y-14133650D01*
X7643753Y-14133650D02*
X7672325Y-14133650D01*
X7672325Y-14133650D02*
X7691372Y-14143174D01*
X7767563Y-14343174D02*
X7777087Y-14333650D01*
X7777087Y-14333650D02*
X7796134Y-14305079D01*
X7796134Y-14305079D02*
X7805658Y-14286031D01*
X7805658Y-14286031D02*
X7815182Y-14257460D01*
X7815182Y-14257460D02*
X7824706Y-14209841D01*
X7824706Y-14209841D02*
X7824706Y-14171746D01*
X7824706Y-14171746D02*
X7815182Y-14124127D01*
X7815182Y-14124127D02*
X7805658Y-14095555D01*
X7805658Y-14095555D02*
X7796134Y-14076508D01*
X7796134Y-14076508D02*
X7777087Y-14047936D01*
X7777087Y-14047936D02*
X7767563Y-14038412D01*
D14*
X2970241Y-14493241D02*
X2970241Y-14385759D01*
X2862759Y-14385759D01*
X2862759Y-14493241D01*
X2970241Y-14493241D01*
D11*
X3358039Y-14530984D02*
X3243753Y-14530984D01*
X3300896Y-14530984D02*
X3300896Y-14330984D01*
X3300896Y-14330984D02*
X3281848Y-14359555D01*
X3281848Y-14359555D02*
X3262801Y-14378603D01*
X3262801Y-14378603D02*
X3243753Y-14388127D01*
X3443753Y-14511936D02*
X3453277Y-14521460D01*
X3453277Y-14521460D02*
X3443753Y-14530984D01*
X3443753Y-14530984D02*
X3434229Y-14521460D01*
X3434229Y-14521460D02*
X3443753Y-14511936D01*
X3443753Y-14511936D02*
X3443753Y-14530984D01*
X3634229Y-14330984D02*
X3538991Y-14330984D01*
X3538991Y-14330984D02*
X3529467Y-14426222D01*
X3529467Y-14426222D02*
X3538991Y-14416698D01*
X3538991Y-14416698D02*
X3558039Y-14407174D01*
X3558039Y-14407174D02*
X3605658Y-14407174D01*
X3605658Y-14407174D02*
X3624705Y-14416698D01*
X3624705Y-14416698D02*
X3634229Y-14426222D01*
X3634229Y-14426222D02*
X3643753Y-14445269D01*
X3643753Y-14445269D02*
X3643753Y-14492888D01*
X3643753Y-14492888D02*
X3634229Y-14511936D01*
X3634229Y-14511936D02*
X3624705Y-14521460D01*
X3624705Y-14521460D02*
X3605658Y-14530984D01*
X3605658Y-14530984D02*
X3558039Y-14530984D01*
X3558039Y-14530984D02*
X3538991Y-14521460D01*
X3538991Y-14521460D02*
X3529467Y-14511936D01*
X3719943Y-14350031D02*
X3729467Y-14340508D01*
X3729467Y-14340508D02*
X3748515Y-14330984D01*
X3748515Y-14330984D02*
X3796134Y-14330984D01*
X3796134Y-14330984D02*
X3815182Y-14340508D01*
X3815182Y-14340508D02*
X3824705Y-14350031D01*
X3824705Y-14350031D02*
X3834229Y-14369079D01*
X3834229Y-14369079D02*
X3834229Y-14388127D01*
X3834229Y-14388127D02*
X3824705Y-14416698D01*
X3824705Y-14416698D02*
X3710420Y-14530984D01*
X3710420Y-14530984D02*
X3834229Y-14530984D01*
X3958039Y-14330984D02*
X3977086Y-14330984D01*
X3977086Y-14330984D02*
X3996134Y-14340508D01*
X3996134Y-14340508D02*
X4005658Y-14350031D01*
X4005658Y-14350031D02*
X4015182Y-14369079D01*
X4015182Y-14369079D02*
X4024705Y-14407174D01*
X4024705Y-14407174D02*
X4024705Y-14454793D01*
X4024705Y-14454793D02*
X4015182Y-14492888D01*
X4015182Y-14492888D02*
X4005658Y-14511936D01*
X4005658Y-14511936D02*
X3996134Y-14521460D01*
X3996134Y-14521460D02*
X3977086Y-14530984D01*
X3977086Y-14530984D02*
X3958039Y-14530984D01*
X3958039Y-14530984D02*
X3938991Y-14521460D01*
X3938991Y-14521460D02*
X3929467Y-14511936D01*
X3929467Y-14511936D02*
X3919943Y-14492888D01*
X3919943Y-14492888D02*
X3910420Y-14454793D01*
X3910420Y-14454793D02*
X3910420Y-14407174D01*
X3910420Y-14407174D02*
X3919943Y-14369079D01*
X3919943Y-14369079D02*
X3929467Y-14350031D01*
X3929467Y-14350031D02*
X3938991Y-14340508D01*
X3938991Y-14340508D02*
X3958039Y-14330984D01*
X4110420Y-14530984D02*
X4110420Y-14397650D01*
X4110420Y-14416698D02*
X4119943Y-14407174D01*
X4119943Y-14407174D02*
X4138991Y-14397650D01*
X4138991Y-14397650D02*
X4167563Y-14397650D01*
X4167563Y-14397650D02*
X4186610Y-14407174D01*
X4186610Y-14407174D02*
X4196134Y-14426222D01*
X4196134Y-14426222D02*
X4196134Y-14530984D01*
X4196134Y-14426222D02*
X4205658Y-14407174D01*
X4205658Y-14407174D02*
X4224705Y-14397650D01*
X4224705Y-14397650D02*
X4253277Y-14397650D01*
X4253277Y-14397650D02*
X4272325Y-14407174D01*
X4272325Y-14407174D02*
X4281848Y-14426222D01*
X4281848Y-14426222D02*
X4281848Y-14530984D01*
X4377086Y-14530984D02*
X4377086Y-14397650D01*
X4377086Y-14416698D02*
X4386610Y-14407174D01*
X4386610Y-14407174D02*
X4405658Y-14397650D01*
X4405658Y-14397650D02*
X4434229Y-14397650D01*
X4434229Y-14397650D02*
X4453277Y-14407174D01*
X4453277Y-14407174D02*
X4462801Y-14426222D01*
X4462801Y-14426222D02*
X4462801Y-14530984D01*
X4462801Y-14426222D02*
X4472325Y-14407174D01*
X4472325Y-14407174D02*
X4491372Y-14397650D01*
X4491372Y-14397650D02*
X4519944Y-14397650D01*
X4519944Y-14397650D02*
X4538991Y-14407174D01*
X4538991Y-14407174D02*
X4548515Y-14426222D01*
X4548515Y-14426222D02*
X4548515Y-14530984D01*
X4938991Y-14321460D02*
X4767563Y-14578603D01*
X5196134Y-14330984D02*
X5215182Y-14330984D01*
X5215182Y-14330984D02*
X5234229Y-14340508D01*
X5234229Y-14340508D02*
X5243753Y-14350031D01*
X5243753Y-14350031D02*
X5253277Y-14369079D01*
X5253277Y-14369079D02*
X5262801Y-14407174D01*
X5262801Y-14407174D02*
X5262801Y-14454793D01*
X5262801Y-14454793D02*
X5253277Y-14492888D01*
X5253277Y-14492888D02*
X5243753Y-14511936D01*
X5243753Y-14511936D02*
X5234229Y-14521460D01*
X5234229Y-14521460D02*
X5215182Y-14530984D01*
X5215182Y-14530984D02*
X5196134Y-14530984D01*
X5196134Y-14530984D02*
X5177087Y-14521460D01*
X5177087Y-14521460D02*
X5167563Y-14511936D01*
X5167563Y-14511936D02*
X5158039Y-14492888D01*
X5158039Y-14492888D02*
X5148515Y-14454793D01*
X5148515Y-14454793D02*
X5148515Y-14407174D01*
X5148515Y-14407174D02*
X5158039Y-14369079D01*
X5158039Y-14369079D02*
X5167563Y-14350031D01*
X5167563Y-14350031D02*
X5177087Y-14340508D01*
X5177087Y-14340508D02*
X5196134Y-14330984D01*
X5348515Y-14511936D02*
X5358039Y-14521460D01*
X5358039Y-14521460D02*
X5348515Y-14530984D01*
X5348515Y-14530984D02*
X5338991Y-14521460D01*
X5338991Y-14521460D02*
X5348515Y-14511936D01*
X5348515Y-14511936D02*
X5348515Y-14530984D01*
X5481848Y-14330984D02*
X5500896Y-14330984D01*
X5500896Y-14330984D02*
X5519944Y-14340508D01*
X5519944Y-14340508D02*
X5529468Y-14350031D01*
X5529468Y-14350031D02*
X5538991Y-14369079D01*
X5538991Y-14369079D02*
X5548515Y-14407174D01*
X5548515Y-14407174D02*
X5548515Y-14454793D01*
X5548515Y-14454793D02*
X5538991Y-14492888D01*
X5538991Y-14492888D02*
X5529468Y-14511936D01*
X5529468Y-14511936D02*
X5519944Y-14521460D01*
X5519944Y-14521460D02*
X5500896Y-14530984D01*
X5500896Y-14530984D02*
X5481848Y-14530984D01*
X5481848Y-14530984D02*
X5462801Y-14521460D01*
X5462801Y-14521460D02*
X5453277Y-14511936D01*
X5453277Y-14511936D02*
X5443753Y-14492888D01*
X5443753Y-14492888D02*
X5434229Y-14454793D01*
X5434229Y-14454793D02*
X5434229Y-14407174D01*
X5434229Y-14407174D02*
X5443753Y-14369079D01*
X5443753Y-14369079D02*
X5453277Y-14350031D01*
X5453277Y-14350031D02*
X5462801Y-14340508D01*
X5462801Y-14340508D02*
X5481848Y-14330984D01*
X5729467Y-14330984D02*
X5634229Y-14330984D01*
X5634229Y-14330984D02*
X5624706Y-14426222D01*
X5624706Y-14426222D02*
X5634229Y-14416698D01*
X5634229Y-14416698D02*
X5653277Y-14407174D01*
X5653277Y-14407174D02*
X5700896Y-14407174D01*
X5700896Y-14407174D02*
X5719944Y-14416698D01*
X5719944Y-14416698D02*
X5729467Y-14426222D01*
X5729467Y-14426222D02*
X5738991Y-14445269D01*
X5738991Y-14445269D02*
X5738991Y-14492888D01*
X5738991Y-14492888D02*
X5729467Y-14511936D01*
X5729467Y-14511936D02*
X5719944Y-14521460D01*
X5719944Y-14521460D02*
X5700896Y-14530984D01*
X5700896Y-14530984D02*
X5653277Y-14530984D01*
X5653277Y-14530984D02*
X5634229Y-14521460D01*
X5634229Y-14521460D02*
X5624706Y-14511936D01*
X5834229Y-14530984D02*
X5872325Y-14530984D01*
X5872325Y-14530984D02*
X5891372Y-14521460D01*
X5891372Y-14521460D02*
X5900896Y-14511936D01*
X5900896Y-14511936D02*
X5919944Y-14483365D01*
X5919944Y-14483365D02*
X5929467Y-14445269D01*
X5929467Y-14445269D02*
X5929467Y-14369079D01*
X5929467Y-14369079D02*
X5919944Y-14350031D01*
X5919944Y-14350031D02*
X5910420Y-14340508D01*
X5910420Y-14340508D02*
X5891372Y-14330984D01*
X5891372Y-14330984D02*
X5853277Y-14330984D01*
X5853277Y-14330984D02*
X5834229Y-14340508D01*
X5834229Y-14340508D02*
X5824706Y-14350031D01*
X5824706Y-14350031D02*
X5815182Y-14369079D01*
X5815182Y-14369079D02*
X5815182Y-14416698D01*
X5815182Y-14416698D02*
X5824706Y-14435746D01*
X5824706Y-14435746D02*
X5834229Y-14445269D01*
X5834229Y-14445269D02*
X5853277Y-14454793D01*
X5853277Y-14454793D02*
X5891372Y-14454793D01*
X5891372Y-14454793D02*
X5910420Y-14445269D01*
X5910420Y-14445269D02*
X5919944Y-14435746D01*
X5919944Y-14435746D02*
X5929467Y-14416698D01*
X6043753Y-14416698D02*
X6024706Y-14407174D01*
X6024706Y-14407174D02*
X6015182Y-14397650D01*
X6015182Y-14397650D02*
X6005658Y-14378603D01*
X6005658Y-14378603D02*
X6005658Y-14369079D01*
X6005658Y-14369079D02*
X6015182Y-14350031D01*
X6015182Y-14350031D02*
X6024706Y-14340508D01*
X6024706Y-14340508D02*
X6043753Y-14330984D01*
X6043753Y-14330984D02*
X6081848Y-14330984D01*
X6081848Y-14330984D02*
X6100896Y-14340508D01*
X6100896Y-14340508D02*
X6110420Y-14350031D01*
X6110420Y-14350031D02*
X6119944Y-14369079D01*
X6119944Y-14369079D02*
X6119944Y-14378603D01*
X6119944Y-14378603D02*
X6110420Y-14397650D01*
X6110420Y-14397650D02*
X6100896Y-14407174D01*
X6100896Y-14407174D02*
X6081848Y-14416698D01*
X6081848Y-14416698D02*
X6043753Y-14416698D01*
X6043753Y-14416698D02*
X6024706Y-14426222D01*
X6024706Y-14426222D02*
X6015182Y-14435746D01*
X6015182Y-14435746D02*
X6005658Y-14454793D01*
X6005658Y-14454793D02*
X6005658Y-14492888D01*
X6005658Y-14492888D02*
X6015182Y-14511936D01*
X6015182Y-14511936D02*
X6024706Y-14521460D01*
X6024706Y-14521460D02*
X6043753Y-14530984D01*
X6043753Y-14530984D02*
X6081848Y-14530984D01*
X6081848Y-14530984D02*
X6100896Y-14521460D01*
X6100896Y-14521460D02*
X6110420Y-14511936D01*
X6110420Y-14511936D02*
X6119944Y-14492888D01*
X6119944Y-14492888D02*
X6119944Y-14454793D01*
X6119944Y-14454793D02*
X6110420Y-14435746D01*
X6110420Y-14435746D02*
X6100896Y-14426222D01*
X6100896Y-14426222D02*
X6081848Y-14416698D01*
X6196134Y-14330984D02*
X6196134Y-14369079D01*
X6272325Y-14330984D02*
X6272325Y-14369079D01*
X6567563Y-14607174D02*
X6558039Y-14597650D01*
X6558039Y-14597650D02*
X6538991Y-14569079D01*
X6538991Y-14569079D02*
X6529468Y-14550031D01*
X6529468Y-14550031D02*
X6519944Y-14521460D01*
X6519944Y-14521460D02*
X6510420Y-14473841D01*
X6510420Y-14473841D02*
X6510420Y-14435746D01*
X6510420Y-14435746D02*
X6519944Y-14388127D01*
X6519944Y-14388127D02*
X6529468Y-14359555D01*
X6529468Y-14359555D02*
X6538991Y-14340508D01*
X6538991Y-14340508D02*
X6558039Y-14311936D01*
X6558039Y-14311936D02*
X6567563Y-14302412D01*
X6729468Y-14397650D02*
X6729468Y-14530984D01*
X6681848Y-14321460D02*
X6634229Y-14464317D01*
X6634229Y-14464317D02*
X6758039Y-14464317D01*
X6986610Y-14530984D02*
X6986610Y-14330984D01*
X7072325Y-14530984D02*
X7072325Y-14426222D01*
X7072325Y-14426222D02*
X7062801Y-14407174D01*
X7062801Y-14407174D02*
X7043753Y-14397650D01*
X7043753Y-14397650D02*
X7015182Y-14397650D01*
X7015182Y-14397650D02*
X6996134Y-14407174D01*
X6996134Y-14407174D02*
X6986610Y-14416698D01*
X7196134Y-14530984D02*
X7177087Y-14521460D01*
X7177087Y-14521460D02*
X7167563Y-14511936D01*
X7167563Y-14511936D02*
X7158039Y-14492888D01*
X7158039Y-14492888D02*
X7158039Y-14435746D01*
X7158039Y-14435746D02*
X7167563Y-14416698D01*
X7167563Y-14416698D02*
X7177087Y-14407174D01*
X7177087Y-14407174D02*
X7196134Y-14397650D01*
X7196134Y-14397650D02*
X7224706Y-14397650D01*
X7224706Y-14397650D02*
X7243753Y-14407174D01*
X7243753Y-14407174D02*
X7253277Y-14416698D01*
X7253277Y-14416698D02*
X7262801Y-14435746D01*
X7262801Y-14435746D02*
X7262801Y-14492888D01*
X7262801Y-14492888D02*
X7253277Y-14511936D01*
X7253277Y-14511936D02*
X7243753Y-14521460D01*
X7243753Y-14521460D02*
X7224706Y-14530984D01*
X7224706Y-14530984D02*
X7196134Y-14530984D01*
X7377087Y-14530984D02*
X7358039Y-14521460D01*
X7358039Y-14521460D02*
X7348515Y-14502412D01*
X7348515Y-14502412D02*
X7348515Y-14330984D01*
X7529468Y-14521460D02*
X7510420Y-14530984D01*
X7510420Y-14530984D02*
X7472325Y-14530984D01*
X7472325Y-14530984D02*
X7453277Y-14521460D01*
X7453277Y-14521460D02*
X7443753Y-14502412D01*
X7443753Y-14502412D02*
X7443753Y-14426222D01*
X7443753Y-14426222D02*
X7453277Y-14407174D01*
X7453277Y-14407174D02*
X7472325Y-14397650D01*
X7472325Y-14397650D02*
X7510420Y-14397650D01*
X7510420Y-14397650D02*
X7529468Y-14407174D01*
X7529468Y-14407174D02*
X7538991Y-14426222D01*
X7538991Y-14426222D02*
X7538991Y-14445269D01*
X7538991Y-14445269D02*
X7443753Y-14464317D01*
X7615182Y-14521460D02*
X7634230Y-14530984D01*
X7634230Y-14530984D02*
X7672325Y-14530984D01*
X7672325Y-14530984D02*
X7691372Y-14521460D01*
X7691372Y-14521460D02*
X7700896Y-14502412D01*
X7700896Y-14502412D02*
X7700896Y-14492888D01*
X7700896Y-14492888D02*
X7691372Y-14473841D01*
X7691372Y-14473841D02*
X7672325Y-14464317D01*
X7672325Y-14464317D02*
X7643753Y-14464317D01*
X7643753Y-14464317D02*
X7624706Y-14454793D01*
X7624706Y-14454793D02*
X7615182Y-14435746D01*
X7615182Y-14435746D02*
X7615182Y-14426222D01*
X7615182Y-14426222D02*
X7624706Y-14407174D01*
X7624706Y-14407174D02*
X7643753Y-14397650D01*
X7643753Y-14397650D02*
X7672325Y-14397650D01*
X7672325Y-14397650D02*
X7691372Y-14407174D01*
X7767563Y-14607174D02*
X7777087Y-14597650D01*
X7777087Y-14597650D02*
X7796134Y-14569079D01*
X7796134Y-14569079D02*
X7805658Y-14550031D01*
X7805658Y-14550031D02*
X7815182Y-14521460D01*
X7815182Y-14521460D02*
X7824706Y-14473841D01*
X7824706Y-14473841D02*
X7824706Y-14435746D01*
X7824706Y-14435746D02*
X7815182Y-14388127D01*
X7815182Y-14388127D02*
X7805658Y-14359555D01*
X7805658Y-14359555D02*
X7796134Y-14340508D01*
X7796134Y-14340508D02*
X7777087Y-14311936D01*
X7777087Y-14311936D02*
X7767563Y-14302412D01*
M02*
