%TF.GenerationSoftware,KiCad,Pcbnew,7.0.11+dfsg-1build4*%
%TF.CreationDate,2025-11-16T19:22:10-06:00*%
%TF.ProjectId,AdapterBoard,41646170-7465-4724-926f-6172642e6b69,rev?*%
%TF.SameCoordinates,Original*%
%TF.FileFunction,Soldermask,Top*%
%TF.FilePolarity,Negative*%
%FSLAX46Y46*%
G04 Gerber Fmt 4.6, Leading zero omitted, Abs format (unit mm)*
G04 Created by KiCad (PCBNEW 7.0.11+dfsg-1build4) date 2025-11-16 19:22:10*
%MOMM*%
%LPD*%
G01*
G04 APERTURE LIST*
G04 Aperture macros list*
%AMRoundRect*
0 Rectangle with rounded corners*
0 $1 Rounding radius*
0 $2 $3 $4 $5 $6 $7 $8 $9 X,Y pos of 4 corners*
0 Add a 4 corners polygon primitive as box body*
4,1,4,$2,$3,$4,$5,$6,$7,$8,$9,$2,$3,0*
0 Add four circle primitives for the rounded corners*
1,1,$1+$1,$2,$3*
1,1,$1+$1,$4,$5*
1,1,$1+$1,$6,$7*
1,1,$1+$1,$8,$9*
0 Add four rect primitives between the rounded corners*
20,1,$1+$1,$2,$3,$4,$5,0*
20,1,$1+$1,$4,$5,$6,$7,0*
20,1,$1+$1,$6,$7,$8,$9,0*
20,1,$1+$1,$8,$9,$2,$3,0*%
G04 Aperture macros list end*
%ADD10RoundRect,0.200000X-1.500000X-1.500000X1.500000X-1.500000X1.500000X1.500000X-1.500000X1.500000X0*%
%ADD11C,3.400000*%
%ADD12C,3.600000*%
%ADD13RoundRect,0.200000X1.500000X1.500000X-1.500000X1.500000X-1.500000X-1.500000X1.500000X-1.500000X0*%
%ADD14C,2.000000*%
%ADD15O,2.000000X2.000000*%
%ADD16RoundRect,0.200000X-0.850000X0.850000X-0.850000X-0.850000X0.850000X-0.850000X0.850000X0.850000X0*%
%ADD17O,2.100000X2.100000*%
%ADD18RoundRect,0.200000X-0.750000X-0.750000X0.750000X-0.750000X0.750000X0.750000X-0.750000X0.750000X0*%
%ADD19C,1.900000*%
%ADD20C,2.800000*%
%ADD21O,2.800000X2.800000*%
%ADD22RoundRect,0.200000X-0.850000X-0.850000X0.850000X-0.850000X0.850000X0.850000X-0.850000X0.850000X0*%
%ADD23RoundRect,0.200000X0.850000X-0.850000X0.850000X0.850000X-0.850000X0.850000X-0.850000X-0.850000X0*%
%ADD24RoundRect,0.200000X0.800000X0.800000X-0.800000X0.800000X-0.800000X-0.800000X0.800000X-0.800000X0*%
%ADD25RoundRect,0.200000X0.800000X-0.800000X0.800000X0.800000X-0.800000X0.800000X-0.800000X-0.800000X0*%
%ADD26RoundRect,0.200000X0.850000X0.850000X-0.850000X0.850000X-0.850000X-0.850000X0.850000X-0.850000X0*%
%ADD27C,1.840000*%
%ADD28O,2.400000X50.400000*%
%ADD29C,2.200000*%
G04 APERTURE END LIST*
D10*
%TO.C,J9*%
X35000000Y-81000000D03*
D11*
X40080000Y-81000000D03*
%TD*%
D12*
%TO.C,J10*%
X34000000Y-45000000D03*
%TD*%
%TO.C,J12*%
X34000000Y-61500000D03*
%TD*%
D13*
%TO.C,J13*%
X126080000Y-80500000D03*
D11*
X121000000Y-80500000D03*
%TD*%
D12*
%TO.C,J14*%
X126500000Y-45000000D03*
%TD*%
%TO.C,J16*%
X126500000Y-61500000D03*
%TD*%
D14*
%TO.C,R12*%
X48990000Y-91580000D03*
D15*
X56610000Y-91580000D03*
%TD*%
D16*
%TO.C,J31*%
X49270000Y-116180000D03*
D17*
X46730000Y-116180000D03*
%TD*%
D18*
%TO.C,Q1*%
X35220000Y-123470000D03*
D19*
X37760000Y-123470000D03*
X40300000Y-123470000D03*
%TD*%
D20*
%TO.C,R1*%
X45760000Y-80000000D03*
D21*
X61000000Y-80000000D03*
%TD*%
D22*
%TO.C,J33*%
X67320000Y-96980000D03*
D17*
X67320000Y-99520000D03*
%TD*%
D14*
%TO.C,R13*%
X55920000Y-99760000D03*
D15*
X63540000Y-99760000D03*
%TD*%
D14*
%TO.C,R9*%
X41390000Y-108870000D03*
D15*
X49010000Y-108870000D03*
%TD*%
D23*
%TO.C,J26*%
X78320000Y-109040000D03*
D17*
X80860000Y-109040000D03*
X83400000Y-109040000D03*
X85940000Y-109040000D03*
X88480000Y-109040000D03*
X91020000Y-109040000D03*
X93560000Y-109040000D03*
X96100000Y-109040000D03*
X98640000Y-109040000D03*
X101180000Y-109040000D03*
X103720000Y-109040000D03*
X106260000Y-109040000D03*
X108800000Y-109040000D03*
X111340000Y-109040000D03*
X113880000Y-109040000D03*
X116420000Y-109040000D03*
X118960000Y-109040000D03*
X121500000Y-109040000D03*
X124040000Y-109040000D03*
X126580000Y-109040000D03*
%TD*%
D14*
%TO.C,C1*%
X69930000Y-127410000D03*
X69930000Y-122410000D03*
%TD*%
%TO.C,C4*%
X41220000Y-91630000D03*
X46220000Y-91630000D03*
%TD*%
%TO.C,R11*%
X38354000Y-97790000D03*
D15*
X38354000Y-90170000D03*
%TD*%
D23*
%TO.C,J28*%
X83400000Y-91260000D03*
D17*
X85940000Y-91260000D03*
X88480000Y-91260000D03*
X91020000Y-91260000D03*
%TD*%
D24*
%TO.C,U1*%
X66530000Y-125560000D03*
D15*
X66530000Y-123020000D03*
X66530000Y-120480000D03*
X66530000Y-117940000D03*
X66530000Y-115400000D03*
X66530000Y-112860000D03*
X66530000Y-110320000D03*
X58910000Y-110320000D03*
X58910000Y-112860000D03*
X58910000Y-115400000D03*
X58910000Y-117940000D03*
X58910000Y-120480000D03*
X58910000Y-123020000D03*
X58910000Y-125560000D03*
%TD*%
D23*
%TO.C,J27*%
X78320000Y-96340000D03*
D17*
X80860000Y-96340000D03*
X83400000Y-96340000D03*
X85940000Y-96340000D03*
X88480000Y-96340000D03*
X91020000Y-96340000D03*
X93560000Y-96340000D03*
X96100000Y-96340000D03*
X98640000Y-96340000D03*
X101180000Y-96340000D03*
X103720000Y-96340000D03*
X106260000Y-96340000D03*
X108800000Y-96340000D03*
X111340000Y-96340000D03*
X113880000Y-96340000D03*
X116420000Y-96340000D03*
X118960000Y-96340000D03*
X121500000Y-96340000D03*
X124040000Y-96340000D03*
X126580000Y-96340000D03*
%TD*%
D14*
%TO.C,R6*%
X45920000Y-112620000D03*
D15*
X38300000Y-112620000D03*
%TD*%
D16*
%TO.C,J29*%
X63970000Y-106250000D03*
D17*
X61430000Y-106250000D03*
%TD*%
D14*
%TO.C,R10*%
X52800000Y-98100000D03*
D15*
X52800000Y-105720000D03*
%TD*%
D14*
%TO.C,C7*%
X55920000Y-96510000D03*
X60920000Y-96510000D03*
%TD*%
%TO.C,R3*%
X51490000Y-119920000D03*
D15*
X51490000Y-127540000D03*
%TD*%
D25*
%TO.C,U2*%
X41740000Y-102560000D03*
D15*
X44280000Y-102560000D03*
X46820000Y-102560000D03*
X49360000Y-102560000D03*
X49360000Y-94940000D03*
X46820000Y-94940000D03*
X44280000Y-94940000D03*
X41740000Y-94940000D03*
%TD*%
D26*
%TO.C,J30*%
X31740000Y-103875000D03*
D17*
X31740000Y-101335000D03*
%TD*%
D20*
%TO.C,R2*%
X115000000Y-79500000D03*
D21*
X99760000Y-79500000D03*
%TD*%
D14*
%TO.C,R5*%
X35370000Y-127400000D03*
D15*
X42990000Y-127400000D03*
%TD*%
D14*
%TO.C,R4*%
X42800000Y-118840000D03*
D15*
X35180000Y-118840000D03*
%TD*%
D14*
%TO.C,C2*%
X31790000Y-97190000D03*
X31790000Y-92190000D03*
%TD*%
D27*
%TO.C,RV2*%
X36510000Y-103040000D03*
X36510000Y-105580000D03*
X36510000Y-108120000D03*
%TD*%
D14*
%TO.C,C3*%
X55100000Y-122440000D03*
X55100000Y-127440000D03*
%TD*%
D26*
%TO.C,J32*%
X32090000Y-127050000D03*
D17*
X32090000Y-124510000D03*
%TD*%
D27*
%TO.C,RV1*%
X47100000Y-126460000D03*
X47100000Y-123920000D03*
X47100000Y-121380000D03*
%TD*%
D14*
%TO.C,C5*%
X31100000Y-112560000D03*
X36100000Y-112560000D03*
%TD*%
D28*
%TO.C,H1*%
X80600000Y-57600000D03*
%TD*%
D14*
%TO.C,R8*%
X35130000Y-98010000D03*
D15*
X35130000Y-90390000D03*
%TD*%
D14*
%TO.C,C6*%
X43520000Y-105690000D03*
X48520000Y-105690000D03*
%TD*%
%TO.C,R7*%
X55770000Y-112690000D03*
D15*
X48150000Y-112690000D03*
%TD*%
D29*
%TO.C,J11*%
X43000000Y-34000000D03*
X43000000Y-42890000D03*
%TD*%
%TO.C,J21*%
X103171682Y-63555000D03*
X103171682Y-72445000D03*
%TD*%
%TO.C,J7*%
X58000000Y-33555000D03*
X58000000Y-42445000D03*
%TD*%
%TO.C,J1*%
X73000000Y-33555000D03*
X73000000Y-42445000D03*
%TD*%
%TO.C,J2*%
X43000000Y-49000000D03*
X43000000Y-57890000D03*
%TD*%
%TO.C,J20*%
X103171682Y-48726682D03*
X103171682Y-57616682D03*
%TD*%
%TO.C,J3*%
X73000000Y-49000000D03*
X73000000Y-57890000D03*
%TD*%
D16*
%TO.C,J25*%
X78320000Y-103960000D03*
D17*
X78320000Y-101420000D03*
X80860000Y-103960000D03*
X80860000Y-101420000D03*
X83400000Y-103960000D03*
X83400000Y-101420000D03*
X85940000Y-103960000D03*
X85940000Y-101420000D03*
X88480000Y-103960000D03*
X88480000Y-101420000D03*
X91020000Y-103960000D03*
X91020000Y-101420000D03*
X93560000Y-103960000D03*
X93560000Y-101420000D03*
X96100000Y-103960000D03*
X96100000Y-101420000D03*
X98640000Y-103960000D03*
X98640000Y-101420000D03*
X101180000Y-103960000D03*
X101180000Y-101420000D03*
X103720000Y-103960000D03*
X103720000Y-101420000D03*
X106260000Y-103960000D03*
X106260000Y-101420000D03*
X108800000Y-103960000D03*
X108800000Y-101420000D03*
X111340000Y-103960000D03*
X111340000Y-101420000D03*
X113880000Y-103960000D03*
X113880000Y-101420000D03*
X116420000Y-103960000D03*
X116420000Y-101420000D03*
X118960000Y-103960000D03*
X118960000Y-101420000D03*
X121500000Y-103960000D03*
X121500000Y-101420000D03*
X124040000Y-103960000D03*
X124040000Y-101420000D03*
X126580000Y-103960000D03*
X126580000Y-101420000D03*
%TD*%
D29*
%TO.C,J8*%
X73000000Y-64000000D03*
X73000000Y-72890000D03*
%TD*%
%TO.C,J4*%
X58000000Y-48555000D03*
X58000000Y-57445000D03*
%TD*%
%TO.C,J24*%
X88343364Y-63555000D03*
X88343364Y-72445000D03*
%TD*%
%TO.C,J22*%
X88343364Y-33898364D03*
X88343364Y-42788364D03*
%TD*%
%TO.C,J6*%
X58000000Y-64000000D03*
X58000000Y-72890000D03*
%TD*%
%TO.C,J19*%
X103171682Y-33898364D03*
X103171682Y-42788364D03*
%TD*%
%TO.C,J17*%
X118000000Y-48726682D03*
X118000000Y-57616682D03*
%TD*%
%TO.C,J23*%
X88343364Y-48726682D03*
X88343364Y-57616682D03*
%TD*%
%TO.C,J5*%
X43000000Y-64000000D03*
X43000000Y-72890000D03*
%TD*%
%TO.C,J15*%
X118000000Y-33898364D03*
X118000000Y-42788364D03*
%TD*%
%TO.C,J18*%
X118000000Y-63555000D03*
X118000000Y-72445000D03*
%TD*%
M02*
