%TF.GenerationSoftware,KiCad,Pcbnew,7.0.11+dfsg-1build4*%
%TF.CreationDate,2025-11-16T19:22:10-06:00*%
%TF.ProjectId,AdapterBoard,41646170-7465-4724-926f-6172642e6b69,rev?*%
%TF.SameCoordinates,Original*%
%TF.FileFunction,Legend,Top*%
%TF.FilePolarity,Positive*%
%FSLAX46Y46*%
G04 Gerber Fmt 4.6, Leading zero omitted, Abs format (unit mm)*
G04 Created by KiCad (PCBNEW 7.0.11+dfsg-1build4) date 2025-11-16 19:22:10*
%MOMM*%
%LPD*%
G01*
G04 APERTURE LIST*
%ADD10C,0.150000*%
%ADD11C,0.200000*%
%ADD12C,0.100000*%
%ADD13C,0.120000*%
G04 APERTURE END LIST*
D10*
X30000000Y-88000000D02*
X130000000Y-88000000D01*
D11*
X30000000Y-47000000D02*
X30000000Y-46000000D01*
D10*
X81000000Y-113500000D02*
X81000000Y-130000000D01*
X73120000Y-88310000D02*
X73120000Y-130000000D01*
X130000000Y-113310000D02*
X73120000Y-113310000D01*
X42810588Y-115427438D02*
X42715350Y-115379819D01*
X42715350Y-115379819D02*
X42572493Y-115379819D01*
X42572493Y-115379819D02*
X42429636Y-115427438D01*
X42429636Y-115427438D02*
X42334398Y-115522676D01*
X42334398Y-115522676D02*
X42286779Y-115617914D01*
X42286779Y-115617914D02*
X42239160Y-115808390D01*
X42239160Y-115808390D02*
X42239160Y-115951247D01*
X42239160Y-115951247D02*
X42286779Y-116141723D01*
X42286779Y-116141723D02*
X42334398Y-116236961D01*
X42334398Y-116236961D02*
X42429636Y-116332200D01*
X42429636Y-116332200D02*
X42572493Y-116379819D01*
X42572493Y-116379819D02*
X42667731Y-116379819D01*
X42667731Y-116379819D02*
X42810588Y-116332200D01*
X42810588Y-116332200D02*
X42858207Y-116284580D01*
X42858207Y-116284580D02*
X42858207Y-115951247D01*
X42858207Y-115951247D02*
X42667731Y-115951247D01*
X43286779Y-116379819D02*
X43286779Y-115379819D01*
X43286779Y-115379819D02*
X43858207Y-116379819D01*
X43858207Y-116379819D02*
X43858207Y-115379819D01*
X44334398Y-116379819D02*
X44334398Y-115379819D01*
X44334398Y-115379819D02*
X44572493Y-115379819D01*
X44572493Y-115379819D02*
X44715350Y-115427438D01*
X44715350Y-115427438D02*
X44810588Y-115522676D01*
X44810588Y-115522676D02*
X44858207Y-115617914D01*
X44858207Y-115617914D02*
X44905826Y-115808390D01*
X44905826Y-115808390D02*
X44905826Y-115951247D01*
X44905826Y-115951247D02*
X44858207Y-116141723D01*
X44858207Y-116141723D02*
X44810588Y-116236961D01*
X44810588Y-116236961D02*
X44715350Y-116332200D01*
X44715350Y-116332200D02*
X44572493Y-116379819D01*
X44572493Y-116379819D02*
X44334398Y-116379819D01*
X43572969Y-99109819D02*
X43096779Y-99109819D01*
X43096779Y-99109819D02*
X43096779Y-98109819D01*
X43906303Y-99109819D02*
X43906303Y-98109819D01*
X43906303Y-98109819D02*
X44239636Y-98824104D01*
X44239636Y-98824104D02*
X44572969Y-98109819D01*
X44572969Y-98109819D02*
X44572969Y-99109819D01*
X44953922Y-98109819D02*
X45572969Y-98109819D01*
X45572969Y-98109819D02*
X45239636Y-98490771D01*
X45239636Y-98490771D02*
X45382493Y-98490771D01*
X45382493Y-98490771D02*
X45477731Y-98538390D01*
X45477731Y-98538390D02*
X45525350Y-98586009D01*
X45525350Y-98586009D02*
X45572969Y-98681247D01*
X45572969Y-98681247D02*
X45572969Y-98919342D01*
X45572969Y-98919342D02*
X45525350Y-99014580D01*
X45525350Y-99014580D02*
X45477731Y-99062200D01*
X45477731Y-99062200D02*
X45382493Y-99109819D01*
X45382493Y-99109819D02*
X45096779Y-99109819D01*
X45096779Y-99109819D02*
X45001541Y-99062200D01*
X45001541Y-99062200D02*
X44953922Y-99014580D01*
X46477731Y-98109819D02*
X46001541Y-98109819D01*
X46001541Y-98109819D02*
X45953922Y-98586009D01*
X45953922Y-98586009D02*
X46001541Y-98538390D01*
X46001541Y-98538390D02*
X46096779Y-98490771D01*
X46096779Y-98490771D02*
X46334874Y-98490771D01*
X46334874Y-98490771D02*
X46430112Y-98538390D01*
X46430112Y-98538390D02*
X46477731Y-98586009D01*
X46477731Y-98586009D02*
X46525350Y-98681247D01*
X46525350Y-98681247D02*
X46525350Y-98919342D01*
X46525350Y-98919342D02*
X46477731Y-99014580D01*
X46477731Y-99014580D02*
X46430112Y-99062200D01*
X46430112Y-99062200D02*
X46334874Y-99109819D01*
X46334874Y-99109819D02*
X46096779Y-99109819D01*
X46096779Y-99109819D02*
X46001541Y-99062200D01*
X46001541Y-99062200D02*
X45953922Y-99014580D01*
X47096779Y-98538390D02*
X47001541Y-98490771D01*
X47001541Y-98490771D02*
X46953922Y-98443152D01*
X46953922Y-98443152D02*
X46906303Y-98347914D01*
X46906303Y-98347914D02*
X46906303Y-98300295D01*
X46906303Y-98300295D02*
X46953922Y-98205057D01*
X46953922Y-98205057D02*
X47001541Y-98157438D01*
X47001541Y-98157438D02*
X47096779Y-98109819D01*
X47096779Y-98109819D02*
X47287255Y-98109819D01*
X47287255Y-98109819D02*
X47382493Y-98157438D01*
X47382493Y-98157438D02*
X47430112Y-98205057D01*
X47430112Y-98205057D02*
X47477731Y-98300295D01*
X47477731Y-98300295D02*
X47477731Y-98347914D01*
X47477731Y-98347914D02*
X47430112Y-98443152D01*
X47430112Y-98443152D02*
X47382493Y-98490771D01*
X47382493Y-98490771D02*
X47287255Y-98538390D01*
X47287255Y-98538390D02*
X47096779Y-98538390D01*
X47096779Y-98538390D02*
X47001541Y-98586009D01*
X47001541Y-98586009D02*
X46953922Y-98633628D01*
X46953922Y-98633628D02*
X46906303Y-98728866D01*
X46906303Y-98728866D02*
X46906303Y-98919342D01*
X46906303Y-98919342D02*
X46953922Y-99014580D01*
X46953922Y-99014580D02*
X47001541Y-99062200D01*
X47001541Y-99062200D02*
X47096779Y-99109819D01*
X47096779Y-99109819D02*
X47287255Y-99109819D01*
X47287255Y-99109819D02*
X47382493Y-99062200D01*
X47382493Y-99062200D02*
X47430112Y-99014580D01*
X47430112Y-99014580D02*
X47477731Y-98919342D01*
X47477731Y-98919342D02*
X47477731Y-98728866D01*
X47477731Y-98728866D02*
X47430112Y-98633628D01*
X47430112Y-98633628D02*
X47382493Y-98586009D01*
X47382493Y-98586009D02*
X47287255Y-98538390D01*
X62119819Y-120608458D02*
X62119819Y-119941792D01*
X62119819Y-119941792D02*
X63119819Y-120370363D01*
X62453152Y-119132268D02*
X63119819Y-119132268D01*
X62072200Y-119370363D02*
X62786485Y-119608458D01*
X62786485Y-119608458D02*
X62786485Y-118989411D01*
X63119819Y-118608458D02*
X62119819Y-118608458D01*
X62596009Y-118608458D02*
X62596009Y-118037030D01*
X63119819Y-118037030D02*
X62119819Y-118037030D01*
X63024580Y-116989411D02*
X63072200Y-117037030D01*
X63072200Y-117037030D02*
X63119819Y-117179887D01*
X63119819Y-117179887D02*
X63119819Y-117275125D01*
X63119819Y-117275125D02*
X63072200Y-117417982D01*
X63072200Y-117417982D02*
X62976961Y-117513220D01*
X62976961Y-117513220D02*
X62881723Y-117560839D01*
X62881723Y-117560839D02*
X62691247Y-117608458D01*
X62691247Y-117608458D02*
X62548390Y-117608458D01*
X62548390Y-117608458D02*
X62357914Y-117560839D01*
X62357914Y-117560839D02*
X62262676Y-117513220D01*
X62262676Y-117513220D02*
X62167438Y-117417982D01*
X62167438Y-117417982D02*
X62119819Y-117275125D01*
X62119819Y-117275125D02*
X62119819Y-117179887D01*
X62119819Y-117179887D02*
X62167438Y-117037030D01*
X62167438Y-117037030D02*
X62215057Y-116989411D01*
X63119819Y-116037030D02*
X63119819Y-116608458D01*
X63119819Y-116322744D02*
X62119819Y-116322744D01*
X62119819Y-116322744D02*
X62262676Y-116417982D01*
X62262676Y-116417982D02*
X62357914Y-116513220D01*
X62357914Y-116513220D02*
X62405533Y-116608458D01*
X62453152Y-115179887D02*
X63119819Y-115179887D01*
X62072200Y-115417982D02*
X62786485Y-115656077D01*
X62786485Y-115656077D02*
X62786485Y-115037030D01*
X116058207Y-112624580D02*
X116010588Y-112672200D01*
X116010588Y-112672200D02*
X115867731Y-112719819D01*
X115867731Y-112719819D02*
X115772493Y-112719819D01*
X115772493Y-112719819D02*
X115629636Y-112672200D01*
X115629636Y-112672200D02*
X115534398Y-112576961D01*
X115534398Y-112576961D02*
X115486779Y-112481723D01*
X115486779Y-112481723D02*
X115439160Y-112291247D01*
X115439160Y-112291247D02*
X115439160Y-112148390D01*
X115439160Y-112148390D02*
X115486779Y-111957914D01*
X115486779Y-111957914D02*
X115534398Y-111862676D01*
X115534398Y-111862676D02*
X115629636Y-111767438D01*
X115629636Y-111767438D02*
X115772493Y-111719819D01*
X115772493Y-111719819D02*
X115867731Y-111719819D01*
X115867731Y-111719819D02*
X116010588Y-111767438D01*
X116010588Y-111767438D02*
X116058207Y-111815057D01*
X116677255Y-111719819D02*
X116867731Y-111719819D01*
X116867731Y-111719819D02*
X116962969Y-111767438D01*
X116962969Y-111767438D02*
X117058207Y-111862676D01*
X117058207Y-111862676D02*
X117105826Y-112053152D01*
X117105826Y-112053152D02*
X117105826Y-112386485D01*
X117105826Y-112386485D02*
X117058207Y-112576961D01*
X117058207Y-112576961D02*
X116962969Y-112672200D01*
X116962969Y-112672200D02*
X116867731Y-112719819D01*
X116867731Y-112719819D02*
X116677255Y-112719819D01*
X116677255Y-112719819D02*
X116582017Y-112672200D01*
X116582017Y-112672200D02*
X116486779Y-112576961D01*
X116486779Y-112576961D02*
X116439160Y-112386485D01*
X116439160Y-112386485D02*
X116439160Y-112053152D01*
X116439160Y-112053152D02*
X116486779Y-111862676D01*
X116486779Y-111862676D02*
X116582017Y-111767438D01*
X116582017Y-111767438D02*
X116677255Y-111719819D01*
X117534398Y-112719819D02*
X117534398Y-111719819D01*
X117534398Y-111719819D02*
X118105826Y-112719819D01*
X118105826Y-112719819D02*
X118105826Y-111719819D01*
X118582017Y-112719819D02*
X118582017Y-111719819D01*
X118582017Y-111719819D02*
X119153445Y-112719819D01*
X119153445Y-112719819D02*
X119153445Y-111719819D01*
X119629636Y-112196009D02*
X119962969Y-112196009D01*
X120105826Y-112719819D02*
X119629636Y-112719819D01*
X119629636Y-112719819D02*
X119629636Y-111719819D01*
X119629636Y-111719819D02*
X120105826Y-111719819D01*
X121105826Y-112624580D02*
X121058207Y-112672200D01*
X121058207Y-112672200D02*
X120915350Y-112719819D01*
X120915350Y-112719819D02*
X120820112Y-112719819D01*
X120820112Y-112719819D02*
X120677255Y-112672200D01*
X120677255Y-112672200D02*
X120582017Y-112576961D01*
X120582017Y-112576961D02*
X120534398Y-112481723D01*
X120534398Y-112481723D02*
X120486779Y-112291247D01*
X120486779Y-112291247D02*
X120486779Y-112148390D01*
X120486779Y-112148390D02*
X120534398Y-111957914D01*
X120534398Y-111957914D02*
X120582017Y-111862676D01*
X120582017Y-111862676D02*
X120677255Y-111767438D01*
X120677255Y-111767438D02*
X120820112Y-111719819D01*
X120820112Y-111719819D02*
X120915350Y-111719819D01*
X120915350Y-111719819D02*
X121058207Y-111767438D01*
X121058207Y-111767438D02*
X121105826Y-111815057D01*
X121391541Y-111719819D02*
X121962969Y-111719819D01*
X121677255Y-112719819D02*
X121677255Y-111719819D01*
X122486779Y-111719819D02*
X122677255Y-111719819D01*
X122677255Y-111719819D02*
X122772493Y-111767438D01*
X122772493Y-111767438D02*
X122867731Y-111862676D01*
X122867731Y-111862676D02*
X122915350Y-112053152D01*
X122915350Y-112053152D02*
X122915350Y-112386485D01*
X122915350Y-112386485D02*
X122867731Y-112576961D01*
X122867731Y-112576961D02*
X122772493Y-112672200D01*
X122772493Y-112672200D02*
X122677255Y-112719819D01*
X122677255Y-112719819D02*
X122486779Y-112719819D01*
X122486779Y-112719819D02*
X122391541Y-112672200D01*
X122391541Y-112672200D02*
X122296303Y-112576961D01*
X122296303Y-112576961D02*
X122248684Y-112386485D01*
X122248684Y-112386485D02*
X122248684Y-112053152D01*
X122248684Y-112053152D02*
X122296303Y-111862676D01*
X122296303Y-111862676D02*
X122391541Y-111767438D01*
X122391541Y-111767438D02*
X122486779Y-111719819D01*
X123915350Y-112719819D02*
X123582017Y-112243628D01*
X123343922Y-112719819D02*
X123343922Y-111719819D01*
X123343922Y-111719819D02*
X123724874Y-111719819D01*
X123724874Y-111719819D02*
X123820112Y-111767438D01*
X123820112Y-111767438D02*
X123867731Y-111815057D01*
X123867731Y-111815057D02*
X123915350Y-111910295D01*
X123915350Y-111910295D02*
X123915350Y-112053152D01*
X123915350Y-112053152D02*
X123867731Y-112148390D01*
X123867731Y-112148390D02*
X123820112Y-112196009D01*
X123820112Y-112196009D02*
X123724874Y-112243628D01*
X123724874Y-112243628D02*
X123343922Y-112243628D01*
X125058208Y-112672200D02*
X125201065Y-112719819D01*
X125201065Y-112719819D02*
X125439160Y-112719819D01*
X125439160Y-112719819D02*
X125534398Y-112672200D01*
X125534398Y-112672200D02*
X125582017Y-112624580D01*
X125582017Y-112624580D02*
X125629636Y-112529342D01*
X125629636Y-112529342D02*
X125629636Y-112434104D01*
X125629636Y-112434104D02*
X125582017Y-112338866D01*
X125582017Y-112338866D02*
X125534398Y-112291247D01*
X125534398Y-112291247D02*
X125439160Y-112243628D01*
X125439160Y-112243628D02*
X125248684Y-112196009D01*
X125248684Y-112196009D02*
X125153446Y-112148390D01*
X125153446Y-112148390D02*
X125105827Y-112100771D01*
X125105827Y-112100771D02*
X125058208Y-112005533D01*
X125058208Y-112005533D02*
X125058208Y-111910295D01*
X125058208Y-111910295D02*
X125105827Y-111815057D01*
X125105827Y-111815057D02*
X125153446Y-111767438D01*
X125153446Y-111767438D02*
X125248684Y-111719819D01*
X125248684Y-111719819D02*
X125486779Y-111719819D01*
X125486779Y-111719819D02*
X125629636Y-111767438D01*
X126058208Y-112719819D02*
X126058208Y-111719819D01*
X126534398Y-112719819D02*
X126534398Y-111719819D01*
X126534398Y-111719819D02*
X126772493Y-111719819D01*
X126772493Y-111719819D02*
X126915350Y-111767438D01*
X126915350Y-111767438D02*
X127010588Y-111862676D01*
X127010588Y-111862676D02*
X127058207Y-111957914D01*
X127058207Y-111957914D02*
X127105826Y-112148390D01*
X127105826Y-112148390D02*
X127105826Y-112291247D01*
X127105826Y-112291247D02*
X127058207Y-112481723D01*
X127058207Y-112481723D02*
X127010588Y-112576961D01*
X127010588Y-112576961D02*
X126915350Y-112672200D01*
X126915350Y-112672200D02*
X126772493Y-112719819D01*
X126772493Y-112719819D02*
X126534398Y-112719819D01*
X127534398Y-112196009D02*
X127867731Y-112196009D01*
X128010588Y-112719819D02*
X127534398Y-112719819D01*
X127534398Y-112719819D02*
X127534398Y-111719819D01*
X127534398Y-111719819D02*
X128010588Y-111719819D01*
X52282969Y-115619819D02*
X51806779Y-115619819D01*
X51806779Y-115619819D02*
X51759160Y-116096009D01*
X51759160Y-116096009D02*
X51806779Y-116048390D01*
X51806779Y-116048390D02*
X51902017Y-116000771D01*
X51902017Y-116000771D02*
X52140112Y-116000771D01*
X52140112Y-116000771D02*
X52235350Y-116048390D01*
X52235350Y-116048390D02*
X52282969Y-116096009D01*
X52282969Y-116096009D02*
X52330588Y-116191247D01*
X52330588Y-116191247D02*
X52330588Y-116429342D01*
X52330588Y-116429342D02*
X52282969Y-116524580D01*
X52282969Y-116524580D02*
X52235350Y-116572200D01*
X52235350Y-116572200D02*
X52140112Y-116619819D01*
X52140112Y-116619819D02*
X51902017Y-116619819D01*
X51902017Y-116619819D02*
X51806779Y-116572200D01*
X51806779Y-116572200D02*
X51759160Y-116524580D01*
X52616303Y-115619819D02*
X52949636Y-116619819D01*
X52949636Y-116619819D02*
X53282969Y-115619819D01*
X37206666Y-75374819D02*
X37206666Y-76089104D01*
X37206666Y-76089104D02*
X37159047Y-76231961D01*
X37159047Y-76231961D02*
X37063809Y-76327200D01*
X37063809Y-76327200D02*
X36920952Y-76374819D01*
X36920952Y-76374819D02*
X36825714Y-76374819D01*
X37730476Y-76374819D02*
X37920952Y-76374819D01*
X37920952Y-76374819D02*
X38016190Y-76327200D01*
X38016190Y-76327200D02*
X38063809Y-76279580D01*
X38063809Y-76279580D02*
X38159047Y-76136723D01*
X38159047Y-76136723D02*
X38206666Y-75946247D01*
X38206666Y-75946247D02*
X38206666Y-75565295D01*
X38206666Y-75565295D02*
X38159047Y-75470057D01*
X38159047Y-75470057D02*
X38111428Y-75422438D01*
X38111428Y-75422438D02*
X38016190Y-75374819D01*
X38016190Y-75374819D02*
X37825714Y-75374819D01*
X37825714Y-75374819D02*
X37730476Y-75422438D01*
X37730476Y-75422438D02*
X37682857Y-75470057D01*
X37682857Y-75470057D02*
X37635238Y-75565295D01*
X37635238Y-75565295D02*
X37635238Y-75803390D01*
X37635238Y-75803390D02*
X37682857Y-75898628D01*
X37682857Y-75898628D02*
X37730476Y-75946247D01*
X37730476Y-75946247D02*
X37825714Y-75993866D01*
X37825714Y-75993866D02*
X38016190Y-75993866D01*
X38016190Y-75993866D02*
X38111428Y-75946247D01*
X38111428Y-75946247D02*
X38159047Y-75898628D01*
X38159047Y-75898628D02*
X38206666Y-75803390D01*
D12*
X33190476Y-43957419D02*
X33190476Y-44671704D01*
X33190476Y-44671704D02*
X33142857Y-44814561D01*
X33142857Y-44814561D02*
X33047619Y-44909800D01*
X33047619Y-44909800D02*
X32904762Y-44957419D01*
X32904762Y-44957419D02*
X32809524Y-44957419D01*
X34190476Y-44957419D02*
X33619048Y-44957419D01*
X33904762Y-44957419D02*
X33904762Y-43957419D01*
X33904762Y-43957419D02*
X33809524Y-44100276D01*
X33809524Y-44100276D02*
X33714286Y-44195514D01*
X33714286Y-44195514D02*
X33619048Y-44243133D01*
X34809524Y-43957419D02*
X34904762Y-43957419D01*
X34904762Y-43957419D02*
X35000000Y-44005038D01*
X35000000Y-44005038D02*
X35047619Y-44052657D01*
X35047619Y-44052657D02*
X35095238Y-44147895D01*
X35095238Y-44147895D02*
X35142857Y-44338371D01*
X35142857Y-44338371D02*
X35142857Y-44576466D01*
X35142857Y-44576466D02*
X35095238Y-44766942D01*
X35095238Y-44766942D02*
X35047619Y-44862180D01*
X35047619Y-44862180D02*
X35000000Y-44909800D01*
X35000000Y-44909800D02*
X34904762Y-44957419D01*
X34904762Y-44957419D02*
X34809524Y-44957419D01*
X34809524Y-44957419D02*
X34714286Y-44909800D01*
X34714286Y-44909800D02*
X34666667Y-44862180D01*
X34666667Y-44862180D02*
X34619048Y-44766942D01*
X34619048Y-44766942D02*
X34571429Y-44576466D01*
X34571429Y-44576466D02*
X34571429Y-44338371D01*
X34571429Y-44338371D02*
X34619048Y-44147895D01*
X34619048Y-44147895D02*
X34666667Y-44052657D01*
X34666667Y-44052657D02*
X34714286Y-44005038D01*
X34714286Y-44005038D02*
X34809524Y-43957419D01*
X33190476Y-60457419D02*
X33190476Y-61171704D01*
X33190476Y-61171704D02*
X33142857Y-61314561D01*
X33142857Y-61314561D02*
X33047619Y-61409800D01*
X33047619Y-61409800D02*
X32904762Y-61457419D01*
X32904762Y-61457419D02*
X32809524Y-61457419D01*
X34190476Y-61457419D02*
X33619048Y-61457419D01*
X33904762Y-61457419D02*
X33904762Y-60457419D01*
X33904762Y-60457419D02*
X33809524Y-60600276D01*
X33809524Y-60600276D02*
X33714286Y-60695514D01*
X33714286Y-60695514D02*
X33619048Y-60743133D01*
X34571429Y-60552657D02*
X34619048Y-60505038D01*
X34619048Y-60505038D02*
X34714286Y-60457419D01*
X34714286Y-60457419D02*
X34952381Y-60457419D01*
X34952381Y-60457419D02*
X35047619Y-60505038D01*
X35047619Y-60505038D02*
X35095238Y-60552657D01*
X35095238Y-60552657D02*
X35142857Y-60647895D01*
X35142857Y-60647895D02*
X35142857Y-60743133D01*
X35142857Y-60743133D02*
X35095238Y-60885990D01*
X35095238Y-60885990D02*
X34523810Y-61457419D01*
X34523810Y-61457419D02*
X35142857Y-61457419D01*
D10*
X122730476Y-85034819D02*
X122730476Y-85749104D01*
X122730476Y-85749104D02*
X122682857Y-85891961D01*
X122682857Y-85891961D02*
X122587619Y-85987200D01*
X122587619Y-85987200D02*
X122444762Y-86034819D01*
X122444762Y-86034819D02*
X122349524Y-86034819D01*
X123730476Y-86034819D02*
X123159048Y-86034819D01*
X123444762Y-86034819D02*
X123444762Y-85034819D01*
X123444762Y-85034819D02*
X123349524Y-85177676D01*
X123349524Y-85177676D02*
X123254286Y-85272914D01*
X123254286Y-85272914D02*
X123159048Y-85320533D01*
X124063810Y-85034819D02*
X124682857Y-85034819D01*
X124682857Y-85034819D02*
X124349524Y-85415771D01*
X124349524Y-85415771D02*
X124492381Y-85415771D01*
X124492381Y-85415771D02*
X124587619Y-85463390D01*
X124587619Y-85463390D02*
X124635238Y-85511009D01*
X124635238Y-85511009D02*
X124682857Y-85606247D01*
X124682857Y-85606247D02*
X124682857Y-85844342D01*
X124682857Y-85844342D02*
X124635238Y-85939580D01*
X124635238Y-85939580D02*
X124587619Y-85987200D01*
X124587619Y-85987200D02*
X124492381Y-86034819D01*
X124492381Y-86034819D02*
X124206667Y-86034819D01*
X124206667Y-86034819D02*
X124111429Y-85987200D01*
X124111429Y-85987200D02*
X124063810Y-85939580D01*
D12*
X125690476Y-43957419D02*
X125690476Y-44671704D01*
X125690476Y-44671704D02*
X125642857Y-44814561D01*
X125642857Y-44814561D02*
X125547619Y-44909800D01*
X125547619Y-44909800D02*
X125404762Y-44957419D01*
X125404762Y-44957419D02*
X125309524Y-44957419D01*
X126690476Y-44957419D02*
X126119048Y-44957419D01*
X126404762Y-44957419D02*
X126404762Y-43957419D01*
X126404762Y-43957419D02*
X126309524Y-44100276D01*
X126309524Y-44100276D02*
X126214286Y-44195514D01*
X126214286Y-44195514D02*
X126119048Y-44243133D01*
X127547619Y-44290752D02*
X127547619Y-44957419D01*
X127309524Y-43909800D02*
X127071429Y-44624085D01*
X127071429Y-44624085D02*
X127690476Y-44624085D01*
X125690476Y-60457419D02*
X125690476Y-61171704D01*
X125690476Y-61171704D02*
X125642857Y-61314561D01*
X125642857Y-61314561D02*
X125547619Y-61409800D01*
X125547619Y-61409800D02*
X125404762Y-61457419D01*
X125404762Y-61457419D02*
X125309524Y-61457419D01*
X126690476Y-61457419D02*
X126119048Y-61457419D01*
X126404762Y-61457419D02*
X126404762Y-60457419D01*
X126404762Y-60457419D02*
X126309524Y-60600276D01*
X126309524Y-60600276D02*
X126214286Y-60695514D01*
X126214286Y-60695514D02*
X126119048Y-60743133D01*
X127547619Y-60457419D02*
X127357143Y-60457419D01*
X127357143Y-60457419D02*
X127261905Y-60505038D01*
X127261905Y-60505038D02*
X127214286Y-60552657D01*
X127214286Y-60552657D02*
X127119048Y-60695514D01*
X127119048Y-60695514D02*
X127071429Y-60885990D01*
X127071429Y-60885990D02*
X127071429Y-61266942D01*
X127071429Y-61266942D02*
X127119048Y-61362180D01*
X127119048Y-61362180D02*
X127166667Y-61409800D01*
X127166667Y-61409800D02*
X127261905Y-61457419D01*
X127261905Y-61457419D02*
X127452381Y-61457419D01*
X127452381Y-61457419D02*
X127547619Y-61409800D01*
X127547619Y-61409800D02*
X127595238Y-61362180D01*
X127595238Y-61362180D02*
X127642857Y-61266942D01*
X127642857Y-61266942D02*
X127642857Y-61028847D01*
X127642857Y-61028847D02*
X127595238Y-60933609D01*
X127595238Y-60933609D02*
X127547619Y-60885990D01*
X127547619Y-60885990D02*
X127452381Y-60838371D01*
X127452381Y-60838371D02*
X127261905Y-60838371D01*
X127261905Y-60838371D02*
X127166667Y-60885990D01*
X127166667Y-60885990D02*
X127119048Y-60933609D01*
X127119048Y-60933609D02*
X127071429Y-61028847D01*
D10*
X52157142Y-92064819D02*
X51823809Y-91588628D01*
X51585714Y-92064819D02*
X51585714Y-91064819D01*
X51585714Y-91064819D02*
X51966666Y-91064819D01*
X51966666Y-91064819D02*
X52061904Y-91112438D01*
X52061904Y-91112438D02*
X52109523Y-91160057D01*
X52109523Y-91160057D02*
X52157142Y-91255295D01*
X52157142Y-91255295D02*
X52157142Y-91398152D01*
X52157142Y-91398152D02*
X52109523Y-91493390D01*
X52109523Y-91493390D02*
X52061904Y-91541009D01*
X52061904Y-91541009D02*
X51966666Y-91588628D01*
X51966666Y-91588628D02*
X51585714Y-91588628D01*
X53109523Y-92064819D02*
X52538095Y-92064819D01*
X52823809Y-92064819D02*
X52823809Y-91064819D01*
X52823809Y-91064819D02*
X52728571Y-91207676D01*
X52728571Y-91207676D02*
X52633333Y-91302914D01*
X52633333Y-91302914D02*
X52538095Y-91350533D01*
X53490476Y-91160057D02*
X53538095Y-91112438D01*
X53538095Y-91112438D02*
X53633333Y-91064819D01*
X53633333Y-91064819D02*
X53871428Y-91064819D01*
X53871428Y-91064819D02*
X53966666Y-91112438D01*
X53966666Y-91112438D02*
X54014285Y-91160057D01*
X54014285Y-91160057D02*
X54061904Y-91255295D01*
X54061904Y-91255295D02*
X54061904Y-91350533D01*
X54061904Y-91350533D02*
X54014285Y-91493390D01*
X54014285Y-91493390D02*
X53442857Y-92064819D01*
X53442857Y-92064819D02*
X54061904Y-92064819D01*
X40304761Y-121850057D02*
X40209523Y-121802438D01*
X40209523Y-121802438D02*
X40114285Y-121707200D01*
X40114285Y-121707200D02*
X39971428Y-121564342D01*
X39971428Y-121564342D02*
X39876190Y-121516723D01*
X39876190Y-121516723D02*
X39780952Y-121516723D01*
X39828571Y-121754819D02*
X39733333Y-121707200D01*
X39733333Y-121707200D02*
X39638095Y-121611961D01*
X39638095Y-121611961D02*
X39590476Y-121421485D01*
X39590476Y-121421485D02*
X39590476Y-121088152D01*
X39590476Y-121088152D02*
X39638095Y-120897676D01*
X39638095Y-120897676D02*
X39733333Y-120802438D01*
X39733333Y-120802438D02*
X39828571Y-120754819D01*
X39828571Y-120754819D02*
X40019047Y-120754819D01*
X40019047Y-120754819D02*
X40114285Y-120802438D01*
X40114285Y-120802438D02*
X40209523Y-120897676D01*
X40209523Y-120897676D02*
X40257142Y-121088152D01*
X40257142Y-121088152D02*
X40257142Y-121421485D01*
X40257142Y-121421485D02*
X40209523Y-121611961D01*
X40209523Y-121611961D02*
X40114285Y-121707200D01*
X40114285Y-121707200D02*
X40019047Y-121754819D01*
X40019047Y-121754819D02*
X39828571Y-121754819D01*
X41209523Y-121754819D02*
X40638095Y-121754819D01*
X40923809Y-121754819D02*
X40923809Y-120754819D01*
X40923809Y-120754819D02*
X40828571Y-120897676D01*
X40828571Y-120897676D02*
X40733333Y-120992914D01*
X40733333Y-120992914D02*
X40638095Y-121040533D01*
X53173333Y-80614819D02*
X52840000Y-80138628D01*
X52601905Y-80614819D02*
X52601905Y-79614819D01*
X52601905Y-79614819D02*
X52982857Y-79614819D01*
X52982857Y-79614819D02*
X53078095Y-79662438D01*
X53078095Y-79662438D02*
X53125714Y-79710057D01*
X53125714Y-79710057D02*
X53173333Y-79805295D01*
X53173333Y-79805295D02*
X53173333Y-79948152D01*
X53173333Y-79948152D02*
X53125714Y-80043390D01*
X53125714Y-80043390D02*
X53078095Y-80091009D01*
X53078095Y-80091009D02*
X52982857Y-80138628D01*
X52982857Y-80138628D02*
X52601905Y-80138628D01*
X54125714Y-80614819D02*
X53554286Y-80614819D01*
X53840000Y-80614819D02*
X53840000Y-79614819D01*
X53840000Y-79614819D02*
X53744762Y-79757676D01*
X53744762Y-79757676D02*
X53649524Y-79852914D01*
X53649524Y-79852914D02*
X53554286Y-79900533D01*
X66510476Y-94104819D02*
X66510476Y-94819104D01*
X66510476Y-94819104D02*
X66462857Y-94961961D01*
X66462857Y-94961961D02*
X66367619Y-95057200D01*
X66367619Y-95057200D02*
X66224762Y-95104819D01*
X66224762Y-95104819D02*
X66129524Y-95104819D01*
X66891429Y-94104819D02*
X67510476Y-94104819D01*
X67510476Y-94104819D02*
X67177143Y-94485771D01*
X67177143Y-94485771D02*
X67320000Y-94485771D01*
X67320000Y-94485771D02*
X67415238Y-94533390D01*
X67415238Y-94533390D02*
X67462857Y-94581009D01*
X67462857Y-94581009D02*
X67510476Y-94676247D01*
X67510476Y-94676247D02*
X67510476Y-94914342D01*
X67510476Y-94914342D02*
X67462857Y-95009580D01*
X67462857Y-95009580D02*
X67415238Y-95057200D01*
X67415238Y-95057200D02*
X67320000Y-95104819D01*
X67320000Y-95104819D02*
X67034286Y-95104819D01*
X67034286Y-95104819D02*
X66939048Y-95057200D01*
X66939048Y-95057200D02*
X66891429Y-95009580D01*
X67843810Y-94104819D02*
X68462857Y-94104819D01*
X68462857Y-94104819D02*
X68129524Y-94485771D01*
X68129524Y-94485771D02*
X68272381Y-94485771D01*
X68272381Y-94485771D02*
X68367619Y-94533390D01*
X68367619Y-94533390D02*
X68415238Y-94581009D01*
X68415238Y-94581009D02*
X68462857Y-94676247D01*
X68462857Y-94676247D02*
X68462857Y-94914342D01*
X68462857Y-94914342D02*
X68415238Y-95009580D01*
X68415238Y-95009580D02*
X68367619Y-95057200D01*
X68367619Y-95057200D02*
X68272381Y-95104819D01*
X68272381Y-95104819D02*
X67986667Y-95104819D01*
X67986667Y-95104819D02*
X67891429Y-95057200D01*
X67891429Y-95057200D02*
X67843810Y-95009580D01*
X59127142Y-100234819D02*
X58793809Y-99758628D01*
X58555714Y-100234819D02*
X58555714Y-99234819D01*
X58555714Y-99234819D02*
X58936666Y-99234819D01*
X58936666Y-99234819D02*
X59031904Y-99282438D01*
X59031904Y-99282438D02*
X59079523Y-99330057D01*
X59079523Y-99330057D02*
X59127142Y-99425295D01*
X59127142Y-99425295D02*
X59127142Y-99568152D01*
X59127142Y-99568152D02*
X59079523Y-99663390D01*
X59079523Y-99663390D02*
X59031904Y-99711009D01*
X59031904Y-99711009D02*
X58936666Y-99758628D01*
X58936666Y-99758628D02*
X58555714Y-99758628D01*
X60079523Y-100234819D02*
X59508095Y-100234819D01*
X59793809Y-100234819D02*
X59793809Y-99234819D01*
X59793809Y-99234819D02*
X59698571Y-99377676D01*
X59698571Y-99377676D02*
X59603333Y-99472914D01*
X59603333Y-99472914D02*
X59508095Y-99520533D01*
X60412857Y-99234819D02*
X61031904Y-99234819D01*
X61031904Y-99234819D02*
X60698571Y-99615771D01*
X60698571Y-99615771D02*
X60841428Y-99615771D01*
X60841428Y-99615771D02*
X60936666Y-99663390D01*
X60936666Y-99663390D02*
X60984285Y-99711009D01*
X60984285Y-99711009D02*
X61031904Y-99806247D01*
X61031904Y-99806247D02*
X61031904Y-100044342D01*
X61031904Y-100044342D02*
X60984285Y-100139580D01*
X60984285Y-100139580D02*
X60936666Y-100187200D01*
X60936666Y-100187200D02*
X60841428Y-100234819D01*
X60841428Y-100234819D02*
X60555714Y-100234819D01*
X60555714Y-100234819D02*
X60460476Y-100187200D01*
X60460476Y-100187200D02*
X60412857Y-100139580D01*
X44973333Y-109264819D02*
X44640000Y-108788628D01*
X44401905Y-109264819D02*
X44401905Y-108264819D01*
X44401905Y-108264819D02*
X44782857Y-108264819D01*
X44782857Y-108264819D02*
X44878095Y-108312438D01*
X44878095Y-108312438D02*
X44925714Y-108360057D01*
X44925714Y-108360057D02*
X44973333Y-108455295D01*
X44973333Y-108455295D02*
X44973333Y-108598152D01*
X44973333Y-108598152D02*
X44925714Y-108693390D01*
X44925714Y-108693390D02*
X44878095Y-108741009D01*
X44878095Y-108741009D02*
X44782857Y-108788628D01*
X44782857Y-108788628D02*
X44401905Y-108788628D01*
X45449524Y-109264819D02*
X45640000Y-109264819D01*
X45640000Y-109264819D02*
X45735238Y-109217200D01*
X45735238Y-109217200D02*
X45782857Y-109169580D01*
X45782857Y-109169580D02*
X45878095Y-109026723D01*
X45878095Y-109026723D02*
X45925714Y-108836247D01*
X45925714Y-108836247D02*
X45925714Y-108455295D01*
X45925714Y-108455295D02*
X45878095Y-108360057D01*
X45878095Y-108360057D02*
X45830476Y-108312438D01*
X45830476Y-108312438D02*
X45735238Y-108264819D01*
X45735238Y-108264819D02*
X45544762Y-108264819D01*
X45544762Y-108264819D02*
X45449524Y-108312438D01*
X45449524Y-108312438D02*
X45401905Y-108360057D01*
X45401905Y-108360057D02*
X45354286Y-108455295D01*
X45354286Y-108455295D02*
X45354286Y-108693390D01*
X45354286Y-108693390D02*
X45401905Y-108788628D01*
X45401905Y-108788628D02*
X45449524Y-108836247D01*
X45449524Y-108836247D02*
X45544762Y-108883866D01*
X45544762Y-108883866D02*
X45735238Y-108883866D01*
X45735238Y-108883866D02*
X45830476Y-108836247D01*
X45830476Y-108836247D02*
X45878095Y-108788628D01*
X45878095Y-108788628D02*
X45925714Y-108693390D01*
X75004819Y-109849523D02*
X75719104Y-109849523D01*
X75719104Y-109849523D02*
X75861961Y-109897142D01*
X75861961Y-109897142D02*
X75957200Y-109992380D01*
X75957200Y-109992380D02*
X76004819Y-110135237D01*
X76004819Y-110135237D02*
X76004819Y-110230475D01*
X75100057Y-109420951D02*
X75052438Y-109373332D01*
X75052438Y-109373332D02*
X75004819Y-109278094D01*
X75004819Y-109278094D02*
X75004819Y-109039999D01*
X75004819Y-109039999D02*
X75052438Y-108944761D01*
X75052438Y-108944761D02*
X75100057Y-108897142D01*
X75100057Y-108897142D02*
X75195295Y-108849523D01*
X75195295Y-108849523D02*
X75290533Y-108849523D01*
X75290533Y-108849523D02*
X75433390Y-108897142D01*
X75433390Y-108897142D02*
X76004819Y-109468570D01*
X76004819Y-109468570D02*
X76004819Y-108849523D01*
X75004819Y-107992380D02*
X75004819Y-108182856D01*
X75004819Y-108182856D02*
X75052438Y-108278094D01*
X75052438Y-108278094D02*
X75100057Y-108325713D01*
X75100057Y-108325713D02*
X75242914Y-108420951D01*
X75242914Y-108420951D02*
X75433390Y-108468570D01*
X75433390Y-108468570D02*
X75814342Y-108468570D01*
X75814342Y-108468570D02*
X75909580Y-108420951D01*
X75909580Y-108420951D02*
X75957200Y-108373332D01*
X75957200Y-108373332D02*
X76004819Y-108278094D01*
X76004819Y-108278094D02*
X76004819Y-108087618D01*
X76004819Y-108087618D02*
X75957200Y-107992380D01*
X75957200Y-107992380D02*
X75909580Y-107944761D01*
X75909580Y-107944761D02*
X75814342Y-107897142D01*
X75814342Y-107897142D02*
X75576247Y-107897142D01*
X75576247Y-107897142D02*
X75481009Y-107944761D01*
X75481009Y-107944761D02*
X75433390Y-107992380D01*
X75433390Y-107992380D02*
X75385771Y-108087618D01*
X75385771Y-108087618D02*
X75385771Y-108278094D01*
X75385771Y-108278094D02*
X75433390Y-108373332D01*
X75433390Y-108373332D02*
X75481009Y-108420951D01*
X75481009Y-108420951D02*
X75576247Y-108468570D01*
X70269580Y-125086666D02*
X70317200Y-125134285D01*
X70317200Y-125134285D02*
X70364819Y-125277142D01*
X70364819Y-125277142D02*
X70364819Y-125372380D01*
X70364819Y-125372380D02*
X70317200Y-125515237D01*
X70317200Y-125515237D02*
X70221961Y-125610475D01*
X70221961Y-125610475D02*
X70126723Y-125658094D01*
X70126723Y-125658094D02*
X69936247Y-125705713D01*
X69936247Y-125705713D02*
X69793390Y-125705713D01*
X69793390Y-125705713D02*
X69602914Y-125658094D01*
X69602914Y-125658094D02*
X69507676Y-125610475D01*
X69507676Y-125610475D02*
X69412438Y-125515237D01*
X69412438Y-125515237D02*
X69364819Y-125372380D01*
X69364819Y-125372380D02*
X69364819Y-125277142D01*
X69364819Y-125277142D02*
X69412438Y-125134285D01*
X69412438Y-125134285D02*
X69460057Y-125086666D01*
X70364819Y-124134285D02*
X70364819Y-124705713D01*
X70364819Y-124419999D02*
X69364819Y-124419999D01*
X69364819Y-124419999D02*
X69507676Y-124515237D01*
X69507676Y-124515237D02*
X69602914Y-124610475D01*
X69602914Y-124610475D02*
X69650533Y-124705713D01*
X43623333Y-91989580D02*
X43575714Y-92037200D01*
X43575714Y-92037200D02*
X43432857Y-92084819D01*
X43432857Y-92084819D02*
X43337619Y-92084819D01*
X43337619Y-92084819D02*
X43194762Y-92037200D01*
X43194762Y-92037200D02*
X43099524Y-91941961D01*
X43099524Y-91941961D02*
X43051905Y-91846723D01*
X43051905Y-91846723D02*
X43004286Y-91656247D01*
X43004286Y-91656247D02*
X43004286Y-91513390D01*
X43004286Y-91513390D02*
X43051905Y-91322914D01*
X43051905Y-91322914D02*
X43099524Y-91227676D01*
X43099524Y-91227676D02*
X43194762Y-91132438D01*
X43194762Y-91132438D02*
X43337619Y-91084819D01*
X43337619Y-91084819D02*
X43432857Y-91084819D01*
X43432857Y-91084819D02*
X43575714Y-91132438D01*
X43575714Y-91132438D02*
X43623333Y-91180057D01*
X44480476Y-91418152D02*
X44480476Y-92084819D01*
X44242381Y-91037200D02*
X44004286Y-91751485D01*
X44004286Y-91751485D02*
X44623333Y-91751485D01*
X38808819Y-94602857D02*
X38332628Y-94936190D01*
X38808819Y-95174285D02*
X37808819Y-95174285D01*
X37808819Y-95174285D02*
X37808819Y-94793333D01*
X37808819Y-94793333D02*
X37856438Y-94698095D01*
X37856438Y-94698095D02*
X37904057Y-94650476D01*
X37904057Y-94650476D02*
X37999295Y-94602857D01*
X37999295Y-94602857D02*
X38142152Y-94602857D01*
X38142152Y-94602857D02*
X38237390Y-94650476D01*
X38237390Y-94650476D02*
X38285009Y-94698095D01*
X38285009Y-94698095D02*
X38332628Y-94793333D01*
X38332628Y-94793333D02*
X38332628Y-95174285D01*
X38808819Y-93650476D02*
X38808819Y-94221904D01*
X38808819Y-93936190D02*
X37808819Y-93936190D01*
X37808819Y-93936190D02*
X37951676Y-94031428D01*
X37951676Y-94031428D02*
X38046914Y-94126666D01*
X38046914Y-94126666D02*
X38094533Y-94221904D01*
X38808819Y-92698095D02*
X38808819Y-93269523D01*
X38808819Y-92983809D02*
X37808819Y-92983809D01*
X37808819Y-92983809D02*
X37951676Y-93079047D01*
X37951676Y-93079047D02*
X38046914Y-93174285D01*
X38046914Y-93174285D02*
X38094533Y-93269523D01*
X80084819Y-92069523D02*
X80799104Y-92069523D01*
X80799104Y-92069523D02*
X80941961Y-92117142D01*
X80941961Y-92117142D02*
X81037200Y-92212380D01*
X81037200Y-92212380D02*
X81084819Y-92355237D01*
X81084819Y-92355237D02*
X81084819Y-92450475D01*
X80180057Y-91640951D02*
X80132438Y-91593332D01*
X80132438Y-91593332D02*
X80084819Y-91498094D01*
X80084819Y-91498094D02*
X80084819Y-91259999D01*
X80084819Y-91259999D02*
X80132438Y-91164761D01*
X80132438Y-91164761D02*
X80180057Y-91117142D01*
X80180057Y-91117142D02*
X80275295Y-91069523D01*
X80275295Y-91069523D02*
X80370533Y-91069523D01*
X80370533Y-91069523D02*
X80513390Y-91117142D01*
X80513390Y-91117142D02*
X81084819Y-91688570D01*
X81084819Y-91688570D02*
X81084819Y-91069523D01*
X80513390Y-90498094D02*
X80465771Y-90593332D01*
X80465771Y-90593332D02*
X80418152Y-90640951D01*
X80418152Y-90640951D02*
X80322914Y-90688570D01*
X80322914Y-90688570D02*
X80275295Y-90688570D01*
X80275295Y-90688570D02*
X80180057Y-90640951D01*
X80180057Y-90640951D02*
X80132438Y-90593332D01*
X80132438Y-90593332D02*
X80084819Y-90498094D01*
X80084819Y-90498094D02*
X80084819Y-90307618D01*
X80084819Y-90307618D02*
X80132438Y-90212380D01*
X80132438Y-90212380D02*
X80180057Y-90164761D01*
X80180057Y-90164761D02*
X80275295Y-90117142D01*
X80275295Y-90117142D02*
X80322914Y-90117142D01*
X80322914Y-90117142D02*
X80418152Y-90164761D01*
X80418152Y-90164761D02*
X80465771Y-90212380D01*
X80465771Y-90212380D02*
X80513390Y-90307618D01*
X80513390Y-90307618D02*
X80513390Y-90498094D01*
X80513390Y-90498094D02*
X80561009Y-90593332D01*
X80561009Y-90593332D02*
X80608628Y-90640951D01*
X80608628Y-90640951D02*
X80703866Y-90688570D01*
X80703866Y-90688570D02*
X80894342Y-90688570D01*
X80894342Y-90688570D02*
X80989580Y-90640951D01*
X80989580Y-90640951D02*
X81037200Y-90593332D01*
X81037200Y-90593332D02*
X81084819Y-90498094D01*
X81084819Y-90498094D02*
X81084819Y-90307618D01*
X81084819Y-90307618D02*
X81037200Y-90212380D01*
X81037200Y-90212380D02*
X80989580Y-90164761D01*
X80989580Y-90164761D02*
X80894342Y-90117142D01*
X80894342Y-90117142D02*
X80703866Y-90117142D01*
X80703866Y-90117142D02*
X80608628Y-90164761D01*
X80608628Y-90164761D02*
X80561009Y-90212380D01*
X80561009Y-90212380D02*
X80513390Y-90307618D01*
X61958095Y-127344819D02*
X61958095Y-128154342D01*
X61958095Y-128154342D02*
X62005714Y-128249580D01*
X62005714Y-128249580D02*
X62053333Y-128297200D01*
X62053333Y-128297200D02*
X62148571Y-128344819D01*
X62148571Y-128344819D02*
X62339047Y-128344819D01*
X62339047Y-128344819D02*
X62434285Y-128297200D01*
X62434285Y-128297200D02*
X62481904Y-128249580D01*
X62481904Y-128249580D02*
X62529523Y-128154342D01*
X62529523Y-128154342D02*
X62529523Y-127344819D01*
X63529523Y-128344819D02*
X62958095Y-128344819D01*
X63243809Y-128344819D02*
X63243809Y-127344819D01*
X63243809Y-127344819D02*
X63148571Y-127487676D01*
X63148571Y-127487676D02*
X63053333Y-127582914D01*
X63053333Y-127582914D02*
X62958095Y-127630533D01*
X75004819Y-97149523D02*
X75719104Y-97149523D01*
X75719104Y-97149523D02*
X75861961Y-97197142D01*
X75861961Y-97197142D02*
X75957200Y-97292380D01*
X75957200Y-97292380D02*
X76004819Y-97435237D01*
X76004819Y-97435237D02*
X76004819Y-97530475D01*
X75100057Y-96720951D02*
X75052438Y-96673332D01*
X75052438Y-96673332D02*
X75004819Y-96578094D01*
X75004819Y-96578094D02*
X75004819Y-96339999D01*
X75004819Y-96339999D02*
X75052438Y-96244761D01*
X75052438Y-96244761D02*
X75100057Y-96197142D01*
X75100057Y-96197142D02*
X75195295Y-96149523D01*
X75195295Y-96149523D02*
X75290533Y-96149523D01*
X75290533Y-96149523D02*
X75433390Y-96197142D01*
X75433390Y-96197142D02*
X76004819Y-96768570D01*
X76004819Y-96768570D02*
X76004819Y-96149523D01*
X75004819Y-95816189D02*
X75004819Y-95149523D01*
X75004819Y-95149523D02*
X76004819Y-95578094D01*
X42003333Y-113074819D02*
X41670000Y-112598628D01*
X41431905Y-113074819D02*
X41431905Y-112074819D01*
X41431905Y-112074819D02*
X41812857Y-112074819D01*
X41812857Y-112074819D02*
X41908095Y-112122438D01*
X41908095Y-112122438D02*
X41955714Y-112170057D01*
X41955714Y-112170057D02*
X42003333Y-112265295D01*
X42003333Y-112265295D02*
X42003333Y-112408152D01*
X42003333Y-112408152D02*
X41955714Y-112503390D01*
X41955714Y-112503390D02*
X41908095Y-112551009D01*
X41908095Y-112551009D02*
X41812857Y-112598628D01*
X41812857Y-112598628D02*
X41431905Y-112598628D01*
X42860476Y-112074819D02*
X42670000Y-112074819D01*
X42670000Y-112074819D02*
X42574762Y-112122438D01*
X42574762Y-112122438D02*
X42527143Y-112170057D01*
X42527143Y-112170057D02*
X42431905Y-112312914D01*
X42431905Y-112312914D02*
X42384286Y-112503390D01*
X42384286Y-112503390D02*
X42384286Y-112884342D01*
X42384286Y-112884342D02*
X42431905Y-112979580D01*
X42431905Y-112979580D02*
X42479524Y-113027200D01*
X42479524Y-113027200D02*
X42574762Y-113074819D01*
X42574762Y-113074819D02*
X42765238Y-113074819D01*
X42765238Y-113074819D02*
X42860476Y-113027200D01*
X42860476Y-113027200D02*
X42908095Y-112979580D01*
X42908095Y-112979580D02*
X42955714Y-112884342D01*
X42955714Y-112884342D02*
X42955714Y-112646247D01*
X42955714Y-112646247D02*
X42908095Y-112551009D01*
X42908095Y-112551009D02*
X42860476Y-112503390D01*
X42860476Y-112503390D02*
X42765238Y-112455771D01*
X42765238Y-112455771D02*
X42574762Y-112455771D01*
X42574762Y-112455771D02*
X42479524Y-112503390D01*
X42479524Y-112503390D02*
X42431905Y-112551009D01*
X42431905Y-112551009D02*
X42384286Y-112646247D01*
X65754819Y-107059523D02*
X66469104Y-107059523D01*
X66469104Y-107059523D02*
X66611961Y-107107142D01*
X66611961Y-107107142D02*
X66707200Y-107202380D01*
X66707200Y-107202380D02*
X66754819Y-107345237D01*
X66754819Y-107345237D02*
X66754819Y-107440475D01*
X65850057Y-106630951D02*
X65802438Y-106583332D01*
X65802438Y-106583332D02*
X65754819Y-106488094D01*
X65754819Y-106488094D02*
X65754819Y-106249999D01*
X65754819Y-106249999D02*
X65802438Y-106154761D01*
X65802438Y-106154761D02*
X65850057Y-106107142D01*
X65850057Y-106107142D02*
X65945295Y-106059523D01*
X65945295Y-106059523D02*
X66040533Y-106059523D01*
X66040533Y-106059523D02*
X66183390Y-106107142D01*
X66183390Y-106107142D02*
X66754819Y-106678570D01*
X66754819Y-106678570D02*
X66754819Y-106059523D01*
X66754819Y-105583332D02*
X66754819Y-105392856D01*
X66754819Y-105392856D02*
X66707200Y-105297618D01*
X66707200Y-105297618D02*
X66659580Y-105249999D01*
X66659580Y-105249999D02*
X66516723Y-105154761D01*
X66516723Y-105154761D02*
X66326247Y-105107142D01*
X66326247Y-105107142D02*
X65945295Y-105107142D01*
X65945295Y-105107142D02*
X65850057Y-105154761D01*
X65850057Y-105154761D02*
X65802438Y-105202380D01*
X65802438Y-105202380D02*
X65754819Y-105297618D01*
X65754819Y-105297618D02*
X65754819Y-105488094D01*
X65754819Y-105488094D02*
X65802438Y-105583332D01*
X65802438Y-105583332D02*
X65850057Y-105630951D01*
X65850057Y-105630951D02*
X65945295Y-105678570D01*
X65945295Y-105678570D02*
X66183390Y-105678570D01*
X66183390Y-105678570D02*
X66278628Y-105630951D01*
X66278628Y-105630951D02*
X66326247Y-105583332D01*
X66326247Y-105583332D02*
X66373866Y-105488094D01*
X66373866Y-105488094D02*
X66373866Y-105297618D01*
X66373866Y-105297618D02*
X66326247Y-105202380D01*
X66326247Y-105202380D02*
X66278628Y-105154761D01*
X66278628Y-105154761D02*
X66183390Y-105107142D01*
X53284819Y-102522857D02*
X52808628Y-102856190D01*
X53284819Y-103094285D02*
X52284819Y-103094285D01*
X52284819Y-103094285D02*
X52284819Y-102713333D01*
X52284819Y-102713333D02*
X52332438Y-102618095D01*
X52332438Y-102618095D02*
X52380057Y-102570476D01*
X52380057Y-102570476D02*
X52475295Y-102522857D01*
X52475295Y-102522857D02*
X52618152Y-102522857D01*
X52618152Y-102522857D02*
X52713390Y-102570476D01*
X52713390Y-102570476D02*
X52761009Y-102618095D01*
X52761009Y-102618095D02*
X52808628Y-102713333D01*
X52808628Y-102713333D02*
X52808628Y-103094285D01*
X53284819Y-101570476D02*
X53284819Y-102141904D01*
X53284819Y-101856190D02*
X52284819Y-101856190D01*
X52284819Y-101856190D02*
X52427676Y-101951428D01*
X52427676Y-101951428D02*
X52522914Y-102046666D01*
X52522914Y-102046666D02*
X52570533Y-102141904D01*
X52284819Y-100951428D02*
X52284819Y-100856190D01*
X52284819Y-100856190D02*
X52332438Y-100760952D01*
X52332438Y-100760952D02*
X52380057Y-100713333D01*
X52380057Y-100713333D02*
X52475295Y-100665714D01*
X52475295Y-100665714D02*
X52665771Y-100618095D01*
X52665771Y-100618095D02*
X52903866Y-100618095D01*
X52903866Y-100618095D02*
X53094342Y-100665714D01*
X53094342Y-100665714D02*
X53189580Y-100713333D01*
X53189580Y-100713333D02*
X53237200Y-100760952D01*
X53237200Y-100760952D02*
X53284819Y-100856190D01*
X53284819Y-100856190D02*
X53284819Y-100951428D01*
X53284819Y-100951428D02*
X53237200Y-101046666D01*
X53237200Y-101046666D02*
X53189580Y-101094285D01*
X53189580Y-101094285D02*
X53094342Y-101141904D01*
X53094342Y-101141904D02*
X52903866Y-101189523D01*
X52903866Y-101189523D02*
X52665771Y-101189523D01*
X52665771Y-101189523D02*
X52475295Y-101141904D01*
X52475295Y-101141904D02*
X52380057Y-101094285D01*
X52380057Y-101094285D02*
X52332438Y-101046666D01*
X52332438Y-101046666D02*
X52284819Y-100951428D01*
X58253333Y-96839580D02*
X58205714Y-96887200D01*
X58205714Y-96887200D02*
X58062857Y-96934819D01*
X58062857Y-96934819D02*
X57967619Y-96934819D01*
X57967619Y-96934819D02*
X57824762Y-96887200D01*
X57824762Y-96887200D02*
X57729524Y-96791961D01*
X57729524Y-96791961D02*
X57681905Y-96696723D01*
X57681905Y-96696723D02*
X57634286Y-96506247D01*
X57634286Y-96506247D02*
X57634286Y-96363390D01*
X57634286Y-96363390D02*
X57681905Y-96172914D01*
X57681905Y-96172914D02*
X57729524Y-96077676D01*
X57729524Y-96077676D02*
X57824762Y-95982438D01*
X57824762Y-95982438D02*
X57967619Y-95934819D01*
X57967619Y-95934819D02*
X58062857Y-95934819D01*
X58062857Y-95934819D02*
X58205714Y-95982438D01*
X58205714Y-95982438D02*
X58253333Y-96030057D01*
X58586667Y-95934819D02*
X59253333Y-95934819D01*
X59253333Y-95934819D02*
X58824762Y-96934819D01*
X51974819Y-123906666D02*
X51498628Y-124239999D01*
X51974819Y-124478094D02*
X50974819Y-124478094D01*
X50974819Y-124478094D02*
X50974819Y-124097142D01*
X50974819Y-124097142D02*
X51022438Y-124001904D01*
X51022438Y-124001904D02*
X51070057Y-123954285D01*
X51070057Y-123954285D02*
X51165295Y-123906666D01*
X51165295Y-123906666D02*
X51308152Y-123906666D01*
X51308152Y-123906666D02*
X51403390Y-123954285D01*
X51403390Y-123954285D02*
X51451009Y-124001904D01*
X51451009Y-124001904D02*
X51498628Y-124097142D01*
X51498628Y-124097142D02*
X51498628Y-124478094D01*
X50974819Y-123573332D02*
X50974819Y-122954285D01*
X50974819Y-122954285D02*
X51355771Y-123287618D01*
X51355771Y-123287618D02*
X51355771Y-123144761D01*
X51355771Y-123144761D02*
X51403390Y-123049523D01*
X51403390Y-123049523D02*
X51451009Y-123001904D01*
X51451009Y-123001904D02*
X51546247Y-122954285D01*
X51546247Y-122954285D02*
X51784342Y-122954285D01*
X51784342Y-122954285D02*
X51879580Y-123001904D01*
X51879580Y-123001904D02*
X51927200Y-123049523D01*
X51927200Y-123049523D02*
X51974819Y-123144761D01*
X51974819Y-123144761D02*
X51974819Y-123430475D01*
X51974819Y-123430475D02*
X51927200Y-123525713D01*
X51927200Y-123525713D02*
X51879580Y-123573332D01*
X38864819Y-99511904D02*
X39674342Y-99511904D01*
X39674342Y-99511904D02*
X39769580Y-99464285D01*
X39769580Y-99464285D02*
X39817200Y-99416666D01*
X39817200Y-99416666D02*
X39864819Y-99321428D01*
X39864819Y-99321428D02*
X39864819Y-99130952D01*
X39864819Y-99130952D02*
X39817200Y-99035714D01*
X39817200Y-99035714D02*
X39769580Y-98988095D01*
X39769580Y-98988095D02*
X39674342Y-98940476D01*
X39674342Y-98940476D02*
X38864819Y-98940476D01*
X38960057Y-98511904D02*
X38912438Y-98464285D01*
X38912438Y-98464285D02*
X38864819Y-98369047D01*
X38864819Y-98369047D02*
X38864819Y-98130952D01*
X38864819Y-98130952D02*
X38912438Y-98035714D01*
X38912438Y-98035714D02*
X38960057Y-97988095D01*
X38960057Y-97988095D02*
X39055295Y-97940476D01*
X39055295Y-97940476D02*
X39150533Y-97940476D01*
X39150533Y-97940476D02*
X39293390Y-97988095D01*
X39293390Y-97988095D02*
X39864819Y-98559523D01*
X39864819Y-98559523D02*
X39864819Y-97940476D01*
X30930476Y-105659819D02*
X30930476Y-106374104D01*
X30930476Y-106374104D02*
X30882857Y-106516961D01*
X30882857Y-106516961D02*
X30787619Y-106612200D01*
X30787619Y-106612200D02*
X30644762Y-106659819D01*
X30644762Y-106659819D02*
X30549524Y-106659819D01*
X31311429Y-105659819D02*
X31930476Y-105659819D01*
X31930476Y-105659819D02*
X31597143Y-106040771D01*
X31597143Y-106040771D02*
X31740000Y-106040771D01*
X31740000Y-106040771D02*
X31835238Y-106088390D01*
X31835238Y-106088390D02*
X31882857Y-106136009D01*
X31882857Y-106136009D02*
X31930476Y-106231247D01*
X31930476Y-106231247D02*
X31930476Y-106469342D01*
X31930476Y-106469342D02*
X31882857Y-106564580D01*
X31882857Y-106564580D02*
X31835238Y-106612200D01*
X31835238Y-106612200D02*
X31740000Y-106659819D01*
X31740000Y-106659819D02*
X31454286Y-106659819D01*
X31454286Y-106659819D02*
X31359048Y-106612200D01*
X31359048Y-106612200D02*
X31311429Y-106564580D01*
X32549524Y-105659819D02*
X32644762Y-105659819D01*
X32644762Y-105659819D02*
X32740000Y-105707438D01*
X32740000Y-105707438D02*
X32787619Y-105755057D01*
X32787619Y-105755057D02*
X32835238Y-105850295D01*
X32835238Y-105850295D02*
X32882857Y-106040771D01*
X32882857Y-106040771D02*
X32882857Y-106278866D01*
X32882857Y-106278866D02*
X32835238Y-106469342D01*
X32835238Y-106469342D02*
X32787619Y-106564580D01*
X32787619Y-106564580D02*
X32740000Y-106612200D01*
X32740000Y-106612200D02*
X32644762Y-106659819D01*
X32644762Y-106659819D02*
X32549524Y-106659819D01*
X32549524Y-106659819D02*
X32454286Y-106612200D01*
X32454286Y-106612200D02*
X32406667Y-106564580D01*
X32406667Y-106564580D02*
X32359048Y-106469342D01*
X32359048Y-106469342D02*
X32311429Y-106278866D01*
X32311429Y-106278866D02*
X32311429Y-106040771D01*
X32311429Y-106040771D02*
X32359048Y-105850295D01*
X32359048Y-105850295D02*
X32406667Y-105755057D01*
X32406667Y-105755057D02*
X32454286Y-105707438D01*
X32454286Y-105707438D02*
X32549524Y-105659819D01*
X107243333Y-79994819D02*
X106910000Y-79518628D01*
X106671905Y-79994819D02*
X106671905Y-78994819D01*
X106671905Y-78994819D02*
X107052857Y-78994819D01*
X107052857Y-78994819D02*
X107148095Y-79042438D01*
X107148095Y-79042438D02*
X107195714Y-79090057D01*
X107195714Y-79090057D02*
X107243333Y-79185295D01*
X107243333Y-79185295D02*
X107243333Y-79328152D01*
X107243333Y-79328152D02*
X107195714Y-79423390D01*
X107195714Y-79423390D02*
X107148095Y-79471009D01*
X107148095Y-79471009D02*
X107052857Y-79518628D01*
X107052857Y-79518628D02*
X106671905Y-79518628D01*
X107624286Y-79090057D02*
X107671905Y-79042438D01*
X107671905Y-79042438D02*
X107767143Y-78994819D01*
X107767143Y-78994819D02*
X108005238Y-78994819D01*
X108005238Y-78994819D02*
X108100476Y-79042438D01*
X108100476Y-79042438D02*
X108148095Y-79090057D01*
X108148095Y-79090057D02*
X108195714Y-79185295D01*
X108195714Y-79185295D02*
X108195714Y-79280533D01*
X108195714Y-79280533D02*
X108148095Y-79423390D01*
X108148095Y-79423390D02*
X107576667Y-79994819D01*
X107576667Y-79994819D02*
X108195714Y-79994819D01*
X38953333Y-127924819D02*
X38620000Y-127448628D01*
X38381905Y-127924819D02*
X38381905Y-126924819D01*
X38381905Y-126924819D02*
X38762857Y-126924819D01*
X38762857Y-126924819D02*
X38858095Y-126972438D01*
X38858095Y-126972438D02*
X38905714Y-127020057D01*
X38905714Y-127020057D02*
X38953333Y-127115295D01*
X38953333Y-127115295D02*
X38953333Y-127258152D01*
X38953333Y-127258152D02*
X38905714Y-127353390D01*
X38905714Y-127353390D02*
X38858095Y-127401009D01*
X38858095Y-127401009D02*
X38762857Y-127448628D01*
X38762857Y-127448628D02*
X38381905Y-127448628D01*
X39858095Y-126924819D02*
X39381905Y-126924819D01*
X39381905Y-126924819D02*
X39334286Y-127401009D01*
X39334286Y-127401009D02*
X39381905Y-127353390D01*
X39381905Y-127353390D02*
X39477143Y-127305771D01*
X39477143Y-127305771D02*
X39715238Y-127305771D01*
X39715238Y-127305771D02*
X39810476Y-127353390D01*
X39810476Y-127353390D02*
X39858095Y-127401009D01*
X39858095Y-127401009D02*
X39905714Y-127496247D01*
X39905714Y-127496247D02*
X39905714Y-127734342D01*
X39905714Y-127734342D02*
X39858095Y-127829580D01*
X39858095Y-127829580D02*
X39810476Y-127877200D01*
X39810476Y-127877200D02*
X39715238Y-127924819D01*
X39715238Y-127924819D02*
X39477143Y-127924819D01*
X39477143Y-127924819D02*
X39381905Y-127877200D01*
X39381905Y-127877200D02*
X39334286Y-127829580D01*
X38883333Y-119254819D02*
X38550000Y-118778628D01*
X38311905Y-119254819D02*
X38311905Y-118254819D01*
X38311905Y-118254819D02*
X38692857Y-118254819D01*
X38692857Y-118254819D02*
X38788095Y-118302438D01*
X38788095Y-118302438D02*
X38835714Y-118350057D01*
X38835714Y-118350057D02*
X38883333Y-118445295D01*
X38883333Y-118445295D02*
X38883333Y-118588152D01*
X38883333Y-118588152D02*
X38835714Y-118683390D01*
X38835714Y-118683390D02*
X38788095Y-118731009D01*
X38788095Y-118731009D02*
X38692857Y-118778628D01*
X38692857Y-118778628D02*
X38311905Y-118778628D01*
X39740476Y-118588152D02*
X39740476Y-119254819D01*
X39502381Y-118207200D02*
X39264286Y-118921485D01*
X39264286Y-118921485D02*
X39883333Y-118921485D01*
X32139580Y-94856666D02*
X32187200Y-94904285D01*
X32187200Y-94904285D02*
X32234819Y-95047142D01*
X32234819Y-95047142D02*
X32234819Y-95142380D01*
X32234819Y-95142380D02*
X32187200Y-95285237D01*
X32187200Y-95285237D02*
X32091961Y-95380475D01*
X32091961Y-95380475D02*
X31996723Y-95428094D01*
X31996723Y-95428094D02*
X31806247Y-95475713D01*
X31806247Y-95475713D02*
X31663390Y-95475713D01*
X31663390Y-95475713D02*
X31472914Y-95428094D01*
X31472914Y-95428094D02*
X31377676Y-95380475D01*
X31377676Y-95380475D02*
X31282438Y-95285237D01*
X31282438Y-95285237D02*
X31234819Y-95142380D01*
X31234819Y-95142380D02*
X31234819Y-95047142D01*
X31234819Y-95047142D02*
X31282438Y-94904285D01*
X31282438Y-94904285D02*
X31330057Y-94856666D01*
X31330057Y-94475713D02*
X31282438Y-94428094D01*
X31282438Y-94428094D02*
X31234819Y-94332856D01*
X31234819Y-94332856D02*
X31234819Y-94094761D01*
X31234819Y-94094761D02*
X31282438Y-93999523D01*
X31282438Y-93999523D02*
X31330057Y-93951904D01*
X31330057Y-93951904D02*
X31425295Y-93904285D01*
X31425295Y-93904285D02*
X31520533Y-93904285D01*
X31520533Y-93904285D02*
X31663390Y-93951904D01*
X31663390Y-93951904D02*
X32234819Y-94523332D01*
X32234819Y-94523332D02*
X32234819Y-93904285D01*
X35334819Y-105305238D02*
X34858628Y-105638571D01*
X35334819Y-105876666D02*
X34334819Y-105876666D01*
X34334819Y-105876666D02*
X34334819Y-105495714D01*
X34334819Y-105495714D02*
X34382438Y-105400476D01*
X34382438Y-105400476D02*
X34430057Y-105352857D01*
X34430057Y-105352857D02*
X34525295Y-105305238D01*
X34525295Y-105305238D02*
X34668152Y-105305238D01*
X34668152Y-105305238D02*
X34763390Y-105352857D01*
X34763390Y-105352857D02*
X34811009Y-105400476D01*
X34811009Y-105400476D02*
X34858628Y-105495714D01*
X34858628Y-105495714D02*
X34858628Y-105876666D01*
X34334819Y-105019523D02*
X35334819Y-104686190D01*
X35334819Y-104686190D02*
X34334819Y-104352857D01*
X34430057Y-104067142D02*
X34382438Y-104019523D01*
X34382438Y-104019523D02*
X34334819Y-103924285D01*
X34334819Y-103924285D02*
X34334819Y-103686190D01*
X34334819Y-103686190D02*
X34382438Y-103590952D01*
X34382438Y-103590952D02*
X34430057Y-103543333D01*
X34430057Y-103543333D02*
X34525295Y-103495714D01*
X34525295Y-103495714D02*
X34620533Y-103495714D01*
X34620533Y-103495714D02*
X34763390Y-103543333D01*
X34763390Y-103543333D02*
X35334819Y-104114761D01*
X35334819Y-104114761D02*
X35334819Y-103495714D01*
X55419580Y-125146666D02*
X55467200Y-125194285D01*
X55467200Y-125194285D02*
X55514819Y-125337142D01*
X55514819Y-125337142D02*
X55514819Y-125432380D01*
X55514819Y-125432380D02*
X55467200Y-125575237D01*
X55467200Y-125575237D02*
X55371961Y-125670475D01*
X55371961Y-125670475D02*
X55276723Y-125718094D01*
X55276723Y-125718094D02*
X55086247Y-125765713D01*
X55086247Y-125765713D02*
X54943390Y-125765713D01*
X54943390Y-125765713D02*
X54752914Y-125718094D01*
X54752914Y-125718094D02*
X54657676Y-125670475D01*
X54657676Y-125670475D02*
X54562438Y-125575237D01*
X54562438Y-125575237D02*
X54514819Y-125432380D01*
X54514819Y-125432380D02*
X54514819Y-125337142D01*
X54514819Y-125337142D02*
X54562438Y-125194285D01*
X54562438Y-125194285D02*
X54610057Y-125146666D01*
X54514819Y-124813332D02*
X54514819Y-124194285D01*
X54514819Y-124194285D02*
X54895771Y-124527618D01*
X54895771Y-124527618D02*
X54895771Y-124384761D01*
X54895771Y-124384761D02*
X54943390Y-124289523D01*
X54943390Y-124289523D02*
X54991009Y-124241904D01*
X54991009Y-124241904D02*
X55086247Y-124194285D01*
X55086247Y-124194285D02*
X55324342Y-124194285D01*
X55324342Y-124194285D02*
X55419580Y-124241904D01*
X55419580Y-124241904D02*
X55467200Y-124289523D01*
X55467200Y-124289523D02*
X55514819Y-124384761D01*
X55514819Y-124384761D02*
X55514819Y-124670475D01*
X55514819Y-124670475D02*
X55467200Y-124765713D01*
X55467200Y-124765713D02*
X55419580Y-124813332D01*
X31280476Y-128834819D02*
X31280476Y-129549104D01*
X31280476Y-129549104D02*
X31232857Y-129691961D01*
X31232857Y-129691961D02*
X31137619Y-129787200D01*
X31137619Y-129787200D02*
X30994762Y-129834819D01*
X30994762Y-129834819D02*
X30899524Y-129834819D01*
X31661429Y-128834819D02*
X32280476Y-128834819D01*
X32280476Y-128834819D02*
X31947143Y-129215771D01*
X31947143Y-129215771D02*
X32090000Y-129215771D01*
X32090000Y-129215771D02*
X32185238Y-129263390D01*
X32185238Y-129263390D02*
X32232857Y-129311009D01*
X32232857Y-129311009D02*
X32280476Y-129406247D01*
X32280476Y-129406247D02*
X32280476Y-129644342D01*
X32280476Y-129644342D02*
X32232857Y-129739580D01*
X32232857Y-129739580D02*
X32185238Y-129787200D01*
X32185238Y-129787200D02*
X32090000Y-129834819D01*
X32090000Y-129834819D02*
X31804286Y-129834819D01*
X31804286Y-129834819D02*
X31709048Y-129787200D01*
X31709048Y-129787200D02*
X31661429Y-129739580D01*
X32661429Y-128930057D02*
X32709048Y-128882438D01*
X32709048Y-128882438D02*
X32804286Y-128834819D01*
X32804286Y-128834819D02*
X33042381Y-128834819D01*
X33042381Y-128834819D02*
X33137619Y-128882438D01*
X33137619Y-128882438D02*
X33185238Y-128930057D01*
X33185238Y-128930057D02*
X33232857Y-129025295D01*
X33232857Y-129025295D02*
X33232857Y-129120533D01*
X33232857Y-129120533D02*
X33185238Y-129263390D01*
X33185238Y-129263390D02*
X32613810Y-129834819D01*
X32613810Y-129834819D02*
X33232857Y-129834819D01*
X49304819Y-124455238D02*
X48828628Y-124788571D01*
X49304819Y-125026666D02*
X48304819Y-125026666D01*
X48304819Y-125026666D02*
X48304819Y-124645714D01*
X48304819Y-124645714D02*
X48352438Y-124550476D01*
X48352438Y-124550476D02*
X48400057Y-124502857D01*
X48400057Y-124502857D02*
X48495295Y-124455238D01*
X48495295Y-124455238D02*
X48638152Y-124455238D01*
X48638152Y-124455238D02*
X48733390Y-124502857D01*
X48733390Y-124502857D02*
X48781009Y-124550476D01*
X48781009Y-124550476D02*
X48828628Y-124645714D01*
X48828628Y-124645714D02*
X48828628Y-125026666D01*
X48304819Y-124169523D02*
X49304819Y-123836190D01*
X49304819Y-123836190D02*
X48304819Y-123502857D01*
X49304819Y-122645714D02*
X49304819Y-123217142D01*
X49304819Y-122931428D02*
X48304819Y-122931428D01*
X48304819Y-122931428D02*
X48447676Y-123026666D01*
X48447676Y-123026666D02*
X48542914Y-123121904D01*
X48542914Y-123121904D02*
X48590533Y-123217142D01*
X33353333Y-112919580D02*
X33305714Y-112967200D01*
X33305714Y-112967200D02*
X33162857Y-113014819D01*
X33162857Y-113014819D02*
X33067619Y-113014819D01*
X33067619Y-113014819D02*
X32924762Y-112967200D01*
X32924762Y-112967200D02*
X32829524Y-112871961D01*
X32829524Y-112871961D02*
X32781905Y-112776723D01*
X32781905Y-112776723D02*
X32734286Y-112586247D01*
X32734286Y-112586247D02*
X32734286Y-112443390D01*
X32734286Y-112443390D02*
X32781905Y-112252914D01*
X32781905Y-112252914D02*
X32829524Y-112157676D01*
X32829524Y-112157676D02*
X32924762Y-112062438D01*
X32924762Y-112062438D02*
X33067619Y-112014819D01*
X33067619Y-112014819D02*
X33162857Y-112014819D01*
X33162857Y-112014819D02*
X33305714Y-112062438D01*
X33305714Y-112062438D02*
X33353333Y-112110057D01*
X34258095Y-112014819D02*
X33781905Y-112014819D01*
X33781905Y-112014819D02*
X33734286Y-112491009D01*
X33734286Y-112491009D02*
X33781905Y-112443390D01*
X33781905Y-112443390D02*
X33877143Y-112395771D01*
X33877143Y-112395771D02*
X34115238Y-112395771D01*
X34115238Y-112395771D02*
X34210476Y-112443390D01*
X34210476Y-112443390D02*
X34258095Y-112491009D01*
X34258095Y-112491009D02*
X34305714Y-112586247D01*
X34305714Y-112586247D02*
X34305714Y-112824342D01*
X34305714Y-112824342D02*
X34258095Y-112919580D01*
X34258095Y-112919580D02*
X34210476Y-112967200D01*
X34210476Y-112967200D02*
X34115238Y-113014819D01*
X34115238Y-113014819D02*
X33877143Y-113014819D01*
X33877143Y-113014819D02*
X33781905Y-112967200D01*
X33781905Y-112967200D02*
X33734286Y-112919580D01*
D12*
X79838095Y-57557419D02*
X79838095Y-56557419D01*
X79838095Y-57033609D02*
X80409523Y-57033609D01*
X80409523Y-57557419D02*
X80409523Y-56557419D01*
X81409523Y-57557419D02*
X80838095Y-57557419D01*
X81123809Y-57557419D02*
X81123809Y-56557419D01*
X81123809Y-56557419D02*
X81028571Y-56700276D01*
X81028571Y-56700276D02*
X80933333Y-56795514D01*
X80933333Y-56795514D02*
X80838095Y-56843133D01*
D10*
X35564819Y-94386666D02*
X35088628Y-94719999D01*
X35564819Y-94958094D02*
X34564819Y-94958094D01*
X34564819Y-94958094D02*
X34564819Y-94577142D01*
X34564819Y-94577142D02*
X34612438Y-94481904D01*
X34612438Y-94481904D02*
X34660057Y-94434285D01*
X34660057Y-94434285D02*
X34755295Y-94386666D01*
X34755295Y-94386666D02*
X34898152Y-94386666D01*
X34898152Y-94386666D02*
X34993390Y-94434285D01*
X34993390Y-94434285D02*
X35041009Y-94481904D01*
X35041009Y-94481904D02*
X35088628Y-94577142D01*
X35088628Y-94577142D02*
X35088628Y-94958094D01*
X34993390Y-93815237D02*
X34945771Y-93910475D01*
X34945771Y-93910475D02*
X34898152Y-93958094D01*
X34898152Y-93958094D02*
X34802914Y-94005713D01*
X34802914Y-94005713D02*
X34755295Y-94005713D01*
X34755295Y-94005713D02*
X34660057Y-93958094D01*
X34660057Y-93958094D02*
X34612438Y-93910475D01*
X34612438Y-93910475D02*
X34564819Y-93815237D01*
X34564819Y-93815237D02*
X34564819Y-93624761D01*
X34564819Y-93624761D02*
X34612438Y-93529523D01*
X34612438Y-93529523D02*
X34660057Y-93481904D01*
X34660057Y-93481904D02*
X34755295Y-93434285D01*
X34755295Y-93434285D02*
X34802914Y-93434285D01*
X34802914Y-93434285D02*
X34898152Y-93481904D01*
X34898152Y-93481904D02*
X34945771Y-93529523D01*
X34945771Y-93529523D02*
X34993390Y-93624761D01*
X34993390Y-93624761D02*
X34993390Y-93815237D01*
X34993390Y-93815237D02*
X35041009Y-93910475D01*
X35041009Y-93910475D02*
X35088628Y-93958094D01*
X35088628Y-93958094D02*
X35183866Y-94005713D01*
X35183866Y-94005713D02*
X35374342Y-94005713D01*
X35374342Y-94005713D02*
X35469580Y-93958094D01*
X35469580Y-93958094D02*
X35517200Y-93910475D01*
X35517200Y-93910475D02*
X35564819Y-93815237D01*
X35564819Y-93815237D02*
X35564819Y-93624761D01*
X35564819Y-93624761D02*
X35517200Y-93529523D01*
X35517200Y-93529523D02*
X35469580Y-93481904D01*
X35469580Y-93481904D02*
X35374342Y-93434285D01*
X35374342Y-93434285D02*
X35183866Y-93434285D01*
X35183866Y-93434285D02*
X35088628Y-93481904D01*
X35088628Y-93481904D02*
X35041009Y-93529523D01*
X35041009Y-93529523D02*
X34993390Y-93624761D01*
X45853333Y-106075580D02*
X45805714Y-106123200D01*
X45805714Y-106123200D02*
X45662857Y-106170819D01*
X45662857Y-106170819D02*
X45567619Y-106170819D01*
X45567619Y-106170819D02*
X45424762Y-106123200D01*
X45424762Y-106123200D02*
X45329524Y-106027961D01*
X45329524Y-106027961D02*
X45281905Y-105932723D01*
X45281905Y-105932723D02*
X45234286Y-105742247D01*
X45234286Y-105742247D02*
X45234286Y-105599390D01*
X45234286Y-105599390D02*
X45281905Y-105408914D01*
X45281905Y-105408914D02*
X45329524Y-105313676D01*
X45329524Y-105313676D02*
X45424762Y-105218438D01*
X45424762Y-105218438D02*
X45567619Y-105170819D01*
X45567619Y-105170819D02*
X45662857Y-105170819D01*
X45662857Y-105170819D02*
X45805714Y-105218438D01*
X45805714Y-105218438D02*
X45853333Y-105266057D01*
X46710476Y-105170819D02*
X46520000Y-105170819D01*
X46520000Y-105170819D02*
X46424762Y-105218438D01*
X46424762Y-105218438D02*
X46377143Y-105266057D01*
X46377143Y-105266057D02*
X46281905Y-105408914D01*
X46281905Y-105408914D02*
X46234286Y-105599390D01*
X46234286Y-105599390D02*
X46234286Y-105980342D01*
X46234286Y-105980342D02*
X46281905Y-106075580D01*
X46281905Y-106075580D02*
X46329524Y-106123200D01*
X46329524Y-106123200D02*
X46424762Y-106170819D01*
X46424762Y-106170819D02*
X46615238Y-106170819D01*
X46615238Y-106170819D02*
X46710476Y-106123200D01*
X46710476Y-106123200D02*
X46758095Y-106075580D01*
X46758095Y-106075580D02*
X46805714Y-105980342D01*
X46805714Y-105980342D02*
X46805714Y-105742247D01*
X46805714Y-105742247D02*
X46758095Y-105647009D01*
X46758095Y-105647009D02*
X46710476Y-105599390D01*
X46710476Y-105599390D02*
X46615238Y-105551771D01*
X46615238Y-105551771D02*
X46424762Y-105551771D01*
X46424762Y-105551771D02*
X46329524Y-105599390D01*
X46329524Y-105599390D02*
X46281905Y-105647009D01*
X46281905Y-105647009D02*
X46234286Y-105742247D01*
X51853333Y-113214819D02*
X51520000Y-112738628D01*
X51281905Y-113214819D02*
X51281905Y-112214819D01*
X51281905Y-112214819D02*
X51662857Y-112214819D01*
X51662857Y-112214819D02*
X51758095Y-112262438D01*
X51758095Y-112262438D02*
X51805714Y-112310057D01*
X51805714Y-112310057D02*
X51853333Y-112405295D01*
X51853333Y-112405295D02*
X51853333Y-112548152D01*
X51853333Y-112548152D02*
X51805714Y-112643390D01*
X51805714Y-112643390D02*
X51758095Y-112691009D01*
X51758095Y-112691009D02*
X51662857Y-112738628D01*
X51662857Y-112738628D02*
X51281905Y-112738628D01*
X52186667Y-112214819D02*
X52853333Y-112214819D01*
X52853333Y-112214819D02*
X52424762Y-113214819D01*
D13*
%TO.C,J9*%
X32460000Y-77190000D02*
X32460000Y-84810000D01*
X32460000Y-84810000D02*
X42620000Y-84810000D01*
X42620000Y-77190000D02*
X32460000Y-77190000D01*
X42620000Y-83540000D02*
X32460000Y-83540000D01*
X42620000Y-84810000D02*
X42620000Y-77190000D01*
%TO.C,J13*%
X128620000Y-84310000D02*
X128620000Y-76690000D01*
X128620000Y-76690000D02*
X118460000Y-76690000D01*
X118460000Y-84310000D02*
X128620000Y-84310000D01*
X118460000Y-77960000D02*
X128620000Y-77960000D01*
X118460000Y-76690000D02*
X118460000Y-84310000D01*
%TO.C,R12*%
X49530000Y-90210000D02*
X56070000Y-90210000D01*
X49530000Y-90540000D02*
X49530000Y-90210000D01*
X49530000Y-92620000D02*
X49530000Y-92950000D01*
X49530000Y-92950000D02*
X56070000Y-92950000D01*
X56070000Y-90210000D02*
X56070000Y-90540000D01*
X56070000Y-92950000D02*
X56070000Y-92620000D01*
%TO.C,J31*%
X50600000Y-114850000D02*
X50600000Y-116180000D01*
X49270000Y-114850000D02*
X50600000Y-114850000D01*
X48000000Y-114850000D02*
X45400000Y-114850000D01*
X48000000Y-114850000D02*
X48000000Y-117510000D01*
X45400000Y-114850000D02*
X45400000Y-117510000D01*
X48000000Y-117510000D02*
X45400000Y-117510000D01*
%TO.C,Q1*%
X35960000Y-125320000D02*
X39560000Y-125320000D01*
X37760000Y-120870001D02*
G75*
G03*
X35403601Y-122371193I0J-2599999D01*
G01*
X35435817Y-124592795D02*
G75*
G03*
X35960001Y-125319999I2324183J1122795D01*
G01*
X40116400Y-122371193D02*
G75*
G03*
X37760000Y-120870000I-2356400J-1098807D01*
G01*
X39559999Y-125319999D02*
G75*
G03*
X40084183Y-124592795I-1799999J1849999D01*
G01*
%TO.C,R1*%
X47200000Y-80000000D02*
X47310000Y-80000000D01*
X47310000Y-77630000D02*
X47310000Y-82370000D01*
X47310000Y-82370000D02*
X59450000Y-82370000D01*
X59450000Y-77630000D02*
X47310000Y-77630000D01*
X59450000Y-82370000D02*
X59450000Y-77630000D01*
X59560000Y-80000000D02*
X59450000Y-80000000D01*
%TO.C,J33*%
X65990000Y-95650000D02*
X67320000Y-95650000D01*
X65990000Y-96980000D02*
X65990000Y-95650000D01*
X65990000Y-98250000D02*
X65990000Y-100850000D01*
X65990000Y-98250000D02*
X68650000Y-98250000D01*
X65990000Y-100850000D02*
X68650000Y-100850000D01*
X68650000Y-98250000D02*
X68650000Y-100850000D01*
%TO.C,R13*%
X56460000Y-98390000D02*
X63000000Y-98390000D01*
X56460000Y-98720000D02*
X56460000Y-98390000D01*
X56460000Y-100800000D02*
X56460000Y-101130000D01*
X56460000Y-101130000D02*
X63000000Y-101130000D01*
X63000000Y-98390000D02*
X63000000Y-98720000D01*
X63000000Y-101130000D02*
X63000000Y-100800000D01*
%TO.C,R9*%
X41930000Y-107500000D02*
X48470000Y-107500000D01*
X41930000Y-107830000D02*
X41930000Y-107500000D01*
X41930000Y-109910000D02*
X41930000Y-110240000D01*
X41930000Y-110240000D02*
X48470000Y-110240000D01*
X48470000Y-107500000D02*
X48470000Y-107830000D01*
X48470000Y-110240000D02*
X48470000Y-109910000D01*
%TO.C,J26*%
X79590000Y-110370000D02*
X127910000Y-110370000D01*
X79590000Y-110370000D02*
X79590000Y-107710000D01*
X127910000Y-110370000D02*
X127910000Y-107710000D01*
X76990000Y-109040000D02*
X76990000Y-107710000D01*
X76990000Y-107710000D02*
X78320000Y-107710000D01*
X79590000Y-107710000D02*
X127910000Y-107710000D01*
%TO.C,C1*%
X68560000Y-127530000D02*
X68875000Y-127530000D01*
X68560000Y-127530000D02*
X68560000Y-122290000D01*
X70985000Y-127530000D02*
X71300000Y-127530000D01*
X71300000Y-127530000D02*
X71300000Y-122290000D01*
X68560000Y-122290000D02*
X68875000Y-122290000D01*
X70985000Y-122290000D02*
X71300000Y-122290000D01*
%TO.C,C4*%
X41100000Y-90260000D02*
X41100000Y-90575000D01*
X41100000Y-90260000D02*
X46340000Y-90260000D01*
X41100000Y-92685000D02*
X41100000Y-93000000D01*
X41100000Y-93000000D02*
X46340000Y-93000000D01*
X46340000Y-90260000D02*
X46340000Y-90575000D01*
X46340000Y-92685000D02*
X46340000Y-93000000D01*
%TO.C,R11*%
X36984000Y-97250000D02*
X36984000Y-90710000D01*
X37314000Y-97250000D02*
X36984000Y-97250000D01*
X39394000Y-97250000D02*
X39724000Y-97250000D01*
X39724000Y-97250000D02*
X39724000Y-90710000D01*
X36984000Y-90710000D02*
X37314000Y-90710000D01*
X39724000Y-90710000D02*
X39394000Y-90710000D01*
%TO.C,J28*%
X84670000Y-92590000D02*
X92350000Y-92590000D01*
X84670000Y-92590000D02*
X84670000Y-89930000D01*
X92350000Y-92590000D02*
X92350000Y-89930000D01*
X82070000Y-91260000D02*
X82070000Y-89930000D01*
X82070000Y-89930000D02*
X83400000Y-89930000D01*
X84670000Y-89930000D02*
X92350000Y-89930000D01*
%TO.C,U1*%
X67860000Y-126950000D02*
X67860000Y-108930000D01*
X67860000Y-108930000D02*
X57580000Y-108930000D01*
X65370000Y-126890000D02*
X65370000Y-108990000D01*
X65370000Y-108990000D02*
X60070000Y-108990000D01*
X63720000Y-126890000D02*
X65370000Y-126890000D01*
X60070000Y-126890000D02*
X61720000Y-126890000D01*
X60070000Y-108990000D02*
X60070000Y-126890000D01*
X57580000Y-126950000D02*
X67860000Y-126950000D01*
X57580000Y-108930000D02*
X57580000Y-126950000D01*
X63720000Y-126890000D02*
G75*
G03*
X61720000Y-126890000I-1000000J0D01*
G01*
%TO.C,J27*%
X79590000Y-97670000D02*
X127910000Y-97670000D01*
X79590000Y-97670000D02*
X79590000Y-95010000D01*
X127910000Y-97670000D02*
X127910000Y-95010000D01*
X76990000Y-96340000D02*
X76990000Y-95010000D01*
X76990000Y-95010000D02*
X78320000Y-95010000D01*
X79590000Y-95010000D02*
X127910000Y-95010000D01*
%TO.C,R6*%
X45380000Y-113990000D02*
X38840000Y-113990000D01*
X45380000Y-113660000D02*
X45380000Y-113990000D01*
X45380000Y-111580000D02*
X45380000Y-111250000D01*
X45380000Y-111250000D02*
X38840000Y-111250000D01*
X38840000Y-113990000D02*
X38840000Y-113660000D01*
X38840000Y-111250000D02*
X38840000Y-111580000D01*
%TO.C,J29*%
X65300000Y-104920000D02*
X65300000Y-106250000D01*
X63970000Y-104920000D02*
X65300000Y-104920000D01*
X62700000Y-104920000D02*
X60100000Y-104920000D01*
X62700000Y-104920000D02*
X62700000Y-107580000D01*
X60100000Y-104920000D02*
X60100000Y-107580000D01*
X62700000Y-107580000D02*
X60100000Y-107580000D01*
%TO.C,R10*%
X54170000Y-98640000D02*
X54170000Y-105180000D01*
X53840000Y-98640000D02*
X54170000Y-98640000D01*
X51760000Y-98640000D02*
X51430000Y-98640000D01*
X51430000Y-98640000D02*
X51430000Y-105180000D01*
X54170000Y-105180000D02*
X53840000Y-105180000D01*
X51430000Y-105180000D02*
X51760000Y-105180000D01*
%TO.C,C7*%
X55800000Y-95140000D02*
X55800000Y-95455000D01*
X55800000Y-95140000D02*
X61040000Y-95140000D01*
X55800000Y-97565000D02*
X55800000Y-97880000D01*
X55800000Y-97880000D02*
X61040000Y-97880000D01*
X61040000Y-95140000D02*
X61040000Y-95455000D01*
X61040000Y-97565000D02*
X61040000Y-97880000D01*
%TO.C,R3*%
X52860000Y-120460000D02*
X52860000Y-127000000D01*
X52530000Y-120460000D02*
X52860000Y-120460000D01*
X50450000Y-120460000D02*
X50120000Y-120460000D01*
X50120000Y-120460000D02*
X50120000Y-127000000D01*
X52860000Y-127000000D02*
X52530000Y-127000000D01*
X50120000Y-127000000D02*
X50450000Y-127000000D01*
%TO.C,U2*%
X40350000Y-103890000D02*
X50750000Y-103890000D01*
X50750000Y-103890000D02*
X50750000Y-93610000D01*
X40410000Y-101400000D02*
X50690000Y-101400000D01*
X50690000Y-101400000D02*
X50690000Y-96100000D01*
X40410000Y-99750000D02*
X40410000Y-101400000D01*
X40410000Y-96100000D02*
X40410000Y-97750000D01*
X50690000Y-96100000D02*
X40410000Y-96100000D01*
X40350000Y-93610000D02*
X40350000Y-103890000D01*
X50750000Y-93610000D02*
X40350000Y-93610000D01*
X40410000Y-99750000D02*
G75*
G03*
X40410000Y-97750000I0J1000000D01*
G01*
%TO.C,J30*%
X33070000Y-105205000D02*
X31740000Y-105205000D01*
X33070000Y-103875000D02*
X33070000Y-105205000D01*
X33070000Y-102605000D02*
X33070000Y-100005000D01*
X33070000Y-102605000D02*
X30410000Y-102605000D01*
X33070000Y-100005000D02*
X30410000Y-100005000D01*
X30410000Y-102605000D02*
X30410000Y-100005000D01*
%TO.C,R2*%
X113560000Y-79500000D02*
X113450000Y-79500000D01*
X113450000Y-81870000D02*
X113450000Y-77130000D01*
X113450000Y-77130000D02*
X101310000Y-77130000D01*
X101310000Y-81870000D02*
X113450000Y-81870000D01*
X101310000Y-77130000D02*
X101310000Y-81870000D01*
X101200000Y-79500000D02*
X101310000Y-79500000D01*
%TO.C,R5*%
X35910000Y-126030000D02*
X42450000Y-126030000D01*
X35910000Y-126360000D02*
X35910000Y-126030000D01*
X35910000Y-128440000D02*
X35910000Y-128770000D01*
X35910000Y-128770000D02*
X42450000Y-128770000D01*
X42450000Y-126030000D02*
X42450000Y-126360000D01*
X42450000Y-128770000D02*
X42450000Y-128440000D01*
%TO.C,R4*%
X42260000Y-120210000D02*
X35720000Y-120210000D01*
X42260000Y-119880000D02*
X42260000Y-120210000D01*
X42260000Y-117800000D02*
X42260000Y-117470000D01*
X42260000Y-117470000D02*
X35720000Y-117470000D01*
X35720000Y-120210000D02*
X35720000Y-119880000D01*
X35720000Y-117470000D02*
X35720000Y-117800000D01*
%TO.C,C2*%
X30420000Y-97310000D02*
X30735000Y-97310000D01*
X30420000Y-97310000D02*
X30420000Y-92070000D01*
X32845000Y-97310000D02*
X33160000Y-97310000D01*
X33160000Y-97310000D02*
X33160000Y-92070000D01*
X30420000Y-92070000D02*
X30735000Y-92070000D01*
X32845000Y-92070000D02*
X33160000Y-92070000D01*
%TO.C,RV2*%
X33980000Y-110465000D02*
X39050000Y-110465000D01*
X33980000Y-110465000D02*
X33980000Y-100695000D01*
X39050000Y-110465000D02*
X39050000Y-100695000D01*
X33980000Y-100695000D02*
X39050000Y-100695000D01*
%TO.C,C3*%
X56470000Y-122320000D02*
X56155000Y-122320000D01*
X56470000Y-122320000D02*
X56470000Y-127560000D01*
X54045000Y-122320000D02*
X53730000Y-122320000D01*
X53730000Y-122320000D02*
X53730000Y-127560000D01*
X56470000Y-127560000D02*
X56155000Y-127560000D01*
X54045000Y-127560000D02*
X53730000Y-127560000D01*
%TO.C,J32*%
X33420000Y-128380000D02*
X32090000Y-128380000D01*
X33420000Y-127050000D02*
X33420000Y-128380000D01*
X33420000Y-125780000D02*
X33420000Y-123180000D01*
X33420000Y-125780000D02*
X30760000Y-125780000D01*
X33420000Y-123180000D02*
X30760000Y-123180000D01*
X30760000Y-125780000D02*
X30760000Y-123180000D01*
%TO.C,RV1*%
X49630000Y-119035000D02*
X44560000Y-119035000D01*
X49630000Y-119035000D02*
X49630000Y-128805000D01*
X44560000Y-119035000D02*
X44560000Y-128805000D01*
X49630000Y-128805000D02*
X44560000Y-128805000D01*
%TO.C,C5*%
X30980000Y-111190000D02*
X30980000Y-111505000D01*
X30980000Y-111190000D02*
X36220000Y-111190000D01*
X30980000Y-113615000D02*
X30980000Y-113930000D01*
X30980000Y-113930000D02*
X36220000Y-113930000D01*
X36220000Y-111190000D02*
X36220000Y-111505000D01*
X36220000Y-113615000D02*
X36220000Y-113930000D01*
%TO.C,R8*%
X33760000Y-97470000D02*
X33760000Y-90930000D01*
X34090000Y-97470000D02*
X33760000Y-97470000D01*
X36170000Y-97470000D02*
X36500000Y-97470000D01*
X36500000Y-97470000D02*
X36500000Y-90930000D01*
X33760000Y-90930000D02*
X34090000Y-90930000D01*
X36500000Y-90930000D02*
X36170000Y-90930000D01*
%TO.C,C6*%
X43400000Y-104320000D02*
X43400000Y-104635000D01*
X43400000Y-104320000D02*
X48640000Y-104320000D01*
X43400000Y-106745000D02*
X43400000Y-107060000D01*
X43400000Y-107060000D02*
X48640000Y-107060000D01*
X48640000Y-104320000D02*
X48640000Y-104635000D01*
X48640000Y-106745000D02*
X48640000Y-107060000D01*
%TO.C,R7*%
X55230000Y-114060000D02*
X48690000Y-114060000D01*
X55230000Y-113730000D02*
X55230000Y-114060000D01*
X55230000Y-111650000D02*
X55230000Y-111320000D01*
X55230000Y-111320000D02*
X48690000Y-111320000D01*
X48690000Y-114060000D02*
X48690000Y-113730000D01*
X48690000Y-111320000D02*
X48690000Y-111650000D01*
%TD*%
M02*
