%TF.GenerationSoftware,KiCad,Pcbnew,7.0.11+dfsg-1build4*%
%TF.CreationDate,2025-11-16T19:22:08-06:00*%
%TF.ProjectId,AdapterBoard,41646170-7465-4724-926f-6172642e6b69,rev?*%
%TF.SameCoordinates,Original*%
%TF.FileFunction,Drillmap*%
%TF.FilePolarity,Positive*%
%FSLAX45Y45*%
G04 Gerber Fmt 4.5, Leading zero omitted, Abs format (unit mm)*
G04 Created by KiCad (PCBNEW 7.0.11+dfsg-1build4) date 2025-11-16 19:22:08*
%MOMM*%
%LPD*%
G01*
G04 APERTURE LIST*
%ADD10C,0.150000*%
%ADD11C,0.200000*%
%ADD12C,0.100000*%
%ADD13C,0.320000*%
G04 APERTURE END LIST*
D10*
X13000000Y-3000000D02*
X13000000Y-13000000D01*
X3000000Y-3000000D02*
X13000000Y-3000000D01*
X13000000Y-13000000D02*
X3000000Y-13000000D01*
X3000000Y-13000000D02*
X3000000Y-3000000D01*
D11*
X7960000Y-5660000D02*
X8160000Y-5860000D01*
X8160000Y-5660000D02*
X7960000Y-5860000D01*
D12*
X7960000Y-3360000D02*
X7960000Y-8160000D01*
X7960000Y-8160000D02*
G75*
G03*
X8160000Y-8160000I100000J0D01*
G01*
X8160000Y-8160000D02*
X8160000Y-3360000D01*
X8160000Y-3360000D02*
G75*
G03*
X7960000Y-3360000I-100000J0D01*
G01*
D13*
X3560000Y-4500000D02*
G75*
G03*
X3240000Y-4500000I-160000J0D01*
G01*
X3240000Y-4500000D02*
G75*
G03*
X3560000Y-4500000I160000J0D01*
G01*
X3560000Y-6150000D02*
G75*
G03*
X3240000Y-6150000I-160000J0D01*
G01*
X3240000Y-6150000D02*
G75*
G03*
X3560000Y-6150000I160000J0D01*
G01*
X12810000Y-4500000D02*
G75*
G03*
X12490000Y-4500000I-160000J0D01*
G01*
X12490000Y-4500000D02*
G75*
G03*
X12810000Y-4500000I160000J0D01*
G01*
X12810000Y-6150000D02*
G75*
G03*
X12490000Y-6150000I-160000J0D01*
G01*
X12490000Y-6150000D02*
G75*
G03*
X12810000Y-6150000I160000J0D01*
G01*
D11*
X3253277Y-13318984D02*
X3253277Y-13118984D01*
X3253277Y-13118984D02*
X3300896Y-13118984D01*
X3300896Y-13118984D02*
X3329467Y-13128508D01*
X3329467Y-13128508D02*
X3348515Y-13147555D01*
X3348515Y-13147555D02*
X3358039Y-13166603D01*
X3358039Y-13166603D02*
X3367562Y-13204698D01*
X3367562Y-13204698D02*
X3367562Y-13233269D01*
X3367562Y-13233269D02*
X3358039Y-13271365D01*
X3358039Y-13271365D02*
X3348515Y-13290412D01*
X3348515Y-13290412D02*
X3329467Y-13309460D01*
X3329467Y-13309460D02*
X3300896Y-13318984D01*
X3300896Y-13318984D02*
X3253277Y-13318984D01*
X3453277Y-13318984D02*
X3453277Y-13185650D01*
X3453277Y-13223746D02*
X3462801Y-13204698D01*
X3462801Y-13204698D02*
X3472324Y-13195174D01*
X3472324Y-13195174D02*
X3491372Y-13185650D01*
X3491372Y-13185650D02*
X3510420Y-13185650D01*
X3577086Y-13318984D02*
X3577086Y-13185650D01*
X3577086Y-13118984D02*
X3567562Y-13128508D01*
X3567562Y-13128508D02*
X3577086Y-13138031D01*
X3577086Y-13138031D02*
X3586610Y-13128508D01*
X3586610Y-13128508D02*
X3577086Y-13118984D01*
X3577086Y-13118984D02*
X3577086Y-13138031D01*
X3700896Y-13318984D02*
X3681848Y-13309460D01*
X3681848Y-13309460D02*
X3672324Y-13290412D01*
X3672324Y-13290412D02*
X3672324Y-13118984D01*
X3805658Y-13318984D02*
X3786610Y-13309460D01*
X3786610Y-13309460D02*
X3777086Y-13290412D01*
X3777086Y-13290412D02*
X3777086Y-13118984D01*
X4034229Y-13318984D02*
X4034229Y-13118984D01*
X4034229Y-13118984D02*
X4100896Y-13261841D01*
X4100896Y-13261841D02*
X4167562Y-13118984D01*
X4167562Y-13118984D02*
X4167562Y-13318984D01*
X4348515Y-13318984D02*
X4348515Y-13214222D01*
X4348515Y-13214222D02*
X4338991Y-13195174D01*
X4338991Y-13195174D02*
X4319944Y-13185650D01*
X4319944Y-13185650D02*
X4281848Y-13185650D01*
X4281848Y-13185650D02*
X4262801Y-13195174D01*
X4348515Y-13309460D02*
X4329467Y-13318984D01*
X4329467Y-13318984D02*
X4281848Y-13318984D01*
X4281848Y-13318984D02*
X4262801Y-13309460D01*
X4262801Y-13309460D02*
X4253277Y-13290412D01*
X4253277Y-13290412D02*
X4253277Y-13271365D01*
X4253277Y-13271365D02*
X4262801Y-13252317D01*
X4262801Y-13252317D02*
X4281848Y-13242793D01*
X4281848Y-13242793D02*
X4329467Y-13242793D01*
X4329467Y-13242793D02*
X4348515Y-13233269D01*
X4443753Y-13185650D02*
X4443753Y-13385650D01*
X4443753Y-13195174D02*
X4462801Y-13185650D01*
X4462801Y-13185650D02*
X4500896Y-13185650D01*
X4500896Y-13185650D02*
X4519944Y-13195174D01*
X4519944Y-13195174D02*
X4529467Y-13204698D01*
X4529467Y-13204698D02*
X4538991Y-13223746D01*
X4538991Y-13223746D02*
X4538991Y-13280888D01*
X4538991Y-13280888D02*
X4529467Y-13299936D01*
X4529467Y-13299936D02*
X4519944Y-13309460D01*
X4519944Y-13309460D02*
X4500896Y-13318984D01*
X4500896Y-13318984D02*
X4462801Y-13318984D01*
X4462801Y-13318984D02*
X4443753Y-13309460D01*
X4624705Y-13299936D02*
X4634229Y-13309460D01*
X4634229Y-13309460D02*
X4624705Y-13318984D01*
X4624705Y-13318984D02*
X4615182Y-13309460D01*
X4615182Y-13309460D02*
X4624705Y-13299936D01*
X4624705Y-13299936D02*
X4624705Y-13318984D01*
X4624705Y-13195174D02*
X4634229Y-13204698D01*
X4634229Y-13204698D02*
X4624705Y-13214222D01*
X4624705Y-13214222D02*
X4615182Y-13204698D01*
X4615182Y-13204698D02*
X4624705Y-13195174D01*
X4624705Y-13195174D02*
X4624705Y-13214222D01*
X2792500Y-13547500D02*
X2992500Y-13747500D01*
X2992500Y-13547500D02*
X2792500Y-13747500D01*
X3243753Y-13558031D02*
X3253277Y-13548508D01*
X3253277Y-13548508D02*
X3272324Y-13538984D01*
X3272324Y-13538984D02*
X3319943Y-13538984D01*
X3319943Y-13538984D02*
X3338991Y-13548508D01*
X3338991Y-13548508D02*
X3348515Y-13558031D01*
X3348515Y-13558031D02*
X3358039Y-13577079D01*
X3358039Y-13577079D02*
X3358039Y-13596127D01*
X3358039Y-13596127D02*
X3348515Y-13624698D01*
X3348515Y-13624698D02*
X3234229Y-13738984D01*
X3234229Y-13738984D02*
X3358039Y-13738984D01*
X3443753Y-13719936D02*
X3453277Y-13729460D01*
X3453277Y-13729460D02*
X3443753Y-13738984D01*
X3443753Y-13738984D02*
X3434229Y-13729460D01*
X3434229Y-13729460D02*
X3443753Y-13719936D01*
X3443753Y-13719936D02*
X3443753Y-13738984D01*
X3577086Y-13538984D02*
X3596134Y-13538984D01*
X3596134Y-13538984D02*
X3615182Y-13548508D01*
X3615182Y-13548508D02*
X3624705Y-13558031D01*
X3624705Y-13558031D02*
X3634229Y-13577079D01*
X3634229Y-13577079D02*
X3643753Y-13615174D01*
X3643753Y-13615174D02*
X3643753Y-13662793D01*
X3643753Y-13662793D02*
X3634229Y-13700888D01*
X3634229Y-13700888D02*
X3624705Y-13719936D01*
X3624705Y-13719936D02*
X3615182Y-13729460D01*
X3615182Y-13729460D02*
X3596134Y-13738984D01*
X3596134Y-13738984D02*
X3577086Y-13738984D01*
X3577086Y-13738984D02*
X3558039Y-13729460D01*
X3558039Y-13729460D02*
X3548515Y-13719936D01*
X3548515Y-13719936D02*
X3538991Y-13700888D01*
X3538991Y-13700888D02*
X3529467Y-13662793D01*
X3529467Y-13662793D02*
X3529467Y-13615174D01*
X3529467Y-13615174D02*
X3538991Y-13577079D01*
X3538991Y-13577079D02*
X3548515Y-13558031D01*
X3548515Y-13558031D02*
X3558039Y-13548508D01*
X3558039Y-13548508D02*
X3577086Y-13538984D01*
X3767562Y-13538984D02*
X3786610Y-13538984D01*
X3786610Y-13538984D02*
X3805658Y-13548508D01*
X3805658Y-13548508D02*
X3815182Y-13558031D01*
X3815182Y-13558031D02*
X3824705Y-13577079D01*
X3824705Y-13577079D02*
X3834229Y-13615174D01*
X3834229Y-13615174D02*
X3834229Y-13662793D01*
X3834229Y-13662793D02*
X3824705Y-13700888D01*
X3824705Y-13700888D02*
X3815182Y-13719936D01*
X3815182Y-13719936D02*
X3805658Y-13729460D01*
X3805658Y-13729460D02*
X3786610Y-13738984D01*
X3786610Y-13738984D02*
X3767562Y-13738984D01*
X3767562Y-13738984D02*
X3748515Y-13729460D01*
X3748515Y-13729460D02*
X3738991Y-13719936D01*
X3738991Y-13719936D02*
X3729467Y-13700888D01*
X3729467Y-13700888D02*
X3719943Y-13662793D01*
X3719943Y-13662793D02*
X3719943Y-13615174D01*
X3719943Y-13615174D02*
X3729467Y-13577079D01*
X3729467Y-13577079D02*
X3738991Y-13558031D01*
X3738991Y-13558031D02*
X3748515Y-13548508D01*
X3748515Y-13548508D02*
X3767562Y-13538984D01*
X3958039Y-13538984D02*
X3977086Y-13538984D01*
X3977086Y-13538984D02*
X3996134Y-13548508D01*
X3996134Y-13548508D02*
X4005658Y-13558031D01*
X4005658Y-13558031D02*
X4015182Y-13577079D01*
X4015182Y-13577079D02*
X4024705Y-13615174D01*
X4024705Y-13615174D02*
X4024705Y-13662793D01*
X4024705Y-13662793D02*
X4015182Y-13700888D01*
X4015182Y-13700888D02*
X4005658Y-13719936D01*
X4005658Y-13719936D02*
X3996134Y-13729460D01*
X3996134Y-13729460D02*
X3977086Y-13738984D01*
X3977086Y-13738984D02*
X3958039Y-13738984D01*
X3958039Y-13738984D02*
X3938991Y-13729460D01*
X3938991Y-13729460D02*
X3929467Y-13719936D01*
X3929467Y-13719936D02*
X3919943Y-13700888D01*
X3919943Y-13700888D02*
X3910420Y-13662793D01*
X3910420Y-13662793D02*
X3910420Y-13615174D01*
X3910420Y-13615174D02*
X3919943Y-13577079D01*
X3919943Y-13577079D02*
X3929467Y-13558031D01*
X3929467Y-13558031D02*
X3938991Y-13548508D01*
X3938991Y-13548508D02*
X3958039Y-13538984D01*
X4110420Y-13738984D02*
X4110420Y-13605650D01*
X4110420Y-13624698D02*
X4119943Y-13615174D01*
X4119943Y-13615174D02*
X4138991Y-13605650D01*
X4138991Y-13605650D02*
X4167563Y-13605650D01*
X4167563Y-13605650D02*
X4186610Y-13615174D01*
X4186610Y-13615174D02*
X4196134Y-13634222D01*
X4196134Y-13634222D02*
X4196134Y-13738984D01*
X4196134Y-13634222D02*
X4205658Y-13615174D01*
X4205658Y-13615174D02*
X4224705Y-13605650D01*
X4224705Y-13605650D02*
X4253277Y-13605650D01*
X4253277Y-13605650D02*
X4272325Y-13615174D01*
X4272325Y-13615174D02*
X4281848Y-13634222D01*
X4281848Y-13634222D02*
X4281848Y-13738984D01*
X4377086Y-13738984D02*
X4377086Y-13605650D01*
X4377086Y-13624698D02*
X4386610Y-13615174D01*
X4386610Y-13615174D02*
X4405658Y-13605650D01*
X4405658Y-13605650D02*
X4434229Y-13605650D01*
X4434229Y-13605650D02*
X4453277Y-13615174D01*
X4453277Y-13615174D02*
X4462801Y-13634222D01*
X4462801Y-13634222D02*
X4462801Y-13738984D01*
X4462801Y-13634222D02*
X4472325Y-13615174D01*
X4472325Y-13615174D02*
X4491372Y-13605650D01*
X4491372Y-13605650D02*
X4519944Y-13605650D01*
X4519944Y-13605650D02*
X4538991Y-13615174D01*
X4538991Y-13615174D02*
X4548515Y-13634222D01*
X4548515Y-13634222D02*
X4548515Y-13738984D01*
X4938991Y-13529460D02*
X4767563Y-13786603D01*
X5196134Y-13538984D02*
X5215182Y-13538984D01*
X5215182Y-13538984D02*
X5234229Y-13548508D01*
X5234229Y-13548508D02*
X5243753Y-13558031D01*
X5243753Y-13558031D02*
X5253277Y-13577079D01*
X5253277Y-13577079D02*
X5262801Y-13615174D01*
X5262801Y-13615174D02*
X5262801Y-13662793D01*
X5262801Y-13662793D02*
X5253277Y-13700888D01*
X5253277Y-13700888D02*
X5243753Y-13719936D01*
X5243753Y-13719936D02*
X5234229Y-13729460D01*
X5234229Y-13729460D02*
X5215182Y-13738984D01*
X5215182Y-13738984D02*
X5196134Y-13738984D01*
X5196134Y-13738984D02*
X5177087Y-13729460D01*
X5177087Y-13729460D02*
X5167563Y-13719936D01*
X5167563Y-13719936D02*
X5158039Y-13700888D01*
X5158039Y-13700888D02*
X5148515Y-13662793D01*
X5148515Y-13662793D02*
X5148515Y-13615174D01*
X5148515Y-13615174D02*
X5158039Y-13577079D01*
X5158039Y-13577079D02*
X5167563Y-13558031D01*
X5167563Y-13558031D02*
X5177087Y-13548508D01*
X5177087Y-13548508D02*
X5196134Y-13538984D01*
X5348515Y-13719936D02*
X5358039Y-13729460D01*
X5358039Y-13729460D02*
X5348515Y-13738984D01*
X5348515Y-13738984D02*
X5338991Y-13729460D01*
X5338991Y-13729460D02*
X5348515Y-13719936D01*
X5348515Y-13719936D02*
X5348515Y-13738984D01*
X5481848Y-13538984D02*
X5500896Y-13538984D01*
X5500896Y-13538984D02*
X5519944Y-13548508D01*
X5519944Y-13548508D02*
X5529468Y-13558031D01*
X5529468Y-13558031D02*
X5538991Y-13577079D01*
X5538991Y-13577079D02*
X5548515Y-13615174D01*
X5548515Y-13615174D02*
X5548515Y-13662793D01*
X5548515Y-13662793D02*
X5538991Y-13700888D01*
X5538991Y-13700888D02*
X5529468Y-13719936D01*
X5529468Y-13719936D02*
X5519944Y-13729460D01*
X5519944Y-13729460D02*
X5500896Y-13738984D01*
X5500896Y-13738984D02*
X5481848Y-13738984D01*
X5481848Y-13738984D02*
X5462801Y-13729460D01*
X5462801Y-13729460D02*
X5453277Y-13719936D01*
X5453277Y-13719936D02*
X5443753Y-13700888D01*
X5443753Y-13700888D02*
X5434229Y-13662793D01*
X5434229Y-13662793D02*
X5434229Y-13615174D01*
X5434229Y-13615174D02*
X5443753Y-13577079D01*
X5443753Y-13577079D02*
X5453277Y-13558031D01*
X5453277Y-13558031D02*
X5462801Y-13548508D01*
X5462801Y-13548508D02*
X5481848Y-13538984D01*
X5615182Y-13538984D02*
X5748515Y-13538984D01*
X5748515Y-13538984D02*
X5662801Y-13738984D01*
X5853277Y-13624698D02*
X5834229Y-13615174D01*
X5834229Y-13615174D02*
X5824706Y-13605650D01*
X5824706Y-13605650D02*
X5815182Y-13586603D01*
X5815182Y-13586603D02*
X5815182Y-13577079D01*
X5815182Y-13577079D02*
X5824706Y-13558031D01*
X5824706Y-13558031D02*
X5834229Y-13548508D01*
X5834229Y-13548508D02*
X5853277Y-13538984D01*
X5853277Y-13538984D02*
X5891372Y-13538984D01*
X5891372Y-13538984D02*
X5910420Y-13548508D01*
X5910420Y-13548508D02*
X5919944Y-13558031D01*
X5919944Y-13558031D02*
X5929467Y-13577079D01*
X5929467Y-13577079D02*
X5929467Y-13586603D01*
X5929467Y-13586603D02*
X5919944Y-13605650D01*
X5919944Y-13605650D02*
X5910420Y-13615174D01*
X5910420Y-13615174D02*
X5891372Y-13624698D01*
X5891372Y-13624698D02*
X5853277Y-13624698D01*
X5853277Y-13624698D02*
X5834229Y-13634222D01*
X5834229Y-13634222D02*
X5824706Y-13643746D01*
X5824706Y-13643746D02*
X5815182Y-13662793D01*
X5815182Y-13662793D02*
X5815182Y-13700888D01*
X5815182Y-13700888D02*
X5824706Y-13719936D01*
X5824706Y-13719936D02*
X5834229Y-13729460D01*
X5834229Y-13729460D02*
X5853277Y-13738984D01*
X5853277Y-13738984D02*
X5891372Y-13738984D01*
X5891372Y-13738984D02*
X5910420Y-13729460D01*
X5910420Y-13729460D02*
X5919944Y-13719936D01*
X5919944Y-13719936D02*
X5929467Y-13700888D01*
X5929467Y-13700888D02*
X5929467Y-13662793D01*
X5929467Y-13662793D02*
X5919944Y-13643746D01*
X5919944Y-13643746D02*
X5910420Y-13634222D01*
X5910420Y-13634222D02*
X5891372Y-13624698D01*
X5996134Y-13538984D02*
X6129467Y-13538984D01*
X6129467Y-13538984D02*
X6043753Y-13738984D01*
X6196134Y-13538984D02*
X6196134Y-13577079D01*
X6272325Y-13538984D02*
X6272325Y-13577079D01*
X6567563Y-13815174D02*
X6558039Y-13805650D01*
X6558039Y-13805650D02*
X6538991Y-13777079D01*
X6538991Y-13777079D02*
X6529468Y-13758031D01*
X6529468Y-13758031D02*
X6519944Y-13729460D01*
X6519944Y-13729460D02*
X6510420Y-13681841D01*
X6510420Y-13681841D02*
X6510420Y-13643746D01*
X6510420Y-13643746D02*
X6519944Y-13596127D01*
X6519944Y-13596127D02*
X6529468Y-13567555D01*
X6529468Y-13567555D02*
X6538991Y-13548508D01*
X6538991Y-13548508D02*
X6558039Y-13519936D01*
X6558039Y-13519936D02*
X6567563Y-13510412D01*
X6748515Y-13738984D02*
X6634229Y-13738984D01*
X6691372Y-13738984D02*
X6691372Y-13538984D01*
X6691372Y-13538984D02*
X6672325Y-13567555D01*
X6672325Y-13567555D02*
X6653277Y-13586603D01*
X6653277Y-13586603D02*
X6634229Y-13596127D01*
X6977087Y-13729460D02*
X6996134Y-13738984D01*
X6996134Y-13738984D02*
X7034229Y-13738984D01*
X7034229Y-13738984D02*
X7053277Y-13729460D01*
X7053277Y-13729460D02*
X7062801Y-13710412D01*
X7062801Y-13710412D02*
X7062801Y-13700888D01*
X7062801Y-13700888D02*
X7053277Y-13681841D01*
X7053277Y-13681841D02*
X7034229Y-13672317D01*
X7034229Y-13672317D02*
X7005658Y-13672317D01*
X7005658Y-13672317D02*
X6986610Y-13662793D01*
X6986610Y-13662793D02*
X6977087Y-13643746D01*
X6977087Y-13643746D02*
X6977087Y-13634222D01*
X6977087Y-13634222D02*
X6986610Y-13615174D01*
X6986610Y-13615174D02*
X7005658Y-13605650D01*
X7005658Y-13605650D02*
X7034229Y-13605650D01*
X7034229Y-13605650D02*
X7053277Y-13615174D01*
X7177087Y-13738984D02*
X7158039Y-13729460D01*
X7158039Y-13729460D02*
X7148515Y-13710412D01*
X7148515Y-13710412D02*
X7148515Y-13538984D01*
X7281849Y-13738984D02*
X7262801Y-13729460D01*
X7262801Y-13729460D02*
X7253277Y-13719936D01*
X7253277Y-13719936D02*
X7243753Y-13700888D01*
X7243753Y-13700888D02*
X7243753Y-13643746D01*
X7243753Y-13643746D02*
X7253277Y-13624698D01*
X7253277Y-13624698D02*
X7262801Y-13615174D01*
X7262801Y-13615174D02*
X7281849Y-13605650D01*
X7281849Y-13605650D02*
X7310420Y-13605650D01*
X7310420Y-13605650D02*
X7329468Y-13615174D01*
X7329468Y-13615174D02*
X7338991Y-13624698D01*
X7338991Y-13624698D02*
X7348515Y-13643746D01*
X7348515Y-13643746D02*
X7348515Y-13700888D01*
X7348515Y-13700888D02*
X7338991Y-13719936D01*
X7338991Y-13719936D02*
X7329468Y-13729460D01*
X7329468Y-13729460D02*
X7310420Y-13738984D01*
X7310420Y-13738984D02*
X7281849Y-13738984D01*
X7405658Y-13605650D02*
X7481849Y-13605650D01*
X7434230Y-13538984D02*
X7434230Y-13710412D01*
X7434230Y-13710412D02*
X7443753Y-13729460D01*
X7443753Y-13729460D02*
X7462801Y-13738984D01*
X7462801Y-13738984D02*
X7481849Y-13738984D01*
X7529468Y-13815174D02*
X7538991Y-13805650D01*
X7538991Y-13805650D02*
X7558039Y-13777079D01*
X7558039Y-13777079D02*
X7567563Y-13758031D01*
X7567563Y-13758031D02*
X7577087Y-13729460D01*
X7577087Y-13729460D02*
X7586610Y-13681841D01*
X7586610Y-13681841D02*
X7586610Y-13643746D01*
X7586610Y-13643746D02*
X7577087Y-13596127D01*
X7577087Y-13596127D02*
X7567563Y-13567555D01*
X7567563Y-13567555D02*
X7558039Y-13548508D01*
X7558039Y-13548508D02*
X7538991Y-13519936D01*
X7538991Y-13519936D02*
X7529468Y-13510412D01*
X7891372Y-13815174D02*
X7881849Y-13805650D01*
X7881849Y-13805650D02*
X7862801Y-13777079D01*
X7862801Y-13777079D02*
X7853277Y-13758031D01*
X7853277Y-13758031D02*
X7843753Y-13729460D01*
X7843753Y-13729460D02*
X7834230Y-13681841D01*
X7834230Y-13681841D02*
X7834230Y-13643746D01*
X7834230Y-13643746D02*
X7843753Y-13596127D01*
X7843753Y-13596127D02*
X7853277Y-13567555D01*
X7853277Y-13567555D02*
X7862801Y-13548508D01*
X7862801Y-13548508D02*
X7881849Y-13519936D01*
X7881849Y-13519936D02*
X7891372Y-13510412D01*
X7967563Y-13605650D02*
X7967563Y-13738984D01*
X7967563Y-13624698D02*
X7977087Y-13615174D01*
X7977087Y-13615174D02*
X7996134Y-13605650D01*
X7996134Y-13605650D02*
X8024706Y-13605650D01*
X8024706Y-13605650D02*
X8043753Y-13615174D01*
X8043753Y-13615174D02*
X8053277Y-13634222D01*
X8053277Y-13634222D02*
X8053277Y-13738984D01*
X8177087Y-13738984D02*
X8158039Y-13729460D01*
X8158039Y-13729460D02*
X8148515Y-13719936D01*
X8148515Y-13719936D02*
X8138991Y-13700888D01*
X8138991Y-13700888D02*
X8138991Y-13643746D01*
X8138991Y-13643746D02*
X8148515Y-13624698D01*
X8148515Y-13624698D02*
X8158039Y-13615174D01*
X8158039Y-13615174D02*
X8177087Y-13605650D01*
X8177087Y-13605650D02*
X8205658Y-13605650D01*
X8205658Y-13605650D02*
X8224706Y-13615174D01*
X8224706Y-13615174D02*
X8234230Y-13624698D01*
X8234230Y-13624698D02*
X8243753Y-13643746D01*
X8243753Y-13643746D02*
X8243753Y-13700888D01*
X8243753Y-13700888D02*
X8234230Y-13719936D01*
X8234230Y-13719936D02*
X8224706Y-13729460D01*
X8224706Y-13729460D02*
X8205658Y-13738984D01*
X8205658Y-13738984D02*
X8177087Y-13738984D01*
X8300896Y-13605650D02*
X8377087Y-13605650D01*
X8329468Y-13538984D02*
X8329468Y-13710412D01*
X8329468Y-13710412D02*
X8338991Y-13729460D01*
X8338991Y-13729460D02*
X8358039Y-13738984D01*
X8358039Y-13738984D02*
X8377087Y-13738984D01*
X8596134Y-13605650D02*
X8596134Y-13805650D01*
X8596134Y-13615174D02*
X8615182Y-13605650D01*
X8615182Y-13605650D02*
X8653277Y-13605650D01*
X8653277Y-13605650D02*
X8672325Y-13615174D01*
X8672325Y-13615174D02*
X8681849Y-13624698D01*
X8681849Y-13624698D02*
X8691373Y-13643746D01*
X8691373Y-13643746D02*
X8691373Y-13700888D01*
X8691373Y-13700888D02*
X8681849Y-13719936D01*
X8681849Y-13719936D02*
X8672325Y-13729460D01*
X8672325Y-13729460D02*
X8653277Y-13738984D01*
X8653277Y-13738984D02*
X8615182Y-13738984D01*
X8615182Y-13738984D02*
X8596134Y-13729460D01*
X8805658Y-13738984D02*
X8786611Y-13729460D01*
X8786611Y-13729460D02*
X8777087Y-13710412D01*
X8777087Y-13710412D02*
X8777087Y-13538984D01*
X8967563Y-13738984D02*
X8967563Y-13634222D01*
X8967563Y-13634222D02*
X8958039Y-13615174D01*
X8958039Y-13615174D02*
X8938992Y-13605650D01*
X8938992Y-13605650D02*
X8900896Y-13605650D01*
X8900896Y-13605650D02*
X8881849Y-13615174D01*
X8967563Y-13729460D02*
X8948515Y-13738984D01*
X8948515Y-13738984D02*
X8900896Y-13738984D01*
X8900896Y-13738984D02*
X8881849Y-13729460D01*
X8881849Y-13729460D02*
X8872325Y-13710412D01*
X8872325Y-13710412D02*
X8872325Y-13691365D01*
X8872325Y-13691365D02*
X8881849Y-13672317D01*
X8881849Y-13672317D02*
X8900896Y-13662793D01*
X8900896Y-13662793D02*
X8948515Y-13662793D01*
X8948515Y-13662793D02*
X8967563Y-13653269D01*
X9034230Y-13605650D02*
X9110420Y-13605650D01*
X9062801Y-13538984D02*
X9062801Y-13710412D01*
X9062801Y-13710412D02*
X9072325Y-13729460D01*
X9072325Y-13729460D02*
X9091373Y-13738984D01*
X9091373Y-13738984D02*
X9110420Y-13738984D01*
X9253277Y-13729460D02*
X9234230Y-13738984D01*
X9234230Y-13738984D02*
X9196134Y-13738984D01*
X9196134Y-13738984D02*
X9177087Y-13729460D01*
X9177087Y-13729460D02*
X9167563Y-13710412D01*
X9167563Y-13710412D02*
X9167563Y-13634222D01*
X9167563Y-13634222D02*
X9177087Y-13615174D01*
X9177087Y-13615174D02*
X9196134Y-13605650D01*
X9196134Y-13605650D02*
X9234230Y-13605650D01*
X9234230Y-13605650D02*
X9253277Y-13615174D01*
X9253277Y-13615174D02*
X9262801Y-13634222D01*
X9262801Y-13634222D02*
X9262801Y-13653269D01*
X9262801Y-13653269D02*
X9167563Y-13672317D01*
X9434230Y-13738984D02*
X9434230Y-13538984D01*
X9434230Y-13729460D02*
X9415182Y-13738984D01*
X9415182Y-13738984D02*
X9377087Y-13738984D01*
X9377087Y-13738984D02*
X9358039Y-13729460D01*
X9358039Y-13729460D02*
X9348515Y-13719936D01*
X9348515Y-13719936D02*
X9338992Y-13700888D01*
X9338992Y-13700888D02*
X9338992Y-13643746D01*
X9338992Y-13643746D02*
X9348515Y-13624698D01*
X9348515Y-13624698D02*
X9358039Y-13615174D01*
X9358039Y-13615174D02*
X9377087Y-13605650D01*
X9377087Y-13605650D02*
X9415182Y-13605650D01*
X9415182Y-13605650D02*
X9434230Y-13615174D01*
X9510420Y-13815174D02*
X9519944Y-13805650D01*
X9519944Y-13805650D02*
X9538992Y-13777079D01*
X9538992Y-13777079D02*
X9548515Y-13758031D01*
X9548515Y-13758031D02*
X9558039Y-13729460D01*
X9558039Y-13729460D02*
X9567563Y-13681841D01*
X9567563Y-13681841D02*
X9567563Y-13643746D01*
X9567563Y-13643746D02*
X9558039Y-13596127D01*
X9558039Y-13596127D02*
X9548515Y-13567555D01*
X9548515Y-13567555D02*
X9538992Y-13548508D01*
X9538992Y-13548508D02*
X9519944Y-13519936D01*
X9519944Y-13519936D02*
X9510420Y-13510412D01*
X2992500Y-13967500D02*
G75*
G03*
X2792500Y-13967500I-100000J0D01*
G01*
X2792500Y-13967500D02*
G75*
G03*
X2992500Y-13967500I100000J0D01*
G01*
X3234229Y-13858984D02*
X3358039Y-13858984D01*
X3358039Y-13858984D02*
X3291372Y-13935174D01*
X3291372Y-13935174D02*
X3319943Y-13935174D01*
X3319943Y-13935174D02*
X3338991Y-13944698D01*
X3338991Y-13944698D02*
X3348515Y-13954222D01*
X3348515Y-13954222D02*
X3358039Y-13973269D01*
X3358039Y-13973269D02*
X3358039Y-14020888D01*
X3358039Y-14020888D02*
X3348515Y-14039936D01*
X3348515Y-14039936D02*
X3338991Y-14049460D01*
X3338991Y-14049460D02*
X3319943Y-14058984D01*
X3319943Y-14058984D02*
X3262801Y-14058984D01*
X3262801Y-14058984D02*
X3243753Y-14049460D01*
X3243753Y-14049460D02*
X3234229Y-14039936D01*
X3443753Y-14039936D02*
X3453277Y-14049460D01*
X3453277Y-14049460D02*
X3443753Y-14058984D01*
X3443753Y-14058984D02*
X3434229Y-14049460D01*
X3434229Y-14049460D02*
X3443753Y-14039936D01*
X3443753Y-14039936D02*
X3443753Y-14058984D01*
X3529467Y-13878031D02*
X3538991Y-13868508D01*
X3538991Y-13868508D02*
X3558039Y-13858984D01*
X3558039Y-13858984D02*
X3605658Y-13858984D01*
X3605658Y-13858984D02*
X3624705Y-13868508D01*
X3624705Y-13868508D02*
X3634229Y-13878031D01*
X3634229Y-13878031D02*
X3643753Y-13897079D01*
X3643753Y-13897079D02*
X3643753Y-13916127D01*
X3643753Y-13916127D02*
X3634229Y-13944698D01*
X3634229Y-13944698D02*
X3519943Y-14058984D01*
X3519943Y-14058984D02*
X3643753Y-14058984D01*
X3767562Y-13858984D02*
X3786610Y-13858984D01*
X3786610Y-13858984D02*
X3805658Y-13868508D01*
X3805658Y-13868508D02*
X3815182Y-13878031D01*
X3815182Y-13878031D02*
X3824705Y-13897079D01*
X3824705Y-13897079D02*
X3834229Y-13935174D01*
X3834229Y-13935174D02*
X3834229Y-13982793D01*
X3834229Y-13982793D02*
X3824705Y-14020888D01*
X3824705Y-14020888D02*
X3815182Y-14039936D01*
X3815182Y-14039936D02*
X3805658Y-14049460D01*
X3805658Y-14049460D02*
X3786610Y-14058984D01*
X3786610Y-14058984D02*
X3767562Y-14058984D01*
X3767562Y-14058984D02*
X3748515Y-14049460D01*
X3748515Y-14049460D02*
X3738991Y-14039936D01*
X3738991Y-14039936D02*
X3729467Y-14020888D01*
X3729467Y-14020888D02*
X3719943Y-13982793D01*
X3719943Y-13982793D02*
X3719943Y-13935174D01*
X3719943Y-13935174D02*
X3729467Y-13897079D01*
X3729467Y-13897079D02*
X3738991Y-13878031D01*
X3738991Y-13878031D02*
X3748515Y-13868508D01*
X3748515Y-13868508D02*
X3767562Y-13858984D01*
X3958039Y-13858984D02*
X3977086Y-13858984D01*
X3977086Y-13858984D02*
X3996134Y-13868508D01*
X3996134Y-13868508D02*
X4005658Y-13878031D01*
X4005658Y-13878031D02*
X4015182Y-13897079D01*
X4015182Y-13897079D02*
X4024705Y-13935174D01*
X4024705Y-13935174D02*
X4024705Y-13982793D01*
X4024705Y-13982793D02*
X4015182Y-14020888D01*
X4015182Y-14020888D02*
X4005658Y-14039936D01*
X4005658Y-14039936D02*
X3996134Y-14049460D01*
X3996134Y-14049460D02*
X3977086Y-14058984D01*
X3977086Y-14058984D02*
X3958039Y-14058984D01*
X3958039Y-14058984D02*
X3938991Y-14049460D01*
X3938991Y-14049460D02*
X3929467Y-14039936D01*
X3929467Y-14039936D02*
X3919943Y-14020888D01*
X3919943Y-14020888D02*
X3910420Y-13982793D01*
X3910420Y-13982793D02*
X3910420Y-13935174D01*
X3910420Y-13935174D02*
X3919943Y-13897079D01*
X3919943Y-13897079D02*
X3929467Y-13878031D01*
X3929467Y-13878031D02*
X3938991Y-13868508D01*
X3938991Y-13868508D02*
X3958039Y-13858984D01*
X4110420Y-14058984D02*
X4110420Y-13925650D01*
X4110420Y-13944698D02*
X4119943Y-13935174D01*
X4119943Y-13935174D02*
X4138991Y-13925650D01*
X4138991Y-13925650D02*
X4167563Y-13925650D01*
X4167563Y-13925650D02*
X4186610Y-13935174D01*
X4186610Y-13935174D02*
X4196134Y-13954222D01*
X4196134Y-13954222D02*
X4196134Y-14058984D01*
X4196134Y-13954222D02*
X4205658Y-13935174D01*
X4205658Y-13935174D02*
X4224705Y-13925650D01*
X4224705Y-13925650D02*
X4253277Y-13925650D01*
X4253277Y-13925650D02*
X4272325Y-13935174D01*
X4272325Y-13935174D02*
X4281848Y-13954222D01*
X4281848Y-13954222D02*
X4281848Y-14058984D01*
X4377086Y-14058984D02*
X4377086Y-13925650D01*
X4377086Y-13944698D02*
X4386610Y-13935174D01*
X4386610Y-13935174D02*
X4405658Y-13925650D01*
X4405658Y-13925650D02*
X4434229Y-13925650D01*
X4434229Y-13925650D02*
X4453277Y-13935174D01*
X4453277Y-13935174D02*
X4462801Y-13954222D01*
X4462801Y-13954222D02*
X4462801Y-14058984D01*
X4462801Y-13954222D02*
X4472325Y-13935174D01*
X4472325Y-13935174D02*
X4491372Y-13925650D01*
X4491372Y-13925650D02*
X4519944Y-13925650D01*
X4519944Y-13925650D02*
X4538991Y-13935174D01*
X4538991Y-13935174D02*
X4548515Y-13954222D01*
X4548515Y-13954222D02*
X4548515Y-14058984D01*
X4938991Y-13849460D02*
X4767563Y-14106603D01*
X5196134Y-13858984D02*
X5215182Y-13858984D01*
X5215182Y-13858984D02*
X5234229Y-13868508D01*
X5234229Y-13868508D02*
X5243753Y-13878031D01*
X5243753Y-13878031D02*
X5253277Y-13897079D01*
X5253277Y-13897079D02*
X5262801Y-13935174D01*
X5262801Y-13935174D02*
X5262801Y-13982793D01*
X5262801Y-13982793D02*
X5253277Y-14020888D01*
X5253277Y-14020888D02*
X5243753Y-14039936D01*
X5243753Y-14039936D02*
X5234229Y-14049460D01*
X5234229Y-14049460D02*
X5215182Y-14058984D01*
X5215182Y-14058984D02*
X5196134Y-14058984D01*
X5196134Y-14058984D02*
X5177087Y-14049460D01*
X5177087Y-14049460D02*
X5167563Y-14039936D01*
X5167563Y-14039936D02*
X5158039Y-14020888D01*
X5158039Y-14020888D02*
X5148515Y-13982793D01*
X5148515Y-13982793D02*
X5148515Y-13935174D01*
X5148515Y-13935174D02*
X5158039Y-13897079D01*
X5158039Y-13897079D02*
X5167563Y-13878031D01*
X5167563Y-13878031D02*
X5177087Y-13868508D01*
X5177087Y-13868508D02*
X5196134Y-13858984D01*
X5348515Y-14039936D02*
X5358039Y-14049460D01*
X5358039Y-14049460D02*
X5348515Y-14058984D01*
X5348515Y-14058984D02*
X5338991Y-14049460D01*
X5338991Y-14049460D02*
X5348515Y-14039936D01*
X5348515Y-14039936D02*
X5348515Y-14058984D01*
X5548515Y-14058984D02*
X5434229Y-14058984D01*
X5491372Y-14058984D02*
X5491372Y-13858984D01*
X5491372Y-13858984D02*
X5472325Y-13887555D01*
X5472325Y-13887555D02*
X5453277Y-13906603D01*
X5453277Y-13906603D02*
X5434229Y-13916127D01*
X5624706Y-13878031D02*
X5634229Y-13868508D01*
X5634229Y-13868508D02*
X5653277Y-13858984D01*
X5653277Y-13858984D02*
X5700896Y-13858984D01*
X5700896Y-13858984D02*
X5719944Y-13868508D01*
X5719944Y-13868508D02*
X5729467Y-13878031D01*
X5729467Y-13878031D02*
X5738991Y-13897079D01*
X5738991Y-13897079D02*
X5738991Y-13916127D01*
X5738991Y-13916127D02*
X5729467Y-13944698D01*
X5729467Y-13944698D02*
X5615182Y-14058984D01*
X5615182Y-14058984D02*
X5738991Y-14058984D01*
X5910420Y-13858984D02*
X5872325Y-13858984D01*
X5872325Y-13858984D02*
X5853277Y-13868508D01*
X5853277Y-13868508D02*
X5843753Y-13878031D01*
X5843753Y-13878031D02*
X5824706Y-13906603D01*
X5824706Y-13906603D02*
X5815182Y-13944698D01*
X5815182Y-13944698D02*
X5815182Y-14020888D01*
X5815182Y-14020888D02*
X5824706Y-14039936D01*
X5824706Y-14039936D02*
X5834229Y-14049460D01*
X5834229Y-14049460D02*
X5853277Y-14058984D01*
X5853277Y-14058984D02*
X5891372Y-14058984D01*
X5891372Y-14058984D02*
X5910420Y-14049460D01*
X5910420Y-14049460D02*
X5919944Y-14039936D01*
X5919944Y-14039936D02*
X5929467Y-14020888D01*
X5929467Y-14020888D02*
X5929467Y-13973269D01*
X5929467Y-13973269D02*
X5919944Y-13954222D01*
X5919944Y-13954222D02*
X5910420Y-13944698D01*
X5910420Y-13944698D02*
X5891372Y-13935174D01*
X5891372Y-13935174D02*
X5853277Y-13935174D01*
X5853277Y-13935174D02*
X5834229Y-13944698D01*
X5834229Y-13944698D02*
X5824706Y-13954222D01*
X5824706Y-13954222D02*
X5815182Y-13973269D01*
X6053277Y-13858984D02*
X6072325Y-13858984D01*
X6072325Y-13858984D02*
X6091372Y-13868508D01*
X6091372Y-13868508D02*
X6100896Y-13878031D01*
X6100896Y-13878031D02*
X6110420Y-13897079D01*
X6110420Y-13897079D02*
X6119944Y-13935174D01*
X6119944Y-13935174D02*
X6119944Y-13982793D01*
X6119944Y-13982793D02*
X6110420Y-14020888D01*
X6110420Y-14020888D02*
X6100896Y-14039936D01*
X6100896Y-14039936D02*
X6091372Y-14049460D01*
X6091372Y-14049460D02*
X6072325Y-14058984D01*
X6072325Y-14058984D02*
X6053277Y-14058984D01*
X6053277Y-14058984D02*
X6034229Y-14049460D01*
X6034229Y-14049460D02*
X6024706Y-14039936D01*
X6024706Y-14039936D02*
X6015182Y-14020888D01*
X6015182Y-14020888D02*
X6005658Y-13982793D01*
X6005658Y-13982793D02*
X6005658Y-13935174D01*
X6005658Y-13935174D02*
X6015182Y-13897079D01*
X6015182Y-13897079D02*
X6024706Y-13878031D01*
X6024706Y-13878031D02*
X6034229Y-13868508D01*
X6034229Y-13868508D02*
X6053277Y-13858984D01*
X6196134Y-13858984D02*
X6196134Y-13897079D01*
X6272325Y-13858984D02*
X6272325Y-13897079D01*
X6567563Y-14135174D02*
X6558039Y-14125650D01*
X6558039Y-14125650D02*
X6538991Y-14097079D01*
X6538991Y-14097079D02*
X6529468Y-14078031D01*
X6529468Y-14078031D02*
X6519944Y-14049460D01*
X6519944Y-14049460D02*
X6510420Y-14001841D01*
X6510420Y-14001841D02*
X6510420Y-13963746D01*
X6510420Y-13963746D02*
X6519944Y-13916127D01*
X6519944Y-13916127D02*
X6529468Y-13887555D01*
X6529468Y-13887555D02*
X6538991Y-13868508D01*
X6538991Y-13868508D02*
X6558039Y-13839936D01*
X6558039Y-13839936D02*
X6567563Y-13830412D01*
X6729468Y-13925650D02*
X6729468Y-14058984D01*
X6681848Y-13849460D02*
X6634229Y-13992317D01*
X6634229Y-13992317D02*
X6758039Y-13992317D01*
X6986610Y-14058984D02*
X6986610Y-13858984D01*
X7072325Y-14058984D02*
X7072325Y-13954222D01*
X7072325Y-13954222D02*
X7062801Y-13935174D01*
X7062801Y-13935174D02*
X7043753Y-13925650D01*
X7043753Y-13925650D02*
X7015182Y-13925650D01*
X7015182Y-13925650D02*
X6996134Y-13935174D01*
X6996134Y-13935174D02*
X6986610Y-13944698D01*
X7196134Y-14058984D02*
X7177087Y-14049460D01*
X7177087Y-14049460D02*
X7167563Y-14039936D01*
X7167563Y-14039936D02*
X7158039Y-14020888D01*
X7158039Y-14020888D02*
X7158039Y-13963746D01*
X7158039Y-13963746D02*
X7167563Y-13944698D01*
X7167563Y-13944698D02*
X7177087Y-13935174D01*
X7177087Y-13935174D02*
X7196134Y-13925650D01*
X7196134Y-13925650D02*
X7224706Y-13925650D01*
X7224706Y-13925650D02*
X7243753Y-13935174D01*
X7243753Y-13935174D02*
X7253277Y-13944698D01*
X7253277Y-13944698D02*
X7262801Y-13963746D01*
X7262801Y-13963746D02*
X7262801Y-14020888D01*
X7262801Y-14020888D02*
X7253277Y-14039936D01*
X7253277Y-14039936D02*
X7243753Y-14049460D01*
X7243753Y-14049460D02*
X7224706Y-14058984D01*
X7224706Y-14058984D02*
X7196134Y-14058984D01*
X7377087Y-14058984D02*
X7358039Y-14049460D01*
X7358039Y-14049460D02*
X7348515Y-14030412D01*
X7348515Y-14030412D02*
X7348515Y-13858984D01*
X7529468Y-14049460D02*
X7510420Y-14058984D01*
X7510420Y-14058984D02*
X7472325Y-14058984D01*
X7472325Y-14058984D02*
X7453277Y-14049460D01*
X7453277Y-14049460D02*
X7443753Y-14030412D01*
X7443753Y-14030412D02*
X7443753Y-13954222D01*
X7443753Y-13954222D02*
X7453277Y-13935174D01*
X7453277Y-13935174D02*
X7472325Y-13925650D01*
X7472325Y-13925650D02*
X7510420Y-13925650D01*
X7510420Y-13925650D02*
X7529468Y-13935174D01*
X7529468Y-13935174D02*
X7538991Y-13954222D01*
X7538991Y-13954222D02*
X7538991Y-13973269D01*
X7538991Y-13973269D02*
X7443753Y-13992317D01*
X7615182Y-14049460D02*
X7634230Y-14058984D01*
X7634230Y-14058984D02*
X7672325Y-14058984D01*
X7672325Y-14058984D02*
X7691372Y-14049460D01*
X7691372Y-14049460D02*
X7700896Y-14030412D01*
X7700896Y-14030412D02*
X7700896Y-14020888D01*
X7700896Y-14020888D02*
X7691372Y-14001841D01*
X7691372Y-14001841D02*
X7672325Y-13992317D01*
X7672325Y-13992317D02*
X7643753Y-13992317D01*
X7643753Y-13992317D02*
X7624706Y-13982793D01*
X7624706Y-13982793D02*
X7615182Y-13963746D01*
X7615182Y-13963746D02*
X7615182Y-13954222D01*
X7615182Y-13954222D02*
X7624706Y-13935174D01*
X7624706Y-13935174D02*
X7643753Y-13925650D01*
X7643753Y-13925650D02*
X7672325Y-13925650D01*
X7672325Y-13925650D02*
X7691372Y-13935174D01*
X7767563Y-14135174D02*
X7777087Y-14125650D01*
X7777087Y-14125650D02*
X7796134Y-14097079D01*
X7796134Y-14097079D02*
X7805658Y-14078031D01*
X7805658Y-14078031D02*
X7815182Y-14049460D01*
X7815182Y-14049460D02*
X7824706Y-14001841D01*
X7824706Y-14001841D02*
X7824706Y-13963746D01*
X7824706Y-13963746D02*
X7815182Y-13916127D01*
X7815182Y-13916127D02*
X7805658Y-13887555D01*
X7805658Y-13887555D02*
X7796134Y-13868508D01*
X7796134Y-13868508D02*
X7777087Y-13839936D01*
X7777087Y-13839936D02*
X7767563Y-13830412D01*
X8129468Y-14135174D02*
X8119944Y-14125650D01*
X8119944Y-14125650D02*
X8100896Y-14097079D01*
X8100896Y-14097079D02*
X8091372Y-14078031D01*
X8091372Y-14078031D02*
X8081849Y-14049460D01*
X8081849Y-14049460D02*
X8072325Y-14001841D01*
X8072325Y-14001841D02*
X8072325Y-13963746D01*
X8072325Y-13963746D02*
X8081849Y-13916127D01*
X8081849Y-13916127D02*
X8091372Y-13887555D01*
X8091372Y-13887555D02*
X8100896Y-13868508D01*
X8100896Y-13868508D02*
X8119944Y-13839936D01*
X8119944Y-13839936D02*
X8129468Y-13830412D01*
X8205658Y-13925650D02*
X8205658Y-14058984D01*
X8205658Y-13944698D02*
X8215182Y-13935174D01*
X8215182Y-13935174D02*
X8234230Y-13925650D01*
X8234230Y-13925650D02*
X8262801Y-13925650D01*
X8262801Y-13925650D02*
X8281849Y-13935174D01*
X8281849Y-13935174D02*
X8291372Y-13954222D01*
X8291372Y-13954222D02*
X8291372Y-14058984D01*
X8415182Y-14058984D02*
X8396134Y-14049460D01*
X8396134Y-14049460D02*
X8386611Y-14039936D01*
X8386611Y-14039936D02*
X8377087Y-14020888D01*
X8377087Y-14020888D02*
X8377087Y-13963746D01*
X8377087Y-13963746D02*
X8386611Y-13944698D01*
X8386611Y-13944698D02*
X8396134Y-13935174D01*
X8396134Y-13935174D02*
X8415182Y-13925650D01*
X8415182Y-13925650D02*
X8443754Y-13925650D01*
X8443754Y-13925650D02*
X8462801Y-13935174D01*
X8462801Y-13935174D02*
X8472325Y-13944698D01*
X8472325Y-13944698D02*
X8481849Y-13963746D01*
X8481849Y-13963746D02*
X8481849Y-14020888D01*
X8481849Y-14020888D02*
X8472325Y-14039936D01*
X8472325Y-14039936D02*
X8462801Y-14049460D01*
X8462801Y-14049460D02*
X8443754Y-14058984D01*
X8443754Y-14058984D02*
X8415182Y-14058984D01*
X8538992Y-13925650D02*
X8615182Y-13925650D01*
X8567563Y-13858984D02*
X8567563Y-14030412D01*
X8567563Y-14030412D02*
X8577087Y-14049460D01*
X8577087Y-14049460D02*
X8596134Y-14058984D01*
X8596134Y-14058984D02*
X8615182Y-14058984D01*
X8834230Y-13925650D02*
X8834230Y-14125650D01*
X8834230Y-13935174D02*
X8853277Y-13925650D01*
X8853277Y-13925650D02*
X8891373Y-13925650D01*
X8891373Y-13925650D02*
X8910420Y-13935174D01*
X8910420Y-13935174D02*
X8919944Y-13944698D01*
X8919944Y-13944698D02*
X8929468Y-13963746D01*
X8929468Y-13963746D02*
X8929468Y-14020888D01*
X8929468Y-14020888D02*
X8919944Y-14039936D01*
X8919944Y-14039936D02*
X8910420Y-14049460D01*
X8910420Y-14049460D02*
X8891373Y-14058984D01*
X8891373Y-14058984D02*
X8853277Y-14058984D01*
X8853277Y-14058984D02*
X8834230Y-14049460D01*
X9043754Y-14058984D02*
X9024706Y-14049460D01*
X9024706Y-14049460D02*
X9015182Y-14030412D01*
X9015182Y-14030412D02*
X9015182Y-13858984D01*
X9205658Y-14058984D02*
X9205658Y-13954222D01*
X9205658Y-13954222D02*
X9196135Y-13935174D01*
X9196135Y-13935174D02*
X9177087Y-13925650D01*
X9177087Y-13925650D02*
X9138992Y-13925650D01*
X9138992Y-13925650D02*
X9119944Y-13935174D01*
X9205658Y-14049460D02*
X9186611Y-14058984D01*
X9186611Y-14058984D02*
X9138992Y-14058984D01*
X9138992Y-14058984D02*
X9119944Y-14049460D01*
X9119944Y-14049460D02*
X9110420Y-14030412D01*
X9110420Y-14030412D02*
X9110420Y-14011365D01*
X9110420Y-14011365D02*
X9119944Y-13992317D01*
X9119944Y-13992317D02*
X9138992Y-13982793D01*
X9138992Y-13982793D02*
X9186611Y-13982793D01*
X9186611Y-13982793D02*
X9205658Y-13973269D01*
X9272325Y-13925650D02*
X9348515Y-13925650D01*
X9300896Y-13858984D02*
X9300896Y-14030412D01*
X9300896Y-14030412D02*
X9310420Y-14049460D01*
X9310420Y-14049460D02*
X9329468Y-14058984D01*
X9329468Y-14058984D02*
X9348515Y-14058984D01*
X9491373Y-14049460D02*
X9472325Y-14058984D01*
X9472325Y-14058984D02*
X9434230Y-14058984D01*
X9434230Y-14058984D02*
X9415182Y-14049460D01*
X9415182Y-14049460D02*
X9405658Y-14030412D01*
X9405658Y-14030412D02*
X9405658Y-13954222D01*
X9405658Y-13954222D02*
X9415182Y-13935174D01*
X9415182Y-13935174D02*
X9434230Y-13925650D01*
X9434230Y-13925650D02*
X9472325Y-13925650D01*
X9472325Y-13925650D02*
X9491373Y-13935174D01*
X9491373Y-13935174D02*
X9500896Y-13954222D01*
X9500896Y-13954222D02*
X9500896Y-13973269D01*
X9500896Y-13973269D02*
X9405658Y-13992317D01*
X9672325Y-14058984D02*
X9672325Y-13858984D01*
X9672325Y-14049460D02*
X9653277Y-14058984D01*
X9653277Y-14058984D02*
X9615182Y-14058984D01*
X9615182Y-14058984D02*
X9596135Y-14049460D01*
X9596135Y-14049460D02*
X9586611Y-14039936D01*
X9586611Y-14039936D02*
X9577087Y-14020888D01*
X9577087Y-14020888D02*
X9577087Y-13963746D01*
X9577087Y-13963746D02*
X9586611Y-13944698D01*
X9586611Y-13944698D02*
X9596135Y-13935174D01*
X9596135Y-13935174D02*
X9615182Y-13925650D01*
X9615182Y-13925650D02*
X9653277Y-13925650D01*
X9653277Y-13925650D02*
X9672325Y-13935174D01*
X9748516Y-14135174D02*
X9758039Y-14125650D01*
X9758039Y-14125650D02*
X9777087Y-14097079D01*
X9777087Y-14097079D02*
X9786611Y-14078031D01*
X9786611Y-14078031D02*
X9796135Y-14049460D01*
X9796135Y-14049460D02*
X9805658Y-14001841D01*
X9805658Y-14001841D02*
X9805658Y-13963746D01*
X9805658Y-13963746D02*
X9796135Y-13916127D01*
X9796135Y-13916127D02*
X9786611Y-13887555D01*
X9786611Y-13887555D02*
X9777087Y-13868508D01*
X9777087Y-13868508D02*
X9758039Y-13839936D01*
X9758039Y-13839936D02*
X9748516Y-13830412D01*
M02*
