M48
; DRILL file {KiCad 7.0.11+dfsg-1build4} date Sun 16 Nov 2025 07:22:09 PM CST
; FORMAT={-:-/ absolute / inch / decimal}
; #@! TF.CreationDate,2025-11-16T19:22:09-06:00
; #@! TF.GenerationSoftware,Kicad,Pcbnew,7.0.11+dfsg-1build4
; #@! TF.FileFunction,Plated,1,2,PTH
FMAT,2
INCH
; #@! TA.AperFunction,Plated,PTH,ComponentDrill
T1C0.0315
; #@! TA.AperFunction,Plated,PTH,ComponentDrill
T2C0.0394
; #@! TA.AperFunction,Plated,PTH,ComponentDrill
T3C0.0472
; #@! TA.AperFunction,Plated,PTH,ComponentDrill
T4C0.0598
%
G90
G05
T1
X1.2244Y-4.4315
X1.2516Y-3.6295
X1.2516Y-3.8264
X1.3831Y-3.5587
X1.3831Y-3.8587
X1.385Y-4.6787
X1.3866Y-4.861
X1.3925Y-5.0157
X1.4213Y-4.4315
X1.4374Y-4.0567
X1.4374Y-4.1567
X1.4374Y-4.2567
X1.4866Y-4.861
X1.5079Y-4.4339
X1.51Y-3.55
X1.51Y-3.85
X1.5866Y-4.861
X1.6228Y-3.6075
X1.6295Y-4.2862
X1.6433Y-3.7378
X1.6433Y-4.0378
X1.685Y-4.6787
X1.6925Y-5.0157
X1.7134Y-4.161
X1.7433Y-3.7378
X1.7433Y-4.0378
X1.8079Y-4.4339
X1.8197Y-3.6075
X1.8433Y-3.7378
X1.8433Y-4.0378
X1.8543Y-4.7787
X1.8543Y-4.8787
X1.8543Y-4.9787
X1.8957Y-4.4366
X1.9102Y-4.161
X1.9287Y-3.6055
X1.9295Y-4.2862
X1.9433Y-3.7378
X1.9433Y-4.0378
X2.0272Y-4.7213
X2.0272Y-5.0213
X2.0787Y-3.8622
X2.0787Y-4.1622
X2.1693Y-4.8205
X2.1693Y-5.0173
X2.1957Y-4.4366
X2.2016Y-3.7996
X2.2016Y-3.9276
X2.2287Y-3.6055
X2.3193Y-4.3433
X2.3193Y-4.4433
X2.3193Y-4.5433
X2.3193Y-4.6433
X2.3193Y-4.7433
X2.3193Y-4.8433
X2.3193Y-4.9433
X2.3984Y-3.7996
X2.5016Y-3.9276
X2.6193Y-4.3433
X2.6193Y-4.4433
X2.6193Y-4.5433
X2.6193Y-4.6433
X2.6193Y-4.7433
X2.6193Y-4.8433
X2.6193Y-4.9433
X2.7531Y-4.8193
X2.7531Y-5.0161
T2
X1.2496Y-3.9896
X1.2496Y-4.0896
X1.2634Y-4.902
X1.2634Y-5.002
X1.6929Y-1.3386
X1.6929Y-1.6886
X1.6929Y-1.9291
X1.6929Y-2.2791
X1.6929Y-2.5197
X1.6929Y-2.8697
X1.8398Y-4.574
X1.9398Y-4.574
X2.2835Y-1.3211
X2.2835Y-1.6711
X2.2835Y-1.9116
X2.2835Y-2.2616
X2.2835Y-2.5197
X2.2835Y-2.8697
X2.4185Y-4.1831
X2.5185Y-4.1831
X2.6504Y-3.8181
X2.6504Y-3.9181
X2.874Y-1.3211
X2.874Y-1.6711
X2.874Y-1.9291
X2.874Y-2.2791
X2.874Y-2.5197
X2.874Y-2.8697
X3.0835Y-3.7929
X3.0835Y-3.9929
X3.0835Y-4.0929
X3.0835Y-4.2929
X3.1835Y-3.7929
X3.1835Y-3.9929
X3.1835Y-4.0929
X3.1835Y-4.2929
X3.2835Y-3.5929
X3.2835Y-3.7929
X3.2835Y-3.9929
X3.2835Y-4.0929
X3.2835Y-4.2929
X3.3835Y-3.5929
X3.3835Y-3.7929
X3.3835Y-3.9929
X3.3835Y-4.0929
X3.3835Y-4.2929
X3.4781Y-1.3346
X3.4781Y-1.6846
X3.4781Y-1.9184
X3.4781Y-2.2684
X3.4781Y-2.5022
X3.4781Y-2.8522
X3.4835Y-3.5929
X3.4835Y-3.7929
X3.4835Y-3.9929
X3.4835Y-4.0929
X3.4835Y-4.2929
X3.5835Y-3.5929
X3.5835Y-3.7929
X3.5835Y-3.9929
X3.5835Y-4.0929
X3.5835Y-4.2929
X3.6835Y-3.7929
X3.6835Y-3.9929
X3.6835Y-4.0929
X3.6835Y-4.2929
X3.7835Y-3.7929
X3.7835Y-3.9929
X3.7835Y-4.0929
X3.7835Y-4.2929
X3.8835Y-3.7929
X3.8835Y-3.9929
X3.8835Y-4.0929
X3.8835Y-4.2929
X3.9835Y-3.7929
X3.9835Y-3.9929
X3.9835Y-4.0929
X3.9835Y-4.2929
X4.0619Y-1.3346
X4.0619Y-1.6846
X4.0619Y-1.9184
X4.0619Y-2.2684
X4.0619Y-2.5022
X4.0619Y-2.8522
X4.0835Y-3.7929
X4.0835Y-3.9929
X4.0835Y-4.0929
X4.0835Y-4.2929
X4.1835Y-3.7929
X4.1835Y-3.9929
X4.1835Y-4.0929
X4.1835Y-4.2929
X4.2835Y-3.7929
X4.2835Y-3.9929
X4.2835Y-4.0929
X4.2835Y-4.2929
X4.3835Y-3.7929
X4.3835Y-3.9929
X4.3835Y-4.0929
X4.3835Y-4.2929
X4.4835Y-3.7929
X4.4835Y-3.9929
X4.4835Y-4.0929
X4.4835Y-4.2929
X4.5835Y-3.7929
X4.5835Y-3.9929
X4.5835Y-4.0929
X4.5835Y-4.2929
X4.6457Y-1.3346
X4.6457Y-1.6846
X4.6457Y-1.9184
X4.6457Y-2.2684
X4.6457Y-2.5022
X4.6457Y-2.8522
X4.6835Y-3.7929
X4.6835Y-3.9929
X4.6835Y-4.0929
X4.6835Y-4.2929
X4.7835Y-3.7929
X4.7835Y-3.9929
X4.7835Y-4.0929
X4.7835Y-4.2929
X4.8835Y-3.7929
X4.8835Y-3.9929
X4.8835Y-4.0929
X4.8835Y-4.2929
X4.9835Y-3.7929
X4.9835Y-3.9929
X4.9835Y-4.0929
X4.9835Y-4.2929
T3
X1.8016Y-3.1496
X2.4016Y-3.1496
X3.9276Y-3.1299
X4.5276Y-3.1299
T4
X1.378Y-3.189
X1.578Y-3.189
X4.7638Y-3.1693
X4.9638Y-3.1693
M30
