G04 #@! TF.FileFunction,Soldermask,Bot*
%FSLAX46Y46*%
G04 Gerber Fmt 4.6, Leading zero omitted, Abs format (unit mm)*
G04 Created by KiCad (PCBNEW 4.0.7) date 09/24/21 20:06:38*
%MOMM*%
%LPD*%
G01*
G04 APERTURE LIST*
%ADD10C,0.100000*%
%ADD11C,2.000000*%
%ADD12O,2.000000X2.000000*%
%ADD13R,2.200000X2.200000*%
%ADD14C,2.200000*%
%ADD15R,2.000000X2.000000*%
%ADD16R,2.100000X2.100000*%
%ADD17O,2.100000X2.100000*%
%ADD18C,2.400000*%
%ADD19C,3.448000*%
%ADD20C,1.920000*%
%ADD21R,1.920000X1.920000*%
G04 APERTURE END LIST*
D10*
D11*
X45720000Y-105410000D03*
D12*
X38100000Y-105410000D03*
D11*
X45570000Y-71550000D03*
X45570000Y-69050000D03*
D13*
X29210000Y-53340000D03*
D14*
X31750000Y-53340000D03*
D13*
X29210000Y-62230000D03*
D14*
X31750000Y-62230000D03*
D13*
X29210000Y-71120000D03*
D14*
X31750000Y-71120000D03*
D13*
X29210000Y-80010000D03*
D14*
X31750000Y-80010000D03*
D13*
X29210000Y-88900000D03*
D14*
X31750000Y-88900000D03*
D13*
X29210000Y-97790000D03*
D14*
X31750000Y-97790000D03*
D13*
X29210000Y-106680000D03*
D14*
X31750000Y-106680000D03*
D13*
X29210000Y-115570000D03*
D14*
X31750000Y-115570000D03*
D15*
X112776000Y-82296000D03*
D12*
X112776000Y-89916000D03*
D15*
X112776000Y-96774000D03*
D12*
X112776000Y-104394000D03*
D15*
X112776000Y-111506000D03*
D12*
X112776000Y-119126000D03*
D15*
X113030000Y-68580000D03*
D12*
X113030000Y-76200000D03*
D16*
X69850000Y-43815000D03*
D17*
X72390000Y-43815000D03*
X74930000Y-43815000D03*
X77470000Y-43815000D03*
D16*
X64770000Y-54610000D03*
D17*
X64770000Y-52070000D03*
X67310000Y-54610000D03*
X67310000Y-52070000D03*
X69850000Y-54610000D03*
X69850000Y-52070000D03*
X72390000Y-54610000D03*
X72390000Y-52070000D03*
X74930000Y-54610000D03*
X74930000Y-52070000D03*
X77470000Y-54610000D03*
X77470000Y-52070000D03*
X80010000Y-54610000D03*
X80010000Y-52070000D03*
X82550000Y-54610000D03*
X82550000Y-52070000D03*
X85090000Y-54610000D03*
X85090000Y-52070000D03*
X87630000Y-54610000D03*
X87630000Y-52070000D03*
X90170000Y-54610000D03*
X90170000Y-52070000D03*
X92710000Y-54610000D03*
X92710000Y-52070000D03*
X95250000Y-54610000D03*
X95250000Y-52070000D03*
X97790000Y-54610000D03*
X97790000Y-52070000D03*
X100330000Y-54610000D03*
X100330000Y-52070000D03*
X102870000Y-54610000D03*
X102870000Y-52070000D03*
X105410000Y-54610000D03*
X105410000Y-52070000D03*
X107950000Y-54610000D03*
X107950000Y-52070000D03*
X110490000Y-54610000D03*
X110490000Y-52070000D03*
X113030000Y-54610000D03*
X113030000Y-52070000D03*
D11*
X45720000Y-97790000D03*
D12*
X38100000Y-97790000D03*
D11*
X45720000Y-101600000D03*
D12*
X38100000Y-101600000D03*
D11*
X45720000Y-109220000D03*
D12*
X38100000Y-109220000D03*
D11*
X45720000Y-113030000D03*
D12*
X38100000Y-113030000D03*
D11*
X45720000Y-116840000D03*
D12*
X38100000Y-116840000D03*
D11*
X45720000Y-120650000D03*
D12*
X38100000Y-120650000D03*
D11*
X45720000Y-124460000D03*
D12*
X38100000Y-124460000D03*
D11*
X50800000Y-63500000D03*
D12*
X58420000Y-63500000D03*
D11*
X67310000Y-63500000D03*
D12*
X74930000Y-63500000D03*
D11*
X83820000Y-63500000D03*
D12*
X91440000Y-63500000D03*
D11*
X100330000Y-63500000D03*
D12*
X107950000Y-63500000D03*
D18*
X57150000Y-89590000D03*
X57150000Y-85090000D03*
X50650000Y-89590000D03*
X50650000Y-85090000D03*
X57150000Y-103560000D03*
X57150000Y-99060000D03*
X50650000Y-103560000D03*
X50650000Y-99060000D03*
X57150000Y-118800000D03*
X57150000Y-114300000D03*
X50650000Y-118800000D03*
X50650000Y-114300000D03*
X57150000Y-74350000D03*
X57150000Y-69850000D03*
X50650000Y-74350000D03*
X50650000Y-69850000D03*
X73660000Y-89590000D03*
X73660000Y-85090000D03*
X67160000Y-89590000D03*
X67160000Y-85090000D03*
X73660000Y-103560000D03*
X73660000Y-99060000D03*
X67160000Y-103560000D03*
X67160000Y-99060000D03*
X73660000Y-118800000D03*
X73660000Y-114300000D03*
X67160000Y-118800000D03*
X67160000Y-114300000D03*
X73660000Y-74350000D03*
X73660000Y-69850000D03*
X67160000Y-74350000D03*
X67160000Y-69850000D03*
X90170000Y-89590000D03*
X90170000Y-85090000D03*
X83670000Y-89590000D03*
X83670000Y-85090000D03*
X90170000Y-103560000D03*
X90170000Y-99060000D03*
X83670000Y-103560000D03*
X83670000Y-99060000D03*
X90170000Y-118800000D03*
X90170000Y-114300000D03*
X83670000Y-118800000D03*
X83670000Y-114300000D03*
X90170000Y-74350000D03*
X90170000Y-69850000D03*
X83670000Y-74350000D03*
X83670000Y-69850000D03*
X106680000Y-89590000D03*
X106680000Y-85090000D03*
X100180000Y-89590000D03*
X100180000Y-85090000D03*
X106680000Y-103560000D03*
X106680000Y-99060000D03*
X100180000Y-103560000D03*
X100180000Y-99060000D03*
X106680000Y-118800000D03*
X106680000Y-114300000D03*
X100180000Y-118800000D03*
X100180000Y-114300000D03*
X106680000Y-74350000D03*
X106680000Y-69850000D03*
X100180000Y-74350000D03*
X100180000Y-69850000D03*
D15*
X38100000Y-74930000D03*
D12*
X45720000Y-92710000D03*
X38100000Y-77470000D03*
X45720000Y-90170000D03*
X38100000Y-80010000D03*
X45720000Y-87630000D03*
X38100000Y-82550000D03*
X45720000Y-85090000D03*
X38100000Y-85090000D03*
X45720000Y-82550000D03*
X38100000Y-87630000D03*
X45720000Y-80010000D03*
X38100000Y-90170000D03*
X45720000Y-77470000D03*
X38100000Y-92710000D03*
X45720000Y-74930000D03*
D19*
X32000000Y-45000000D03*
X113000000Y-45000000D03*
X113000000Y-124000000D03*
X32000000Y-124000000D03*
D16*
X39370000Y-44450000D03*
D17*
X41910000Y-44450000D03*
X44450000Y-44450000D03*
X46990000Y-44450000D03*
D20*
X39370000Y-55880000D03*
X39370000Y-53340000D03*
D21*
X39370000Y-58420000D03*
D20*
X45720000Y-55880000D03*
X45720000Y-53340000D03*
D21*
X45720000Y-58420000D03*
D11*
X38100000Y-69850000D03*
D12*
X38100000Y-62230000D03*
D11*
X41910000Y-69850000D03*
D12*
X41910000Y-62230000D03*
D11*
X57150000Y-49530000D03*
D12*
X49530000Y-49530000D03*
D11*
X57150000Y-53340000D03*
D12*
X49530000Y-53340000D03*
M02*
