G04 #@! TF.FileFunction,Copper,L1,Top,Signal*
%FSLAX46Y46*%
G04 Gerber Fmt 4.6, Leading zero omitted, Abs format (unit mm)*
G04 Created by KiCad (PCBNEW 4.0.7) date 09/24/21 20:06:38*
%MOMM*%
%LPD*%
G01*
G04 APERTURE LIST*
%ADD10C,0.100000*%
%ADD11C,1.600000*%
%ADD12O,1.600000X1.600000*%
%ADD13R,1.800000X1.800000*%
%ADD14C,1.800000*%
%ADD15R,1.600000X1.600000*%
%ADD16R,1.700000X1.700000*%
%ADD17O,1.700000X1.700000*%
%ADD18C,2.000000*%
%ADD19C,1.520000*%
%ADD20R,1.520000X1.520000*%
%ADD21C,0.350000*%
%ADD22C,0.500000*%
G04 APERTURE END LIST*
D10*
D11*
X45720000Y-105410000D03*
D12*
X38100000Y-105410000D03*
D11*
X45570000Y-71550000D03*
X45570000Y-69050000D03*
D13*
X29210000Y-53340000D03*
D14*
X31750000Y-53340000D03*
D13*
X29210000Y-62230000D03*
D14*
X31750000Y-62230000D03*
D13*
X29210000Y-71120000D03*
D14*
X31750000Y-71120000D03*
D13*
X29210000Y-80010000D03*
D14*
X31750000Y-80010000D03*
D13*
X29210000Y-88900000D03*
D14*
X31750000Y-88900000D03*
D13*
X29210000Y-97790000D03*
D14*
X31750000Y-97790000D03*
D13*
X29210000Y-106680000D03*
D14*
X31750000Y-106680000D03*
D13*
X29210000Y-115570000D03*
D14*
X31750000Y-115570000D03*
D15*
X112776000Y-82296000D03*
D12*
X112776000Y-89916000D03*
D15*
X112776000Y-96774000D03*
D12*
X112776000Y-104394000D03*
D15*
X112776000Y-111506000D03*
D12*
X112776000Y-119126000D03*
D15*
X113030000Y-68580000D03*
D12*
X113030000Y-76200000D03*
D16*
X69850000Y-43815000D03*
D17*
X72390000Y-43815000D03*
X74930000Y-43815000D03*
X77470000Y-43815000D03*
D16*
X64770000Y-54610000D03*
D17*
X64770000Y-52070000D03*
X67310000Y-54610000D03*
X67310000Y-52070000D03*
X69850000Y-54610000D03*
X69850000Y-52070000D03*
X72390000Y-54610000D03*
X72390000Y-52070000D03*
X74930000Y-54610000D03*
X74930000Y-52070000D03*
X77470000Y-54610000D03*
X77470000Y-52070000D03*
X80010000Y-54610000D03*
X80010000Y-52070000D03*
X82550000Y-54610000D03*
X82550000Y-52070000D03*
X85090000Y-54610000D03*
X85090000Y-52070000D03*
X87630000Y-54610000D03*
X87630000Y-52070000D03*
X90170000Y-54610000D03*
X90170000Y-52070000D03*
X92710000Y-54610000D03*
X92710000Y-52070000D03*
X95250000Y-54610000D03*
X95250000Y-52070000D03*
X97790000Y-54610000D03*
X97790000Y-52070000D03*
X100330000Y-54610000D03*
X100330000Y-52070000D03*
X102870000Y-54610000D03*
X102870000Y-52070000D03*
X105410000Y-54610000D03*
X105410000Y-52070000D03*
X107950000Y-54610000D03*
X107950000Y-52070000D03*
X110490000Y-54610000D03*
X110490000Y-52070000D03*
X113030000Y-54610000D03*
X113030000Y-52070000D03*
D11*
X45720000Y-97790000D03*
D12*
X38100000Y-97790000D03*
D11*
X45720000Y-101600000D03*
D12*
X38100000Y-101600000D03*
D11*
X45720000Y-109220000D03*
D12*
X38100000Y-109220000D03*
D11*
X45720000Y-113030000D03*
D12*
X38100000Y-113030000D03*
D11*
X45720000Y-116840000D03*
D12*
X38100000Y-116840000D03*
D11*
X45720000Y-120650000D03*
D12*
X38100000Y-120650000D03*
D11*
X45720000Y-124460000D03*
D12*
X38100000Y-124460000D03*
D11*
X50800000Y-63500000D03*
D12*
X58420000Y-63500000D03*
D11*
X67310000Y-63500000D03*
D12*
X74930000Y-63500000D03*
D11*
X83820000Y-63500000D03*
D12*
X91440000Y-63500000D03*
D11*
X100330000Y-63500000D03*
D12*
X107950000Y-63500000D03*
D18*
X57150000Y-89590000D03*
X57150000Y-85090000D03*
X50650000Y-89590000D03*
X50650000Y-85090000D03*
X57150000Y-103560000D03*
X57150000Y-99060000D03*
X50650000Y-103560000D03*
X50650000Y-99060000D03*
X57150000Y-118800000D03*
X57150000Y-114300000D03*
X50650000Y-118800000D03*
X50650000Y-114300000D03*
X57150000Y-74350000D03*
X57150000Y-69850000D03*
X50650000Y-74350000D03*
X50650000Y-69850000D03*
X73660000Y-89590000D03*
X73660000Y-85090000D03*
X67160000Y-89590000D03*
X67160000Y-85090000D03*
X73660000Y-103560000D03*
X73660000Y-99060000D03*
X67160000Y-103560000D03*
X67160000Y-99060000D03*
X73660000Y-118800000D03*
X73660000Y-114300000D03*
X67160000Y-118800000D03*
X67160000Y-114300000D03*
X73660000Y-74350000D03*
X73660000Y-69850000D03*
X67160000Y-74350000D03*
X67160000Y-69850000D03*
X90170000Y-89590000D03*
X90170000Y-85090000D03*
X83670000Y-89590000D03*
X83670000Y-85090000D03*
X90170000Y-103560000D03*
X90170000Y-99060000D03*
X83670000Y-103560000D03*
X83670000Y-99060000D03*
X90170000Y-118800000D03*
X90170000Y-114300000D03*
X83670000Y-118800000D03*
X83670000Y-114300000D03*
X90170000Y-74350000D03*
X90170000Y-69850000D03*
X83670000Y-74350000D03*
X83670000Y-69850000D03*
X106680000Y-89590000D03*
X106680000Y-85090000D03*
X100180000Y-89590000D03*
X100180000Y-85090000D03*
X106680000Y-103560000D03*
X106680000Y-99060000D03*
X100180000Y-103560000D03*
X100180000Y-99060000D03*
X106680000Y-118800000D03*
X106680000Y-114300000D03*
X100180000Y-118800000D03*
X100180000Y-114300000D03*
X106680000Y-74350000D03*
X106680000Y-69850000D03*
X100180000Y-74350000D03*
X100180000Y-69850000D03*
D15*
X38100000Y-74930000D03*
D12*
X45720000Y-92710000D03*
X38100000Y-77470000D03*
X45720000Y-90170000D03*
X38100000Y-80010000D03*
X45720000Y-87630000D03*
X38100000Y-82550000D03*
X45720000Y-85090000D03*
X38100000Y-85090000D03*
X45720000Y-82550000D03*
X38100000Y-87630000D03*
X45720000Y-80010000D03*
X38100000Y-90170000D03*
X45720000Y-77470000D03*
X38100000Y-92710000D03*
X45720000Y-74930000D03*
D16*
X39370000Y-44450000D03*
D17*
X41910000Y-44450000D03*
X44450000Y-44450000D03*
X46990000Y-44450000D03*
D19*
X39370000Y-55880000D03*
X39370000Y-53340000D03*
D20*
X39370000Y-58420000D03*
D19*
X45720000Y-55880000D03*
X45720000Y-53340000D03*
D20*
X45720000Y-58420000D03*
D11*
X38100000Y-69850000D03*
D12*
X38100000Y-62230000D03*
D11*
X41910000Y-69850000D03*
D12*
X41910000Y-62230000D03*
D11*
X57150000Y-49530000D03*
D12*
X49530000Y-49530000D03*
D11*
X57150000Y-53340000D03*
D12*
X49530000Y-53340000D03*
D21*
X64770000Y-54610000D02*
X64660000Y-54610000D01*
X38100000Y-92710000D02*
X39910000Y-92710000D01*
X39910000Y-92710000D02*
X43620000Y-89000000D01*
X43620000Y-89000000D02*
X43620000Y-71000000D01*
X43620000Y-71000000D02*
X45570000Y-69050000D01*
X29210000Y-62230000D02*
X29210000Y-66400000D01*
X34770000Y-74930000D02*
X38100000Y-74930000D01*
X34170000Y-74330000D02*
X34770000Y-74930000D01*
X34170000Y-71360000D02*
X34170000Y-74330000D01*
X29210000Y-66400000D02*
X34170000Y-71360000D01*
X29210000Y-71120000D02*
X29210000Y-74360000D01*
X32320000Y-77470000D02*
X38100000Y-77470000D01*
X29210000Y-74360000D02*
X32320000Y-77470000D01*
X29210000Y-80010000D02*
X29210000Y-80970000D01*
X35940000Y-82170000D02*
X38100000Y-80010000D01*
X30410000Y-82170000D02*
X35940000Y-82170000D01*
X29210000Y-80970000D02*
X30410000Y-82170000D01*
X29210000Y-88900000D02*
X29210000Y-88440000D01*
X29210000Y-88440000D02*
X30740000Y-86910000D01*
X30740000Y-86910000D02*
X34930000Y-86910000D01*
X34930000Y-86910000D02*
X36430000Y-85410000D01*
X36430000Y-85410000D02*
X36430000Y-84220000D01*
X36430000Y-84220000D02*
X38100000Y-82550000D01*
X29210000Y-97790000D02*
X29210000Y-96550000D01*
X36360000Y-86830000D02*
X38100000Y-85090000D01*
X36360000Y-88520000D02*
X36360000Y-86830000D01*
X35280000Y-89600000D02*
X36360000Y-88520000D01*
X35280000Y-93999998D02*
X35280000Y-89600000D01*
X34179998Y-95100000D02*
X35280000Y-93999998D01*
X30660000Y-95100000D02*
X34179998Y-95100000D01*
X29210000Y-96550000D02*
X30660000Y-95100000D01*
X29210000Y-106680000D02*
X29210000Y-105350000D01*
X35870000Y-89860000D02*
X38100000Y-87630000D01*
X35870000Y-102130000D02*
X35870000Y-89860000D01*
X33640000Y-104360000D02*
X35870000Y-102130000D01*
X30200000Y-104360000D02*
X33640000Y-104360000D01*
X29210000Y-105350000D02*
X30200000Y-104360000D01*
X29210000Y-115570000D02*
X29210000Y-114990000D01*
X29210000Y-114990000D02*
X30600000Y-113600000D01*
X30600000Y-113600000D02*
X34850000Y-113600000D01*
X34850000Y-113600000D02*
X36630000Y-111820000D01*
X36630000Y-111820000D02*
X36630000Y-91640000D01*
X36630000Y-91640000D02*
X38100000Y-90170000D01*
D22*
X106680000Y-85090000D02*
X107950000Y-85090000D01*
X107950000Y-85090000D02*
X112776000Y-89916000D01*
X100180000Y-85090000D02*
X106680000Y-85090000D01*
X90170000Y-85090000D02*
X100180000Y-85090000D01*
X83670000Y-85090000D02*
X90170000Y-85090000D01*
X73660000Y-85090000D02*
X83670000Y-85090000D01*
X67160000Y-85090000D02*
X73660000Y-85090000D01*
X57150000Y-85090000D02*
X67160000Y-85090000D01*
X50650000Y-85090000D02*
X57150000Y-85090000D01*
X106680000Y-99060000D02*
X107442000Y-99060000D01*
X107442000Y-99060000D02*
X112776000Y-104394000D01*
X100180000Y-99060000D02*
X106680000Y-99060000D01*
X90170000Y-99060000D02*
X100180000Y-99060000D01*
X83670000Y-99060000D02*
X90170000Y-99060000D01*
X73660000Y-99060000D02*
X83670000Y-99060000D01*
X67160000Y-99060000D02*
X73660000Y-99060000D01*
X57150000Y-99060000D02*
X67160000Y-99060000D01*
X50650000Y-99060000D02*
X57150000Y-99060000D01*
X112776000Y-111506000D02*
X113284000Y-111506000D01*
X106680000Y-114300000D02*
X107950000Y-114300000D01*
X107950000Y-114300000D02*
X112776000Y-119126000D01*
X100180000Y-114300000D02*
X106680000Y-114300000D01*
X90170000Y-114300000D02*
X100180000Y-114300000D01*
X83670000Y-114300000D02*
X90170000Y-114300000D01*
X73660000Y-114300000D02*
X83670000Y-114300000D01*
X67160000Y-114300000D02*
X73660000Y-114300000D01*
X57150000Y-114300000D02*
X67160000Y-114300000D01*
X50650000Y-114300000D02*
X57150000Y-114300000D01*
X106680000Y-69850000D02*
X107950000Y-69850000D01*
X113030000Y-74930000D02*
X113030000Y-76200000D01*
X107950000Y-69850000D02*
X113030000Y-74930000D01*
X57150000Y-69850000D02*
X50650000Y-69850000D01*
X67160000Y-69850000D02*
X57150000Y-69850000D01*
X73660000Y-69850000D02*
X67160000Y-69850000D01*
X83670000Y-69850000D02*
X73660000Y-69850000D01*
X90170000Y-69850000D02*
X83670000Y-69850000D01*
X100180000Y-69850000D02*
X90170000Y-69850000D01*
X106680000Y-69850000D02*
X100180000Y-69850000D01*
D21*
X77470000Y-54610000D02*
X77470000Y-55830000D01*
X47449998Y-78280002D02*
X45720000Y-80010000D01*
X47449998Y-61910002D02*
X47449998Y-78280002D01*
X51050000Y-58310000D02*
X47449998Y-61910002D01*
X74990000Y-58310000D02*
X51050000Y-58310000D01*
X77470000Y-55830000D02*
X74990000Y-58310000D01*
D22*
X77470000Y-54610000D02*
X77470000Y-55306998D01*
D21*
X80010000Y-54610000D02*
X80010000Y-58229998D01*
X48000000Y-82820000D02*
X45720000Y-85090000D01*
X48000000Y-62460000D02*
X48000000Y-82820000D01*
X51430000Y-59020000D02*
X48000000Y-62460000D01*
X79219998Y-59020000D02*
X51430000Y-59020000D01*
X80010000Y-58229998D02*
X79219998Y-59020000D01*
X82550000Y-54610000D02*
X82550000Y-58730000D01*
X46790000Y-87630000D02*
X45720000Y-87630000D01*
X48580000Y-85840000D02*
X46790000Y-87630000D01*
X48580000Y-62980000D02*
X48580000Y-85840000D01*
X51900000Y-59660000D02*
X48580000Y-62980000D01*
X81620000Y-59660000D02*
X51900000Y-59660000D01*
X82550000Y-58730000D02*
X81620000Y-59660000D01*
D22*
X85153500Y-61531500D02*
X85153500Y-54673500D01*
X85153500Y-54673500D02*
X85090000Y-54610000D01*
X67310000Y-63500000D02*
X67310000Y-63246000D01*
X67310000Y-63246000D02*
X69088000Y-61468000D01*
X69088000Y-61468000D02*
X68961000Y-61468000D01*
X68961000Y-61468000D02*
X68834000Y-61595000D01*
X68834000Y-61595000D02*
X68834000Y-61468000D01*
X83820000Y-63500000D02*
X83820000Y-62865000D01*
X83820000Y-62865000D02*
X85153500Y-61531500D01*
X85153500Y-61531500D02*
X85217000Y-61468000D01*
X50800000Y-63500000D02*
X50800000Y-63373000D01*
X50800000Y-63373000D02*
X52705000Y-61468000D01*
X52705000Y-61468000D02*
X68834000Y-61468000D01*
X68834000Y-61468000D02*
X85217000Y-61468000D01*
X85217000Y-61468000D02*
X98298000Y-61468000D01*
X98298000Y-61468000D02*
X100330000Y-63500000D01*
M02*
