G04 #@! TF.FileFunction,Legend,Top*
%FSLAX46Y46*%
G04 Gerber Fmt 4.6, Leading zero omitted, Abs format (unit mm)*
G04 Created by KiCad (PCBNEW 4.0.7) date 09/25/21 21:54:00*
%MOMM*%
%LPD*%
G01*
G04 APERTURE LIST*
%ADD10C,0.100000*%
%ADD11C,0.150000*%
%ADD12C,0.120000*%
G04 APERTURE END LIST*
D10*
D11*
X96277381Y-123265476D02*
X96277381Y-123741667D01*
X95277381Y-123741667D01*
X96277381Y-122932143D02*
X95277381Y-122932143D01*
X95991667Y-122598809D01*
X95277381Y-122265476D01*
X96277381Y-122265476D01*
X95277381Y-121884524D02*
X95277381Y-121265476D01*
X95658333Y-121598810D01*
X95658333Y-121455952D01*
X95705952Y-121360714D01*
X95753571Y-121313095D01*
X95848810Y-121265476D01*
X96086905Y-121265476D01*
X96182143Y-121313095D01*
X96229762Y-121360714D01*
X96277381Y-121455952D01*
X96277381Y-121741667D01*
X96229762Y-121836905D01*
X96182143Y-121884524D01*
X95705952Y-120694048D02*
X95658333Y-120789286D01*
X95610714Y-120836905D01*
X95515476Y-120884524D01*
X95467857Y-120884524D01*
X95372619Y-120836905D01*
X95325000Y-120789286D01*
X95277381Y-120694048D01*
X95277381Y-120503571D01*
X95325000Y-120408333D01*
X95372619Y-120360714D01*
X95467857Y-120313095D01*
X95515476Y-120313095D01*
X95610714Y-120360714D01*
X95658333Y-120408333D01*
X95705952Y-120503571D01*
X95705952Y-120694048D01*
X95753571Y-120789286D01*
X95801190Y-120836905D01*
X95896429Y-120884524D01*
X96086905Y-120884524D01*
X96182143Y-120836905D01*
X96229762Y-120789286D01*
X96277381Y-120694048D01*
X96277381Y-120503571D01*
X96229762Y-120408333D01*
X96182143Y-120360714D01*
X96086905Y-120313095D01*
X95896429Y-120313095D01*
X95801190Y-120360714D01*
X95753571Y-120408333D01*
X95705952Y-120503571D01*
X95277381Y-119455952D02*
X95277381Y-119646429D01*
X95325000Y-119741667D01*
X95372619Y-119789286D01*
X95515476Y-119884524D01*
X95705952Y-119932143D01*
X96086905Y-119932143D01*
X96182143Y-119884524D01*
X96229762Y-119836905D01*
X96277381Y-119741667D01*
X96277381Y-119551190D01*
X96229762Y-119455952D01*
X96182143Y-119408333D01*
X96086905Y-119360714D01*
X95848810Y-119360714D01*
X95753571Y-119408333D01*
X95705952Y-119455952D01*
X95658333Y-119551190D01*
X95658333Y-119741667D01*
X95705952Y-119836905D01*
X95753571Y-119884524D01*
X95848810Y-119932143D01*
X61409524Y-127977381D02*
X60933333Y-127977381D01*
X60933333Y-126977381D01*
X61742857Y-127977381D02*
X61742857Y-126977381D01*
X62076191Y-127691667D01*
X62409524Y-126977381D01*
X62409524Y-127977381D01*
X62790476Y-126977381D02*
X63409524Y-126977381D01*
X63076190Y-127358333D01*
X63219048Y-127358333D01*
X63314286Y-127405952D01*
X63361905Y-127453571D01*
X63409524Y-127548810D01*
X63409524Y-127786905D01*
X63361905Y-127882143D01*
X63314286Y-127929762D01*
X63219048Y-127977381D01*
X62933333Y-127977381D01*
X62838095Y-127929762D01*
X62790476Y-127882143D01*
X64314286Y-126977381D02*
X63838095Y-126977381D01*
X63790476Y-127453571D01*
X63838095Y-127405952D01*
X63933333Y-127358333D01*
X64171429Y-127358333D01*
X64266667Y-127405952D01*
X64314286Y-127453571D01*
X64361905Y-127548810D01*
X64361905Y-127786905D01*
X64314286Y-127882143D01*
X64266667Y-127929762D01*
X64171429Y-127977381D01*
X63933333Y-127977381D01*
X63838095Y-127929762D01*
X63790476Y-127882143D01*
X64933333Y-127405952D02*
X64838095Y-127358333D01*
X64790476Y-127310714D01*
X64742857Y-127215476D01*
X64742857Y-127167857D01*
X64790476Y-127072619D01*
X64838095Y-127025000D01*
X64933333Y-126977381D01*
X65123810Y-126977381D01*
X65219048Y-127025000D01*
X65266667Y-127072619D01*
X65314286Y-127167857D01*
X65314286Y-127215476D01*
X65266667Y-127310714D01*
X65219048Y-127358333D01*
X65123810Y-127405952D01*
X64933333Y-127405952D01*
X64838095Y-127453571D01*
X64790476Y-127501190D01*
X64742857Y-127596429D01*
X64742857Y-127786905D01*
X64790476Y-127882143D01*
X64838095Y-127929762D01*
X64933333Y-127977381D01*
X65123810Y-127977381D01*
X65219048Y-127929762D01*
X65266667Y-127882143D01*
X65314286Y-127786905D01*
X65314286Y-127596429D01*
X65266667Y-127501190D01*
X65219048Y-127453571D01*
X65123810Y-127405952D01*
X91960715Y-116077381D02*
X91389286Y-116077381D01*
X91675000Y-116077381D02*
X91675000Y-115077381D01*
X91579762Y-115220238D01*
X91484524Y-115315476D01*
X91389286Y-115363095D01*
X69335715Y-124227381D02*
X68764286Y-124227381D01*
X69050000Y-124227381D02*
X69050000Y-123227381D01*
X68954762Y-123370238D01*
X68859524Y-123465476D01*
X68764286Y-123513095D01*
X38285715Y-72927381D02*
X37714286Y-72927381D01*
X38000000Y-72927381D02*
X38000000Y-71927381D01*
X37904762Y-72070238D01*
X37809524Y-72165476D01*
X37714286Y-72213095D01*
X37560715Y-46877381D02*
X36989286Y-46877381D01*
X37275000Y-46877381D02*
X37275000Y-45877381D01*
X37179762Y-46020238D01*
X37084524Y-46115476D01*
X36989286Y-46163095D01*
X103654286Y-141134762D02*
X103797143Y-141182381D01*
X104035239Y-141182381D01*
X104130477Y-141134762D01*
X104178096Y-141087143D01*
X104225715Y-140991905D01*
X104225715Y-140896667D01*
X104178096Y-140801429D01*
X104130477Y-140753810D01*
X104035239Y-140706190D01*
X103844762Y-140658571D01*
X103749524Y-140610952D01*
X103701905Y-140563333D01*
X103654286Y-140468095D01*
X103654286Y-140372857D01*
X103701905Y-140277619D01*
X103749524Y-140230000D01*
X103844762Y-140182381D01*
X104082858Y-140182381D01*
X104225715Y-140230000D01*
X104654286Y-141182381D02*
X104654286Y-140182381D01*
X105035239Y-140182381D01*
X105130477Y-140230000D01*
X105178096Y-140277619D01*
X105225715Y-140372857D01*
X105225715Y-140515714D01*
X105178096Y-140610952D01*
X105130477Y-140658571D01*
X105035239Y-140706190D01*
X104654286Y-140706190D01*
X105654286Y-141182381D02*
X105654286Y-140182381D01*
X106225715Y-141182381D02*
X105797143Y-140610952D01*
X106225715Y-140182381D02*
X105654286Y-140753810D01*
X98338096Y-140290000D02*
X98242858Y-140242381D01*
X98100001Y-140242381D01*
X97957143Y-140290000D01*
X97861905Y-140385238D01*
X97814286Y-140480476D01*
X97766667Y-140670952D01*
X97766667Y-140813810D01*
X97814286Y-141004286D01*
X97861905Y-141099524D01*
X97957143Y-141194762D01*
X98100001Y-141242381D01*
X98195239Y-141242381D01*
X98338096Y-141194762D01*
X98385715Y-141147143D01*
X98385715Y-140813810D01*
X98195239Y-140813810D01*
X98814286Y-141242381D02*
X98814286Y-140242381D01*
X99385715Y-141242381D01*
X99385715Y-140242381D01*
X99861905Y-141242381D02*
X99861905Y-140242381D01*
X100100000Y-140242381D01*
X100242858Y-140290000D01*
X100338096Y-140385238D01*
X100385715Y-140480476D01*
X100433334Y-140670952D01*
X100433334Y-140813810D01*
X100385715Y-141004286D01*
X100338096Y-141099524D01*
X100242858Y-141194762D01*
X100100000Y-141242381D01*
X99861905Y-141242381D01*
X79327381Y-136825000D02*
X78327381Y-136825000D01*
X79041667Y-136491666D01*
X78327381Y-136158333D01*
X79327381Y-136158333D01*
X79327381Y-135682143D02*
X78327381Y-135682143D01*
X79232143Y-134634524D02*
X79279762Y-134682143D01*
X79327381Y-134825000D01*
X79327381Y-134920238D01*
X79279762Y-135063096D01*
X79184524Y-135158334D01*
X79089286Y-135205953D01*
X78898810Y-135253572D01*
X78755952Y-135253572D01*
X78565476Y-135205953D01*
X78470238Y-135158334D01*
X78375000Y-135063096D01*
X78327381Y-134920238D01*
X78327381Y-134825000D01*
X78375000Y-134682143D01*
X78422619Y-134634524D01*
X78327381Y-134015477D02*
X78327381Y-133825000D01*
X78375000Y-133729762D01*
X78470238Y-133634524D01*
X78660714Y-133586905D01*
X78994048Y-133586905D01*
X79184524Y-133634524D01*
X79279762Y-133729762D01*
X79327381Y-133825000D01*
X79327381Y-134015477D01*
X79279762Y-134110715D01*
X79184524Y-134205953D01*
X78994048Y-134253572D01*
X78660714Y-134253572D01*
X78470238Y-134205953D01*
X78375000Y-134110715D01*
X78327381Y-134015477D01*
X78327381Y-133158334D02*
X79136905Y-133158334D01*
X79232143Y-133110715D01*
X79279762Y-133063096D01*
X79327381Y-132967858D01*
X79327381Y-132777381D01*
X79279762Y-132682143D01*
X79232143Y-132634524D01*
X79136905Y-132586905D01*
X78327381Y-132586905D01*
X78327381Y-132253572D02*
X78327381Y-131682143D01*
X79327381Y-131967858D02*
X78327381Y-131967858D01*
X84477381Y-136058333D02*
X84001190Y-136391667D01*
X84477381Y-136629762D02*
X83477381Y-136629762D01*
X83477381Y-136248809D01*
X83525000Y-136153571D01*
X83572619Y-136105952D01*
X83667857Y-136058333D01*
X83810714Y-136058333D01*
X83905952Y-136105952D01*
X83953571Y-136153571D01*
X84001190Y-136248809D01*
X84001190Y-136629762D01*
X84477381Y-135629762D02*
X83477381Y-135629762D01*
X83525000Y-134629762D02*
X83477381Y-134725000D01*
X83477381Y-134867857D01*
X83525000Y-135010715D01*
X83620238Y-135105953D01*
X83715476Y-135153572D01*
X83905952Y-135201191D01*
X84048810Y-135201191D01*
X84239286Y-135153572D01*
X84334524Y-135105953D01*
X84429762Y-135010715D01*
X84477381Y-134867857D01*
X84477381Y-134772619D01*
X84429762Y-134629762D01*
X84382143Y-134582143D01*
X84048810Y-134582143D01*
X84048810Y-134772619D01*
X84477381Y-134153572D02*
X83477381Y-134153572D01*
X83953571Y-134153572D02*
X83953571Y-133582143D01*
X84477381Y-133582143D02*
X83477381Y-133582143D01*
X83477381Y-133248810D02*
X83477381Y-132677381D01*
X84477381Y-132963096D02*
X83477381Y-132963096D01*
X81952381Y-136177381D02*
X81952381Y-136653572D01*
X80952381Y-136653572D01*
X81428571Y-135844048D02*
X81428571Y-135510714D01*
X81952381Y-135367857D02*
X81952381Y-135844048D01*
X80952381Y-135844048D01*
X80952381Y-135367857D01*
X81428571Y-134605952D02*
X81428571Y-134939286D01*
X81952381Y-134939286D02*
X80952381Y-134939286D01*
X80952381Y-134463095D01*
X80952381Y-134225000D02*
X80952381Y-133653571D01*
X81952381Y-133939286D02*
X80952381Y-133939286D01*
X75800000Y-136086904D02*
X75752381Y-136182142D01*
X75752381Y-136324999D01*
X75800000Y-136467857D01*
X75895238Y-136563095D01*
X75990476Y-136610714D01*
X76180952Y-136658333D01*
X76323810Y-136658333D01*
X76514286Y-136610714D01*
X76609524Y-136563095D01*
X76704762Y-136467857D01*
X76752381Y-136324999D01*
X76752381Y-136229761D01*
X76704762Y-136086904D01*
X76657143Y-136039285D01*
X76323810Y-136039285D01*
X76323810Y-136229761D01*
X76752381Y-135610714D02*
X75752381Y-135610714D01*
X76752381Y-135039285D01*
X75752381Y-135039285D01*
X76752381Y-134563095D02*
X75752381Y-134563095D01*
X75752381Y-134325000D01*
X75800000Y-134182142D01*
X75895238Y-134086904D01*
X75990476Y-134039285D01*
X76180952Y-133991666D01*
X76323810Y-133991666D01*
X76514286Y-134039285D01*
X76609524Y-134086904D01*
X76704762Y-134182142D01*
X76752381Y-134325000D01*
X76752381Y-134563095D01*
X42314762Y-48815476D02*
X42362381Y-48672619D01*
X42362381Y-48434523D01*
X42314762Y-48339285D01*
X42267143Y-48291666D01*
X42171905Y-48244047D01*
X42076667Y-48244047D01*
X41981429Y-48291666D01*
X41933810Y-48339285D01*
X41886190Y-48434523D01*
X41838571Y-48625000D01*
X41790952Y-48720238D01*
X41743333Y-48767857D01*
X41648095Y-48815476D01*
X41552857Y-48815476D01*
X41457619Y-48767857D01*
X41410000Y-48720238D01*
X41362381Y-48625000D01*
X41362381Y-48386904D01*
X41410000Y-48244047D01*
X42267143Y-47244047D02*
X42314762Y-47291666D01*
X42362381Y-47434523D01*
X42362381Y-47529761D01*
X42314762Y-47672619D01*
X42219524Y-47767857D01*
X42124286Y-47815476D01*
X41933810Y-47863095D01*
X41790952Y-47863095D01*
X41600476Y-47815476D01*
X41505238Y-47767857D01*
X41410000Y-47672619D01*
X41362381Y-47529761D01*
X41362381Y-47434523D01*
X41410000Y-47291666D01*
X41457619Y-47244047D01*
X42362381Y-46339285D02*
X42362381Y-46815476D01*
X41362381Y-46815476D01*
X44854762Y-48839286D02*
X44902381Y-48696429D01*
X44902381Y-48458333D01*
X44854762Y-48363095D01*
X44807143Y-48315476D01*
X44711905Y-48267857D01*
X44616667Y-48267857D01*
X44521429Y-48315476D01*
X44473810Y-48363095D01*
X44426190Y-48458333D01*
X44378571Y-48648810D01*
X44330952Y-48744048D01*
X44283333Y-48791667D01*
X44188095Y-48839286D01*
X44092857Y-48839286D01*
X43997619Y-48791667D01*
X43950000Y-48744048D01*
X43902381Y-48648810D01*
X43902381Y-48410714D01*
X43950000Y-48267857D01*
X44902381Y-47839286D02*
X43902381Y-47839286D01*
X43902381Y-47601191D01*
X43950000Y-47458333D01*
X44045238Y-47363095D01*
X44140476Y-47315476D01*
X44330952Y-47267857D01*
X44473810Y-47267857D01*
X44664286Y-47315476D01*
X44759524Y-47363095D01*
X44854762Y-47458333D01*
X44902381Y-47601191D01*
X44902381Y-47839286D01*
X44616667Y-46886905D02*
X44616667Y-46410714D01*
X44902381Y-46982143D02*
X43902381Y-46648810D01*
X44902381Y-46315476D01*
X47315429Y-49291714D02*
X47315429Y-48529809D01*
X47696381Y-48910761D02*
X46934476Y-48910761D01*
X46696381Y-47577428D02*
X46696381Y-48053619D01*
X47172571Y-48101238D01*
X47124952Y-48053619D01*
X47077333Y-47958381D01*
X47077333Y-47720285D01*
X47124952Y-47625047D01*
X47172571Y-47577428D01*
X47267810Y-47529809D01*
X47505905Y-47529809D01*
X47601143Y-47577428D01*
X47648762Y-47625047D01*
X47696381Y-47720285D01*
X47696381Y-47958381D01*
X47648762Y-48053619D01*
X47601143Y-48101238D01*
X46696381Y-47244095D02*
X47696381Y-46910762D01*
X46696381Y-46577428D01*
X38616000Y-48513904D02*
X38568381Y-48609142D01*
X38568381Y-48751999D01*
X38616000Y-48894857D01*
X38711238Y-48990095D01*
X38806476Y-49037714D01*
X38996952Y-49085333D01*
X39139810Y-49085333D01*
X39330286Y-49037714D01*
X39425524Y-48990095D01*
X39520762Y-48894857D01*
X39568381Y-48751999D01*
X39568381Y-48656761D01*
X39520762Y-48513904D01*
X39473143Y-48466285D01*
X39139810Y-48466285D01*
X39139810Y-48656761D01*
X39568381Y-48037714D02*
X38568381Y-48037714D01*
X39568381Y-47466285D01*
X38568381Y-47466285D01*
X39568381Y-46990095D02*
X38568381Y-46990095D01*
X38568381Y-46752000D01*
X38616000Y-46609142D01*
X38711238Y-46513904D01*
X38806476Y-46466285D01*
X38996952Y-46418666D01*
X39139810Y-46418666D01*
X39330286Y-46466285D01*
X39425524Y-46513904D01*
X39520762Y-46609142D01*
X39568381Y-46752000D01*
X39568381Y-46990095D01*
X86051666Y-44522381D02*
X86051666Y-43522381D01*
X86623095Y-44522381D02*
X86194523Y-43950952D01*
X86623095Y-43522381D02*
X86051666Y-44093810D01*
X87051666Y-43998571D02*
X87385000Y-43998571D01*
X87527857Y-44522381D02*
X87051666Y-44522381D01*
X87051666Y-43522381D01*
X87527857Y-43522381D01*
X88146904Y-44046190D02*
X88146904Y-44522381D01*
X87813571Y-43522381D02*
X88146904Y-44046190D01*
X88480238Y-43522381D01*
X88813571Y-44522381D02*
X88813571Y-43522381D01*
X89194524Y-43522381D01*
X89289762Y-43570000D01*
X89337381Y-43617619D01*
X89385000Y-43712857D01*
X89385000Y-43855714D01*
X89337381Y-43950952D01*
X89289762Y-43998571D01*
X89194524Y-44046190D01*
X88813571Y-44046190D01*
X89765952Y-44236667D02*
X90242143Y-44236667D01*
X89670714Y-44522381D02*
X90004047Y-43522381D01*
X90337381Y-44522381D01*
X90670714Y-44522381D02*
X90670714Y-43522381D01*
X90908809Y-43522381D01*
X91051667Y-43570000D01*
X91146905Y-43665238D01*
X91194524Y-43760476D01*
X91242143Y-43950952D01*
X91242143Y-44093810D01*
X91194524Y-44284286D01*
X91146905Y-44379524D01*
X91051667Y-44474762D01*
X90908809Y-44522381D01*
X90670714Y-44522381D01*
X92385000Y-44236667D02*
X92861191Y-44236667D01*
X92289762Y-44522381D02*
X92623095Y-43522381D01*
X92956429Y-44522381D01*
X93289762Y-44522381D02*
X93289762Y-43522381D01*
X93861191Y-44522381D01*
X93861191Y-43522381D01*
X94337381Y-44522381D02*
X94337381Y-43522381D01*
X94575476Y-43522381D01*
X94718334Y-43570000D01*
X94813572Y-43665238D01*
X94861191Y-43760476D01*
X94908810Y-43950952D01*
X94908810Y-44093810D01*
X94861191Y-44284286D01*
X94813572Y-44379524D01*
X94718334Y-44474762D01*
X94575476Y-44522381D01*
X94337381Y-44522381D01*
X96575477Y-44522381D02*
X96099286Y-44522381D01*
X96099286Y-43522381D01*
X96908810Y-43998571D02*
X97242144Y-43998571D01*
X97385001Y-44522381D02*
X96908810Y-44522381D01*
X96908810Y-43522381D01*
X97385001Y-43522381D01*
X97813572Y-44522381D02*
X97813572Y-43522381D01*
X98051667Y-43522381D01*
X98194525Y-43570000D01*
X98289763Y-43665238D01*
X98337382Y-43760476D01*
X98385001Y-43950952D01*
X98385001Y-44093810D01*
X98337382Y-44284286D01*
X98289763Y-44379524D01*
X98194525Y-44474762D01*
X98051667Y-44522381D01*
X97813572Y-44522381D01*
X99908811Y-43998571D02*
X100051668Y-44046190D01*
X100099287Y-44093810D01*
X100146906Y-44189048D01*
X100146906Y-44331905D01*
X100099287Y-44427143D01*
X100051668Y-44474762D01*
X99956430Y-44522381D01*
X99575477Y-44522381D01*
X99575477Y-43522381D01*
X99908811Y-43522381D01*
X100004049Y-43570000D01*
X100051668Y-43617619D01*
X100099287Y-43712857D01*
X100099287Y-43808095D01*
X100051668Y-43903333D01*
X100004049Y-43950952D01*
X99908811Y-43998571D01*
X99575477Y-43998571D01*
X100527858Y-44236667D02*
X101004049Y-44236667D01*
X100432620Y-44522381D02*
X100765953Y-43522381D01*
X101099287Y-44522381D01*
X102004049Y-44522381D02*
X101670715Y-44046190D01*
X101432620Y-44522381D02*
X101432620Y-43522381D01*
X101813573Y-43522381D01*
X101908811Y-43570000D01*
X101956430Y-43617619D01*
X102004049Y-43712857D01*
X102004049Y-43855714D01*
X101956430Y-43950952D01*
X101908811Y-43998571D01*
X101813573Y-44046190D01*
X101432620Y-44046190D01*
X103194525Y-44522381D02*
X103194525Y-43522381D01*
X103575478Y-43522381D01*
X103670716Y-43570000D01*
X103718335Y-43617619D01*
X103765954Y-43712857D01*
X103765954Y-43855714D01*
X103718335Y-43950952D01*
X103670716Y-43998571D01*
X103575478Y-44046190D01*
X103194525Y-44046190D01*
X104765954Y-44427143D02*
X104718335Y-44474762D01*
X104575478Y-44522381D01*
X104480240Y-44522381D01*
X104337382Y-44474762D01*
X104242144Y-44379524D01*
X104194525Y-44284286D01*
X104146906Y-44093810D01*
X104146906Y-43950952D01*
X104194525Y-43760476D01*
X104242144Y-43665238D01*
X104337382Y-43570000D01*
X104480240Y-43522381D01*
X104575478Y-43522381D01*
X104718335Y-43570000D01*
X104765954Y-43617619D01*
X105527859Y-43998571D02*
X105670716Y-44046190D01*
X105718335Y-44093810D01*
X105765954Y-44189048D01*
X105765954Y-44331905D01*
X105718335Y-44427143D01*
X105670716Y-44474762D01*
X105575478Y-44522381D01*
X105194525Y-44522381D01*
X105194525Y-43522381D01*
X105527859Y-43522381D01*
X105623097Y-43570000D01*
X105670716Y-43617619D01*
X105718335Y-43712857D01*
X105718335Y-43808095D01*
X105670716Y-43903333D01*
X105623097Y-43950952D01*
X105527859Y-43998571D01*
X105194525Y-43998571D01*
X83218333Y-45648571D02*
X82884999Y-45648571D01*
X82884999Y-46172381D02*
X82884999Y-45172381D01*
X83361190Y-45172381D01*
X83932618Y-45172381D02*
X84123095Y-45172381D01*
X84218333Y-45220000D01*
X84313571Y-45315238D01*
X84361190Y-45505714D01*
X84361190Y-45839048D01*
X84313571Y-46029524D01*
X84218333Y-46124762D01*
X84123095Y-46172381D01*
X83932618Y-46172381D01*
X83837380Y-46124762D01*
X83742142Y-46029524D01*
X83694523Y-45839048D01*
X83694523Y-45505714D01*
X83742142Y-45315238D01*
X83837380Y-45220000D01*
X83932618Y-45172381D01*
X85361190Y-46172381D02*
X85027856Y-45696190D01*
X84789761Y-46172381D02*
X84789761Y-45172381D01*
X85170714Y-45172381D01*
X85265952Y-45220000D01*
X85313571Y-45267619D01*
X85361190Y-45362857D01*
X85361190Y-45505714D01*
X85313571Y-45600952D01*
X85265952Y-45648571D01*
X85170714Y-45696190D01*
X84789761Y-45696190D01*
X87123095Y-46172381D02*
X86789761Y-45696190D01*
X86551666Y-46172381D02*
X86551666Y-45172381D01*
X86932619Y-45172381D01*
X87027857Y-45220000D01*
X87075476Y-45267619D01*
X87123095Y-45362857D01*
X87123095Y-45505714D01*
X87075476Y-45600952D01*
X87027857Y-45648571D01*
X86932619Y-45696190D01*
X86551666Y-45696190D01*
X87504047Y-45886667D02*
X87980238Y-45886667D01*
X87408809Y-46172381D02*
X87742142Y-45172381D01*
X88075476Y-46172381D01*
X88361190Y-46124762D02*
X88504047Y-46172381D01*
X88742143Y-46172381D01*
X88837381Y-46124762D01*
X88885000Y-46077143D01*
X88932619Y-45981905D01*
X88932619Y-45886667D01*
X88885000Y-45791429D01*
X88837381Y-45743810D01*
X88742143Y-45696190D01*
X88551666Y-45648571D01*
X88456428Y-45600952D01*
X88408809Y-45553333D01*
X88361190Y-45458095D01*
X88361190Y-45362857D01*
X88408809Y-45267619D01*
X88456428Y-45220000D01*
X88551666Y-45172381D01*
X88789762Y-45172381D01*
X88932619Y-45220000D01*
X89361190Y-46172381D02*
X89361190Y-45172381D01*
X89742143Y-45172381D01*
X89837381Y-45220000D01*
X89885000Y-45267619D01*
X89932619Y-45362857D01*
X89932619Y-45505714D01*
X89885000Y-45600952D01*
X89837381Y-45648571D01*
X89742143Y-45696190D01*
X89361190Y-45696190D01*
X90694524Y-45648571D02*
X90837381Y-45696190D01*
X90885000Y-45743810D01*
X90932619Y-45839048D01*
X90932619Y-45981905D01*
X90885000Y-46077143D01*
X90837381Y-46124762D01*
X90742143Y-46172381D01*
X90361190Y-46172381D01*
X90361190Y-45172381D01*
X90694524Y-45172381D01*
X90789762Y-45220000D01*
X90837381Y-45267619D01*
X90885000Y-45362857D01*
X90885000Y-45458095D01*
X90837381Y-45553333D01*
X90789762Y-45600952D01*
X90694524Y-45648571D01*
X90361190Y-45648571D01*
X91361190Y-45648571D02*
X91694524Y-45648571D01*
X91837381Y-46172381D02*
X91361190Y-46172381D01*
X91361190Y-45172381D01*
X91837381Y-45172381D01*
X92837381Y-46172381D02*
X92504047Y-45696190D01*
X92265952Y-46172381D02*
X92265952Y-45172381D01*
X92646905Y-45172381D01*
X92742143Y-45220000D01*
X92789762Y-45267619D01*
X92837381Y-45362857D01*
X92837381Y-45505714D01*
X92789762Y-45600952D01*
X92742143Y-45648571D01*
X92646905Y-45696190D01*
X92265952Y-45696190D01*
X93837381Y-46172381D02*
X93504047Y-45696190D01*
X93265952Y-46172381D02*
X93265952Y-45172381D01*
X93646905Y-45172381D01*
X93742143Y-45220000D01*
X93789762Y-45267619D01*
X93837381Y-45362857D01*
X93837381Y-45505714D01*
X93789762Y-45600952D01*
X93742143Y-45648571D01*
X93646905Y-45696190D01*
X93265952Y-45696190D01*
X94456428Y-45696190D02*
X94456428Y-46172381D01*
X94123095Y-45172381D02*
X94456428Y-45696190D01*
X94789762Y-45172381D01*
X95885000Y-46172381D02*
X95885000Y-45172381D01*
X96265953Y-45172381D01*
X96361191Y-45220000D01*
X96408810Y-45267619D01*
X96456429Y-45362857D01*
X96456429Y-45505714D01*
X96408810Y-45600952D01*
X96361191Y-45648571D01*
X96265953Y-45696190D01*
X95885000Y-45696190D01*
X96885000Y-46172381D02*
X96885000Y-45172381D01*
X98456429Y-45648571D02*
X98599286Y-45696190D01*
X98646905Y-45743810D01*
X98694524Y-45839048D01*
X98694524Y-45981905D01*
X98646905Y-46077143D01*
X98599286Y-46124762D01*
X98504048Y-46172381D01*
X98123095Y-46172381D01*
X98123095Y-45172381D01*
X98456429Y-45172381D01*
X98551667Y-45220000D01*
X98599286Y-45267619D01*
X98646905Y-45362857D01*
X98646905Y-45458095D01*
X98599286Y-45553333D01*
X98551667Y-45600952D01*
X98456429Y-45648571D01*
X98123095Y-45648571D01*
X99313571Y-45696190D02*
X99313571Y-46172381D01*
X98980238Y-45172381D02*
X99313571Y-45696190D01*
X99646905Y-45172381D01*
X100742143Y-46172381D02*
X100742143Y-45172381D01*
X100980238Y-45172381D01*
X101123096Y-45220000D01*
X101218334Y-45315238D01*
X101265953Y-45410476D01*
X101313572Y-45600952D01*
X101313572Y-45743810D01*
X101265953Y-45934286D01*
X101218334Y-46029524D01*
X101123096Y-46124762D01*
X100980238Y-46172381D01*
X100742143Y-46172381D01*
X101694524Y-45886667D02*
X102170715Y-45886667D01*
X101599286Y-46172381D02*
X101932619Y-45172381D01*
X102265953Y-46172381D01*
X102599286Y-46172381D02*
X102599286Y-45172381D01*
X103170715Y-46172381D01*
X103170715Y-45172381D01*
X104408810Y-46172381D02*
X104408810Y-45172381D01*
X104742144Y-45886667D01*
X105075477Y-45172381D01*
X105075477Y-46172381D01*
X105504048Y-45886667D02*
X105980239Y-45886667D01*
X105408810Y-46172381D02*
X105742143Y-45172381D01*
X106075477Y-46172381D01*
X106980239Y-46172381D02*
X106646905Y-45696190D01*
X106408810Y-46172381D02*
X106408810Y-45172381D01*
X106789763Y-45172381D01*
X106885001Y-45220000D01*
X106932620Y-45267619D01*
X106980239Y-45362857D01*
X106980239Y-45505714D01*
X106932620Y-45600952D01*
X106885001Y-45648571D01*
X106789763Y-45696190D01*
X106408810Y-45696190D01*
X107408810Y-46172381D02*
X107408810Y-45172381D01*
X107980239Y-46172381D02*
X107551667Y-45600952D01*
X107980239Y-45172381D02*
X107408810Y-45743810D01*
X108361191Y-46124762D02*
X108504048Y-46172381D01*
X108742144Y-46172381D01*
X108837382Y-46124762D01*
X108885001Y-46077143D01*
X108932620Y-45981905D01*
X108932620Y-45886667D01*
X108885001Y-45791429D01*
X108837382Y-45743810D01*
X108742144Y-45696190D01*
X108551667Y-45648571D01*
X108456429Y-45600952D01*
X108408810Y-45553333D01*
X108361191Y-45458095D01*
X108361191Y-45362857D01*
X108408810Y-45267619D01*
X108456429Y-45220000D01*
X108551667Y-45172381D01*
X108789763Y-45172381D01*
X108932620Y-45220000D01*
X91051667Y-47727143D02*
X91004048Y-47774762D01*
X90861191Y-47822381D01*
X90765953Y-47822381D01*
X90623095Y-47774762D01*
X90527857Y-47679524D01*
X90480238Y-47584286D01*
X90432619Y-47393810D01*
X90432619Y-47250952D01*
X90480238Y-47060476D01*
X90527857Y-46965238D01*
X90623095Y-46870000D01*
X90765953Y-46822381D01*
X90861191Y-46822381D01*
X91004048Y-46870000D01*
X91051667Y-46917619D01*
X92051667Y-47727143D02*
X92004048Y-47774762D01*
X91861191Y-47822381D01*
X91765953Y-47822381D01*
X91623095Y-47774762D01*
X91527857Y-47679524D01*
X91480238Y-47584286D01*
X91432619Y-47393810D01*
X91432619Y-47250952D01*
X91480238Y-47060476D01*
X91527857Y-46965238D01*
X91623095Y-46870000D01*
X91765953Y-46822381D01*
X91861191Y-46822381D01*
X92004048Y-46870000D01*
X92051667Y-46917619D01*
X92480238Y-47441429D02*
X93242143Y-47441429D01*
X94051667Y-47298571D02*
X94194524Y-47346190D01*
X94242143Y-47393810D01*
X94289762Y-47489048D01*
X94289762Y-47631905D01*
X94242143Y-47727143D01*
X94194524Y-47774762D01*
X94099286Y-47822381D01*
X93718333Y-47822381D01*
X93718333Y-46822381D01*
X94051667Y-46822381D01*
X94146905Y-46870000D01*
X94194524Y-46917619D01*
X94242143Y-47012857D01*
X94242143Y-47108095D01*
X94194524Y-47203333D01*
X94146905Y-47250952D01*
X94051667Y-47298571D01*
X93718333Y-47298571D01*
X94908809Y-47346190D02*
X94908809Y-47822381D01*
X94575476Y-46822381D02*
X94908809Y-47346190D01*
X95242143Y-46822381D01*
X95575476Y-47441429D02*
X96337381Y-47441429D01*
X96765952Y-47774762D02*
X96908809Y-47822381D01*
X97146905Y-47822381D01*
X97242143Y-47774762D01*
X97289762Y-47727143D01*
X97337381Y-47631905D01*
X97337381Y-47536667D01*
X97289762Y-47441429D01*
X97242143Y-47393810D01*
X97146905Y-47346190D01*
X96956428Y-47298571D01*
X96861190Y-47250952D01*
X96813571Y-47203333D01*
X96765952Y-47108095D01*
X96765952Y-47012857D01*
X96813571Y-46917619D01*
X96861190Y-46870000D01*
X96956428Y-46822381D01*
X97194524Y-46822381D01*
X97337381Y-46870000D01*
X97718333Y-47536667D02*
X98194524Y-47536667D01*
X97623095Y-47822381D02*
X97956428Y-46822381D01*
X98289762Y-47822381D01*
X99813572Y-47155714D02*
X99813572Y-47822381D01*
X99575476Y-46774762D02*
X99337381Y-47489048D01*
X99956429Y-47489048D01*
X100337381Y-47727143D02*
X100385000Y-47774762D01*
X100337381Y-47822381D01*
X100289762Y-47774762D01*
X100337381Y-47727143D01*
X100337381Y-47822381D01*
X101004047Y-46822381D02*
X101099286Y-46822381D01*
X101194524Y-46870000D01*
X101242143Y-46917619D01*
X101289762Y-47012857D01*
X101337381Y-47203333D01*
X101337381Y-47441429D01*
X101289762Y-47631905D01*
X101242143Y-47727143D01*
X101194524Y-47774762D01*
X101099286Y-47822381D01*
X101004047Y-47822381D01*
X100908809Y-47774762D01*
X100861190Y-47727143D01*
X100813571Y-47631905D01*
X100765952Y-47441429D01*
X100765952Y-47203333D01*
X100813571Y-47012857D01*
X100861190Y-46917619D01*
X100908809Y-46870000D01*
X101004047Y-46822381D01*
X62285715Y-56452381D02*
X61714286Y-56452381D01*
X62000000Y-56452381D02*
X62000000Y-55452381D01*
X61904762Y-55595238D01*
X61809524Y-55690476D01*
X61714286Y-55738095D01*
X67310715Y-45952381D02*
X66739286Y-45952381D01*
X67025000Y-45952381D02*
X67025000Y-44952381D01*
X66929762Y-45095238D01*
X66834524Y-45190476D01*
X66739286Y-45238095D01*
X41212381Y-87041905D02*
X41212381Y-86375238D01*
X42212381Y-86803810D01*
X41545714Y-85565714D02*
X42212381Y-85565714D01*
X41164762Y-85803810D02*
X41879048Y-86041905D01*
X41879048Y-85422857D01*
X42212381Y-85041905D02*
X41212381Y-85041905D01*
X41688571Y-85041905D02*
X41688571Y-84470476D01*
X42212381Y-84470476D02*
X41212381Y-84470476D01*
X42117143Y-83422857D02*
X42164762Y-83470476D01*
X42212381Y-83613333D01*
X42212381Y-83708571D01*
X42164762Y-83851429D01*
X42069524Y-83946667D01*
X41974286Y-83994286D01*
X41783810Y-84041905D01*
X41640952Y-84041905D01*
X41450476Y-83994286D01*
X41355238Y-83946667D01*
X41260000Y-83851429D01*
X41212381Y-83708571D01*
X41212381Y-83613333D01*
X41260000Y-83470476D01*
X41307619Y-83422857D01*
X41212381Y-82518095D02*
X41212381Y-82994286D01*
X41688571Y-83041905D01*
X41640952Y-82994286D01*
X41593333Y-82899048D01*
X41593333Y-82660952D01*
X41640952Y-82565714D01*
X41688571Y-82518095D01*
X41783810Y-82470476D01*
X42021905Y-82470476D01*
X42117143Y-82518095D01*
X42164762Y-82565714D01*
X42212381Y-82660952D01*
X42212381Y-82899048D01*
X42164762Y-82994286D01*
X42117143Y-83041905D01*
X42212381Y-81994286D02*
X42212381Y-81803810D01*
X42164762Y-81708571D01*
X42117143Y-81660952D01*
X41974286Y-81565714D01*
X41783810Y-81518095D01*
X41402857Y-81518095D01*
X41307619Y-81565714D01*
X41260000Y-81613333D01*
X41212381Y-81708571D01*
X41212381Y-81899048D01*
X41260000Y-81994286D01*
X41307619Y-82041905D01*
X41402857Y-82089524D01*
X41640952Y-82089524D01*
X41736190Y-82041905D01*
X41783810Y-81994286D01*
X41831429Y-81899048D01*
X41831429Y-81708571D01*
X41783810Y-81613333D01*
X41736190Y-81565714D01*
X41640952Y-81518095D01*
X41212381Y-80613333D02*
X41212381Y-81089524D01*
X41688571Y-81137143D01*
X41640952Y-81089524D01*
X41593333Y-80994286D01*
X41593333Y-80756190D01*
X41640952Y-80660952D01*
X41688571Y-80613333D01*
X41783810Y-80565714D01*
X42021905Y-80565714D01*
X42117143Y-80613333D01*
X42164762Y-80660952D01*
X42212381Y-80756190D01*
X42212381Y-80994286D01*
X42164762Y-81089524D01*
X42117143Y-81137143D01*
X77922381Y-48767857D02*
X76922381Y-48767857D01*
X76922381Y-48529762D01*
X76970000Y-48386904D01*
X77065238Y-48291666D01*
X77160476Y-48244047D01*
X77350952Y-48196428D01*
X77493810Y-48196428D01*
X77684286Y-48244047D01*
X77779524Y-48291666D01*
X77874762Y-48386904D01*
X77922381Y-48529762D01*
X77922381Y-48767857D01*
X76922381Y-47910714D02*
X76922381Y-47339285D01*
X77922381Y-47625000D02*
X76922381Y-47625000D01*
X77922381Y-46434523D02*
X77446190Y-46767857D01*
X77922381Y-47005952D02*
X76922381Y-47005952D01*
X76922381Y-46624999D01*
X76970000Y-46529761D01*
X77017619Y-46482142D01*
X77112857Y-46434523D01*
X77255714Y-46434523D01*
X77350952Y-46482142D01*
X77398571Y-46529761D01*
X77446190Y-46624999D01*
X77446190Y-47005952D01*
X75382381Y-47791666D02*
X74906190Y-48125000D01*
X75382381Y-48363095D02*
X74382381Y-48363095D01*
X74382381Y-47982142D01*
X74430000Y-47886904D01*
X74477619Y-47839285D01*
X74572857Y-47791666D01*
X74715714Y-47791666D01*
X74810952Y-47839285D01*
X74858571Y-47886904D01*
X74906190Y-47982142D01*
X74906190Y-48363095D01*
X74382381Y-47458333D02*
X75382381Y-46791666D01*
X74382381Y-46791666D02*
X75382381Y-47458333D01*
X71842381Y-48386905D02*
X71842381Y-47815476D01*
X72842381Y-48101191D02*
X71842381Y-48101191D01*
X71842381Y-47577381D02*
X72842381Y-46910714D01*
X71842381Y-46910714D02*
X72842381Y-47577381D01*
X69350000Y-48386904D02*
X69302381Y-48482142D01*
X69302381Y-48624999D01*
X69350000Y-48767857D01*
X69445238Y-48863095D01*
X69540476Y-48910714D01*
X69730952Y-48958333D01*
X69873810Y-48958333D01*
X70064286Y-48910714D01*
X70159524Y-48863095D01*
X70254762Y-48767857D01*
X70302381Y-48624999D01*
X70302381Y-48529761D01*
X70254762Y-48386904D01*
X70207143Y-48339285D01*
X69873810Y-48339285D01*
X69873810Y-48529761D01*
X70302381Y-47910714D02*
X69302381Y-47910714D01*
X70302381Y-47339285D01*
X69302381Y-47339285D01*
X70302381Y-46863095D02*
X69302381Y-46863095D01*
X69302381Y-46625000D01*
X69350000Y-46482142D01*
X69445238Y-46386904D01*
X69540476Y-46339285D01*
X69730952Y-46291666D01*
X69873810Y-46291666D01*
X70064286Y-46339285D01*
X70159524Y-46386904D01*
X70254762Y-46482142D01*
X70302381Y-46625000D01*
X70302381Y-46863095D01*
D12*
X87634296Y-127914691D02*
G75*
G02X85325000Y-127955000I-1154296J-40309D01*
G01*
X85325948Y-127975121D02*
G75*
G02X86720000Y-126826000I1154052J20121D01*
G01*
X90100000Y-119635000D02*
X90100000Y-129285000D01*
X85149000Y-119635000D02*
X85149000Y-129285000D01*
X90100000Y-119635000D02*
X85149000Y-119635000D01*
X90100000Y-129285000D02*
X85149000Y-129285000D01*
X87214000Y-128831000D02*
X85604000Y-127220000D01*
X87355000Y-128691000D02*
X85745000Y-127079000D01*
X71684691Y-118995704D02*
G75*
G02X71725000Y-121305000I40309J-1154296D01*
G01*
X71745121Y-121304052D02*
G75*
G02X70596000Y-119910000I-20121J1154052D01*
G01*
X63405000Y-116530000D02*
X73055000Y-116530000D01*
X63405000Y-121481000D02*
X73055000Y-121481000D01*
X63405000Y-116530000D02*
X63405000Y-121481000D01*
X73055000Y-116530000D02*
X73055000Y-121481000D01*
X72601000Y-119416000D02*
X70990000Y-121026000D01*
X72461000Y-119275000D02*
X70849000Y-120885000D01*
X45120000Y-105120000D02*
X45120000Y-105450000D01*
X45120000Y-105450000D02*
X38700000Y-105450000D01*
X38700000Y-105450000D02*
X38700000Y-105120000D01*
X45120000Y-103160000D02*
X45120000Y-102830000D01*
X45120000Y-102830000D02*
X38700000Y-102830000D01*
X38700000Y-102830000D02*
X38700000Y-103160000D01*
X44260000Y-72860000D02*
X44260000Y-67740000D01*
X46880000Y-72860000D02*
X46880000Y-67740000D01*
X44260000Y-72860000D02*
X46880000Y-72860000D01*
X44260000Y-67740000D02*
X46880000Y-67740000D01*
X114090000Y-79220000D02*
X111970000Y-79220000D01*
X111970000Y-79220000D02*
X111970000Y-83340000D01*
X111970000Y-83340000D02*
X114090000Y-83340000D01*
X114090000Y-83340000D02*
X114090000Y-79220000D01*
X113030000Y-78450000D02*
X113030000Y-79220000D01*
X113030000Y-84110000D02*
X113030000Y-83340000D01*
X114090000Y-79880000D02*
X111970000Y-79880000D01*
X114090000Y-91920000D02*
X111970000Y-91920000D01*
X111970000Y-91920000D02*
X111970000Y-96040000D01*
X111970000Y-96040000D02*
X114090000Y-96040000D01*
X114090000Y-96040000D02*
X114090000Y-91920000D01*
X113030000Y-91150000D02*
X113030000Y-91920000D01*
X113030000Y-96810000D02*
X113030000Y-96040000D01*
X114090000Y-92580000D02*
X111970000Y-92580000D01*
X114090000Y-104620000D02*
X111970000Y-104620000D01*
X111970000Y-104620000D02*
X111970000Y-108740000D01*
X111970000Y-108740000D02*
X114090000Y-108740000D01*
X114090000Y-108740000D02*
X114090000Y-104620000D01*
X113030000Y-103850000D02*
X113030000Y-104620000D01*
X113030000Y-109510000D02*
X113030000Y-108740000D01*
X114090000Y-105280000D02*
X111970000Y-105280000D01*
X114090000Y-66520000D02*
X111970000Y-66520000D01*
X111970000Y-66520000D02*
X111970000Y-70640000D01*
X111970000Y-70640000D02*
X114090000Y-70640000D01*
X114090000Y-70640000D02*
X114090000Y-66520000D01*
X113030000Y-65750000D02*
X113030000Y-66520000D01*
X113030000Y-71410000D02*
X113030000Y-70640000D01*
X114090000Y-67180000D02*
X111970000Y-67180000D01*
X78800000Y-45145000D02*
X78800000Y-42485000D01*
X71120000Y-45145000D02*
X78800000Y-45145000D01*
X71120000Y-42485000D02*
X78800000Y-42485000D01*
X71120000Y-45145000D02*
X71120000Y-42485000D01*
X69850000Y-45145000D02*
X68520000Y-45145000D01*
X68520000Y-45145000D02*
X68520000Y-43815000D01*
X114360000Y-55940000D02*
X114360000Y-50740000D01*
X66040000Y-55940000D02*
X114360000Y-55940000D01*
X63440000Y-50740000D02*
X114360000Y-50740000D01*
X66040000Y-55940000D02*
X66040000Y-53340000D01*
X66040000Y-53340000D02*
X63440000Y-53340000D01*
X63440000Y-53340000D02*
X63440000Y-50740000D01*
X64770000Y-55940000D02*
X63440000Y-55940000D01*
X63440000Y-55940000D02*
X63440000Y-54610000D01*
X45120000Y-98770000D02*
X45120000Y-99100000D01*
X45120000Y-99100000D02*
X38700000Y-99100000D01*
X38700000Y-99100000D02*
X38700000Y-98770000D01*
X45120000Y-96810000D02*
X45120000Y-96480000D01*
X45120000Y-96480000D02*
X38700000Y-96480000D01*
X38700000Y-96480000D02*
X38700000Y-96810000D01*
X45120000Y-101945000D02*
X45120000Y-102275000D01*
X45120000Y-102275000D02*
X38700000Y-102275000D01*
X38700000Y-102275000D02*
X38700000Y-101945000D01*
X45120000Y-99985000D02*
X45120000Y-99655000D01*
X45120000Y-99655000D02*
X38700000Y-99655000D01*
X38700000Y-99655000D02*
X38700000Y-99985000D01*
X45120000Y-108295000D02*
X45120000Y-108625000D01*
X45120000Y-108625000D02*
X38700000Y-108625000D01*
X38700000Y-108625000D02*
X38700000Y-108295000D01*
X45120000Y-106335000D02*
X45120000Y-106005000D01*
X45120000Y-106005000D02*
X38700000Y-106005000D01*
X38700000Y-106005000D02*
X38700000Y-106335000D01*
X45120000Y-111470000D02*
X45120000Y-111800000D01*
X45120000Y-111800000D02*
X38700000Y-111800000D01*
X38700000Y-111800000D02*
X38700000Y-111470000D01*
X45120000Y-109510000D02*
X45120000Y-109180000D01*
X45120000Y-109180000D02*
X38700000Y-109180000D01*
X38700000Y-109180000D02*
X38700000Y-109510000D01*
X45120000Y-114645000D02*
X45120000Y-114975000D01*
X45120000Y-114975000D02*
X38700000Y-114975000D01*
X38700000Y-114975000D02*
X38700000Y-114645000D01*
X45120000Y-112685000D02*
X45120000Y-112355000D01*
X45120000Y-112355000D02*
X38700000Y-112355000D01*
X38700000Y-112355000D02*
X38700000Y-112685000D01*
X45120000Y-117820000D02*
X45120000Y-118150000D01*
X45120000Y-118150000D02*
X38700000Y-118150000D01*
X38700000Y-118150000D02*
X38700000Y-117820000D01*
X45120000Y-115860000D02*
X45120000Y-115530000D01*
X45120000Y-115530000D02*
X38700000Y-115530000D01*
X38700000Y-115530000D02*
X38700000Y-115860000D01*
X45120000Y-120995000D02*
X45120000Y-121325000D01*
X45120000Y-121325000D02*
X38700000Y-121325000D01*
X38700000Y-121325000D02*
X38700000Y-120995000D01*
X45120000Y-119035000D02*
X45120000Y-118705000D01*
X45120000Y-118705000D02*
X38700000Y-118705000D01*
X38700000Y-118705000D02*
X38700000Y-119035000D01*
X53940000Y-59980000D02*
X53940000Y-59650000D01*
X53940000Y-59650000D02*
X60360000Y-59650000D01*
X60360000Y-59650000D02*
X60360000Y-59980000D01*
X53940000Y-61940000D02*
X53940000Y-62270000D01*
X53940000Y-62270000D02*
X60360000Y-62270000D01*
X60360000Y-62270000D02*
X60360000Y-61940000D01*
X69180000Y-59980000D02*
X69180000Y-59650000D01*
X69180000Y-59650000D02*
X75600000Y-59650000D01*
X75600000Y-59650000D02*
X75600000Y-59980000D01*
X69180000Y-61940000D02*
X69180000Y-62270000D01*
X69180000Y-62270000D02*
X75600000Y-62270000D01*
X75600000Y-62270000D02*
X75600000Y-61940000D01*
X84420000Y-59980000D02*
X84420000Y-59650000D01*
X84420000Y-59650000D02*
X90840000Y-59650000D01*
X90840000Y-59650000D02*
X90840000Y-59980000D01*
X84420000Y-61940000D02*
X84420000Y-62270000D01*
X84420000Y-62270000D02*
X90840000Y-62270000D01*
X90840000Y-62270000D02*
X90840000Y-61940000D01*
X100930000Y-59980000D02*
X100930000Y-59650000D01*
X100930000Y-59650000D02*
X107350000Y-59650000D01*
X107350000Y-59650000D02*
X107350000Y-59980000D01*
X100930000Y-61940000D02*
X100930000Y-62270000D01*
X100930000Y-62270000D02*
X107350000Y-62270000D01*
X107350000Y-62270000D02*
X107350000Y-61940000D01*
X42910000Y-73600000D02*
G75*
G02X40910000Y-73600000I-1000000J0D01*
G01*
X40910000Y-73600000D02*
X39260000Y-73600000D01*
X39260000Y-73600000D02*
X39260000Y-94040000D01*
X39260000Y-94040000D02*
X44560000Y-94040000D01*
X44560000Y-94040000D02*
X44560000Y-73600000D01*
X44560000Y-73600000D02*
X42910000Y-73600000D01*
X36770000Y-73540000D02*
X36770000Y-94100000D01*
X36770000Y-94100000D02*
X47050000Y-94100000D01*
X47050000Y-94100000D02*
X47050000Y-73540000D01*
X47050000Y-73540000D02*
X36770000Y-73540000D01*
X34286000Y-45000000D02*
G75*
G03X34286000Y-45000000I-2286000J0D01*
G01*
X115286000Y-45000000D02*
G75*
G03X115286000Y-45000000I-2286000J0D01*
G01*
X115286000Y-138000000D02*
G75*
G03X115286000Y-138000000I-2286000J0D01*
G01*
X34286000Y-138000000D02*
G75*
G03X34286000Y-138000000I-2286000J0D01*
G01*
X48320000Y-45780000D02*
X48320000Y-43120000D01*
X40640000Y-45780000D02*
X48320000Y-45780000D01*
X40640000Y-43120000D02*
X48320000Y-43120000D01*
X40640000Y-45780000D02*
X40640000Y-43120000D01*
X39370000Y-45780000D02*
X38040000Y-45780000D01*
X38040000Y-45780000D02*
X38040000Y-44450000D01*
X41220000Y-57680000D02*
X41220000Y-54080000D01*
X40492795Y-58204184D02*
G75*
G03X41220000Y-57680000I-1122795J2324184D01*
G01*
X38271193Y-58236400D02*
G75*
G02X36770000Y-55880000I1098807J2356400D01*
G01*
X38271193Y-53523600D02*
G75*
G03X36770000Y-55880000I1098807J-2356400D01*
G01*
X40492795Y-53555816D02*
G75*
G02X41220000Y-54080000I-1122795J-2324184D01*
G01*
X47570000Y-57680000D02*
X47570000Y-54080000D01*
X46842795Y-58204184D02*
G75*
G03X47570000Y-57680000I-1122795J2324184D01*
G01*
X44621193Y-58236400D02*
G75*
G02X43120000Y-55880000I1098807J2356400D01*
G01*
X44621193Y-53523600D02*
G75*
G03X43120000Y-55880000I1098807J-2356400D01*
G01*
X46842795Y-53555816D02*
G75*
G02X47570000Y-54080000I-1122795J-2324184D01*
G01*
X37120000Y-69250000D02*
X36790000Y-69250000D01*
X36790000Y-69250000D02*
X36790000Y-62830000D01*
X36790000Y-62830000D02*
X37120000Y-62830000D01*
X39080000Y-69250000D02*
X39410000Y-69250000D01*
X39410000Y-69250000D02*
X39410000Y-62830000D01*
X39410000Y-62830000D02*
X39080000Y-62830000D01*
X40930000Y-69250000D02*
X40600000Y-69250000D01*
X40600000Y-69250000D02*
X40600000Y-62830000D01*
X40600000Y-62830000D02*
X40930000Y-62830000D01*
X42890000Y-69250000D02*
X43220000Y-69250000D01*
X43220000Y-69250000D02*
X43220000Y-62830000D01*
X43220000Y-62830000D02*
X42890000Y-62830000D01*
X56550000Y-50510000D02*
X56550000Y-50840000D01*
X56550000Y-50840000D02*
X50130000Y-50840000D01*
X50130000Y-50840000D02*
X50130000Y-50510000D01*
X56550000Y-48550000D02*
X56550000Y-48220000D01*
X56550000Y-48220000D02*
X50130000Y-48220000D01*
X50130000Y-48220000D02*
X50130000Y-48550000D01*
X56550000Y-54320000D02*
X56550000Y-54650000D01*
X56550000Y-54650000D02*
X50130000Y-54650000D01*
X50130000Y-54650000D02*
X50130000Y-54320000D01*
X56550000Y-52360000D02*
X56550000Y-52030000D01*
X56550000Y-52030000D02*
X50130000Y-52030000D01*
X50130000Y-52030000D02*
X50130000Y-52360000D01*
X56895722Y-114390277D02*
G75*
G03X52284420Y-114390000I-2305722J-1179723D01*
G01*
X56895722Y-116749723D02*
G75*
G02X52284420Y-116750000I-2305722J1179723D01*
G01*
X56895722Y-116749723D02*
G75*
G03X56895580Y-114390000I-2305722J1179723D01*
G01*
X54590000Y-113020000D02*
X54590000Y-118120000D01*
X54630000Y-113020000D02*
X54630000Y-118120000D01*
X54670000Y-113021000D02*
X54670000Y-118119000D01*
X54710000Y-113022000D02*
X54710000Y-118118000D01*
X54750000Y-113024000D02*
X54750000Y-118116000D01*
X54790000Y-113027000D02*
X54790000Y-118113000D01*
X54830000Y-113031000D02*
X54830000Y-118109000D01*
X54870000Y-113035000D02*
X54870000Y-114590000D01*
X54870000Y-116550000D02*
X54870000Y-118105000D01*
X54910000Y-113039000D02*
X54910000Y-114590000D01*
X54910000Y-116550000D02*
X54910000Y-118101000D01*
X54950000Y-113045000D02*
X54950000Y-114590000D01*
X54950000Y-116550000D02*
X54950000Y-118095000D01*
X54990000Y-113051000D02*
X54990000Y-114590000D01*
X54990000Y-116550000D02*
X54990000Y-118089000D01*
X55030000Y-113057000D02*
X55030000Y-114590000D01*
X55030000Y-116550000D02*
X55030000Y-118083000D01*
X55070000Y-113064000D02*
X55070000Y-114590000D01*
X55070000Y-116550000D02*
X55070000Y-118076000D01*
X55110000Y-113072000D02*
X55110000Y-114590000D01*
X55110000Y-116550000D02*
X55110000Y-118068000D01*
X55150000Y-113081000D02*
X55150000Y-114590000D01*
X55150000Y-116550000D02*
X55150000Y-118059000D01*
X55190000Y-113090000D02*
X55190000Y-114590000D01*
X55190000Y-116550000D02*
X55190000Y-118050000D01*
X55230000Y-113100000D02*
X55230000Y-114590000D01*
X55230000Y-116550000D02*
X55230000Y-118040000D01*
X55270000Y-113110000D02*
X55270000Y-114590000D01*
X55270000Y-116550000D02*
X55270000Y-118030000D01*
X55311000Y-113122000D02*
X55311000Y-114590000D01*
X55311000Y-116550000D02*
X55311000Y-118018000D01*
X55351000Y-113134000D02*
X55351000Y-114590000D01*
X55351000Y-116550000D02*
X55351000Y-118006000D01*
X55391000Y-113146000D02*
X55391000Y-114590000D01*
X55391000Y-116550000D02*
X55391000Y-117994000D01*
X55431000Y-113160000D02*
X55431000Y-114590000D01*
X55431000Y-116550000D02*
X55431000Y-117980000D01*
X55471000Y-113174000D02*
X55471000Y-114590000D01*
X55471000Y-116550000D02*
X55471000Y-117966000D01*
X55511000Y-113188000D02*
X55511000Y-114590000D01*
X55511000Y-116550000D02*
X55511000Y-117952000D01*
X55551000Y-113204000D02*
X55551000Y-114590000D01*
X55551000Y-116550000D02*
X55551000Y-117936000D01*
X55591000Y-113220000D02*
X55591000Y-114590000D01*
X55591000Y-116550000D02*
X55591000Y-117920000D01*
X55631000Y-113237000D02*
X55631000Y-114590000D01*
X55631000Y-116550000D02*
X55631000Y-117903000D01*
X55671000Y-113255000D02*
X55671000Y-114590000D01*
X55671000Y-116550000D02*
X55671000Y-117885000D01*
X55711000Y-113274000D02*
X55711000Y-114590000D01*
X55711000Y-116550000D02*
X55711000Y-117866000D01*
X55751000Y-113294000D02*
X55751000Y-114590000D01*
X55751000Y-116550000D02*
X55751000Y-117846000D01*
X55791000Y-113314000D02*
X55791000Y-114590000D01*
X55791000Y-116550000D02*
X55791000Y-117826000D01*
X55831000Y-113336000D02*
X55831000Y-114590000D01*
X55831000Y-116550000D02*
X55831000Y-117804000D01*
X55871000Y-113358000D02*
X55871000Y-114590000D01*
X55871000Y-116550000D02*
X55871000Y-117782000D01*
X55911000Y-113381000D02*
X55911000Y-114590000D01*
X55911000Y-116550000D02*
X55911000Y-117759000D01*
X55951000Y-113405000D02*
X55951000Y-114590000D01*
X55951000Y-116550000D02*
X55951000Y-117735000D01*
X55991000Y-113430000D02*
X55991000Y-114590000D01*
X55991000Y-116550000D02*
X55991000Y-117710000D01*
X56031000Y-113457000D02*
X56031000Y-114590000D01*
X56031000Y-116550000D02*
X56031000Y-117683000D01*
X56071000Y-113484000D02*
X56071000Y-114590000D01*
X56071000Y-116550000D02*
X56071000Y-117656000D01*
X56111000Y-113512000D02*
X56111000Y-114590000D01*
X56111000Y-116550000D02*
X56111000Y-117628000D01*
X56151000Y-113542000D02*
X56151000Y-114590000D01*
X56151000Y-116550000D02*
X56151000Y-117598000D01*
X56191000Y-113573000D02*
X56191000Y-114590000D01*
X56191000Y-116550000D02*
X56191000Y-117567000D01*
X56231000Y-113605000D02*
X56231000Y-114590000D01*
X56231000Y-116550000D02*
X56231000Y-117535000D01*
X56271000Y-113638000D02*
X56271000Y-114590000D01*
X56271000Y-116550000D02*
X56271000Y-117502000D01*
X56311000Y-113673000D02*
X56311000Y-114590000D01*
X56311000Y-116550000D02*
X56311000Y-117467000D01*
X56351000Y-113709000D02*
X56351000Y-114590000D01*
X56351000Y-116550000D02*
X56351000Y-117431000D01*
X56391000Y-113747000D02*
X56391000Y-114590000D01*
X56391000Y-116550000D02*
X56391000Y-117393000D01*
X56431000Y-113787000D02*
X56431000Y-114590000D01*
X56431000Y-116550000D02*
X56431000Y-117353000D01*
X56471000Y-113828000D02*
X56471000Y-114590000D01*
X56471000Y-116550000D02*
X56471000Y-117312000D01*
X56511000Y-113871000D02*
X56511000Y-114590000D01*
X56511000Y-116550000D02*
X56511000Y-117269000D01*
X56551000Y-113916000D02*
X56551000Y-114590000D01*
X56551000Y-116550000D02*
X56551000Y-117224000D01*
X56591000Y-113964000D02*
X56591000Y-114590000D01*
X56591000Y-116550000D02*
X56591000Y-117176000D01*
X56631000Y-114014000D02*
X56631000Y-114590000D01*
X56631000Y-116550000D02*
X56631000Y-117126000D01*
X56671000Y-114066000D02*
X56671000Y-114590000D01*
X56671000Y-116550000D02*
X56671000Y-117074000D01*
X56711000Y-114122000D02*
X56711000Y-114590000D01*
X56711000Y-116550000D02*
X56711000Y-117018000D01*
X56751000Y-114180000D02*
X56751000Y-114590000D01*
X56751000Y-116550000D02*
X56751000Y-116960000D01*
X56791000Y-114243000D02*
X56791000Y-114590000D01*
X56791000Y-116550000D02*
X56791000Y-116897000D01*
X56831000Y-114309000D02*
X56831000Y-116831000D01*
X56871000Y-114381000D02*
X56871000Y-116759000D01*
X56911000Y-114458000D02*
X56911000Y-116682000D01*
X56951000Y-114542000D02*
X56951000Y-116598000D01*
X56991000Y-114636000D02*
X56991000Y-116504000D01*
X57031000Y-114741000D02*
X57031000Y-116399000D01*
X57071000Y-114863000D02*
X57071000Y-116277000D01*
X57111000Y-115011000D02*
X57111000Y-116129000D01*
X57151000Y-115216000D02*
X57151000Y-115924000D01*
X51140000Y-115570000D02*
X52340000Y-115570000D01*
X51740000Y-114920000D02*
X51740000Y-116220000D01*
X101386000Y-129834000D02*
X96266000Y-129834000D01*
X101386000Y-127214000D02*
X96266000Y-127214000D01*
X101386000Y-129834000D02*
X101386000Y-127214000D01*
X96266000Y-129834000D02*
X96266000Y-127214000D01*
X101814000Y-121198000D02*
X101814000Y-116078000D01*
X104434000Y-121198000D02*
X104434000Y-116078000D01*
X101814000Y-121198000D02*
X104434000Y-121198000D01*
X101814000Y-116078000D02*
X104434000Y-116078000D01*
X66000000Y-139105000D02*
X66000000Y-133985000D01*
X68620000Y-139105000D02*
X68620000Y-133985000D01*
X66000000Y-139105000D02*
X68620000Y-139105000D01*
X66000000Y-133985000D02*
X68620000Y-133985000D01*
X103976277Y-124968278D02*
G75*
G03X103976000Y-129579580I1179723J-2305722D01*
G01*
X106335723Y-124968278D02*
G75*
G02X106336000Y-129579580I-1179723J-2305722D01*
G01*
X106335723Y-124968278D02*
G75*
G03X103976000Y-124968420I-1179723J-2305722D01*
G01*
X102606000Y-127274000D02*
X107706000Y-127274000D01*
X102606000Y-127234000D02*
X107706000Y-127234000D01*
X102607000Y-127194000D02*
X107705000Y-127194000D01*
X102608000Y-127154000D02*
X107704000Y-127154000D01*
X102610000Y-127114000D02*
X107702000Y-127114000D01*
X102613000Y-127074000D02*
X107699000Y-127074000D01*
X102617000Y-127034000D02*
X107695000Y-127034000D01*
X102621000Y-126994000D02*
X104176000Y-126994000D01*
X106136000Y-126994000D02*
X107691000Y-126994000D01*
X102625000Y-126954000D02*
X104176000Y-126954000D01*
X106136000Y-126954000D02*
X107687000Y-126954000D01*
X102631000Y-126914000D02*
X104176000Y-126914000D01*
X106136000Y-126914000D02*
X107681000Y-126914000D01*
X102637000Y-126874000D02*
X104176000Y-126874000D01*
X106136000Y-126874000D02*
X107675000Y-126874000D01*
X102643000Y-126834000D02*
X104176000Y-126834000D01*
X106136000Y-126834000D02*
X107669000Y-126834000D01*
X102650000Y-126794000D02*
X104176000Y-126794000D01*
X106136000Y-126794000D02*
X107662000Y-126794000D01*
X102658000Y-126754000D02*
X104176000Y-126754000D01*
X106136000Y-126754000D02*
X107654000Y-126754000D01*
X102667000Y-126714000D02*
X104176000Y-126714000D01*
X106136000Y-126714000D02*
X107645000Y-126714000D01*
X102676000Y-126674000D02*
X104176000Y-126674000D01*
X106136000Y-126674000D02*
X107636000Y-126674000D01*
X102686000Y-126634000D02*
X104176000Y-126634000D01*
X106136000Y-126634000D02*
X107626000Y-126634000D01*
X102696000Y-126594000D02*
X104176000Y-126594000D01*
X106136000Y-126594000D02*
X107616000Y-126594000D01*
X102708000Y-126553000D02*
X104176000Y-126553000D01*
X106136000Y-126553000D02*
X107604000Y-126553000D01*
X102720000Y-126513000D02*
X104176000Y-126513000D01*
X106136000Y-126513000D02*
X107592000Y-126513000D01*
X102732000Y-126473000D02*
X104176000Y-126473000D01*
X106136000Y-126473000D02*
X107580000Y-126473000D01*
X102746000Y-126433000D02*
X104176000Y-126433000D01*
X106136000Y-126433000D02*
X107566000Y-126433000D01*
X102760000Y-126393000D02*
X104176000Y-126393000D01*
X106136000Y-126393000D02*
X107552000Y-126393000D01*
X102774000Y-126353000D02*
X104176000Y-126353000D01*
X106136000Y-126353000D02*
X107538000Y-126353000D01*
X102790000Y-126313000D02*
X104176000Y-126313000D01*
X106136000Y-126313000D02*
X107522000Y-126313000D01*
X102806000Y-126273000D02*
X104176000Y-126273000D01*
X106136000Y-126273000D02*
X107506000Y-126273000D01*
X102823000Y-126233000D02*
X104176000Y-126233000D01*
X106136000Y-126233000D02*
X107489000Y-126233000D01*
X102841000Y-126193000D02*
X104176000Y-126193000D01*
X106136000Y-126193000D02*
X107471000Y-126193000D01*
X102860000Y-126153000D02*
X104176000Y-126153000D01*
X106136000Y-126153000D02*
X107452000Y-126153000D01*
X102880000Y-126113000D02*
X104176000Y-126113000D01*
X106136000Y-126113000D02*
X107432000Y-126113000D01*
X102900000Y-126073000D02*
X104176000Y-126073000D01*
X106136000Y-126073000D02*
X107412000Y-126073000D01*
X102922000Y-126033000D02*
X104176000Y-126033000D01*
X106136000Y-126033000D02*
X107390000Y-126033000D01*
X102944000Y-125993000D02*
X104176000Y-125993000D01*
X106136000Y-125993000D02*
X107368000Y-125993000D01*
X102967000Y-125953000D02*
X104176000Y-125953000D01*
X106136000Y-125953000D02*
X107345000Y-125953000D01*
X102991000Y-125913000D02*
X104176000Y-125913000D01*
X106136000Y-125913000D02*
X107321000Y-125913000D01*
X103016000Y-125873000D02*
X104176000Y-125873000D01*
X106136000Y-125873000D02*
X107296000Y-125873000D01*
X103043000Y-125833000D02*
X104176000Y-125833000D01*
X106136000Y-125833000D02*
X107269000Y-125833000D01*
X103070000Y-125793000D02*
X104176000Y-125793000D01*
X106136000Y-125793000D02*
X107242000Y-125793000D01*
X103098000Y-125753000D02*
X104176000Y-125753000D01*
X106136000Y-125753000D02*
X107214000Y-125753000D01*
X103128000Y-125713000D02*
X104176000Y-125713000D01*
X106136000Y-125713000D02*
X107184000Y-125713000D01*
X103159000Y-125673000D02*
X104176000Y-125673000D01*
X106136000Y-125673000D02*
X107153000Y-125673000D01*
X103191000Y-125633000D02*
X104176000Y-125633000D01*
X106136000Y-125633000D02*
X107121000Y-125633000D01*
X103224000Y-125593000D02*
X104176000Y-125593000D01*
X106136000Y-125593000D02*
X107088000Y-125593000D01*
X103259000Y-125553000D02*
X104176000Y-125553000D01*
X106136000Y-125553000D02*
X107053000Y-125553000D01*
X103295000Y-125513000D02*
X104176000Y-125513000D01*
X106136000Y-125513000D02*
X107017000Y-125513000D01*
X103333000Y-125473000D02*
X104176000Y-125473000D01*
X106136000Y-125473000D02*
X106979000Y-125473000D01*
X103373000Y-125433000D02*
X104176000Y-125433000D01*
X106136000Y-125433000D02*
X106939000Y-125433000D01*
X103414000Y-125393000D02*
X104176000Y-125393000D01*
X106136000Y-125393000D02*
X106898000Y-125393000D01*
X103457000Y-125353000D02*
X104176000Y-125353000D01*
X106136000Y-125353000D02*
X106855000Y-125353000D01*
X103502000Y-125313000D02*
X104176000Y-125313000D01*
X106136000Y-125313000D02*
X106810000Y-125313000D01*
X103550000Y-125273000D02*
X104176000Y-125273000D01*
X106136000Y-125273000D02*
X106762000Y-125273000D01*
X103600000Y-125233000D02*
X104176000Y-125233000D01*
X106136000Y-125233000D02*
X106712000Y-125233000D01*
X103652000Y-125193000D02*
X104176000Y-125193000D01*
X106136000Y-125193000D02*
X106660000Y-125193000D01*
X103708000Y-125153000D02*
X104176000Y-125153000D01*
X106136000Y-125153000D02*
X106604000Y-125153000D01*
X103766000Y-125113000D02*
X104176000Y-125113000D01*
X106136000Y-125113000D02*
X106546000Y-125113000D01*
X103829000Y-125073000D02*
X104176000Y-125073000D01*
X106136000Y-125073000D02*
X106483000Y-125073000D01*
X103895000Y-125033000D02*
X106417000Y-125033000D01*
X103967000Y-124993000D02*
X106345000Y-124993000D01*
X104044000Y-124953000D02*
X106268000Y-124953000D01*
X104128000Y-124913000D02*
X106184000Y-124913000D01*
X104222000Y-124873000D02*
X106090000Y-124873000D01*
X104327000Y-124833000D02*
X105985000Y-124833000D01*
X104449000Y-124793000D02*
X105863000Y-124793000D01*
X104597000Y-124753000D02*
X105715000Y-124753000D01*
X104802000Y-124713000D02*
X105510000Y-124713000D01*
X105156000Y-130724000D02*
X105156000Y-129524000D01*
X104506000Y-130124000D02*
X105806000Y-130124000D01*
X77379723Y-117855722D02*
G75*
G03X77380000Y-113244420I-1179723J2305722D01*
G01*
X75020277Y-117855722D02*
G75*
G02X75020000Y-113244420I1179723J2305722D01*
G01*
X75020277Y-117855722D02*
G75*
G03X77380000Y-117855580I1179723J2305722D01*
G01*
X78750000Y-115550000D02*
X73650000Y-115550000D01*
X78750000Y-115590000D02*
X73650000Y-115590000D01*
X78749000Y-115630000D02*
X73651000Y-115630000D01*
X78748000Y-115670000D02*
X73652000Y-115670000D01*
X78746000Y-115710000D02*
X73654000Y-115710000D01*
X78743000Y-115750000D02*
X73657000Y-115750000D01*
X78739000Y-115790000D02*
X73661000Y-115790000D01*
X78735000Y-115830000D02*
X77180000Y-115830000D01*
X75220000Y-115830000D02*
X73665000Y-115830000D01*
X78731000Y-115870000D02*
X77180000Y-115870000D01*
X75220000Y-115870000D02*
X73669000Y-115870000D01*
X78725000Y-115910000D02*
X77180000Y-115910000D01*
X75220000Y-115910000D02*
X73675000Y-115910000D01*
X78719000Y-115950000D02*
X77180000Y-115950000D01*
X75220000Y-115950000D02*
X73681000Y-115950000D01*
X78713000Y-115990000D02*
X77180000Y-115990000D01*
X75220000Y-115990000D02*
X73687000Y-115990000D01*
X78706000Y-116030000D02*
X77180000Y-116030000D01*
X75220000Y-116030000D02*
X73694000Y-116030000D01*
X78698000Y-116070000D02*
X77180000Y-116070000D01*
X75220000Y-116070000D02*
X73702000Y-116070000D01*
X78689000Y-116110000D02*
X77180000Y-116110000D01*
X75220000Y-116110000D02*
X73711000Y-116110000D01*
X78680000Y-116150000D02*
X77180000Y-116150000D01*
X75220000Y-116150000D02*
X73720000Y-116150000D01*
X78670000Y-116190000D02*
X77180000Y-116190000D01*
X75220000Y-116190000D02*
X73730000Y-116190000D01*
X78660000Y-116230000D02*
X77180000Y-116230000D01*
X75220000Y-116230000D02*
X73740000Y-116230000D01*
X78648000Y-116271000D02*
X77180000Y-116271000D01*
X75220000Y-116271000D02*
X73752000Y-116271000D01*
X78636000Y-116311000D02*
X77180000Y-116311000D01*
X75220000Y-116311000D02*
X73764000Y-116311000D01*
X78624000Y-116351000D02*
X77180000Y-116351000D01*
X75220000Y-116351000D02*
X73776000Y-116351000D01*
X78610000Y-116391000D02*
X77180000Y-116391000D01*
X75220000Y-116391000D02*
X73790000Y-116391000D01*
X78596000Y-116431000D02*
X77180000Y-116431000D01*
X75220000Y-116431000D02*
X73804000Y-116431000D01*
X78582000Y-116471000D02*
X77180000Y-116471000D01*
X75220000Y-116471000D02*
X73818000Y-116471000D01*
X78566000Y-116511000D02*
X77180000Y-116511000D01*
X75220000Y-116511000D02*
X73834000Y-116511000D01*
X78550000Y-116551000D02*
X77180000Y-116551000D01*
X75220000Y-116551000D02*
X73850000Y-116551000D01*
X78533000Y-116591000D02*
X77180000Y-116591000D01*
X75220000Y-116591000D02*
X73867000Y-116591000D01*
X78515000Y-116631000D02*
X77180000Y-116631000D01*
X75220000Y-116631000D02*
X73885000Y-116631000D01*
X78496000Y-116671000D02*
X77180000Y-116671000D01*
X75220000Y-116671000D02*
X73904000Y-116671000D01*
X78476000Y-116711000D02*
X77180000Y-116711000D01*
X75220000Y-116711000D02*
X73924000Y-116711000D01*
X78456000Y-116751000D02*
X77180000Y-116751000D01*
X75220000Y-116751000D02*
X73944000Y-116751000D01*
X78434000Y-116791000D02*
X77180000Y-116791000D01*
X75220000Y-116791000D02*
X73966000Y-116791000D01*
X78412000Y-116831000D02*
X77180000Y-116831000D01*
X75220000Y-116831000D02*
X73988000Y-116831000D01*
X78389000Y-116871000D02*
X77180000Y-116871000D01*
X75220000Y-116871000D02*
X74011000Y-116871000D01*
X78365000Y-116911000D02*
X77180000Y-116911000D01*
X75220000Y-116911000D02*
X74035000Y-116911000D01*
X78340000Y-116951000D02*
X77180000Y-116951000D01*
X75220000Y-116951000D02*
X74060000Y-116951000D01*
X78313000Y-116991000D02*
X77180000Y-116991000D01*
X75220000Y-116991000D02*
X74087000Y-116991000D01*
X78286000Y-117031000D02*
X77180000Y-117031000D01*
X75220000Y-117031000D02*
X74114000Y-117031000D01*
X78258000Y-117071000D02*
X77180000Y-117071000D01*
X75220000Y-117071000D02*
X74142000Y-117071000D01*
X78228000Y-117111000D02*
X77180000Y-117111000D01*
X75220000Y-117111000D02*
X74172000Y-117111000D01*
X78197000Y-117151000D02*
X77180000Y-117151000D01*
X75220000Y-117151000D02*
X74203000Y-117151000D01*
X78165000Y-117191000D02*
X77180000Y-117191000D01*
X75220000Y-117191000D02*
X74235000Y-117191000D01*
X78132000Y-117231000D02*
X77180000Y-117231000D01*
X75220000Y-117231000D02*
X74268000Y-117231000D01*
X78097000Y-117271000D02*
X77180000Y-117271000D01*
X75220000Y-117271000D02*
X74303000Y-117271000D01*
X78061000Y-117311000D02*
X77180000Y-117311000D01*
X75220000Y-117311000D02*
X74339000Y-117311000D01*
X78023000Y-117351000D02*
X77180000Y-117351000D01*
X75220000Y-117351000D02*
X74377000Y-117351000D01*
X77983000Y-117391000D02*
X77180000Y-117391000D01*
X75220000Y-117391000D02*
X74417000Y-117391000D01*
X77942000Y-117431000D02*
X77180000Y-117431000D01*
X75220000Y-117431000D02*
X74458000Y-117431000D01*
X77899000Y-117471000D02*
X77180000Y-117471000D01*
X75220000Y-117471000D02*
X74501000Y-117471000D01*
X77854000Y-117511000D02*
X77180000Y-117511000D01*
X75220000Y-117511000D02*
X74546000Y-117511000D01*
X77806000Y-117551000D02*
X77180000Y-117551000D01*
X75220000Y-117551000D02*
X74594000Y-117551000D01*
X77756000Y-117591000D02*
X77180000Y-117591000D01*
X75220000Y-117591000D02*
X74644000Y-117591000D01*
X77704000Y-117631000D02*
X77180000Y-117631000D01*
X75220000Y-117631000D02*
X74696000Y-117631000D01*
X77648000Y-117671000D02*
X77180000Y-117671000D01*
X75220000Y-117671000D02*
X74752000Y-117671000D01*
X77590000Y-117711000D02*
X77180000Y-117711000D01*
X75220000Y-117711000D02*
X74810000Y-117711000D01*
X77527000Y-117751000D02*
X77180000Y-117751000D01*
X75220000Y-117751000D02*
X74873000Y-117751000D01*
X77461000Y-117791000D02*
X74939000Y-117791000D01*
X77389000Y-117831000D02*
X75011000Y-117831000D01*
X77312000Y-117871000D02*
X75088000Y-117871000D01*
X77228000Y-117911000D02*
X75172000Y-117911000D01*
X77134000Y-117951000D02*
X75266000Y-117951000D01*
X77029000Y-117991000D02*
X75371000Y-117991000D01*
X76907000Y-118031000D02*
X75493000Y-118031000D01*
X76759000Y-118071000D02*
X75641000Y-118071000D01*
X76554000Y-118111000D02*
X75846000Y-118111000D01*
X76200000Y-112100000D02*
X76200000Y-113300000D01*
X76850000Y-112700000D02*
X75550000Y-112700000D01*
X85350000Y-140730000D02*
X85350000Y-138070000D01*
X77670000Y-140730000D02*
X85350000Y-140730000D01*
X77670000Y-138070000D02*
X85350000Y-138070000D01*
X77670000Y-140730000D02*
X77670000Y-138070000D01*
X76400000Y-140730000D02*
X75070000Y-140730000D01*
X75070000Y-140730000D02*
X75070000Y-139400000D01*
X96980000Y-133460000D02*
X107140000Y-133460000D01*
X96980000Y-132190000D02*
X96980000Y-139810000D01*
X96980000Y-139810000D02*
X107140000Y-139810000D01*
X107140000Y-139810000D02*
X107140000Y-132190000D01*
X107140000Y-132190000D02*
X96980000Y-132190000D01*
X63535000Y-139410000D02*
X63535000Y-139740000D01*
X63535000Y-139740000D02*
X57115000Y-139740000D01*
X57115000Y-139740000D02*
X57115000Y-139410000D01*
X63535000Y-137450000D02*
X63535000Y-137120000D01*
X63535000Y-137120000D02*
X57115000Y-137120000D01*
X57115000Y-137120000D02*
X57115000Y-137450000D01*
X89695000Y-138250000D02*
X89365000Y-138250000D01*
X89365000Y-138250000D02*
X89365000Y-131830000D01*
X89365000Y-131830000D02*
X89695000Y-131830000D01*
X91655000Y-138250000D02*
X91985000Y-138250000D01*
X91985000Y-138250000D02*
X91985000Y-131830000D01*
X91985000Y-131830000D02*
X91655000Y-131830000D01*
X92970000Y-138200000D02*
X92640000Y-138200000D01*
X92640000Y-138200000D02*
X92640000Y-131780000D01*
X92640000Y-131780000D02*
X92970000Y-131780000D01*
X94930000Y-138200000D02*
X95260000Y-138200000D01*
X95260000Y-138200000D02*
X95260000Y-131780000D01*
X95260000Y-131780000D02*
X94930000Y-131780000D01*
X53630000Y-127670000D02*
X53300000Y-127670000D01*
X53300000Y-127670000D02*
X53300000Y-121250000D01*
X53300000Y-121250000D02*
X53630000Y-121250000D01*
X55590000Y-127670000D02*
X55920000Y-127670000D01*
X55920000Y-127670000D02*
X55920000Y-121250000D01*
X55920000Y-121250000D02*
X55590000Y-121250000D01*
X72810000Y-123690000D02*
X73140000Y-123690000D01*
X73140000Y-123690000D02*
X73140000Y-130110000D01*
X73140000Y-130110000D02*
X72810000Y-130110000D01*
X70850000Y-123690000D02*
X70520000Y-123690000D01*
X70520000Y-123690000D02*
X70520000Y-130110000D01*
X70520000Y-130110000D02*
X70850000Y-130110000D01*
X63535000Y-136235000D02*
X63535000Y-136565000D01*
X63535000Y-136565000D02*
X57115000Y-136565000D01*
X57115000Y-136565000D02*
X57115000Y-136235000D01*
X63535000Y-134275000D02*
X63535000Y-133945000D01*
X63535000Y-133945000D02*
X57115000Y-133945000D01*
X57115000Y-133945000D02*
X57115000Y-134275000D01*
X105700000Y-122590000D02*
X105370000Y-122590000D01*
X105370000Y-122590000D02*
X105370000Y-116170000D01*
X105370000Y-116170000D02*
X105700000Y-116170000D01*
X107660000Y-122590000D02*
X107990000Y-122590000D01*
X107990000Y-122590000D02*
X107990000Y-116170000D01*
X107990000Y-116170000D02*
X107660000Y-116170000D01*
X71530000Y-115190000D02*
X71530000Y-115520000D01*
X71530000Y-115520000D02*
X65110000Y-115520000D01*
X65110000Y-115520000D02*
X65110000Y-115190000D01*
X71530000Y-113230000D02*
X71530000Y-112900000D01*
X71530000Y-112900000D02*
X65110000Y-112900000D01*
X65110000Y-112900000D02*
X65110000Y-113230000D01*
X79030000Y-127924000D02*
X78700000Y-127924000D01*
X78700000Y-127924000D02*
X78700000Y-121504000D01*
X78700000Y-121504000D02*
X79030000Y-121504000D01*
X80990000Y-127924000D02*
X81320000Y-127924000D01*
X81320000Y-127924000D02*
X81320000Y-121504000D01*
X81320000Y-121504000D02*
X80990000Y-121504000D01*
X82332000Y-127924000D02*
X82002000Y-127924000D01*
X82002000Y-127924000D02*
X82002000Y-121504000D01*
X82002000Y-121504000D02*
X82332000Y-121504000D01*
X84292000Y-127924000D02*
X84622000Y-127924000D01*
X84622000Y-127924000D02*
X84622000Y-121504000D01*
X84622000Y-121504000D02*
X84292000Y-121504000D01*
X77180000Y-123790000D02*
X77510000Y-123790000D01*
X77510000Y-123790000D02*
X77510000Y-130210000D01*
X77510000Y-130210000D02*
X77180000Y-130210000D01*
X75220000Y-123790000D02*
X74890000Y-123790000D01*
X74890000Y-123790000D02*
X74890000Y-130210000D01*
X74890000Y-130210000D02*
X75220000Y-130210000D01*
X96758000Y-116526000D02*
G75*
G02X94758000Y-116526000I-1000000J0D01*
G01*
X94758000Y-116526000D02*
X93108000Y-116526000D01*
X93108000Y-116526000D02*
X93108000Y-126806000D01*
X93108000Y-126806000D02*
X98408000Y-126806000D01*
X98408000Y-126806000D02*
X98408000Y-116526000D01*
X98408000Y-116526000D02*
X96758000Y-116526000D01*
X90618000Y-116466000D02*
X90618000Y-126866000D01*
X90618000Y-126866000D02*
X100898000Y-126866000D01*
X100898000Y-126866000D02*
X100898000Y-116466000D01*
X100898000Y-116466000D02*
X90618000Y-116466000D01*
X68005000Y-128635000D02*
G75*
G02X68005000Y-126635000I0J1000000D01*
G01*
X68005000Y-126635000D02*
X68005000Y-124985000D01*
X68005000Y-124985000D02*
X57725000Y-124985000D01*
X57725000Y-124985000D02*
X57725000Y-130285000D01*
X57725000Y-130285000D02*
X68005000Y-130285000D01*
X68005000Y-130285000D02*
X68005000Y-128635000D01*
X68065000Y-122495000D02*
X57665000Y-122495000D01*
X57665000Y-122495000D02*
X57665000Y-132775000D01*
X57665000Y-132775000D02*
X68065000Y-132775000D01*
X68065000Y-132775000D02*
X68065000Y-122495000D01*
X57700000Y-118900000D02*
X62820000Y-118900000D01*
X57700000Y-121520000D02*
X62820000Y-121520000D01*
X57700000Y-118900000D02*
X57700000Y-121520000D01*
X62820000Y-118900000D02*
X62820000Y-121520000D01*
X85180277Y-113284278D02*
G75*
G03X85180000Y-117895580I1179723J-2305722D01*
G01*
X87539723Y-113284278D02*
G75*
G02X87540000Y-117895580I-1179723J-2305722D01*
G01*
X87539723Y-113284278D02*
G75*
G03X85180000Y-113284420I-1179723J-2305722D01*
G01*
X83810000Y-115590000D02*
X88910000Y-115590000D01*
X83810000Y-115550000D02*
X88910000Y-115550000D01*
X83811000Y-115510000D02*
X88909000Y-115510000D01*
X83812000Y-115470000D02*
X88908000Y-115470000D01*
X83814000Y-115430000D02*
X88906000Y-115430000D01*
X83817000Y-115390000D02*
X88903000Y-115390000D01*
X83821000Y-115350000D02*
X88899000Y-115350000D01*
X83825000Y-115310000D02*
X85380000Y-115310000D01*
X87340000Y-115310000D02*
X88895000Y-115310000D01*
X83829000Y-115270000D02*
X85380000Y-115270000D01*
X87340000Y-115270000D02*
X88891000Y-115270000D01*
X83835000Y-115230000D02*
X85380000Y-115230000D01*
X87340000Y-115230000D02*
X88885000Y-115230000D01*
X83841000Y-115190000D02*
X85380000Y-115190000D01*
X87340000Y-115190000D02*
X88879000Y-115190000D01*
X83847000Y-115150000D02*
X85380000Y-115150000D01*
X87340000Y-115150000D02*
X88873000Y-115150000D01*
X83854000Y-115110000D02*
X85380000Y-115110000D01*
X87340000Y-115110000D02*
X88866000Y-115110000D01*
X83862000Y-115070000D02*
X85380000Y-115070000D01*
X87340000Y-115070000D02*
X88858000Y-115070000D01*
X83871000Y-115030000D02*
X85380000Y-115030000D01*
X87340000Y-115030000D02*
X88849000Y-115030000D01*
X83880000Y-114990000D02*
X85380000Y-114990000D01*
X87340000Y-114990000D02*
X88840000Y-114990000D01*
X83890000Y-114950000D02*
X85380000Y-114950000D01*
X87340000Y-114950000D02*
X88830000Y-114950000D01*
X83900000Y-114910000D02*
X85380000Y-114910000D01*
X87340000Y-114910000D02*
X88820000Y-114910000D01*
X83912000Y-114869000D02*
X85380000Y-114869000D01*
X87340000Y-114869000D02*
X88808000Y-114869000D01*
X83924000Y-114829000D02*
X85380000Y-114829000D01*
X87340000Y-114829000D02*
X88796000Y-114829000D01*
X83936000Y-114789000D02*
X85380000Y-114789000D01*
X87340000Y-114789000D02*
X88784000Y-114789000D01*
X83950000Y-114749000D02*
X85380000Y-114749000D01*
X87340000Y-114749000D02*
X88770000Y-114749000D01*
X83964000Y-114709000D02*
X85380000Y-114709000D01*
X87340000Y-114709000D02*
X88756000Y-114709000D01*
X83978000Y-114669000D02*
X85380000Y-114669000D01*
X87340000Y-114669000D02*
X88742000Y-114669000D01*
X83994000Y-114629000D02*
X85380000Y-114629000D01*
X87340000Y-114629000D02*
X88726000Y-114629000D01*
X84010000Y-114589000D02*
X85380000Y-114589000D01*
X87340000Y-114589000D02*
X88710000Y-114589000D01*
X84027000Y-114549000D02*
X85380000Y-114549000D01*
X87340000Y-114549000D02*
X88693000Y-114549000D01*
X84045000Y-114509000D02*
X85380000Y-114509000D01*
X87340000Y-114509000D02*
X88675000Y-114509000D01*
X84064000Y-114469000D02*
X85380000Y-114469000D01*
X87340000Y-114469000D02*
X88656000Y-114469000D01*
X84084000Y-114429000D02*
X85380000Y-114429000D01*
X87340000Y-114429000D02*
X88636000Y-114429000D01*
X84104000Y-114389000D02*
X85380000Y-114389000D01*
X87340000Y-114389000D02*
X88616000Y-114389000D01*
X84126000Y-114349000D02*
X85380000Y-114349000D01*
X87340000Y-114349000D02*
X88594000Y-114349000D01*
X84148000Y-114309000D02*
X85380000Y-114309000D01*
X87340000Y-114309000D02*
X88572000Y-114309000D01*
X84171000Y-114269000D02*
X85380000Y-114269000D01*
X87340000Y-114269000D02*
X88549000Y-114269000D01*
X84195000Y-114229000D02*
X85380000Y-114229000D01*
X87340000Y-114229000D02*
X88525000Y-114229000D01*
X84220000Y-114189000D02*
X85380000Y-114189000D01*
X87340000Y-114189000D02*
X88500000Y-114189000D01*
X84247000Y-114149000D02*
X85380000Y-114149000D01*
X87340000Y-114149000D02*
X88473000Y-114149000D01*
X84274000Y-114109000D02*
X85380000Y-114109000D01*
X87340000Y-114109000D02*
X88446000Y-114109000D01*
X84302000Y-114069000D02*
X85380000Y-114069000D01*
X87340000Y-114069000D02*
X88418000Y-114069000D01*
X84332000Y-114029000D02*
X85380000Y-114029000D01*
X87340000Y-114029000D02*
X88388000Y-114029000D01*
X84363000Y-113989000D02*
X85380000Y-113989000D01*
X87340000Y-113989000D02*
X88357000Y-113989000D01*
X84395000Y-113949000D02*
X85380000Y-113949000D01*
X87340000Y-113949000D02*
X88325000Y-113949000D01*
X84428000Y-113909000D02*
X85380000Y-113909000D01*
X87340000Y-113909000D02*
X88292000Y-113909000D01*
X84463000Y-113869000D02*
X85380000Y-113869000D01*
X87340000Y-113869000D02*
X88257000Y-113869000D01*
X84499000Y-113829000D02*
X85380000Y-113829000D01*
X87340000Y-113829000D02*
X88221000Y-113829000D01*
X84537000Y-113789000D02*
X85380000Y-113789000D01*
X87340000Y-113789000D02*
X88183000Y-113789000D01*
X84577000Y-113749000D02*
X85380000Y-113749000D01*
X87340000Y-113749000D02*
X88143000Y-113749000D01*
X84618000Y-113709000D02*
X85380000Y-113709000D01*
X87340000Y-113709000D02*
X88102000Y-113709000D01*
X84661000Y-113669000D02*
X85380000Y-113669000D01*
X87340000Y-113669000D02*
X88059000Y-113669000D01*
X84706000Y-113629000D02*
X85380000Y-113629000D01*
X87340000Y-113629000D02*
X88014000Y-113629000D01*
X84754000Y-113589000D02*
X85380000Y-113589000D01*
X87340000Y-113589000D02*
X87966000Y-113589000D01*
X84804000Y-113549000D02*
X85380000Y-113549000D01*
X87340000Y-113549000D02*
X87916000Y-113549000D01*
X84856000Y-113509000D02*
X85380000Y-113509000D01*
X87340000Y-113509000D02*
X87864000Y-113509000D01*
X84912000Y-113469000D02*
X85380000Y-113469000D01*
X87340000Y-113469000D02*
X87808000Y-113469000D01*
X84970000Y-113429000D02*
X85380000Y-113429000D01*
X87340000Y-113429000D02*
X87750000Y-113429000D01*
X85033000Y-113389000D02*
X85380000Y-113389000D01*
X87340000Y-113389000D02*
X87687000Y-113389000D01*
X85099000Y-113349000D02*
X87621000Y-113349000D01*
X85171000Y-113309000D02*
X87549000Y-113309000D01*
X85248000Y-113269000D02*
X87472000Y-113269000D01*
X85332000Y-113229000D02*
X87388000Y-113229000D01*
X85426000Y-113189000D02*
X87294000Y-113189000D01*
X85531000Y-113149000D02*
X87189000Y-113149000D01*
X85653000Y-113109000D02*
X87067000Y-113109000D01*
X85801000Y-113069000D02*
X86919000Y-113069000D01*
X86006000Y-113029000D02*
X86714000Y-113029000D01*
X86360000Y-119040000D02*
X86360000Y-117840000D01*
X85710000Y-118440000D02*
X87010000Y-118440000D01*
X98800000Y-114100000D02*
X98800000Y-114430000D01*
X98800000Y-114430000D02*
X92380000Y-114430000D01*
X92380000Y-114430000D02*
X92380000Y-114100000D01*
X98800000Y-112140000D02*
X98800000Y-111810000D01*
X98800000Y-111810000D02*
X92380000Y-111810000D01*
X92380000Y-111810000D02*
X92380000Y-112140000D01*
D11*
X87034762Y-131262381D02*
X86701428Y-130786190D01*
X86463333Y-131262381D02*
X86463333Y-130262381D01*
X86844286Y-130262381D01*
X86939524Y-130310000D01*
X86987143Y-130357619D01*
X87034762Y-130452857D01*
X87034762Y-130595714D01*
X86987143Y-130690952D01*
X86939524Y-130738571D01*
X86844286Y-130786190D01*
X86463333Y-130786190D01*
X87320476Y-130262381D02*
X87653809Y-131262381D01*
X87987143Y-130262381D01*
X88844286Y-131262381D02*
X88272857Y-131262381D01*
X88558571Y-131262381D02*
X88558571Y-130262381D01*
X88463333Y-130405238D01*
X88368095Y-130500476D01*
X88272857Y-130548095D01*
X74727381Y-120420238D02*
X74251190Y-120753572D01*
X74727381Y-120991667D02*
X73727381Y-120991667D01*
X73727381Y-120610714D01*
X73775000Y-120515476D01*
X73822619Y-120467857D01*
X73917857Y-120420238D01*
X74060714Y-120420238D01*
X74155952Y-120467857D01*
X74203571Y-120515476D01*
X74251190Y-120610714D01*
X74251190Y-120991667D01*
X73727381Y-120134524D02*
X74727381Y-119801191D01*
X73727381Y-119467857D01*
X73822619Y-119182143D02*
X73775000Y-119134524D01*
X73727381Y-119039286D01*
X73727381Y-118801190D01*
X73775000Y-118705952D01*
X73822619Y-118658333D01*
X73917857Y-118610714D01*
X74013095Y-118610714D01*
X74155952Y-118658333D01*
X74727381Y-119229762D01*
X74727381Y-118610714D01*
X41743334Y-104592381D02*
X41410000Y-104116190D01*
X41171905Y-104592381D02*
X41171905Y-103592381D01*
X41552858Y-103592381D01*
X41648096Y-103640000D01*
X41695715Y-103687619D01*
X41743334Y-103782857D01*
X41743334Y-103925714D01*
X41695715Y-104020952D01*
X41648096Y-104068571D01*
X41552858Y-104116190D01*
X41171905Y-104116190D01*
X42076667Y-103592381D02*
X42695715Y-103592381D01*
X42362381Y-103973333D01*
X42505239Y-103973333D01*
X42600477Y-104020952D01*
X42648096Y-104068571D01*
X42695715Y-104163810D01*
X42695715Y-104401905D01*
X42648096Y-104497143D01*
X42600477Y-104544762D01*
X42505239Y-104592381D01*
X42219524Y-104592381D01*
X42124286Y-104544762D01*
X42076667Y-104497143D01*
X48467143Y-70700666D02*
X48514762Y-70748285D01*
X48562381Y-70891142D01*
X48562381Y-70986380D01*
X48514762Y-71129238D01*
X48419524Y-71224476D01*
X48324286Y-71272095D01*
X48133810Y-71319714D01*
X47990952Y-71319714D01*
X47800476Y-71272095D01*
X47705238Y-71224476D01*
X47610000Y-71129238D01*
X47562381Y-70986380D01*
X47562381Y-70891142D01*
X47610000Y-70748285D01*
X47657619Y-70700666D01*
X48562381Y-69748285D02*
X48562381Y-70319714D01*
X48562381Y-70034000D02*
X47562381Y-70034000D01*
X47705238Y-70129238D01*
X47800476Y-70224476D01*
X47848095Y-70319714D01*
X113486381Y-82052095D02*
X112486381Y-82052095D01*
X112486381Y-81814000D01*
X112534000Y-81671142D01*
X112629238Y-81575904D01*
X112724476Y-81528285D01*
X112914952Y-81480666D01*
X113057810Y-81480666D01*
X113248286Y-81528285D01*
X113343524Y-81575904D01*
X113438762Y-81671142D01*
X113486381Y-81814000D01*
X113486381Y-82052095D01*
X113486381Y-81004476D02*
X113486381Y-80814000D01*
X113438762Y-80718761D01*
X113391143Y-80671142D01*
X113248286Y-80575904D01*
X113057810Y-80528285D01*
X112676857Y-80528285D01*
X112581619Y-80575904D01*
X112534000Y-80623523D01*
X112486381Y-80718761D01*
X112486381Y-80909238D01*
X112534000Y-81004476D01*
X112581619Y-81052095D01*
X112676857Y-81099714D01*
X112914952Y-81099714D01*
X113010190Y-81052095D01*
X113057810Y-81004476D01*
X113105429Y-80909238D01*
X113105429Y-80718761D01*
X113057810Y-80623523D01*
X113010190Y-80575904D01*
X112914952Y-80528285D01*
X113482381Y-95194286D02*
X112482381Y-95194286D01*
X112482381Y-94956191D01*
X112530000Y-94813333D01*
X112625238Y-94718095D01*
X112720476Y-94670476D01*
X112910952Y-94622857D01*
X113053810Y-94622857D01*
X113244286Y-94670476D01*
X113339524Y-94718095D01*
X113434762Y-94813333D01*
X113482381Y-94956191D01*
X113482381Y-95194286D01*
X113482381Y-93670476D02*
X113482381Y-94241905D01*
X113482381Y-93956191D02*
X112482381Y-93956191D01*
X112625238Y-94051429D01*
X112720476Y-94146667D01*
X112768095Y-94241905D01*
X112482381Y-93051429D02*
X112482381Y-92956190D01*
X112530000Y-92860952D01*
X112577619Y-92813333D01*
X112672857Y-92765714D01*
X112863333Y-92718095D01*
X113101429Y-92718095D01*
X113291905Y-92765714D01*
X113387143Y-92813333D01*
X113434762Y-92860952D01*
X113482381Y-92956190D01*
X113482381Y-93051429D01*
X113434762Y-93146667D01*
X113387143Y-93194286D01*
X113291905Y-93241905D01*
X113101429Y-93289524D01*
X112863333Y-93289524D01*
X112672857Y-93241905D01*
X112577619Y-93194286D01*
X112530000Y-93146667D01*
X112482381Y-93051429D01*
X113482381Y-107894286D02*
X112482381Y-107894286D01*
X112482381Y-107656191D01*
X112530000Y-107513333D01*
X112625238Y-107418095D01*
X112720476Y-107370476D01*
X112910952Y-107322857D01*
X113053810Y-107322857D01*
X113244286Y-107370476D01*
X113339524Y-107418095D01*
X113434762Y-107513333D01*
X113482381Y-107656191D01*
X113482381Y-107894286D01*
X113482381Y-106370476D02*
X113482381Y-106941905D01*
X113482381Y-106656191D02*
X112482381Y-106656191D01*
X112625238Y-106751429D01*
X112720476Y-106846667D01*
X112768095Y-106941905D01*
X113482381Y-105418095D02*
X113482381Y-105989524D01*
X113482381Y-105703810D02*
X112482381Y-105703810D01*
X112625238Y-105799048D01*
X112720476Y-105894286D01*
X112768095Y-105989524D01*
X113482381Y-69794286D02*
X112482381Y-69794286D01*
X112482381Y-69556191D01*
X112530000Y-69413333D01*
X112625238Y-69318095D01*
X112720476Y-69270476D01*
X112910952Y-69222857D01*
X113053810Y-69222857D01*
X113244286Y-69270476D01*
X113339524Y-69318095D01*
X113434762Y-69413333D01*
X113482381Y-69556191D01*
X113482381Y-69794286D01*
X113482381Y-68270476D02*
X113482381Y-68841905D01*
X113482381Y-68556191D02*
X112482381Y-68556191D01*
X112625238Y-68651429D01*
X112720476Y-68746667D01*
X112768095Y-68841905D01*
X112577619Y-67889524D02*
X112530000Y-67841905D01*
X112482381Y-67746667D01*
X112482381Y-67508571D01*
X112530000Y-67413333D01*
X112577619Y-67365714D01*
X112672857Y-67318095D01*
X112768095Y-67318095D01*
X112910952Y-67365714D01*
X113482381Y-67937143D01*
X113482381Y-67318095D01*
X66972381Y-44148333D02*
X67686667Y-44148333D01*
X67829524Y-44195953D01*
X67924762Y-44291191D01*
X67972381Y-44434048D01*
X67972381Y-44529286D01*
X67972381Y-43148333D02*
X67972381Y-43719762D01*
X67972381Y-43434048D02*
X66972381Y-43434048D01*
X67115238Y-43529286D01*
X67210476Y-43624524D01*
X67258095Y-43719762D01*
X61892381Y-53673333D02*
X62606667Y-53673333D01*
X62749524Y-53720953D01*
X62844762Y-53816191D01*
X62892381Y-53959048D01*
X62892381Y-54054286D01*
X61987619Y-53244762D02*
X61940000Y-53197143D01*
X61892381Y-53101905D01*
X61892381Y-52863809D01*
X61940000Y-52768571D01*
X61987619Y-52720952D01*
X62082857Y-52673333D01*
X62178095Y-52673333D01*
X62320952Y-52720952D01*
X62892381Y-53292381D01*
X62892381Y-52673333D01*
X41743334Y-98242381D02*
X41410000Y-97766190D01*
X41171905Y-98242381D02*
X41171905Y-97242381D01*
X41552858Y-97242381D01*
X41648096Y-97290000D01*
X41695715Y-97337619D01*
X41743334Y-97432857D01*
X41743334Y-97575714D01*
X41695715Y-97670952D01*
X41648096Y-97718571D01*
X41552858Y-97766190D01*
X41171905Y-97766190D01*
X42695715Y-98242381D02*
X42124286Y-98242381D01*
X42410000Y-98242381D02*
X42410000Y-97242381D01*
X42314762Y-97385238D01*
X42219524Y-97480476D01*
X42124286Y-97528095D01*
X41743334Y-101417381D02*
X41410000Y-100941190D01*
X41171905Y-101417381D02*
X41171905Y-100417381D01*
X41552858Y-100417381D01*
X41648096Y-100465000D01*
X41695715Y-100512619D01*
X41743334Y-100607857D01*
X41743334Y-100750714D01*
X41695715Y-100845952D01*
X41648096Y-100893571D01*
X41552858Y-100941190D01*
X41171905Y-100941190D01*
X42124286Y-100512619D02*
X42171905Y-100465000D01*
X42267143Y-100417381D01*
X42505239Y-100417381D01*
X42600477Y-100465000D01*
X42648096Y-100512619D01*
X42695715Y-100607857D01*
X42695715Y-100703095D01*
X42648096Y-100845952D01*
X42076667Y-101417381D01*
X42695715Y-101417381D01*
X41743334Y-107767381D02*
X41410000Y-107291190D01*
X41171905Y-107767381D02*
X41171905Y-106767381D01*
X41552858Y-106767381D01*
X41648096Y-106815000D01*
X41695715Y-106862619D01*
X41743334Y-106957857D01*
X41743334Y-107100714D01*
X41695715Y-107195952D01*
X41648096Y-107243571D01*
X41552858Y-107291190D01*
X41171905Y-107291190D01*
X42600477Y-107100714D02*
X42600477Y-107767381D01*
X42362381Y-106719762D02*
X42124286Y-107434048D01*
X42743334Y-107434048D01*
X41743334Y-110942381D02*
X41410000Y-110466190D01*
X41171905Y-110942381D02*
X41171905Y-109942381D01*
X41552858Y-109942381D01*
X41648096Y-109990000D01*
X41695715Y-110037619D01*
X41743334Y-110132857D01*
X41743334Y-110275714D01*
X41695715Y-110370952D01*
X41648096Y-110418571D01*
X41552858Y-110466190D01*
X41171905Y-110466190D01*
X42648096Y-109942381D02*
X42171905Y-109942381D01*
X42124286Y-110418571D01*
X42171905Y-110370952D01*
X42267143Y-110323333D01*
X42505239Y-110323333D01*
X42600477Y-110370952D01*
X42648096Y-110418571D01*
X42695715Y-110513810D01*
X42695715Y-110751905D01*
X42648096Y-110847143D01*
X42600477Y-110894762D01*
X42505239Y-110942381D01*
X42267143Y-110942381D01*
X42171905Y-110894762D01*
X42124286Y-110847143D01*
X41743334Y-114117381D02*
X41410000Y-113641190D01*
X41171905Y-114117381D02*
X41171905Y-113117381D01*
X41552858Y-113117381D01*
X41648096Y-113165000D01*
X41695715Y-113212619D01*
X41743334Y-113307857D01*
X41743334Y-113450714D01*
X41695715Y-113545952D01*
X41648096Y-113593571D01*
X41552858Y-113641190D01*
X41171905Y-113641190D01*
X42600477Y-113117381D02*
X42410000Y-113117381D01*
X42314762Y-113165000D01*
X42267143Y-113212619D01*
X42171905Y-113355476D01*
X42124286Y-113545952D01*
X42124286Y-113926905D01*
X42171905Y-114022143D01*
X42219524Y-114069762D01*
X42314762Y-114117381D01*
X42505239Y-114117381D01*
X42600477Y-114069762D01*
X42648096Y-114022143D01*
X42695715Y-113926905D01*
X42695715Y-113688810D01*
X42648096Y-113593571D01*
X42600477Y-113545952D01*
X42505239Y-113498333D01*
X42314762Y-113498333D01*
X42219524Y-113545952D01*
X42171905Y-113593571D01*
X42124286Y-113688810D01*
X41743334Y-117292381D02*
X41410000Y-116816190D01*
X41171905Y-117292381D02*
X41171905Y-116292381D01*
X41552858Y-116292381D01*
X41648096Y-116340000D01*
X41695715Y-116387619D01*
X41743334Y-116482857D01*
X41743334Y-116625714D01*
X41695715Y-116720952D01*
X41648096Y-116768571D01*
X41552858Y-116816190D01*
X41171905Y-116816190D01*
X42076667Y-116292381D02*
X42743334Y-116292381D01*
X42314762Y-117292381D01*
X41743334Y-120467381D02*
X41410000Y-119991190D01*
X41171905Y-120467381D02*
X41171905Y-119467381D01*
X41552858Y-119467381D01*
X41648096Y-119515000D01*
X41695715Y-119562619D01*
X41743334Y-119657857D01*
X41743334Y-119800714D01*
X41695715Y-119895952D01*
X41648096Y-119943571D01*
X41552858Y-119991190D01*
X41171905Y-119991190D01*
X42314762Y-119895952D02*
X42219524Y-119848333D01*
X42171905Y-119800714D01*
X42124286Y-119705476D01*
X42124286Y-119657857D01*
X42171905Y-119562619D01*
X42219524Y-119515000D01*
X42314762Y-119467381D01*
X42505239Y-119467381D01*
X42600477Y-119515000D01*
X42648096Y-119562619D01*
X42695715Y-119657857D01*
X42695715Y-119705476D01*
X42648096Y-119800714D01*
X42600477Y-119848333D01*
X42505239Y-119895952D01*
X42314762Y-119895952D01*
X42219524Y-119943571D01*
X42171905Y-119991190D01*
X42124286Y-120086429D01*
X42124286Y-120276905D01*
X42171905Y-120372143D01*
X42219524Y-120419762D01*
X42314762Y-120467381D01*
X42505239Y-120467381D01*
X42600477Y-120419762D01*
X42648096Y-120372143D01*
X42695715Y-120276905D01*
X42695715Y-120086429D01*
X42648096Y-119991190D01*
X42600477Y-119943571D01*
X42505239Y-119895952D01*
X56983334Y-61412381D02*
X56650000Y-60936190D01*
X56411905Y-61412381D02*
X56411905Y-60412381D01*
X56792858Y-60412381D01*
X56888096Y-60460000D01*
X56935715Y-60507619D01*
X56983334Y-60602857D01*
X56983334Y-60745714D01*
X56935715Y-60840952D01*
X56888096Y-60888571D01*
X56792858Y-60936190D01*
X56411905Y-60936190D01*
X57459524Y-61412381D02*
X57650000Y-61412381D01*
X57745239Y-61364762D01*
X57792858Y-61317143D01*
X57888096Y-61174286D01*
X57935715Y-60983810D01*
X57935715Y-60602857D01*
X57888096Y-60507619D01*
X57840477Y-60460000D01*
X57745239Y-60412381D01*
X57554762Y-60412381D01*
X57459524Y-60460000D01*
X57411905Y-60507619D01*
X57364286Y-60602857D01*
X57364286Y-60840952D01*
X57411905Y-60936190D01*
X57459524Y-60983810D01*
X57554762Y-61031429D01*
X57745239Y-61031429D01*
X57840477Y-60983810D01*
X57888096Y-60936190D01*
X57935715Y-60840952D01*
X71747143Y-61412381D02*
X71413809Y-60936190D01*
X71175714Y-61412381D02*
X71175714Y-60412381D01*
X71556667Y-60412381D01*
X71651905Y-60460000D01*
X71699524Y-60507619D01*
X71747143Y-60602857D01*
X71747143Y-60745714D01*
X71699524Y-60840952D01*
X71651905Y-60888571D01*
X71556667Y-60936190D01*
X71175714Y-60936190D01*
X72699524Y-61412381D02*
X72128095Y-61412381D01*
X72413809Y-61412381D02*
X72413809Y-60412381D01*
X72318571Y-60555238D01*
X72223333Y-60650476D01*
X72128095Y-60698095D01*
X73318571Y-60412381D02*
X73413810Y-60412381D01*
X73509048Y-60460000D01*
X73556667Y-60507619D01*
X73604286Y-60602857D01*
X73651905Y-60793333D01*
X73651905Y-61031429D01*
X73604286Y-61221905D01*
X73556667Y-61317143D01*
X73509048Y-61364762D01*
X73413810Y-61412381D01*
X73318571Y-61412381D01*
X73223333Y-61364762D01*
X73175714Y-61317143D01*
X73128095Y-61221905D01*
X73080476Y-61031429D01*
X73080476Y-60793333D01*
X73128095Y-60602857D01*
X73175714Y-60507619D01*
X73223333Y-60460000D01*
X73318571Y-60412381D01*
X86987143Y-61412381D02*
X86653809Y-60936190D01*
X86415714Y-61412381D02*
X86415714Y-60412381D01*
X86796667Y-60412381D01*
X86891905Y-60460000D01*
X86939524Y-60507619D01*
X86987143Y-60602857D01*
X86987143Y-60745714D01*
X86939524Y-60840952D01*
X86891905Y-60888571D01*
X86796667Y-60936190D01*
X86415714Y-60936190D01*
X87939524Y-61412381D02*
X87368095Y-61412381D01*
X87653809Y-61412381D02*
X87653809Y-60412381D01*
X87558571Y-60555238D01*
X87463333Y-60650476D01*
X87368095Y-60698095D01*
X88891905Y-61412381D02*
X88320476Y-61412381D01*
X88606190Y-61412381D02*
X88606190Y-60412381D01*
X88510952Y-60555238D01*
X88415714Y-60650476D01*
X88320476Y-60698095D01*
X103497143Y-61412381D02*
X103163809Y-60936190D01*
X102925714Y-61412381D02*
X102925714Y-60412381D01*
X103306667Y-60412381D01*
X103401905Y-60460000D01*
X103449524Y-60507619D01*
X103497143Y-60602857D01*
X103497143Y-60745714D01*
X103449524Y-60840952D01*
X103401905Y-60888571D01*
X103306667Y-60936190D01*
X102925714Y-60936190D01*
X104449524Y-61412381D02*
X103878095Y-61412381D01*
X104163809Y-61412381D02*
X104163809Y-60412381D01*
X104068571Y-60555238D01*
X103973333Y-60650476D01*
X103878095Y-60698095D01*
X104830476Y-60507619D02*
X104878095Y-60460000D01*
X104973333Y-60412381D01*
X105211429Y-60412381D01*
X105306667Y-60460000D01*
X105354286Y-60507619D01*
X105401905Y-60602857D01*
X105401905Y-60698095D01*
X105354286Y-60840952D01*
X104782857Y-61412381D01*
X105401905Y-61412381D01*
X41148095Y-72052381D02*
X41148095Y-72861905D01*
X41195714Y-72957143D01*
X41243333Y-73004762D01*
X41338571Y-73052381D01*
X41529048Y-73052381D01*
X41624286Y-73004762D01*
X41671905Y-72957143D01*
X41719524Y-72861905D01*
X41719524Y-72052381D01*
X42719524Y-73052381D02*
X42148095Y-73052381D01*
X42433809Y-73052381D02*
X42433809Y-72052381D01*
X42338571Y-72195238D01*
X42243333Y-72290476D01*
X42148095Y-72338095D01*
X36492381Y-44783333D02*
X37206667Y-44783333D01*
X37349524Y-44830953D01*
X37444762Y-44926191D01*
X37492381Y-45069048D01*
X37492381Y-45164286D01*
X36492381Y-44402381D02*
X36492381Y-43735714D01*
X37492381Y-44164286D01*
X36357619Y-55975238D02*
X36310000Y-56070476D01*
X36214762Y-56165714D01*
X36071905Y-56308571D01*
X36024286Y-56403810D01*
X36024286Y-56499048D01*
X36262381Y-56451429D02*
X36214762Y-56546667D01*
X36119524Y-56641905D01*
X35929048Y-56689524D01*
X35595714Y-56689524D01*
X35405238Y-56641905D01*
X35310000Y-56546667D01*
X35262381Y-56451429D01*
X35262381Y-56260952D01*
X35310000Y-56165714D01*
X35405238Y-56070476D01*
X35595714Y-56022857D01*
X35929048Y-56022857D01*
X36119524Y-56070476D01*
X36214762Y-56165714D01*
X36262381Y-56260952D01*
X36262381Y-56451429D01*
X36262381Y-55070476D02*
X36262381Y-55641905D01*
X36262381Y-55356191D02*
X35262381Y-55356191D01*
X35405238Y-55451429D01*
X35500476Y-55546667D01*
X35548095Y-55641905D01*
X42707619Y-55975238D02*
X42660000Y-56070476D01*
X42564762Y-56165714D01*
X42421905Y-56308571D01*
X42374286Y-56403810D01*
X42374286Y-56499048D01*
X42612381Y-56451429D02*
X42564762Y-56546667D01*
X42469524Y-56641905D01*
X42279048Y-56689524D01*
X41945714Y-56689524D01*
X41755238Y-56641905D01*
X41660000Y-56546667D01*
X41612381Y-56451429D01*
X41612381Y-56260952D01*
X41660000Y-56165714D01*
X41755238Y-56070476D01*
X41945714Y-56022857D01*
X42279048Y-56022857D01*
X42469524Y-56070476D01*
X42564762Y-56165714D01*
X42612381Y-56260952D01*
X42612381Y-56451429D01*
X41707619Y-55641905D02*
X41660000Y-55594286D01*
X41612381Y-55499048D01*
X41612381Y-55260952D01*
X41660000Y-55165714D01*
X41707619Y-55118095D01*
X41802857Y-55070476D01*
X41898095Y-55070476D01*
X42040952Y-55118095D01*
X42612381Y-55689524D01*
X42612381Y-55070476D01*
X38552381Y-66682857D02*
X38076190Y-67016191D01*
X38552381Y-67254286D02*
X37552381Y-67254286D01*
X37552381Y-66873333D01*
X37600000Y-66778095D01*
X37647619Y-66730476D01*
X37742857Y-66682857D01*
X37885714Y-66682857D01*
X37980952Y-66730476D01*
X38028571Y-66778095D01*
X38076190Y-66873333D01*
X38076190Y-67254286D01*
X38552381Y-65730476D02*
X38552381Y-66301905D01*
X38552381Y-66016191D02*
X37552381Y-66016191D01*
X37695238Y-66111429D01*
X37790476Y-66206667D01*
X37838095Y-66301905D01*
X37552381Y-65397143D02*
X37552381Y-64778095D01*
X37933333Y-65111429D01*
X37933333Y-64968571D01*
X37980952Y-64873333D01*
X38028571Y-64825714D01*
X38123810Y-64778095D01*
X38361905Y-64778095D01*
X38457143Y-64825714D01*
X38504762Y-64873333D01*
X38552381Y-64968571D01*
X38552381Y-65254286D01*
X38504762Y-65349524D01*
X38457143Y-65397143D01*
X42362381Y-66682857D02*
X41886190Y-67016191D01*
X42362381Y-67254286D02*
X41362381Y-67254286D01*
X41362381Y-66873333D01*
X41410000Y-66778095D01*
X41457619Y-66730476D01*
X41552857Y-66682857D01*
X41695714Y-66682857D01*
X41790952Y-66730476D01*
X41838571Y-66778095D01*
X41886190Y-66873333D01*
X41886190Y-67254286D01*
X42362381Y-65730476D02*
X42362381Y-66301905D01*
X42362381Y-66016191D02*
X41362381Y-66016191D01*
X41505238Y-66111429D01*
X41600476Y-66206667D01*
X41648095Y-66301905D01*
X41695714Y-64873333D02*
X42362381Y-64873333D01*
X41314762Y-65111429D02*
X42029048Y-65349524D01*
X42029048Y-64730476D01*
X52697143Y-49982381D02*
X52363809Y-49506190D01*
X52125714Y-49982381D02*
X52125714Y-48982381D01*
X52506667Y-48982381D01*
X52601905Y-49030000D01*
X52649524Y-49077619D01*
X52697143Y-49172857D01*
X52697143Y-49315714D01*
X52649524Y-49410952D01*
X52601905Y-49458571D01*
X52506667Y-49506190D01*
X52125714Y-49506190D01*
X53649524Y-49982381D02*
X53078095Y-49982381D01*
X53363809Y-49982381D02*
X53363809Y-48982381D01*
X53268571Y-49125238D01*
X53173333Y-49220476D01*
X53078095Y-49268095D01*
X54554286Y-48982381D02*
X54078095Y-48982381D01*
X54030476Y-49458571D01*
X54078095Y-49410952D01*
X54173333Y-49363333D01*
X54411429Y-49363333D01*
X54506667Y-49410952D01*
X54554286Y-49458571D01*
X54601905Y-49553810D01*
X54601905Y-49791905D01*
X54554286Y-49887143D01*
X54506667Y-49934762D01*
X54411429Y-49982381D01*
X54173333Y-49982381D01*
X54078095Y-49934762D01*
X54030476Y-49887143D01*
X52697143Y-53792381D02*
X52363809Y-53316190D01*
X52125714Y-53792381D02*
X52125714Y-52792381D01*
X52506667Y-52792381D01*
X52601905Y-52840000D01*
X52649524Y-52887619D01*
X52697143Y-52982857D01*
X52697143Y-53125714D01*
X52649524Y-53220952D01*
X52601905Y-53268571D01*
X52506667Y-53316190D01*
X52125714Y-53316190D01*
X53649524Y-53792381D02*
X53078095Y-53792381D01*
X53363809Y-53792381D02*
X53363809Y-52792381D01*
X53268571Y-52935238D01*
X53173333Y-53030476D01*
X53078095Y-53078095D01*
X54506667Y-52792381D02*
X54316190Y-52792381D01*
X54220952Y-52840000D01*
X54173333Y-52887619D01*
X54078095Y-53030476D01*
X54030476Y-53220952D01*
X54030476Y-53601905D01*
X54078095Y-53697143D01*
X54125714Y-53744762D01*
X54220952Y-53792381D01*
X54411429Y-53792381D01*
X54506667Y-53744762D01*
X54554286Y-53697143D01*
X54601905Y-53601905D01*
X54601905Y-53363810D01*
X54554286Y-53268571D01*
X54506667Y-53220952D01*
X54411429Y-53173333D01*
X54220952Y-53173333D01*
X54125714Y-53220952D01*
X54078095Y-53268571D01*
X54030476Y-53363810D01*
X54423334Y-112117143D02*
X54375715Y-112164762D01*
X54232858Y-112212381D01*
X54137620Y-112212381D01*
X53994762Y-112164762D01*
X53899524Y-112069524D01*
X53851905Y-111974286D01*
X53804286Y-111783810D01*
X53804286Y-111640952D01*
X53851905Y-111450476D01*
X53899524Y-111355238D01*
X53994762Y-111260000D01*
X54137620Y-111212381D01*
X54232858Y-111212381D01*
X54375715Y-111260000D01*
X54423334Y-111307619D01*
X54804286Y-111307619D02*
X54851905Y-111260000D01*
X54947143Y-111212381D01*
X55185239Y-111212381D01*
X55280477Y-111260000D01*
X55328096Y-111307619D01*
X55375715Y-111402857D01*
X55375715Y-111498095D01*
X55328096Y-111640952D01*
X54756667Y-112212381D01*
X55375715Y-112212381D01*
X95353143Y-128690666D02*
X95400762Y-128738285D01*
X95448381Y-128881142D01*
X95448381Y-128976380D01*
X95400762Y-129119238D01*
X95305524Y-129214476D01*
X95210286Y-129262095D01*
X95019810Y-129309714D01*
X94876952Y-129309714D01*
X94686476Y-129262095D01*
X94591238Y-129214476D01*
X94496000Y-129119238D01*
X94448381Y-128976380D01*
X94448381Y-128881142D01*
X94496000Y-128738285D01*
X94543619Y-128690666D01*
X94448381Y-128357333D02*
X94448381Y-127738285D01*
X94829333Y-128071619D01*
X94829333Y-127928761D01*
X94876952Y-127833523D01*
X94924571Y-127785904D01*
X95019810Y-127738285D01*
X95257905Y-127738285D01*
X95353143Y-127785904D01*
X95400762Y-127833523D01*
X95448381Y-127928761D01*
X95448381Y-128214476D01*
X95400762Y-128309714D01*
X95353143Y-128357333D01*
X102932334Y-122520143D02*
X102884715Y-122567762D01*
X102741858Y-122615381D01*
X102646620Y-122615381D01*
X102503762Y-122567762D01*
X102408524Y-122472524D01*
X102360905Y-122377286D01*
X102313286Y-122186810D01*
X102313286Y-122043952D01*
X102360905Y-121853476D01*
X102408524Y-121758238D01*
X102503762Y-121663000D01*
X102646620Y-121615381D01*
X102741858Y-121615381D01*
X102884715Y-121663000D01*
X102932334Y-121710619D01*
X103789477Y-121948714D02*
X103789477Y-122615381D01*
X103551381Y-121567762D02*
X103313286Y-122282048D01*
X103932334Y-122282048D01*
X67303334Y-140262143D02*
X67255715Y-140309762D01*
X67112858Y-140357381D01*
X67017620Y-140357381D01*
X66874762Y-140309762D01*
X66779524Y-140214524D01*
X66731905Y-140119286D01*
X66684286Y-139928810D01*
X66684286Y-139785952D01*
X66731905Y-139595476D01*
X66779524Y-139500238D01*
X66874762Y-139405000D01*
X67017620Y-139357381D01*
X67112858Y-139357381D01*
X67255715Y-139405000D01*
X67303334Y-139452619D01*
X68208096Y-139357381D02*
X67731905Y-139357381D01*
X67684286Y-139833571D01*
X67731905Y-139785952D01*
X67827143Y-139738333D01*
X68065239Y-139738333D01*
X68160477Y-139785952D01*
X68208096Y-139833571D01*
X68255715Y-139928810D01*
X68255715Y-140166905D01*
X68208096Y-140262143D01*
X68160477Y-140309762D01*
X68065239Y-140357381D01*
X67827143Y-140357381D01*
X67731905Y-140309762D01*
X67684286Y-140262143D01*
X105114334Y-131231143D02*
X105066715Y-131278762D01*
X104923858Y-131326381D01*
X104828620Y-131326381D01*
X104685762Y-131278762D01*
X104590524Y-131183524D01*
X104542905Y-131088286D01*
X104495286Y-130897810D01*
X104495286Y-130754952D01*
X104542905Y-130564476D01*
X104590524Y-130469238D01*
X104685762Y-130374000D01*
X104828620Y-130326381D01*
X104923858Y-130326381D01*
X105066715Y-130374000D01*
X105114334Y-130421619D01*
X105971477Y-130326381D02*
X105781000Y-130326381D01*
X105685762Y-130374000D01*
X105638143Y-130421619D01*
X105542905Y-130564476D01*
X105495286Y-130754952D01*
X105495286Y-131135905D01*
X105542905Y-131231143D01*
X105590524Y-131278762D01*
X105685762Y-131326381D01*
X105876239Y-131326381D01*
X105971477Y-131278762D01*
X106019096Y-131231143D01*
X106066715Y-131135905D01*
X106066715Y-130897810D01*
X106019096Y-130802571D01*
X105971477Y-130754952D01*
X105876239Y-130707333D01*
X105685762Y-130707333D01*
X105590524Y-130754952D01*
X105542905Y-130802571D01*
X105495286Y-130897810D01*
X80367143Y-115716666D02*
X80414762Y-115764285D01*
X80462381Y-115907142D01*
X80462381Y-116002380D01*
X80414762Y-116145238D01*
X80319524Y-116240476D01*
X80224286Y-116288095D01*
X80033810Y-116335714D01*
X79890952Y-116335714D01*
X79700476Y-116288095D01*
X79605238Y-116240476D01*
X79510000Y-116145238D01*
X79462381Y-116002380D01*
X79462381Y-115907142D01*
X79510000Y-115764285D01*
X79557619Y-115716666D01*
X79462381Y-115383333D02*
X79462381Y-114716666D01*
X80462381Y-115145238D01*
X73522381Y-139733333D02*
X74236667Y-139733333D01*
X74379524Y-139780953D01*
X74474762Y-139876191D01*
X74522381Y-140019048D01*
X74522381Y-140114286D01*
X73950952Y-139114286D02*
X73903333Y-139209524D01*
X73855714Y-139257143D01*
X73760476Y-139304762D01*
X73712857Y-139304762D01*
X73617619Y-139257143D01*
X73570000Y-139209524D01*
X73522381Y-139114286D01*
X73522381Y-138923809D01*
X73570000Y-138828571D01*
X73617619Y-138780952D01*
X73712857Y-138733333D01*
X73760476Y-138733333D01*
X73855714Y-138780952D01*
X73903333Y-138828571D01*
X73950952Y-138923809D01*
X73950952Y-139114286D01*
X73998571Y-139209524D01*
X74046190Y-139257143D01*
X74141429Y-139304762D01*
X74331905Y-139304762D01*
X74427143Y-139257143D01*
X74474762Y-139209524D01*
X74522381Y-139114286D01*
X74522381Y-138923809D01*
X74474762Y-138828571D01*
X74427143Y-138780952D01*
X74331905Y-138733333D01*
X74141429Y-138733333D01*
X74046190Y-138780952D01*
X73998571Y-138828571D01*
X73950952Y-138923809D01*
X101726667Y-140532381D02*
X101726667Y-141246667D01*
X101679047Y-141389524D01*
X101583809Y-141484762D01*
X101440952Y-141532381D01*
X101345714Y-141532381D01*
X102250476Y-141532381D02*
X102440952Y-141532381D01*
X102536191Y-141484762D01*
X102583810Y-141437143D01*
X102679048Y-141294286D01*
X102726667Y-141103810D01*
X102726667Y-140722857D01*
X102679048Y-140627619D01*
X102631429Y-140580000D01*
X102536191Y-140532381D01*
X102345714Y-140532381D01*
X102250476Y-140580000D01*
X102202857Y-140627619D01*
X102155238Y-140722857D01*
X102155238Y-140960952D01*
X102202857Y-141056190D01*
X102250476Y-141103810D01*
X102345714Y-141151429D01*
X102536191Y-141151429D01*
X102631429Y-141103810D01*
X102679048Y-141056190D01*
X102726667Y-140960952D01*
X59682143Y-138882381D02*
X59348809Y-138406190D01*
X59110714Y-138882381D02*
X59110714Y-137882381D01*
X59491667Y-137882381D01*
X59586905Y-137930000D01*
X59634524Y-137977619D01*
X59682143Y-138072857D01*
X59682143Y-138215714D01*
X59634524Y-138310952D01*
X59586905Y-138358571D01*
X59491667Y-138406190D01*
X59110714Y-138406190D01*
X60634524Y-138882381D02*
X60063095Y-138882381D01*
X60348809Y-138882381D02*
X60348809Y-137882381D01*
X60253571Y-138025238D01*
X60158333Y-138120476D01*
X60063095Y-138168095D01*
X60967857Y-137882381D02*
X61634524Y-137882381D01*
X61205952Y-138882381D01*
X91127381Y-135682857D02*
X90651190Y-136016191D01*
X91127381Y-136254286D02*
X90127381Y-136254286D01*
X90127381Y-135873333D01*
X90175000Y-135778095D01*
X90222619Y-135730476D01*
X90317857Y-135682857D01*
X90460714Y-135682857D01*
X90555952Y-135730476D01*
X90603571Y-135778095D01*
X90651190Y-135873333D01*
X90651190Y-136254286D01*
X91127381Y-134730476D02*
X91127381Y-135301905D01*
X91127381Y-135016191D02*
X90127381Y-135016191D01*
X90270238Y-135111429D01*
X90365476Y-135206667D01*
X90413095Y-135301905D01*
X90555952Y-134159048D02*
X90508333Y-134254286D01*
X90460714Y-134301905D01*
X90365476Y-134349524D01*
X90317857Y-134349524D01*
X90222619Y-134301905D01*
X90175000Y-134254286D01*
X90127381Y-134159048D01*
X90127381Y-133968571D01*
X90175000Y-133873333D01*
X90222619Y-133825714D01*
X90317857Y-133778095D01*
X90365476Y-133778095D01*
X90460714Y-133825714D01*
X90508333Y-133873333D01*
X90555952Y-133968571D01*
X90555952Y-134159048D01*
X90603571Y-134254286D01*
X90651190Y-134301905D01*
X90746429Y-134349524D01*
X90936905Y-134349524D01*
X91032143Y-134301905D01*
X91079762Y-134254286D01*
X91127381Y-134159048D01*
X91127381Y-133968571D01*
X91079762Y-133873333D01*
X91032143Y-133825714D01*
X90936905Y-133778095D01*
X90746429Y-133778095D01*
X90651190Y-133825714D01*
X90603571Y-133873333D01*
X90555952Y-133968571D01*
X94402381Y-135632857D02*
X93926190Y-135966191D01*
X94402381Y-136204286D02*
X93402381Y-136204286D01*
X93402381Y-135823333D01*
X93450000Y-135728095D01*
X93497619Y-135680476D01*
X93592857Y-135632857D01*
X93735714Y-135632857D01*
X93830952Y-135680476D01*
X93878571Y-135728095D01*
X93926190Y-135823333D01*
X93926190Y-136204286D01*
X94402381Y-134680476D02*
X94402381Y-135251905D01*
X94402381Y-134966191D02*
X93402381Y-134966191D01*
X93545238Y-135061429D01*
X93640476Y-135156667D01*
X93688095Y-135251905D01*
X94402381Y-134204286D02*
X94402381Y-134013810D01*
X94354762Y-133918571D01*
X94307143Y-133870952D01*
X94164286Y-133775714D01*
X93973810Y-133728095D01*
X93592857Y-133728095D01*
X93497619Y-133775714D01*
X93450000Y-133823333D01*
X93402381Y-133918571D01*
X93402381Y-134109048D01*
X93450000Y-134204286D01*
X93497619Y-134251905D01*
X93592857Y-134299524D01*
X93830952Y-134299524D01*
X93926190Y-134251905D01*
X93973810Y-134204286D01*
X94021429Y-134109048D01*
X94021429Y-133918571D01*
X93973810Y-133823333D01*
X93926190Y-133775714D01*
X93830952Y-133728095D01*
X55062381Y-125102857D02*
X54586190Y-125436191D01*
X55062381Y-125674286D02*
X54062381Y-125674286D01*
X54062381Y-125293333D01*
X54110000Y-125198095D01*
X54157619Y-125150476D01*
X54252857Y-125102857D01*
X54395714Y-125102857D01*
X54490952Y-125150476D01*
X54538571Y-125198095D01*
X54586190Y-125293333D01*
X54586190Y-125674286D01*
X54157619Y-124721905D02*
X54110000Y-124674286D01*
X54062381Y-124579048D01*
X54062381Y-124340952D01*
X54110000Y-124245714D01*
X54157619Y-124198095D01*
X54252857Y-124150476D01*
X54348095Y-124150476D01*
X54490952Y-124198095D01*
X55062381Y-124769524D01*
X55062381Y-124150476D01*
X54062381Y-123531429D02*
X54062381Y-123436190D01*
X54110000Y-123340952D01*
X54157619Y-123293333D01*
X54252857Y-123245714D01*
X54443333Y-123198095D01*
X54681429Y-123198095D01*
X54871905Y-123245714D01*
X54967143Y-123293333D01*
X55014762Y-123340952D01*
X55062381Y-123436190D01*
X55062381Y-123531429D01*
X55014762Y-123626667D01*
X54967143Y-123674286D01*
X54871905Y-123721905D01*
X54681429Y-123769524D01*
X54443333Y-123769524D01*
X54252857Y-123721905D01*
X54157619Y-123674286D01*
X54110000Y-123626667D01*
X54062381Y-123531429D01*
X72282381Y-127542857D02*
X71806190Y-127876191D01*
X72282381Y-128114286D02*
X71282381Y-128114286D01*
X71282381Y-127733333D01*
X71330000Y-127638095D01*
X71377619Y-127590476D01*
X71472857Y-127542857D01*
X71615714Y-127542857D01*
X71710952Y-127590476D01*
X71758571Y-127638095D01*
X71806190Y-127733333D01*
X71806190Y-128114286D01*
X71377619Y-127161905D02*
X71330000Y-127114286D01*
X71282381Y-127019048D01*
X71282381Y-126780952D01*
X71330000Y-126685714D01*
X71377619Y-126638095D01*
X71472857Y-126590476D01*
X71568095Y-126590476D01*
X71710952Y-126638095D01*
X72282381Y-127209524D01*
X72282381Y-126590476D01*
X72282381Y-125638095D02*
X72282381Y-126209524D01*
X72282381Y-125923810D02*
X71282381Y-125923810D01*
X71425238Y-126019048D01*
X71520476Y-126114286D01*
X71568095Y-126209524D01*
X59682143Y-135707381D02*
X59348809Y-135231190D01*
X59110714Y-135707381D02*
X59110714Y-134707381D01*
X59491667Y-134707381D01*
X59586905Y-134755000D01*
X59634524Y-134802619D01*
X59682143Y-134897857D01*
X59682143Y-135040714D01*
X59634524Y-135135952D01*
X59586905Y-135183571D01*
X59491667Y-135231190D01*
X59110714Y-135231190D01*
X60063095Y-134802619D02*
X60110714Y-134755000D01*
X60205952Y-134707381D01*
X60444048Y-134707381D01*
X60539286Y-134755000D01*
X60586905Y-134802619D01*
X60634524Y-134897857D01*
X60634524Y-134993095D01*
X60586905Y-135135952D01*
X60015476Y-135707381D01*
X60634524Y-135707381D01*
X61015476Y-134802619D02*
X61063095Y-134755000D01*
X61158333Y-134707381D01*
X61396429Y-134707381D01*
X61491667Y-134755000D01*
X61539286Y-134802619D01*
X61586905Y-134897857D01*
X61586905Y-134993095D01*
X61539286Y-135135952D01*
X60967857Y-135707381D01*
X61586905Y-135707381D01*
X107132381Y-120022857D02*
X106656190Y-120356191D01*
X107132381Y-120594286D02*
X106132381Y-120594286D01*
X106132381Y-120213333D01*
X106180000Y-120118095D01*
X106227619Y-120070476D01*
X106322857Y-120022857D01*
X106465714Y-120022857D01*
X106560952Y-120070476D01*
X106608571Y-120118095D01*
X106656190Y-120213333D01*
X106656190Y-120594286D01*
X106227619Y-119641905D02*
X106180000Y-119594286D01*
X106132381Y-119499048D01*
X106132381Y-119260952D01*
X106180000Y-119165714D01*
X106227619Y-119118095D01*
X106322857Y-119070476D01*
X106418095Y-119070476D01*
X106560952Y-119118095D01*
X107132381Y-119689524D01*
X107132381Y-119070476D01*
X106132381Y-118737143D02*
X106132381Y-118118095D01*
X106513333Y-118451429D01*
X106513333Y-118308571D01*
X106560952Y-118213333D01*
X106608571Y-118165714D01*
X106703810Y-118118095D01*
X106941905Y-118118095D01*
X107037143Y-118165714D01*
X107084762Y-118213333D01*
X107132381Y-118308571D01*
X107132381Y-118594286D01*
X107084762Y-118689524D01*
X107037143Y-118737143D01*
X67677143Y-114662381D02*
X67343809Y-114186190D01*
X67105714Y-114662381D02*
X67105714Y-113662381D01*
X67486667Y-113662381D01*
X67581905Y-113710000D01*
X67629524Y-113757619D01*
X67677143Y-113852857D01*
X67677143Y-113995714D01*
X67629524Y-114090952D01*
X67581905Y-114138571D01*
X67486667Y-114186190D01*
X67105714Y-114186190D01*
X68058095Y-113757619D02*
X68105714Y-113710000D01*
X68200952Y-113662381D01*
X68439048Y-113662381D01*
X68534286Y-113710000D01*
X68581905Y-113757619D01*
X68629524Y-113852857D01*
X68629524Y-113948095D01*
X68581905Y-114090952D01*
X68010476Y-114662381D01*
X68629524Y-114662381D01*
X69486667Y-113995714D02*
X69486667Y-114662381D01*
X69248571Y-113614762D02*
X69010476Y-114329048D01*
X69629524Y-114329048D01*
X80462381Y-125356857D02*
X79986190Y-125690191D01*
X80462381Y-125928286D02*
X79462381Y-125928286D01*
X79462381Y-125547333D01*
X79510000Y-125452095D01*
X79557619Y-125404476D01*
X79652857Y-125356857D01*
X79795714Y-125356857D01*
X79890952Y-125404476D01*
X79938571Y-125452095D01*
X79986190Y-125547333D01*
X79986190Y-125928286D01*
X79557619Y-124975905D02*
X79510000Y-124928286D01*
X79462381Y-124833048D01*
X79462381Y-124594952D01*
X79510000Y-124499714D01*
X79557619Y-124452095D01*
X79652857Y-124404476D01*
X79748095Y-124404476D01*
X79890952Y-124452095D01*
X80462381Y-125023524D01*
X80462381Y-124404476D01*
X79462381Y-123499714D02*
X79462381Y-123975905D01*
X79938571Y-124023524D01*
X79890952Y-123975905D01*
X79843333Y-123880667D01*
X79843333Y-123642571D01*
X79890952Y-123547333D01*
X79938571Y-123499714D01*
X80033810Y-123452095D01*
X80271905Y-123452095D01*
X80367143Y-123499714D01*
X80414762Y-123547333D01*
X80462381Y-123642571D01*
X80462381Y-123880667D01*
X80414762Y-123975905D01*
X80367143Y-124023524D01*
X83764381Y-125356857D02*
X83288190Y-125690191D01*
X83764381Y-125928286D02*
X82764381Y-125928286D01*
X82764381Y-125547333D01*
X82812000Y-125452095D01*
X82859619Y-125404476D01*
X82954857Y-125356857D01*
X83097714Y-125356857D01*
X83192952Y-125404476D01*
X83240571Y-125452095D01*
X83288190Y-125547333D01*
X83288190Y-125928286D01*
X82859619Y-124975905D02*
X82812000Y-124928286D01*
X82764381Y-124833048D01*
X82764381Y-124594952D01*
X82812000Y-124499714D01*
X82859619Y-124452095D01*
X82954857Y-124404476D01*
X83050095Y-124404476D01*
X83192952Y-124452095D01*
X83764381Y-125023524D01*
X83764381Y-124404476D01*
X82764381Y-123547333D02*
X82764381Y-123737810D01*
X82812000Y-123833048D01*
X82859619Y-123880667D01*
X83002476Y-123975905D01*
X83192952Y-124023524D01*
X83573905Y-124023524D01*
X83669143Y-123975905D01*
X83716762Y-123928286D01*
X83764381Y-123833048D01*
X83764381Y-123642571D01*
X83716762Y-123547333D01*
X83669143Y-123499714D01*
X83573905Y-123452095D01*
X83335810Y-123452095D01*
X83240571Y-123499714D01*
X83192952Y-123547333D01*
X83145333Y-123642571D01*
X83145333Y-123833048D01*
X83192952Y-123928286D01*
X83240571Y-123975905D01*
X83335810Y-124023524D01*
X76652381Y-127642857D02*
X76176190Y-127976191D01*
X76652381Y-128214286D02*
X75652381Y-128214286D01*
X75652381Y-127833333D01*
X75700000Y-127738095D01*
X75747619Y-127690476D01*
X75842857Y-127642857D01*
X75985714Y-127642857D01*
X76080952Y-127690476D01*
X76128571Y-127738095D01*
X76176190Y-127833333D01*
X76176190Y-128214286D01*
X75747619Y-127261905D02*
X75700000Y-127214286D01*
X75652381Y-127119048D01*
X75652381Y-126880952D01*
X75700000Y-126785714D01*
X75747619Y-126738095D01*
X75842857Y-126690476D01*
X75938095Y-126690476D01*
X76080952Y-126738095D01*
X76652381Y-127309524D01*
X76652381Y-126690476D01*
X75652381Y-126357143D02*
X75652381Y-125690476D01*
X76652381Y-126119048D01*
X94996095Y-114978381D02*
X94996095Y-115787905D01*
X95043714Y-115883143D01*
X95091333Y-115930762D01*
X95186571Y-115978381D01*
X95377048Y-115978381D01*
X95472286Y-115930762D01*
X95519905Y-115883143D01*
X95567524Y-115787905D01*
X95567524Y-114978381D01*
X95996095Y-115073619D02*
X96043714Y-115026000D01*
X96138952Y-114978381D01*
X96377048Y-114978381D01*
X96472286Y-115026000D01*
X96519905Y-115073619D01*
X96567524Y-115168857D01*
X96567524Y-115264095D01*
X96519905Y-115406952D01*
X95948476Y-115978381D01*
X96567524Y-115978381D01*
X68457381Y-128396905D02*
X69266905Y-128396905D01*
X69362143Y-128349286D01*
X69409762Y-128301667D01*
X69457381Y-128206429D01*
X69457381Y-128015952D01*
X69409762Y-127920714D01*
X69362143Y-127873095D01*
X69266905Y-127825476D01*
X68457381Y-127825476D01*
X68457381Y-127444524D02*
X68457381Y-126825476D01*
X68838333Y-127158810D01*
X68838333Y-127015952D01*
X68885952Y-126920714D01*
X68933571Y-126873095D01*
X69028810Y-126825476D01*
X69266905Y-126825476D01*
X69362143Y-126873095D01*
X69409762Y-126920714D01*
X69457381Y-127015952D01*
X69457381Y-127301667D01*
X69409762Y-127396905D01*
X69362143Y-127444524D01*
X59963334Y-118227143D02*
X59915715Y-118274762D01*
X59772858Y-118322381D01*
X59677620Y-118322381D01*
X59534762Y-118274762D01*
X59439524Y-118179524D01*
X59391905Y-118084286D01*
X59344286Y-117893810D01*
X59344286Y-117750952D01*
X59391905Y-117560476D01*
X59439524Y-117465238D01*
X59534762Y-117370000D01*
X59677620Y-117322381D01*
X59772858Y-117322381D01*
X59915715Y-117370000D01*
X59963334Y-117417619D01*
X60534762Y-117750952D02*
X60439524Y-117703333D01*
X60391905Y-117655714D01*
X60344286Y-117560476D01*
X60344286Y-117512857D01*
X60391905Y-117417619D01*
X60439524Y-117370000D01*
X60534762Y-117322381D01*
X60725239Y-117322381D01*
X60820477Y-117370000D01*
X60868096Y-117417619D01*
X60915715Y-117512857D01*
X60915715Y-117560476D01*
X60868096Y-117655714D01*
X60820477Y-117703333D01*
X60725239Y-117750952D01*
X60534762Y-117750952D01*
X60439524Y-117798571D01*
X60391905Y-117846190D01*
X60344286Y-117941429D01*
X60344286Y-118131905D01*
X60391905Y-118227143D01*
X60439524Y-118274762D01*
X60534762Y-118322381D01*
X60725239Y-118322381D01*
X60820477Y-118274762D01*
X60868096Y-118227143D01*
X60915715Y-118131905D01*
X60915715Y-117941429D01*
X60868096Y-117846190D01*
X60820477Y-117798571D01*
X60725239Y-117750952D01*
X82907143Y-115756666D02*
X82954762Y-115804285D01*
X83002381Y-115947142D01*
X83002381Y-116042380D01*
X82954762Y-116185238D01*
X82859524Y-116280476D01*
X82764286Y-116328095D01*
X82573810Y-116375714D01*
X82430952Y-116375714D01*
X82240476Y-116328095D01*
X82145238Y-116280476D01*
X82050000Y-116185238D01*
X82002381Y-116042380D01*
X82002381Y-115947142D01*
X82050000Y-115804285D01*
X82097619Y-115756666D01*
X83002381Y-115280476D02*
X83002381Y-115090000D01*
X82954762Y-114994761D01*
X82907143Y-114947142D01*
X82764286Y-114851904D01*
X82573810Y-114804285D01*
X82192857Y-114804285D01*
X82097619Y-114851904D01*
X82050000Y-114899523D01*
X82002381Y-114994761D01*
X82002381Y-115185238D01*
X82050000Y-115280476D01*
X82097619Y-115328095D01*
X82192857Y-115375714D01*
X82430952Y-115375714D01*
X82526190Y-115328095D01*
X82573810Y-115280476D01*
X82621429Y-115185238D01*
X82621429Y-114994761D01*
X82573810Y-114899523D01*
X82526190Y-114851904D01*
X82430952Y-114804285D01*
X94947143Y-113572381D02*
X94613809Y-113096190D01*
X94375714Y-113572381D02*
X94375714Y-112572381D01*
X94756667Y-112572381D01*
X94851905Y-112620000D01*
X94899524Y-112667619D01*
X94947143Y-112762857D01*
X94947143Y-112905714D01*
X94899524Y-113000952D01*
X94851905Y-113048571D01*
X94756667Y-113096190D01*
X94375714Y-113096190D01*
X95328095Y-112667619D02*
X95375714Y-112620000D01*
X95470952Y-112572381D01*
X95709048Y-112572381D01*
X95804286Y-112620000D01*
X95851905Y-112667619D01*
X95899524Y-112762857D01*
X95899524Y-112858095D01*
X95851905Y-113000952D01*
X95280476Y-113572381D01*
X95899524Y-113572381D01*
X96470952Y-113000952D02*
X96375714Y-112953333D01*
X96328095Y-112905714D01*
X96280476Y-112810476D01*
X96280476Y-112762857D01*
X96328095Y-112667619D01*
X96375714Y-112620000D01*
X96470952Y-112572381D01*
X96661429Y-112572381D01*
X96756667Y-112620000D01*
X96804286Y-112667619D01*
X96851905Y-112762857D01*
X96851905Y-112810476D01*
X96804286Y-112905714D01*
X96756667Y-112953333D01*
X96661429Y-113000952D01*
X96470952Y-113000952D01*
X96375714Y-113048571D01*
X96328095Y-113096190D01*
X96280476Y-113191429D01*
X96280476Y-113381905D01*
X96328095Y-113477143D01*
X96375714Y-113524762D01*
X96470952Y-113572381D01*
X96661429Y-113572381D01*
X96756667Y-113524762D01*
X96804286Y-113477143D01*
X96851905Y-113381905D01*
X96851905Y-113191429D01*
X96804286Y-113096190D01*
X96756667Y-113048571D01*
X96661429Y-113000952D01*
M02*
