G04 #@! TF.FileFunction,Legend,Top*
%FSLAX46Y46*%
G04 Gerber Fmt 4.6, Leading zero omitted, Abs format (unit mm)*
G04 Created by KiCad (PCBNEW 4.0.7) date 09/26/21 15:14:21*
%MOMM*%
%LPD*%
G01*
G04 APERTURE LIST*
%ADD10C,0.100000*%
%ADD11C,0.150000*%
%ADD12C,0.120000*%
G04 APERTURE END LIST*
D10*
D11*
X118309524Y-111452381D02*
X117833333Y-111452381D01*
X117833333Y-110452381D01*
X118642857Y-111452381D02*
X118642857Y-110452381D01*
X118976191Y-111166667D01*
X119309524Y-110452381D01*
X119309524Y-111452381D01*
X119690476Y-110452381D02*
X120309524Y-110452381D01*
X119976190Y-110833333D01*
X120119048Y-110833333D01*
X120214286Y-110880952D01*
X120261905Y-110928571D01*
X120309524Y-111023810D01*
X120309524Y-111261905D01*
X120261905Y-111357143D01*
X120214286Y-111404762D01*
X120119048Y-111452381D01*
X119833333Y-111452381D01*
X119738095Y-111404762D01*
X119690476Y-111357143D01*
X121214286Y-110452381D02*
X120738095Y-110452381D01*
X120690476Y-110928571D01*
X120738095Y-110880952D01*
X120833333Y-110833333D01*
X121071429Y-110833333D01*
X121166667Y-110880952D01*
X121214286Y-110928571D01*
X121261905Y-111023810D01*
X121261905Y-111261905D01*
X121214286Y-111357143D01*
X121166667Y-111404762D01*
X121071429Y-111452381D01*
X120833333Y-111452381D01*
X120738095Y-111404762D01*
X120690476Y-111357143D01*
X121833333Y-110880952D02*
X121738095Y-110833333D01*
X121690476Y-110785714D01*
X121642857Y-110690476D01*
X121642857Y-110642857D01*
X121690476Y-110547619D01*
X121738095Y-110500000D01*
X121833333Y-110452381D01*
X122023810Y-110452381D01*
X122119048Y-110500000D01*
X122166667Y-110547619D01*
X122214286Y-110642857D01*
X122214286Y-110690476D01*
X122166667Y-110785714D01*
X122119048Y-110833333D01*
X122023810Y-110880952D01*
X121833333Y-110880952D01*
X121738095Y-110928571D01*
X121690476Y-110976190D01*
X121642857Y-111071429D01*
X121642857Y-111261905D01*
X121690476Y-111357143D01*
X121738095Y-111404762D01*
X121833333Y-111452381D01*
X122023810Y-111452381D01*
X122119048Y-111404762D01*
X122166667Y-111357143D01*
X122214286Y-111261905D01*
X122214286Y-111071429D01*
X122166667Y-110976190D01*
X122119048Y-110928571D01*
X122023810Y-110880952D01*
X114285715Y-115452381D02*
X113714286Y-115452381D01*
X114000000Y-115452381D02*
X114000000Y-114452381D01*
X113904762Y-114595238D01*
X113809524Y-114690476D01*
X113714286Y-114738095D01*
X68778381Y-136953428D02*
X67778381Y-136953428D01*
X68492667Y-136620094D01*
X67778381Y-136286761D01*
X68778381Y-136286761D01*
X68778381Y-135810571D02*
X67778381Y-135810571D01*
X68683143Y-134762952D02*
X68730762Y-134810571D01*
X68778381Y-134953428D01*
X68778381Y-135048666D01*
X68730762Y-135191524D01*
X68635524Y-135286762D01*
X68540286Y-135334381D01*
X68349810Y-135382000D01*
X68206952Y-135382000D01*
X68016476Y-135334381D01*
X67921238Y-135286762D01*
X67826000Y-135191524D01*
X67778381Y-135048666D01*
X67778381Y-134953428D01*
X67826000Y-134810571D01*
X67873619Y-134762952D01*
X68778381Y-133762952D02*
X68302190Y-134096286D01*
X68778381Y-134334381D02*
X67778381Y-134334381D01*
X67778381Y-133953428D01*
X67826000Y-133858190D01*
X67873619Y-133810571D01*
X67968857Y-133762952D01*
X68111714Y-133762952D01*
X68206952Y-133810571D01*
X68254571Y-133858190D01*
X68302190Y-133953428D01*
X68302190Y-134334381D01*
X118237143Y-67762381D02*
X118237143Y-66762381D01*
X118475238Y-66762381D01*
X118618096Y-66810000D01*
X118713334Y-66905238D01*
X118760953Y-67000476D01*
X118808572Y-67190952D01*
X118808572Y-67333810D01*
X118760953Y-67524286D01*
X118713334Y-67619524D01*
X118618096Y-67714762D01*
X118475238Y-67762381D01*
X118237143Y-67762381D01*
X119094286Y-66762381D02*
X119665715Y-66762381D01*
X119380000Y-67762381D02*
X119380000Y-66762381D01*
X120570477Y-67762381D02*
X120237143Y-67286190D01*
X119999048Y-67762381D02*
X119999048Y-66762381D01*
X120380001Y-66762381D01*
X120475239Y-66810000D01*
X120522858Y-66857619D01*
X120570477Y-66952857D01*
X120570477Y-67095714D01*
X120522858Y-67190952D01*
X120475239Y-67238571D01*
X120380001Y-67286190D01*
X119999048Y-67286190D01*
X90792381Y-124070476D02*
X90792381Y-124546667D01*
X89792381Y-124546667D01*
X90792381Y-123737143D02*
X89792381Y-123737143D01*
X90506667Y-123403809D01*
X89792381Y-123070476D01*
X90792381Y-123070476D01*
X89792381Y-122689524D02*
X89792381Y-122070476D01*
X90173333Y-122403810D01*
X90173333Y-122260952D01*
X90220952Y-122165714D01*
X90268571Y-122118095D01*
X90363810Y-122070476D01*
X90601905Y-122070476D01*
X90697143Y-122118095D01*
X90744762Y-122165714D01*
X90792381Y-122260952D01*
X90792381Y-122546667D01*
X90744762Y-122641905D01*
X90697143Y-122689524D01*
X90220952Y-121499048D02*
X90173333Y-121594286D01*
X90125714Y-121641905D01*
X90030476Y-121689524D01*
X89982857Y-121689524D01*
X89887619Y-121641905D01*
X89840000Y-121594286D01*
X89792381Y-121499048D01*
X89792381Y-121308571D01*
X89840000Y-121213333D01*
X89887619Y-121165714D01*
X89982857Y-121118095D01*
X90030476Y-121118095D01*
X90125714Y-121165714D01*
X90173333Y-121213333D01*
X90220952Y-121308571D01*
X90220952Y-121499048D01*
X90268571Y-121594286D01*
X90316190Y-121641905D01*
X90411429Y-121689524D01*
X90601905Y-121689524D01*
X90697143Y-121641905D01*
X90744762Y-121594286D01*
X90792381Y-121499048D01*
X90792381Y-121308571D01*
X90744762Y-121213333D01*
X90697143Y-121165714D01*
X90601905Y-121118095D01*
X90411429Y-121118095D01*
X90316190Y-121165714D01*
X90268571Y-121213333D01*
X90220952Y-121308571D01*
X89792381Y-120260952D02*
X89792381Y-120451429D01*
X89840000Y-120546667D01*
X89887619Y-120594286D01*
X90030476Y-120689524D01*
X90220952Y-120737143D01*
X90601905Y-120737143D01*
X90697143Y-120689524D01*
X90744762Y-120641905D01*
X90792381Y-120546667D01*
X90792381Y-120356190D01*
X90744762Y-120260952D01*
X90697143Y-120213333D01*
X90601905Y-120165714D01*
X90363810Y-120165714D01*
X90268571Y-120213333D01*
X90220952Y-120260952D01*
X90173333Y-120356190D01*
X90173333Y-120546667D01*
X90220952Y-120641905D01*
X90268571Y-120689524D01*
X90363810Y-120737143D01*
X56729524Y-128214381D02*
X56253333Y-128214381D01*
X56253333Y-127214381D01*
X57062857Y-128214381D02*
X57062857Y-127214381D01*
X57396191Y-127928667D01*
X57729524Y-127214381D01*
X57729524Y-128214381D01*
X58110476Y-127214381D02*
X58729524Y-127214381D01*
X58396190Y-127595333D01*
X58539048Y-127595333D01*
X58634286Y-127642952D01*
X58681905Y-127690571D01*
X58729524Y-127785810D01*
X58729524Y-128023905D01*
X58681905Y-128119143D01*
X58634286Y-128166762D01*
X58539048Y-128214381D01*
X58253333Y-128214381D01*
X58158095Y-128166762D01*
X58110476Y-128119143D01*
X59634286Y-127214381D02*
X59158095Y-127214381D01*
X59110476Y-127690571D01*
X59158095Y-127642952D01*
X59253333Y-127595333D01*
X59491429Y-127595333D01*
X59586667Y-127642952D01*
X59634286Y-127690571D01*
X59681905Y-127785810D01*
X59681905Y-128023905D01*
X59634286Y-128119143D01*
X59586667Y-128166762D01*
X59491429Y-128214381D01*
X59253333Y-128214381D01*
X59158095Y-128166762D01*
X59110476Y-128119143D01*
X60253333Y-127642952D02*
X60158095Y-127595333D01*
X60110476Y-127547714D01*
X60062857Y-127452476D01*
X60062857Y-127404857D01*
X60110476Y-127309619D01*
X60158095Y-127262000D01*
X60253333Y-127214381D01*
X60443810Y-127214381D01*
X60539048Y-127262000D01*
X60586667Y-127309619D01*
X60634286Y-127404857D01*
X60634286Y-127452476D01*
X60586667Y-127547714D01*
X60539048Y-127595333D01*
X60443810Y-127642952D01*
X60253333Y-127642952D01*
X60158095Y-127690571D01*
X60110476Y-127738190D01*
X60062857Y-127833429D01*
X60062857Y-128023905D01*
X60110476Y-128119143D01*
X60158095Y-128166762D01*
X60253333Y-128214381D01*
X60443810Y-128214381D01*
X60539048Y-128166762D01*
X60586667Y-128119143D01*
X60634286Y-128023905D01*
X60634286Y-127833429D01*
X60586667Y-127738190D01*
X60539048Y-127690571D01*
X60443810Y-127642952D01*
X86705715Y-117042381D02*
X86134286Y-117042381D01*
X86420000Y-117042381D02*
X86420000Y-116042381D01*
X86324762Y-116185238D01*
X86229524Y-116280476D01*
X86134286Y-116328095D01*
X64547715Y-124150381D02*
X63976286Y-124150381D01*
X64262000Y-124150381D02*
X64262000Y-123150381D01*
X64166762Y-123293238D01*
X64071524Y-123388476D01*
X63976286Y-123436095D01*
X38285715Y-72927381D02*
X37714286Y-72927381D01*
X38000000Y-72927381D02*
X38000000Y-71927381D01*
X37904762Y-72070238D01*
X37809524Y-72165476D01*
X37714286Y-72213095D01*
X37560715Y-46877381D02*
X36989286Y-46877381D01*
X37275000Y-46877381D02*
X37275000Y-45877381D01*
X37179762Y-46020238D01*
X37084524Y-46115476D01*
X36989286Y-46163095D01*
X95054286Y-139824762D02*
X95197143Y-139872381D01*
X95435239Y-139872381D01*
X95530477Y-139824762D01*
X95578096Y-139777143D01*
X95625715Y-139681905D01*
X95625715Y-139586667D01*
X95578096Y-139491429D01*
X95530477Y-139443810D01*
X95435239Y-139396190D01*
X95244762Y-139348571D01*
X95149524Y-139300952D01*
X95101905Y-139253333D01*
X95054286Y-139158095D01*
X95054286Y-139062857D01*
X95101905Y-138967619D01*
X95149524Y-138920000D01*
X95244762Y-138872381D01*
X95482858Y-138872381D01*
X95625715Y-138920000D01*
X96054286Y-139872381D02*
X96054286Y-138872381D01*
X96435239Y-138872381D01*
X96530477Y-138920000D01*
X96578096Y-138967619D01*
X96625715Y-139062857D01*
X96625715Y-139205714D01*
X96578096Y-139300952D01*
X96530477Y-139348571D01*
X96435239Y-139396190D01*
X96054286Y-139396190D01*
X97054286Y-139872381D02*
X97054286Y-138872381D01*
X97625715Y-139872381D02*
X97197143Y-139300952D01*
X97625715Y-138872381D02*
X97054286Y-139443810D01*
X88788096Y-138860000D02*
X88692858Y-138812381D01*
X88550001Y-138812381D01*
X88407143Y-138860000D01*
X88311905Y-138955238D01*
X88264286Y-139050476D01*
X88216667Y-139240952D01*
X88216667Y-139383810D01*
X88264286Y-139574286D01*
X88311905Y-139669524D01*
X88407143Y-139764762D01*
X88550001Y-139812381D01*
X88645239Y-139812381D01*
X88788096Y-139764762D01*
X88835715Y-139717143D01*
X88835715Y-139383810D01*
X88645239Y-139383810D01*
X89264286Y-139812381D02*
X89264286Y-138812381D01*
X89835715Y-139812381D01*
X89835715Y-138812381D01*
X90311905Y-139812381D02*
X90311905Y-138812381D01*
X90550000Y-138812381D01*
X90692858Y-138860000D01*
X90788096Y-138955238D01*
X90835715Y-139050476D01*
X90883334Y-139240952D01*
X90883334Y-139383810D01*
X90835715Y-139574286D01*
X90788096Y-139669524D01*
X90692858Y-139764762D01*
X90550000Y-139812381D01*
X90311905Y-139812381D01*
X71318381Y-136858190D02*
X70318381Y-136858190D01*
X71032667Y-136524856D01*
X70318381Y-136191523D01*
X71318381Y-136191523D01*
X71318381Y-135715333D02*
X70318381Y-135715333D01*
X71223143Y-134667714D02*
X71270762Y-134715333D01*
X71318381Y-134858190D01*
X71318381Y-134953428D01*
X71270762Y-135096286D01*
X71175524Y-135191524D01*
X71080286Y-135239143D01*
X70889810Y-135286762D01*
X70746952Y-135286762D01*
X70556476Y-135239143D01*
X70461238Y-135191524D01*
X70366000Y-135096286D01*
X70318381Y-134953428D01*
X70318381Y-134858190D01*
X70366000Y-134715333D01*
X70413619Y-134667714D01*
X71318381Y-133762952D02*
X71318381Y-134239143D01*
X70318381Y-134239143D01*
X76398381Y-136207333D02*
X75922190Y-136540667D01*
X76398381Y-136778762D02*
X75398381Y-136778762D01*
X75398381Y-136397809D01*
X75446000Y-136302571D01*
X75493619Y-136254952D01*
X75588857Y-136207333D01*
X75731714Y-136207333D01*
X75826952Y-136254952D01*
X75874571Y-136302571D01*
X75922190Y-136397809D01*
X75922190Y-136778762D01*
X76398381Y-135778762D02*
X75398381Y-135778762D01*
X75446000Y-134778762D02*
X75398381Y-134874000D01*
X75398381Y-135016857D01*
X75446000Y-135159715D01*
X75541238Y-135254953D01*
X75636476Y-135302572D01*
X75826952Y-135350191D01*
X75969810Y-135350191D01*
X76160286Y-135302572D01*
X76255524Y-135254953D01*
X76350762Y-135159715D01*
X76398381Y-135016857D01*
X76398381Y-134921619D01*
X76350762Y-134778762D01*
X76303143Y-134731143D01*
X75969810Y-134731143D01*
X75969810Y-134921619D01*
X76398381Y-134302572D02*
X75398381Y-134302572D01*
X75874571Y-134302572D02*
X75874571Y-133731143D01*
X76398381Y-133731143D02*
X75398381Y-133731143D01*
X75398381Y-133397810D02*
X75398381Y-132826381D01*
X76398381Y-133112096D02*
X75398381Y-133112096D01*
X73858381Y-136207381D02*
X73858381Y-136683572D01*
X72858381Y-136683572D01*
X73334571Y-135874048D02*
X73334571Y-135540714D01*
X73858381Y-135397857D02*
X73858381Y-135874048D01*
X72858381Y-135874048D01*
X72858381Y-135397857D01*
X73334571Y-134635952D02*
X73334571Y-134969286D01*
X73858381Y-134969286D02*
X72858381Y-134969286D01*
X72858381Y-134493095D01*
X72858381Y-134255000D02*
X72858381Y-133683571D01*
X73858381Y-133969286D02*
X72858381Y-133969286D01*
X65286000Y-136397904D02*
X65238381Y-136493142D01*
X65238381Y-136635999D01*
X65286000Y-136778857D01*
X65381238Y-136874095D01*
X65476476Y-136921714D01*
X65666952Y-136969333D01*
X65809810Y-136969333D01*
X66000286Y-136921714D01*
X66095524Y-136874095D01*
X66190762Y-136778857D01*
X66238381Y-136635999D01*
X66238381Y-136540761D01*
X66190762Y-136397904D01*
X66143143Y-136350285D01*
X65809810Y-136350285D01*
X65809810Y-136540761D01*
X66238381Y-135921714D02*
X65238381Y-135921714D01*
X66238381Y-135350285D01*
X65238381Y-135350285D01*
X66238381Y-134874095D02*
X65238381Y-134874095D01*
X65238381Y-134636000D01*
X65286000Y-134493142D01*
X65381238Y-134397904D01*
X65476476Y-134350285D01*
X65666952Y-134302666D01*
X65809810Y-134302666D01*
X66000286Y-134350285D01*
X66095524Y-134397904D01*
X66190762Y-134493142D01*
X66238381Y-134636000D01*
X66238381Y-134874095D01*
X42314762Y-48815476D02*
X42362381Y-48672619D01*
X42362381Y-48434523D01*
X42314762Y-48339285D01*
X42267143Y-48291666D01*
X42171905Y-48244047D01*
X42076667Y-48244047D01*
X41981429Y-48291666D01*
X41933810Y-48339285D01*
X41886190Y-48434523D01*
X41838571Y-48625000D01*
X41790952Y-48720238D01*
X41743333Y-48767857D01*
X41648095Y-48815476D01*
X41552857Y-48815476D01*
X41457619Y-48767857D01*
X41410000Y-48720238D01*
X41362381Y-48625000D01*
X41362381Y-48386904D01*
X41410000Y-48244047D01*
X42267143Y-47244047D02*
X42314762Y-47291666D01*
X42362381Y-47434523D01*
X42362381Y-47529761D01*
X42314762Y-47672619D01*
X42219524Y-47767857D01*
X42124286Y-47815476D01*
X41933810Y-47863095D01*
X41790952Y-47863095D01*
X41600476Y-47815476D01*
X41505238Y-47767857D01*
X41410000Y-47672619D01*
X41362381Y-47529761D01*
X41362381Y-47434523D01*
X41410000Y-47291666D01*
X41457619Y-47244047D01*
X42362381Y-46339285D02*
X42362381Y-46815476D01*
X41362381Y-46815476D01*
X44854762Y-48839286D02*
X44902381Y-48696429D01*
X44902381Y-48458333D01*
X44854762Y-48363095D01*
X44807143Y-48315476D01*
X44711905Y-48267857D01*
X44616667Y-48267857D01*
X44521429Y-48315476D01*
X44473810Y-48363095D01*
X44426190Y-48458333D01*
X44378571Y-48648810D01*
X44330952Y-48744048D01*
X44283333Y-48791667D01*
X44188095Y-48839286D01*
X44092857Y-48839286D01*
X43997619Y-48791667D01*
X43950000Y-48744048D01*
X43902381Y-48648810D01*
X43902381Y-48410714D01*
X43950000Y-48267857D01*
X44902381Y-47839286D02*
X43902381Y-47839286D01*
X43902381Y-47601191D01*
X43950000Y-47458333D01*
X44045238Y-47363095D01*
X44140476Y-47315476D01*
X44330952Y-47267857D01*
X44473810Y-47267857D01*
X44664286Y-47315476D01*
X44759524Y-47363095D01*
X44854762Y-47458333D01*
X44902381Y-47601191D01*
X44902381Y-47839286D01*
X44616667Y-46886905D02*
X44616667Y-46410714D01*
X44902381Y-46982143D02*
X43902381Y-46648810D01*
X44902381Y-46315476D01*
X47315429Y-49291714D02*
X47315429Y-48529809D01*
X47696381Y-48910761D02*
X46934476Y-48910761D01*
X46696381Y-47577428D02*
X46696381Y-48053619D01*
X47172571Y-48101238D01*
X47124952Y-48053619D01*
X47077333Y-47958381D01*
X47077333Y-47720285D01*
X47124952Y-47625047D01*
X47172571Y-47577428D01*
X47267810Y-47529809D01*
X47505905Y-47529809D01*
X47601143Y-47577428D01*
X47648762Y-47625047D01*
X47696381Y-47720285D01*
X47696381Y-47958381D01*
X47648762Y-48053619D01*
X47601143Y-48101238D01*
X46696381Y-47244095D02*
X47696381Y-46910762D01*
X46696381Y-46577428D01*
X38616000Y-48513904D02*
X38568381Y-48609142D01*
X38568381Y-48751999D01*
X38616000Y-48894857D01*
X38711238Y-48990095D01*
X38806476Y-49037714D01*
X38996952Y-49085333D01*
X39139810Y-49085333D01*
X39330286Y-49037714D01*
X39425524Y-48990095D01*
X39520762Y-48894857D01*
X39568381Y-48751999D01*
X39568381Y-48656761D01*
X39520762Y-48513904D01*
X39473143Y-48466285D01*
X39139810Y-48466285D01*
X39139810Y-48656761D01*
X39568381Y-48037714D02*
X38568381Y-48037714D01*
X39568381Y-47466285D01*
X38568381Y-47466285D01*
X39568381Y-46990095D02*
X38568381Y-46990095D01*
X38568381Y-46752000D01*
X38616000Y-46609142D01*
X38711238Y-46513904D01*
X38806476Y-46466285D01*
X38996952Y-46418666D01*
X39139810Y-46418666D01*
X39330286Y-46466285D01*
X39425524Y-46513904D01*
X39520762Y-46609142D01*
X39568381Y-46752000D01*
X39568381Y-46990095D01*
X89988666Y-44014381D02*
X89988666Y-43014381D01*
X90560095Y-44014381D02*
X90131523Y-43442952D01*
X90560095Y-43014381D02*
X89988666Y-43585810D01*
X90988666Y-43490571D02*
X91322000Y-43490571D01*
X91464857Y-44014381D02*
X90988666Y-44014381D01*
X90988666Y-43014381D01*
X91464857Y-43014381D01*
X92083904Y-43538190D02*
X92083904Y-44014381D01*
X91750571Y-43014381D02*
X92083904Y-43538190D01*
X92417238Y-43014381D01*
X92750571Y-44014381D02*
X92750571Y-43014381D01*
X93131524Y-43014381D01*
X93226762Y-43062000D01*
X93274381Y-43109619D01*
X93322000Y-43204857D01*
X93322000Y-43347714D01*
X93274381Y-43442952D01*
X93226762Y-43490571D01*
X93131524Y-43538190D01*
X92750571Y-43538190D01*
X93702952Y-43728667D02*
X94179143Y-43728667D01*
X93607714Y-44014381D02*
X93941047Y-43014381D01*
X94274381Y-44014381D01*
X94607714Y-44014381D02*
X94607714Y-43014381D01*
X94845809Y-43014381D01*
X94988667Y-43062000D01*
X95083905Y-43157238D01*
X95131524Y-43252476D01*
X95179143Y-43442952D01*
X95179143Y-43585810D01*
X95131524Y-43776286D01*
X95083905Y-43871524D01*
X94988667Y-43966762D01*
X94845809Y-44014381D01*
X94607714Y-44014381D01*
X96322000Y-43728667D02*
X96798191Y-43728667D01*
X96226762Y-44014381D02*
X96560095Y-43014381D01*
X96893429Y-44014381D01*
X97226762Y-44014381D02*
X97226762Y-43014381D01*
X97798191Y-44014381D01*
X97798191Y-43014381D01*
X98274381Y-44014381D02*
X98274381Y-43014381D01*
X98512476Y-43014381D01*
X98655334Y-43062000D01*
X98750572Y-43157238D01*
X98798191Y-43252476D01*
X98845810Y-43442952D01*
X98845810Y-43585810D01*
X98798191Y-43776286D01*
X98750572Y-43871524D01*
X98655334Y-43966762D01*
X98512476Y-44014381D01*
X98274381Y-44014381D01*
X100512477Y-44014381D02*
X100036286Y-44014381D01*
X100036286Y-43014381D01*
X100845810Y-43490571D02*
X101179144Y-43490571D01*
X101322001Y-44014381D02*
X100845810Y-44014381D01*
X100845810Y-43014381D01*
X101322001Y-43014381D01*
X101750572Y-44014381D02*
X101750572Y-43014381D01*
X101988667Y-43014381D01*
X102131525Y-43062000D01*
X102226763Y-43157238D01*
X102274382Y-43252476D01*
X102322001Y-43442952D01*
X102322001Y-43585810D01*
X102274382Y-43776286D01*
X102226763Y-43871524D01*
X102131525Y-43966762D01*
X101988667Y-44014381D01*
X101750572Y-44014381D01*
X103845811Y-43490571D02*
X103988668Y-43538190D01*
X104036287Y-43585810D01*
X104083906Y-43681048D01*
X104083906Y-43823905D01*
X104036287Y-43919143D01*
X103988668Y-43966762D01*
X103893430Y-44014381D01*
X103512477Y-44014381D01*
X103512477Y-43014381D01*
X103845811Y-43014381D01*
X103941049Y-43062000D01*
X103988668Y-43109619D01*
X104036287Y-43204857D01*
X104036287Y-43300095D01*
X103988668Y-43395333D01*
X103941049Y-43442952D01*
X103845811Y-43490571D01*
X103512477Y-43490571D01*
X104464858Y-43728667D02*
X104941049Y-43728667D01*
X104369620Y-44014381D02*
X104702953Y-43014381D01*
X105036287Y-44014381D01*
X105941049Y-44014381D02*
X105607715Y-43538190D01*
X105369620Y-44014381D02*
X105369620Y-43014381D01*
X105750573Y-43014381D01*
X105845811Y-43062000D01*
X105893430Y-43109619D01*
X105941049Y-43204857D01*
X105941049Y-43347714D01*
X105893430Y-43442952D01*
X105845811Y-43490571D01*
X105750573Y-43538190D01*
X105369620Y-43538190D01*
X107131525Y-44014381D02*
X107131525Y-43014381D01*
X107512478Y-43014381D01*
X107607716Y-43062000D01*
X107655335Y-43109619D01*
X107702954Y-43204857D01*
X107702954Y-43347714D01*
X107655335Y-43442952D01*
X107607716Y-43490571D01*
X107512478Y-43538190D01*
X107131525Y-43538190D01*
X108702954Y-43919143D02*
X108655335Y-43966762D01*
X108512478Y-44014381D01*
X108417240Y-44014381D01*
X108274382Y-43966762D01*
X108179144Y-43871524D01*
X108131525Y-43776286D01*
X108083906Y-43585810D01*
X108083906Y-43442952D01*
X108131525Y-43252476D01*
X108179144Y-43157238D01*
X108274382Y-43062000D01*
X108417240Y-43014381D01*
X108512478Y-43014381D01*
X108655335Y-43062000D01*
X108702954Y-43109619D01*
X109464859Y-43490571D02*
X109607716Y-43538190D01*
X109655335Y-43585810D01*
X109702954Y-43681048D01*
X109702954Y-43823905D01*
X109655335Y-43919143D01*
X109607716Y-43966762D01*
X109512478Y-44014381D01*
X109131525Y-44014381D01*
X109131525Y-43014381D01*
X109464859Y-43014381D01*
X109560097Y-43062000D01*
X109607716Y-43109619D01*
X109655335Y-43204857D01*
X109655335Y-43300095D01*
X109607716Y-43395333D01*
X109560097Y-43442952D01*
X109464859Y-43490571D01*
X109131525Y-43490571D01*
X87155333Y-45140571D02*
X86821999Y-45140571D01*
X86821999Y-45664381D02*
X86821999Y-44664381D01*
X87298190Y-44664381D01*
X87869618Y-44664381D02*
X88060095Y-44664381D01*
X88155333Y-44712000D01*
X88250571Y-44807238D01*
X88298190Y-44997714D01*
X88298190Y-45331048D01*
X88250571Y-45521524D01*
X88155333Y-45616762D01*
X88060095Y-45664381D01*
X87869618Y-45664381D01*
X87774380Y-45616762D01*
X87679142Y-45521524D01*
X87631523Y-45331048D01*
X87631523Y-44997714D01*
X87679142Y-44807238D01*
X87774380Y-44712000D01*
X87869618Y-44664381D01*
X89298190Y-45664381D02*
X88964856Y-45188190D01*
X88726761Y-45664381D02*
X88726761Y-44664381D01*
X89107714Y-44664381D01*
X89202952Y-44712000D01*
X89250571Y-44759619D01*
X89298190Y-44854857D01*
X89298190Y-44997714D01*
X89250571Y-45092952D01*
X89202952Y-45140571D01*
X89107714Y-45188190D01*
X88726761Y-45188190D01*
X91060095Y-45664381D02*
X90726761Y-45188190D01*
X90488666Y-45664381D02*
X90488666Y-44664381D01*
X90869619Y-44664381D01*
X90964857Y-44712000D01*
X91012476Y-44759619D01*
X91060095Y-44854857D01*
X91060095Y-44997714D01*
X91012476Y-45092952D01*
X90964857Y-45140571D01*
X90869619Y-45188190D01*
X90488666Y-45188190D01*
X91441047Y-45378667D02*
X91917238Y-45378667D01*
X91345809Y-45664381D02*
X91679142Y-44664381D01*
X92012476Y-45664381D01*
X92298190Y-45616762D02*
X92441047Y-45664381D01*
X92679143Y-45664381D01*
X92774381Y-45616762D01*
X92822000Y-45569143D01*
X92869619Y-45473905D01*
X92869619Y-45378667D01*
X92822000Y-45283429D01*
X92774381Y-45235810D01*
X92679143Y-45188190D01*
X92488666Y-45140571D01*
X92393428Y-45092952D01*
X92345809Y-45045333D01*
X92298190Y-44950095D01*
X92298190Y-44854857D01*
X92345809Y-44759619D01*
X92393428Y-44712000D01*
X92488666Y-44664381D01*
X92726762Y-44664381D01*
X92869619Y-44712000D01*
X93298190Y-45664381D02*
X93298190Y-44664381D01*
X93679143Y-44664381D01*
X93774381Y-44712000D01*
X93822000Y-44759619D01*
X93869619Y-44854857D01*
X93869619Y-44997714D01*
X93822000Y-45092952D01*
X93774381Y-45140571D01*
X93679143Y-45188190D01*
X93298190Y-45188190D01*
X94631524Y-45140571D02*
X94774381Y-45188190D01*
X94822000Y-45235810D01*
X94869619Y-45331048D01*
X94869619Y-45473905D01*
X94822000Y-45569143D01*
X94774381Y-45616762D01*
X94679143Y-45664381D01*
X94298190Y-45664381D01*
X94298190Y-44664381D01*
X94631524Y-44664381D01*
X94726762Y-44712000D01*
X94774381Y-44759619D01*
X94822000Y-44854857D01*
X94822000Y-44950095D01*
X94774381Y-45045333D01*
X94726762Y-45092952D01*
X94631524Y-45140571D01*
X94298190Y-45140571D01*
X95298190Y-45140571D02*
X95631524Y-45140571D01*
X95774381Y-45664381D02*
X95298190Y-45664381D01*
X95298190Y-44664381D01*
X95774381Y-44664381D01*
X96774381Y-45664381D02*
X96441047Y-45188190D01*
X96202952Y-45664381D02*
X96202952Y-44664381D01*
X96583905Y-44664381D01*
X96679143Y-44712000D01*
X96726762Y-44759619D01*
X96774381Y-44854857D01*
X96774381Y-44997714D01*
X96726762Y-45092952D01*
X96679143Y-45140571D01*
X96583905Y-45188190D01*
X96202952Y-45188190D01*
X97774381Y-45664381D02*
X97441047Y-45188190D01*
X97202952Y-45664381D02*
X97202952Y-44664381D01*
X97583905Y-44664381D01*
X97679143Y-44712000D01*
X97726762Y-44759619D01*
X97774381Y-44854857D01*
X97774381Y-44997714D01*
X97726762Y-45092952D01*
X97679143Y-45140571D01*
X97583905Y-45188190D01*
X97202952Y-45188190D01*
X98393428Y-45188190D02*
X98393428Y-45664381D01*
X98060095Y-44664381D02*
X98393428Y-45188190D01*
X98726762Y-44664381D01*
X99822000Y-45664381D02*
X99822000Y-44664381D01*
X100202953Y-44664381D01*
X100298191Y-44712000D01*
X100345810Y-44759619D01*
X100393429Y-44854857D01*
X100393429Y-44997714D01*
X100345810Y-45092952D01*
X100298191Y-45140571D01*
X100202953Y-45188190D01*
X99822000Y-45188190D01*
X100822000Y-45664381D02*
X100822000Y-44664381D01*
X102393429Y-45140571D02*
X102536286Y-45188190D01*
X102583905Y-45235810D01*
X102631524Y-45331048D01*
X102631524Y-45473905D01*
X102583905Y-45569143D01*
X102536286Y-45616762D01*
X102441048Y-45664381D01*
X102060095Y-45664381D01*
X102060095Y-44664381D01*
X102393429Y-44664381D01*
X102488667Y-44712000D01*
X102536286Y-44759619D01*
X102583905Y-44854857D01*
X102583905Y-44950095D01*
X102536286Y-45045333D01*
X102488667Y-45092952D01*
X102393429Y-45140571D01*
X102060095Y-45140571D01*
X103250571Y-45188190D02*
X103250571Y-45664381D01*
X102917238Y-44664381D02*
X103250571Y-45188190D01*
X103583905Y-44664381D01*
X104679143Y-45664381D02*
X104679143Y-44664381D01*
X104917238Y-44664381D01*
X105060096Y-44712000D01*
X105155334Y-44807238D01*
X105202953Y-44902476D01*
X105250572Y-45092952D01*
X105250572Y-45235810D01*
X105202953Y-45426286D01*
X105155334Y-45521524D01*
X105060096Y-45616762D01*
X104917238Y-45664381D01*
X104679143Y-45664381D01*
X105631524Y-45378667D02*
X106107715Y-45378667D01*
X105536286Y-45664381D02*
X105869619Y-44664381D01*
X106202953Y-45664381D01*
X106536286Y-45664381D02*
X106536286Y-44664381D01*
X107107715Y-45664381D01*
X107107715Y-44664381D01*
X108345810Y-45664381D02*
X108345810Y-44664381D01*
X108679144Y-45378667D01*
X109012477Y-44664381D01*
X109012477Y-45664381D01*
X109441048Y-45378667D02*
X109917239Y-45378667D01*
X109345810Y-45664381D02*
X109679143Y-44664381D01*
X110012477Y-45664381D01*
X110917239Y-45664381D02*
X110583905Y-45188190D01*
X110345810Y-45664381D02*
X110345810Y-44664381D01*
X110726763Y-44664381D01*
X110822001Y-44712000D01*
X110869620Y-44759619D01*
X110917239Y-44854857D01*
X110917239Y-44997714D01*
X110869620Y-45092952D01*
X110822001Y-45140571D01*
X110726763Y-45188190D01*
X110345810Y-45188190D01*
X111345810Y-45664381D02*
X111345810Y-44664381D01*
X111917239Y-45664381D02*
X111488667Y-45092952D01*
X111917239Y-44664381D02*
X111345810Y-45235810D01*
X112298191Y-45616762D02*
X112441048Y-45664381D01*
X112679144Y-45664381D01*
X112774382Y-45616762D01*
X112822001Y-45569143D01*
X112869620Y-45473905D01*
X112869620Y-45378667D01*
X112822001Y-45283429D01*
X112774382Y-45235810D01*
X112679144Y-45188190D01*
X112488667Y-45140571D01*
X112393429Y-45092952D01*
X112345810Y-45045333D01*
X112298191Y-44950095D01*
X112298191Y-44854857D01*
X112345810Y-44759619D01*
X112393429Y-44712000D01*
X112488667Y-44664381D01*
X112726763Y-44664381D01*
X112869620Y-44712000D01*
X94988667Y-47219143D02*
X94941048Y-47266762D01*
X94798191Y-47314381D01*
X94702953Y-47314381D01*
X94560095Y-47266762D01*
X94464857Y-47171524D01*
X94417238Y-47076286D01*
X94369619Y-46885810D01*
X94369619Y-46742952D01*
X94417238Y-46552476D01*
X94464857Y-46457238D01*
X94560095Y-46362000D01*
X94702953Y-46314381D01*
X94798191Y-46314381D01*
X94941048Y-46362000D01*
X94988667Y-46409619D01*
X95988667Y-47219143D02*
X95941048Y-47266762D01*
X95798191Y-47314381D01*
X95702953Y-47314381D01*
X95560095Y-47266762D01*
X95464857Y-47171524D01*
X95417238Y-47076286D01*
X95369619Y-46885810D01*
X95369619Y-46742952D01*
X95417238Y-46552476D01*
X95464857Y-46457238D01*
X95560095Y-46362000D01*
X95702953Y-46314381D01*
X95798191Y-46314381D01*
X95941048Y-46362000D01*
X95988667Y-46409619D01*
X96417238Y-46933429D02*
X97179143Y-46933429D01*
X97988667Y-46790571D02*
X98131524Y-46838190D01*
X98179143Y-46885810D01*
X98226762Y-46981048D01*
X98226762Y-47123905D01*
X98179143Y-47219143D01*
X98131524Y-47266762D01*
X98036286Y-47314381D01*
X97655333Y-47314381D01*
X97655333Y-46314381D01*
X97988667Y-46314381D01*
X98083905Y-46362000D01*
X98131524Y-46409619D01*
X98179143Y-46504857D01*
X98179143Y-46600095D01*
X98131524Y-46695333D01*
X98083905Y-46742952D01*
X97988667Y-46790571D01*
X97655333Y-46790571D01*
X98845809Y-46838190D02*
X98845809Y-47314381D01*
X98512476Y-46314381D02*
X98845809Y-46838190D01*
X99179143Y-46314381D01*
X99512476Y-46933429D02*
X100274381Y-46933429D01*
X100702952Y-47266762D02*
X100845809Y-47314381D01*
X101083905Y-47314381D01*
X101179143Y-47266762D01*
X101226762Y-47219143D01*
X101274381Y-47123905D01*
X101274381Y-47028667D01*
X101226762Y-46933429D01*
X101179143Y-46885810D01*
X101083905Y-46838190D01*
X100893428Y-46790571D01*
X100798190Y-46742952D01*
X100750571Y-46695333D01*
X100702952Y-46600095D01*
X100702952Y-46504857D01*
X100750571Y-46409619D01*
X100798190Y-46362000D01*
X100893428Y-46314381D01*
X101131524Y-46314381D01*
X101274381Y-46362000D01*
X101655333Y-47028667D02*
X102131524Y-47028667D01*
X101560095Y-47314381D02*
X101893428Y-46314381D01*
X102226762Y-47314381D01*
X103750572Y-46647714D02*
X103750572Y-47314381D01*
X103512476Y-46266762D02*
X103274381Y-46981048D01*
X103893429Y-46981048D01*
X104274381Y-47219143D02*
X104322000Y-47266762D01*
X104274381Y-47314381D01*
X104226762Y-47266762D01*
X104274381Y-47219143D01*
X104274381Y-47314381D01*
X104941047Y-46314381D02*
X105036286Y-46314381D01*
X105131524Y-46362000D01*
X105179143Y-46409619D01*
X105226762Y-46504857D01*
X105274381Y-46695333D01*
X105274381Y-46933429D01*
X105226762Y-47123905D01*
X105179143Y-47219143D01*
X105131524Y-47266762D01*
X105036286Y-47314381D01*
X104941047Y-47314381D01*
X104845809Y-47266762D01*
X104798190Y-47219143D01*
X104750571Y-47123905D01*
X104702952Y-46933429D01*
X104702952Y-46695333D01*
X104750571Y-46504857D01*
X104798190Y-46409619D01*
X104845809Y-46362000D01*
X104941047Y-46314381D01*
X62285715Y-56452381D02*
X61714286Y-56452381D01*
X62000000Y-56452381D02*
X62000000Y-55452381D01*
X61904762Y-55595238D01*
X61809524Y-55690476D01*
X61714286Y-55738095D01*
X122737619Y-54895715D02*
X122737619Y-54324286D01*
X122737619Y-54610000D02*
X123737619Y-54610000D01*
X123594762Y-54514762D01*
X123499524Y-54419524D01*
X123451905Y-54324286D01*
X41212381Y-87041905D02*
X41212381Y-86375238D01*
X42212381Y-86803810D01*
X41545714Y-85565714D02*
X42212381Y-85565714D01*
X41164762Y-85803810D02*
X41879048Y-86041905D01*
X41879048Y-85422857D01*
X42212381Y-85041905D02*
X41212381Y-85041905D01*
X41688571Y-85041905D02*
X41688571Y-84470476D01*
X42212381Y-84470476D02*
X41212381Y-84470476D01*
X42117143Y-83422857D02*
X42164762Y-83470476D01*
X42212381Y-83613333D01*
X42212381Y-83708571D01*
X42164762Y-83851429D01*
X42069524Y-83946667D01*
X41974286Y-83994286D01*
X41783810Y-84041905D01*
X41640952Y-84041905D01*
X41450476Y-83994286D01*
X41355238Y-83946667D01*
X41260000Y-83851429D01*
X41212381Y-83708571D01*
X41212381Y-83613333D01*
X41260000Y-83470476D01*
X41307619Y-83422857D01*
X41212381Y-82518095D02*
X41212381Y-82994286D01*
X41688571Y-83041905D01*
X41640952Y-82994286D01*
X41593333Y-82899048D01*
X41593333Y-82660952D01*
X41640952Y-82565714D01*
X41688571Y-82518095D01*
X41783810Y-82470476D01*
X42021905Y-82470476D01*
X42117143Y-82518095D01*
X42164762Y-82565714D01*
X42212381Y-82660952D01*
X42212381Y-82899048D01*
X42164762Y-82994286D01*
X42117143Y-83041905D01*
X42212381Y-81994286D02*
X42212381Y-81803810D01*
X42164762Y-81708571D01*
X42117143Y-81660952D01*
X41974286Y-81565714D01*
X41783810Y-81518095D01*
X41402857Y-81518095D01*
X41307619Y-81565714D01*
X41260000Y-81613333D01*
X41212381Y-81708571D01*
X41212381Y-81899048D01*
X41260000Y-81994286D01*
X41307619Y-82041905D01*
X41402857Y-82089524D01*
X41640952Y-82089524D01*
X41736190Y-82041905D01*
X41783810Y-81994286D01*
X41831429Y-81899048D01*
X41831429Y-81708571D01*
X41783810Y-81613333D01*
X41736190Y-81565714D01*
X41640952Y-81518095D01*
X41212381Y-80613333D02*
X41212381Y-81089524D01*
X41688571Y-81137143D01*
X41640952Y-81089524D01*
X41593333Y-80994286D01*
X41593333Y-80756190D01*
X41640952Y-80660952D01*
X41688571Y-80613333D01*
X41783810Y-80565714D01*
X42021905Y-80565714D01*
X42117143Y-80613333D01*
X42164762Y-80660952D01*
X42212381Y-80756190D01*
X42212381Y-80994286D01*
X42164762Y-81089524D01*
X42117143Y-81137143D01*
X77922381Y-48767857D02*
X76922381Y-48767857D01*
X76922381Y-48529762D01*
X76970000Y-48386904D01*
X77065238Y-48291666D01*
X77160476Y-48244047D01*
X77350952Y-48196428D01*
X77493810Y-48196428D01*
X77684286Y-48244047D01*
X77779524Y-48291666D01*
X77874762Y-48386904D01*
X77922381Y-48529762D01*
X77922381Y-48767857D01*
X76922381Y-47910714D02*
X76922381Y-47339285D01*
X77922381Y-47625000D02*
X76922381Y-47625000D01*
X77922381Y-46434523D02*
X77446190Y-46767857D01*
X77922381Y-47005952D02*
X76922381Y-47005952D01*
X76922381Y-46624999D01*
X76970000Y-46529761D01*
X77017619Y-46482142D01*
X77112857Y-46434523D01*
X77255714Y-46434523D01*
X77350952Y-46482142D01*
X77398571Y-46529761D01*
X77446190Y-46624999D01*
X77446190Y-47005952D01*
X119213334Y-65222381D02*
X118880000Y-64746190D01*
X118641905Y-65222381D02*
X118641905Y-64222381D01*
X119022858Y-64222381D01*
X119118096Y-64270000D01*
X119165715Y-64317619D01*
X119213334Y-64412857D01*
X119213334Y-64555714D01*
X119165715Y-64650952D01*
X119118096Y-64698571D01*
X119022858Y-64746190D01*
X118641905Y-64746190D01*
X119546667Y-64222381D02*
X120213334Y-65222381D01*
X120213334Y-64222381D02*
X119546667Y-65222381D01*
X118618095Y-61682381D02*
X119189524Y-61682381D01*
X118903809Y-62682381D02*
X118903809Y-61682381D01*
X119427619Y-61682381D02*
X120094286Y-62682381D01*
X120094286Y-61682381D02*
X119427619Y-62682381D01*
X118618096Y-59190000D02*
X118522858Y-59142381D01*
X118380001Y-59142381D01*
X118237143Y-59190000D01*
X118141905Y-59285238D01*
X118094286Y-59380476D01*
X118046667Y-59570952D01*
X118046667Y-59713810D01*
X118094286Y-59904286D01*
X118141905Y-59999524D01*
X118237143Y-60094762D01*
X118380001Y-60142381D01*
X118475239Y-60142381D01*
X118618096Y-60094762D01*
X118665715Y-60047143D01*
X118665715Y-59713810D01*
X118475239Y-59713810D01*
X119094286Y-60142381D02*
X119094286Y-59142381D01*
X119665715Y-60142381D01*
X119665715Y-59142381D01*
X120141905Y-60142381D02*
X120141905Y-59142381D01*
X120380000Y-59142381D01*
X120522858Y-59190000D01*
X120618096Y-59285238D01*
X120665715Y-59380476D01*
X120713334Y-59570952D01*
X120713334Y-59713810D01*
X120665715Y-59904286D01*
X120618096Y-59999524D01*
X120522858Y-60094762D01*
X120380000Y-60142381D01*
X120141905Y-60142381D01*
D12*
X77276000Y-140522000D02*
X77276000Y-137862000D01*
X67056000Y-140522000D02*
X77276000Y-140522000D01*
X67056000Y-137862000D02*
X77276000Y-137862000D01*
X67056000Y-140522000D02*
X67056000Y-137862000D01*
X65786000Y-140522000D02*
X64456000Y-140522000D01*
X64456000Y-140522000D02*
X64456000Y-139192000D01*
X98850000Y-122830000D02*
X98850000Y-127950000D01*
X96230000Y-122830000D02*
X96230000Y-127950000D01*
X98850000Y-122830000D02*
X96230000Y-122830000D01*
X98850000Y-127950000D02*
X96230000Y-127950000D01*
X81665296Y-128422691D02*
G75*
G02X79356000Y-128463000I-1154296J-40309D01*
G01*
X79356948Y-128483121D02*
G75*
G02X80751000Y-127334000I1154052J20121D01*
G01*
X84131000Y-120143000D02*
X84131000Y-129793000D01*
X79180000Y-120143000D02*
X79180000Y-129793000D01*
X84131000Y-120143000D02*
X79180000Y-120143000D01*
X84131000Y-129793000D02*
X79180000Y-129793000D01*
X81245000Y-129339000D02*
X79635000Y-127728000D01*
X81386000Y-129199000D02*
X79776000Y-127587000D01*
X54485309Y-119604296D02*
G75*
G02X54445000Y-117295000I-40309J1154296D01*
G01*
X54424879Y-117295948D02*
G75*
G02X55574000Y-118690000I20121J-1154052D01*
G01*
X62765000Y-122070000D02*
X53115000Y-122070000D01*
X62765000Y-117119000D02*
X53115000Y-117119000D01*
X62765000Y-122070000D02*
X62765000Y-117119000D01*
X53115000Y-122070000D02*
X53115000Y-117119000D01*
X53569000Y-119184000D02*
X55180000Y-117574000D01*
X53709000Y-119325000D02*
X55321000Y-117715000D01*
X45120000Y-105120000D02*
X45120000Y-105450000D01*
X45120000Y-105450000D02*
X38700000Y-105450000D01*
X38700000Y-105450000D02*
X38700000Y-105120000D01*
X45120000Y-103160000D02*
X45120000Y-102830000D01*
X45120000Y-102830000D02*
X38700000Y-102830000D01*
X38700000Y-102830000D02*
X38700000Y-103160000D01*
X44260000Y-72860000D02*
X44260000Y-67740000D01*
X46880000Y-72860000D02*
X46880000Y-67740000D01*
X44260000Y-72860000D02*
X46880000Y-72860000D01*
X44260000Y-67740000D02*
X46880000Y-67740000D01*
X113160000Y-74950000D02*
X111040000Y-74950000D01*
X111040000Y-74950000D02*
X111040000Y-79070000D01*
X111040000Y-79070000D02*
X113160000Y-79070000D01*
X113160000Y-79070000D02*
X113160000Y-74950000D01*
X112100000Y-74180000D02*
X112100000Y-74950000D01*
X112100000Y-79840000D02*
X112100000Y-79070000D01*
X113160000Y-75610000D02*
X111040000Y-75610000D01*
X116122000Y-74902000D02*
X114002000Y-74902000D01*
X114002000Y-74902000D02*
X114002000Y-79022000D01*
X114002000Y-79022000D02*
X116122000Y-79022000D01*
X116122000Y-79022000D02*
X116122000Y-74902000D01*
X115062000Y-74132000D02*
X115062000Y-74902000D01*
X115062000Y-79792000D02*
X115062000Y-79022000D01*
X116122000Y-75562000D02*
X114002000Y-75562000D01*
X113040000Y-85510000D02*
X110920000Y-85510000D01*
X110920000Y-85510000D02*
X110920000Y-89630000D01*
X110920000Y-89630000D02*
X113040000Y-89630000D01*
X113040000Y-89630000D02*
X113040000Y-85510000D01*
X111980000Y-84740000D02*
X111980000Y-85510000D01*
X111980000Y-90400000D02*
X111980000Y-89630000D01*
X113040000Y-86170000D02*
X110920000Y-86170000D01*
X116080000Y-64770000D02*
X113960000Y-64770000D01*
X113960000Y-64770000D02*
X113960000Y-68890000D01*
X113960000Y-68890000D02*
X116080000Y-68890000D01*
X116080000Y-68890000D02*
X116080000Y-64770000D01*
X115020000Y-64000000D02*
X115020000Y-64770000D01*
X115020000Y-69660000D02*
X115020000Y-68890000D01*
X116080000Y-65430000D02*
X113960000Y-65430000D01*
X121860000Y-68640000D02*
X124520000Y-68640000D01*
X121860000Y-60960000D02*
X121860000Y-68640000D01*
X124520000Y-60960000D02*
X124520000Y-68640000D01*
X121860000Y-60960000D02*
X124520000Y-60960000D01*
X121860000Y-59690000D02*
X121860000Y-58360000D01*
X121860000Y-58360000D02*
X123190000Y-58360000D01*
X114360000Y-55940000D02*
X114360000Y-50740000D01*
X66040000Y-55940000D02*
X114360000Y-55940000D01*
X63440000Y-50740000D02*
X114360000Y-50740000D01*
X66040000Y-55940000D02*
X66040000Y-53340000D01*
X66040000Y-53340000D02*
X63440000Y-53340000D01*
X63440000Y-53340000D02*
X63440000Y-50740000D01*
X64770000Y-55940000D02*
X63440000Y-55940000D01*
X63440000Y-55940000D02*
X63440000Y-54610000D01*
X45120000Y-98770000D02*
X45120000Y-99100000D01*
X45120000Y-99100000D02*
X38700000Y-99100000D01*
X38700000Y-99100000D02*
X38700000Y-98770000D01*
X45120000Y-96810000D02*
X45120000Y-96480000D01*
X45120000Y-96480000D02*
X38700000Y-96480000D01*
X38700000Y-96480000D02*
X38700000Y-96810000D01*
X45120000Y-101945000D02*
X45120000Y-102275000D01*
X45120000Y-102275000D02*
X38700000Y-102275000D01*
X38700000Y-102275000D02*
X38700000Y-101945000D01*
X45120000Y-99985000D02*
X45120000Y-99655000D01*
X45120000Y-99655000D02*
X38700000Y-99655000D01*
X38700000Y-99655000D02*
X38700000Y-99985000D01*
X45120000Y-108295000D02*
X45120000Y-108625000D01*
X45120000Y-108625000D02*
X38700000Y-108625000D01*
X38700000Y-108625000D02*
X38700000Y-108295000D01*
X45120000Y-106335000D02*
X45120000Y-106005000D01*
X45120000Y-106005000D02*
X38700000Y-106005000D01*
X38700000Y-106005000D02*
X38700000Y-106335000D01*
X45120000Y-111470000D02*
X45120000Y-111800000D01*
X45120000Y-111800000D02*
X38700000Y-111800000D01*
X38700000Y-111800000D02*
X38700000Y-111470000D01*
X45120000Y-109510000D02*
X45120000Y-109180000D01*
X45120000Y-109180000D02*
X38700000Y-109180000D01*
X38700000Y-109180000D02*
X38700000Y-109510000D01*
X45120000Y-114645000D02*
X45120000Y-114975000D01*
X45120000Y-114975000D02*
X38700000Y-114975000D01*
X38700000Y-114975000D02*
X38700000Y-114645000D01*
X45120000Y-112685000D02*
X45120000Y-112355000D01*
X45120000Y-112355000D02*
X38700000Y-112355000D01*
X38700000Y-112355000D02*
X38700000Y-112685000D01*
X45120000Y-117820000D02*
X45120000Y-118150000D01*
X45120000Y-118150000D02*
X38700000Y-118150000D01*
X38700000Y-118150000D02*
X38700000Y-117820000D01*
X45120000Y-115860000D02*
X45120000Y-115530000D01*
X45120000Y-115530000D02*
X38700000Y-115530000D01*
X38700000Y-115530000D02*
X38700000Y-115860000D01*
X45120000Y-120995000D02*
X45120000Y-121325000D01*
X45120000Y-121325000D02*
X38700000Y-121325000D01*
X38700000Y-121325000D02*
X38700000Y-120995000D01*
X45120000Y-119035000D02*
X45120000Y-118705000D01*
X45120000Y-118705000D02*
X38700000Y-118705000D01*
X38700000Y-118705000D02*
X38700000Y-119035000D01*
X63210000Y-63592000D02*
X63540000Y-63592000D01*
X63540000Y-63592000D02*
X63540000Y-70012000D01*
X63540000Y-70012000D02*
X63210000Y-70012000D01*
X61250000Y-63592000D02*
X60920000Y-63592000D01*
X60920000Y-63592000D02*
X60920000Y-70012000D01*
X60920000Y-70012000D02*
X61250000Y-70012000D01*
X79974000Y-63592000D02*
X80304000Y-63592000D01*
X80304000Y-63592000D02*
X80304000Y-70012000D01*
X80304000Y-70012000D02*
X79974000Y-70012000D01*
X78014000Y-63592000D02*
X77684000Y-63592000D01*
X77684000Y-63592000D02*
X77684000Y-70012000D01*
X77684000Y-70012000D02*
X78014000Y-70012000D01*
X96230000Y-63592000D02*
X96560000Y-63592000D01*
X96560000Y-63592000D02*
X96560000Y-70012000D01*
X96560000Y-70012000D02*
X96230000Y-70012000D01*
X94270000Y-63592000D02*
X93940000Y-63592000D01*
X93940000Y-63592000D02*
X93940000Y-70012000D01*
X93940000Y-70012000D02*
X94270000Y-70012000D01*
X112994000Y-63592000D02*
X113324000Y-63592000D01*
X113324000Y-63592000D02*
X113324000Y-70012000D01*
X113324000Y-70012000D02*
X112994000Y-70012000D01*
X111034000Y-63592000D02*
X110704000Y-63592000D01*
X110704000Y-63592000D02*
X110704000Y-70012000D01*
X110704000Y-70012000D02*
X111034000Y-70012000D01*
X42910000Y-73600000D02*
G75*
G02X40910000Y-73600000I-1000000J0D01*
G01*
X40910000Y-73600000D02*
X39260000Y-73600000D01*
X39260000Y-73600000D02*
X39260000Y-94040000D01*
X39260000Y-94040000D02*
X44560000Y-94040000D01*
X44560000Y-94040000D02*
X44560000Y-73600000D01*
X44560000Y-73600000D02*
X42910000Y-73600000D01*
X36770000Y-73540000D02*
X36770000Y-94100000D01*
X36770000Y-94100000D02*
X47050000Y-94100000D01*
X47050000Y-94100000D02*
X47050000Y-73540000D01*
X47050000Y-73540000D02*
X36770000Y-73540000D01*
X32286000Y-45000000D02*
G75*
G03X32286000Y-45000000I-2286000J0D01*
G01*
X124286000Y-45000000D02*
G75*
G03X124286000Y-45000000I-2286000J0D01*
G01*
X124286000Y-137000000D02*
G75*
G03X124286000Y-137000000I-2286000J0D01*
G01*
X32286000Y-137000000D02*
G75*
G03X32286000Y-137000000I-2286000J0D01*
G01*
X48320000Y-45780000D02*
X48320000Y-43120000D01*
X40640000Y-45780000D02*
X48320000Y-45780000D01*
X40640000Y-43120000D02*
X48320000Y-43120000D01*
X40640000Y-45780000D02*
X40640000Y-43120000D01*
X39370000Y-45780000D02*
X38040000Y-45780000D01*
X38040000Y-45780000D02*
X38040000Y-44450000D01*
X41220000Y-57680000D02*
X41220000Y-54080000D01*
X40492795Y-58204184D02*
G75*
G03X41220000Y-57680000I-1122795J2324184D01*
G01*
X38271193Y-58236400D02*
G75*
G02X36770000Y-55880000I1098807J2356400D01*
G01*
X38271193Y-53523600D02*
G75*
G03X36770000Y-55880000I1098807J-2356400D01*
G01*
X40492795Y-53555816D02*
G75*
G02X41220000Y-54080000I-1122795J-2324184D01*
G01*
X47570000Y-57680000D02*
X47570000Y-54080000D01*
X46842795Y-58204184D02*
G75*
G03X47570000Y-57680000I-1122795J2324184D01*
G01*
X44621193Y-58236400D02*
G75*
G02X43120000Y-55880000I1098807J2356400D01*
G01*
X44621193Y-53523600D02*
G75*
G03X43120000Y-55880000I1098807J-2356400D01*
G01*
X46842795Y-53555816D02*
G75*
G02X47570000Y-54080000I-1122795J-2324184D01*
G01*
X37120000Y-69250000D02*
X36790000Y-69250000D01*
X36790000Y-69250000D02*
X36790000Y-62830000D01*
X36790000Y-62830000D02*
X37120000Y-62830000D01*
X39080000Y-69250000D02*
X39410000Y-69250000D01*
X39410000Y-69250000D02*
X39410000Y-62830000D01*
X39410000Y-62830000D02*
X39080000Y-62830000D01*
X40930000Y-69250000D02*
X40600000Y-69250000D01*
X40600000Y-69250000D02*
X40600000Y-62830000D01*
X40600000Y-62830000D02*
X40930000Y-62830000D01*
X42890000Y-69250000D02*
X43220000Y-69250000D01*
X43220000Y-69250000D02*
X43220000Y-62830000D01*
X43220000Y-62830000D02*
X42890000Y-62830000D01*
X56550000Y-50510000D02*
X56550000Y-50840000D01*
X56550000Y-50840000D02*
X50130000Y-50840000D01*
X50130000Y-50840000D02*
X50130000Y-50510000D01*
X56550000Y-48550000D02*
X56550000Y-48220000D01*
X56550000Y-48220000D02*
X50130000Y-48220000D01*
X50130000Y-48220000D02*
X50130000Y-48550000D01*
X56550000Y-54320000D02*
X56550000Y-54650000D01*
X56550000Y-54650000D02*
X50130000Y-54650000D01*
X50130000Y-54650000D02*
X50130000Y-54320000D01*
X56550000Y-52360000D02*
X56550000Y-52030000D01*
X56550000Y-52030000D02*
X50130000Y-52030000D01*
X50130000Y-52030000D02*
X50130000Y-52360000D01*
X52577722Y-117438277D02*
G75*
G03X47966420Y-117438000I-2305722J-1179723D01*
G01*
X52577722Y-119797723D02*
G75*
G02X47966420Y-119798000I-2305722J1179723D01*
G01*
X52577722Y-119797723D02*
G75*
G03X52577580Y-117438000I-2305722J1179723D01*
G01*
X50272000Y-116068000D02*
X50272000Y-121168000D01*
X50312000Y-116068000D02*
X50312000Y-121168000D01*
X50352000Y-116069000D02*
X50352000Y-121167000D01*
X50392000Y-116070000D02*
X50392000Y-121166000D01*
X50432000Y-116072000D02*
X50432000Y-121164000D01*
X50472000Y-116075000D02*
X50472000Y-121161000D01*
X50512000Y-116079000D02*
X50512000Y-121157000D01*
X50552000Y-116083000D02*
X50552000Y-117638000D01*
X50552000Y-119598000D02*
X50552000Y-121153000D01*
X50592000Y-116087000D02*
X50592000Y-117638000D01*
X50592000Y-119598000D02*
X50592000Y-121149000D01*
X50632000Y-116093000D02*
X50632000Y-117638000D01*
X50632000Y-119598000D02*
X50632000Y-121143000D01*
X50672000Y-116099000D02*
X50672000Y-117638000D01*
X50672000Y-119598000D02*
X50672000Y-121137000D01*
X50712000Y-116105000D02*
X50712000Y-117638000D01*
X50712000Y-119598000D02*
X50712000Y-121131000D01*
X50752000Y-116112000D02*
X50752000Y-117638000D01*
X50752000Y-119598000D02*
X50752000Y-121124000D01*
X50792000Y-116120000D02*
X50792000Y-117638000D01*
X50792000Y-119598000D02*
X50792000Y-121116000D01*
X50832000Y-116129000D02*
X50832000Y-117638000D01*
X50832000Y-119598000D02*
X50832000Y-121107000D01*
X50872000Y-116138000D02*
X50872000Y-117638000D01*
X50872000Y-119598000D02*
X50872000Y-121098000D01*
X50912000Y-116148000D02*
X50912000Y-117638000D01*
X50912000Y-119598000D02*
X50912000Y-121088000D01*
X50952000Y-116158000D02*
X50952000Y-117638000D01*
X50952000Y-119598000D02*
X50952000Y-121078000D01*
X50993000Y-116170000D02*
X50993000Y-117638000D01*
X50993000Y-119598000D02*
X50993000Y-121066000D01*
X51033000Y-116182000D02*
X51033000Y-117638000D01*
X51033000Y-119598000D02*
X51033000Y-121054000D01*
X51073000Y-116194000D02*
X51073000Y-117638000D01*
X51073000Y-119598000D02*
X51073000Y-121042000D01*
X51113000Y-116208000D02*
X51113000Y-117638000D01*
X51113000Y-119598000D02*
X51113000Y-121028000D01*
X51153000Y-116222000D02*
X51153000Y-117638000D01*
X51153000Y-119598000D02*
X51153000Y-121014000D01*
X51193000Y-116236000D02*
X51193000Y-117638000D01*
X51193000Y-119598000D02*
X51193000Y-121000000D01*
X51233000Y-116252000D02*
X51233000Y-117638000D01*
X51233000Y-119598000D02*
X51233000Y-120984000D01*
X51273000Y-116268000D02*
X51273000Y-117638000D01*
X51273000Y-119598000D02*
X51273000Y-120968000D01*
X51313000Y-116285000D02*
X51313000Y-117638000D01*
X51313000Y-119598000D02*
X51313000Y-120951000D01*
X51353000Y-116303000D02*
X51353000Y-117638000D01*
X51353000Y-119598000D02*
X51353000Y-120933000D01*
X51393000Y-116322000D02*
X51393000Y-117638000D01*
X51393000Y-119598000D02*
X51393000Y-120914000D01*
X51433000Y-116342000D02*
X51433000Y-117638000D01*
X51433000Y-119598000D02*
X51433000Y-120894000D01*
X51473000Y-116362000D02*
X51473000Y-117638000D01*
X51473000Y-119598000D02*
X51473000Y-120874000D01*
X51513000Y-116384000D02*
X51513000Y-117638000D01*
X51513000Y-119598000D02*
X51513000Y-120852000D01*
X51553000Y-116406000D02*
X51553000Y-117638000D01*
X51553000Y-119598000D02*
X51553000Y-120830000D01*
X51593000Y-116429000D02*
X51593000Y-117638000D01*
X51593000Y-119598000D02*
X51593000Y-120807000D01*
X51633000Y-116453000D02*
X51633000Y-117638000D01*
X51633000Y-119598000D02*
X51633000Y-120783000D01*
X51673000Y-116478000D02*
X51673000Y-117638000D01*
X51673000Y-119598000D02*
X51673000Y-120758000D01*
X51713000Y-116505000D02*
X51713000Y-117638000D01*
X51713000Y-119598000D02*
X51713000Y-120731000D01*
X51753000Y-116532000D02*
X51753000Y-117638000D01*
X51753000Y-119598000D02*
X51753000Y-120704000D01*
X51793000Y-116560000D02*
X51793000Y-117638000D01*
X51793000Y-119598000D02*
X51793000Y-120676000D01*
X51833000Y-116590000D02*
X51833000Y-117638000D01*
X51833000Y-119598000D02*
X51833000Y-120646000D01*
X51873000Y-116621000D02*
X51873000Y-117638000D01*
X51873000Y-119598000D02*
X51873000Y-120615000D01*
X51913000Y-116653000D02*
X51913000Y-117638000D01*
X51913000Y-119598000D02*
X51913000Y-120583000D01*
X51953000Y-116686000D02*
X51953000Y-117638000D01*
X51953000Y-119598000D02*
X51953000Y-120550000D01*
X51993000Y-116721000D02*
X51993000Y-117638000D01*
X51993000Y-119598000D02*
X51993000Y-120515000D01*
X52033000Y-116757000D02*
X52033000Y-117638000D01*
X52033000Y-119598000D02*
X52033000Y-120479000D01*
X52073000Y-116795000D02*
X52073000Y-117638000D01*
X52073000Y-119598000D02*
X52073000Y-120441000D01*
X52113000Y-116835000D02*
X52113000Y-117638000D01*
X52113000Y-119598000D02*
X52113000Y-120401000D01*
X52153000Y-116876000D02*
X52153000Y-117638000D01*
X52153000Y-119598000D02*
X52153000Y-120360000D01*
X52193000Y-116919000D02*
X52193000Y-117638000D01*
X52193000Y-119598000D02*
X52193000Y-120317000D01*
X52233000Y-116964000D02*
X52233000Y-117638000D01*
X52233000Y-119598000D02*
X52233000Y-120272000D01*
X52273000Y-117012000D02*
X52273000Y-117638000D01*
X52273000Y-119598000D02*
X52273000Y-120224000D01*
X52313000Y-117062000D02*
X52313000Y-117638000D01*
X52313000Y-119598000D02*
X52313000Y-120174000D01*
X52353000Y-117114000D02*
X52353000Y-117638000D01*
X52353000Y-119598000D02*
X52353000Y-120122000D01*
X52393000Y-117170000D02*
X52393000Y-117638000D01*
X52393000Y-119598000D02*
X52393000Y-120066000D01*
X52433000Y-117228000D02*
X52433000Y-117638000D01*
X52433000Y-119598000D02*
X52433000Y-120008000D01*
X52473000Y-117291000D02*
X52473000Y-117638000D01*
X52473000Y-119598000D02*
X52473000Y-119945000D01*
X52513000Y-117357000D02*
X52513000Y-119879000D01*
X52553000Y-117429000D02*
X52553000Y-119807000D01*
X52593000Y-117506000D02*
X52593000Y-119730000D01*
X52633000Y-117590000D02*
X52633000Y-119646000D01*
X52673000Y-117684000D02*
X52673000Y-119552000D01*
X52713000Y-117789000D02*
X52713000Y-119447000D01*
X52753000Y-117911000D02*
X52753000Y-119325000D01*
X52793000Y-118059000D02*
X52793000Y-119177000D01*
X52833000Y-118264000D02*
X52833000Y-118972000D01*
X46822000Y-118618000D02*
X48022000Y-118618000D01*
X47422000Y-117968000D02*
X47422000Y-119268000D01*
X96300000Y-122280000D02*
X96300000Y-117160000D01*
X98920000Y-122280000D02*
X98920000Y-117160000D01*
X96300000Y-122280000D02*
X98920000Y-122280000D01*
X96300000Y-117160000D02*
X98920000Y-117160000D01*
X58634000Y-139486000D02*
X58634000Y-134366000D01*
X61254000Y-139486000D02*
X61254000Y-134366000D01*
X58634000Y-139486000D02*
X61254000Y-139486000D01*
X58634000Y-134366000D02*
X61254000Y-134366000D01*
X99750277Y-133834278D02*
G75*
G03X99750000Y-138445580I1179723J-2305722D01*
G01*
X102109723Y-133834278D02*
G75*
G02X102110000Y-138445580I-1179723J-2305722D01*
G01*
X102109723Y-133834278D02*
G75*
G03X99750000Y-133834420I-1179723J-2305722D01*
G01*
X98380000Y-136140000D02*
X103480000Y-136140000D01*
X98380000Y-136100000D02*
X103480000Y-136100000D01*
X98381000Y-136060000D02*
X103479000Y-136060000D01*
X98382000Y-136020000D02*
X103478000Y-136020000D01*
X98384000Y-135980000D02*
X103476000Y-135980000D01*
X98387000Y-135940000D02*
X103473000Y-135940000D01*
X98391000Y-135900000D02*
X103469000Y-135900000D01*
X98395000Y-135860000D02*
X99950000Y-135860000D01*
X101910000Y-135860000D02*
X103465000Y-135860000D01*
X98399000Y-135820000D02*
X99950000Y-135820000D01*
X101910000Y-135820000D02*
X103461000Y-135820000D01*
X98405000Y-135780000D02*
X99950000Y-135780000D01*
X101910000Y-135780000D02*
X103455000Y-135780000D01*
X98411000Y-135740000D02*
X99950000Y-135740000D01*
X101910000Y-135740000D02*
X103449000Y-135740000D01*
X98417000Y-135700000D02*
X99950000Y-135700000D01*
X101910000Y-135700000D02*
X103443000Y-135700000D01*
X98424000Y-135660000D02*
X99950000Y-135660000D01*
X101910000Y-135660000D02*
X103436000Y-135660000D01*
X98432000Y-135620000D02*
X99950000Y-135620000D01*
X101910000Y-135620000D02*
X103428000Y-135620000D01*
X98441000Y-135580000D02*
X99950000Y-135580000D01*
X101910000Y-135580000D02*
X103419000Y-135580000D01*
X98450000Y-135540000D02*
X99950000Y-135540000D01*
X101910000Y-135540000D02*
X103410000Y-135540000D01*
X98460000Y-135500000D02*
X99950000Y-135500000D01*
X101910000Y-135500000D02*
X103400000Y-135500000D01*
X98470000Y-135460000D02*
X99950000Y-135460000D01*
X101910000Y-135460000D02*
X103390000Y-135460000D01*
X98482000Y-135419000D02*
X99950000Y-135419000D01*
X101910000Y-135419000D02*
X103378000Y-135419000D01*
X98494000Y-135379000D02*
X99950000Y-135379000D01*
X101910000Y-135379000D02*
X103366000Y-135379000D01*
X98506000Y-135339000D02*
X99950000Y-135339000D01*
X101910000Y-135339000D02*
X103354000Y-135339000D01*
X98520000Y-135299000D02*
X99950000Y-135299000D01*
X101910000Y-135299000D02*
X103340000Y-135299000D01*
X98534000Y-135259000D02*
X99950000Y-135259000D01*
X101910000Y-135259000D02*
X103326000Y-135259000D01*
X98548000Y-135219000D02*
X99950000Y-135219000D01*
X101910000Y-135219000D02*
X103312000Y-135219000D01*
X98564000Y-135179000D02*
X99950000Y-135179000D01*
X101910000Y-135179000D02*
X103296000Y-135179000D01*
X98580000Y-135139000D02*
X99950000Y-135139000D01*
X101910000Y-135139000D02*
X103280000Y-135139000D01*
X98597000Y-135099000D02*
X99950000Y-135099000D01*
X101910000Y-135099000D02*
X103263000Y-135099000D01*
X98615000Y-135059000D02*
X99950000Y-135059000D01*
X101910000Y-135059000D02*
X103245000Y-135059000D01*
X98634000Y-135019000D02*
X99950000Y-135019000D01*
X101910000Y-135019000D02*
X103226000Y-135019000D01*
X98654000Y-134979000D02*
X99950000Y-134979000D01*
X101910000Y-134979000D02*
X103206000Y-134979000D01*
X98674000Y-134939000D02*
X99950000Y-134939000D01*
X101910000Y-134939000D02*
X103186000Y-134939000D01*
X98696000Y-134899000D02*
X99950000Y-134899000D01*
X101910000Y-134899000D02*
X103164000Y-134899000D01*
X98718000Y-134859000D02*
X99950000Y-134859000D01*
X101910000Y-134859000D02*
X103142000Y-134859000D01*
X98741000Y-134819000D02*
X99950000Y-134819000D01*
X101910000Y-134819000D02*
X103119000Y-134819000D01*
X98765000Y-134779000D02*
X99950000Y-134779000D01*
X101910000Y-134779000D02*
X103095000Y-134779000D01*
X98790000Y-134739000D02*
X99950000Y-134739000D01*
X101910000Y-134739000D02*
X103070000Y-134739000D01*
X98817000Y-134699000D02*
X99950000Y-134699000D01*
X101910000Y-134699000D02*
X103043000Y-134699000D01*
X98844000Y-134659000D02*
X99950000Y-134659000D01*
X101910000Y-134659000D02*
X103016000Y-134659000D01*
X98872000Y-134619000D02*
X99950000Y-134619000D01*
X101910000Y-134619000D02*
X102988000Y-134619000D01*
X98902000Y-134579000D02*
X99950000Y-134579000D01*
X101910000Y-134579000D02*
X102958000Y-134579000D01*
X98933000Y-134539000D02*
X99950000Y-134539000D01*
X101910000Y-134539000D02*
X102927000Y-134539000D01*
X98965000Y-134499000D02*
X99950000Y-134499000D01*
X101910000Y-134499000D02*
X102895000Y-134499000D01*
X98998000Y-134459000D02*
X99950000Y-134459000D01*
X101910000Y-134459000D02*
X102862000Y-134459000D01*
X99033000Y-134419000D02*
X99950000Y-134419000D01*
X101910000Y-134419000D02*
X102827000Y-134419000D01*
X99069000Y-134379000D02*
X99950000Y-134379000D01*
X101910000Y-134379000D02*
X102791000Y-134379000D01*
X99107000Y-134339000D02*
X99950000Y-134339000D01*
X101910000Y-134339000D02*
X102753000Y-134339000D01*
X99147000Y-134299000D02*
X99950000Y-134299000D01*
X101910000Y-134299000D02*
X102713000Y-134299000D01*
X99188000Y-134259000D02*
X99950000Y-134259000D01*
X101910000Y-134259000D02*
X102672000Y-134259000D01*
X99231000Y-134219000D02*
X99950000Y-134219000D01*
X101910000Y-134219000D02*
X102629000Y-134219000D01*
X99276000Y-134179000D02*
X99950000Y-134179000D01*
X101910000Y-134179000D02*
X102584000Y-134179000D01*
X99324000Y-134139000D02*
X99950000Y-134139000D01*
X101910000Y-134139000D02*
X102536000Y-134139000D01*
X99374000Y-134099000D02*
X99950000Y-134099000D01*
X101910000Y-134099000D02*
X102486000Y-134099000D01*
X99426000Y-134059000D02*
X99950000Y-134059000D01*
X101910000Y-134059000D02*
X102434000Y-134059000D01*
X99482000Y-134019000D02*
X99950000Y-134019000D01*
X101910000Y-134019000D02*
X102378000Y-134019000D01*
X99540000Y-133979000D02*
X99950000Y-133979000D01*
X101910000Y-133979000D02*
X102320000Y-133979000D01*
X99603000Y-133939000D02*
X99950000Y-133939000D01*
X101910000Y-133939000D02*
X102257000Y-133939000D01*
X99669000Y-133899000D02*
X102191000Y-133899000D01*
X99741000Y-133859000D02*
X102119000Y-133859000D01*
X99818000Y-133819000D02*
X102042000Y-133819000D01*
X99902000Y-133779000D02*
X101958000Y-133779000D01*
X99996000Y-133739000D02*
X101864000Y-133739000D01*
X100101000Y-133699000D02*
X101759000Y-133699000D01*
X100223000Y-133659000D02*
X101637000Y-133659000D01*
X100371000Y-133619000D02*
X101489000Y-133619000D01*
X100576000Y-133579000D02*
X101284000Y-133579000D01*
X100930000Y-139590000D02*
X100930000Y-138390000D01*
X100280000Y-138990000D02*
X101580000Y-138990000D01*
X77259723Y-117245722D02*
G75*
G03X77260000Y-112634420I-1179723J2305722D01*
G01*
X74900277Y-117245722D02*
G75*
G02X74900000Y-112634420I1179723J2305722D01*
G01*
X74900277Y-117245722D02*
G75*
G03X77260000Y-117245580I1179723J2305722D01*
G01*
X78630000Y-114940000D02*
X73530000Y-114940000D01*
X78630000Y-114980000D02*
X73530000Y-114980000D01*
X78629000Y-115020000D02*
X73531000Y-115020000D01*
X78628000Y-115060000D02*
X73532000Y-115060000D01*
X78626000Y-115100000D02*
X73534000Y-115100000D01*
X78623000Y-115140000D02*
X73537000Y-115140000D01*
X78619000Y-115180000D02*
X73541000Y-115180000D01*
X78615000Y-115220000D02*
X77060000Y-115220000D01*
X75100000Y-115220000D02*
X73545000Y-115220000D01*
X78611000Y-115260000D02*
X77060000Y-115260000D01*
X75100000Y-115260000D02*
X73549000Y-115260000D01*
X78605000Y-115300000D02*
X77060000Y-115300000D01*
X75100000Y-115300000D02*
X73555000Y-115300000D01*
X78599000Y-115340000D02*
X77060000Y-115340000D01*
X75100000Y-115340000D02*
X73561000Y-115340000D01*
X78593000Y-115380000D02*
X77060000Y-115380000D01*
X75100000Y-115380000D02*
X73567000Y-115380000D01*
X78586000Y-115420000D02*
X77060000Y-115420000D01*
X75100000Y-115420000D02*
X73574000Y-115420000D01*
X78578000Y-115460000D02*
X77060000Y-115460000D01*
X75100000Y-115460000D02*
X73582000Y-115460000D01*
X78569000Y-115500000D02*
X77060000Y-115500000D01*
X75100000Y-115500000D02*
X73591000Y-115500000D01*
X78560000Y-115540000D02*
X77060000Y-115540000D01*
X75100000Y-115540000D02*
X73600000Y-115540000D01*
X78550000Y-115580000D02*
X77060000Y-115580000D01*
X75100000Y-115580000D02*
X73610000Y-115580000D01*
X78540000Y-115620000D02*
X77060000Y-115620000D01*
X75100000Y-115620000D02*
X73620000Y-115620000D01*
X78528000Y-115661000D02*
X77060000Y-115661000D01*
X75100000Y-115661000D02*
X73632000Y-115661000D01*
X78516000Y-115701000D02*
X77060000Y-115701000D01*
X75100000Y-115701000D02*
X73644000Y-115701000D01*
X78504000Y-115741000D02*
X77060000Y-115741000D01*
X75100000Y-115741000D02*
X73656000Y-115741000D01*
X78490000Y-115781000D02*
X77060000Y-115781000D01*
X75100000Y-115781000D02*
X73670000Y-115781000D01*
X78476000Y-115821000D02*
X77060000Y-115821000D01*
X75100000Y-115821000D02*
X73684000Y-115821000D01*
X78462000Y-115861000D02*
X77060000Y-115861000D01*
X75100000Y-115861000D02*
X73698000Y-115861000D01*
X78446000Y-115901000D02*
X77060000Y-115901000D01*
X75100000Y-115901000D02*
X73714000Y-115901000D01*
X78430000Y-115941000D02*
X77060000Y-115941000D01*
X75100000Y-115941000D02*
X73730000Y-115941000D01*
X78413000Y-115981000D02*
X77060000Y-115981000D01*
X75100000Y-115981000D02*
X73747000Y-115981000D01*
X78395000Y-116021000D02*
X77060000Y-116021000D01*
X75100000Y-116021000D02*
X73765000Y-116021000D01*
X78376000Y-116061000D02*
X77060000Y-116061000D01*
X75100000Y-116061000D02*
X73784000Y-116061000D01*
X78356000Y-116101000D02*
X77060000Y-116101000D01*
X75100000Y-116101000D02*
X73804000Y-116101000D01*
X78336000Y-116141000D02*
X77060000Y-116141000D01*
X75100000Y-116141000D02*
X73824000Y-116141000D01*
X78314000Y-116181000D02*
X77060000Y-116181000D01*
X75100000Y-116181000D02*
X73846000Y-116181000D01*
X78292000Y-116221000D02*
X77060000Y-116221000D01*
X75100000Y-116221000D02*
X73868000Y-116221000D01*
X78269000Y-116261000D02*
X77060000Y-116261000D01*
X75100000Y-116261000D02*
X73891000Y-116261000D01*
X78245000Y-116301000D02*
X77060000Y-116301000D01*
X75100000Y-116301000D02*
X73915000Y-116301000D01*
X78220000Y-116341000D02*
X77060000Y-116341000D01*
X75100000Y-116341000D02*
X73940000Y-116341000D01*
X78193000Y-116381000D02*
X77060000Y-116381000D01*
X75100000Y-116381000D02*
X73967000Y-116381000D01*
X78166000Y-116421000D02*
X77060000Y-116421000D01*
X75100000Y-116421000D02*
X73994000Y-116421000D01*
X78138000Y-116461000D02*
X77060000Y-116461000D01*
X75100000Y-116461000D02*
X74022000Y-116461000D01*
X78108000Y-116501000D02*
X77060000Y-116501000D01*
X75100000Y-116501000D02*
X74052000Y-116501000D01*
X78077000Y-116541000D02*
X77060000Y-116541000D01*
X75100000Y-116541000D02*
X74083000Y-116541000D01*
X78045000Y-116581000D02*
X77060000Y-116581000D01*
X75100000Y-116581000D02*
X74115000Y-116581000D01*
X78012000Y-116621000D02*
X77060000Y-116621000D01*
X75100000Y-116621000D02*
X74148000Y-116621000D01*
X77977000Y-116661000D02*
X77060000Y-116661000D01*
X75100000Y-116661000D02*
X74183000Y-116661000D01*
X77941000Y-116701000D02*
X77060000Y-116701000D01*
X75100000Y-116701000D02*
X74219000Y-116701000D01*
X77903000Y-116741000D02*
X77060000Y-116741000D01*
X75100000Y-116741000D02*
X74257000Y-116741000D01*
X77863000Y-116781000D02*
X77060000Y-116781000D01*
X75100000Y-116781000D02*
X74297000Y-116781000D01*
X77822000Y-116821000D02*
X77060000Y-116821000D01*
X75100000Y-116821000D02*
X74338000Y-116821000D01*
X77779000Y-116861000D02*
X77060000Y-116861000D01*
X75100000Y-116861000D02*
X74381000Y-116861000D01*
X77734000Y-116901000D02*
X77060000Y-116901000D01*
X75100000Y-116901000D02*
X74426000Y-116901000D01*
X77686000Y-116941000D02*
X77060000Y-116941000D01*
X75100000Y-116941000D02*
X74474000Y-116941000D01*
X77636000Y-116981000D02*
X77060000Y-116981000D01*
X75100000Y-116981000D02*
X74524000Y-116981000D01*
X77584000Y-117021000D02*
X77060000Y-117021000D01*
X75100000Y-117021000D02*
X74576000Y-117021000D01*
X77528000Y-117061000D02*
X77060000Y-117061000D01*
X75100000Y-117061000D02*
X74632000Y-117061000D01*
X77470000Y-117101000D02*
X77060000Y-117101000D01*
X75100000Y-117101000D02*
X74690000Y-117101000D01*
X77407000Y-117141000D02*
X77060000Y-117141000D01*
X75100000Y-117141000D02*
X74753000Y-117141000D01*
X77341000Y-117181000D02*
X74819000Y-117181000D01*
X77269000Y-117221000D02*
X74891000Y-117221000D01*
X77192000Y-117261000D02*
X74968000Y-117261000D01*
X77108000Y-117301000D02*
X75052000Y-117301000D01*
X77014000Y-117341000D02*
X75146000Y-117341000D01*
X76909000Y-117381000D02*
X75251000Y-117381000D01*
X76787000Y-117421000D02*
X75373000Y-117421000D01*
X76639000Y-117461000D02*
X75521000Y-117461000D01*
X76434000Y-117501000D02*
X75726000Y-117501000D01*
X76080000Y-111490000D02*
X76080000Y-112690000D01*
X76730000Y-112090000D02*
X75430000Y-112090000D01*
X87630000Y-132050000D02*
X97790000Y-132050000D01*
X87630000Y-130780000D02*
X87630000Y-138400000D01*
X87630000Y-138400000D02*
X97790000Y-138400000D01*
X97790000Y-138400000D02*
X97790000Y-130780000D01*
X97790000Y-130780000D02*
X87630000Y-130780000D01*
X26970000Y-130900000D02*
X26640000Y-130900000D01*
X26640000Y-130900000D02*
X26640000Y-124480000D01*
X26640000Y-124480000D02*
X26970000Y-124480000D01*
X28930000Y-130900000D02*
X29260000Y-130900000D01*
X29260000Y-130900000D02*
X29260000Y-124480000D01*
X29260000Y-124480000D02*
X28930000Y-124480000D01*
X81360000Y-138430000D02*
X81030000Y-138430000D01*
X81030000Y-138430000D02*
X81030000Y-132010000D01*
X81030000Y-132010000D02*
X81360000Y-132010000D01*
X83320000Y-138430000D02*
X83650000Y-138430000D01*
X83650000Y-138430000D02*
X83650000Y-132010000D01*
X83650000Y-132010000D02*
X83320000Y-132010000D01*
X84600000Y-138430000D02*
X84270000Y-138430000D01*
X84270000Y-138430000D02*
X84270000Y-132010000D01*
X84270000Y-132010000D02*
X84600000Y-132010000D01*
X86560000Y-138430000D02*
X86890000Y-138430000D01*
X86890000Y-138430000D02*
X86890000Y-132010000D01*
X86890000Y-132010000D02*
X86560000Y-132010000D01*
X50074000Y-130972000D02*
X49744000Y-130972000D01*
X49744000Y-130972000D02*
X49744000Y-124552000D01*
X49744000Y-124552000D02*
X50074000Y-124552000D01*
X52034000Y-130972000D02*
X52364000Y-130972000D01*
X52364000Y-130972000D02*
X52364000Y-124552000D01*
X52364000Y-124552000D02*
X52034000Y-124552000D01*
X67528000Y-124298000D02*
X67858000Y-124298000D01*
X67858000Y-124298000D02*
X67858000Y-130718000D01*
X67858000Y-130718000D02*
X67528000Y-130718000D01*
X65568000Y-124298000D02*
X65238000Y-124298000D01*
X65238000Y-124298000D02*
X65238000Y-130718000D01*
X65238000Y-130718000D02*
X65568000Y-130718000D01*
X56100000Y-136030000D02*
X56100000Y-136360000D01*
X56100000Y-136360000D02*
X49680000Y-136360000D01*
X49680000Y-136360000D02*
X49680000Y-136030000D01*
X56100000Y-134070000D02*
X56100000Y-133740000D01*
X56100000Y-133740000D02*
X49680000Y-133740000D01*
X49680000Y-133740000D02*
X49680000Y-134070000D01*
X99830000Y-131340000D02*
X99500000Y-131340000D01*
X99500000Y-131340000D02*
X99500000Y-124920000D01*
X99500000Y-124920000D02*
X99830000Y-124920000D01*
X101790000Y-131340000D02*
X102120000Y-131340000D01*
X102120000Y-131340000D02*
X102120000Y-124920000D01*
X102120000Y-124920000D02*
X101790000Y-124920000D01*
X61376000Y-116042000D02*
X61376000Y-116372000D01*
X61376000Y-116372000D02*
X54956000Y-116372000D01*
X54956000Y-116372000D02*
X54956000Y-116042000D01*
X61376000Y-114082000D02*
X61376000Y-113752000D01*
X61376000Y-113752000D02*
X54956000Y-113752000D01*
X54956000Y-113752000D02*
X54956000Y-114082000D01*
X72807000Y-130845000D02*
X72477000Y-130845000D01*
X72477000Y-130845000D02*
X72477000Y-124425000D01*
X72477000Y-124425000D02*
X72807000Y-124425000D01*
X74767000Y-130845000D02*
X75097000Y-130845000D01*
X75097000Y-130845000D02*
X75097000Y-124425000D01*
X75097000Y-124425000D02*
X74767000Y-124425000D01*
X76236000Y-130718000D02*
X75906000Y-130718000D01*
X75906000Y-130718000D02*
X75906000Y-124298000D01*
X75906000Y-124298000D02*
X76236000Y-124298000D01*
X78196000Y-130718000D02*
X78526000Y-130718000D01*
X78526000Y-130718000D02*
X78526000Y-124298000D01*
X78526000Y-124298000D02*
X78196000Y-124298000D01*
X71211000Y-124298000D02*
X71541000Y-124298000D01*
X71541000Y-124298000D02*
X71541000Y-130718000D01*
X71541000Y-130718000D02*
X71211000Y-130718000D01*
X69251000Y-124298000D02*
X68921000Y-124298000D01*
X68921000Y-124298000D02*
X68921000Y-130718000D01*
X68921000Y-130718000D02*
X69251000Y-130718000D01*
X91297000Y-117669000D02*
G75*
G02X89297000Y-117669000I-1000000J0D01*
G01*
X89297000Y-117669000D02*
X87647000Y-117669000D01*
X87647000Y-117669000D02*
X87647000Y-127949000D01*
X87647000Y-127949000D02*
X92947000Y-127949000D01*
X92947000Y-127949000D02*
X92947000Y-117669000D01*
X92947000Y-117669000D02*
X91297000Y-117669000D01*
X85157000Y-117609000D02*
X85157000Y-128009000D01*
X85157000Y-128009000D02*
X95437000Y-128009000D01*
X95437000Y-128009000D02*
X95437000Y-117609000D01*
X95437000Y-117609000D02*
X85157000Y-117609000D01*
X63306000Y-128762000D02*
G75*
G02X63306000Y-126762000I0J1000000D01*
G01*
X63306000Y-126762000D02*
X63306000Y-125112000D01*
X63306000Y-125112000D02*
X53026000Y-125112000D01*
X53026000Y-125112000D02*
X53026000Y-130412000D01*
X53026000Y-130412000D02*
X63306000Y-130412000D01*
X63306000Y-130412000D02*
X63306000Y-128762000D01*
X63366000Y-122622000D02*
X52966000Y-122622000D01*
X52966000Y-122622000D02*
X52966000Y-132902000D01*
X52966000Y-132902000D02*
X63366000Y-132902000D01*
X63366000Y-132902000D02*
X63366000Y-122622000D01*
X78680000Y-122040000D02*
X73560000Y-122040000D01*
X78680000Y-119420000D02*
X73560000Y-119420000D01*
X78680000Y-122040000D02*
X78680000Y-119420000D01*
X73560000Y-122040000D02*
X73560000Y-119420000D01*
X80660277Y-112804278D02*
G75*
G03X80660000Y-117415580I1179723J-2305722D01*
G01*
X83019723Y-112804278D02*
G75*
G02X83020000Y-117415580I-1179723J-2305722D01*
G01*
X83019723Y-112804278D02*
G75*
G03X80660000Y-112804420I-1179723J-2305722D01*
G01*
X79290000Y-115110000D02*
X84390000Y-115110000D01*
X79290000Y-115070000D02*
X84390000Y-115070000D01*
X79291000Y-115030000D02*
X84389000Y-115030000D01*
X79292000Y-114990000D02*
X84388000Y-114990000D01*
X79294000Y-114950000D02*
X84386000Y-114950000D01*
X79297000Y-114910000D02*
X84383000Y-114910000D01*
X79301000Y-114870000D02*
X84379000Y-114870000D01*
X79305000Y-114830000D02*
X80860000Y-114830000D01*
X82820000Y-114830000D02*
X84375000Y-114830000D01*
X79309000Y-114790000D02*
X80860000Y-114790000D01*
X82820000Y-114790000D02*
X84371000Y-114790000D01*
X79315000Y-114750000D02*
X80860000Y-114750000D01*
X82820000Y-114750000D02*
X84365000Y-114750000D01*
X79321000Y-114710000D02*
X80860000Y-114710000D01*
X82820000Y-114710000D02*
X84359000Y-114710000D01*
X79327000Y-114670000D02*
X80860000Y-114670000D01*
X82820000Y-114670000D02*
X84353000Y-114670000D01*
X79334000Y-114630000D02*
X80860000Y-114630000D01*
X82820000Y-114630000D02*
X84346000Y-114630000D01*
X79342000Y-114590000D02*
X80860000Y-114590000D01*
X82820000Y-114590000D02*
X84338000Y-114590000D01*
X79351000Y-114550000D02*
X80860000Y-114550000D01*
X82820000Y-114550000D02*
X84329000Y-114550000D01*
X79360000Y-114510000D02*
X80860000Y-114510000D01*
X82820000Y-114510000D02*
X84320000Y-114510000D01*
X79370000Y-114470000D02*
X80860000Y-114470000D01*
X82820000Y-114470000D02*
X84310000Y-114470000D01*
X79380000Y-114430000D02*
X80860000Y-114430000D01*
X82820000Y-114430000D02*
X84300000Y-114430000D01*
X79392000Y-114389000D02*
X80860000Y-114389000D01*
X82820000Y-114389000D02*
X84288000Y-114389000D01*
X79404000Y-114349000D02*
X80860000Y-114349000D01*
X82820000Y-114349000D02*
X84276000Y-114349000D01*
X79416000Y-114309000D02*
X80860000Y-114309000D01*
X82820000Y-114309000D02*
X84264000Y-114309000D01*
X79430000Y-114269000D02*
X80860000Y-114269000D01*
X82820000Y-114269000D02*
X84250000Y-114269000D01*
X79444000Y-114229000D02*
X80860000Y-114229000D01*
X82820000Y-114229000D02*
X84236000Y-114229000D01*
X79458000Y-114189000D02*
X80860000Y-114189000D01*
X82820000Y-114189000D02*
X84222000Y-114189000D01*
X79474000Y-114149000D02*
X80860000Y-114149000D01*
X82820000Y-114149000D02*
X84206000Y-114149000D01*
X79490000Y-114109000D02*
X80860000Y-114109000D01*
X82820000Y-114109000D02*
X84190000Y-114109000D01*
X79507000Y-114069000D02*
X80860000Y-114069000D01*
X82820000Y-114069000D02*
X84173000Y-114069000D01*
X79525000Y-114029000D02*
X80860000Y-114029000D01*
X82820000Y-114029000D02*
X84155000Y-114029000D01*
X79544000Y-113989000D02*
X80860000Y-113989000D01*
X82820000Y-113989000D02*
X84136000Y-113989000D01*
X79564000Y-113949000D02*
X80860000Y-113949000D01*
X82820000Y-113949000D02*
X84116000Y-113949000D01*
X79584000Y-113909000D02*
X80860000Y-113909000D01*
X82820000Y-113909000D02*
X84096000Y-113909000D01*
X79606000Y-113869000D02*
X80860000Y-113869000D01*
X82820000Y-113869000D02*
X84074000Y-113869000D01*
X79628000Y-113829000D02*
X80860000Y-113829000D01*
X82820000Y-113829000D02*
X84052000Y-113829000D01*
X79651000Y-113789000D02*
X80860000Y-113789000D01*
X82820000Y-113789000D02*
X84029000Y-113789000D01*
X79675000Y-113749000D02*
X80860000Y-113749000D01*
X82820000Y-113749000D02*
X84005000Y-113749000D01*
X79700000Y-113709000D02*
X80860000Y-113709000D01*
X82820000Y-113709000D02*
X83980000Y-113709000D01*
X79727000Y-113669000D02*
X80860000Y-113669000D01*
X82820000Y-113669000D02*
X83953000Y-113669000D01*
X79754000Y-113629000D02*
X80860000Y-113629000D01*
X82820000Y-113629000D02*
X83926000Y-113629000D01*
X79782000Y-113589000D02*
X80860000Y-113589000D01*
X82820000Y-113589000D02*
X83898000Y-113589000D01*
X79812000Y-113549000D02*
X80860000Y-113549000D01*
X82820000Y-113549000D02*
X83868000Y-113549000D01*
X79843000Y-113509000D02*
X80860000Y-113509000D01*
X82820000Y-113509000D02*
X83837000Y-113509000D01*
X79875000Y-113469000D02*
X80860000Y-113469000D01*
X82820000Y-113469000D02*
X83805000Y-113469000D01*
X79908000Y-113429000D02*
X80860000Y-113429000D01*
X82820000Y-113429000D02*
X83772000Y-113429000D01*
X79943000Y-113389000D02*
X80860000Y-113389000D01*
X82820000Y-113389000D02*
X83737000Y-113389000D01*
X79979000Y-113349000D02*
X80860000Y-113349000D01*
X82820000Y-113349000D02*
X83701000Y-113349000D01*
X80017000Y-113309000D02*
X80860000Y-113309000D01*
X82820000Y-113309000D02*
X83663000Y-113309000D01*
X80057000Y-113269000D02*
X80860000Y-113269000D01*
X82820000Y-113269000D02*
X83623000Y-113269000D01*
X80098000Y-113229000D02*
X80860000Y-113229000D01*
X82820000Y-113229000D02*
X83582000Y-113229000D01*
X80141000Y-113189000D02*
X80860000Y-113189000D01*
X82820000Y-113189000D02*
X83539000Y-113189000D01*
X80186000Y-113149000D02*
X80860000Y-113149000D01*
X82820000Y-113149000D02*
X83494000Y-113149000D01*
X80234000Y-113109000D02*
X80860000Y-113109000D01*
X82820000Y-113109000D02*
X83446000Y-113109000D01*
X80284000Y-113069000D02*
X80860000Y-113069000D01*
X82820000Y-113069000D02*
X83396000Y-113069000D01*
X80336000Y-113029000D02*
X80860000Y-113029000D01*
X82820000Y-113029000D02*
X83344000Y-113029000D01*
X80392000Y-112989000D02*
X80860000Y-112989000D01*
X82820000Y-112989000D02*
X83288000Y-112989000D01*
X80450000Y-112949000D02*
X80860000Y-112949000D01*
X82820000Y-112949000D02*
X83230000Y-112949000D01*
X80513000Y-112909000D02*
X80860000Y-112909000D01*
X82820000Y-112909000D02*
X83167000Y-112909000D01*
X80579000Y-112869000D02*
X83101000Y-112869000D01*
X80651000Y-112829000D02*
X83029000Y-112829000D01*
X80728000Y-112789000D02*
X82952000Y-112789000D01*
X80812000Y-112749000D02*
X82868000Y-112749000D01*
X80906000Y-112709000D02*
X82774000Y-112709000D01*
X81011000Y-112669000D02*
X82669000Y-112669000D01*
X81133000Y-112629000D02*
X82547000Y-112629000D01*
X81281000Y-112589000D02*
X82399000Y-112589000D01*
X81486000Y-112549000D02*
X82194000Y-112549000D01*
X81840000Y-118560000D02*
X81840000Y-117360000D01*
X81190000Y-117960000D02*
X82490000Y-117960000D01*
X93320000Y-115200000D02*
X93320000Y-115530000D01*
X93320000Y-115530000D02*
X86900000Y-115530000D01*
X86900000Y-115530000D02*
X86900000Y-115200000D01*
X93320000Y-113240000D02*
X93320000Y-112910000D01*
X93320000Y-112910000D02*
X86900000Y-112910000D01*
X86900000Y-112910000D02*
X86900000Y-113240000D01*
X65568000Y-120812000D02*
X65238000Y-120812000D01*
X65238000Y-120812000D02*
X65238000Y-114392000D01*
X65238000Y-114392000D02*
X65568000Y-114392000D01*
X67528000Y-120812000D02*
X67858000Y-120812000D01*
X67858000Y-120812000D02*
X67858000Y-114392000D01*
X67858000Y-114392000D02*
X67528000Y-114392000D01*
X34350000Y-118780000D02*
X34350000Y-119110000D01*
X34350000Y-119110000D02*
X27930000Y-119110000D01*
X27930000Y-119110000D02*
X27930000Y-118780000D01*
X34350000Y-116820000D02*
X34350000Y-116490000D01*
X34350000Y-116490000D02*
X27930000Y-116490000D01*
X27930000Y-116490000D02*
X27930000Y-116820000D01*
X68304000Y-45792000D02*
X71904000Y-45792000D01*
X67779816Y-45064795D02*
G75*
G03X68304000Y-45792000I2324184J1122795D01*
G01*
X67747600Y-42843193D02*
G75*
G02X70104000Y-41342000I2356400J-1098807D01*
G01*
X72460400Y-42843193D02*
G75*
G03X70104000Y-41342000I-2356400J-1098807D01*
G01*
X72428184Y-45064795D02*
G75*
G02X71904000Y-45792000I-2324184J1122795D01*
G01*
X58004000Y-42708000D02*
X58004000Y-42378000D01*
X58004000Y-42378000D02*
X64424000Y-42378000D01*
X64424000Y-42378000D02*
X64424000Y-42708000D01*
X58004000Y-44668000D02*
X58004000Y-44998000D01*
X58004000Y-44998000D02*
X64424000Y-44998000D01*
X64424000Y-44998000D02*
X64424000Y-44668000D01*
X120360000Y-74260000D02*
X120690000Y-74260000D01*
X120690000Y-74260000D02*
X120690000Y-80680000D01*
X120690000Y-80680000D02*
X120360000Y-80680000D01*
X118400000Y-74260000D02*
X118070000Y-74260000D01*
X118070000Y-74260000D02*
X118070000Y-80680000D01*
X118070000Y-80680000D02*
X118400000Y-80680000D01*
X122210000Y-80680000D02*
X121880000Y-80680000D01*
X121880000Y-80680000D02*
X121880000Y-74260000D01*
X121880000Y-74260000D02*
X122210000Y-74260000D01*
X124170000Y-80680000D02*
X124500000Y-80680000D01*
X124500000Y-80680000D02*
X124500000Y-74260000D01*
X124500000Y-74260000D02*
X124170000Y-74260000D01*
X82204000Y-44668000D02*
X82204000Y-44998000D01*
X82204000Y-44998000D02*
X75784000Y-44998000D01*
X75784000Y-44998000D02*
X75784000Y-44668000D01*
X82204000Y-42708000D02*
X82204000Y-42378000D01*
X82204000Y-42378000D02*
X75784000Y-42378000D01*
X75784000Y-42378000D02*
X75784000Y-42708000D01*
X121680277Y-127754278D02*
G75*
G03X121680000Y-132365580I1179723J-2305722D01*
G01*
X124039723Y-127754278D02*
G75*
G02X124040000Y-132365580I-1179723J-2305722D01*
G01*
X124039723Y-127754278D02*
G75*
G03X121680000Y-127754420I-1179723J-2305722D01*
G01*
X120310000Y-130060000D02*
X125410000Y-130060000D01*
X120310000Y-130020000D02*
X125410000Y-130020000D01*
X120311000Y-129980000D02*
X125409000Y-129980000D01*
X120312000Y-129940000D02*
X125408000Y-129940000D01*
X120314000Y-129900000D02*
X125406000Y-129900000D01*
X120317000Y-129860000D02*
X125403000Y-129860000D01*
X120321000Y-129820000D02*
X125399000Y-129820000D01*
X120325000Y-129780000D02*
X121880000Y-129780000D01*
X123840000Y-129780000D02*
X125395000Y-129780000D01*
X120329000Y-129740000D02*
X121880000Y-129740000D01*
X123840000Y-129740000D02*
X125391000Y-129740000D01*
X120335000Y-129700000D02*
X121880000Y-129700000D01*
X123840000Y-129700000D02*
X125385000Y-129700000D01*
X120341000Y-129660000D02*
X121880000Y-129660000D01*
X123840000Y-129660000D02*
X125379000Y-129660000D01*
X120347000Y-129620000D02*
X121880000Y-129620000D01*
X123840000Y-129620000D02*
X125373000Y-129620000D01*
X120354000Y-129580000D02*
X121880000Y-129580000D01*
X123840000Y-129580000D02*
X125366000Y-129580000D01*
X120362000Y-129540000D02*
X121880000Y-129540000D01*
X123840000Y-129540000D02*
X125358000Y-129540000D01*
X120371000Y-129500000D02*
X121880000Y-129500000D01*
X123840000Y-129500000D02*
X125349000Y-129500000D01*
X120380000Y-129460000D02*
X121880000Y-129460000D01*
X123840000Y-129460000D02*
X125340000Y-129460000D01*
X120390000Y-129420000D02*
X121880000Y-129420000D01*
X123840000Y-129420000D02*
X125330000Y-129420000D01*
X120400000Y-129380000D02*
X121880000Y-129380000D01*
X123840000Y-129380000D02*
X125320000Y-129380000D01*
X120412000Y-129339000D02*
X121880000Y-129339000D01*
X123840000Y-129339000D02*
X125308000Y-129339000D01*
X120424000Y-129299000D02*
X121880000Y-129299000D01*
X123840000Y-129299000D02*
X125296000Y-129299000D01*
X120436000Y-129259000D02*
X121880000Y-129259000D01*
X123840000Y-129259000D02*
X125284000Y-129259000D01*
X120450000Y-129219000D02*
X121880000Y-129219000D01*
X123840000Y-129219000D02*
X125270000Y-129219000D01*
X120464000Y-129179000D02*
X121880000Y-129179000D01*
X123840000Y-129179000D02*
X125256000Y-129179000D01*
X120478000Y-129139000D02*
X121880000Y-129139000D01*
X123840000Y-129139000D02*
X125242000Y-129139000D01*
X120494000Y-129099000D02*
X121880000Y-129099000D01*
X123840000Y-129099000D02*
X125226000Y-129099000D01*
X120510000Y-129059000D02*
X121880000Y-129059000D01*
X123840000Y-129059000D02*
X125210000Y-129059000D01*
X120527000Y-129019000D02*
X121880000Y-129019000D01*
X123840000Y-129019000D02*
X125193000Y-129019000D01*
X120545000Y-128979000D02*
X121880000Y-128979000D01*
X123840000Y-128979000D02*
X125175000Y-128979000D01*
X120564000Y-128939000D02*
X121880000Y-128939000D01*
X123840000Y-128939000D02*
X125156000Y-128939000D01*
X120584000Y-128899000D02*
X121880000Y-128899000D01*
X123840000Y-128899000D02*
X125136000Y-128899000D01*
X120604000Y-128859000D02*
X121880000Y-128859000D01*
X123840000Y-128859000D02*
X125116000Y-128859000D01*
X120626000Y-128819000D02*
X121880000Y-128819000D01*
X123840000Y-128819000D02*
X125094000Y-128819000D01*
X120648000Y-128779000D02*
X121880000Y-128779000D01*
X123840000Y-128779000D02*
X125072000Y-128779000D01*
X120671000Y-128739000D02*
X121880000Y-128739000D01*
X123840000Y-128739000D02*
X125049000Y-128739000D01*
X120695000Y-128699000D02*
X121880000Y-128699000D01*
X123840000Y-128699000D02*
X125025000Y-128699000D01*
X120720000Y-128659000D02*
X121880000Y-128659000D01*
X123840000Y-128659000D02*
X125000000Y-128659000D01*
X120747000Y-128619000D02*
X121880000Y-128619000D01*
X123840000Y-128619000D02*
X124973000Y-128619000D01*
X120774000Y-128579000D02*
X121880000Y-128579000D01*
X123840000Y-128579000D02*
X124946000Y-128579000D01*
X120802000Y-128539000D02*
X121880000Y-128539000D01*
X123840000Y-128539000D02*
X124918000Y-128539000D01*
X120832000Y-128499000D02*
X121880000Y-128499000D01*
X123840000Y-128499000D02*
X124888000Y-128499000D01*
X120863000Y-128459000D02*
X121880000Y-128459000D01*
X123840000Y-128459000D02*
X124857000Y-128459000D01*
X120895000Y-128419000D02*
X121880000Y-128419000D01*
X123840000Y-128419000D02*
X124825000Y-128419000D01*
X120928000Y-128379000D02*
X121880000Y-128379000D01*
X123840000Y-128379000D02*
X124792000Y-128379000D01*
X120963000Y-128339000D02*
X121880000Y-128339000D01*
X123840000Y-128339000D02*
X124757000Y-128339000D01*
X120999000Y-128299000D02*
X121880000Y-128299000D01*
X123840000Y-128299000D02*
X124721000Y-128299000D01*
X121037000Y-128259000D02*
X121880000Y-128259000D01*
X123840000Y-128259000D02*
X124683000Y-128259000D01*
X121077000Y-128219000D02*
X121880000Y-128219000D01*
X123840000Y-128219000D02*
X124643000Y-128219000D01*
X121118000Y-128179000D02*
X121880000Y-128179000D01*
X123840000Y-128179000D02*
X124602000Y-128179000D01*
X121161000Y-128139000D02*
X121880000Y-128139000D01*
X123840000Y-128139000D02*
X124559000Y-128139000D01*
X121206000Y-128099000D02*
X121880000Y-128099000D01*
X123840000Y-128099000D02*
X124514000Y-128099000D01*
X121254000Y-128059000D02*
X121880000Y-128059000D01*
X123840000Y-128059000D02*
X124466000Y-128059000D01*
X121304000Y-128019000D02*
X121880000Y-128019000D01*
X123840000Y-128019000D02*
X124416000Y-128019000D01*
X121356000Y-127979000D02*
X121880000Y-127979000D01*
X123840000Y-127979000D02*
X124364000Y-127979000D01*
X121412000Y-127939000D02*
X121880000Y-127939000D01*
X123840000Y-127939000D02*
X124308000Y-127939000D01*
X121470000Y-127899000D02*
X121880000Y-127899000D01*
X123840000Y-127899000D02*
X124250000Y-127899000D01*
X121533000Y-127859000D02*
X121880000Y-127859000D01*
X123840000Y-127859000D02*
X124187000Y-127859000D01*
X121599000Y-127819000D02*
X124121000Y-127819000D01*
X121671000Y-127779000D02*
X124049000Y-127779000D01*
X121748000Y-127739000D02*
X123972000Y-127739000D01*
X121832000Y-127699000D02*
X123888000Y-127699000D01*
X121926000Y-127659000D02*
X123794000Y-127659000D01*
X122031000Y-127619000D02*
X123689000Y-127619000D01*
X122153000Y-127579000D02*
X123567000Y-127579000D01*
X122301000Y-127539000D02*
X123419000Y-127539000D01*
X122506000Y-127499000D02*
X123214000Y-127499000D01*
X122860000Y-133510000D02*
X122860000Y-132310000D01*
X122210000Y-132910000D02*
X123510000Y-132910000D01*
X113920000Y-100520000D02*
X113920000Y-105640000D01*
X111300000Y-100520000D02*
X111300000Y-105640000D01*
X113920000Y-100520000D02*
X111300000Y-100520000D01*
X113920000Y-105640000D02*
X111300000Y-105640000D01*
X103632278Y-115733723D02*
G75*
G03X108243580Y-115734000I2305722J1179723D01*
G01*
X103632278Y-113374277D02*
G75*
G02X108243580Y-113374000I2305722J-1179723D01*
G01*
X103632278Y-113374277D02*
G75*
G03X103632420Y-115734000I2305722J-1179723D01*
G01*
X105938000Y-117104000D02*
X105938000Y-112004000D01*
X105898000Y-117104000D02*
X105898000Y-112004000D01*
X105858000Y-117103000D02*
X105858000Y-112005000D01*
X105818000Y-117102000D02*
X105818000Y-112006000D01*
X105778000Y-117100000D02*
X105778000Y-112008000D01*
X105738000Y-117097000D02*
X105738000Y-112011000D01*
X105698000Y-117093000D02*
X105698000Y-112015000D01*
X105658000Y-117089000D02*
X105658000Y-115534000D01*
X105658000Y-113574000D02*
X105658000Y-112019000D01*
X105618000Y-117085000D02*
X105618000Y-115534000D01*
X105618000Y-113574000D02*
X105618000Y-112023000D01*
X105578000Y-117079000D02*
X105578000Y-115534000D01*
X105578000Y-113574000D02*
X105578000Y-112029000D01*
X105538000Y-117073000D02*
X105538000Y-115534000D01*
X105538000Y-113574000D02*
X105538000Y-112035000D01*
X105498000Y-117067000D02*
X105498000Y-115534000D01*
X105498000Y-113574000D02*
X105498000Y-112041000D01*
X105458000Y-117060000D02*
X105458000Y-115534000D01*
X105458000Y-113574000D02*
X105458000Y-112048000D01*
X105418000Y-117052000D02*
X105418000Y-115534000D01*
X105418000Y-113574000D02*
X105418000Y-112056000D01*
X105378000Y-117043000D02*
X105378000Y-115534000D01*
X105378000Y-113574000D02*
X105378000Y-112065000D01*
X105338000Y-117034000D02*
X105338000Y-115534000D01*
X105338000Y-113574000D02*
X105338000Y-112074000D01*
X105298000Y-117024000D02*
X105298000Y-115534000D01*
X105298000Y-113574000D02*
X105298000Y-112084000D01*
X105258000Y-117014000D02*
X105258000Y-115534000D01*
X105258000Y-113574000D02*
X105258000Y-112094000D01*
X105217000Y-117002000D02*
X105217000Y-115534000D01*
X105217000Y-113574000D02*
X105217000Y-112106000D01*
X105177000Y-116990000D02*
X105177000Y-115534000D01*
X105177000Y-113574000D02*
X105177000Y-112118000D01*
X105137000Y-116978000D02*
X105137000Y-115534000D01*
X105137000Y-113574000D02*
X105137000Y-112130000D01*
X105097000Y-116964000D02*
X105097000Y-115534000D01*
X105097000Y-113574000D02*
X105097000Y-112144000D01*
X105057000Y-116950000D02*
X105057000Y-115534000D01*
X105057000Y-113574000D02*
X105057000Y-112158000D01*
X105017000Y-116936000D02*
X105017000Y-115534000D01*
X105017000Y-113574000D02*
X105017000Y-112172000D01*
X104977000Y-116920000D02*
X104977000Y-115534000D01*
X104977000Y-113574000D02*
X104977000Y-112188000D01*
X104937000Y-116904000D02*
X104937000Y-115534000D01*
X104937000Y-113574000D02*
X104937000Y-112204000D01*
X104897000Y-116887000D02*
X104897000Y-115534000D01*
X104897000Y-113574000D02*
X104897000Y-112221000D01*
X104857000Y-116869000D02*
X104857000Y-115534000D01*
X104857000Y-113574000D02*
X104857000Y-112239000D01*
X104817000Y-116850000D02*
X104817000Y-115534000D01*
X104817000Y-113574000D02*
X104817000Y-112258000D01*
X104777000Y-116830000D02*
X104777000Y-115534000D01*
X104777000Y-113574000D02*
X104777000Y-112278000D01*
X104737000Y-116810000D02*
X104737000Y-115534000D01*
X104737000Y-113574000D02*
X104737000Y-112298000D01*
X104697000Y-116788000D02*
X104697000Y-115534000D01*
X104697000Y-113574000D02*
X104697000Y-112320000D01*
X104657000Y-116766000D02*
X104657000Y-115534000D01*
X104657000Y-113574000D02*
X104657000Y-112342000D01*
X104617000Y-116743000D02*
X104617000Y-115534000D01*
X104617000Y-113574000D02*
X104617000Y-112365000D01*
X104577000Y-116719000D02*
X104577000Y-115534000D01*
X104577000Y-113574000D02*
X104577000Y-112389000D01*
X104537000Y-116694000D02*
X104537000Y-115534000D01*
X104537000Y-113574000D02*
X104537000Y-112414000D01*
X104497000Y-116667000D02*
X104497000Y-115534000D01*
X104497000Y-113574000D02*
X104497000Y-112441000D01*
X104457000Y-116640000D02*
X104457000Y-115534000D01*
X104457000Y-113574000D02*
X104457000Y-112468000D01*
X104417000Y-116612000D02*
X104417000Y-115534000D01*
X104417000Y-113574000D02*
X104417000Y-112496000D01*
X104377000Y-116582000D02*
X104377000Y-115534000D01*
X104377000Y-113574000D02*
X104377000Y-112526000D01*
X104337000Y-116551000D02*
X104337000Y-115534000D01*
X104337000Y-113574000D02*
X104337000Y-112557000D01*
X104297000Y-116519000D02*
X104297000Y-115534000D01*
X104297000Y-113574000D02*
X104297000Y-112589000D01*
X104257000Y-116486000D02*
X104257000Y-115534000D01*
X104257000Y-113574000D02*
X104257000Y-112622000D01*
X104217000Y-116451000D02*
X104217000Y-115534000D01*
X104217000Y-113574000D02*
X104217000Y-112657000D01*
X104177000Y-116415000D02*
X104177000Y-115534000D01*
X104177000Y-113574000D02*
X104177000Y-112693000D01*
X104137000Y-116377000D02*
X104137000Y-115534000D01*
X104137000Y-113574000D02*
X104137000Y-112731000D01*
X104097000Y-116337000D02*
X104097000Y-115534000D01*
X104097000Y-113574000D02*
X104097000Y-112771000D01*
X104057000Y-116296000D02*
X104057000Y-115534000D01*
X104057000Y-113574000D02*
X104057000Y-112812000D01*
X104017000Y-116253000D02*
X104017000Y-115534000D01*
X104017000Y-113574000D02*
X104017000Y-112855000D01*
X103977000Y-116208000D02*
X103977000Y-115534000D01*
X103977000Y-113574000D02*
X103977000Y-112900000D01*
X103937000Y-116160000D02*
X103937000Y-115534000D01*
X103937000Y-113574000D02*
X103937000Y-112948000D01*
X103897000Y-116110000D02*
X103897000Y-115534000D01*
X103897000Y-113574000D02*
X103897000Y-112998000D01*
X103857000Y-116058000D02*
X103857000Y-115534000D01*
X103857000Y-113574000D02*
X103857000Y-113050000D01*
X103817000Y-116002000D02*
X103817000Y-115534000D01*
X103817000Y-113574000D02*
X103817000Y-113106000D01*
X103777000Y-115944000D02*
X103777000Y-115534000D01*
X103777000Y-113574000D02*
X103777000Y-113164000D01*
X103737000Y-115881000D02*
X103737000Y-115534000D01*
X103737000Y-113574000D02*
X103737000Y-113227000D01*
X103697000Y-115815000D02*
X103697000Y-113293000D01*
X103657000Y-115743000D02*
X103657000Y-113365000D01*
X103617000Y-115666000D02*
X103617000Y-113442000D01*
X103577000Y-115582000D02*
X103577000Y-113526000D01*
X103537000Y-115488000D02*
X103537000Y-113620000D01*
X103497000Y-115383000D02*
X103497000Y-113725000D01*
X103457000Y-115261000D02*
X103457000Y-113847000D01*
X103417000Y-115113000D02*
X103417000Y-113995000D01*
X103377000Y-114908000D02*
X103377000Y-114200000D01*
X109388000Y-114554000D02*
X108188000Y-114554000D01*
X108788000Y-115204000D02*
X108788000Y-113904000D01*
X107890000Y-138050000D02*
X107890000Y-137720000D01*
X107890000Y-137720000D02*
X114310000Y-137720000D01*
X114310000Y-137720000D02*
X114310000Y-138050000D01*
X107890000Y-140010000D02*
X107890000Y-140340000D01*
X107890000Y-140340000D02*
X114310000Y-140340000D01*
X114310000Y-140340000D02*
X114310000Y-140010000D01*
X125090000Y-119180000D02*
X125420000Y-119180000D01*
X125420000Y-119180000D02*
X125420000Y-125600000D01*
X125420000Y-125600000D02*
X125090000Y-125600000D01*
X123130000Y-119180000D02*
X122800000Y-119180000D01*
X122800000Y-119180000D02*
X122800000Y-125600000D01*
X122800000Y-125600000D02*
X123130000Y-125600000D01*
X112486000Y-109058000D02*
X112816000Y-109058000D01*
X112816000Y-109058000D02*
X112816000Y-115478000D01*
X112816000Y-115478000D02*
X112486000Y-115478000D01*
X110526000Y-109058000D02*
X110196000Y-109058000D01*
X110196000Y-109058000D02*
X110196000Y-115478000D01*
X110196000Y-115478000D02*
X110526000Y-115478000D01*
X121350000Y-119120000D02*
X121680000Y-119120000D01*
X121680000Y-119120000D02*
X121680000Y-125540000D01*
X121680000Y-125540000D02*
X121350000Y-125540000D01*
X119390000Y-119120000D02*
X119060000Y-119120000D01*
X119060000Y-119120000D02*
X119060000Y-125540000D01*
X119060000Y-125540000D02*
X119390000Y-125540000D01*
X116600000Y-96020000D02*
X116600000Y-95690000D01*
X116600000Y-95690000D02*
X123020000Y-95690000D01*
X123020000Y-95690000D02*
X123020000Y-96020000D01*
X116600000Y-97980000D02*
X116600000Y-98310000D01*
X116600000Y-98310000D02*
X123020000Y-98310000D01*
X123020000Y-98310000D02*
X123020000Y-97980000D01*
X116600000Y-92620000D02*
X116600000Y-92290000D01*
X116600000Y-92290000D02*
X123020000Y-92290000D01*
X123020000Y-92290000D02*
X123020000Y-92620000D01*
X116600000Y-94580000D02*
X116600000Y-94910000D01*
X116600000Y-94910000D02*
X123020000Y-94910000D01*
X123020000Y-94910000D02*
X123020000Y-94580000D01*
X102326000Y-113376000D02*
X102656000Y-113376000D01*
X102656000Y-113376000D02*
X102656000Y-119796000D01*
X102656000Y-119796000D02*
X102326000Y-119796000D01*
X100366000Y-113376000D02*
X100036000Y-113376000D01*
X100036000Y-113376000D02*
X100036000Y-119796000D01*
X100036000Y-119796000D02*
X100366000Y-119796000D01*
X122914691Y-101995704D02*
G75*
G02X122955000Y-104305000I40309J-1154296D01*
G01*
X122975121Y-104304052D02*
G75*
G02X121826000Y-102910000I-20121J1154052D01*
G01*
X114635000Y-99530000D02*
X124285000Y-99530000D01*
X114635000Y-104481000D02*
X124285000Y-104481000D01*
X114635000Y-99530000D02*
X114635000Y-104481000D01*
X124285000Y-99530000D02*
X124285000Y-104481000D01*
X123831000Y-102416000D02*
X122220000Y-104026000D01*
X123691000Y-102275000D02*
X122079000Y-103885000D01*
X114670000Y-110190000D02*
G75*
G02X114670000Y-112190000I0J-1000000D01*
G01*
X114670000Y-112190000D02*
X114670000Y-113840000D01*
X114670000Y-113840000D02*
X124950000Y-113840000D01*
X124950000Y-113840000D02*
X124950000Y-108540000D01*
X124950000Y-108540000D02*
X114670000Y-108540000D01*
X114670000Y-108540000D02*
X114670000Y-110190000D01*
X114610000Y-116330000D02*
X125010000Y-116330000D01*
X125010000Y-116330000D02*
X125010000Y-106050000D01*
X125010000Y-106050000D02*
X114610000Y-106050000D01*
X114610000Y-106050000D02*
X114610000Y-116330000D01*
X56100000Y-139330000D02*
X56100000Y-139660000D01*
X56100000Y-139660000D02*
X49680000Y-139660000D01*
X49680000Y-139660000D02*
X49680000Y-139330000D01*
X56100000Y-137370000D02*
X56100000Y-137040000D01*
X56100000Y-137040000D02*
X49680000Y-137040000D01*
X49680000Y-137040000D02*
X49680000Y-137370000D01*
X117050000Y-120080000D02*
X117050000Y-120410000D01*
X117050000Y-120410000D02*
X110630000Y-120410000D01*
X110630000Y-120410000D02*
X110630000Y-120080000D01*
X117050000Y-118120000D02*
X117050000Y-117790000D01*
X117050000Y-117790000D02*
X110630000Y-117790000D01*
X110630000Y-117790000D02*
X110630000Y-118120000D01*
D11*
X62908381Y-139525333D02*
X63622667Y-139525333D01*
X63765524Y-139572953D01*
X63860762Y-139668191D01*
X63908381Y-139811048D01*
X63908381Y-139906286D01*
X63336952Y-138906286D02*
X63289333Y-139001524D01*
X63241714Y-139049143D01*
X63146476Y-139096762D01*
X63098857Y-139096762D01*
X63003619Y-139049143D01*
X62956000Y-139001524D01*
X62908381Y-138906286D01*
X62908381Y-138715809D01*
X62956000Y-138620571D01*
X63003619Y-138572952D01*
X63098857Y-138525333D01*
X63146476Y-138525333D01*
X63241714Y-138572952D01*
X63289333Y-138620571D01*
X63336952Y-138715809D01*
X63336952Y-138906286D01*
X63384571Y-139001524D01*
X63432190Y-139049143D01*
X63527429Y-139096762D01*
X63717905Y-139096762D01*
X63813143Y-139049143D01*
X63860762Y-139001524D01*
X63908381Y-138906286D01*
X63908381Y-138715809D01*
X63860762Y-138620571D01*
X63813143Y-138572952D01*
X63717905Y-138525333D01*
X63527429Y-138525333D01*
X63432190Y-138572952D01*
X63384571Y-138620571D01*
X63336952Y-138715809D01*
X97373334Y-129577143D02*
X97325715Y-129624762D01*
X97182858Y-129672381D01*
X97087620Y-129672381D01*
X96944762Y-129624762D01*
X96849524Y-129529524D01*
X96801905Y-129434286D01*
X96754286Y-129243810D01*
X96754286Y-129100952D01*
X96801905Y-128910476D01*
X96849524Y-128815238D01*
X96944762Y-128720000D01*
X97087620Y-128672381D01*
X97182858Y-128672381D01*
X97325715Y-128720000D01*
X97373334Y-128767619D01*
X97706667Y-128672381D02*
X98325715Y-128672381D01*
X97992381Y-129053333D01*
X98135239Y-129053333D01*
X98230477Y-129100952D01*
X98278096Y-129148571D01*
X98325715Y-129243810D01*
X98325715Y-129481905D01*
X98278096Y-129577143D01*
X98230477Y-129624762D01*
X98135239Y-129672381D01*
X97849524Y-129672381D01*
X97754286Y-129624762D01*
X97706667Y-129577143D01*
X81164762Y-119512381D02*
X80831428Y-119036190D01*
X80593333Y-119512381D02*
X80593333Y-118512381D01*
X80974286Y-118512381D01*
X81069524Y-118560000D01*
X81117143Y-118607619D01*
X81164762Y-118702857D01*
X81164762Y-118845714D01*
X81117143Y-118940952D01*
X81069524Y-118988571D01*
X80974286Y-119036190D01*
X80593333Y-119036190D01*
X81450476Y-118512381D02*
X81783809Y-119512381D01*
X82117143Y-118512381D01*
X82974286Y-119512381D02*
X82402857Y-119512381D01*
X82688571Y-119512381D02*
X82688571Y-118512381D01*
X82593333Y-118655238D01*
X82498095Y-118750476D01*
X82402857Y-118798095D01*
X64152381Y-120725238D02*
X63676190Y-121058572D01*
X64152381Y-121296667D02*
X63152381Y-121296667D01*
X63152381Y-120915714D01*
X63200000Y-120820476D01*
X63247619Y-120772857D01*
X63342857Y-120725238D01*
X63485714Y-120725238D01*
X63580952Y-120772857D01*
X63628571Y-120820476D01*
X63676190Y-120915714D01*
X63676190Y-121296667D01*
X63152381Y-120439524D02*
X64152381Y-120106191D01*
X63152381Y-119772857D01*
X63247619Y-119487143D02*
X63200000Y-119439524D01*
X63152381Y-119344286D01*
X63152381Y-119106190D01*
X63200000Y-119010952D01*
X63247619Y-118963333D01*
X63342857Y-118915714D01*
X63438095Y-118915714D01*
X63580952Y-118963333D01*
X64152381Y-119534762D01*
X64152381Y-118915714D01*
X41743334Y-104592381D02*
X41410000Y-104116190D01*
X41171905Y-104592381D02*
X41171905Y-103592381D01*
X41552858Y-103592381D01*
X41648096Y-103640000D01*
X41695715Y-103687619D01*
X41743334Y-103782857D01*
X41743334Y-103925714D01*
X41695715Y-104020952D01*
X41648096Y-104068571D01*
X41552858Y-104116190D01*
X41171905Y-104116190D01*
X42076667Y-103592381D02*
X42695715Y-103592381D01*
X42362381Y-103973333D01*
X42505239Y-103973333D01*
X42600477Y-104020952D01*
X42648096Y-104068571D01*
X42695715Y-104163810D01*
X42695715Y-104401905D01*
X42648096Y-104497143D01*
X42600477Y-104544762D01*
X42505239Y-104592381D01*
X42219524Y-104592381D01*
X42124286Y-104544762D01*
X42076667Y-104497143D01*
X48467143Y-70700666D02*
X48514762Y-70748285D01*
X48562381Y-70891142D01*
X48562381Y-70986380D01*
X48514762Y-71129238D01*
X48419524Y-71224476D01*
X48324286Y-71272095D01*
X48133810Y-71319714D01*
X47990952Y-71319714D01*
X47800476Y-71272095D01*
X47705238Y-71224476D01*
X47610000Y-71129238D01*
X47562381Y-70986380D01*
X47562381Y-70891142D01*
X47610000Y-70748285D01*
X47657619Y-70700666D01*
X48562381Y-69748285D02*
X48562381Y-70319714D01*
X48562381Y-70034000D02*
X47562381Y-70034000D01*
X47705238Y-70129238D01*
X47800476Y-70224476D01*
X47848095Y-70319714D01*
X112556381Y-77782095D02*
X111556381Y-77782095D01*
X111556381Y-77544000D01*
X111604000Y-77401142D01*
X111699238Y-77305904D01*
X111794476Y-77258285D01*
X111984952Y-77210666D01*
X112127810Y-77210666D01*
X112318286Y-77258285D01*
X112413524Y-77305904D01*
X112508762Y-77401142D01*
X112556381Y-77544000D01*
X112556381Y-77782095D01*
X112556381Y-76734476D02*
X112556381Y-76544000D01*
X112508762Y-76448761D01*
X112461143Y-76401142D01*
X112318286Y-76305904D01*
X112127810Y-76258285D01*
X111746857Y-76258285D01*
X111651619Y-76305904D01*
X111604000Y-76353523D01*
X111556381Y-76448761D01*
X111556381Y-76639238D01*
X111604000Y-76734476D01*
X111651619Y-76782095D01*
X111746857Y-76829714D01*
X111984952Y-76829714D01*
X112080190Y-76782095D01*
X112127810Y-76734476D01*
X112175429Y-76639238D01*
X112175429Y-76448761D01*
X112127810Y-76353523D01*
X112080190Y-76305904D01*
X111984952Y-76258285D01*
X115514381Y-78176286D02*
X114514381Y-78176286D01*
X114514381Y-77938191D01*
X114562000Y-77795333D01*
X114657238Y-77700095D01*
X114752476Y-77652476D01*
X114942952Y-77604857D01*
X115085810Y-77604857D01*
X115276286Y-77652476D01*
X115371524Y-77700095D01*
X115466762Y-77795333D01*
X115514381Y-77938191D01*
X115514381Y-78176286D01*
X115514381Y-76652476D02*
X115514381Y-77223905D01*
X115514381Y-76938191D02*
X114514381Y-76938191D01*
X114657238Y-77033429D01*
X114752476Y-77128667D01*
X114800095Y-77223905D01*
X114514381Y-76033429D02*
X114514381Y-75938190D01*
X114562000Y-75842952D01*
X114609619Y-75795333D01*
X114704857Y-75747714D01*
X114895333Y-75700095D01*
X115133429Y-75700095D01*
X115323905Y-75747714D01*
X115419143Y-75795333D01*
X115466762Y-75842952D01*
X115514381Y-75938190D01*
X115514381Y-76033429D01*
X115466762Y-76128667D01*
X115419143Y-76176286D01*
X115323905Y-76223905D01*
X115133429Y-76271524D01*
X114895333Y-76271524D01*
X114704857Y-76223905D01*
X114609619Y-76176286D01*
X114562000Y-76128667D01*
X114514381Y-76033429D01*
X112432381Y-88784286D02*
X111432381Y-88784286D01*
X111432381Y-88546191D01*
X111480000Y-88403333D01*
X111575238Y-88308095D01*
X111670476Y-88260476D01*
X111860952Y-88212857D01*
X112003810Y-88212857D01*
X112194286Y-88260476D01*
X112289524Y-88308095D01*
X112384762Y-88403333D01*
X112432381Y-88546191D01*
X112432381Y-88784286D01*
X112432381Y-87260476D02*
X112432381Y-87831905D01*
X112432381Y-87546191D02*
X111432381Y-87546191D01*
X111575238Y-87641429D01*
X111670476Y-87736667D01*
X111718095Y-87831905D01*
X112432381Y-86308095D02*
X112432381Y-86879524D01*
X112432381Y-86593810D02*
X111432381Y-86593810D01*
X111575238Y-86689048D01*
X111670476Y-86784286D01*
X111718095Y-86879524D01*
X115472381Y-68044286D02*
X114472381Y-68044286D01*
X114472381Y-67806191D01*
X114520000Y-67663333D01*
X114615238Y-67568095D01*
X114710476Y-67520476D01*
X114900952Y-67472857D01*
X115043810Y-67472857D01*
X115234286Y-67520476D01*
X115329524Y-67568095D01*
X115424762Y-67663333D01*
X115472381Y-67806191D01*
X115472381Y-68044286D01*
X115472381Y-66520476D02*
X115472381Y-67091905D01*
X115472381Y-66806191D02*
X114472381Y-66806191D01*
X114615238Y-66901429D01*
X114710476Y-66996667D01*
X114758095Y-67091905D01*
X114567619Y-66139524D02*
X114520000Y-66091905D01*
X114472381Y-65996667D01*
X114472381Y-65758571D01*
X114520000Y-65663333D01*
X114567619Y-65615714D01*
X114662857Y-65568095D01*
X114758095Y-65568095D01*
X114900952Y-65615714D01*
X115472381Y-66187143D01*
X115472381Y-65568095D01*
X122856667Y-56812381D02*
X122856667Y-57526667D01*
X122809047Y-57669524D01*
X122713809Y-57764762D01*
X122570952Y-57812381D01*
X122475714Y-57812381D01*
X123856667Y-57812381D02*
X123285238Y-57812381D01*
X123570952Y-57812381D02*
X123570952Y-56812381D01*
X123475714Y-56955238D01*
X123380476Y-57050476D01*
X123285238Y-57098095D01*
X61892381Y-53673333D02*
X62606667Y-53673333D01*
X62749524Y-53720953D01*
X62844762Y-53816191D01*
X62892381Y-53959048D01*
X62892381Y-54054286D01*
X61987619Y-53244762D02*
X61940000Y-53197143D01*
X61892381Y-53101905D01*
X61892381Y-52863809D01*
X61940000Y-52768571D01*
X61987619Y-52720952D01*
X62082857Y-52673333D01*
X62178095Y-52673333D01*
X62320952Y-52720952D01*
X62892381Y-53292381D01*
X62892381Y-52673333D01*
X41743334Y-98242381D02*
X41410000Y-97766190D01*
X41171905Y-98242381D02*
X41171905Y-97242381D01*
X41552858Y-97242381D01*
X41648096Y-97290000D01*
X41695715Y-97337619D01*
X41743334Y-97432857D01*
X41743334Y-97575714D01*
X41695715Y-97670952D01*
X41648096Y-97718571D01*
X41552858Y-97766190D01*
X41171905Y-97766190D01*
X42695715Y-98242381D02*
X42124286Y-98242381D01*
X42410000Y-98242381D02*
X42410000Y-97242381D01*
X42314762Y-97385238D01*
X42219524Y-97480476D01*
X42124286Y-97528095D01*
X41743334Y-101417381D02*
X41410000Y-100941190D01*
X41171905Y-101417381D02*
X41171905Y-100417381D01*
X41552858Y-100417381D01*
X41648096Y-100465000D01*
X41695715Y-100512619D01*
X41743334Y-100607857D01*
X41743334Y-100750714D01*
X41695715Y-100845952D01*
X41648096Y-100893571D01*
X41552858Y-100941190D01*
X41171905Y-100941190D01*
X42124286Y-100512619D02*
X42171905Y-100465000D01*
X42267143Y-100417381D01*
X42505239Y-100417381D01*
X42600477Y-100465000D01*
X42648096Y-100512619D01*
X42695715Y-100607857D01*
X42695715Y-100703095D01*
X42648096Y-100845952D01*
X42076667Y-101417381D01*
X42695715Y-101417381D01*
X41743334Y-107767381D02*
X41410000Y-107291190D01*
X41171905Y-107767381D02*
X41171905Y-106767381D01*
X41552858Y-106767381D01*
X41648096Y-106815000D01*
X41695715Y-106862619D01*
X41743334Y-106957857D01*
X41743334Y-107100714D01*
X41695715Y-107195952D01*
X41648096Y-107243571D01*
X41552858Y-107291190D01*
X41171905Y-107291190D01*
X42600477Y-107100714D02*
X42600477Y-107767381D01*
X42362381Y-106719762D02*
X42124286Y-107434048D01*
X42743334Y-107434048D01*
X41743334Y-110942381D02*
X41410000Y-110466190D01*
X41171905Y-110942381D02*
X41171905Y-109942381D01*
X41552858Y-109942381D01*
X41648096Y-109990000D01*
X41695715Y-110037619D01*
X41743334Y-110132857D01*
X41743334Y-110275714D01*
X41695715Y-110370952D01*
X41648096Y-110418571D01*
X41552858Y-110466190D01*
X41171905Y-110466190D01*
X42648096Y-109942381D02*
X42171905Y-109942381D01*
X42124286Y-110418571D01*
X42171905Y-110370952D01*
X42267143Y-110323333D01*
X42505239Y-110323333D01*
X42600477Y-110370952D01*
X42648096Y-110418571D01*
X42695715Y-110513810D01*
X42695715Y-110751905D01*
X42648096Y-110847143D01*
X42600477Y-110894762D01*
X42505239Y-110942381D01*
X42267143Y-110942381D01*
X42171905Y-110894762D01*
X42124286Y-110847143D01*
X41743334Y-114117381D02*
X41410000Y-113641190D01*
X41171905Y-114117381D02*
X41171905Y-113117381D01*
X41552858Y-113117381D01*
X41648096Y-113165000D01*
X41695715Y-113212619D01*
X41743334Y-113307857D01*
X41743334Y-113450714D01*
X41695715Y-113545952D01*
X41648096Y-113593571D01*
X41552858Y-113641190D01*
X41171905Y-113641190D01*
X42600477Y-113117381D02*
X42410000Y-113117381D01*
X42314762Y-113165000D01*
X42267143Y-113212619D01*
X42171905Y-113355476D01*
X42124286Y-113545952D01*
X42124286Y-113926905D01*
X42171905Y-114022143D01*
X42219524Y-114069762D01*
X42314762Y-114117381D01*
X42505239Y-114117381D01*
X42600477Y-114069762D01*
X42648096Y-114022143D01*
X42695715Y-113926905D01*
X42695715Y-113688810D01*
X42648096Y-113593571D01*
X42600477Y-113545952D01*
X42505239Y-113498333D01*
X42314762Y-113498333D01*
X42219524Y-113545952D01*
X42171905Y-113593571D01*
X42124286Y-113688810D01*
X41743334Y-117292381D02*
X41410000Y-116816190D01*
X41171905Y-117292381D02*
X41171905Y-116292381D01*
X41552858Y-116292381D01*
X41648096Y-116340000D01*
X41695715Y-116387619D01*
X41743334Y-116482857D01*
X41743334Y-116625714D01*
X41695715Y-116720952D01*
X41648096Y-116768571D01*
X41552858Y-116816190D01*
X41171905Y-116816190D01*
X42076667Y-116292381D02*
X42743334Y-116292381D01*
X42314762Y-117292381D01*
X41743334Y-120467381D02*
X41410000Y-119991190D01*
X41171905Y-120467381D02*
X41171905Y-119467381D01*
X41552858Y-119467381D01*
X41648096Y-119515000D01*
X41695715Y-119562619D01*
X41743334Y-119657857D01*
X41743334Y-119800714D01*
X41695715Y-119895952D01*
X41648096Y-119943571D01*
X41552858Y-119991190D01*
X41171905Y-119991190D01*
X42314762Y-119895952D02*
X42219524Y-119848333D01*
X42171905Y-119800714D01*
X42124286Y-119705476D01*
X42124286Y-119657857D01*
X42171905Y-119562619D01*
X42219524Y-119515000D01*
X42314762Y-119467381D01*
X42505239Y-119467381D01*
X42600477Y-119515000D01*
X42648096Y-119562619D01*
X42695715Y-119657857D01*
X42695715Y-119705476D01*
X42648096Y-119800714D01*
X42600477Y-119848333D01*
X42505239Y-119895952D01*
X42314762Y-119895952D01*
X42219524Y-119943571D01*
X42171905Y-119991190D01*
X42124286Y-120086429D01*
X42124286Y-120276905D01*
X42171905Y-120372143D01*
X42219524Y-120419762D01*
X42314762Y-120467381D01*
X42505239Y-120467381D01*
X42600477Y-120419762D01*
X42648096Y-120372143D01*
X42695715Y-120276905D01*
X42695715Y-120086429D01*
X42648096Y-119991190D01*
X42600477Y-119943571D01*
X42505239Y-119895952D01*
X62682381Y-66968666D02*
X62206190Y-67302000D01*
X62682381Y-67540095D02*
X61682381Y-67540095D01*
X61682381Y-67159142D01*
X61730000Y-67063904D01*
X61777619Y-67016285D01*
X61872857Y-66968666D01*
X62015714Y-66968666D01*
X62110952Y-67016285D01*
X62158571Y-67063904D01*
X62206190Y-67159142D01*
X62206190Y-67540095D01*
X62682381Y-66492476D02*
X62682381Y-66302000D01*
X62634762Y-66206761D01*
X62587143Y-66159142D01*
X62444286Y-66063904D01*
X62253810Y-66016285D01*
X61872857Y-66016285D01*
X61777619Y-66063904D01*
X61730000Y-66111523D01*
X61682381Y-66206761D01*
X61682381Y-66397238D01*
X61730000Y-66492476D01*
X61777619Y-66540095D01*
X61872857Y-66587714D01*
X62110952Y-66587714D01*
X62206190Y-66540095D01*
X62253810Y-66492476D01*
X62301429Y-66397238D01*
X62301429Y-66206761D01*
X62253810Y-66111523D01*
X62206190Y-66063904D01*
X62110952Y-66016285D01*
X79446381Y-67444857D02*
X78970190Y-67778191D01*
X79446381Y-68016286D02*
X78446381Y-68016286D01*
X78446381Y-67635333D01*
X78494000Y-67540095D01*
X78541619Y-67492476D01*
X78636857Y-67444857D01*
X78779714Y-67444857D01*
X78874952Y-67492476D01*
X78922571Y-67540095D01*
X78970190Y-67635333D01*
X78970190Y-68016286D01*
X79446381Y-66492476D02*
X79446381Y-67063905D01*
X79446381Y-66778191D02*
X78446381Y-66778191D01*
X78589238Y-66873429D01*
X78684476Y-66968667D01*
X78732095Y-67063905D01*
X78446381Y-65873429D02*
X78446381Y-65778190D01*
X78494000Y-65682952D01*
X78541619Y-65635333D01*
X78636857Y-65587714D01*
X78827333Y-65540095D01*
X79065429Y-65540095D01*
X79255905Y-65587714D01*
X79351143Y-65635333D01*
X79398762Y-65682952D01*
X79446381Y-65778190D01*
X79446381Y-65873429D01*
X79398762Y-65968667D01*
X79351143Y-66016286D01*
X79255905Y-66063905D01*
X79065429Y-66111524D01*
X78827333Y-66111524D01*
X78636857Y-66063905D01*
X78541619Y-66016286D01*
X78494000Y-65968667D01*
X78446381Y-65873429D01*
X95702381Y-67444857D02*
X95226190Y-67778191D01*
X95702381Y-68016286D02*
X94702381Y-68016286D01*
X94702381Y-67635333D01*
X94750000Y-67540095D01*
X94797619Y-67492476D01*
X94892857Y-67444857D01*
X95035714Y-67444857D01*
X95130952Y-67492476D01*
X95178571Y-67540095D01*
X95226190Y-67635333D01*
X95226190Y-68016286D01*
X95702381Y-66492476D02*
X95702381Y-67063905D01*
X95702381Y-66778191D02*
X94702381Y-66778191D01*
X94845238Y-66873429D01*
X94940476Y-66968667D01*
X94988095Y-67063905D01*
X95702381Y-65540095D02*
X95702381Y-66111524D01*
X95702381Y-65825810D02*
X94702381Y-65825810D01*
X94845238Y-65921048D01*
X94940476Y-66016286D01*
X94988095Y-66111524D01*
X112466381Y-67444857D02*
X111990190Y-67778191D01*
X112466381Y-68016286D02*
X111466381Y-68016286D01*
X111466381Y-67635333D01*
X111514000Y-67540095D01*
X111561619Y-67492476D01*
X111656857Y-67444857D01*
X111799714Y-67444857D01*
X111894952Y-67492476D01*
X111942571Y-67540095D01*
X111990190Y-67635333D01*
X111990190Y-68016286D01*
X112466381Y-66492476D02*
X112466381Y-67063905D01*
X112466381Y-66778191D02*
X111466381Y-66778191D01*
X111609238Y-66873429D01*
X111704476Y-66968667D01*
X111752095Y-67063905D01*
X111561619Y-66111524D02*
X111514000Y-66063905D01*
X111466381Y-65968667D01*
X111466381Y-65730571D01*
X111514000Y-65635333D01*
X111561619Y-65587714D01*
X111656857Y-65540095D01*
X111752095Y-65540095D01*
X111894952Y-65587714D01*
X112466381Y-66159143D01*
X112466381Y-65540095D01*
X41148095Y-72052381D02*
X41148095Y-72861905D01*
X41195714Y-72957143D01*
X41243333Y-73004762D01*
X41338571Y-73052381D01*
X41529048Y-73052381D01*
X41624286Y-73004762D01*
X41671905Y-72957143D01*
X41719524Y-72861905D01*
X41719524Y-72052381D01*
X42719524Y-73052381D02*
X42148095Y-73052381D01*
X42433809Y-73052381D02*
X42433809Y-72052381D01*
X42338571Y-72195238D01*
X42243333Y-72290476D01*
X42148095Y-72338095D01*
X36492381Y-44783333D02*
X37206667Y-44783333D01*
X37349524Y-44830953D01*
X37444762Y-44926191D01*
X37492381Y-45069048D01*
X37492381Y-45164286D01*
X36492381Y-44402381D02*
X36492381Y-43735714D01*
X37492381Y-44164286D01*
X36357619Y-55975238D02*
X36310000Y-56070476D01*
X36214762Y-56165714D01*
X36071905Y-56308571D01*
X36024286Y-56403810D01*
X36024286Y-56499048D01*
X36262381Y-56451429D02*
X36214762Y-56546667D01*
X36119524Y-56641905D01*
X35929048Y-56689524D01*
X35595714Y-56689524D01*
X35405238Y-56641905D01*
X35310000Y-56546667D01*
X35262381Y-56451429D01*
X35262381Y-56260952D01*
X35310000Y-56165714D01*
X35405238Y-56070476D01*
X35595714Y-56022857D01*
X35929048Y-56022857D01*
X36119524Y-56070476D01*
X36214762Y-56165714D01*
X36262381Y-56260952D01*
X36262381Y-56451429D01*
X36262381Y-55070476D02*
X36262381Y-55641905D01*
X36262381Y-55356191D02*
X35262381Y-55356191D01*
X35405238Y-55451429D01*
X35500476Y-55546667D01*
X35548095Y-55641905D01*
X42707619Y-55975238D02*
X42660000Y-56070476D01*
X42564762Y-56165714D01*
X42421905Y-56308571D01*
X42374286Y-56403810D01*
X42374286Y-56499048D01*
X42612381Y-56451429D02*
X42564762Y-56546667D01*
X42469524Y-56641905D01*
X42279048Y-56689524D01*
X41945714Y-56689524D01*
X41755238Y-56641905D01*
X41660000Y-56546667D01*
X41612381Y-56451429D01*
X41612381Y-56260952D01*
X41660000Y-56165714D01*
X41755238Y-56070476D01*
X41945714Y-56022857D01*
X42279048Y-56022857D01*
X42469524Y-56070476D01*
X42564762Y-56165714D01*
X42612381Y-56260952D01*
X42612381Y-56451429D01*
X41707619Y-55641905D02*
X41660000Y-55594286D01*
X41612381Y-55499048D01*
X41612381Y-55260952D01*
X41660000Y-55165714D01*
X41707619Y-55118095D01*
X41802857Y-55070476D01*
X41898095Y-55070476D01*
X42040952Y-55118095D01*
X42612381Y-55689524D01*
X42612381Y-55070476D01*
X38552381Y-66682857D02*
X38076190Y-67016191D01*
X38552381Y-67254286D02*
X37552381Y-67254286D01*
X37552381Y-66873333D01*
X37600000Y-66778095D01*
X37647619Y-66730476D01*
X37742857Y-66682857D01*
X37885714Y-66682857D01*
X37980952Y-66730476D01*
X38028571Y-66778095D01*
X38076190Y-66873333D01*
X38076190Y-67254286D01*
X38552381Y-65730476D02*
X38552381Y-66301905D01*
X38552381Y-66016191D02*
X37552381Y-66016191D01*
X37695238Y-66111429D01*
X37790476Y-66206667D01*
X37838095Y-66301905D01*
X37552381Y-65397143D02*
X37552381Y-64778095D01*
X37933333Y-65111429D01*
X37933333Y-64968571D01*
X37980952Y-64873333D01*
X38028571Y-64825714D01*
X38123810Y-64778095D01*
X38361905Y-64778095D01*
X38457143Y-64825714D01*
X38504762Y-64873333D01*
X38552381Y-64968571D01*
X38552381Y-65254286D01*
X38504762Y-65349524D01*
X38457143Y-65397143D01*
X42362381Y-66682857D02*
X41886190Y-67016191D01*
X42362381Y-67254286D02*
X41362381Y-67254286D01*
X41362381Y-66873333D01*
X41410000Y-66778095D01*
X41457619Y-66730476D01*
X41552857Y-66682857D01*
X41695714Y-66682857D01*
X41790952Y-66730476D01*
X41838571Y-66778095D01*
X41886190Y-66873333D01*
X41886190Y-67254286D01*
X42362381Y-65730476D02*
X42362381Y-66301905D01*
X42362381Y-66016191D02*
X41362381Y-66016191D01*
X41505238Y-66111429D01*
X41600476Y-66206667D01*
X41648095Y-66301905D01*
X41695714Y-64873333D02*
X42362381Y-64873333D01*
X41314762Y-65111429D02*
X42029048Y-65349524D01*
X42029048Y-64730476D01*
X52697143Y-49982381D02*
X52363809Y-49506190D01*
X52125714Y-49982381D02*
X52125714Y-48982381D01*
X52506667Y-48982381D01*
X52601905Y-49030000D01*
X52649524Y-49077619D01*
X52697143Y-49172857D01*
X52697143Y-49315714D01*
X52649524Y-49410952D01*
X52601905Y-49458571D01*
X52506667Y-49506190D01*
X52125714Y-49506190D01*
X53649524Y-49982381D02*
X53078095Y-49982381D01*
X53363809Y-49982381D02*
X53363809Y-48982381D01*
X53268571Y-49125238D01*
X53173333Y-49220476D01*
X53078095Y-49268095D01*
X54554286Y-48982381D02*
X54078095Y-48982381D01*
X54030476Y-49458571D01*
X54078095Y-49410952D01*
X54173333Y-49363333D01*
X54411429Y-49363333D01*
X54506667Y-49410952D01*
X54554286Y-49458571D01*
X54601905Y-49553810D01*
X54601905Y-49791905D01*
X54554286Y-49887143D01*
X54506667Y-49934762D01*
X54411429Y-49982381D01*
X54173333Y-49982381D01*
X54078095Y-49934762D01*
X54030476Y-49887143D01*
X52697143Y-53792381D02*
X52363809Y-53316190D01*
X52125714Y-53792381D02*
X52125714Y-52792381D01*
X52506667Y-52792381D01*
X52601905Y-52840000D01*
X52649524Y-52887619D01*
X52697143Y-52982857D01*
X52697143Y-53125714D01*
X52649524Y-53220952D01*
X52601905Y-53268571D01*
X52506667Y-53316190D01*
X52125714Y-53316190D01*
X53649524Y-53792381D02*
X53078095Y-53792381D01*
X53363809Y-53792381D02*
X53363809Y-52792381D01*
X53268571Y-52935238D01*
X53173333Y-53030476D01*
X53078095Y-53078095D01*
X54506667Y-52792381D02*
X54316190Y-52792381D01*
X54220952Y-52840000D01*
X54173333Y-52887619D01*
X54078095Y-53030476D01*
X54030476Y-53220952D01*
X54030476Y-53601905D01*
X54078095Y-53697143D01*
X54125714Y-53744762D01*
X54220952Y-53792381D01*
X54411429Y-53792381D01*
X54506667Y-53744762D01*
X54554286Y-53697143D01*
X54601905Y-53601905D01*
X54601905Y-53363810D01*
X54554286Y-53268571D01*
X54506667Y-53220952D01*
X54411429Y-53173333D01*
X54220952Y-53173333D01*
X54125714Y-53220952D01*
X54078095Y-53268571D01*
X54030476Y-53363810D01*
X49983334Y-122507143D02*
X49935715Y-122554762D01*
X49792858Y-122602381D01*
X49697620Y-122602381D01*
X49554762Y-122554762D01*
X49459524Y-122459524D01*
X49411905Y-122364286D01*
X49364286Y-122173810D01*
X49364286Y-122030952D01*
X49411905Y-121840476D01*
X49459524Y-121745238D01*
X49554762Y-121650000D01*
X49697620Y-121602381D01*
X49792858Y-121602381D01*
X49935715Y-121650000D01*
X49983334Y-121697619D01*
X50364286Y-121697619D02*
X50411905Y-121650000D01*
X50507143Y-121602381D01*
X50745239Y-121602381D01*
X50840477Y-121650000D01*
X50888096Y-121697619D01*
X50935715Y-121792857D01*
X50935715Y-121888095D01*
X50888096Y-122030952D01*
X50316667Y-122602381D01*
X50935715Y-122602381D01*
X97418334Y-123602143D02*
X97370715Y-123649762D01*
X97227858Y-123697381D01*
X97132620Y-123697381D01*
X96989762Y-123649762D01*
X96894524Y-123554524D01*
X96846905Y-123459286D01*
X96799286Y-123268810D01*
X96799286Y-123125952D01*
X96846905Y-122935476D01*
X96894524Y-122840238D01*
X96989762Y-122745000D01*
X97132620Y-122697381D01*
X97227858Y-122697381D01*
X97370715Y-122745000D01*
X97418334Y-122792619D01*
X98275477Y-123030714D02*
X98275477Y-123697381D01*
X98037381Y-122649762D02*
X97799286Y-123364048D01*
X98418334Y-123364048D01*
X59937334Y-140643143D02*
X59889715Y-140690762D01*
X59746858Y-140738381D01*
X59651620Y-140738381D01*
X59508762Y-140690762D01*
X59413524Y-140595524D01*
X59365905Y-140500286D01*
X59318286Y-140309810D01*
X59318286Y-140166952D01*
X59365905Y-139976476D01*
X59413524Y-139881238D01*
X59508762Y-139786000D01*
X59651620Y-139738381D01*
X59746858Y-139738381D01*
X59889715Y-139786000D01*
X59937334Y-139833619D01*
X60842096Y-139738381D02*
X60365905Y-139738381D01*
X60318286Y-140214571D01*
X60365905Y-140166952D01*
X60461143Y-140119333D01*
X60699239Y-140119333D01*
X60794477Y-140166952D01*
X60842096Y-140214571D01*
X60889715Y-140309810D01*
X60889715Y-140547905D01*
X60842096Y-140643143D01*
X60794477Y-140690762D01*
X60699239Y-140738381D01*
X60461143Y-140738381D01*
X60365905Y-140690762D01*
X60318286Y-140643143D01*
X100888334Y-140097143D02*
X100840715Y-140144762D01*
X100697858Y-140192381D01*
X100602620Y-140192381D01*
X100459762Y-140144762D01*
X100364524Y-140049524D01*
X100316905Y-139954286D01*
X100269286Y-139763810D01*
X100269286Y-139620952D01*
X100316905Y-139430476D01*
X100364524Y-139335238D01*
X100459762Y-139240000D01*
X100602620Y-139192381D01*
X100697858Y-139192381D01*
X100840715Y-139240000D01*
X100888334Y-139287619D01*
X101745477Y-139192381D02*
X101555000Y-139192381D01*
X101459762Y-139240000D01*
X101412143Y-139287619D01*
X101316905Y-139430476D01*
X101269286Y-139620952D01*
X101269286Y-140001905D01*
X101316905Y-140097143D01*
X101364524Y-140144762D01*
X101459762Y-140192381D01*
X101650239Y-140192381D01*
X101745477Y-140144762D01*
X101793096Y-140097143D01*
X101840715Y-140001905D01*
X101840715Y-139763810D01*
X101793096Y-139668571D01*
X101745477Y-139620952D01*
X101650239Y-139573333D01*
X101459762Y-139573333D01*
X101364524Y-139620952D01*
X101316905Y-139668571D01*
X101269286Y-139763810D01*
X75913334Y-111761143D02*
X75865715Y-111808762D01*
X75722858Y-111856381D01*
X75627620Y-111856381D01*
X75484762Y-111808762D01*
X75389524Y-111713524D01*
X75341905Y-111618286D01*
X75294286Y-111427810D01*
X75294286Y-111284952D01*
X75341905Y-111094476D01*
X75389524Y-110999238D01*
X75484762Y-110904000D01*
X75627620Y-110856381D01*
X75722858Y-110856381D01*
X75865715Y-110904000D01*
X75913334Y-110951619D01*
X76246667Y-110856381D02*
X76913334Y-110856381D01*
X76484762Y-111856381D01*
X92376667Y-139122381D02*
X92376667Y-139836667D01*
X92329047Y-139979524D01*
X92233809Y-140074762D01*
X92090952Y-140122381D01*
X91995714Y-140122381D01*
X92900476Y-140122381D02*
X93090952Y-140122381D01*
X93186191Y-140074762D01*
X93233810Y-140027143D01*
X93329048Y-139884286D01*
X93376667Y-139693810D01*
X93376667Y-139312857D01*
X93329048Y-139217619D01*
X93281429Y-139170000D01*
X93186191Y-139122381D01*
X92995714Y-139122381D01*
X92900476Y-139170000D01*
X92852857Y-139217619D01*
X92805238Y-139312857D01*
X92805238Y-139550952D01*
X92852857Y-139646190D01*
X92900476Y-139693810D01*
X92995714Y-139741429D01*
X93186191Y-139741429D01*
X93281429Y-139693810D01*
X93329048Y-139646190D01*
X93376667Y-139550952D01*
X28402381Y-128332857D02*
X27926190Y-128666191D01*
X28402381Y-128904286D02*
X27402381Y-128904286D01*
X27402381Y-128523333D01*
X27450000Y-128428095D01*
X27497619Y-128380476D01*
X27592857Y-128332857D01*
X27735714Y-128332857D01*
X27830952Y-128380476D01*
X27878571Y-128428095D01*
X27926190Y-128523333D01*
X27926190Y-128904286D01*
X28402381Y-127380476D02*
X28402381Y-127951905D01*
X28402381Y-127666191D02*
X27402381Y-127666191D01*
X27545238Y-127761429D01*
X27640476Y-127856667D01*
X27688095Y-127951905D01*
X27402381Y-127047143D02*
X27402381Y-126380476D01*
X28402381Y-126809048D01*
X82792381Y-135862857D02*
X82316190Y-136196191D01*
X82792381Y-136434286D02*
X81792381Y-136434286D01*
X81792381Y-136053333D01*
X81840000Y-135958095D01*
X81887619Y-135910476D01*
X81982857Y-135862857D01*
X82125714Y-135862857D01*
X82220952Y-135910476D01*
X82268571Y-135958095D01*
X82316190Y-136053333D01*
X82316190Y-136434286D01*
X82792381Y-134910476D02*
X82792381Y-135481905D01*
X82792381Y-135196191D02*
X81792381Y-135196191D01*
X81935238Y-135291429D01*
X82030476Y-135386667D01*
X82078095Y-135481905D01*
X82220952Y-134339048D02*
X82173333Y-134434286D01*
X82125714Y-134481905D01*
X82030476Y-134529524D01*
X81982857Y-134529524D01*
X81887619Y-134481905D01*
X81840000Y-134434286D01*
X81792381Y-134339048D01*
X81792381Y-134148571D01*
X81840000Y-134053333D01*
X81887619Y-134005714D01*
X81982857Y-133958095D01*
X82030476Y-133958095D01*
X82125714Y-134005714D01*
X82173333Y-134053333D01*
X82220952Y-134148571D01*
X82220952Y-134339048D01*
X82268571Y-134434286D01*
X82316190Y-134481905D01*
X82411429Y-134529524D01*
X82601905Y-134529524D01*
X82697143Y-134481905D01*
X82744762Y-134434286D01*
X82792381Y-134339048D01*
X82792381Y-134148571D01*
X82744762Y-134053333D01*
X82697143Y-134005714D01*
X82601905Y-133958095D01*
X82411429Y-133958095D01*
X82316190Y-134005714D01*
X82268571Y-134053333D01*
X82220952Y-134148571D01*
X86032381Y-135862857D02*
X85556190Y-136196191D01*
X86032381Y-136434286D02*
X85032381Y-136434286D01*
X85032381Y-136053333D01*
X85080000Y-135958095D01*
X85127619Y-135910476D01*
X85222857Y-135862857D01*
X85365714Y-135862857D01*
X85460952Y-135910476D01*
X85508571Y-135958095D01*
X85556190Y-136053333D01*
X85556190Y-136434286D01*
X86032381Y-134910476D02*
X86032381Y-135481905D01*
X86032381Y-135196191D02*
X85032381Y-135196191D01*
X85175238Y-135291429D01*
X85270476Y-135386667D01*
X85318095Y-135481905D01*
X86032381Y-134434286D02*
X86032381Y-134243810D01*
X85984762Y-134148571D01*
X85937143Y-134100952D01*
X85794286Y-134005714D01*
X85603810Y-133958095D01*
X85222857Y-133958095D01*
X85127619Y-134005714D01*
X85080000Y-134053333D01*
X85032381Y-134148571D01*
X85032381Y-134339048D01*
X85080000Y-134434286D01*
X85127619Y-134481905D01*
X85222857Y-134529524D01*
X85460952Y-134529524D01*
X85556190Y-134481905D01*
X85603810Y-134434286D01*
X85651429Y-134339048D01*
X85651429Y-134148571D01*
X85603810Y-134053333D01*
X85556190Y-134005714D01*
X85460952Y-133958095D01*
X51506381Y-128404857D02*
X51030190Y-128738191D01*
X51506381Y-128976286D02*
X50506381Y-128976286D01*
X50506381Y-128595333D01*
X50554000Y-128500095D01*
X50601619Y-128452476D01*
X50696857Y-128404857D01*
X50839714Y-128404857D01*
X50934952Y-128452476D01*
X50982571Y-128500095D01*
X51030190Y-128595333D01*
X51030190Y-128976286D01*
X50601619Y-128023905D02*
X50554000Y-127976286D01*
X50506381Y-127881048D01*
X50506381Y-127642952D01*
X50554000Y-127547714D01*
X50601619Y-127500095D01*
X50696857Y-127452476D01*
X50792095Y-127452476D01*
X50934952Y-127500095D01*
X51506381Y-128071524D01*
X51506381Y-127452476D01*
X50506381Y-126833429D02*
X50506381Y-126738190D01*
X50554000Y-126642952D01*
X50601619Y-126595333D01*
X50696857Y-126547714D01*
X50887333Y-126500095D01*
X51125429Y-126500095D01*
X51315905Y-126547714D01*
X51411143Y-126595333D01*
X51458762Y-126642952D01*
X51506381Y-126738190D01*
X51506381Y-126833429D01*
X51458762Y-126928667D01*
X51411143Y-126976286D01*
X51315905Y-127023905D01*
X51125429Y-127071524D01*
X50887333Y-127071524D01*
X50696857Y-127023905D01*
X50601619Y-126976286D01*
X50554000Y-126928667D01*
X50506381Y-126833429D01*
X67000381Y-128150857D02*
X66524190Y-128484191D01*
X67000381Y-128722286D02*
X66000381Y-128722286D01*
X66000381Y-128341333D01*
X66048000Y-128246095D01*
X66095619Y-128198476D01*
X66190857Y-128150857D01*
X66333714Y-128150857D01*
X66428952Y-128198476D01*
X66476571Y-128246095D01*
X66524190Y-128341333D01*
X66524190Y-128722286D01*
X66095619Y-127769905D02*
X66048000Y-127722286D01*
X66000381Y-127627048D01*
X66000381Y-127388952D01*
X66048000Y-127293714D01*
X66095619Y-127246095D01*
X66190857Y-127198476D01*
X66286095Y-127198476D01*
X66428952Y-127246095D01*
X67000381Y-127817524D01*
X67000381Y-127198476D01*
X67000381Y-126246095D02*
X67000381Y-126817524D01*
X67000381Y-126531810D02*
X66000381Y-126531810D01*
X66143238Y-126627048D01*
X66238476Y-126722286D01*
X66286095Y-126817524D01*
X52247143Y-135502381D02*
X51913809Y-135026190D01*
X51675714Y-135502381D02*
X51675714Y-134502381D01*
X52056667Y-134502381D01*
X52151905Y-134550000D01*
X52199524Y-134597619D01*
X52247143Y-134692857D01*
X52247143Y-134835714D01*
X52199524Y-134930952D01*
X52151905Y-134978571D01*
X52056667Y-135026190D01*
X51675714Y-135026190D01*
X52628095Y-134597619D02*
X52675714Y-134550000D01*
X52770952Y-134502381D01*
X53009048Y-134502381D01*
X53104286Y-134550000D01*
X53151905Y-134597619D01*
X53199524Y-134692857D01*
X53199524Y-134788095D01*
X53151905Y-134930952D01*
X52580476Y-135502381D01*
X53199524Y-135502381D01*
X53580476Y-134597619D02*
X53628095Y-134550000D01*
X53723333Y-134502381D01*
X53961429Y-134502381D01*
X54056667Y-134550000D01*
X54104286Y-134597619D01*
X54151905Y-134692857D01*
X54151905Y-134788095D01*
X54104286Y-134930952D01*
X53532857Y-135502381D01*
X54151905Y-135502381D01*
X101262381Y-128772857D02*
X100786190Y-129106191D01*
X101262381Y-129344286D02*
X100262381Y-129344286D01*
X100262381Y-128963333D01*
X100310000Y-128868095D01*
X100357619Y-128820476D01*
X100452857Y-128772857D01*
X100595714Y-128772857D01*
X100690952Y-128820476D01*
X100738571Y-128868095D01*
X100786190Y-128963333D01*
X100786190Y-129344286D01*
X100357619Y-128391905D02*
X100310000Y-128344286D01*
X100262381Y-128249048D01*
X100262381Y-128010952D01*
X100310000Y-127915714D01*
X100357619Y-127868095D01*
X100452857Y-127820476D01*
X100548095Y-127820476D01*
X100690952Y-127868095D01*
X101262381Y-128439524D01*
X101262381Y-127820476D01*
X100262381Y-127487143D02*
X100262381Y-126868095D01*
X100643333Y-127201429D01*
X100643333Y-127058571D01*
X100690952Y-126963333D01*
X100738571Y-126915714D01*
X100833810Y-126868095D01*
X101071905Y-126868095D01*
X101167143Y-126915714D01*
X101214762Y-126963333D01*
X101262381Y-127058571D01*
X101262381Y-127344286D01*
X101214762Y-127439524D01*
X101167143Y-127487143D01*
X57523143Y-115514381D02*
X57189809Y-115038190D01*
X56951714Y-115514381D02*
X56951714Y-114514381D01*
X57332667Y-114514381D01*
X57427905Y-114562000D01*
X57475524Y-114609619D01*
X57523143Y-114704857D01*
X57523143Y-114847714D01*
X57475524Y-114942952D01*
X57427905Y-114990571D01*
X57332667Y-115038190D01*
X56951714Y-115038190D01*
X57904095Y-114609619D02*
X57951714Y-114562000D01*
X58046952Y-114514381D01*
X58285048Y-114514381D01*
X58380286Y-114562000D01*
X58427905Y-114609619D01*
X58475524Y-114704857D01*
X58475524Y-114800095D01*
X58427905Y-114942952D01*
X57856476Y-115514381D01*
X58475524Y-115514381D01*
X59332667Y-114847714D02*
X59332667Y-115514381D01*
X59094571Y-114466762D02*
X58856476Y-115181048D01*
X59475524Y-115181048D01*
X74239381Y-128277857D02*
X73763190Y-128611191D01*
X74239381Y-128849286D02*
X73239381Y-128849286D01*
X73239381Y-128468333D01*
X73287000Y-128373095D01*
X73334619Y-128325476D01*
X73429857Y-128277857D01*
X73572714Y-128277857D01*
X73667952Y-128325476D01*
X73715571Y-128373095D01*
X73763190Y-128468333D01*
X73763190Y-128849286D01*
X73334619Y-127896905D02*
X73287000Y-127849286D01*
X73239381Y-127754048D01*
X73239381Y-127515952D01*
X73287000Y-127420714D01*
X73334619Y-127373095D01*
X73429857Y-127325476D01*
X73525095Y-127325476D01*
X73667952Y-127373095D01*
X74239381Y-127944524D01*
X74239381Y-127325476D01*
X73239381Y-126420714D02*
X73239381Y-126896905D01*
X73715571Y-126944524D01*
X73667952Y-126896905D01*
X73620333Y-126801667D01*
X73620333Y-126563571D01*
X73667952Y-126468333D01*
X73715571Y-126420714D01*
X73810810Y-126373095D01*
X74048905Y-126373095D01*
X74144143Y-126420714D01*
X74191762Y-126468333D01*
X74239381Y-126563571D01*
X74239381Y-126801667D01*
X74191762Y-126896905D01*
X74144143Y-126944524D01*
X77668381Y-128150857D02*
X77192190Y-128484191D01*
X77668381Y-128722286D02*
X76668381Y-128722286D01*
X76668381Y-128341333D01*
X76716000Y-128246095D01*
X76763619Y-128198476D01*
X76858857Y-128150857D01*
X77001714Y-128150857D01*
X77096952Y-128198476D01*
X77144571Y-128246095D01*
X77192190Y-128341333D01*
X77192190Y-128722286D01*
X76763619Y-127769905D02*
X76716000Y-127722286D01*
X76668381Y-127627048D01*
X76668381Y-127388952D01*
X76716000Y-127293714D01*
X76763619Y-127246095D01*
X76858857Y-127198476D01*
X76954095Y-127198476D01*
X77096952Y-127246095D01*
X77668381Y-127817524D01*
X77668381Y-127198476D01*
X76668381Y-126341333D02*
X76668381Y-126531810D01*
X76716000Y-126627048D01*
X76763619Y-126674667D01*
X76906476Y-126769905D01*
X77096952Y-126817524D01*
X77477905Y-126817524D01*
X77573143Y-126769905D01*
X77620762Y-126722286D01*
X77668381Y-126627048D01*
X77668381Y-126436571D01*
X77620762Y-126341333D01*
X77573143Y-126293714D01*
X77477905Y-126246095D01*
X77239810Y-126246095D01*
X77144571Y-126293714D01*
X77096952Y-126341333D01*
X77049333Y-126436571D01*
X77049333Y-126627048D01*
X77096952Y-126722286D01*
X77144571Y-126769905D01*
X77239810Y-126817524D01*
X70683381Y-128150857D02*
X70207190Y-128484191D01*
X70683381Y-128722286D02*
X69683381Y-128722286D01*
X69683381Y-128341333D01*
X69731000Y-128246095D01*
X69778619Y-128198476D01*
X69873857Y-128150857D01*
X70016714Y-128150857D01*
X70111952Y-128198476D01*
X70159571Y-128246095D01*
X70207190Y-128341333D01*
X70207190Y-128722286D01*
X69778619Y-127769905D02*
X69731000Y-127722286D01*
X69683381Y-127627048D01*
X69683381Y-127388952D01*
X69731000Y-127293714D01*
X69778619Y-127246095D01*
X69873857Y-127198476D01*
X69969095Y-127198476D01*
X70111952Y-127246095D01*
X70683381Y-127817524D01*
X70683381Y-127198476D01*
X69683381Y-126865143D02*
X69683381Y-126198476D01*
X70683381Y-126627048D01*
X89535095Y-116121381D02*
X89535095Y-116930905D01*
X89582714Y-117026143D01*
X89630333Y-117073762D01*
X89725571Y-117121381D01*
X89916048Y-117121381D01*
X90011286Y-117073762D01*
X90058905Y-117026143D01*
X90106524Y-116930905D01*
X90106524Y-116121381D01*
X90535095Y-116216619D02*
X90582714Y-116169000D01*
X90677952Y-116121381D01*
X90916048Y-116121381D01*
X91011286Y-116169000D01*
X91058905Y-116216619D01*
X91106524Y-116311857D01*
X91106524Y-116407095D01*
X91058905Y-116549952D01*
X90487476Y-117121381D01*
X91106524Y-117121381D01*
X63758381Y-128523905D02*
X64567905Y-128523905D01*
X64663143Y-128476286D01*
X64710762Y-128428667D01*
X64758381Y-128333429D01*
X64758381Y-128142952D01*
X64710762Y-128047714D01*
X64663143Y-128000095D01*
X64567905Y-127952476D01*
X63758381Y-127952476D01*
X63758381Y-127571524D02*
X63758381Y-126952476D01*
X64139333Y-127285810D01*
X64139333Y-127142952D01*
X64186952Y-127047714D01*
X64234571Y-127000095D01*
X64329810Y-126952476D01*
X64567905Y-126952476D01*
X64663143Y-127000095D01*
X64710762Y-127047714D01*
X64758381Y-127142952D01*
X64758381Y-127428667D01*
X64710762Y-127523905D01*
X64663143Y-127571524D01*
X75803334Y-118907143D02*
X75755715Y-118954762D01*
X75612858Y-119002381D01*
X75517620Y-119002381D01*
X75374762Y-118954762D01*
X75279524Y-118859524D01*
X75231905Y-118764286D01*
X75184286Y-118573810D01*
X75184286Y-118430952D01*
X75231905Y-118240476D01*
X75279524Y-118145238D01*
X75374762Y-118050000D01*
X75517620Y-118002381D01*
X75612858Y-118002381D01*
X75755715Y-118050000D01*
X75803334Y-118097619D01*
X76374762Y-118430952D02*
X76279524Y-118383333D01*
X76231905Y-118335714D01*
X76184286Y-118240476D01*
X76184286Y-118192857D01*
X76231905Y-118097619D01*
X76279524Y-118050000D01*
X76374762Y-118002381D01*
X76565239Y-118002381D01*
X76660477Y-118050000D01*
X76708096Y-118097619D01*
X76755715Y-118192857D01*
X76755715Y-118240476D01*
X76708096Y-118335714D01*
X76660477Y-118383333D01*
X76565239Y-118430952D01*
X76374762Y-118430952D01*
X76279524Y-118478571D01*
X76231905Y-118526190D01*
X76184286Y-118621429D01*
X76184286Y-118811905D01*
X76231905Y-118907143D01*
X76279524Y-118954762D01*
X76374762Y-119002381D01*
X76565239Y-119002381D01*
X76660477Y-118954762D01*
X76708096Y-118907143D01*
X76755715Y-118811905D01*
X76755715Y-118621429D01*
X76708096Y-118526190D01*
X76660477Y-118478571D01*
X76565239Y-118430952D01*
X81419334Y-111764143D02*
X81371715Y-111811762D01*
X81228858Y-111859381D01*
X81133620Y-111859381D01*
X80990762Y-111811762D01*
X80895524Y-111716524D01*
X80847905Y-111621286D01*
X80800286Y-111430810D01*
X80800286Y-111287952D01*
X80847905Y-111097476D01*
X80895524Y-111002238D01*
X80990762Y-110907000D01*
X81133620Y-110859381D01*
X81228858Y-110859381D01*
X81371715Y-110907000D01*
X81419334Y-110954619D01*
X81895524Y-111859381D02*
X82086000Y-111859381D01*
X82181239Y-111811762D01*
X82228858Y-111764143D01*
X82324096Y-111621286D01*
X82371715Y-111430810D01*
X82371715Y-111049857D01*
X82324096Y-110954619D01*
X82276477Y-110907000D01*
X82181239Y-110859381D01*
X81990762Y-110859381D01*
X81895524Y-110907000D01*
X81847905Y-110954619D01*
X81800286Y-111049857D01*
X81800286Y-111287952D01*
X81847905Y-111383190D01*
X81895524Y-111430810D01*
X81990762Y-111478429D01*
X82181239Y-111478429D01*
X82276477Y-111430810D01*
X82324096Y-111383190D01*
X82371715Y-111287952D01*
X89467143Y-114672381D02*
X89133809Y-114196190D01*
X88895714Y-114672381D02*
X88895714Y-113672381D01*
X89276667Y-113672381D01*
X89371905Y-113720000D01*
X89419524Y-113767619D01*
X89467143Y-113862857D01*
X89467143Y-114005714D01*
X89419524Y-114100952D01*
X89371905Y-114148571D01*
X89276667Y-114196190D01*
X88895714Y-114196190D01*
X89848095Y-113767619D02*
X89895714Y-113720000D01*
X89990952Y-113672381D01*
X90229048Y-113672381D01*
X90324286Y-113720000D01*
X90371905Y-113767619D01*
X90419524Y-113862857D01*
X90419524Y-113958095D01*
X90371905Y-114100952D01*
X89800476Y-114672381D01*
X90419524Y-114672381D01*
X90990952Y-114100952D02*
X90895714Y-114053333D01*
X90848095Y-114005714D01*
X90800476Y-113910476D01*
X90800476Y-113862857D01*
X90848095Y-113767619D01*
X90895714Y-113720000D01*
X90990952Y-113672381D01*
X91181429Y-113672381D01*
X91276667Y-113720000D01*
X91324286Y-113767619D01*
X91371905Y-113862857D01*
X91371905Y-113910476D01*
X91324286Y-114005714D01*
X91276667Y-114053333D01*
X91181429Y-114100952D01*
X90990952Y-114100952D01*
X90895714Y-114148571D01*
X90848095Y-114196190D01*
X90800476Y-114291429D01*
X90800476Y-114481905D01*
X90848095Y-114577143D01*
X90895714Y-114624762D01*
X90990952Y-114672381D01*
X91181429Y-114672381D01*
X91276667Y-114624762D01*
X91324286Y-114577143D01*
X91371905Y-114481905D01*
X91371905Y-114291429D01*
X91324286Y-114196190D01*
X91276667Y-114148571D01*
X91181429Y-114100952D01*
X67000381Y-118244857D02*
X66524190Y-118578191D01*
X67000381Y-118816286D02*
X66000381Y-118816286D01*
X66000381Y-118435333D01*
X66048000Y-118340095D01*
X66095619Y-118292476D01*
X66190857Y-118244857D01*
X66333714Y-118244857D01*
X66428952Y-118292476D01*
X66476571Y-118340095D01*
X66524190Y-118435333D01*
X66524190Y-118816286D01*
X66095619Y-117863905D02*
X66048000Y-117816286D01*
X66000381Y-117721048D01*
X66000381Y-117482952D01*
X66048000Y-117387714D01*
X66095619Y-117340095D01*
X66190857Y-117292476D01*
X66286095Y-117292476D01*
X66428952Y-117340095D01*
X67000381Y-117911524D01*
X67000381Y-117292476D01*
X67000381Y-116816286D02*
X67000381Y-116625810D01*
X66952762Y-116530571D01*
X66905143Y-116482952D01*
X66762286Y-116387714D01*
X66571810Y-116340095D01*
X66190857Y-116340095D01*
X66095619Y-116387714D01*
X66048000Y-116435333D01*
X66000381Y-116530571D01*
X66000381Y-116721048D01*
X66048000Y-116816286D01*
X66095619Y-116863905D01*
X66190857Y-116911524D01*
X66428952Y-116911524D01*
X66524190Y-116863905D01*
X66571810Y-116816286D01*
X66619429Y-116721048D01*
X66619429Y-116530571D01*
X66571810Y-116435333D01*
X66524190Y-116387714D01*
X66428952Y-116340095D01*
X30497143Y-118252381D02*
X30163809Y-117776190D01*
X29925714Y-118252381D02*
X29925714Y-117252381D01*
X30306667Y-117252381D01*
X30401905Y-117300000D01*
X30449524Y-117347619D01*
X30497143Y-117442857D01*
X30497143Y-117585714D01*
X30449524Y-117680952D01*
X30401905Y-117728571D01*
X30306667Y-117776190D01*
X29925714Y-117776190D01*
X30830476Y-117252381D02*
X31449524Y-117252381D01*
X31116190Y-117633333D01*
X31259048Y-117633333D01*
X31354286Y-117680952D01*
X31401905Y-117728571D01*
X31449524Y-117823810D01*
X31449524Y-118061905D01*
X31401905Y-118157143D01*
X31354286Y-118204762D01*
X31259048Y-118252381D01*
X30973333Y-118252381D01*
X30878095Y-118204762D01*
X30830476Y-118157143D01*
X32068571Y-117252381D02*
X32163810Y-117252381D01*
X32259048Y-117300000D01*
X32306667Y-117347619D01*
X32354286Y-117442857D01*
X32401905Y-117633333D01*
X32401905Y-117871429D01*
X32354286Y-118061905D01*
X32306667Y-118157143D01*
X32259048Y-118204762D01*
X32163810Y-118252381D01*
X32068571Y-118252381D01*
X31973333Y-118204762D01*
X31925714Y-118157143D01*
X31878095Y-118061905D01*
X31830476Y-117871429D01*
X31830476Y-117633333D01*
X31878095Y-117442857D01*
X31925714Y-117347619D01*
X31973333Y-117300000D01*
X32068571Y-117252381D01*
X70008762Y-47537619D02*
X69913524Y-47490000D01*
X69818286Y-47394762D01*
X69675429Y-47251905D01*
X69580190Y-47204286D01*
X69484952Y-47204286D01*
X69532571Y-47442381D02*
X69437333Y-47394762D01*
X69342095Y-47299524D01*
X69294476Y-47109048D01*
X69294476Y-46775714D01*
X69342095Y-46585238D01*
X69437333Y-46490000D01*
X69532571Y-46442381D01*
X69723048Y-46442381D01*
X69818286Y-46490000D01*
X69913524Y-46585238D01*
X69961143Y-46775714D01*
X69961143Y-47109048D01*
X69913524Y-47299524D01*
X69818286Y-47394762D01*
X69723048Y-47442381D01*
X69532571Y-47442381D01*
X70294476Y-46442381D02*
X70913524Y-46442381D01*
X70580190Y-46823333D01*
X70723048Y-46823333D01*
X70818286Y-46870952D01*
X70865905Y-46918571D01*
X70913524Y-47013810D01*
X70913524Y-47251905D01*
X70865905Y-47347143D01*
X70818286Y-47394762D01*
X70723048Y-47442381D01*
X70437333Y-47442381D01*
X70342095Y-47394762D01*
X70294476Y-47347143D01*
X60571143Y-44140381D02*
X60237809Y-43664190D01*
X59999714Y-44140381D02*
X59999714Y-43140381D01*
X60380667Y-43140381D01*
X60475905Y-43188000D01*
X60523524Y-43235619D01*
X60571143Y-43330857D01*
X60571143Y-43473714D01*
X60523524Y-43568952D01*
X60475905Y-43616571D01*
X60380667Y-43664190D01*
X59999714Y-43664190D01*
X60904476Y-43140381D02*
X61523524Y-43140381D01*
X61190190Y-43521333D01*
X61333048Y-43521333D01*
X61428286Y-43568952D01*
X61475905Y-43616571D01*
X61523524Y-43711810D01*
X61523524Y-43949905D01*
X61475905Y-44045143D01*
X61428286Y-44092762D01*
X61333048Y-44140381D01*
X61047333Y-44140381D01*
X60952095Y-44092762D01*
X60904476Y-44045143D01*
X62475905Y-44140381D02*
X61904476Y-44140381D01*
X62190190Y-44140381D02*
X62190190Y-43140381D01*
X62094952Y-43283238D01*
X61999714Y-43378476D01*
X61904476Y-43426095D01*
X119832381Y-78112857D02*
X119356190Y-78446191D01*
X119832381Y-78684286D02*
X118832381Y-78684286D01*
X118832381Y-78303333D01*
X118880000Y-78208095D01*
X118927619Y-78160476D01*
X119022857Y-78112857D01*
X119165714Y-78112857D01*
X119260952Y-78160476D01*
X119308571Y-78208095D01*
X119356190Y-78303333D01*
X119356190Y-78684286D01*
X118832381Y-77779524D02*
X118832381Y-77160476D01*
X119213333Y-77493810D01*
X119213333Y-77350952D01*
X119260952Y-77255714D01*
X119308571Y-77208095D01*
X119403810Y-77160476D01*
X119641905Y-77160476D01*
X119737143Y-77208095D01*
X119784762Y-77255714D01*
X119832381Y-77350952D01*
X119832381Y-77636667D01*
X119784762Y-77731905D01*
X119737143Y-77779524D01*
X118927619Y-76779524D02*
X118880000Y-76731905D01*
X118832381Y-76636667D01*
X118832381Y-76398571D01*
X118880000Y-76303333D01*
X118927619Y-76255714D01*
X119022857Y-76208095D01*
X119118095Y-76208095D01*
X119260952Y-76255714D01*
X119832381Y-76827143D01*
X119832381Y-76208095D01*
X123642381Y-78112857D02*
X123166190Y-78446191D01*
X123642381Y-78684286D02*
X122642381Y-78684286D01*
X122642381Y-78303333D01*
X122690000Y-78208095D01*
X122737619Y-78160476D01*
X122832857Y-78112857D01*
X122975714Y-78112857D01*
X123070952Y-78160476D01*
X123118571Y-78208095D01*
X123166190Y-78303333D01*
X123166190Y-78684286D01*
X122642381Y-77779524D02*
X122642381Y-77160476D01*
X123023333Y-77493810D01*
X123023333Y-77350952D01*
X123070952Y-77255714D01*
X123118571Y-77208095D01*
X123213810Y-77160476D01*
X123451905Y-77160476D01*
X123547143Y-77208095D01*
X123594762Y-77255714D01*
X123642381Y-77350952D01*
X123642381Y-77636667D01*
X123594762Y-77731905D01*
X123547143Y-77779524D01*
X122642381Y-76827143D02*
X122642381Y-76208095D01*
X123023333Y-76541429D01*
X123023333Y-76398571D01*
X123070952Y-76303333D01*
X123118571Y-76255714D01*
X123213810Y-76208095D01*
X123451905Y-76208095D01*
X123547143Y-76255714D01*
X123594762Y-76303333D01*
X123642381Y-76398571D01*
X123642381Y-76684286D01*
X123594762Y-76779524D01*
X123547143Y-76827143D01*
X78351143Y-44140381D02*
X78017809Y-43664190D01*
X77779714Y-44140381D02*
X77779714Y-43140381D01*
X78160667Y-43140381D01*
X78255905Y-43188000D01*
X78303524Y-43235619D01*
X78351143Y-43330857D01*
X78351143Y-43473714D01*
X78303524Y-43568952D01*
X78255905Y-43616571D01*
X78160667Y-43664190D01*
X77779714Y-43664190D01*
X78684476Y-43140381D02*
X79303524Y-43140381D01*
X78970190Y-43521333D01*
X79113048Y-43521333D01*
X79208286Y-43568952D01*
X79255905Y-43616571D01*
X79303524Y-43711810D01*
X79303524Y-43949905D01*
X79255905Y-44045143D01*
X79208286Y-44092762D01*
X79113048Y-44140381D01*
X78827333Y-44140381D01*
X78732095Y-44092762D01*
X78684476Y-44045143D01*
X80160667Y-43473714D02*
X80160667Y-44140381D01*
X79922571Y-43092762D02*
X79684476Y-43807048D01*
X80303524Y-43807048D01*
X119991143Y-130436857D02*
X120038762Y-130484476D01*
X120086381Y-130627333D01*
X120086381Y-130722571D01*
X120038762Y-130865429D01*
X119943524Y-130960667D01*
X119848286Y-131008286D01*
X119657810Y-131055905D01*
X119514952Y-131055905D01*
X119324476Y-131008286D01*
X119229238Y-130960667D01*
X119134000Y-130865429D01*
X119086381Y-130722571D01*
X119086381Y-130627333D01*
X119134000Y-130484476D01*
X119181619Y-130436857D01*
X120086381Y-129484476D02*
X120086381Y-130055905D01*
X120086381Y-129770191D02*
X119086381Y-129770191D01*
X119229238Y-129865429D01*
X119324476Y-129960667D01*
X119372095Y-130055905D01*
X119086381Y-128865429D02*
X119086381Y-128770190D01*
X119134000Y-128674952D01*
X119181619Y-128627333D01*
X119276857Y-128579714D01*
X119467333Y-128532095D01*
X119705429Y-128532095D01*
X119895905Y-128579714D01*
X119991143Y-128627333D01*
X120038762Y-128674952D01*
X120086381Y-128770190D01*
X120086381Y-128865429D01*
X120038762Y-128960667D01*
X119991143Y-129008286D01*
X119895905Y-129055905D01*
X119705429Y-129103524D01*
X119467333Y-129103524D01*
X119276857Y-129055905D01*
X119181619Y-129008286D01*
X119134000Y-128960667D01*
X119086381Y-128865429D01*
X110607143Y-103692857D02*
X110654762Y-103740476D01*
X110702381Y-103883333D01*
X110702381Y-103978571D01*
X110654762Y-104121429D01*
X110559524Y-104216667D01*
X110464286Y-104264286D01*
X110273810Y-104311905D01*
X110130952Y-104311905D01*
X109940476Y-104264286D01*
X109845238Y-104216667D01*
X109750000Y-104121429D01*
X109702381Y-103978571D01*
X109702381Y-103883333D01*
X109750000Y-103740476D01*
X109797619Y-103692857D01*
X110702381Y-102740476D02*
X110702381Y-103311905D01*
X110702381Y-103026191D02*
X109702381Y-103026191D01*
X109845238Y-103121429D01*
X109940476Y-103216667D01*
X109988095Y-103311905D01*
X110702381Y-101788095D02*
X110702381Y-102359524D01*
X110702381Y-102073810D02*
X109702381Y-102073810D01*
X109845238Y-102169048D01*
X109940476Y-102264286D01*
X109988095Y-102359524D01*
X105295143Y-118721143D02*
X105247524Y-118768762D01*
X105104667Y-118816381D01*
X105009429Y-118816381D01*
X104866571Y-118768762D01*
X104771333Y-118673524D01*
X104723714Y-118578286D01*
X104676095Y-118387810D01*
X104676095Y-118244952D01*
X104723714Y-118054476D01*
X104771333Y-117959238D01*
X104866571Y-117864000D01*
X105009429Y-117816381D01*
X105104667Y-117816381D01*
X105247524Y-117864000D01*
X105295143Y-117911619D01*
X106247524Y-118816381D02*
X105676095Y-118816381D01*
X105961809Y-118816381D02*
X105961809Y-117816381D01*
X105866571Y-117959238D01*
X105771333Y-118054476D01*
X105676095Y-118102095D01*
X106628476Y-117911619D02*
X106676095Y-117864000D01*
X106771333Y-117816381D01*
X107009429Y-117816381D01*
X107104667Y-117864000D01*
X107152286Y-117911619D01*
X107199905Y-118006857D01*
X107199905Y-118102095D01*
X107152286Y-118244952D01*
X106580857Y-118816381D01*
X107199905Y-118816381D01*
X110457143Y-139482381D02*
X110123809Y-139006190D01*
X109885714Y-139482381D02*
X109885714Y-138482381D01*
X110266667Y-138482381D01*
X110361905Y-138530000D01*
X110409524Y-138577619D01*
X110457143Y-138672857D01*
X110457143Y-138815714D01*
X110409524Y-138910952D01*
X110361905Y-138958571D01*
X110266667Y-139006190D01*
X109885714Y-139006190D01*
X110790476Y-138482381D02*
X111409524Y-138482381D01*
X111076190Y-138863333D01*
X111219048Y-138863333D01*
X111314286Y-138910952D01*
X111361905Y-138958571D01*
X111409524Y-139053810D01*
X111409524Y-139291905D01*
X111361905Y-139387143D01*
X111314286Y-139434762D01*
X111219048Y-139482381D01*
X110933333Y-139482381D01*
X110838095Y-139434762D01*
X110790476Y-139387143D01*
X112314286Y-138482381D02*
X111838095Y-138482381D01*
X111790476Y-138958571D01*
X111838095Y-138910952D01*
X111933333Y-138863333D01*
X112171429Y-138863333D01*
X112266667Y-138910952D01*
X112314286Y-138958571D01*
X112361905Y-139053810D01*
X112361905Y-139291905D01*
X112314286Y-139387143D01*
X112266667Y-139434762D01*
X112171429Y-139482381D01*
X111933333Y-139482381D01*
X111838095Y-139434762D01*
X111790476Y-139387143D01*
X124562381Y-123032857D02*
X124086190Y-123366191D01*
X124562381Y-123604286D02*
X123562381Y-123604286D01*
X123562381Y-123223333D01*
X123610000Y-123128095D01*
X123657619Y-123080476D01*
X123752857Y-123032857D01*
X123895714Y-123032857D01*
X123990952Y-123080476D01*
X124038571Y-123128095D01*
X124086190Y-123223333D01*
X124086190Y-123604286D01*
X123562381Y-122699524D02*
X123562381Y-122080476D01*
X123943333Y-122413810D01*
X123943333Y-122270952D01*
X123990952Y-122175714D01*
X124038571Y-122128095D01*
X124133810Y-122080476D01*
X124371905Y-122080476D01*
X124467143Y-122128095D01*
X124514762Y-122175714D01*
X124562381Y-122270952D01*
X124562381Y-122556667D01*
X124514762Y-122651905D01*
X124467143Y-122699524D01*
X123562381Y-121223333D02*
X123562381Y-121413810D01*
X123610000Y-121509048D01*
X123657619Y-121556667D01*
X123800476Y-121651905D01*
X123990952Y-121699524D01*
X124371905Y-121699524D01*
X124467143Y-121651905D01*
X124514762Y-121604286D01*
X124562381Y-121509048D01*
X124562381Y-121318571D01*
X124514762Y-121223333D01*
X124467143Y-121175714D01*
X124371905Y-121128095D01*
X124133810Y-121128095D01*
X124038571Y-121175714D01*
X123990952Y-121223333D01*
X123943333Y-121318571D01*
X123943333Y-121509048D01*
X123990952Y-121604286D01*
X124038571Y-121651905D01*
X124133810Y-121699524D01*
X111958381Y-112910857D02*
X111482190Y-113244191D01*
X111958381Y-113482286D02*
X110958381Y-113482286D01*
X110958381Y-113101333D01*
X111006000Y-113006095D01*
X111053619Y-112958476D01*
X111148857Y-112910857D01*
X111291714Y-112910857D01*
X111386952Y-112958476D01*
X111434571Y-113006095D01*
X111482190Y-113101333D01*
X111482190Y-113482286D01*
X110958381Y-112577524D02*
X110958381Y-111958476D01*
X111339333Y-112291810D01*
X111339333Y-112148952D01*
X111386952Y-112053714D01*
X111434571Y-112006095D01*
X111529810Y-111958476D01*
X111767905Y-111958476D01*
X111863143Y-112006095D01*
X111910762Y-112053714D01*
X111958381Y-112148952D01*
X111958381Y-112434667D01*
X111910762Y-112529905D01*
X111863143Y-112577524D01*
X110958381Y-111625143D02*
X110958381Y-110958476D01*
X111958381Y-111387048D01*
X120822381Y-122972857D02*
X120346190Y-123306191D01*
X120822381Y-123544286D02*
X119822381Y-123544286D01*
X119822381Y-123163333D01*
X119870000Y-123068095D01*
X119917619Y-123020476D01*
X120012857Y-122972857D01*
X120155714Y-122972857D01*
X120250952Y-123020476D01*
X120298571Y-123068095D01*
X120346190Y-123163333D01*
X120346190Y-123544286D01*
X119822381Y-122639524D02*
X119822381Y-122020476D01*
X120203333Y-122353810D01*
X120203333Y-122210952D01*
X120250952Y-122115714D01*
X120298571Y-122068095D01*
X120393810Y-122020476D01*
X120631905Y-122020476D01*
X120727143Y-122068095D01*
X120774762Y-122115714D01*
X120822381Y-122210952D01*
X120822381Y-122496667D01*
X120774762Y-122591905D01*
X120727143Y-122639524D01*
X120250952Y-121449048D02*
X120203333Y-121544286D01*
X120155714Y-121591905D01*
X120060476Y-121639524D01*
X120012857Y-121639524D01*
X119917619Y-121591905D01*
X119870000Y-121544286D01*
X119822381Y-121449048D01*
X119822381Y-121258571D01*
X119870000Y-121163333D01*
X119917619Y-121115714D01*
X120012857Y-121068095D01*
X120060476Y-121068095D01*
X120155714Y-121115714D01*
X120203333Y-121163333D01*
X120250952Y-121258571D01*
X120250952Y-121449048D01*
X120298571Y-121544286D01*
X120346190Y-121591905D01*
X120441429Y-121639524D01*
X120631905Y-121639524D01*
X120727143Y-121591905D01*
X120774762Y-121544286D01*
X120822381Y-121449048D01*
X120822381Y-121258571D01*
X120774762Y-121163333D01*
X120727143Y-121115714D01*
X120631905Y-121068095D01*
X120441429Y-121068095D01*
X120346190Y-121115714D01*
X120298571Y-121163333D01*
X120250952Y-121258571D01*
X119167143Y-97452381D02*
X118833809Y-96976190D01*
X118595714Y-97452381D02*
X118595714Y-96452381D01*
X118976667Y-96452381D01*
X119071905Y-96500000D01*
X119119524Y-96547619D01*
X119167143Y-96642857D01*
X119167143Y-96785714D01*
X119119524Y-96880952D01*
X119071905Y-96928571D01*
X118976667Y-96976190D01*
X118595714Y-96976190D01*
X119500476Y-96452381D02*
X120119524Y-96452381D01*
X119786190Y-96833333D01*
X119929048Y-96833333D01*
X120024286Y-96880952D01*
X120071905Y-96928571D01*
X120119524Y-97023810D01*
X120119524Y-97261905D01*
X120071905Y-97357143D01*
X120024286Y-97404762D01*
X119929048Y-97452381D01*
X119643333Y-97452381D01*
X119548095Y-97404762D01*
X119500476Y-97357143D01*
X120595714Y-97452381D02*
X120786190Y-97452381D01*
X120881429Y-97404762D01*
X120929048Y-97357143D01*
X121024286Y-97214286D01*
X121071905Y-97023810D01*
X121071905Y-96642857D01*
X121024286Y-96547619D01*
X120976667Y-96500000D01*
X120881429Y-96452381D01*
X120690952Y-96452381D01*
X120595714Y-96500000D01*
X120548095Y-96547619D01*
X120500476Y-96642857D01*
X120500476Y-96880952D01*
X120548095Y-96976190D01*
X120595714Y-97023810D01*
X120690952Y-97071429D01*
X120881429Y-97071429D01*
X120976667Y-97023810D01*
X121024286Y-96976190D01*
X121071905Y-96880952D01*
X119167143Y-94052381D02*
X118833809Y-93576190D01*
X118595714Y-94052381D02*
X118595714Y-93052381D01*
X118976667Y-93052381D01*
X119071905Y-93100000D01*
X119119524Y-93147619D01*
X119167143Y-93242857D01*
X119167143Y-93385714D01*
X119119524Y-93480952D01*
X119071905Y-93528571D01*
X118976667Y-93576190D01*
X118595714Y-93576190D01*
X120024286Y-93385714D02*
X120024286Y-94052381D01*
X119786190Y-93004762D02*
X119548095Y-93719048D01*
X120167143Y-93719048D01*
X120738571Y-93052381D02*
X120833810Y-93052381D01*
X120929048Y-93100000D01*
X120976667Y-93147619D01*
X121024286Y-93242857D01*
X121071905Y-93433333D01*
X121071905Y-93671429D01*
X121024286Y-93861905D01*
X120976667Y-93957143D01*
X120929048Y-94004762D01*
X120833810Y-94052381D01*
X120738571Y-94052381D01*
X120643333Y-94004762D01*
X120595714Y-93957143D01*
X120548095Y-93861905D01*
X120500476Y-93671429D01*
X120500476Y-93433333D01*
X120548095Y-93242857D01*
X120595714Y-93147619D01*
X120643333Y-93100000D01*
X120738571Y-93052381D01*
X101798381Y-117228857D02*
X101322190Y-117562191D01*
X101798381Y-117800286D02*
X100798381Y-117800286D01*
X100798381Y-117419333D01*
X100846000Y-117324095D01*
X100893619Y-117276476D01*
X100988857Y-117228857D01*
X101131714Y-117228857D01*
X101226952Y-117276476D01*
X101274571Y-117324095D01*
X101322190Y-117419333D01*
X101322190Y-117800286D01*
X101131714Y-116371714D02*
X101798381Y-116371714D01*
X100750762Y-116609810D02*
X101465048Y-116847905D01*
X101465048Y-116228857D01*
X100798381Y-115943143D02*
X100798381Y-115324095D01*
X101179333Y-115657429D01*
X101179333Y-115514571D01*
X101226952Y-115419333D01*
X101274571Y-115371714D01*
X101369810Y-115324095D01*
X101607905Y-115324095D01*
X101703143Y-115371714D01*
X101750762Y-115419333D01*
X101798381Y-115514571D01*
X101798381Y-115800286D01*
X101750762Y-115895524D01*
X101703143Y-115943143D01*
X125652381Y-102775238D02*
X125176190Y-103108572D01*
X125652381Y-103346667D02*
X124652381Y-103346667D01*
X124652381Y-102965714D01*
X124700000Y-102870476D01*
X124747619Y-102822857D01*
X124842857Y-102775238D01*
X124985714Y-102775238D01*
X125080952Y-102822857D01*
X125128571Y-102870476D01*
X125176190Y-102965714D01*
X125176190Y-103346667D01*
X124652381Y-102489524D02*
X125652381Y-102156191D01*
X124652381Y-101822857D01*
X124652381Y-101584762D02*
X124652381Y-100965714D01*
X125033333Y-101299048D01*
X125033333Y-101156190D01*
X125080952Y-101060952D01*
X125128571Y-101013333D01*
X125223810Y-100965714D01*
X125461905Y-100965714D01*
X125557143Y-101013333D01*
X125604762Y-101060952D01*
X125652381Y-101156190D01*
X125652381Y-101441905D01*
X125604762Y-101537143D01*
X125557143Y-101584762D01*
X113122381Y-111951905D02*
X113931905Y-111951905D01*
X114027143Y-111904286D01*
X114074762Y-111856667D01*
X114122381Y-111761429D01*
X114122381Y-111570952D01*
X114074762Y-111475714D01*
X114027143Y-111428095D01*
X113931905Y-111380476D01*
X113122381Y-111380476D01*
X113455714Y-110475714D02*
X114122381Y-110475714D01*
X113074762Y-110713810D02*
X113789048Y-110951905D01*
X113789048Y-110332857D01*
X52247143Y-138802381D02*
X51913809Y-138326190D01*
X51675714Y-138802381D02*
X51675714Y-137802381D01*
X52056667Y-137802381D01*
X52151905Y-137850000D01*
X52199524Y-137897619D01*
X52247143Y-137992857D01*
X52247143Y-138135714D01*
X52199524Y-138230952D01*
X52151905Y-138278571D01*
X52056667Y-138326190D01*
X51675714Y-138326190D01*
X53104286Y-138135714D02*
X53104286Y-138802381D01*
X52866190Y-137754762D02*
X52628095Y-138469048D01*
X53247143Y-138469048D01*
X54151905Y-138802381D02*
X53580476Y-138802381D01*
X53866190Y-138802381D02*
X53866190Y-137802381D01*
X53770952Y-137945238D01*
X53675714Y-138040476D01*
X53580476Y-138088095D01*
X112997143Y-119497382D02*
X112663809Y-119021191D01*
X112425714Y-119497382D02*
X112425714Y-118497382D01*
X112806667Y-118497382D01*
X112901905Y-118545001D01*
X112949524Y-118592620D01*
X112997143Y-118687858D01*
X112997143Y-118830715D01*
X112949524Y-118925953D01*
X112901905Y-118973572D01*
X112806667Y-119021191D01*
X112425714Y-119021191D01*
X113854286Y-118830715D02*
X113854286Y-119497382D01*
X113616190Y-118449763D02*
X113378095Y-119164049D01*
X113997143Y-119164049D01*
X114330476Y-118592620D02*
X114378095Y-118545001D01*
X114473333Y-118497382D01*
X114711429Y-118497382D01*
X114806667Y-118545001D01*
X114854286Y-118592620D01*
X114901905Y-118687858D01*
X114901905Y-118783096D01*
X114854286Y-118925953D01*
X114282857Y-119497382D01*
X114901905Y-119497382D01*
M02*
