G04 #@! TF.FileFunction,Soldermask,Top*
%FSLAX46Y46*%
G04 Gerber Fmt 4.6, Leading zero omitted, Abs format (unit mm)*
G04 Created by KiCad (PCBNEW 4.0.7) date 09/25/21 21:54:00*
%MOMM*%
%LPD*%
G01*
G04 APERTURE LIST*
%ADD10C,0.100000*%
%ADD11C,1.840000*%
%ADD12C,2.000000*%
%ADD13O,2.000000X2.000000*%
%ADD14R,2.200000X2.200000*%
%ADD15C,2.200000*%
%ADD16R,2.000000X2.000000*%
%ADD17R,2.100000X2.100000*%
%ADD18O,2.100000X2.100000*%
%ADD19C,2.400000*%
%ADD20C,3.448000*%
%ADD21C,1.920000*%
%ADD22R,1.920000X1.920000*%
%ADD23R,3.400000X3.400000*%
%ADD24C,3.400000*%
%ADD25R,1.924000X1.924000*%
%ADD26C,1.924000*%
G04 APERTURE END LIST*
D10*
D11*
X87630000Y-127000000D03*
X87630000Y-124460000D03*
X87630000Y-121920000D03*
X70770000Y-119000000D03*
X68230000Y-119000000D03*
X65690000Y-119000000D03*
D12*
X45720000Y-104140000D03*
D13*
X38100000Y-104140000D03*
D12*
X45570000Y-71550000D03*
X45570000Y-69050000D03*
D14*
X29210000Y-53340000D03*
D15*
X31750000Y-53340000D03*
D14*
X29210000Y-62230000D03*
D15*
X31750000Y-62230000D03*
D14*
X29210000Y-71120000D03*
D15*
X31750000Y-71120000D03*
D14*
X29210000Y-80010000D03*
D15*
X31750000Y-80010000D03*
D14*
X29210000Y-88900000D03*
D15*
X31750000Y-88900000D03*
D14*
X29210000Y-97790000D03*
D15*
X31750000Y-97790000D03*
D14*
X29210000Y-106680000D03*
D15*
X31750000Y-106680000D03*
D14*
X29210000Y-115570000D03*
D15*
X31750000Y-115570000D03*
D16*
X113030000Y-77470000D03*
D13*
X113030000Y-85090000D03*
D16*
X113030000Y-90170000D03*
D13*
X113030000Y-97790000D03*
D16*
X113030000Y-102870000D03*
D13*
X113030000Y-110490000D03*
D16*
X113030000Y-64770000D03*
D13*
X113030000Y-72390000D03*
D17*
X69850000Y-43815000D03*
D18*
X72390000Y-43815000D03*
X74930000Y-43815000D03*
X77470000Y-43815000D03*
D17*
X64770000Y-54610000D03*
D18*
X64770000Y-52070000D03*
X67310000Y-54610000D03*
X67310000Y-52070000D03*
X69850000Y-54610000D03*
X69850000Y-52070000D03*
X72390000Y-54610000D03*
X72390000Y-52070000D03*
X74930000Y-54610000D03*
X74930000Y-52070000D03*
X77470000Y-54610000D03*
X77470000Y-52070000D03*
X80010000Y-54610000D03*
X80010000Y-52070000D03*
X82550000Y-54610000D03*
X82550000Y-52070000D03*
X85090000Y-54610000D03*
X85090000Y-52070000D03*
X87630000Y-54610000D03*
X87630000Y-52070000D03*
X90170000Y-54610000D03*
X90170000Y-52070000D03*
X92710000Y-54610000D03*
X92710000Y-52070000D03*
X95250000Y-54610000D03*
X95250000Y-52070000D03*
X97790000Y-54610000D03*
X97790000Y-52070000D03*
X100330000Y-54610000D03*
X100330000Y-52070000D03*
X102870000Y-54610000D03*
X102870000Y-52070000D03*
X105410000Y-54610000D03*
X105410000Y-52070000D03*
X107950000Y-54610000D03*
X107950000Y-52070000D03*
X110490000Y-54610000D03*
X110490000Y-52070000D03*
X113030000Y-54610000D03*
X113030000Y-52070000D03*
D12*
X45720000Y-97790000D03*
D13*
X38100000Y-97790000D03*
D12*
X45720000Y-100965000D03*
D13*
X38100000Y-100965000D03*
D12*
X45720000Y-107315000D03*
D13*
X38100000Y-107315000D03*
D12*
X45720000Y-110490000D03*
D13*
X38100000Y-110490000D03*
D12*
X45720000Y-113665000D03*
D13*
X38100000Y-113665000D03*
D12*
X45720000Y-116840000D03*
D13*
X38100000Y-116840000D03*
D12*
X45720000Y-120015000D03*
D13*
X38100000Y-120015000D03*
D12*
X53340000Y-60960000D03*
D13*
X60960000Y-60960000D03*
D12*
X68580000Y-60960000D03*
D13*
X76200000Y-60960000D03*
D12*
X83820000Y-60960000D03*
D13*
X91440000Y-60960000D03*
D12*
X100330000Y-60960000D03*
D13*
X107950000Y-60960000D03*
D19*
X57150000Y-83240000D03*
X57150000Y-78740000D03*
X50650000Y-83240000D03*
X50650000Y-78740000D03*
X57150000Y-95940000D03*
X57150000Y-91440000D03*
X50650000Y-95940000D03*
X50650000Y-91440000D03*
X57150000Y-108640000D03*
X57150000Y-104140000D03*
X50650000Y-108640000D03*
X50650000Y-104140000D03*
X57150000Y-70540000D03*
X57150000Y-66040000D03*
X50650000Y-70540000D03*
X50650000Y-66040000D03*
X73660000Y-83240000D03*
X73660000Y-78740000D03*
X67160000Y-83240000D03*
X67160000Y-78740000D03*
X73660000Y-95940000D03*
X73660000Y-91440000D03*
X67160000Y-95940000D03*
X67160000Y-91440000D03*
X73660000Y-108640000D03*
X73660000Y-104140000D03*
X67160000Y-108640000D03*
X67160000Y-104140000D03*
X73660000Y-70540000D03*
X73660000Y-66040000D03*
X67160000Y-70540000D03*
X67160000Y-66040000D03*
X90170000Y-83240000D03*
X90170000Y-78740000D03*
X83670000Y-83240000D03*
X83670000Y-78740000D03*
X90170000Y-95940000D03*
X90170000Y-91440000D03*
X83670000Y-95940000D03*
X83670000Y-91440000D03*
X90170000Y-108640000D03*
X90170000Y-104140000D03*
X83670000Y-108640000D03*
X83670000Y-104140000D03*
X90170000Y-70540000D03*
X90170000Y-66040000D03*
X83670000Y-70540000D03*
X83670000Y-66040000D03*
X106680000Y-83240000D03*
X106680000Y-78740000D03*
X100180000Y-83240000D03*
X100180000Y-78740000D03*
X106680000Y-95940000D03*
X106680000Y-91440000D03*
X100180000Y-95940000D03*
X100180000Y-91440000D03*
X106680000Y-108640000D03*
X106680000Y-104140000D03*
X100180000Y-108640000D03*
X100180000Y-104140000D03*
X106680000Y-70540000D03*
X106680000Y-66040000D03*
X100180000Y-70540000D03*
X100180000Y-66040000D03*
D16*
X38100000Y-74930000D03*
D13*
X45720000Y-92710000D03*
X38100000Y-77470000D03*
X45720000Y-90170000D03*
X38100000Y-80010000D03*
X45720000Y-87630000D03*
X38100000Y-82550000D03*
X45720000Y-85090000D03*
X38100000Y-85090000D03*
X45720000Y-82550000D03*
X38100000Y-87630000D03*
X45720000Y-80010000D03*
X38100000Y-90170000D03*
X45720000Y-77470000D03*
X38100000Y-92710000D03*
X45720000Y-74930000D03*
D20*
X32000000Y-45000000D03*
X113000000Y-45000000D03*
X113000000Y-138000000D03*
X32000000Y-138000000D03*
D17*
X39370000Y-44450000D03*
D18*
X41910000Y-44450000D03*
X44450000Y-44450000D03*
X46990000Y-44450000D03*
D21*
X39370000Y-55880000D03*
X39370000Y-53340000D03*
D22*
X39370000Y-58420000D03*
D21*
X45720000Y-55880000D03*
X45720000Y-53340000D03*
D22*
X45720000Y-58420000D03*
D12*
X38100000Y-69850000D03*
D13*
X38100000Y-62230000D03*
D12*
X41910000Y-69850000D03*
D13*
X41910000Y-62230000D03*
D12*
X57150000Y-49530000D03*
D13*
X49530000Y-49530000D03*
D12*
X57150000Y-53340000D03*
D13*
X49530000Y-53340000D03*
D16*
X53340000Y-115570000D03*
D12*
X55840000Y-115570000D03*
X100076000Y-128524000D03*
X97576000Y-128524000D03*
X103124000Y-119888000D03*
X103124000Y-117388000D03*
X67310000Y-137795000D03*
X67310000Y-135295000D03*
D16*
X105156000Y-128524000D03*
D12*
X105156000Y-126024000D03*
D16*
X76200000Y-114300000D03*
D12*
X76200000Y-116800000D03*
D17*
X76400000Y-139400000D03*
D18*
X78940000Y-139400000D03*
X81480000Y-139400000D03*
X84020000Y-139400000D03*
D23*
X104600000Y-136000000D03*
D24*
X99520000Y-136000000D03*
D25*
X45085000Y-133350000D03*
D26*
X45085000Y-128270000D03*
D12*
X64135000Y-138430000D03*
D13*
X56515000Y-138430000D03*
D12*
X90675000Y-138850000D03*
D13*
X90675000Y-131230000D03*
D12*
X93950000Y-138800000D03*
D13*
X93950000Y-131180000D03*
D12*
X54610000Y-128270000D03*
D13*
X54610000Y-120650000D03*
D12*
X71830000Y-123090000D03*
D13*
X71830000Y-130710000D03*
D12*
X64135000Y-135255000D03*
D13*
X56515000Y-135255000D03*
D12*
X106680000Y-123190000D03*
D13*
X106680000Y-115570000D03*
D12*
X72130000Y-114210000D03*
D13*
X64510000Y-114210000D03*
D12*
X80010000Y-128524000D03*
D13*
X80010000Y-120904000D03*
D12*
X83312000Y-128524000D03*
D13*
X83312000Y-120904000D03*
D12*
X76200000Y-123190000D03*
D13*
X76200000Y-130810000D03*
D16*
X91948000Y-117856000D03*
D13*
X99568000Y-125476000D03*
X91948000Y-120396000D03*
X99568000Y-122936000D03*
X91948000Y-122936000D03*
X99568000Y-120396000D03*
X91948000Y-125476000D03*
X99568000Y-117856000D03*
D16*
X66675000Y-123825000D03*
D13*
X59055000Y-131445000D03*
X64135000Y-123825000D03*
X61595000Y-131445000D03*
X61595000Y-123825000D03*
X64135000Y-131445000D03*
X59055000Y-123825000D03*
X66675000Y-131445000D03*
D12*
X59010000Y-120210000D03*
X61510000Y-120210000D03*
D16*
X86360000Y-116840000D03*
D12*
X86360000Y-114340000D03*
X99400000Y-113120000D03*
D13*
X91780000Y-113120000D03*
M02*
