M48
;DRILL file {KiCad 4.0.7} date 09/25/21 21:54:02
;FORMAT={-:-/ absolute / inch / decimal}
FMAT,2
INCH,TZ
T1C0.030
T2C0.031
T3C0.035
T4C0.039
T5C0.043
T6C0.060
%
G90
G05
M72
T1
X1.775Y-5.05
X1.775Y-5.25
T2
X1.5Y-2.45
X1.5Y-2.75
X1.5Y-2.95
X1.5Y-3.05
X1.5Y-3.15
X1.5Y-3.25
X1.5Y-3.35
X1.5Y-3.45
X1.5Y-3.55
X1.5Y-3.65
X1.5Y-3.85
X1.5Y-3.975
X1.5Y-4.1
X1.5Y-4.225
X1.5Y-4.35
X1.5Y-4.475
X1.5Y-4.6
X1.5Y-4.725
X1.55Y-2.1
X1.55Y-2.2
X1.55Y-2.3
X1.65Y-2.45
X1.65Y-2.75
X1.7941Y-2.7185
X1.7941Y-2.8169
X1.8Y-2.1
X1.8Y-2.2
X1.8Y-2.3
X1.8Y-2.95
X1.8Y-3.05
X1.8Y-3.15
X1.8Y-3.25
X1.8Y-3.35
X1.8Y-3.45
X1.8Y-3.55
X1.8Y-3.65
X1.8Y-3.85
X1.8Y-3.975
X1.8Y-4.1
X1.8Y-4.225
X1.8Y-4.35
X1.8Y-4.475
X1.8Y-4.6
X1.8Y-4.725
X1.95Y-1.95
X1.95Y-2.1
X2.1Y-2.4
X2.1Y-4.55
X2.15Y-4.75
X2.15Y-5.05
X2.1984Y-4.55
X2.225Y-5.325
X2.225Y-5.45
X2.25Y-1.95
X2.25Y-2.1
X2.3232Y-4.7327
X2.325Y-4.875
X2.325Y-5.175
X2.4Y-2.4
X2.4217Y-4.7327
X2.425Y-4.875
X2.425Y-5.175
X2.525Y-4.875
X2.525Y-5.175
X2.525Y-5.325
X2.525Y-5.45
X2.5398Y-4.4965
X2.5862Y-4.685
X2.625Y-4.875
X2.625Y-5.175
X2.65Y-5.3266
X2.65Y-5.425
X2.6862Y-4.685
X2.7Y-2.4
X2.7862Y-4.685
X2.828Y-4.8461
X2.828Y-5.1461
X2.8398Y-4.4965
X3.Y-2.4
X3.Y-4.5
X3.Y-4.5984
X3.Y-4.85
X3.Y-5.15
X3.15Y-4.76
X3.15Y-5.06
X3.28Y-4.76
X3.28Y-5.06
X3.3Y-2.4
X3.4Y-4.5016
X3.4Y-4.6
X3.45Y-4.8
X3.45Y-4.9
X3.45Y-5.
X3.5699Y-5.1665
X3.5699Y-5.4665
X3.6Y-2.4
X3.6134Y-4.4535
X3.62Y-4.64
X3.62Y-4.74
X3.62Y-4.84
X3.62Y-4.94
X3.6988Y-5.1646
X3.6988Y-5.4646
X3.8416Y-5.06
X3.9134Y-4.4535
X3.92Y-4.64
X3.92Y-4.74
X3.92Y-4.84
X3.92Y-4.94
X3.94Y-5.06
X3.95Y-2.4
X4.06Y-4.6216
X4.06Y-4.72
X4.14Y-4.9616
X4.14Y-5.06
X4.2Y-4.55
X4.2Y-4.85
X4.25Y-2.4
X4.45Y-2.55
X4.45Y-2.85
X4.45Y-3.05
X4.45Y-3.35
X4.45Y-3.55
X4.45Y-3.85
X4.45Y-4.05
X4.45Y-4.35
T3
X1.15Y-2.1
X1.15Y-2.45
X1.15Y-2.8
X1.15Y-3.15
X1.15Y-3.5
X1.15Y-3.85
X1.15Y-4.2
X1.15Y-4.55
X1.25Y-2.1
X1.25Y-2.45
X1.25Y-2.8
X1.25Y-3.15
X1.25Y-3.5
X1.25Y-3.85
X1.25Y-4.2
X1.25Y-4.55
T4
X1.55Y-1.75
X1.65Y-1.75
X1.75Y-1.75
X1.85Y-1.75
X2.55Y-2.05
X2.55Y-2.15
X2.65Y-2.05
X2.65Y-2.15
X2.75Y-1.725
X2.75Y-2.05
X2.75Y-2.15
X2.85Y-1.725
X2.85Y-2.05
X2.85Y-2.15
X2.95Y-1.725
X2.95Y-2.05
X2.95Y-2.15
X3.0079Y-5.4882
X3.05Y-1.725
X3.05Y-2.05
X3.05Y-2.15
X3.1079Y-5.4882
X3.15Y-2.05
X3.15Y-2.15
X3.2079Y-5.4882
X3.25Y-2.05
X3.25Y-2.15
X3.3079Y-5.4882
X3.35Y-2.05
X3.35Y-2.15
X3.45Y-2.05
X3.45Y-2.15
X3.55Y-2.05
X3.55Y-2.15
X3.65Y-2.05
X3.65Y-2.15
X3.75Y-2.05
X3.75Y-2.15
X3.85Y-2.05
X3.85Y-2.15
X3.95Y-2.05
X3.95Y-2.15
X4.05Y-2.05
X4.05Y-2.15
X4.15Y-2.05
X4.15Y-2.15
X4.25Y-2.05
X4.25Y-2.15
X4.35Y-2.05
X4.35Y-2.15
X4.45Y-2.05
X4.45Y-2.15
T5
X1.9941Y-2.6
X1.9941Y-2.7772
X1.9941Y-3.1
X1.9941Y-3.2772
X1.9941Y-3.6
X1.9941Y-3.7772
X1.9941Y-4.1
X1.9941Y-4.2772
X2.25Y-2.6
X2.25Y-2.7772
X2.25Y-3.1
X2.25Y-3.2772
X2.25Y-3.6
X2.25Y-3.7772
X2.25Y-4.1
X2.25Y-4.2772
X2.6441Y-2.6
X2.6441Y-2.7772
X2.6441Y-3.1
X2.6441Y-3.2772
X2.6441Y-3.6
X2.6441Y-3.7772
X2.6441Y-4.1
X2.6441Y-4.2772
X2.9Y-2.6
X2.9Y-2.7772
X2.9Y-3.1
X2.9Y-3.2772
X2.9Y-3.6
X2.9Y-3.7772
X2.9Y-4.1
X2.9Y-4.2772
X3.2941Y-2.6
X3.2941Y-2.7772
X3.2941Y-3.1
X3.2941Y-3.2772
X3.2941Y-3.6
X3.2941Y-3.7772
X3.2941Y-4.1
X3.2941Y-4.2772
X3.55Y-2.6
X3.55Y-2.7772
X3.55Y-3.1
X3.55Y-3.2772
X3.55Y-3.6
X3.55Y-3.7772
X3.55Y-4.1
X3.55Y-4.2772
X3.9441Y-2.6
X3.9441Y-2.7772
X3.9441Y-3.1
X3.9441Y-3.2772
X3.9441Y-3.6
X3.9441Y-3.7772
X3.9441Y-4.1
X3.9441Y-4.2772
X4.2Y-2.6
X4.2Y-2.7772
X4.2Y-3.1
X4.2Y-3.2772
X4.2Y-3.6
X4.2Y-3.7772
X4.2Y-4.1
X4.2Y-4.2772
T6
X3.9181Y-5.3543
X4.1181Y-5.3543
T0
M30
