M48
;DRILL file {KiCad 4.0.7} date 09/24/21 20:06:39
;FORMAT={-:-/ absolute / inch / decimal}
FMAT,2
INCH,TZ
T1C0.031
T2C0.035
T3C0.039
T4C0.043
%
G90
G05
M72
T1
X1.5Y-2.45
X1.5Y-2.75
X1.5Y-2.95
X1.5Y-3.05
X1.5Y-3.15
X1.5Y-3.25
X1.5Y-3.35
X1.5Y-3.45
X1.5Y-3.55
X1.5Y-3.65
X1.5Y-3.85
X1.5Y-4.
X1.5Y-4.15
X1.5Y-4.3
X1.5Y-4.45
X1.5Y-4.6
X1.5Y-4.75
X1.5Y-4.9
X1.55Y-2.1
X1.55Y-2.2
X1.55Y-2.3
X1.65Y-2.45
X1.65Y-2.75
X1.7941Y-2.7185
X1.7941Y-2.8169
X1.8Y-2.1
X1.8Y-2.2
X1.8Y-2.3
X1.8Y-2.95
X1.8Y-3.05
X1.8Y-3.15
X1.8Y-3.25
X1.8Y-3.35
X1.8Y-3.45
X1.8Y-3.55
X1.8Y-3.65
X1.8Y-3.85
X1.8Y-4.
X1.8Y-4.15
X1.8Y-4.3
X1.8Y-4.45
X1.8Y-4.6
X1.8Y-4.75
X1.8Y-4.9
X1.95Y-1.95
X1.95Y-2.1
X2.Y-2.5
X2.25Y-1.95
X2.25Y-2.1
X2.3Y-2.5
X2.65Y-2.5
X2.95Y-2.5
X3.3Y-2.5
X3.6Y-2.5
X3.95Y-2.5
X4.25Y-2.5
X4.44Y-3.24
X4.44Y-3.54
X4.44Y-3.81
X4.44Y-4.11
X4.44Y-4.39
X4.44Y-4.69
X4.45Y-2.7
X4.45Y-3.
T2
X1.15Y-2.1
X1.15Y-2.45
X1.15Y-2.8
X1.15Y-3.15
X1.15Y-3.5
X1.15Y-3.85
X1.15Y-4.2
X1.15Y-4.55
X1.25Y-2.1
X1.25Y-2.45
X1.25Y-2.8
X1.25Y-3.15
X1.25Y-3.5
X1.25Y-3.85
X1.25Y-4.2
X1.25Y-4.55
T3
X1.55Y-1.75
X1.65Y-1.75
X1.75Y-1.75
X1.85Y-1.75
X2.55Y-2.05
X2.55Y-2.15
X2.65Y-2.05
X2.65Y-2.15
X2.75Y-1.725
X2.75Y-2.05
X2.75Y-2.15
X2.85Y-1.725
X2.85Y-2.05
X2.85Y-2.15
X2.95Y-1.725
X2.95Y-2.05
X2.95Y-2.15
X3.05Y-1.725
X3.05Y-2.05
X3.05Y-2.15
X3.15Y-2.05
X3.15Y-2.15
X3.25Y-2.05
X3.25Y-2.15
X3.35Y-2.05
X3.35Y-2.15
X3.45Y-2.05
X3.45Y-2.15
X3.55Y-2.05
X3.55Y-2.15
X3.65Y-2.05
X3.65Y-2.15
X3.75Y-2.05
X3.75Y-2.15
X3.85Y-2.05
X3.85Y-2.15
X3.95Y-2.05
X3.95Y-2.15
X4.05Y-2.05
X4.05Y-2.15
X4.15Y-2.05
X4.15Y-2.15
X4.25Y-2.05
X4.25Y-2.15
X4.35Y-2.05
X4.35Y-2.15
X4.45Y-2.05
X4.45Y-2.15
T4
X1.9941Y-2.75
X1.9941Y-2.9272
X1.9941Y-3.35
X1.9941Y-3.5272
X1.9941Y-3.9
X1.9941Y-4.0772
X1.9941Y-4.5
X1.9941Y-4.6772
X2.25Y-2.75
X2.25Y-2.9272
X2.25Y-3.35
X2.25Y-3.5272
X2.25Y-3.9
X2.25Y-4.0772
X2.25Y-4.5
X2.25Y-4.6772
X2.6441Y-2.75
X2.6441Y-2.9272
X2.6441Y-3.35
X2.6441Y-3.5272
X2.6441Y-3.9
X2.6441Y-4.0772
X2.6441Y-4.5
X2.6441Y-4.6772
X2.9Y-2.75
X2.9Y-2.9272
X2.9Y-3.35
X2.9Y-3.5272
X2.9Y-3.9
X2.9Y-4.0772
X2.9Y-4.5
X2.9Y-4.6772
X3.2941Y-2.75
X3.2941Y-2.9272
X3.2941Y-3.35
X3.2941Y-3.5272
X3.2941Y-3.9
X3.2941Y-4.0772
X3.2941Y-4.5
X3.2941Y-4.6772
X3.55Y-2.75
X3.55Y-2.9272
X3.55Y-3.35
X3.55Y-3.5272
X3.55Y-3.9
X3.55Y-4.0772
X3.55Y-4.5
X3.55Y-4.6772
X3.9441Y-2.75
X3.9441Y-2.9272
X3.9441Y-3.35
X3.9441Y-3.5272
X3.9441Y-3.9
X3.9441Y-4.0772
X3.9441Y-4.5
X3.9441Y-4.6772
X4.2Y-2.75
X4.2Y-2.9272
X4.2Y-3.35
X4.2Y-3.5272
X4.2Y-3.9
X4.2Y-4.0772
X4.2Y-4.5
X4.2Y-4.6772
T0
M30
