M48
;DRILL file {KiCad 4.0.7} date 09/26/21 15:14:23
;FORMAT={-:-/ absolute / inch / decimal}
FMAT,2
INCH,TZ
T1C0.030
T2C0.031
T3C0.035
T4C0.039
T5C0.043
T6C0.060
%
G90
G05
M72
T1
X1.5748Y-5.0575
X1.5748Y-5.2575
X4.374Y-4.9846
X4.374Y-5.1846
T2
X1.076Y-4.6378
X1.1004Y-4.8772
X1.1004Y-5.1772
X1.376Y-4.6378
X1.5Y-2.45
X1.5Y-2.75
X1.5Y-2.95
X1.5Y-3.05
X1.5Y-3.15
X1.5Y-3.25
X1.5Y-3.35
X1.5Y-3.45
X1.5Y-3.55
X1.5Y-3.65
X1.5Y-3.85
X1.5Y-3.975
X1.5Y-4.1
X1.5Y-4.225
X1.5Y-4.35
X1.5Y-4.475
X1.5Y-4.6
X1.5Y-4.725
X1.55Y-2.1
X1.55Y-2.2
X1.55Y-2.3
X1.65Y-2.45
X1.65Y-2.75
X1.7941Y-2.7185
X1.7941Y-2.8169
X1.8Y-2.1
X1.8Y-2.2
X1.8Y-2.3
X1.8Y-2.95
X1.8Y-3.05
X1.8Y-3.15
X1.8Y-3.25
X1.8Y-3.35
X1.8Y-3.45
X1.8Y-3.55
X1.8Y-3.65
X1.8Y-3.85
X1.8Y-3.975
X1.8Y-4.1
X1.8Y-4.225
X1.8Y-4.35
X1.8Y-4.475
X1.8Y-4.6
X1.8Y-4.725
X1.93Y-4.67
X1.9323Y-5.3169
X1.9323Y-5.4469
X1.95Y-1.95
X1.95Y-2.1
X2.01Y-4.88
X2.01Y-5.18
X2.0284Y-4.67
X2.14Y-4.53
X2.14Y-4.88
X2.14Y-5.18
X2.1811Y-4.7087
X2.2323Y-5.3169
X2.2323Y-5.4469
X2.24Y-4.88
X2.24Y-5.18
X2.25Y-1.95
X2.25Y-2.1
X2.26Y-1.72
X2.2811Y-4.7087
X2.34Y-4.88
X2.34Y-5.18
X2.36Y-5.3416
X2.36Y-5.44
X2.3811Y-4.7087
X2.44Y-4.53
X2.44Y-4.88
X2.44Y-5.18
X2.45Y-2.48
X2.45Y-2.78
X2.56Y-1.72
X2.62Y-4.48
X2.62Y-4.78
X2.62Y-4.87
X2.62Y-5.17
X2.66Y-1.73
X2.76Y-1.73
X2.765Y-4.87
X2.765Y-5.17
X2.86Y-1.73
X2.905Y-4.875
X2.905Y-5.175
X2.9476Y-4.7531
X2.96Y-1.72
X2.9953Y-4.476
X2.9953Y-4.5744
X3.04Y-4.87
X3.04Y-5.17
X3.0461Y-4.7531
X3.11Y-2.48
X3.11Y-2.78
X3.215Y-4.82
X3.215Y-4.92
X3.215Y-5.02
X3.222Y-4.4827
X3.222Y-4.5811
X3.2417Y-5.1736
X3.2417Y-5.4736
X3.26Y-1.72
X3.3693Y-5.1736
X3.3693Y-5.4736
X3.3976Y-4.4969
X3.405Y-4.685
X3.405Y-4.785
X3.405Y-4.885
X3.405Y-4.985
X3.6976Y-4.4969
X3.705Y-4.685
X3.705Y-4.785
X3.705Y-4.885
X3.705Y-4.985
X3.75Y-2.48
X3.75Y-2.78
X3.8402Y-4.8874
X3.8402Y-4.9858
X3.8429Y-4.6642
X3.8429Y-4.7626
X3.9689Y-4.8945
X3.9689Y-5.1945
X3.9736Y-5.3106
X3.9736Y-5.4091
X3.99Y-4.44
X3.99Y-4.74
X4.1216Y-4.51
X4.22Y-4.51
X4.224Y-5.4736
X4.3319Y-4.689
X4.39Y-4.27
X4.39Y-4.57
X4.4087Y-3.2976
X4.4087Y-3.5976
X4.41Y-2.48
X4.41Y-2.78
X4.4134Y-2.8819
X4.4134Y-3.1819
X4.4335Y-4.0091
X4.4335Y-4.1075
X4.524Y-5.4736
X4.5283Y-2.4811
X4.5283Y-2.7811
X4.53Y-2.88
X4.53Y-3.18
X4.5669Y-3.685
X4.5669Y-3.8189
X4.5669Y-4.2276
X4.5669Y-4.5276
X4.6031Y-4.0157
X4.6319Y-4.689
X4.6669Y-4.2276
X4.6669Y-4.5276
X4.7Y-2.9
X4.7Y-3.2
X4.7031Y-4.0157
X4.739Y-4.6661
X4.739Y-4.9661
X4.7669Y-4.2276
X4.7669Y-4.5276
X4.8031Y-4.0157
X4.837Y-5.0713
X4.837Y-5.1697
X4.85Y-2.9
X4.85Y-3.2
X4.8669Y-3.685
X4.8669Y-3.8189
X4.8669Y-4.2276
X4.8669Y-4.5276
X4.8862Y-4.6685
X4.8862Y-4.9685
T3
X1.15Y-2.1
X1.15Y-2.375
X1.15Y-2.65
X1.15Y-2.925
X1.15Y-3.2
X1.15Y-3.475
X1.15Y-3.75
X1.15Y-4.025
X1.15Y-4.375
X1.25Y-2.1
X1.25Y-2.375
X1.25Y-2.65
X1.25Y-2.925
X1.25Y-3.2
X1.25Y-3.475
X1.25Y-3.75
X1.25Y-4.025
X1.25Y-4.375
T4
X1.55Y-1.75
X1.65Y-1.75
X1.75Y-1.75
X1.85Y-1.75
X2.55Y-2.05
X2.55Y-2.15
X2.59Y-5.48
X2.65Y-2.05
X2.65Y-2.15
X2.69Y-5.48
X2.75Y-2.05
X2.75Y-2.15
X2.79Y-5.48
X2.85Y-2.05
X2.85Y-2.15
X2.89Y-5.48
X2.95Y-2.05
X2.95Y-2.15
X2.99Y-5.48
X3.05Y-2.05
X3.05Y-2.15
X3.15Y-2.05
X3.15Y-2.15
X3.25Y-2.05
X3.25Y-2.15
X3.35Y-2.05
X3.35Y-2.15
X3.45Y-2.05
X3.45Y-2.15
X3.55Y-2.05
X3.55Y-2.15
X3.65Y-2.05
X3.65Y-2.15
X3.75Y-2.05
X3.75Y-2.15
X3.85Y-2.05
X3.85Y-2.15
X3.95Y-2.05
X3.95Y-2.15
X4.05Y-2.05
X4.05Y-2.15
X4.15Y-2.05
X4.15Y-2.15
X4.25Y-2.05
X4.25Y-2.15
X4.35Y-2.05
X4.35Y-2.15
X4.45Y-2.05
X4.45Y-2.15
X4.85Y-2.35
X4.85Y-2.45
X4.85Y-2.55
X4.85Y-2.65
T5
X1.9941Y-2.6
X1.9941Y-2.7772
X1.9941Y-3.1
X1.9941Y-3.2772
X1.9941Y-3.6
X1.9941Y-3.7772
X1.9941Y-4.1
X1.9941Y-4.2772
X2.25Y-2.6
X2.25Y-2.7772
X2.25Y-3.1
X2.25Y-3.2772
X2.25Y-3.6
X2.25Y-3.7772
X2.25Y-4.1
X2.25Y-4.2772
X2.6441Y-2.6
X2.6441Y-2.7772
X2.6441Y-3.1
X2.6441Y-3.2772
X2.6441Y-3.6
X2.6441Y-3.7772
X2.6441Y-4.1
X2.6441Y-4.2772
X2.9Y-2.6
X2.9Y-2.7772
X2.9Y-3.1
X2.9Y-3.2772
X2.9Y-3.6
X2.9Y-3.7772
X2.9Y-4.1
X2.9Y-4.2772
X3.2941Y-2.6
X3.2941Y-2.7772
X3.2941Y-3.1
X3.2941Y-3.2772
X3.2941Y-3.6
X3.2941Y-3.7772
X3.2941Y-4.1
X3.2941Y-4.2772
X3.55Y-2.6
X3.55Y-2.7772
X3.55Y-3.1
X3.55Y-3.2772
X3.55Y-3.6
X3.55Y-3.7772
X3.55Y-4.1
X3.55Y-4.2772
X3.9441Y-2.6
X3.9441Y-2.7772
X3.9441Y-3.1
X3.9441Y-3.2772
X3.9441Y-3.6
X3.9441Y-3.7772
X3.9441Y-4.1
X3.9441Y-4.2772
X4.2Y-2.6
X4.2Y-2.7772
X4.2Y-3.1
X4.2Y-3.2772
X4.2Y-3.6
X4.2Y-3.7772
X4.2Y-4.1
X4.2Y-4.2772
T6
X3.55Y-5.2988
X3.75Y-5.2988
T0
M30
