G04 #@! TF.FileFunction,Legend,Bot*
%FSLAX46Y46*%
G04 Gerber Fmt 4.6, Leading zero omitted, Abs format (unit mm)*
G04 Created by KiCad (PCBNEW 4.0.7) date 09/25/21 21:54:00*
%MOMM*%
%LPD*%
G01*
G04 APERTURE LIST*
%ADD10C,0.100000*%
%ADD11C,0.120000*%
%ADD12C,0.150000*%
G04 APERTURE END LIST*
D10*
D11*
X33470000Y-53339538D02*
G75*
G02X27920000Y-54884830I-2990000J-462D01*
G01*
X33470000Y-53340462D02*
G75*
G03X27920000Y-51795170I-2990000J462D01*
G01*
X32980000Y-53340000D02*
G75*
G03X32980000Y-53340000I-2500000J0D01*
G01*
X27920000Y-54885000D02*
X27920000Y-51795000D01*
X33470000Y-62229538D02*
G75*
G02X27920000Y-63774830I-2990000J-462D01*
G01*
X33470000Y-62230462D02*
G75*
G03X27920000Y-60685170I-2990000J462D01*
G01*
X32980000Y-62230000D02*
G75*
G03X32980000Y-62230000I-2500000J0D01*
G01*
X27920000Y-63775000D02*
X27920000Y-60685000D01*
X33470000Y-71119538D02*
G75*
G02X27920000Y-72664830I-2990000J-462D01*
G01*
X33470000Y-71120462D02*
G75*
G03X27920000Y-69575170I-2990000J462D01*
G01*
X32980000Y-71120000D02*
G75*
G03X32980000Y-71120000I-2500000J0D01*
G01*
X27920000Y-72665000D02*
X27920000Y-69575000D01*
X33470000Y-80009538D02*
G75*
G02X27920000Y-81554830I-2990000J-462D01*
G01*
X33470000Y-80010462D02*
G75*
G03X27920000Y-78465170I-2990000J462D01*
G01*
X32980000Y-80010000D02*
G75*
G03X32980000Y-80010000I-2500000J0D01*
G01*
X27920000Y-81555000D02*
X27920000Y-78465000D01*
X33470000Y-88899538D02*
G75*
G02X27920000Y-90444830I-2990000J-462D01*
G01*
X33470000Y-88900462D02*
G75*
G03X27920000Y-87355170I-2990000J462D01*
G01*
X32980000Y-88900000D02*
G75*
G03X32980000Y-88900000I-2500000J0D01*
G01*
X27920000Y-90445000D02*
X27920000Y-87355000D01*
X33470000Y-97789538D02*
G75*
G02X27920000Y-99334830I-2990000J-462D01*
G01*
X33470000Y-97790462D02*
G75*
G03X27920000Y-96245170I-2990000J462D01*
G01*
X32980000Y-97790000D02*
G75*
G03X32980000Y-97790000I-2500000J0D01*
G01*
X27920000Y-99335000D02*
X27920000Y-96245000D01*
X33470000Y-106679538D02*
G75*
G02X27920000Y-108224830I-2990000J-462D01*
G01*
X33470000Y-106680462D02*
G75*
G03X27920000Y-105135170I-2990000J462D01*
G01*
X32980000Y-106680000D02*
G75*
G03X32980000Y-106680000I-2500000J0D01*
G01*
X27920000Y-108225000D02*
X27920000Y-105135000D01*
X33470000Y-115569538D02*
G75*
G02X27920000Y-117114830I-2990000J-462D01*
G01*
X33470000Y-115570462D02*
G75*
G03X27920000Y-114025170I-2990000J462D01*
G01*
X32980000Y-115570000D02*
G75*
G03X32980000Y-115570000I-2500000J0D01*
G01*
X27920000Y-117115000D02*
X27920000Y-114025000D01*
X56150000Y-84240000D02*
X51650000Y-84240000D01*
X57400000Y-80240000D02*
X57400000Y-81740000D01*
X51650000Y-77740000D02*
X56150000Y-77740000D01*
X50400000Y-81740000D02*
X50400000Y-80240000D01*
X56150000Y-96940000D02*
X51650000Y-96940000D01*
X57400000Y-92940000D02*
X57400000Y-94440000D01*
X51650000Y-90440000D02*
X56150000Y-90440000D01*
X50400000Y-94440000D02*
X50400000Y-92940000D01*
X56150000Y-109640000D02*
X51650000Y-109640000D01*
X57400000Y-105640000D02*
X57400000Y-107140000D01*
X51650000Y-103140000D02*
X56150000Y-103140000D01*
X50400000Y-107140000D02*
X50400000Y-105640000D01*
X56150000Y-71540000D02*
X51650000Y-71540000D01*
X57400000Y-67540000D02*
X57400000Y-69040000D01*
X51650000Y-65040000D02*
X56150000Y-65040000D01*
X50400000Y-69040000D02*
X50400000Y-67540000D01*
X72660000Y-84240000D02*
X68160000Y-84240000D01*
X73910000Y-80240000D02*
X73910000Y-81740000D01*
X68160000Y-77740000D02*
X72660000Y-77740000D01*
X66910000Y-81740000D02*
X66910000Y-80240000D01*
X72660000Y-96940000D02*
X68160000Y-96940000D01*
X73910000Y-92940000D02*
X73910000Y-94440000D01*
X68160000Y-90440000D02*
X72660000Y-90440000D01*
X66910000Y-94440000D02*
X66910000Y-92940000D01*
X72660000Y-109640000D02*
X68160000Y-109640000D01*
X73910000Y-105640000D02*
X73910000Y-107140000D01*
X68160000Y-103140000D02*
X72660000Y-103140000D01*
X66910000Y-107140000D02*
X66910000Y-105640000D01*
X72660000Y-71540000D02*
X68160000Y-71540000D01*
X73910000Y-67540000D02*
X73910000Y-69040000D01*
X68160000Y-65040000D02*
X72660000Y-65040000D01*
X66910000Y-69040000D02*
X66910000Y-67540000D01*
X89170000Y-84240000D02*
X84670000Y-84240000D01*
X90420000Y-80240000D02*
X90420000Y-81740000D01*
X84670000Y-77740000D02*
X89170000Y-77740000D01*
X83420000Y-81740000D02*
X83420000Y-80240000D01*
X89170000Y-96940000D02*
X84670000Y-96940000D01*
X90420000Y-92940000D02*
X90420000Y-94440000D01*
X84670000Y-90440000D02*
X89170000Y-90440000D01*
X83420000Y-94440000D02*
X83420000Y-92940000D01*
X89170000Y-109640000D02*
X84670000Y-109640000D01*
X90420000Y-105640000D02*
X90420000Y-107140000D01*
X84670000Y-103140000D02*
X89170000Y-103140000D01*
X83420000Y-107140000D02*
X83420000Y-105640000D01*
X89170000Y-71540000D02*
X84670000Y-71540000D01*
X90420000Y-67540000D02*
X90420000Y-69040000D01*
X84670000Y-65040000D02*
X89170000Y-65040000D01*
X83420000Y-69040000D02*
X83420000Y-67540000D01*
X105680000Y-84240000D02*
X101180000Y-84240000D01*
X106930000Y-80240000D02*
X106930000Y-81740000D01*
X101180000Y-77740000D02*
X105680000Y-77740000D01*
X99930000Y-81740000D02*
X99930000Y-80240000D01*
X105680000Y-96940000D02*
X101180000Y-96940000D01*
X106930000Y-92940000D02*
X106930000Y-94440000D01*
X101180000Y-90440000D02*
X105680000Y-90440000D01*
X99930000Y-94440000D02*
X99930000Y-92940000D01*
X105680000Y-109640000D02*
X101180000Y-109640000D01*
X106930000Y-105640000D02*
X106930000Y-107140000D01*
X101180000Y-103140000D02*
X105680000Y-103140000D01*
X99930000Y-107140000D02*
X99930000Y-105640000D01*
X105680000Y-71540000D02*
X101180000Y-71540000D01*
X106930000Y-67540000D02*
X106930000Y-69040000D01*
X101180000Y-65040000D02*
X105680000Y-65040000D01*
X99930000Y-69040000D02*
X99930000Y-67540000D01*
D12*
X52705000Y-130810000D02*
G75*
G03X52705000Y-130810000I-7620000J0D01*
G01*
X31218095Y-57752381D02*
X31218095Y-56752381D01*
X30980000Y-56752381D01*
X30837142Y-56800000D01*
X30741904Y-56895238D01*
X30694285Y-56990476D01*
X30646666Y-57180952D01*
X30646666Y-57323810D01*
X30694285Y-57514286D01*
X30741904Y-57609524D01*
X30837142Y-57704762D01*
X30980000Y-57752381D01*
X31218095Y-57752381D01*
X29694285Y-57752381D02*
X30265714Y-57752381D01*
X29980000Y-57752381D02*
X29980000Y-56752381D01*
X30075238Y-56895238D01*
X30170476Y-56990476D01*
X30265714Y-57038095D01*
X31218095Y-66642381D02*
X31218095Y-65642381D01*
X30980000Y-65642381D01*
X30837142Y-65690000D01*
X30741904Y-65785238D01*
X30694285Y-65880476D01*
X30646666Y-66070952D01*
X30646666Y-66213810D01*
X30694285Y-66404286D01*
X30741904Y-66499524D01*
X30837142Y-66594762D01*
X30980000Y-66642381D01*
X31218095Y-66642381D01*
X30265714Y-65737619D02*
X30218095Y-65690000D01*
X30122857Y-65642381D01*
X29884761Y-65642381D01*
X29789523Y-65690000D01*
X29741904Y-65737619D01*
X29694285Y-65832857D01*
X29694285Y-65928095D01*
X29741904Y-66070952D01*
X30313333Y-66642381D01*
X29694285Y-66642381D01*
X31218095Y-75532381D02*
X31218095Y-74532381D01*
X30980000Y-74532381D01*
X30837142Y-74580000D01*
X30741904Y-74675238D01*
X30694285Y-74770476D01*
X30646666Y-74960952D01*
X30646666Y-75103810D01*
X30694285Y-75294286D01*
X30741904Y-75389524D01*
X30837142Y-75484762D01*
X30980000Y-75532381D01*
X31218095Y-75532381D01*
X30313333Y-74532381D02*
X29694285Y-74532381D01*
X30027619Y-74913333D01*
X29884761Y-74913333D01*
X29789523Y-74960952D01*
X29741904Y-75008571D01*
X29694285Y-75103810D01*
X29694285Y-75341905D01*
X29741904Y-75437143D01*
X29789523Y-75484762D01*
X29884761Y-75532381D01*
X30170476Y-75532381D01*
X30265714Y-75484762D01*
X30313333Y-75437143D01*
X31218095Y-84422381D02*
X31218095Y-83422381D01*
X30980000Y-83422381D01*
X30837142Y-83470000D01*
X30741904Y-83565238D01*
X30694285Y-83660476D01*
X30646666Y-83850952D01*
X30646666Y-83993810D01*
X30694285Y-84184286D01*
X30741904Y-84279524D01*
X30837142Y-84374762D01*
X30980000Y-84422381D01*
X31218095Y-84422381D01*
X29789523Y-83755714D02*
X29789523Y-84422381D01*
X30027619Y-83374762D02*
X30265714Y-84089048D01*
X29646666Y-84089048D01*
X31218095Y-93312381D02*
X31218095Y-92312381D01*
X30980000Y-92312381D01*
X30837142Y-92360000D01*
X30741904Y-92455238D01*
X30694285Y-92550476D01*
X30646666Y-92740952D01*
X30646666Y-92883810D01*
X30694285Y-93074286D01*
X30741904Y-93169524D01*
X30837142Y-93264762D01*
X30980000Y-93312381D01*
X31218095Y-93312381D01*
X29741904Y-92312381D02*
X30218095Y-92312381D01*
X30265714Y-92788571D01*
X30218095Y-92740952D01*
X30122857Y-92693333D01*
X29884761Y-92693333D01*
X29789523Y-92740952D01*
X29741904Y-92788571D01*
X29694285Y-92883810D01*
X29694285Y-93121905D01*
X29741904Y-93217143D01*
X29789523Y-93264762D01*
X29884761Y-93312381D01*
X30122857Y-93312381D01*
X30218095Y-93264762D01*
X30265714Y-93217143D01*
X31218095Y-102202381D02*
X31218095Y-101202381D01*
X30980000Y-101202381D01*
X30837142Y-101250000D01*
X30741904Y-101345238D01*
X30694285Y-101440476D01*
X30646666Y-101630952D01*
X30646666Y-101773810D01*
X30694285Y-101964286D01*
X30741904Y-102059524D01*
X30837142Y-102154762D01*
X30980000Y-102202381D01*
X31218095Y-102202381D01*
X29789523Y-101202381D02*
X29980000Y-101202381D01*
X30075238Y-101250000D01*
X30122857Y-101297619D01*
X30218095Y-101440476D01*
X30265714Y-101630952D01*
X30265714Y-102011905D01*
X30218095Y-102107143D01*
X30170476Y-102154762D01*
X30075238Y-102202381D01*
X29884761Y-102202381D01*
X29789523Y-102154762D01*
X29741904Y-102107143D01*
X29694285Y-102011905D01*
X29694285Y-101773810D01*
X29741904Y-101678571D01*
X29789523Y-101630952D01*
X29884761Y-101583333D01*
X30075238Y-101583333D01*
X30170476Y-101630952D01*
X30218095Y-101678571D01*
X30265714Y-101773810D01*
X31218095Y-111092381D02*
X31218095Y-110092381D01*
X30980000Y-110092381D01*
X30837142Y-110140000D01*
X30741904Y-110235238D01*
X30694285Y-110330476D01*
X30646666Y-110520952D01*
X30646666Y-110663810D01*
X30694285Y-110854286D01*
X30741904Y-110949524D01*
X30837142Y-111044762D01*
X30980000Y-111092381D01*
X31218095Y-111092381D01*
X30313333Y-110092381D02*
X29646666Y-110092381D01*
X30075238Y-111092381D01*
X31218095Y-119982381D02*
X31218095Y-118982381D01*
X30980000Y-118982381D01*
X30837142Y-119030000D01*
X30741904Y-119125238D01*
X30694285Y-119220476D01*
X30646666Y-119410952D01*
X30646666Y-119553810D01*
X30694285Y-119744286D01*
X30741904Y-119839524D01*
X30837142Y-119934762D01*
X30980000Y-119982381D01*
X31218095Y-119982381D01*
X30075238Y-119410952D02*
X30170476Y-119363333D01*
X30218095Y-119315714D01*
X30265714Y-119220476D01*
X30265714Y-119172857D01*
X30218095Y-119077619D01*
X30170476Y-119030000D01*
X30075238Y-118982381D01*
X29884761Y-118982381D01*
X29789523Y-119030000D01*
X29741904Y-119077619D01*
X29694285Y-119172857D01*
X29694285Y-119220476D01*
X29741904Y-119315714D01*
X29789523Y-119363333D01*
X29884761Y-119410952D01*
X30075238Y-119410952D01*
X30170476Y-119458571D01*
X30218095Y-119506190D01*
X30265714Y-119601429D01*
X30265714Y-119791905D01*
X30218095Y-119887143D01*
X30170476Y-119934762D01*
X30075238Y-119982381D01*
X29884761Y-119982381D01*
X29789523Y-119934762D01*
X29741904Y-119887143D01*
X29694285Y-119791905D01*
X29694285Y-119601429D01*
X29741904Y-119506190D01*
X29789523Y-119458571D01*
X29884761Y-119410952D01*
X55233333Y-77144762D02*
X55090476Y-77192381D01*
X54852380Y-77192381D01*
X54757142Y-77144762D01*
X54709523Y-77097143D01*
X54661904Y-77001905D01*
X54661904Y-76906667D01*
X54709523Y-76811429D01*
X54757142Y-76763810D01*
X54852380Y-76716190D01*
X55042857Y-76668571D01*
X55138095Y-76620952D01*
X55185714Y-76573333D01*
X55233333Y-76478095D01*
X55233333Y-76382857D01*
X55185714Y-76287619D01*
X55138095Y-76240000D01*
X55042857Y-76192381D01*
X54804761Y-76192381D01*
X54661904Y-76240000D01*
X54328571Y-76192381D02*
X54090476Y-77192381D01*
X53899999Y-76478095D01*
X53709523Y-77192381D01*
X53471428Y-76192381D01*
X52566666Y-77192381D02*
X53138095Y-77192381D01*
X52852381Y-77192381D02*
X52852381Y-76192381D01*
X52947619Y-76335238D01*
X53042857Y-76430476D01*
X53138095Y-76478095D01*
X55233333Y-89844762D02*
X55090476Y-89892381D01*
X54852380Y-89892381D01*
X54757142Y-89844762D01*
X54709523Y-89797143D01*
X54661904Y-89701905D01*
X54661904Y-89606667D01*
X54709523Y-89511429D01*
X54757142Y-89463810D01*
X54852380Y-89416190D01*
X55042857Y-89368571D01*
X55138095Y-89320952D01*
X55185714Y-89273333D01*
X55233333Y-89178095D01*
X55233333Y-89082857D01*
X55185714Y-88987619D01*
X55138095Y-88940000D01*
X55042857Y-88892381D01*
X54804761Y-88892381D01*
X54661904Y-88940000D01*
X54328571Y-88892381D02*
X54090476Y-89892381D01*
X53899999Y-89178095D01*
X53709523Y-89892381D01*
X53471428Y-88892381D01*
X53138095Y-88987619D02*
X53090476Y-88940000D01*
X52995238Y-88892381D01*
X52757142Y-88892381D01*
X52661904Y-88940000D01*
X52614285Y-88987619D01*
X52566666Y-89082857D01*
X52566666Y-89178095D01*
X52614285Y-89320952D01*
X53185714Y-89892381D01*
X52566666Y-89892381D01*
X55233333Y-102544762D02*
X55090476Y-102592381D01*
X54852380Y-102592381D01*
X54757142Y-102544762D01*
X54709523Y-102497143D01*
X54661904Y-102401905D01*
X54661904Y-102306667D01*
X54709523Y-102211429D01*
X54757142Y-102163810D01*
X54852380Y-102116190D01*
X55042857Y-102068571D01*
X55138095Y-102020952D01*
X55185714Y-101973333D01*
X55233333Y-101878095D01*
X55233333Y-101782857D01*
X55185714Y-101687619D01*
X55138095Y-101640000D01*
X55042857Y-101592381D01*
X54804761Y-101592381D01*
X54661904Y-101640000D01*
X54328571Y-101592381D02*
X54090476Y-102592381D01*
X53899999Y-101878095D01*
X53709523Y-102592381D01*
X53471428Y-101592381D01*
X53185714Y-101592381D02*
X52566666Y-101592381D01*
X52900000Y-101973333D01*
X52757142Y-101973333D01*
X52661904Y-102020952D01*
X52614285Y-102068571D01*
X52566666Y-102163810D01*
X52566666Y-102401905D01*
X52614285Y-102497143D01*
X52661904Y-102544762D01*
X52757142Y-102592381D01*
X53042857Y-102592381D01*
X53138095Y-102544762D01*
X53185714Y-102497143D01*
X55233333Y-64444762D02*
X55090476Y-64492381D01*
X54852380Y-64492381D01*
X54757142Y-64444762D01*
X54709523Y-64397143D01*
X54661904Y-64301905D01*
X54661904Y-64206667D01*
X54709523Y-64111429D01*
X54757142Y-64063810D01*
X54852380Y-64016190D01*
X55042857Y-63968571D01*
X55138095Y-63920952D01*
X55185714Y-63873333D01*
X55233333Y-63778095D01*
X55233333Y-63682857D01*
X55185714Y-63587619D01*
X55138095Y-63540000D01*
X55042857Y-63492381D01*
X54804761Y-63492381D01*
X54661904Y-63540000D01*
X54328571Y-63492381D02*
X54090476Y-64492381D01*
X53899999Y-63778095D01*
X53709523Y-64492381D01*
X53471428Y-63492381D01*
X52661904Y-63825714D02*
X52661904Y-64492381D01*
X52900000Y-63444762D02*
X53138095Y-64159048D01*
X52519047Y-64159048D01*
X71743333Y-77144762D02*
X71600476Y-77192381D01*
X71362380Y-77192381D01*
X71267142Y-77144762D01*
X71219523Y-77097143D01*
X71171904Y-77001905D01*
X71171904Y-76906667D01*
X71219523Y-76811429D01*
X71267142Y-76763810D01*
X71362380Y-76716190D01*
X71552857Y-76668571D01*
X71648095Y-76620952D01*
X71695714Y-76573333D01*
X71743333Y-76478095D01*
X71743333Y-76382857D01*
X71695714Y-76287619D01*
X71648095Y-76240000D01*
X71552857Y-76192381D01*
X71314761Y-76192381D01*
X71171904Y-76240000D01*
X70838571Y-76192381D02*
X70600476Y-77192381D01*
X70409999Y-76478095D01*
X70219523Y-77192381D01*
X69981428Y-76192381D01*
X69124285Y-76192381D02*
X69600476Y-76192381D01*
X69648095Y-76668571D01*
X69600476Y-76620952D01*
X69505238Y-76573333D01*
X69267142Y-76573333D01*
X69171904Y-76620952D01*
X69124285Y-76668571D01*
X69076666Y-76763810D01*
X69076666Y-77001905D01*
X69124285Y-77097143D01*
X69171904Y-77144762D01*
X69267142Y-77192381D01*
X69505238Y-77192381D01*
X69600476Y-77144762D01*
X69648095Y-77097143D01*
X71743333Y-89844762D02*
X71600476Y-89892381D01*
X71362380Y-89892381D01*
X71267142Y-89844762D01*
X71219523Y-89797143D01*
X71171904Y-89701905D01*
X71171904Y-89606667D01*
X71219523Y-89511429D01*
X71267142Y-89463810D01*
X71362380Y-89416190D01*
X71552857Y-89368571D01*
X71648095Y-89320952D01*
X71695714Y-89273333D01*
X71743333Y-89178095D01*
X71743333Y-89082857D01*
X71695714Y-88987619D01*
X71648095Y-88940000D01*
X71552857Y-88892381D01*
X71314761Y-88892381D01*
X71171904Y-88940000D01*
X70838571Y-88892381D02*
X70600476Y-89892381D01*
X70409999Y-89178095D01*
X70219523Y-89892381D01*
X69981428Y-88892381D01*
X69171904Y-88892381D02*
X69362381Y-88892381D01*
X69457619Y-88940000D01*
X69505238Y-88987619D01*
X69600476Y-89130476D01*
X69648095Y-89320952D01*
X69648095Y-89701905D01*
X69600476Y-89797143D01*
X69552857Y-89844762D01*
X69457619Y-89892381D01*
X69267142Y-89892381D01*
X69171904Y-89844762D01*
X69124285Y-89797143D01*
X69076666Y-89701905D01*
X69076666Y-89463810D01*
X69124285Y-89368571D01*
X69171904Y-89320952D01*
X69267142Y-89273333D01*
X69457619Y-89273333D01*
X69552857Y-89320952D01*
X69600476Y-89368571D01*
X69648095Y-89463810D01*
X71743333Y-102544762D02*
X71600476Y-102592381D01*
X71362380Y-102592381D01*
X71267142Y-102544762D01*
X71219523Y-102497143D01*
X71171904Y-102401905D01*
X71171904Y-102306667D01*
X71219523Y-102211429D01*
X71267142Y-102163810D01*
X71362380Y-102116190D01*
X71552857Y-102068571D01*
X71648095Y-102020952D01*
X71695714Y-101973333D01*
X71743333Y-101878095D01*
X71743333Y-101782857D01*
X71695714Y-101687619D01*
X71648095Y-101640000D01*
X71552857Y-101592381D01*
X71314761Y-101592381D01*
X71171904Y-101640000D01*
X70838571Y-101592381D02*
X70600476Y-102592381D01*
X70409999Y-101878095D01*
X70219523Y-102592381D01*
X69981428Y-101592381D01*
X69695714Y-101592381D02*
X69029047Y-101592381D01*
X69457619Y-102592381D01*
X71743333Y-64444762D02*
X71600476Y-64492381D01*
X71362380Y-64492381D01*
X71267142Y-64444762D01*
X71219523Y-64397143D01*
X71171904Y-64301905D01*
X71171904Y-64206667D01*
X71219523Y-64111429D01*
X71267142Y-64063810D01*
X71362380Y-64016190D01*
X71552857Y-63968571D01*
X71648095Y-63920952D01*
X71695714Y-63873333D01*
X71743333Y-63778095D01*
X71743333Y-63682857D01*
X71695714Y-63587619D01*
X71648095Y-63540000D01*
X71552857Y-63492381D01*
X71314761Y-63492381D01*
X71171904Y-63540000D01*
X70838571Y-63492381D02*
X70600476Y-64492381D01*
X70409999Y-63778095D01*
X70219523Y-64492381D01*
X69981428Y-63492381D01*
X69457619Y-63920952D02*
X69552857Y-63873333D01*
X69600476Y-63825714D01*
X69648095Y-63730476D01*
X69648095Y-63682857D01*
X69600476Y-63587619D01*
X69552857Y-63540000D01*
X69457619Y-63492381D01*
X69267142Y-63492381D01*
X69171904Y-63540000D01*
X69124285Y-63587619D01*
X69076666Y-63682857D01*
X69076666Y-63730476D01*
X69124285Y-63825714D01*
X69171904Y-63873333D01*
X69267142Y-63920952D01*
X69457619Y-63920952D01*
X69552857Y-63968571D01*
X69600476Y-64016190D01*
X69648095Y-64111429D01*
X69648095Y-64301905D01*
X69600476Y-64397143D01*
X69552857Y-64444762D01*
X69457619Y-64492381D01*
X69267142Y-64492381D01*
X69171904Y-64444762D01*
X69124285Y-64397143D01*
X69076666Y-64301905D01*
X69076666Y-64111429D01*
X69124285Y-64016190D01*
X69171904Y-63968571D01*
X69267142Y-63920952D01*
X88253333Y-77144762D02*
X88110476Y-77192381D01*
X87872380Y-77192381D01*
X87777142Y-77144762D01*
X87729523Y-77097143D01*
X87681904Y-77001905D01*
X87681904Y-76906667D01*
X87729523Y-76811429D01*
X87777142Y-76763810D01*
X87872380Y-76716190D01*
X88062857Y-76668571D01*
X88158095Y-76620952D01*
X88205714Y-76573333D01*
X88253333Y-76478095D01*
X88253333Y-76382857D01*
X88205714Y-76287619D01*
X88158095Y-76240000D01*
X88062857Y-76192381D01*
X87824761Y-76192381D01*
X87681904Y-76240000D01*
X87348571Y-76192381D02*
X87110476Y-77192381D01*
X86919999Y-76478095D01*
X86729523Y-77192381D01*
X86491428Y-76192381D01*
X86062857Y-77192381D02*
X85872381Y-77192381D01*
X85777142Y-77144762D01*
X85729523Y-77097143D01*
X85634285Y-76954286D01*
X85586666Y-76763810D01*
X85586666Y-76382857D01*
X85634285Y-76287619D01*
X85681904Y-76240000D01*
X85777142Y-76192381D01*
X85967619Y-76192381D01*
X86062857Y-76240000D01*
X86110476Y-76287619D01*
X86158095Y-76382857D01*
X86158095Y-76620952D01*
X86110476Y-76716190D01*
X86062857Y-76763810D01*
X85967619Y-76811429D01*
X85777142Y-76811429D01*
X85681904Y-76763810D01*
X85634285Y-76716190D01*
X85586666Y-76620952D01*
X88729524Y-89844762D02*
X88586667Y-89892381D01*
X88348571Y-89892381D01*
X88253333Y-89844762D01*
X88205714Y-89797143D01*
X88158095Y-89701905D01*
X88158095Y-89606667D01*
X88205714Y-89511429D01*
X88253333Y-89463810D01*
X88348571Y-89416190D01*
X88539048Y-89368571D01*
X88634286Y-89320952D01*
X88681905Y-89273333D01*
X88729524Y-89178095D01*
X88729524Y-89082857D01*
X88681905Y-88987619D01*
X88634286Y-88940000D01*
X88539048Y-88892381D01*
X88300952Y-88892381D01*
X88158095Y-88940000D01*
X87824762Y-88892381D02*
X87586667Y-89892381D01*
X87396190Y-89178095D01*
X87205714Y-89892381D01*
X86967619Y-88892381D01*
X86062857Y-89892381D02*
X86634286Y-89892381D01*
X86348572Y-89892381D02*
X86348572Y-88892381D01*
X86443810Y-89035238D01*
X86539048Y-89130476D01*
X86634286Y-89178095D01*
X85443810Y-88892381D02*
X85348571Y-88892381D01*
X85253333Y-88940000D01*
X85205714Y-88987619D01*
X85158095Y-89082857D01*
X85110476Y-89273333D01*
X85110476Y-89511429D01*
X85158095Y-89701905D01*
X85205714Y-89797143D01*
X85253333Y-89844762D01*
X85348571Y-89892381D01*
X85443810Y-89892381D01*
X85539048Y-89844762D01*
X85586667Y-89797143D01*
X85634286Y-89701905D01*
X85681905Y-89511429D01*
X85681905Y-89273333D01*
X85634286Y-89082857D01*
X85586667Y-88987619D01*
X85539048Y-88940000D01*
X85443810Y-88892381D01*
X88729524Y-102544762D02*
X88586667Y-102592381D01*
X88348571Y-102592381D01*
X88253333Y-102544762D01*
X88205714Y-102497143D01*
X88158095Y-102401905D01*
X88158095Y-102306667D01*
X88205714Y-102211429D01*
X88253333Y-102163810D01*
X88348571Y-102116190D01*
X88539048Y-102068571D01*
X88634286Y-102020952D01*
X88681905Y-101973333D01*
X88729524Y-101878095D01*
X88729524Y-101782857D01*
X88681905Y-101687619D01*
X88634286Y-101640000D01*
X88539048Y-101592381D01*
X88300952Y-101592381D01*
X88158095Y-101640000D01*
X87824762Y-101592381D02*
X87586667Y-102592381D01*
X87396190Y-101878095D01*
X87205714Y-102592381D01*
X86967619Y-101592381D01*
X86062857Y-102592381D02*
X86634286Y-102592381D01*
X86348572Y-102592381D02*
X86348572Y-101592381D01*
X86443810Y-101735238D01*
X86539048Y-101830476D01*
X86634286Y-101878095D01*
X85110476Y-102592381D02*
X85681905Y-102592381D01*
X85396191Y-102592381D02*
X85396191Y-101592381D01*
X85491429Y-101735238D01*
X85586667Y-101830476D01*
X85681905Y-101878095D01*
X88729524Y-64444762D02*
X88586667Y-64492381D01*
X88348571Y-64492381D01*
X88253333Y-64444762D01*
X88205714Y-64397143D01*
X88158095Y-64301905D01*
X88158095Y-64206667D01*
X88205714Y-64111429D01*
X88253333Y-64063810D01*
X88348571Y-64016190D01*
X88539048Y-63968571D01*
X88634286Y-63920952D01*
X88681905Y-63873333D01*
X88729524Y-63778095D01*
X88729524Y-63682857D01*
X88681905Y-63587619D01*
X88634286Y-63540000D01*
X88539048Y-63492381D01*
X88300952Y-63492381D01*
X88158095Y-63540000D01*
X87824762Y-63492381D02*
X87586667Y-64492381D01*
X87396190Y-63778095D01*
X87205714Y-64492381D01*
X86967619Y-63492381D01*
X86062857Y-64492381D02*
X86634286Y-64492381D01*
X86348572Y-64492381D02*
X86348572Y-63492381D01*
X86443810Y-63635238D01*
X86539048Y-63730476D01*
X86634286Y-63778095D01*
X85681905Y-63587619D02*
X85634286Y-63540000D01*
X85539048Y-63492381D01*
X85300952Y-63492381D01*
X85205714Y-63540000D01*
X85158095Y-63587619D01*
X85110476Y-63682857D01*
X85110476Y-63778095D01*
X85158095Y-63920952D01*
X85729524Y-64492381D01*
X85110476Y-64492381D01*
X105239524Y-77144762D02*
X105096667Y-77192381D01*
X104858571Y-77192381D01*
X104763333Y-77144762D01*
X104715714Y-77097143D01*
X104668095Y-77001905D01*
X104668095Y-76906667D01*
X104715714Y-76811429D01*
X104763333Y-76763810D01*
X104858571Y-76716190D01*
X105049048Y-76668571D01*
X105144286Y-76620952D01*
X105191905Y-76573333D01*
X105239524Y-76478095D01*
X105239524Y-76382857D01*
X105191905Y-76287619D01*
X105144286Y-76240000D01*
X105049048Y-76192381D01*
X104810952Y-76192381D01*
X104668095Y-76240000D01*
X104334762Y-76192381D02*
X104096667Y-77192381D01*
X103906190Y-76478095D01*
X103715714Y-77192381D01*
X103477619Y-76192381D01*
X102572857Y-77192381D02*
X103144286Y-77192381D01*
X102858572Y-77192381D02*
X102858572Y-76192381D01*
X102953810Y-76335238D01*
X103049048Y-76430476D01*
X103144286Y-76478095D01*
X102239524Y-76192381D02*
X101620476Y-76192381D01*
X101953810Y-76573333D01*
X101810952Y-76573333D01*
X101715714Y-76620952D01*
X101668095Y-76668571D01*
X101620476Y-76763810D01*
X101620476Y-77001905D01*
X101668095Y-77097143D01*
X101715714Y-77144762D01*
X101810952Y-77192381D01*
X102096667Y-77192381D01*
X102191905Y-77144762D01*
X102239524Y-77097143D01*
X105239524Y-89844762D02*
X105096667Y-89892381D01*
X104858571Y-89892381D01*
X104763333Y-89844762D01*
X104715714Y-89797143D01*
X104668095Y-89701905D01*
X104668095Y-89606667D01*
X104715714Y-89511429D01*
X104763333Y-89463810D01*
X104858571Y-89416190D01*
X105049048Y-89368571D01*
X105144286Y-89320952D01*
X105191905Y-89273333D01*
X105239524Y-89178095D01*
X105239524Y-89082857D01*
X105191905Y-88987619D01*
X105144286Y-88940000D01*
X105049048Y-88892381D01*
X104810952Y-88892381D01*
X104668095Y-88940000D01*
X104334762Y-88892381D02*
X104096667Y-89892381D01*
X103906190Y-89178095D01*
X103715714Y-89892381D01*
X103477619Y-88892381D01*
X102572857Y-89892381D02*
X103144286Y-89892381D01*
X102858572Y-89892381D02*
X102858572Y-88892381D01*
X102953810Y-89035238D01*
X103049048Y-89130476D01*
X103144286Y-89178095D01*
X101715714Y-89225714D02*
X101715714Y-89892381D01*
X101953810Y-88844762D02*
X102191905Y-89559048D01*
X101572857Y-89559048D01*
X105239524Y-102544762D02*
X105096667Y-102592381D01*
X104858571Y-102592381D01*
X104763333Y-102544762D01*
X104715714Y-102497143D01*
X104668095Y-102401905D01*
X104668095Y-102306667D01*
X104715714Y-102211429D01*
X104763333Y-102163810D01*
X104858571Y-102116190D01*
X105049048Y-102068571D01*
X105144286Y-102020952D01*
X105191905Y-101973333D01*
X105239524Y-101878095D01*
X105239524Y-101782857D01*
X105191905Y-101687619D01*
X105144286Y-101640000D01*
X105049048Y-101592381D01*
X104810952Y-101592381D01*
X104668095Y-101640000D01*
X104334762Y-101592381D02*
X104096667Y-102592381D01*
X103906190Y-101878095D01*
X103715714Y-102592381D01*
X103477619Y-101592381D01*
X102572857Y-102592381D02*
X103144286Y-102592381D01*
X102858572Y-102592381D02*
X102858572Y-101592381D01*
X102953810Y-101735238D01*
X103049048Y-101830476D01*
X103144286Y-101878095D01*
X101668095Y-101592381D02*
X102144286Y-101592381D01*
X102191905Y-102068571D01*
X102144286Y-102020952D01*
X102049048Y-101973333D01*
X101810952Y-101973333D01*
X101715714Y-102020952D01*
X101668095Y-102068571D01*
X101620476Y-102163810D01*
X101620476Y-102401905D01*
X101668095Y-102497143D01*
X101715714Y-102544762D01*
X101810952Y-102592381D01*
X102049048Y-102592381D01*
X102144286Y-102544762D01*
X102191905Y-102497143D01*
X105239524Y-64444762D02*
X105096667Y-64492381D01*
X104858571Y-64492381D01*
X104763333Y-64444762D01*
X104715714Y-64397143D01*
X104668095Y-64301905D01*
X104668095Y-64206667D01*
X104715714Y-64111429D01*
X104763333Y-64063810D01*
X104858571Y-64016190D01*
X105049048Y-63968571D01*
X105144286Y-63920952D01*
X105191905Y-63873333D01*
X105239524Y-63778095D01*
X105239524Y-63682857D01*
X105191905Y-63587619D01*
X105144286Y-63540000D01*
X105049048Y-63492381D01*
X104810952Y-63492381D01*
X104668095Y-63540000D01*
X104334762Y-63492381D02*
X104096667Y-64492381D01*
X103906190Y-63778095D01*
X103715714Y-64492381D01*
X103477619Y-63492381D01*
X102572857Y-64492381D02*
X103144286Y-64492381D01*
X102858572Y-64492381D02*
X102858572Y-63492381D01*
X102953810Y-63635238D01*
X103049048Y-63730476D01*
X103144286Y-63778095D01*
X101715714Y-63492381D02*
X101906191Y-63492381D01*
X102001429Y-63540000D01*
X102049048Y-63587619D01*
X102144286Y-63730476D01*
X102191905Y-63920952D01*
X102191905Y-64301905D01*
X102144286Y-64397143D01*
X102096667Y-64444762D01*
X102001429Y-64492381D01*
X101810952Y-64492381D01*
X101715714Y-64444762D01*
X101668095Y-64397143D01*
X101620476Y-64301905D01*
X101620476Y-64063810D01*
X101668095Y-63968571D01*
X101715714Y-63920952D01*
X101810952Y-63873333D01*
X102001429Y-63873333D01*
X102096667Y-63920952D01*
X102144286Y-63968571D01*
X102191905Y-64063810D01*
X46394524Y-130762381D02*
X46394524Y-129762381D01*
X46061190Y-130476667D01*
X45727857Y-129762381D01*
X45727857Y-130762381D01*
X45251667Y-130762381D02*
X45251667Y-129762381D01*
X44680238Y-130762381D02*
X45108810Y-130190952D01*
X44680238Y-129762381D02*
X45251667Y-130333810D01*
X43727857Y-130762381D02*
X44299286Y-130762381D01*
X44013572Y-130762381D02*
X44013572Y-129762381D01*
X44108810Y-129905238D01*
X44204048Y-130000476D01*
X44299286Y-130048095D01*
X48005952Y-128341429D02*
X47244047Y-128341429D01*
X47624999Y-128722381D02*
X47624999Y-127960476D01*
X48005952Y-133421429D02*
X47244047Y-133421429D01*
X46156428Y-136342381D02*
X46156428Y-135342381D01*
X45823094Y-136056667D01*
X45489761Y-135342381D01*
X45489761Y-136342381D01*
X45013571Y-136342381D02*
X45013571Y-135342381D01*
X43965952Y-136247143D02*
X44013571Y-136294762D01*
X44156428Y-136342381D01*
X44251666Y-136342381D01*
X44394524Y-136294762D01*
X44489762Y-136199524D01*
X44537381Y-136104286D01*
X44585000Y-135913810D01*
X44585000Y-135770952D01*
X44537381Y-135580476D01*
X44489762Y-135485238D01*
X44394524Y-135390000D01*
X44251666Y-135342381D01*
X44156428Y-135342381D01*
X44013571Y-135390000D01*
X43965952Y-135437619D01*
M02*
