M48
;DRILL file {KiCad 4.0.7} date 09/25/21 22:31:09
;FORMAT={-:-/ absolute / inch / decimal}
FMAT,2
INCH,TZ
T1C0.031
T2C0.035
T3C0.039
T4C0.060
%
G90
G05
M72
T1
X1.5898Y-2.9921
X1.6291Y-4.1339
X1.8898Y-2.9921
X1.9291Y-4.1339
X2.0669Y-3.6614
X2.1016Y-2.9921
X2.1406Y-4.8173
X2.1406Y-4.9157
X2.1654Y-3.6614
X2.4016Y-2.9921
X2.87Y-4.14
X3.17Y-4.14
X3.3331Y-4.7811
X3.3331Y-4.8795
X3.637Y-2.9921
X3.937Y-2.9921
X4.1535Y-3.6614
X4.1882Y-2.9921
X4.252Y-3.6614
X4.4882Y-2.9921
X4.7244Y-1.7126
X4.8228Y-1.7126
X5.0787Y-1.2598
X5.0787Y-1.3598
X5.0787Y-1.4598
T2
X1.9673Y-3.2567
X1.9673Y-3.3567
X2.026Y-4.4882
X2.126Y-4.4882
X2.3622Y-3.2579
X2.3622Y-3.3579
X3.2823Y-4.424
X3.2823Y-4.524
X3.965Y-3.3047
X4.065Y-3.3047
X4.3602Y-3.3079
X4.4602Y-3.3079
T3
X1.2961Y-3.4366
X1.2992Y-3.6614
X1.2992Y-3.8583
X1.3386Y-4.4882
X1.3386Y-4.7244
X1.3386Y-4.9213
X1.3542Y-1.2577
X1.3542Y-1.3577
X1.3542Y-1.4577
X1.3542Y-1.5577
X1.3542Y-1.6577
X1.3542Y-1.7577
X1.3961Y-3.4366
X1.3992Y-3.6614
X1.3992Y-3.8583
X1.4386Y-4.4882
X1.4386Y-4.7244
X1.4386Y-4.9213
X1.4961Y-3.4366
X1.4992Y-3.6614
X1.4992Y-3.8583
X1.5386Y-4.4882
X1.5386Y-4.7244
X1.5386Y-4.9213
X1.5748Y-3.189
X1.5904Y-1.2577
X1.5904Y-1.3577
X1.5904Y-1.4577
X1.5904Y-1.5577
X1.5904Y-1.6577
X1.5904Y-1.7577
X1.5961Y-3.4366
X1.5992Y-3.6614
X1.5992Y-3.8583
X1.6142Y-2.1872
X1.6142Y-2.5372
X1.6386Y-4.4882
X1.6386Y-4.7244
X1.6386Y-4.9213
X1.6469Y-4.289
X1.6992Y-3.6614
X1.6992Y-3.8583
X1.7386Y-4.7244
X1.7386Y-4.9213
X1.7992Y-3.6614
X1.7992Y-3.8583
X1.8386Y-4.7244
X1.8386Y-4.9213
X2.0442Y-1.2528
X2.0442Y-1.3528
X2.0442Y-1.4528
X2.0442Y-1.5528
X2.0442Y-1.6528
X2.0442Y-1.7528
X2.2804Y-1.2528
X2.2804Y-1.3528
X2.2804Y-1.4528
X2.2804Y-1.5528
X2.2804Y-1.6528
X2.2804Y-1.7528
X2.4409Y-3.6614
X2.4409Y-3.8583
X2.5197Y-4.4882
X2.5197Y-4.7244
X2.5197Y-4.9213
X2.5409Y-3.6614
X2.5409Y-3.8583
X2.5591Y-2.9921
X2.6197Y-4.4882
X2.6197Y-4.7244
X2.6197Y-4.9213
X2.6378Y-3.4252
X2.6409Y-3.6614
X2.6409Y-3.8583
X2.6772Y-2.1872
X2.6772Y-2.5372
X2.7197Y-4.4882
X2.7197Y-4.7244
X2.7197Y-4.9213
X2.7378Y-3.4252
X2.7409Y-3.6614
X2.7409Y-3.8583
X2.7592Y-1.2535
X2.7592Y-1.3535
X2.7592Y-1.4535
X2.7592Y-1.5535
X2.7592Y-1.6535
X2.7592Y-1.7535
X2.8197Y-4.4882
X2.8197Y-4.7244
X2.8197Y-4.9213
X2.8378Y-3.4252
X2.8409Y-3.6614
X2.8409Y-3.8583
X2.9Y-4.28
X2.9197Y-4.7244
X2.9197Y-4.9213
X2.9378Y-3.4252
X2.9409Y-3.6614
X2.9409Y-3.8583
X2.9954Y-1.2535
X2.9954Y-1.3535
X2.9954Y-1.4535
X2.9954Y-1.5535
X2.9954Y-1.6535
X2.9954Y-1.7535
X3.0197Y-4.7244
X3.0197Y-4.9213
X3.3858Y-3.4252
X3.3858Y-3.6614
X3.3858Y-3.8583
X3.4252Y-1.252
X3.4252Y-1.352
X3.4252Y-1.452
X3.4252Y-1.552
X3.4252Y-1.652
X3.4252Y-1.752
X3.4858Y-3.4252
X3.4858Y-3.6614
X3.4858Y-3.8583
X3.5827Y-2.1872
X3.5827Y-2.5372
X3.5858Y-3.4252
X3.5858Y-3.6614
X3.5858Y-3.8583
X3.622Y-3.189
X3.6614Y-1.252
X3.6614Y-1.352
X3.6614Y-1.452
X3.6614Y-1.552
X3.6614Y-1.652
X3.6614Y-1.752
X3.6858Y-3.4252
X3.6858Y-3.6614
X3.6858Y-3.8583
X3.7402Y-4.5276
X3.7402Y-4.6457
X3.7402Y-4.7457
X3.7402Y-4.8819
X3.7858Y-3.6614
X3.7858Y-3.8583
X3.8402Y-4.5276
X3.8402Y-4.6457
X3.8402Y-4.7457
X3.8402Y-4.8819
X3.8858Y-3.6614
X3.8858Y-3.8583
X3.937Y-5.0394
X3.9402Y-4.5276
X3.9402Y-4.6457
X3.9402Y-4.7457
X3.9402Y-4.8819
X4.037Y-5.0394
X4.0402Y-4.5276
X4.0402Y-4.6457
X4.0402Y-4.7457
X4.0402Y-4.8819
X4.137Y-5.0394
X4.1402Y-4.5276
X4.1402Y-4.6457
X4.1402Y-4.7457
X4.1402Y-4.8819
X4.1886Y-4.1083
X4.1886Y-4.3051
X4.237Y-5.0394
X4.2402Y-4.5276
X4.2402Y-4.6457
X4.2402Y-4.7457
X4.2402Y-4.8819
X4.2886Y-4.1083
X4.2886Y-4.3051
X4.3402Y-4.5276
X4.3402Y-4.6457
X4.3402Y-4.7457
X4.3402Y-4.8819
X4.3886Y-4.1083
X4.3886Y-4.3051
X4.4402Y-4.5276
X4.4402Y-4.6457
X4.4402Y-4.7457
X4.4402Y-4.8819
X4.4886Y-4.1083
X4.4886Y-4.3051
X4.5276Y-3.6614
X4.5276Y-3.8583
X4.5402Y-4.5276
X4.5402Y-4.6457
X4.5402Y-4.7457
X4.5402Y-4.8819
X4.6276Y-3.6614
X4.6276Y-3.8583
X4.6402Y-4.5276
X4.6402Y-4.6457
X4.6402Y-4.7457
X4.6402Y-4.8819
X4.6457Y-2.1872
X4.6457Y-2.5372
X4.685Y-1.2598
X4.685Y-1.3598
X4.685Y-1.4598
X4.685Y-1.5598
X4.685Y-2.9921
X4.7244Y-3.4252
X4.7276Y-3.6614
X4.7276Y-3.8583
X4.7402Y-4.5276
X4.7402Y-4.6457
X4.7402Y-4.7457
X4.7402Y-4.8819
X4.8244Y-3.4252
X4.8276Y-3.6614
X4.8276Y-3.8583
X4.8402Y-4.5276
X4.8402Y-4.6457
X4.8402Y-4.7457
X4.8402Y-4.8819
X4.8425Y-1.2598
X4.8425Y-1.3598
X4.8425Y-1.4598
X4.8425Y-1.5598
X4.9244Y-3.4252
X4.9276Y-3.6614
X4.9276Y-3.8583
X4.9402Y-4.5276
X4.9402Y-4.6457
X4.9402Y-4.7457
X4.9402Y-4.8819
X5.0244Y-3.4252
X5.0276Y-3.6614
X5.0276Y-3.8583
X5.0394Y-1.6339
T4
X2.0441Y-2.5591
X2.0472Y-2.1654
X2.2441Y-2.5591
X2.2472Y-2.1654
X4.0126Y-2.5591
X4.0157Y-2.1654
X4.2126Y-2.5591
X4.2157Y-2.1654
T0
M30
