G04 #@! TF.FileFunction,Legend,Top*
%FSLAX46Y46*%
G04 Gerber Fmt 4.6, Leading zero omitted, Abs format (unit mm)*
G04 Created by KiCad (PCBNEW 4.0.7) date 09/25/21 22:31:07*
%MOMM*%
%LPD*%
G01*
G04 APERTURE LIST*
%ADD10C,0.100000*%
%ADD11C,0.200000*%
%ADD12C,0.150000*%
%ADD13C,0.300000*%
%ADD14C,0.120000*%
G04 APERTURE END LIST*
D10*
D11*
X98500000Y-30000000D02*
X98500000Y-47000000D01*
X81500000Y-30000000D02*
X81500000Y-47000000D01*
X64000000Y-30000000D02*
X64000000Y-47000000D01*
X46000000Y-30000000D02*
X46000000Y-47000000D01*
D12*
X84285715Y-44952381D02*
X83714286Y-44952381D01*
X84000000Y-44952381D02*
X84000000Y-43952381D01*
X83904762Y-44095238D01*
X83809524Y-44190476D01*
X83714286Y-44238095D01*
X119035715Y-104952381D02*
X118464286Y-104952381D01*
X118750000Y-104952381D02*
X118750000Y-103952381D01*
X118654762Y-104095238D01*
X118559524Y-104190476D01*
X118464286Y-104238095D01*
X95285715Y-112202381D02*
X94714286Y-112202381D01*
X95000000Y-112202381D02*
X95000000Y-111202381D01*
X94904762Y-111345238D01*
X94809524Y-111440476D01*
X94714286Y-111488095D01*
X64285715Y-111702381D02*
X63714286Y-111702381D01*
X64000000Y-111702381D02*
X64000000Y-110702381D01*
X63904762Y-110845238D01*
X63809524Y-110940476D01*
X63714286Y-110988095D01*
X34035715Y-111452381D02*
X33464286Y-111452381D01*
X33750000Y-111452381D02*
X33750000Y-110452381D01*
X33654762Y-110595238D01*
X33559524Y-110690476D01*
X33464286Y-110738095D01*
X67285715Y-84702381D02*
X66714286Y-84702381D01*
X67000000Y-84702381D02*
X67000000Y-83702381D01*
X66904762Y-83845238D01*
X66809524Y-83940476D01*
X66714286Y-83988095D01*
X115285715Y-90702381D02*
X114714286Y-90702381D01*
X115000000Y-90702381D02*
X115000000Y-89702381D01*
X114904762Y-89845238D01*
X114809524Y-89940476D01*
X114714286Y-89988095D01*
X82285715Y-98702381D02*
X81714286Y-98702381D01*
X82000000Y-98702381D02*
X82000000Y-97702381D01*
X81904762Y-97845238D01*
X81809524Y-97940476D01*
X81714286Y-97988095D01*
X82285715Y-93202381D02*
X81714286Y-93202381D01*
X82000000Y-93202381D02*
X82000000Y-92202381D01*
X81904762Y-92345238D01*
X81809524Y-92440476D01*
X81714286Y-92488095D01*
X82285715Y-87452381D02*
X81714286Y-87452381D01*
X82000000Y-87452381D02*
X82000000Y-86452381D01*
X81904762Y-86595238D01*
X81809524Y-86690476D01*
X81714286Y-86738095D01*
X62285715Y-90702381D02*
X61714286Y-90702381D01*
X62000000Y-90702381D02*
X62000000Y-89702381D01*
X61904762Y-89845238D01*
X61809524Y-89940476D01*
X61714286Y-89988095D01*
X33285715Y-84952381D02*
X32714286Y-84952381D01*
X33000000Y-84952381D02*
X33000000Y-83952381D01*
X32904762Y-84095238D01*
X32809524Y-84190476D01*
X32714286Y-84238095D01*
X100464286Y-49547619D02*
X100511905Y-49500000D01*
X100607143Y-49452381D01*
X100845239Y-49452381D01*
X100940477Y-49500000D01*
X100988096Y-49547619D01*
X101035715Y-49642857D01*
X101035715Y-49738095D01*
X100988096Y-49880952D01*
X100416667Y-50452381D01*
X101035715Y-50452381D01*
X101797620Y-49928571D02*
X101940477Y-49976190D01*
X101988096Y-50023810D01*
X102035715Y-50119048D01*
X102035715Y-50261905D01*
X101988096Y-50357143D01*
X101940477Y-50404762D01*
X101845239Y-50452381D01*
X101464286Y-50452381D01*
X101464286Y-49452381D01*
X101797620Y-49452381D01*
X101892858Y-49500000D01*
X101940477Y-49547619D01*
X101988096Y-49642857D01*
X101988096Y-49738095D01*
X101940477Y-49833333D01*
X101892858Y-49880952D01*
X101797620Y-49928571D01*
X101464286Y-49928571D01*
X107285715Y-50452381D02*
X106714286Y-50452381D01*
X107000000Y-50452381D02*
X107000000Y-49452381D01*
X106904762Y-49595238D01*
X106809524Y-49690476D01*
X106714286Y-49738095D01*
X108047620Y-49928571D02*
X108190477Y-49976190D01*
X108238096Y-50023810D01*
X108285715Y-50119048D01*
X108285715Y-50261905D01*
X108238096Y-50357143D01*
X108190477Y-50404762D01*
X108095239Y-50452381D01*
X107714286Y-50452381D01*
X107714286Y-49452381D01*
X108047620Y-49452381D01*
X108142858Y-49500000D01*
X108190477Y-49547619D01*
X108238096Y-49642857D01*
X108238096Y-49738095D01*
X108190477Y-49833333D01*
X108142858Y-49880952D01*
X108047620Y-49928571D01*
X107714286Y-49928571D01*
X100285714Y-69547619D02*
X100333333Y-69500000D01*
X100428571Y-69452381D01*
X100666667Y-69452381D01*
X100761905Y-69500000D01*
X100809524Y-69547619D01*
X100857143Y-69642857D01*
X100857143Y-69738095D01*
X100809524Y-69880952D01*
X100238095Y-70452381D01*
X100857143Y-70452381D01*
X101238095Y-70166667D02*
X101714286Y-70166667D01*
X101142857Y-70452381D02*
X101476190Y-69452381D01*
X101809524Y-70452381D01*
X107607143Y-70452381D02*
X107035714Y-70452381D01*
X107321428Y-70452381D02*
X107321428Y-69452381D01*
X107226190Y-69595238D01*
X107130952Y-69690476D01*
X107035714Y-69738095D01*
X107988095Y-70166667D02*
X108464286Y-70166667D01*
X107892857Y-70452381D02*
X108226190Y-69452381D01*
X108559524Y-70452381D01*
X50714286Y-49547619D02*
X50761905Y-49500000D01*
X50857143Y-49452381D01*
X51095239Y-49452381D01*
X51190477Y-49500000D01*
X51238096Y-49547619D01*
X51285715Y-49642857D01*
X51285715Y-49738095D01*
X51238096Y-49880952D01*
X50666667Y-50452381D01*
X51285715Y-50452381D01*
X52047620Y-49928571D02*
X52190477Y-49976190D01*
X52238096Y-50023810D01*
X52285715Y-50119048D01*
X52285715Y-50261905D01*
X52238096Y-50357143D01*
X52190477Y-50404762D01*
X52095239Y-50452381D01*
X51714286Y-50452381D01*
X51714286Y-49452381D01*
X52047620Y-49452381D01*
X52142858Y-49500000D01*
X52190477Y-49547619D01*
X52238096Y-49642857D01*
X52238096Y-49738095D01*
X52190477Y-49833333D01*
X52142858Y-49880952D01*
X52047620Y-49928571D01*
X51714286Y-49928571D01*
X57035715Y-50452381D02*
X56464286Y-50452381D01*
X56750000Y-50452381D02*
X56750000Y-49452381D01*
X56654762Y-49595238D01*
X56559524Y-49690476D01*
X56464286Y-49738095D01*
X57797620Y-49928571D02*
X57940477Y-49976190D01*
X57988096Y-50023810D01*
X58035715Y-50119048D01*
X58035715Y-50261905D01*
X57988096Y-50357143D01*
X57940477Y-50404762D01*
X57845239Y-50452381D01*
X57464286Y-50452381D01*
X57464286Y-49452381D01*
X57797620Y-49452381D01*
X57892858Y-49500000D01*
X57940477Y-49547619D01*
X57988096Y-49642857D01*
X57988096Y-49738095D01*
X57940477Y-49833333D01*
X57892858Y-49880952D01*
X57797620Y-49928571D01*
X57464286Y-49928571D01*
X50785714Y-69547619D02*
X50833333Y-69500000D01*
X50928571Y-69452381D01*
X51166667Y-69452381D01*
X51261905Y-69500000D01*
X51309524Y-69547619D01*
X51357143Y-69642857D01*
X51357143Y-69738095D01*
X51309524Y-69880952D01*
X50738095Y-70452381D01*
X51357143Y-70452381D01*
X51738095Y-70166667D02*
X52214286Y-70166667D01*
X51642857Y-70452381D02*
X51976190Y-69452381D01*
X52309524Y-70452381D01*
X57107143Y-70452381D02*
X56535714Y-70452381D01*
X56821428Y-70452381D02*
X56821428Y-69452381D01*
X56726190Y-69595238D01*
X56630952Y-69690476D01*
X56535714Y-69738095D01*
X57488095Y-70166667D02*
X57964286Y-70166667D01*
X57392857Y-70452381D02*
X57726190Y-69452381D01*
X58059524Y-70452381D01*
X31781715Y-44902381D02*
X31210286Y-44902381D01*
X31496000Y-44902381D02*
X31496000Y-43902381D01*
X31400762Y-44045238D01*
X31305524Y-44140476D01*
X31210286Y-44188095D01*
X49561715Y-44902381D02*
X48990286Y-44902381D01*
X49276000Y-44902381D02*
X49276000Y-43902381D01*
X49180762Y-44045238D01*
X49085524Y-44140476D01*
X48990286Y-44188095D01*
X67595715Y-44902381D02*
X67024286Y-44902381D01*
X67310000Y-44902381D02*
X67310000Y-43902381D01*
X67214762Y-44045238D01*
X67119524Y-44140476D01*
X67024286Y-44188095D01*
X116785715Y-31952381D02*
X116214286Y-31952381D01*
X116500000Y-31952381D02*
X116500000Y-30952381D01*
X116404762Y-31095238D01*
X116309524Y-31190476D01*
X116214286Y-31238095D01*
D13*
X124194285Y-127171429D02*
X124694285Y-127885714D01*
X125051428Y-127171429D02*
X125051428Y-128671429D01*
X124480000Y-128671429D01*
X124337142Y-128600000D01*
X124265714Y-128528571D01*
X124194285Y-128385714D01*
X124194285Y-128171429D01*
X124265714Y-128028571D01*
X124337142Y-127957143D01*
X124480000Y-127885714D01*
X125051428Y-127885714D01*
X123551428Y-127171429D02*
X123551428Y-128671429D01*
X122980000Y-128671429D01*
X122837142Y-128600000D01*
X122765714Y-128528571D01*
X122694285Y-128385714D01*
X122694285Y-128171429D01*
X122765714Y-128028571D01*
X122837142Y-127957143D01*
X122980000Y-127885714D01*
X123551428Y-127885714D01*
X122051428Y-127171429D02*
X122051428Y-128671429D01*
X120265714Y-127242857D02*
X120051428Y-127171429D01*
X119694285Y-127171429D01*
X119551428Y-127242857D01*
X119479999Y-127314286D01*
X119408571Y-127457143D01*
X119408571Y-127600000D01*
X119479999Y-127742857D01*
X119551428Y-127814286D01*
X119694285Y-127885714D01*
X119979999Y-127957143D01*
X120122857Y-128028571D01*
X120194285Y-128100000D01*
X120265714Y-128242857D01*
X120265714Y-128385714D01*
X120194285Y-128528571D01*
X120122857Y-128600000D01*
X119979999Y-128671429D01*
X119622857Y-128671429D01*
X119408571Y-128600000D01*
X118765714Y-127171429D02*
X118765714Y-128671429D01*
X118051428Y-127171429D02*
X118051428Y-128671429D01*
X117694285Y-128671429D01*
X117480000Y-128600000D01*
X117337142Y-128457143D01*
X117265714Y-128314286D01*
X117194285Y-128028571D01*
X117194285Y-127814286D01*
X117265714Y-127528571D01*
X117337142Y-127385714D01*
X117480000Y-127242857D01*
X117694285Y-127171429D01*
X118051428Y-127171429D01*
X116551428Y-127957143D02*
X116051428Y-127957143D01*
X115837142Y-127171429D02*
X116551428Y-127171429D01*
X116551428Y-128671429D01*
X115837142Y-128671429D01*
D11*
X130000000Y-113000000D02*
X91000000Y-113000000D01*
X91000000Y-101000000D02*
X91000000Y-130000000D01*
X59000000Y-101000000D02*
X59000000Y-130000000D01*
X79000000Y-101000000D02*
X79000000Y-73000000D01*
X30000000Y-101000000D02*
X130000000Y-101000000D01*
X79000000Y-47000000D02*
X79000000Y-73000000D01*
X30000000Y-73000000D02*
X130000000Y-73000000D01*
X30000000Y-47000000D02*
X30000000Y-46000000D01*
X130000000Y-47000000D02*
X30000000Y-47000000D01*
D14*
X35727000Y-30615000D02*
X33067000Y-30615000D01*
X35727000Y-43375000D02*
X35727000Y-30615000D01*
X33067000Y-43375000D02*
X33067000Y-30615000D01*
X35727000Y-43375000D02*
X33067000Y-43375000D01*
X35727000Y-44645000D02*
X35727000Y-45975000D01*
X35727000Y-45975000D02*
X34397000Y-45975000D01*
X53253000Y-30491000D02*
X50593000Y-30491000D01*
X53253000Y-43251000D02*
X53253000Y-30491000D01*
X50593000Y-43251000D02*
X50593000Y-30491000D01*
X53253000Y-43251000D02*
X50593000Y-43251000D01*
X53253000Y-44521000D02*
X53253000Y-45851000D01*
X53253000Y-45851000D02*
X51923000Y-45851000D01*
X71414000Y-30510000D02*
X68754000Y-30510000D01*
X71414000Y-43270000D02*
X71414000Y-30510000D01*
X68754000Y-43270000D02*
X68754000Y-30510000D01*
X71414000Y-43270000D02*
X68754000Y-43270000D01*
X71414000Y-44540000D02*
X71414000Y-45870000D01*
X71414000Y-45870000D02*
X70084000Y-45870000D01*
X49380000Y-62460000D02*
X59540000Y-62460000D01*
X49380000Y-61190000D02*
X49380000Y-68810000D01*
X49380000Y-68810000D02*
X59540000Y-68810000D01*
X59540000Y-68810000D02*
X59540000Y-61190000D01*
X59540000Y-61190000D02*
X49380000Y-61190000D01*
X37286000Y-51000000D02*
G75*
G03X37286000Y-51000000I-2286000J0D01*
G01*
X76286000Y-51000000D02*
G75*
G03X76286000Y-51000000I-2286000J0D01*
G01*
X59620000Y-57540000D02*
X49460000Y-57540000D01*
X59620000Y-58810000D02*
X59620000Y-51190000D01*
X59620000Y-51190000D02*
X49460000Y-51190000D01*
X49460000Y-51190000D02*
X49460000Y-58810000D01*
X49460000Y-58810000D02*
X59620000Y-58810000D01*
X37286000Y-69000000D02*
G75*
G03X37286000Y-69000000I-2286000J0D01*
G01*
X76286000Y-69000000D02*
G75*
G03X76286000Y-69000000I-2286000J0D01*
G01*
X109620000Y-57540000D02*
X99460000Y-57540000D01*
X109620000Y-58810000D02*
X109620000Y-51190000D01*
X109620000Y-51190000D02*
X99460000Y-51190000D01*
X99460000Y-51190000D02*
X99460000Y-58810000D01*
X99460000Y-58810000D02*
X109620000Y-58810000D01*
X86286000Y-51000000D02*
G75*
G03X86286000Y-51000000I-2286000J0D01*
G01*
X86286000Y-69000000D02*
G75*
G03X86286000Y-69000000I-2286000J0D01*
G01*
X99380000Y-62460000D02*
X109540000Y-62460000D01*
X99380000Y-61190000D02*
X99380000Y-68810000D01*
X99380000Y-68810000D02*
X109540000Y-68810000D01*
X109540000Y-68810000D02*
X109540000Y-61190000D01*
X109540000Y-61190000D02*
X99380000Y-61190000D01*
X127286000Y-51000000D02*
G75*
G03X127286000Y-51000000I-2286000J0D01*
G01*
X127286000Y-69000000D02*
G75*
G03X127286000Y-69000000I-2286000J0D01*
G01*
X36286000Y-77000000D02*
G75*
G03X36286000Y-77000000I-2286000J0D01*
G01*
X47030000Y-99330000D02*
X47030000Y-96670000D01*
X34270000Y-99330000D02*
X47030000Y-99330000D01*
X34270000Y-96670000D02*
X47030000Y-96670000D01*
X34270000Y-99330000D02*
X34270000Y-96670000D01*
X33000000Y-99330000D02*
X31670000Y-99330000D01*
X31670000Y-99330000D02*
X31670000Y-98000000D01*
X38670000Y-82330000D02*
X41330000Y-82330000D01*
X38670000Y-82270000D02*
X38670000Y-82330000D01*
X41330000Y-82270000D02*
X41330000Y-82330000D01*
X38670000Y-82270000D02*
X41330000Y-82270000D01*
X38670000Y-81000000D02*
X38670000Y-79670000D01*
X38670000Y-79670000D02*
X40000000Y-79670000D01*
X41870000Y-88620000D02*
X41870000Y-85960000D01*
X34190000Y-88620000D02*
X41870000Y-88620000D01*
X34190000Y-85960000D02*
X41870000Y-85960000D01*
X34190000Y-88620000D02*
X34190000Y-85960000D01*
X32920000Y-88620000D02*
X31590000Y-88620000D01*
X31590000Y-88620000D02*
X31590000Y-87290000D01*
X47030000Y-94330000D02*
X47030000Y-91670000D01*
X34270000Y-94330000D02*
X47030000Y-94330000D01*
X34270000Y-91670000D02*
X47030000Y-91670000D01*
X34270000Y-94330000D02*
X34270000Y-91670000D01*
X33000000Y-94330000D02*
X31670000Y-94330000D01*
X31670000Y-94330000D02*
X31670000Y-93000000D01*
X76030000Y-99330000D02*
X76030000Y-96670000D01*
X63270000Y-99330000D02*
X76030000Y-99330000D01*
X63270000Y-96670000D02*
X76030000Y-96670000D01*
X63270000Y-99330000D02*
X63270000Y-96670000D01*
X62000000Y-99330000D02*
X60670000Y-99330000D01*
X60670000Y-99330000D02*
X60670000Y-98000000D01*
X75950000Y-88330000D02*
X75950000Y-85670000D01*
X68270000Y-88330000D02*
X75950000Y-88330000D01*
X68270000Y-85670000D02*
X75950000Y-85670000D01*
X68270000Y-88330000D02*
X68270000Y-85670000D01*
X67000000Y-88330000D02*
X65670000Y-88330000D01*
X65670000Y-88330000D02*
X65670000Y-87000000D01*
X63670000Y-77330000D02*
X66330000Y-77330000D01*
X63670000Y-77270000D02*
X63670000Y-77330000D01*
X66330000Y-77270000D02*
X66330000Y-77330000D01*
X63670000Y-77270000D02*
X66330000Y-77270000D01*
X63670000Y-76000000D02*
X63670000Y-74670000D01*
X63670000Y-74670000D02*
X65000000Y-74670000D01*
X76030000Y-94330000D02*
X76030000Y-91670000D01*
X63270000Y-94330000D02*
X76030000Y-94330000D01*
X63270000Y-91670000D02*
X76030000Y-91670000D01*
X63270000Y-94330000D02*
X63270000Y-91670000D01*
X62000000Y-94330000D02*
X60670000Y-94330000D01*
X60670000Y-94330000D02*
X60670000Y-93000000D01*
X76286000Y-77000000D02*
G75*
G03X76286000Y-77000000I-2286000J0D01*
G01*
X56310000Y-94310000D02*
X51190000Y-94310000D01*
X56310000Y-91690000D02*
X51190000Y-91690000D01*
X56310000Y-94310000D02*
X56310000Y-91690000D01*
X51190000Y-94310000D02*
X51190000Y-91690000D01*
X109310000Y-94310000D02*
X104190000Y-94310000D01*
X109310000Y-91690000D02*
X104190000Y-91690000D01*
X109310000Y-94310000D02*
X109310000Y-91690000D01*
X104190000Y-94310000D02*
X104190000Y-91690000D01*
X47400000Y-76980000D02*
X47400000Y-77310000D01*
X47400000Y-77310000D02*
X40980000Y-77310000D01*
X40980000Y-77310000D02*
X40980000Y-76980000D01*
X47400000Y-75020000D02*
X47400000Y-74690000D01*
X47400000Y-74690000D02*
X40980000Y-74690000D01*
X40980000Y-74690000D02*
X40980000Y-75020000D01*
X60400000Y-76980000D02*
X60400000Y-77310000D01*
X60400000Y-77310000D02*
X53980000Y-77310000D01*
X53980000Y-77310000D02*
X53980000Y-76980000D01*
X60400000Y-75020000D02*
X60400000Y-74690000D01*
X60400000Y-74690000D02*
X53980000Y-74690000D01*
X53980000Y-74690000D02*
X53980000Y-75020000D01*
X86286000Y-77000000D02*
G75*
G03X86286000Y-77000000I-2286000J0D01*
G01*
X100030000Y-94330000D02*
X100030000Y-91670000D01*
X87270000Y-94330000D02*
X100030000Y-94330000D01*
X87270000Y-91670000D02*
X100030000Y-91670000D01*
X87270000Y-94330000D02*
X87270000Y-91670000D01*
X86000000Y-94330000D02*
X84670000Y-94330000D01*
X84670000Y-94330000D02*
X84670000Y-93000000D01*
X90670000Y-82330000D02*
X93330000Y-82330000D01*
X90670000Y-82270000D02*
X90670000Y-82330000D01*
X93330000Y-82270000D02*
X93330000Y-82330000D01*
X90670000Y-82270000D02*
X93330000Y-82270000D01*
X90670000Y-81000000D02*
X90670000Y-79670000D01*
X90670000Y-79670000D02*
X92000000Y-79670000D01*
X94950000Y-88330000D02*
X94950000Y-85670000D01*
X87270000Y-88330000D02*
X94950000Y-88330000D01*
X87270000Y-85670000D02*
X94950000Y-85670000D01*
X87270000Y-88330000D02*
X87270000Y-85670000D01*
X86000000Y-88330000D02*
X84670000Y-88330000D01*
X84670000Y-88330000D02*
X84670000Y-87000000D01*
X100030000Y-99330000D02*
X100030000Y-96670000D01*
X87270000Y-99330000D02*
X100030000Y-99330000D01*
X87270000Y-96670000D02*
X100030000Y-96670000D01*
X87270000Y-99330000D02*
X87270000Y-96670000D01*
X86000000Y-99330000D02*
X84670000Y-99330000D01*
X84670000Y-99330000D02*
X84670000Y-98000000D01*
X129030000Y-94330000D02*
X129030000Y-91670000D01*
X116270000Y-94330000D02*
X129030000Y-94330000D01*
X116270000Y-91670000D02*
X129030000Y-91670000D01*
X116270000Y-94330000D02*
X116270000Y-91670000D01*
X115000000Y-94330000D02*
X113670000Y-94330000D01*
X113670000Y-94330000D02*
X113670000Y-93000000D01*
X128950000Y-88330000D02*
X128950000Y-85670000D01*
X121270000Y-88330000D02*
X128950000Y-88330000D01*
X121270000Y-85670000D02*
X128950000Y-85670000D01*
X121270000Y-88330000D02*
X121270000Y-85670000D01*
X120000000Y-88330000D02*
X118670000Y-88330000D01*
X118670000Y-88330000D02*
X118670000Y-87000000D01*
X117670000Y-77330000D02*
X120330000Y-77330000D01*
X117670000Y-77270000D02*
X117670000Y-77330000D01*
X120330000Y-77270000D02*
X120330000Y-77330000D01*
X117670000Y-77270000D02*
X120330000Y-77270000D01*
X117670000Y-76000000D02*
X117670000Y-74670000D01*
X117670000Y-74670000D02*
X119000000Y-74670000D01*
X129030000Y-99330000D02*
X129030000Y-96670000D01*
X116270000Y-99330000D02*
X129030000Y-99330000D01*
X116270000Y-96670000D02*
X129030000Y-96670000D01*
X116270000Y-99330000D02*
X116270000Y-96670000D01*
X115000000Y-99330000D02*
X113670000Y-99330000D01*
X113670000Y-99330000D02*
X113670000Y-98000000D01*
X127286000Y-77000000D02*
G75*
G03X127286000Y-77000000I-2286000J0D01*
G01*
X99400000Y-76980000D02*
X99400000Y-77310000D01*
X99400000Y-77310000D02*
X92980000Y-77310000D01*
X92980000Y-77310000D02*
X92980000Y-76980000D01*
X99400000Y-75020000D02*
X99400000Y-74690000D01*
X99400000Y-74690000D02*
X92980000Y-74690000D01*
X92980000Y-74690000D02*
X92980000Y-75020000D01*
X113400000Y-76980000D02*
X113400000Y-77310000D01*
X113400000Y-77310000D02*
X106980000Y-77310000D01*
X106980000Y-77310000D02*
X106980000Y-76980000D01*
X113400000Y-75020000D02*
X113400000Y-74690000D01*
X113400000Y-74690000D02*
X106980000Y-74690000D01*
X106980000Y-74690000D02*
X106980000Y-75020000D01*
X53060000Y-126170000D02*
X53060000Y-121050000D01*
X55680000Y-126170000D02*
X55680000Y-121050000D01*
X53060000Y-126170000D02*
X55680000Y-126170000D01*
X53060000Y-121050000D02*
X55680000Y-121050000D01*
X48030000Y-126330000D02*
X48030000Y-123670000D01*
X35270000Y-126330000D02*
X48030000Y-126330000D01*
X35270000Y-123670000D02*
X48030000Y-123670000D01*
X35270000Y-126330000D02*
X35270000Y-123670000D01*
X34000000Y-126330000D02*
X32670000Y-126330000D01*
X32670000Y-126330000D02*
X32670000Y-125000000D01*
X42950000Y-115330000D02*
X42950000Y-112670000D01*
X35270000Y-115330000D02*
X42950000Y-115330000D01*
X35270000Y-112670000D02*
X42950000Y-112670000D01*
X35270000Y-115330000D02*
X35270000Y-112670000D01*
X34000000Y-115330000D02*
X32670000Y-115330000D01*
X32670000Y-115330000D02*
X32670000Y-114000000D01*
X40500000Y-110270000D02*
X43160000Y-110270000D01*
X40500000Y-110210000D02*
X40500000Y-110270000D01*
X43160000Y-110210000D02*
X43160000Y-110270000D01*
X40500000Y-110210000D02*
X43160000Y-110210000D01*
X40500000Y-108940000D02*
X40500000Y-107610000D01*
X40500000Y-107610000D02*
X41830000Y-107610000D01*
X48030000Y-121330000D02*
X48030000Y-118670000D01*
X35270000Y-121330000D02*
X48030000Y-121330000D01*
X35270000Y-118670000D02*
X48030000Y-118670000D01*
X35270000Y-121330000D02*
X35270000Y-118670000D01*
X34000000Y-121330000D02*
X32670000Y-121330000D01*
X32670000Y-121330000D02*
X32670000Y-120000000D01*
X56286000Y-106000000D02*
G75*
G03X56286000Y-106000000I-2286000J0D01*
G01*
X48400000Y-105980000D02*
X48400000Y-106310000D01*
X48400000Y-106310000D02*
X41980000Y-106310000D01*
X41980000Y-106310000D02*
X41980000Y-105980000D01*
X48400000Y-104020000D02*
X48400000Y-103690000D01*
X48400000Y-103690000D02*
X41980000Y-103690000D01*
X41980000Y-103690000D02*
X41980000Y-104020000D01*
X36286000Y-106000000D02*
G75*
G03X36286000Y-106000000I-2286000J0D01*
G01*
X83350000Y-125250000D02*
X83350000Y-120130000D01*
X85970000Y-125250000D02*
X85970000Y-120130000D01*
X83350000Y-125250000D02*
X85970000Y-125250000D01*
X83350000Y-120130000D02*
X85970000Y-120130000D01*
X66286000Y-106000000D02*
G75*
G03X66286000Y-106000000I-2286000J0D01*
G01*
X78030000Y-126330000D02*
X78030000Y-123670000D01*
X65270000Y-126330000D02*
X78030000Y-126330000D01*
X65270000Y-123670000D02*
X78030000Y-123670000D01*
X65270000Y-126330000D02*
X65270000Y-123670000D01*
X64000000Y-126330000D02*
X62670000Y-126330000D01*
X62670000Y-126330000D02*
X62670000Y-125000000D01*
X72950000Y-115330000D02*
X72950000Y-112670000D01*
X65270000Y-115330000D02*
X72950000Y-115330000D01*
X65270000Y-112670000D02*
X72950000Y-112670000D01*
X65270000Y-115330000D02*
X65270000Y-112670000D01*
X64000000Y-115330000D02*
X62670000Y-115330000D01*
X62670000Y-115330000D02*
X62670000Y-114000000D01*
X72330000Y-110042000D02*
X74990000Y-110042000D01*
X72330000Y-109982000D02*
X72330000Y-110042000D01*
X74990000Y-109982000D02*
X74990000Y-110042000D01*
X72330000Y-109982000D02*
X74990000Y-109982000D01*
X72330000Y-108712000D02*
X72330000Y-107382000D01*
X72330000Y-107382000D02*
X73660000Y-107382000D01*
X78030000Y-121330000D02*
X78030000Y-118670000D01*
X65270000Y-121330000D02*
X78030000Y-121330000D01*
X65270000Y-118670000D02*
X78030000Y-118670000D01*
X65270000Y-121330000D02*
X65270000Y-118670000D01*
X64000000Y-121330000D02*
X62670000Y-121330000D01*
X62670000Y-121330000D02*
X62670000Y-120000000D01*
X88286000Y-106000000D02*
G75*
G03X88286000Y-106000000I-2286000J0D01*
G01*
X79918000Y-106136000D02*
X79918000Y-106466000D01*
X79918000Y-106466000D02*
X73498000Y-106466000D01*
X73498000Y-106466000D02*
X73498000Y-106136000D01*
X79918000Y-104176000D02*
X79918000Y-103846000D01*
X79918000Y-103846000D02*
X73498000Y-103846000D01*
X73498000Y-103846000D02*
X73498000Y-104176000D01*
X108950000Y-129330000D02*
X108950000Y-126670000D01*
X101270000Y-129330000D02*
X108950000Y-129330000D01*
X101270000Y-126670000D02*
X108950000Y-126670000D01*
X101270000Y-129330000D02*
X101270000Y-126670000D01*
X100000000Y-129330000D02*
X98670000Y-129330000D01*
X98670000Y-129330000D02*
X98670000Y-128000000D01*
X105060000Y-103020000D02*
X105060000Y-105680000D01*
X112740000Y-103020000D02*
X105060000Y-103020000D01*
X112740000Y-105680000D02*
X105060000Y-105680000D01*
X112740000Y-103020000D02*
X112740000Y-105680000D01*
X114010000Y-103020000D02*
X115340000Y-103020000D01*
X115340000Y-103020000D02*
X115340000Y-104350000D01*
X126810000Y-125330000D02*
X126810000Y-122670000D01*
X96270000Y-125330000D02*
X126810000Y-125330000D01*
X96270000Y-122670000D02*
X126810000Y-122670000D01*
X96270000Y-125330000D02*
X96270000Y-122670000D01*
X95000000Y-125330000D02*
X93670000Y-125330000D01*
X93670000Y-125330000D02*
X93670000Y-124000000D01*
X126810000Y-116330000D02*
X126810000Y-113670000D01*
X96270000Y-116330000D02*
X126810000Y-116330000D01*
X96270000Y-113670000D02*
X126810000Y-113670000D01*
X96270000Y-116330000D02*
X96270000Y-113670000D01*
X95000000Y-116330000D02*
X93670000Y-116330000D01*
X93670000Y-116330000D02*
X93670000Y-115000000D01*
X118690000Y-42190000D02*
X123810000Y-42190000D01*
X118690000Y-44810000D02*
X123810000Y-44810000D01*
X118690000Y-42190000D02*
X118690000Y-44810000D01*
X123810000Y-42190000D02*
X123810000Y-44810000D01*
X117670000Y-40950000D02*
X120330000Y-40950000D01*
X117670000Y-33270000D02*
X117670000Y-40950000D01*
X120330000Y-33270000D02*
X120330000Y-40950000D01*
X117670000Y-33270000D02*
X120330000Y-33270000D01*
X117670000Y-32000000D02*
X117670000Y-30670000D01*
X117670000Y-30670000D02*
X119000000Y-30670000D01*
X126670000Y-42830000D02*
X129330000Y-42830000D01*
X126670000Y-42770000D02*
X126670000Y-42830000D01*
X129330000Y-42770000D02*
X129330000Y-42830000D01*
X126670000Y-42770000D02*
X129330000Y-42770000D01*
X126670000Y-41500000D02*
X126670000Y-40170000D01*
X126670000Y-40170000D02*
X128000000Y-40170000D01*
X127150000Y-32740000D02*
X127150000Y-36340000D01*
X127877205Y-32215816D02*
G75*
G03X127150000Y-32740000I1122795J-2324184D01*
G01*
X130098807Y-32183600D02*
G75*
G02X131600000Y-34540000I-1098807J-2356400D01*
G01*
X130098807Y-36896400D02*
G75*
G03X131600000Y-34540000I-1098807J2356400D01*
G01*
X127877205Y-36864184D02*
G75*
G02X127150000Y-36340000I1122795J2324184D01*
G01*
X88330000Y-30470000D02*
X85670000Y-30470000D01*
X88330000Y-43230000D02*
X88330000Y-30470000D01*
X85670000Y-43230000D02*
X85670000Y-30470000D01*
X88330000Y-43230000D02*
X85670000Y-43230000D01*
X88330000Y-44500000D02*
X88330000Y-45830000D01*
X88330000Y-45830000D02*
X87000000Y-45830000D01*
D12*
X39190477Y-78122381D02*
X39190477Y-78836667D01*
X39142857Y-78979524D01*
X39047619Y-79074762D01*
X38904762Y-79122381D01*
X38809524Y-79122381D01*
X39619048Y-78217619D02*
X39666667Y-78170000D01*
X39761905Y-78122381D01*
X40000001Y-78122381D01*
X40095239Y-78170000D01*
X40142858Y-78217619D01*
X40190477Y-78312857D01*
X40190477Y-78408095D01*
X40142858Y-78550952D01*
X39571429Y-79122381D01*
X40190477Y-79122381D01*
X40523810Y-78122381D02*
X41190477Y-78122381D01*
X40761905Y-79122381D01*
X67452381Y-76809523D02*
X68166667Y-76809523D01*
X68309524Y-76857143D01*
X68404762Y-76952381D01*
X68452381Y-77095238D01*
X68452381Y-77190476D01*
X67452381Y-76428571D02*
X67452381Y-75809523D01*
X67833333Y-76142857D01*
X67833333Y-75999999D01*
X67880952Y-75904761D01*
X67928571Y-75857142D01*
X68023810Y-75809523D01*
X68261905Y-75809523D01*
X68357143Y-75857142D01*
X68404762Y-75904761D01*
X68452381Y-75999999D01*
X68452381Y-76285714D01*
X68404762Y-76380952D01*
X68357143Y-76428571D01*
X67547619Y-75428571D02*
X67500000Y-75380952D01*
X67452381Y-75285714D01*
X67452381Y-75047618D01*
X67500000Y-74952380D01*
X67547619Y-74904761D01*
X67642857Y-74857142D01*
X67738095Y-74857142D01*
X67880952Y-74904761D01*
X68452381Y-75476190D01*
X68452381Y-74857142D01*
X53583334Y-95917143D02*
X53535715Y-95964762D01*
X53392858Y-96012381D01*
X53297620Y-96012381D01*
X53154762Y-95964762D01*
X53059524Y-95869524D01*
X53011905Y-95774286D01*
X52964286Y-95583810D01*
X52964286Y-95440952D01*
X53011905Y-95250476D01*
X53059524Y-95155238D01*
X53154762Y-95060000D01*
X53297620Y-95012381D01*
X53392858Y-95012381D01*
X53535715Y-95060000D01*
X53583334Y-95107619D01*
X54535715Y-96012381D02*
X53964286Y-96012381D01*
X54250000Y-96012381D02*
X54250000Y-95012381D01*
X54154762Y-95155238D01*
X54059524Y-95250476D01*
X53964286Y-95298095D01*
X106583334Y-95917143D02*
X106535715Y-95964762D01*
X106392858Y-96012381D01*
X106297620Y-96012381D01*
X106154762Y-95964762D01*
X106059524Y-95869524D01*
X106011905Y-95774286D01*
X105964286Y-95583810D01*
X105964286Y-95440952D01*
X106011905Y-95250476D01*
X106059524Y-95155238D01*
X106154762Y-95060000D01*
X106297620Y-95012381D01*
X106392858Y-95012381D01*
X106535715Y-95060000D01*
X106583334Y-95107619D01*
X106964286Y-95107619D02*
X107011905Y-95060000D01*
X107107143Y-95012381D01*
X107345239Y-95012381D01*
X107440477Y-95060000D01*
X107488096Y-95107619D01*
X107535715Y-95202857D01*
X107535715Y-95298095D01*
X107488096Y-95440952D01*
X106916667Y-96012381D01*
X107535715Y-96012381D01*
X44233334Y-76452381D02*
X43900000Y-75976190D01*
X43661905Y-76452381D02*
X43661905Y-75452381D01*
X44042858Y-75452381D01*
X44138096Y-75500000D01*
X44185715Y-75547619D01*
X44233334Y-75642857D01*
X44233334Y-75785714D01*
X44185715Y-75880952D01*
X44138096Y-75928571D01*
X44042858Y-75976190D01*
X43661905Y-75976190D01*
X45185715Y-76452381D02*
X44614286Y-76452381D01*
X44900000Y-76452381D02*
X44900000Y-75452381D01*
X44804762Y-75595238D01*
X44709524Y-75690476D01*
X44614286Y-75738095D01*
X56883334Y-76342381D02*
X56550000Y-75866190D01*
X56311905Y-76342381D02*
X56311905Y-75342381D01*
X56692858Y-75342381D01*
X56788096Y-75390000D01*
X56835715Y-75437619D01*
X56883334Y-75532857D01*
X56883334Y-75675714D01*
X56835715Y-75770952D01*
X56788096Y-75818571D01*
X56692858Y-75866190D01*
X56311905Y-75866190D01*
X57264286Y-75437619D02*
X57311905Y-75390000D01*
X57407143Y-75342381D01*
X57645239Y-75342381D01*
X57740477Y-75390000D01*
X57788096Y-75437619D01*
X57835715Y-75532857D01*
X57835715Y-75628095D01*
X57788096Y-75770952D01*
X57216667Y-76342381D01*
X57835715Y-76342381D01*
X91190477Y-78122381D02*
X91190477Y-78836667D01*
X91142857Y-78979524D01*
X91047619Y-79074762D01*
X90904762Y-79122381D01*
X90809524Y-79122381D01*
X91571429Y-78122381D02*
X92190477Y-78122381D01*
X91857143Y-78503333D01*
X92000001Y-78503333D01*
X92095239Y-78550952D01*
X92142858Y-78598571D01*
X92190477Y-78693810D01*
X92190477Y-78931905D01*
X92142858Y-79027143D01*
X92095239Y-79074762D01*
X92000001Y-79122381D01*
X91714286Y-79122381D01*
X91619048Y-79074762D01*
X91571429Y-79027143D01*
X92666667Y-79122381D02*
X92857143Y-79122381D01*
X92952382Y-79074762D01*
X93000001Y-79027143D01*
X93095239Y-78884286D01*
X93142858Y-78693810D01*
X93142858Y-78312857D01*
X93095239Y-78217619D01*
X93047620Y-78170000D01*
X92952382Y-78122381D01*
X92761905Y-78122381D01*
X92666667Y-78170000D01*
X92619048Y-78217619D01*
X92571429Y-78312857D01*
X92571429Y-78550952D01*
X92619048Y-78646190D01*
X92666667Y-78693810D01*
X92761905Y-78741429D01*
X92952382Y-78741429D01*
X93047620Y-78693810D01*
X93095239Y-78646190D01*
X93142858Y-78550952D01*
X121452381Y-76809523D02*
X122166667Y-76809523D01*
X122309524Y-76857143D01*
X122404762Y-76952381D01*
X122452381Y-77095238D01*
X122452381Y-77190476D01*
X121785714Y-75904761D02*
X122452381Y-75904761D01*
X121404762Y-76142857D02*
X122119048Y-76380952D01*
X122119048Y-75761904D01*
X121785714Y-74952380D02*
X122452381Y-74952380D01*
X121404762Y-75190476D02*
X122119048Y-75428571D01*
X122119048Y-74809523D01*
X95993334Y-76392381D02*
X95660000Y-75916190D01*
X95421905Y-76392381D02*
X95421905Y-75392381D01*
X95802858Y-75392381D01*
X95898096Y-75440000D01*
X95945715Y-75487619D01*
X95993334Y-75582857D01*
X95993334Y-75725714D01*
X95945715Y-75820952D01*
X95898096Y-75868571D01*
X95802858Y-75916190D01*
X95421905Y-75916190D01*
X96326667Y-75392381D02*
X96945715Y-75392381D01*
X96612381Y-75773333D01*
X96755239Y-75773333D01*
X96850477Y-75820952D01*
X96898096Y-75868571D01*
X96945715Y-75963810D01*
X96945715Y-76201905D01*
X96898096Y-76297143D01*
X96850477Y-76344762D01*
X96755239Y-76392381D01*
X96469524Y-76392381D01*
X96374286Y-76344762D01*
X96326667Y-76297143D01*
X110063334Y-76412381D02*
X109730000Y-75936190D01*
X109491905Y-76412381D02*
X109491905Y-75412381D01*
X109872858Y-75412381D01*
X109968096Y-75460000D01*
X110015715Y-75507619D01*
X110063334Y-75602857D01*
X110063334Y-75745714D01*
X110015715Y-75840952D01*
X109968096Y-75888571D01*
X109872858Y-75936190D01*
X109491905Y-75936190D01*
X110920477Y-75745714D02*
X110920477Y-76412381D01*
X110682381Y-75364762D02*
X110444286Y-76079048D01*
X111063334Y-76079048D01*
X52167143Y-123776666D02*
X52214762Y-123824285D01*
X52262381Y-123967142D01*
X52262381Y-124062380D01*
X52214762Y-124205238D01*
X52119524Y-124300476D01*
X52024286Y-124348095D01*
X51833810Y-124395714D01*
X51690952Y-124395714D01*
X51500476Y-124348095D01*
X51405238Y-124300476D01*
X51310000Y-124205238D01*
X51262381Y-124062380D01*
X51262381Y-123967142D01*
X51310000Y-123824285D01*
X51357619Y-123776666D01*
X51262381Y-123443333D02*
X51262381Y-122824285D01*
X51643333Y-123157619D01*
X51643333Y-123014761D01*
X51690952Y-122919523D01*
X51738571Y-122871904D01*
X51833810Y-122824285D01*
X52071905Y-122824285D01*
X52167143Y-122871904D01*
X52214762Y-122919523D01*
X52262381Y-123014761D01*
X52262381Y-123300476D01*
X52214762Y-123395714D01*
X52167143Y-123443333D01*
X38622381Y-109779523D02*
X39336667Y-109779523D01*
X39479524Y-109827143D01*
X39574762Y-109922381D01*
X39622381Y-110065238D01*
X39622381Y-110160476D01*
X38622381Y-108827142D02*
X38622381Y-109303333D01*
X39098571Y-109350952D01*
X39050952Y-109303333D01*
X39003333Y-109208095D01*
X39003333Y-108969999D01*
X39050952Y-108874761D01*
X39098571Y-108827142D01*
X39193810Y-108779523D01*
X39431905Y-108779523D01*
X39527143Y-108827142D01*
X39574762Y-108874761D01*
X39622381Y-108969999D01*
X39622381Y-109208095D01*
X39574762Y-109303333D01*
X39527143Y-109350952D01*
X38622381Y-108160476D02*
X38622381Y-108065237D01*
X38670000Y-107969999D01*
X38717619Y-107922380D01*
X38812857Y-107874761D01*
X39003333Y-107827142D01*
X39241429Y-107827142D01*
X39431905Y-107874761D01*
X39527143Y-107922380D01*
X39574762Y-107969999D01*
X39622381Y-108065237D01*
X39622381Y-108160476D01*
X39574762Y-108255714D01*
X39527143Y-108303333D01*
X39431905Y-108350952D01*
X39241429Y-108398571D01*
X39003333Y-108398571D01*
X38812857Y-108350952D01*
X38717619Y-108303333D01*
X38670000Y-108255714D01*
X38622381Y-108160476D01*
X44833334Y-105452381D02*
X44500000Y-104976190D01*
X44261905Y-105452381D02*
X44261905Y-104452381D01*
X44642858Y-104452381D01*
X44738096Y-104500000D01*
X44785715Y-104547619D01*
X44833334Y-104642857D01*
X44833334Y-104785714D01*
X44785715Y-104880952D01*
X44738096Y-104928571D01*
X44642858Y-104976190D01*
X44261905Y-104976190D01*
X45738096Y-104452381D02*
X45261905Y-104452381D01*
X45214286Y-104928571D01*
X45261905Y-104880952D01*
X45357143Y-104833333D01*
X45595239Y-104833333D01*
X45690477Y-104880952D01*
X45738096Y-104928571D01*
X45785715Y-105023810D01*
X45785715Y-105261905D01*
X45738096Y-105357143D01*
X45690477Y-105404762D01*
X45595239Y-105452381D01*
X45357143Y-105452381D01*
X45261905Y-105404762D01*
X45214286Y-105357143D01*
X82457143Y-122856666D02*
X82504762Y-122904285D01*
X82552381Y-123047142D01*
X82552381Y-123142380D01*
X82504762Y-123285238D01*
X82409524Y-123380476D01*
X82314286Y-123428095D01*
X82123810Y-123475714D01*
X81980952Y-123475714D01*
X81790476Y-123428095D01*
X81695238Y-123380476D01*
X81600000Y-123285238D01*
X81552381Y-123142380D01*
X81552381Y-123047142D01*
X81600000Y-122904285D01*
X81647619Y-122856666D01*
X81885714Y-121999523D02*
X82552381Y-121999523D01*
X81504762Y-122237619D02*
X82219048Y-122475714D01*
X82219048Y-121856666D01*
X70572381Y-109521523D02*
X71286667Y-109521523D01*
X71429524Y-109569143D01*
X71524762Y-109664381D01*
X71572381Y-109807238D01*
X71572381Y-109902476D01*
X70572381Y-108569142D02*
X70572381Y-109045333D01*
X71048571Y-109092952D01*
X71000952Y-109045333D01*
X70953333Y-108950095D01*
X70953333Y-108711999D01*
X71000952Y-108616761D01*
X71048571Y-108569142D01*
X71143810Y-108521523D01*
X71381905Y-108521523D01*
X71477143Y-108569142D01*
X71524762Y-108616761D01*
X71572381Y-108711999D01*
X71572381Y-108950095D01*
X71524762Y-109045333D01*
X71477143Y-109092952D01*
X70572381Y-107664380D02*
X70572381Y-107854857D01*
X70620000Y-107950095D01*
X70667619Y-107997714D01*
X70810476Y-108092952D01*
X71000952Y-108140571D01*
X71381905Y-108140571D01*
X71477143Y-108092952D01*
X71524762Y-108045333D01*
X71572381Y-107950095D01*
X71572381Y-107759618D01*
X71524762Y-107664380D01*
X71477143Y-107616761D01*
X71381905Y-107569142D01*
X71143810Y-107569142D01*
X71048571Y-107616761D01*
X71000952Y-107664380D01*
X70953333Y-107759618D01*
X70953333Y-107950095D01*
X71000952Y-108045333D01*
X71048571Y-108092952D01*
X71143810Y-108140571D01*
X76691334Y-105588381D02*
X76358000Y-105112190D01*
X76119905Y-105588381D02*
X76119905Y-104588381D01*
X76500858Y-104588381D01*
X76596096Y-104636000D01*
X76643715Y-104683619D01*
X76691334Y-104778857D01*
X76691334Y-104921714D01*
X76643715Y-105016952D01*
X76596096Y-105064571D01*
X76500858Y-105112190D01*
X76119905Y-105112190D01*
X77548477Y-104588381D02*
X77358000Y-104588381D01*
X77262762Y-104636000D01*
X77215143Y-104683619D01*
X77119905Y-104826476D01*
X77072286Y-105016952D01*
X77072286Y-105397905D01*
X77119905Y-105493143D01*
X77167524Y-105540762D01*
X77262762Y-105588381D01*
X77453239Y-105588381D01*
X77548477Y-105540762D01*
X77596096Y-105493143D01*
X77643715Y-105397905D01*
X77643715Y-105159810D01*
X77596096Y-105064571D01*
X77548477Y-105016952D01*
X77453239Y-104969333D01*
X77262762Y-104969333D01*
X77167524Y-105016952D01*
X77119905Y-105064571D01*
X77072286Y-105159810D01*
X125357143Y-43666666D02*
X125404762Y-43714285D01*
X125452381Y-43857142D01*
X125452381Y-43952380D01*
X125404762Y-44095238D01*
X125309524Y-44190476D01*
X125214286Y-44238095D01*
X125023810Y-44285714D01*
X124880952Y-44285714D01*
X124690476Y-44238095D01*
X124595238Y-44190476D01*
X124500000Y-44095238D01*
X124452381Y-43952380D01*
X124452381Y-43857142D01*
X124500000Y-43714285D01*
X124547619Y-43666666D01*
X124452381Y-42761904D02*
X124452381Y-43238095D01*
X124928571Y-43285714D01*
X124880952Y-43238095D01*
X124833333Y-43142857D01*
X124833333Y-42904761D01*
X124880952Y-42809523D01*
X124928571Y-42761904D01*
X125023810Y-42714285D01*
X125261905Y-42714285D01*
X125357143Y-42761904D01*
X125404762Y-42809523D01*
X125452381Y-42904761D01*
X125452381Y-43142857D01*
X125404762Y-43238095D01*
X125357143Y-43285714D01*
M02*
