G04 #@! TF.FileFunction,Soldermask,Bot*
%FSLAX46Y46*%
G04 Gerber Fmt 4.6, Leading zero omitted, Abs format (unit mm)*
G04 Created by KiCad (PCBNEW 4.0.7) date 09/25/21 22:31:07*
%MOMM*%
%LPD*%
G01*
G04 APERTURE LIST*
%ADD10C,0.100000*%
%ADD11R,2.100000X2.100000*%
%ADD12O,2.100000X2.100000*%
%ADD13R,3.400000X3.400000*%
%ADD14C,3.400000*%
%ADD15C,3.448000*%
%ADD16C,2.200000*%
%ADD17R,2.200000X2.200000*%
%ADD18C,2.000000*%
%ADD19O,2.000000X2.000000*%
%ADD20C,1.920000*%
%ADD21R,1.920000X1.920000*%
G04 APERTURE END LIST*
D10*
D11*
X40397000Y-44645000D03*
D12*
X40397000Y-42105000D03*
X40397000Y-39565000D03*
X40397000Y-37025000D03*
X40397000Y-34485000D03*
X40397000Y-31945000D03*
D11*
X34397000Y-44645000D03*
D12*
X34397000Y-42105000D03*
X34397000Y-39565000D03*
X34397000Y-37025000D03*
X34397000Y-34485000D03*
X34397000Y-31945000D03*
D11*
X51923000Y-44521000D03*
D12*
X51923000Y-41981000D03*
X51923000Y-39441000D03*
X51923000Y-36901000D03*
X51923000Y-34361000D03*
X51923000Y-31821000D03*
D11*
X57923000Y-44521000D03*
D12*
X57923000Y-41981000D03*
X57923000Y-39441000D03*
X57923000Y-36901000D03*
X57923000Y-34361000D03*
X57923000Y-31821000D03*
D11*
X70084000Y-44540000D03*
D12*
X70084000Y-42000000D03*
X70084000Y-39460000D03*
X70084000Y-36920000D03*
X70084000Y-34380000D03*
X70084000Y-31840000D03*
D11*
X76084000Y-44540000D03*
D12*
X76084000Y-42000000D03*
X76084000Y-39460000D03*
X76084000Y-36920000D03*
X76084000Y-34380000D03*
X76084000Y-31840000D03*
D13*
X57000000Y-65000000D03*
D14*
X51920000Y-65000000D03*
D15*
X35000000Y-51000000D03*
D16*
X41000000Y-64445000D03*
X41000000Y-55555000D03*
D15*
X74000000Y-51000000D03*
D13*
X52000000Y-55000000D03*
D14*
X57080000Y-55000000D03*
D15*
X35000000Y-69000000D03*
D16*
X68000000Y-64445000D03*
X68000000Y-55555000D03*
D15*
X74000000Y-69000000D03*
D13*
X102000000Y-55000000D03*
D14*
X107080000Y-55000000D03*
D15*
X84000000Y-51000000D03*
D16*
X118000000Y-64445000D03*
X118000000Y-55555000D03*
D15*
X84000000Y-69000000D03*
D13*
X107000000Y-65000000D03*
D14*
X101920000Y-65000000D03*
D15*
X125000000Y-51000000D03*
D16*
X91000000Y-64445000D03*
X91000000Y-55555000D03*
D15*
X125000000Y-69000000D03*
D17*
X49970000Y-82720000D03*
D16*
X49970000Y-85260000D03*
D15*
X34000000Y-77000000D03*
D11*
X33000000Y-98000000D03*
D12*
X35540000Y-98000000D03*
X38080000Y-98000000D03*
X40620000Y-98000000D03*
X43160000Y-98000000D03*
X45700000Y-98000000D03*
D11*
X40000000Y-81000000D03*
X32920000Y-87290000D03*
D12*
X35460000Y-87290000D03*
X38000000Y-87290000D03*
X40540000Y-87290000D03*
D11*
X33000000Y-93000000D03*
D12*
X35540000Y-93000000D03*
X38080000Y-93000000D03*
X40620000Y-93000000D03*
X43160000Y-93000000D03*
X45700000Y-93000000D03*
D11*
X62000000Y-98000000D03*
D12*
X64540000Y-98000000D03*
X67080000Y-98000000D03*
X69620000Y-98000000D03*
X72160000Y-98000000D03*
X74700000Y-98000000D03*
D11*
X67000000Y-87000000D03*
D12*
X69540000Y-87000000D03*
X72080000Y-87000000D03*
X74620000Y-87000000D03*
D11*
X65000000Y-76000000D03*
X62000000Y-93000000D03*
D12*
X64540000Y-93000000D03*
X67080000Y-93000000D03*
X69620000Y-93000000D03*
X72160000Y-93000000D03*
X74700000Y-93000000D03*
D15*
X74000000Y-77000000D03*
D17*
X60000000Y-82750000D03*
D16*
X60000000Y-85290000D03*
D18*
X55000000Y-93000000D03*
X52500000Y-93000000D03*
X108000000Y-93000000D03*
X105500000Y-93000000D03*
X48000000Y-76000000D03*
D19*
X40380000Y-76000000D03*
D18*
X61000000Y-76000000D03*
D19*
X53380000Y-76000000D03*
D17*
X100710000Y-83940000D03*
D16*
X103250000Y-83940000D03*
D15*
X84000000Y-77000000D03*
D11*
X86000000Y-93000000D03*
D12*
X88540000Y-93000000D03*
X91080000Y-93000000D03*
X93620000Y-93000000D03*
X96160000Y-93000000D03*
X98700000Y-93000000D03*
D11*
X92000000Y-81000000D03*
X86000000Y-87000000D03*
D12*
X88540000Y-87000000D03*
X91080000Y-87000000D03*
X93620000Y-87000000D03*
D11*
X86000000Y-98000000D03*
D12*
X88540000Y-98000000D03*
X91080000Y-98000000D03*
X93620000Y-98000000D03*
X96160000Y-98000000D03*
X98700000Y-98000000D03*
D11*
X115000000Y-93000000D03*
D12*
X117540000Y-93000000D03*
X120080000Y-93000000D03*
X122620000Y-93000000D03*
X125160000Y-93000000D03*
X127700000Y-93000000D03*
D11*
X120000000Y-87000000D03*
D12*
X122540000Y-87000000D03*
X125080000Y-87000000D03*
X127620000Y-87000000D03*
D11*
X119000000Y-76000000D03*
X115000000Y-98000000D03*
D12*
X117540000Y-98000000D03*
X120080000Y-98000000D03*
X122620000Y-98000000D03*
X125160000Y-98000000D03*
X127700000Y-98000000D03*
D15*
X125000000Y-77000000D03*
D17*
X110750000Y-84020000D03*
D16*
X113290000Y-84020000D03*
D18*
X100000000Y-76000000D03*
D19*
X92380000Y-76000000D03*
D18*
X114000000Y-76000000D03*
D19*
X106380000Y-76000000D03*
D18*
X54370000Y-124860000D03*
X54370000Y-122360000D03*
D11*
X34000000Y-125000000D03*
D12*
X36540000Y-125000000D03*
X39080000Y-125000000D03*
X41620000Y-125000000D03*
X44160000Y-125000000D03*
X46700000Y-125000000D03*
D11*
X34000000Y-114000000D03*
D12*
X36540000Y-114000000D03*
X39080000Y-114000000D03*
X41620000Y-114000000D03*
D11*
X41830000Y-108940000D03*
X34000000Y-120000000D03*
D12*
X36540000Y-120000000D03*
X39080000Y-120000000D03*
X41620000Y-120000000D03*
X44160000Y-120000000D03*
X46700000Y-120000000D03*
D15*
X54000000Y-106000000D03*
D17*
X54000000Y-114000000D03*
D16*
X51460000Y-114000000D03*
D18*
X49000000Y-105000000D03*
D19*
X41380000Y-105000000D03*
D15*
X34000000Y-106000000D03*
D18*
X84660000Y-123940000D03*
X84660000Y-121440000D03*
D15*
X64000000Y-106000000D03*
D11*
X64000000Y-125000000D03*
D12*
X66540000Y-125000000D03*
X69080000Y-125000000D03*
X71620000Y-125000000D03*
X74160000Y-125000000D03*
X76700000Y-125000000D03*
D11*
X64000000Y-114000000D03*
D12*
X66540000Y-114000000D03*
X69080000Y-114000000D03*
X71620000Y-114000000D03*
D11*
X73660000Y-108712000D03*
X64000000Y-120000000D03*
D12*
X66540000Y-120000000D03*
X69080000Y-120000000D03*
X71620000Y-120000000D03*
X74160000Y-120000000D03*
X76700000Y-120000000D03*
D15*
X86000000Y-106000000D03*
D17*
X83370000Y-112370000D03*
D16*
X83370000Y-114910000D03*
D18*
X80518000Y-105156000D03*
D19*
X72898000Y-105156000D03*
D11*
X100000000Y-128000000D03*
D12*
X102540000Y-128000000D03*
X105080000Y-128000000D03*
X107620000Y-128000000D03*
D11*
X114010000Y-109350000D03*
D12*
X111470000Y-109350000D03*
X108930000Y-109350000D03*
X106390000Y-109350000D03*
D11*
X114010000Y-104350000D03*
D12*
X111470000Y-104350000D03*
X108930000Y-104350000D03*
X106390000Y-104350000D03*
D11*
X95000000Y-118000000D03*
D12*
X95000000Y-120540000D03*
X97540000Y-118000000D03*
X97540000Y-120540000D03*
X100080000Y-118000000D03*
X100080000Y-120540000D03*
X102620000Y-118000000D03*
X102620000Y-120540000D03*
X105160000Y-118000000D03*
X105160000Y-120540000D03*
X107700000Y-118000000D03*
X107700000Y-120540000D03*
X110240000Y-118000000D03*
X110240000Y-120540000D03*
X112780000Y-118000000D03*
X112780000Y-120540000D03*
X115320000Y-118000000D03*
X115320000Y-120540000D03*
X117860000Y-118000000D03*
X117860000Y-120540000D03*
X120400000Y-118000000D03*
X120400000Y-120540000D03*
X122940000Y-118000000D03*
X122940000Y-120540000D03*
X125480000Y-118000000D03*
X125480000Y-120540000D03*
D11*
X95000000Y-124000000D03*
D12*
X97540000Y-124000000D03*
X100080000Y-124000000D03*
X102620000Y-124000000D03*
X105160000Y-124000000D03*
X107700000Y-124000000D03*
X110240000Y-124000000D03*
X112780000Y-124000000D03*
X115320000Y-124000000D03*
X117860000Y-124000000D03*
X120400000Y-124000000D03*
X122940000Y-124000000D03*
X125480000Y-124000000D03*
D11*
X95000000Y-115000000D03*
D12*
X97540000Y-115000000D03*
X100080000Y-115000000D03*
X102620000Y-115000000D03*
X105160000Y-115000000D03*
X107700000Y-115000000D03*
X110240000Y-115000000D03*
X112780000Y-115000000D03*
X115320000Y-115000000D03*
X117860000Y-115000000D03*
X120400000Y-115000000D03*
X122940000Y-115000000D03*
X125480000Y-115000000D03*
D18*
X120000000Y-43500000D03*
X122500000Y-43500000D03*
D11*
X119000000Y-32000000D03*
D12*
X119000000Y-34540000D03*
X119000000Y-37080000D03*
X119000000Y-39620000D03*
D11*
X123000000Y-32000000D03*
D12*
X123000000Y-34540000D03*
X123000000Y-37080000D03*
X123000000Y-39620000D03*
D11*
X128000000Y-41500000D03*
D20*
X129000000Y-34540000D03*
X129000000Y-37080000D03*
D21*
X129000000Y-32000000D03*
D11*
X87000000Y-44500000D03*
D12*
X87000000Y-41960000D03*
X87000000Y-39420000D03*
X87000000Y-36880000D03*
X87000000Y-34340000D03*
X87000000Y-31800000D03*
D11*
X93000000Y-44500000D03*
D12*
X93000000Y-41960000D03*
X93000000Y-39420000D03*
X93000000Y-36880000D03*
X93000000Y-34340000D03*
X93000000Y-31800000D03*
M02*
