G04 #@! TF.FileFunction,Legend,Bot*
%FSLAX46Y46*%
G04 Gerber Fmt 4.6, Leading zero omitted, Abs format (unit mm)*
G04 Created by KiCad (PCBNEW 4.0.7) date 09/25/21 22:31:07*
%MOMM*%
%LPD*%
G01*
G04 APERTURE LIST*
%ADD10C,0.100000*%
%ADD11C,0.200000*%
%ADD12C,0.150000*%
%ADD13C,0.300000*%
%ADD14C,0.120000*%
G04 APERTURE END LIST*
D10*
D11*
X46000000Y-30000000D02*
X46000000Y-47000000D01*
X64000000Y-47000000D02*
X63500000Y-47000000D01*
X64000000Y-30000000D02*
X64000000Y-47000000D01*
X81500000Y-30000000D02*
X81500000Y-47000000D01*
X98500000Y-30000000D02*
X98500000Y-47000000D01*
D12*
X95214285Y-44952381D02*
X95785714Y-44952381D01*
X95500000Y-44952381D02*
X95500000Y-43952381D01*
X95595238Y-44095238D01*
X95690476Y-44190476D01*
X95785714Y-44238095D01*
X118214285Y-109952381D02*
X118785714Y-109952381D01*
X118500000Y-109952381D02*
X118500000Y-108952381D01*
X118595238Y-109095238D01*
X118690476Y-109190476D01*
X118785714Y-109238095D01*
X91142857Y-68702381D02*
X91714286Y-68702381D01*
X91428572Y-68702381D02*
X91428572Y-67702381D01*
X91523810Y-67845238D01*
X91619048Y-67940476D01*
X91714286Y-67988095D01*
X90761905Y-68416667D02*
X90285714Y-68416667D01*
X90857143Y-68702381D02*
X90523810Y-67702381D01*
X90190476Y-68702381D01*
X91714286Y-51297619D02*
X91666667Y-51250000D01*
X91571429Y-51202381D01*
X91333333Y-51202381D01*
X91238095Y-51250000D01*
X91190476Y-51297619D01*
X91142857Y-51392857D01*
X91142857Y-51488095D01*
X91190476Y-51630952D01*
X91761905Y-52202381D01*
X91142857Y-52202381D01*
X90761905Y-51916667D02*
X90285714Y-51916667D01*
X90857143Y-52202381D02*
X90523810Y-51202381D01*
X90190476Y-52202381D01*
X118214285Y-52202381D02*
X118785714Y-52202381D01*
X118500000Y-52202381D02*
X118500000Y-51202381D01*
X118595238Y-51345238D01*
X118690476Y-51440476D01*
X118785714Y-51488095D01*
X117452380Y-51678571D02*
X117309523Y-51726190D01*
X117261904Y-51773810D01*
X117214285Y-51869048D01*
X117214285Y-52011905D01*
X117261904Y-52107143D01*
X117309523Y-52154762D01*
X117404761Y-52202381D01*
X117785714Y-52202381D01*
X117785714Y-51202381D01*
X117452380Y-51202381D01*
X117357142Y-51250000D01*
X117309523Y-51297619D01*
X117261904Y-51392857D01*
X117261904Y-51488095D01*
X117309523Y-51583333D01*
X117357142Y-51630952D01*
X117452380Y-51678571D01*
X117785714Y-51678571D01*
X118785714Y-68047619D02*
X118738095Y-68000000D01*
X118642857Y-67952381D01*
X118404761Y-67952381D01*
X118309523Y-68000000D01*
X118261904Y-68047619D01*
X118214285Y-68142857D01*
X118214285Y-68238095D01*
X118261904Y-68380952D01*
X118833333Y-68952381D01*
X118214285Y-68952381D01*
X117452380Y-68428571D02*
X117309523Y-68476190D01*
X117261904Y-68523810D01*
X117214285Y-68619048D01*
X117214285Y-68761905D01*
X117261904Y-68857143D01*
X117309523Y-68904762D01*
X117404761Y-68952381D01*
X117785714Y-68952381D01*
X117785714Y-67952381D01*
X117452380Y-67952381D01*
X117357142Y-68000000D01*
X117309523Y-68047619D01*
X117261904Y-68142857D01*
X117261904Y-68238095D01*
X117309523Y-68333333D01*
X117357142Y-68380952D01*
X117452380Y-68428571D01*
X117785714Y-68428571D01*
X68535714Y-68047619D02*
X68488095Y-68000000D01*
X68392857Y-67952381D01*
X68154761Y-67952381D01*
X68059523Y-68000000D01*
X68011904Y-68047619D01*
X67964285Y-68142857D01*
X67964285Y-68238095D01*
X68011904Y-68380952D01*
X68583333Y-68952381D01*
X67964285Y-68952381D01*
X67202380Y-68428571D02*
X67059523Y-68476190D01*
X67011904Y-68523810D01*
X66964285Y-68619048D01*
X66964285Y-68761905D01*
X67011904Y-68857143D01*
X67059523Y-68904762D01*
X67154761Y-68952381D01*
X67535714Y-68952381D01*
X67535714Y-67952381D01*
X67202380Y-67952381D01*
X67107142Y-68000000D01*
X67059523Y-68047619D01*
X67011904Y-68142857D01*
X67011904Y-68238095D01*
X67059523Y-68333333D01*
X67107142Y-68380952D01*
X67202380Y-68428571D01*
X67535714Y-68428571D01*
X68214285Y-52202381D02*
X68785714Y-52202381D01*
X68500000Y-52202381D02*
X68500000Y-51202381D01*
X68595238Y-51345238D01*
X68690476Y-51440476D01*
X68785714Y-51488095D01*
X67452380Y-51678571D02*
X67309523Y-51726190D01*
X67261904Y-51773810D01*
X67214285Y-51869048D01*
X67214285Y-52011905D01*
X67261904Y-52107143D01*
X67309523Y-52154762D01*
X67404761Y-52202381D01*
X67785714Y-52202381D01*
X67785714Y-51202381D01*
X67452380Y-51202381D01*
X67357142Y-51250000D01*
X67309523Y-51297619D01*
X67261904Y-51392857D01*
X67261904Y-51488095D01*
X67309523Y-51583333D01*
X67357142Y-51630952D01*
X67452380Y-51678571D01*
X67785714Y-51678571D01*
X41964286Y-51297619D02*
X41916667Y-51250000D01*
X41821429Y-51202381D01*
X41583333Y-51202381D01*
X41488095Y-51250000D01*
X41440476Y-51297619D01*
X41392857Y-51392857D01*
X41392857Y-51488095D01*
X41440476Y-51630952D01*
X42011905Y-52202381D01*
X41392857Y-52202381D01*
X41011905Y-51916667D02*
X40535714Y-51916667D01*
X41107143Y-52202381D02*
X40773810Y-51202381D01*
X40440476Y-52202381D01*
X41142857Y-68202381D02*
X41714286Y-68202381D01*
X41428572Y-68202381D02*
X41428572Y-67202381D01*
X41523810Y-67345238D01*
X41619048Y-67440476D01*
X41714286Y-67488095D01*
X40761905Y-67916667D02*
X40285714Y-67916667D01*
X40857143Y-68202381D02*
X40523810Y-67202381D01*
X40190476Y-68202381D01*
X42894285Y-45156381D02*
X43465714Y-45156381D01*
X43180000Y-45156381D02*
X43180000Y-44156381D01*
X43275238Y-44299238D01*
X43370476Y-44394476D01*
X43465714Y-44442095D01*
X60420285Y-44902381D02*
X60991714Y-44902381D01*
X60706000Y-44902381D02*
X60706000Y-43902381D01*
X60801238Y-44045238D01*
X60896476Y-44140476D01*
X60991714Y-44188095D01*
X78708285Y-45156381D02*
X79279714Y-45156381D01*
X78994000Y-45156381D02*
X78994000Y-44156381D01*
X79089238Y-44299238D01*
X79184476Y-44394476D01*
X79279714Y-44442095D01*
X116214285Y-31952381D02*
X116785714Y-31952381D01*
X116500000Y-31952381D02*
X116500000Y-30952381D01*
X116595238Y-31095238D01*
X116690476Y-31190476D01*
X116785714Y-31238095D01*
D13*
X116005715Y-128077143D02*
X115505715Y-128077143D01*
X115505715Y-127291429D02*
X115505715Y-128791429D01*
X116220001Y-128791429D01*
X116720000Y-127720000D02*
X117434286Y-127720000D01*
X116577143Y-127291429D02*
X117077143Y-128791429D01*
X117577143Y-127291429D01*
X118934286Y-127434286D02*
X118862857Y-127362857D01*
X118648571Y-127291429D01*
X118505714Y-127291429D01*
X118291429Y-127362857D01*
X118148571Y-127505714D01*
X118077143Y-127648571D01*
X118005714Y-127934286D01*
X118005714Y-128148571D01*
X118077143Y-128434286D01*
X118148571Y-128577143D01*
X118291429Y-128720000D01*
X118505714Y-128791429D01*
X118648571Y-128791429D01*
X118862857Y-128720000D01*
X118934286Y-128648571D01*
X119577143Y-128077143D02*
X120077143Y-128077143D01*
X120291429Y-127291429D02*
X119577143Y-127291429D01*
X119577143Y-128791429D01*
X120291429Y-128791429D01*
X122077143Y-128791429D02*
X122077143Y-127577143D01*
X122148571Y-127434286D01*
X122220000Y-127362857D01*
X122362857Y-127291429D01*
X122648571Y-127291429D01*
X122791429Y-127362857D01*
X122862857Y-127434286D01*
X122934286Y-127577143D01*
X122934286Y-128791429D01*
X123648572Y-127291429D02*
X123648572Y-128791429D01*
X124220000Y-128791429D01*
X124362858Y-128720000D01*
X124434286Y-128648571D01*
X124505715Y-128505714D01*
X124505715Y-128291429D01*
X124434286Y-128148571D01*
X124362858Y-128077143D01*
X124220000Y-128005714D01*
X123648572Y-128005714D01*
D11*
X130000000Y-113000000D02*
X91000000Y-113000000D01*
X91000000Y-101000000D02*
X91000000Y-130000000D01*
X59000000Y-101000000D02*
X59000000Y-130000000D01*
X130000000Y-101000000D02*
X30000000Y-101000000D01*
X79000000Y-101000000D02*
X79000000Y-73000000D01*
X79000000Y-73000000D02*
X79000000Y-47000000D01*
X130000000Y-73000000D02*
X30000000Y-73000000D01*
X130000000Y-47000000D02*
X30000000Y-47000000D01*
D14*
X39067000Y-30615000D02*
X41727000Y-30615000D01*
X39067000Y-43375000D02*
X39067000Y-30615000D01*
X41727000Y-43375000D02*
X41727000Y-30615000D01*
X39067000Y-43375000D02*
X41727000Y-43375000D01*
X39067000Y-44645000D02*
X39067000Y-45975000D01*
X39067000Y-45975000D02*
X40397000Y-45975000D01*
X56593000Y-30491000D02*
X59253000Y-30491000D01*
X56593000Y-43251000D02*
X56593000Y-30491000D01*
X59253000Y-43251000D02*
X59253000Y-30491000D01*
X56593000Y-43251000D02*
X59253000Y-43251000D01*
X56593000Y-44521000D02*
X56593000Y-45851000D01*
X56593000Y-45851000D02*
X57923000Y-45851000D01*
X74754000Y-30510000D02*
X77414000Y-30510000D01*
X74754000Y-43270000D02*
X74754000Y-30510000D01*
X77414000Y-43270000D02*
X77414000Y-30510000D01*
X74754000Y-43270000D02*
X77414000Y-43270000D01*
X74754000Y-44540000D02*
X74754000Y-45870000D01*
X74754000Y-45870000D02*
X76084000Y-45870000D01*
D12*
X47839159Y-60000000D02*
G75*
G03X47839159Y-60000000I-6839159J0D01*
G01*
X74839159Y-60000000D02*
G75*
G03X74839159Y-60000000I-6839159J0D01*
G01*
X124839159Y-60000000D02*
G75*
G03X124839159Y-60000000I-6839159J0D01*
G01*
X97839159Y-60000000D02*
G75*
G03X97839159Y-60000000I-6839159J0D01*
G01*
D14*
X49970462Y-86980000D02*
G75*
G02X48425170Y-81430000I-462J2990000D01*
G01*
X49969538Y-86980000D02*
G75*
G03X51514830Y-81430000I462J2990000D01*
G01*
X52470000Y-83990000D02*
G75*
G03X52470000Y-83990000I-2500000J0D01*
G01*
X48425000Y-81430000D02*
X51515000Y-81430000D01*
X60000462Y-87010000D02*
G75*
G02X58455170Y-81460000I-462J2990000D01*
G01*
X59999538Y-87010000D02*
G75*
G03X61544830Y-81460000I462J2990000D01*
G01*
X62500000Y-84020000D02*
G75*
G03X62500000Y-84020000I-2500000J0D01*
G01*
X58455000Y-81460000D02*
X61545000Y-81460000D01*
D12*
X45000000Y-84000000D02*
X45000000Y-89000000D01*
X45000000Y-89000000D02*
X65000000Y-89000000D01*
X65000000Y-89000000D02*
X65000000Y-79000000D01*
X65000000Y-79000000D02*
X45000000Y-79000000D01*
X45000000Y-79000000D02*
X45000000Y-84000000D01*
X62500000Y-84000000D02*
G75*
G03X62500000Y-84000000I-2500000J0D01*
G01*
X52500000Y-84000000D02*
G75*
G03X52500000Y-84000000I-2500000J0D01*
G01*
D14*
X104970000Y-83939538D02*
G75*
G02X99420000Y-85484830I-2990000J-462D01*
G01*
X104970000Y-83940462D02*
G75*
G03X99420000Y-82395170I-2990000J462D01*
G01*
X104480000Y-83940000D02*
G75*
G03X104480000Y-83940000I-2500000J0D01*
G01*
X99420000Y-85485000D02*
X99420000Y-82395000D01*
D12*
X97000000Y-84000000D02*
X97000000Y-89000000D01*
X97000000Y-89000000D02*
X117000000Y-89000000D01*
X117000000Y-89000000D02*
X117000000Y-79000000D01*
X117000000Y-79000000D02*
X97000000Y-79000000D01*
X97000000Y-79000000D02*
X97000000Y-84000000D01*
X114500000Y-84000000D02*
G75*
G03X114500000Y-84000000I-2500000J0D01*
G01*
X104500000Y-84000000D02*
G75*
G03X104500000Y-84000000I-2500000J0D01*
G01*
D14*
X115010000Y-84019538D02*
G75*
G02X109460000Y-85564830I-2990000J-462D01*
G01*
X115010000Y-84020462D02*
G75*
G03X109460000Y-82475170I-2990000J462D01*
G01*
X114520000Y-84020000D02*
G75*
G03X114520000Y-84020000I-2500000J0D01*
G01*
X109460000Y-85565000D02*
X109460000Y-82475000D01*
X49740000Y-114000462D02*
G75*
G02X55290000Y-112455170I2990000J462D01*
G01*
X49740000Y-113999538D02*
G75*
G03X55290000Y-115544830I2990000J-462D01*
G01*
X55230000Y-114000000D02*
G75*
G03X55230000Y-114000000I-2500000J0D01*
G01*
X55290000Y-112455000D02*
X55290000Y-115545000D01*
X83370462Y-116630000D02*
G75*
G02X81825170Y-111080000I-462J2990000D01*
G01*
X83369538Y-116630000D02*
G75*
G03X84914830Y-111080000I462J2990000D01*
G01*
X85870000Y-113640000D02*
G75*
G03X85870000Y-113640000I-2500000J0D01*
G01*
X81825000Y-111080000D02*
X84915000Y-111080000D01*
X105060000Y-110680000D02*
X105060000Y-108020000D01*
X112740000Y-110680000D02*
X105060000Y-110680000D01*
X112740000Y-108020000D02*
X105060000Y-108020000D01*
X112740000Y-110680000D02*
X112740000Y-108020000D01*
X114010000Y-110680000D02*
X115340000Y-110680000D01*
X115340000Y-110680000D02*
X115340000Y-109350000D01*
X126810000Y-116670000D02*
X126810000Y-121870000D01*
X96270000Y-116670000D02*
X126810000Y-116670000D01*
X93670000Y-121870000D02*
X126810000Y-121870000D01*
X96270000Y-116670000D02*
X96270000Y-119270000D01*
X96270000Y-119270000D02*
X93670000Y-119270000D01*
X93670000Y-119270000D02*
X93670000Y-121870000D01*
X95000000Y-116670000D02*
X93670000Y-116670000D01*
X93670000Y-116670000D02*
X93670000Y-118000000D01*
X124330000Y-40950000D02*
X121670000Y-40950000D01*
X124330000Y-33270000D02*
X124330000Y-40950000D01*
X121670000Y-33270000D02*
X121670000Y-40950000D01*
X124330000Y-33270000D02*
X121670000Y-33270000D01*
X124330000Y-32000000D02*
X124330000Y-30670000D01*
X124330000Y-30670000D02*
X123000000Y-30670000D01*
X91670000Y-30470000D02*
X94330000Y-30470000D01*
X91670000Y-43230000D02*
X91670000Y-30470000D01*
X94330000Y-43230000D02*
X94330000Y-30470000D01*
X91670000Y-43230000D02*
X94330000Y-43230000D01*
X91670000Y-44500000D02*
X91670000Y-45830000D01*
X91670000Y-45830000D02*
X93000000Y-45830000D01*
D12*
X41809523Y-58952381D02*
X41809523Y-59666667D01*
X41857143Y-59809524D01*
X41952381Y-59904762D01*
X42095238Y-59952381D01*
X42190476Y-59952381D01*
X40809523Y-59952381D02*
X41380952Y-59952381D01*
X41095238Y-59952381D02*
X41095238Y-58952381D01*
X41190476Y-59095238D01*
X41285714Y-59190476D01*
X41380952Y-59238095D01*
X39857142Y-59952381D02*
X40428571Y-59952381D01*
X40142857Y-59952381D02*
X40142857Y-58952381D01*
X40238095Y-59095238D01*
X40333333Y-59190476D01*
X40428571Y-59238095D01*
X68809523Y-58952381D02*
X68809523Y-59666667D01*
X68857143Y-59809524D01*
X68952381Y-59904762D01*
X69095238Y-59952381D01*
X69190476Y-59952381D01*
X67809523Y-59952381D02*
X68380952Y-59952381D01*
X68095238Y-59952381D02*
X68095238Y-58952381D01*
X68190476Y-59095238D01*
X68285714Y-59190476D01*
X68380952Y-59238095D01*
X66904761Y-58952381D02*
X67380952Y-58952381D01*
X67428571Y-59428571D01*
X67380952Y-59380952D01*
X67285714Y-59333333D01*
X67047618Y-59333333D01*
X66952380Y-59380952D01*
X66904761Y-59428571D01*
X66857142Y-59523810D01*
X66857142Y-59761905D01*
X66904761Y-59857143D01*
X66952380Y-59904762D01*
X67047618Y-59952381D01*
X67285714Y-59952381D01*
X67380952Y-59904762D01*
X67428571Y-59857143D01*
X118809523Y-58952381D02*
X118809523Y-59666667D01*
X118857143Y-59809524D01*
X118952381Y-59904762D01*
X119095238Y-59952381D01*
X119190476Y-59952381D01*
X117809523Y-59952381D02*
X118380952Y-59952381D01*
X118095238Y-59952381D02*
X118095238Y-58952381D01*
X118190476Y-59095238D01*
X118285714Y-59190476D01*
X118380952Y-59238095D01*
X117333333Y-59952381D02*
X117142857Y-59952381D01*
X117047618Y-59904762D01*
X116999999Y-59857143D01*
X116904761Y-59714286D01*
X116857142Y-59523810D01*
X116857142Y-59142857D01*
X116904761Y-59047619D01*
X116952380Y-59000000D01*
X117047618Y-58952381D01*
X117238095Y-58952381D01*
X117333333Y-59000000D01*
X117380952Y-59047619D01*
X117428571Y-59142857D01*
X117428571Y-59380952D01*
X117380952Y-59476190D01*
X117333333Y-59523810D01*
X117238095Y-59571429D01*
X117047618Y-59571429D01*
X116952380Y-59523810D01*
X116904761Y-59476190D01*
X116857142Y-59380952D01*
X91809523Y-58952381D02*
X91809523Y-59666667D01*
X91857143Y-59809524D01*
X91952381Y-59904762D01*
X92095238Y-59952381D01*
X92190476Y-59952381D01*
X91380952Y-59047619D02*
X91333333Y-59000000D01*
X91238095Y-58952381D01*
X90999999Y-58952381D01*
X90904761Y-59000000D01*
X90857142Y-59047619D01*
X90809523Y-59142857D01*
X90809523Y-59238095D01*
X90857142Y-59380952D01*
X91428571Y-59952381D01*
X90809523Y-59952381D01*
X90476190Y-58952381D02*
X89857142Y-58952381D01*
X90190476Y-59333333D01*
X90047618Y-59333333D01*
X89952380Y-59380952D01*
X89904761Y-59428571D01*
X89857142Y-59523810D01*
X89857142Y-59761905D01*
X89904761Y-59857143D01*
X89952380Y-59904762D01*
X90047618Y-59952381D01*
X90333333Y-59952381D01*
X90428571Y-59904762D01*
X90476190Y-59857143D01*
X46462381Y-83013810D02*
X45462381Y-83013810D01*
X46462381Y-83490000D02*
X45462381Y-83490000D01*
X45462381Y-83728095D01*
X45510000Y-83870953D01*
X45605238Y-83966191D01*
X45700476Y-84013810D01*
X45890952Y-84061429D01*
X46033810Y-84061429D01*
X46224286Y-84013810D01*
X46319524Y-83966191D01*
X46414762Y-83870953D01*
X46462381Y-83728095D01*
X46462381Y-83490000D01*
X46462381Y-85013810D02*
X46462381Y-84442381D01*
X46462381Y-84728095D02*
X45462381Y-84728095D01*
X45605238Y-84632857D01*
X45700476Y-84537619D01*
X45748095Y-84442381D01*
X56492381Y-82900952D02*
X55492381Y-82900952D01*
X55492381Y-83281905D01*
X55540000Y-83377143D01*
X55587619Y-83424762D01*
X55682857Y-83472381D01*
X55825714Y-83472381D01*
X55920952Y-83424762D01*
X55968571Y-83377143D01*
X56016190Y-83281905D01*
X56016190Y-82900952D01*
X55492381Y-83758095D02*
X55492381Y-84329524D01*
X56492381Y-84043809D02*
X55492381Y-84043809D01*
X56492381Y-85186667D02*
X56492381Y-84615238D01*
X56492381Y-84900952D02*
X55492381Y-84900952D01*
X55635238Y-84805714D01*
X55730476Y-84710476D01*
X55778095Y-84615238D01*
X102956190Y-88352381D02*
X102956190Y-87352381D01*
X102480000Y-88352381D02*
X102480000Y-87352381D01*
X102241905Y-87352381D01*
X102099047Y-87400000D01*
X102003809Y-87495238D01*
X101956190Y-87590476D01*
X101908571Y-87780952D01*
X101908571Y-87923810D01*
X101956190Y-88114286D01*
X102003809Y-88209524D01*
X102099047Y-88304762D01*
X102241905Y-88352381D01*
X102480000Y-88352381D01*
X101527619Y-87447619D02*
X101480000Y-87400000D01*
X101384762Y-87352381D01*
X101146666Y-87352381D01*
X101051428Y-87400000D01*
X101003809Y-87447619D01*
X100956190Y-87542857D01*
X100956190Y-87638095D01*
X101003809Y-87780952D01*
X101575238Y-88352381D01*
X100956190Y-88352381D01*
X113139048Y-88432381D02*
X113139048Y-87432381D01*
X112758095Y-87432381D01*
X112662857Y-87480000D01*
X112615238Y-87527619D01*
X112567619Y-87622857D01*
X112567619Y-87765714D01*
X112615238Y-87860952D01*
X112662857Y-87908571D01*
X112758095Y-87956190D01*
X113139048Y-87956190D01*
X112281905Y-87432381D02*
X111710476Y-87432381D01*
X111996191Y-88432381D02*
X111996191Y-87432381D01*
X111424762Y-87527619D02*
X111377143Y-87480000D01*
X111281905Y-87432381D01*
X111043809Y-87432381D01*
X110948571Y-87480000D01*
X110900952Y-87527619D01*
X110853333Y-87622857D01*
X110853333Y-87718095D01*
X110900952Y-87860952D01*
X111472381Y-88432381D01*
X110853333Y-88432381D01*
X53849048Y-110492381D02*
X53849048Y-109492381D01*
X53468095Y-109492381D01*
X53372857Y-109540000D01*
X53325238Y-109587619D01*
X53277619Y-109682857D01*
X53277619Y-109825714D01*
X53325238Y-109920952D01*
X53372857Y-109968571D01*
X53468095Y-110016190D01*
X53849048Y-110016190D01*
X52991905Y-109492381D02*
X52420476Y-109492381D01*
X52706191Y-110492381D02*
X52706191Y-109492381D01*
X52182381Y-109492381D02*
X51563333Y-109492381D01*
X51896667Y-109873333D01*
X51753809Y-109873333D01*
X51658571Y-109920952D01*
X51610952Y-109968571D01*
X51563333Y-110063810D01*
X51563333Y-110301905D01*
X51610952Y-110397143D01*
X51658571Y-110444762D01*
X51753809Y-110492381D01*
X52039524Y-110492381D01*
X52134762Y-110444762D01*
X52182381Y-110397143D01*
X79862381Y-112520952D02*
X78862381Y-112520952D01*
X78862381Y-112901905D01*
X78910000Y-112997143D01*
X78957619Y-113044762D01*
X79052857Y-113092381D01*
X79195714Y-113092381D01*
X79290952Y-113044762D01*
X79338571Y-112997143D01*
X79386190Y-112901905D01*
X79386190Y-112520952D01*
X78862381Y-113378095D02*
X78862381Y-113949524D01*
X79862381Y-113663809D02*
X78862381Y-113663809D01*
X79195714Y-114711429D02*
X79862381Y-114711429D01*
X78814762Y-114473333D02*
X79529048Y-114235238D01*
X79529048Y-114854286D01*
M02*
