G04 #@! TF.FileFunction,Copper,L2,Bot,Signal*
%FSLAX46Y46*%
G04 Gerber Fmt 4.6, Leading zero omitted, Abs format (unit mm)*
G04 Created by KiCad (PCBNEW 4.0.7) date 09/21/21 22:43:12*
%MOMM*%
%LPD*%
G01*
G04 APERTURE LIST*
%ADD10C,0.100000*%
%ADD11R,1.700000X1.700000*%
%ADD12O,1.700000X1.700000*%
%ADD13R,3.000000X3.000000*%
%ADD14C,3.000000*%
%ADD15C,1.800000*%
%ADD16R,1.800000X1.800000*%
%ADD17C,1.600000*%
%ADD18O,1.600000X1.600000*%
%ADD19C,1.520000*%
%ADD20R,1.520000X1.520000*%
%ADD21C,0.500000*%
G04 APERTURE END LIST*
D10*
D11*
X40397000Y-44645000D03*
D12*
X40397000Y-42105000D03*
X40397000Y-39565000D03*
X40397000Y-37025000D03*
X40397000Y-34485000D03*
X40397000Y-31945000D03*
D11*
X34397000Y-44645000D03*
D12*
X34397000Y-42105000D03*
X34397000Y-39565000D03*
X34397000Y-37025000D03*
X34397000Y-34485000D03*
X34397000Y-31945000D03*
D11*
X51923000Y-44521000D03*
D12*
X51923000Y-41981000D03*
X51923000Y-39441000D03*
X51923000Y-36901000D03*
X51923000Y-34361000D03*
X51923000Y-31821000D03*
D11*
X57923000Y-44521000D03*
D12*
X57923000Y-41981000D03*
X57923000Y-39441000D03*
X57923000Y-36901000D03*
X57923000Y-34361000D03*
X57923000Y-31821000D03*
D11*
X70084000Y-44540000D03*
D12*
X70084000Y-42000000D03*
X70084000Y-39460000D03*
X70084000Y-36920000D03*
X70084000Y-34380000D03*
X70084000Y-31840000D03*
D11*
X76084000Y-44540000D03*
D12*
X76084000Y-42000000D03*
X76084000Y-39460000D03*
X76084000Y-36920000D03*
X76084000Y-34380000D03*
X76084000Y-31840000D03*
D13*
X57000000Y-65000000D03*
D14*
X51920000Y-65000000D03*
D15*
X41000000Y-64445000D03*
X41000000Y-55555000D03*
D13*
X52000000Y-55000000D03*
D14*
X57080000Y-55000000D03*
D15*
X68000000Y-64445000D03*
X68000000Y-55555000D03*
D13*
X102000000Y-55000000D03*
D14*
X107080000Y-55000000D03*
D15*
X118000000Y-64445000D03*
X118000000Y-55555000D03*
D13*
X107000000Y-65000000D03*
D14*
X101920000Y-65000000D03*
D15*
X91000000Y-64445000D03*
X91000000Y-55555000D03*
D16*
X49970000Y-82720000D03*
D15*
X49970000Y-85260000D03*
D11*
X33000000Y-98000000D03*
D12*
X35540000Y-98000000D03*
X38080000Y-98000000D03*
X40620000Y-98000000D03*
X43160000Y-98000000D03*
X45700000Y-98000000D03*
D11*
X40000000Y-81000000D03*
X32920000Y-87290000D03*
D12*
X35460000Y-87290000D03*
X38000000Y-87290000D03*
X40540000Y-87290000D03*
D11*
X33000000Y-93000000D03*
D12*
X35540000Y-93000000D03*
X38080000Y-93000000D03*
X40620000Y-93000000D03*
X43160000Y-93000000D03*
X45700000Y-93000000D03*
D11*
X62000000Y-98000000D03*
D12*
X64540000Y-98000000D03*
X67080000Y-98000000D03*
X69620000Y-98000000D03*
X72160000Y-98000000D03*
X74700000Y-98000000D03*
D11*
X67000000Y-87000000D03*
D12*
X69540000Y-87000000D03*
X72080000Y-87000000D03*
X74620000Y-87000000D03*
D11*
X65000000Y-76000000D03*
X62000000Y-93000000D03*
D12*
X64540000Y-93000000D03*
X67080000Y-93000000D03*
X69620000Y-93000000D03*
X72160000Y-93000000D03*
X74700000Y-93000000D03*
D16*
X60000000Y-82750000D03*
D15*
X60000000Y-85290000D03*
D17*
X55000000Y-93000000D03*
X52500000Y-93000000D03*
X108000000Y-93000000D03*
X105500000Y-93000000D03*
X48000000Y-76000000D03*
D18*
X40380000Y-76000000D03*
D17*
X61000000Y-76000000D03*
D18*
X53380000Y-76000000D03*
D16*
X100710000Y-83940000D03*
D15*
X103250000Y-83940000D03*
D11*
X86000000Y-93000000D03*
D12*
X88540000Y-93000000D03*
X91080000Y-93000000D03*
X93620000Y-93000000D03*
X96160000Y-93000000D03*
X98700000Y-93000000D03*
D11*
X92000000Y-81000000D03*
X86000000Y-87000000D03*
D12*
X88540000Y-87000000D03*
X91080000Y-87000000D03*
X93620000Y-87000000D03*
D11*
X86000000Y-98000000D03*
D12*
X88540000Y-98000000D03*
X91080000Y-98000000D03*
X93620000Y-98000000D03*
X96160000Y-98000000D03*
X98700000Y-98000000D03*
D11*
X115000000Y-93000000D03*
D12*
X117540000Y-93000000D03*
X120080000Y-93000000D03*
X122620000Y-93000000D03*
X125160000Y-93000000D03*
X127700000Y-93000000D03*
D11*
X120000000Y-87000000D03*
D12*
X122540000Y-87000000D03*
X125080000Y-87000000D03*
X127620000Y-87000000D03*
D11*
X119000000Y-76000000D03*
X115000000Y-98000000D03*
D12*
X117540000Y-98000000D03*
X120080000Y-98000000D03*
X122620000Y-98000000D03*
X125160000Y-98000000D03*
X127700000Y-98000000D03*
D16*
X110750000Y-84020000D03*
D15*
X113290000Y-84020000D03*
D17*
X100000000Y-76000000D03*
D18*
X92380000Y-76000000D03*
D17*
X114000000Y-76000000D03*
D18*
X106380000Y-76000000D03*
D17*
X54370000Y-124860000D03*
X54370000Y-122360000D03*
D11*
X34000000Y-125000000D03*
D12*
X36540000Y-125000000D03*
X39080000Y-125000000D03*
X41620000Y-125000000D03*
X44160000Y-125000000D03*
X46700000Y-125000000D03*
D11*
X34000000Y-114000000D03*
D12*
X36540000Y-114000000D03*
X39080000Y-114000000D03*
X41620000Y-114000000D03*
D11*
X41830000Y-108940000D03*
X34000000Y-120000000D03*
D12*
X36540000Y-120000000D03*
X39080000Y-120000000D03*
X41620000Y-120000000D03*
X44160000Y-120000000D03*
X46700000Y-120000000D03*
D16*
X54000000Y-114000000D03*
D15*
X51460000Y-114000000D03*
D17*
X49000000Y-105000000D03*
D18*
X41380000Y-105000000D03*
D17*
X84660000Y-123940000D03*
X84660000Y-121440000D03*
D11*
X64000000Y-125000000D03*
D12*
X66540000Y-125000000D03*
X69080000Y-125000000D03*
X71620000Y-125000000D03*
X74160000Y-125000000D03*
X76700000Y-125000000D03*
D11*
X64000000Y-114000000D03*
D12*
X66540000Y-114000000D03*
X69080000Y-114000000D03*
X71620000Y-114000000D03*
D11*
X73660000Y-108712000D03*
X64000000Y-120000000D03*
D12*
X66540000Y-120000000D03*
X69080000Y-120000000D03*
X71620000Y-120000000D03*
X74160000Y-120000000D03*
X76700000Y-120000000D03*
D16*
X83370000Y-112370000D03*
D15*
X83370000Y-114910000D03*
D17*
X80518000Y-105156000D03*
D18*
X72898000Y-105156000D03*
D11*
X100000000Y-128000000D03*
D12*
X102540000Y-128000000D03*
X105080000Y-128000000D03*
X107620000Y-128000000D03*
D11*
X114010000Y-109350000D03*
D12*
X111470000Y-109350000D03*
X108930000Y-109350000D03*
X106390000Y-109350000D03*
D11*
X114010000Y-104350000D03*
D12*
X111470000Y-104350000D03*
X108930000Y-104350000D03*
X106390000Y-104350000D03*
D11*
X95000000Y-118000000D03*
D12*
X95000000Y-120540000D03*
X97540000Y-118000000D03*
X97540000Y-120540000D03*
X100080000Y-118000000D03*
X100080000Y-120540000D03*
X102620000Y-118000000D03*
X102620000Y-120540000D03*
X105160000Y-118000000D03*
X105160000Y-120540000D03*
X107700000Y-118000000D03*
X107700000Y-120540000D03*
X110240000Y-118000000D03*
X110240000Y-120540000D03*
X112780000Y-118000000D03*
X112780000Y-120540000D03*
X115320000Y-118000000D03*
X115320000Y-120540000D03*
X117860000Y-118000000D03*
X117860000Y-120540000D03*
X120400000Y-118000000D03*
X120400000Y-120540000D03*
X122940000Y-118000000D03*
X122940000Y-120540000D03*
X125480000Y-118000000D03*
X125480000Y-120540000D03*
D11*
X95000000Y-124000000D03*
D12*
X97540000Y-124000000D03*
X100080000Y-124000000D03*
X102620000Y-124000000D03*
X105160000Y-124000000D03*
X107700000Y-124000000D03*
X110240000Y-124000000D03*
X112780000Y-124000000D03*
X115320000Y-124000000D03*
X117860000Y-124000000D03*
X120400000Y-124000000D03*
X122940000Y-124000000D03*
X125480000Y-124000000D03*
D11*
X95000000Y-115000000D03*
D12*
X97540000Y-115000000D03*
X100080000Y-115000000D03*
X102620000Y-115000000D03*
X105160000Y-115000000D03*
X107700000Y-115000000D03*
X110240000Y-115000000D03*
X112780000Y-115000000D03*
X115320000Y-115000000D03*
X117860000Y-115000000D03*
X120400000Y-115000000D03*
X122940000Y-115000000D03*
X125480000Y-115000000D03*
D17*
X120000000Y-43500000D03*
X122500000Y-43500000D03*
D11*
X119000000Y-32000000D03*
D12*
X119000000Y-34540000D03*
X119000000Y-37080000D03*
X119000000Y-39620000D03*
D11*
X123000000Y-32000000D03*
D12*
X123000000Y-34540000D03*
X123000000Y-37080000D03*
X123000000Y-39620000D03*
D11*
X128000000Y-41500000D03*
D19*
X129000000Y-34540000D03*
X129000000Y-37080000D03*
D20*
X129000000Y-32000000D03*
D11*
X87000000Y-44500000D03*
D12*
X87000000Y-41960000D03*
X87000000Y-39420000D03*
X87000000Y-36880000D03*
X87000000Y-34340000D03*
X87000000Y-31800000D03*
D11*
X93000000Y-44500000D03*
D12*
X93000000Y-41960000D03*
X93000000Y-39420000D03*
X93000000Y-36880000D03*
X93000000Y-34340000D03*
X93000000Y-31800000D03*
D21*
X34397000Y-44645000D02*
X40397000Y-44645000D01*
X34397000Y-42105000D02*
X40397000Y-42105000D01*
X34397000Y-39565000D02*
X40397000Y-39565000D01*
X34397000Y-37025000D02*
X40397000Y-37025000D01*
X34397000Y-34485000D02*
X40397000Y-34485000D01*
X34397000Y-31945000D02*
X40397000Y-31945000D01*
X51923000Y-44521000D02*
X57923000Y-44521000D01*
X51923000Y-41981000D02*
X57923000Y-41981000D01*
X51923000Y-39441000D02*
X57923000Y-39441000D01*
X51923000Y-36901000D02*
X57923000Y-36901000D01*
X51923000Y-34361000D02*
X57923000Y-34361000D01*
X51923000Y-31821000D02*
X57923000Y-31821000D01*
X70084000Y-44540000D02*
X76084000Y-44540000D01*
X70084000Y-42000000D02*
X76084000Y-42000000D01*
X70084000Y-39460000D02*
X76084000Y-39460000D01*
X70084000Y-36920000D02*
X76084000Y-36920000D01*
X70084000Y-34380000D02*
X76084000Y-34380000D01*
X70084000Y-31840000D02*
X76084000Y-31840000D01*
X123000000Y-34540000D02*
X119000000Y-34540000D01*
X123000000Y-37080000D02*
X119000000Y-37080000D01*
X41000000Y-64445000D02*
X41000000Y-65000000D01*
X41000000Y-65000000D02*
X45000000Y-69000000D01*
X45000000Y-69000000D02*
X53000000Y-69000000D01*
X53000000Y-69000000D02*
X57000000Y-65000000D01*
X41000000Y-55555000D02*
X42475000Y-55555000D01*
X42475000Y-55555000D02*
X51920000Y-65000000D01*
X52000000Y-55000000D02*
X52000000Y-57000000D01*
X68000000Y-63000000D02*
X68000000Y-64445000D01*
X64000000Y-59000000D02*
X68000000Y-63000000D01*
X54000000Y-59000000D02*
X64000000Y-59000000D01*
X52000000Y-57000000D02*
X54000000Y-59000000D01*
X57080000Y-55000000D02*
X67445000Y-55000000D01*
X67445000Y-55000000D02*
X68000000Y-55555000D01*
X102000000Y-55000000D02*
X102000000Y-56000000D01*
X102000000Y-56000000D02*
X105000000Y-59000000D01*
X105000000Y-59000000D02*
X115000000Y-59000000D01*
X115000000Y-59000000D02*
X118000000Y-62000000D01*
X118000000Y-62000000D02*
X118000000Y-64445000D01*
X107080000Y-55000000D02*
X117445000Y-55000000D01*
X117445000Y-55000000D02*
X118000000Y-55555000D01*
X107000000Y-65000000D02*
X107000000Y-66000000D01*
X107000000Y-66000000D02*
X104000000Y-69000000D01*
X104000000Y-69000000D02*
X95555000Y-69000000D01*
X95555000Y-69000000D02*
X91000000Y-64445000D01*
X91000000Y-55555000D02*
X92475000Y-55555000D01*
X92475000Y-55555000D02*
X101920000Y-65000000D01*
X49500000Y-83000000D02*
X49500000Y-77500000D01*
X49500000Y-77500000D02*
X48000000Y-76000000D01*
X49500000Y-85540000D02*
X46960000Y-85540000D01*
X43160000Y-89340000D02*
X43160000Y-93000000D01*
X46960000Y-85540000D02*
X43160000Y-89340000D01*
X43160000Y-93000000D02*
X43160000Y-92440000D01*
X43160000Y-93000000D02*
X43160000Y-98000000D01*
X33000000Y-93000000D02*
X33000000Y-98000000D01*
X32920000Y-87290000D02*
X32920000Y-92920000D01*
X32920000Y-92920000D02*
X33000000Y-93000000D01*
X35540000Y-93000000D02*
X35540000Y-98000000D01*
X35460000Y-87290000D02*
X35460000Y-91790000D01*
X35540000Y-91870000D02*
X35540000Y-93000000D01*
X35460000Y-91790000D02*
X35540000Y-91870000D01*
X38080000Y-93000000D02*
X38080000Y-98000000D01*
X38000000Y-87290000D02*
X38000000Y-92920000D01*
X38000000Y-92920000D02*
X38080000Y-93000000D01*
X40540000Y-87290000D02*
X40540000Y-92920000D01*
X40540000Y-92920000D02*
X40620000Y-93000000D01*
X40620000Y-93000000D02*
X40620000Y-98000000D01*
X45700000Y-93000000D02*
X45700000Y-98000000D01*
X40380000Y-76000000D02*
X40380000Y-80620000D01*
X40380000Y-80620000D02*
X40000000Y-81000000D01*
X40000000Y-76380000D02*
X40380000Y-76000000D01*
X62000000Y-93000000D02*
X62000000Y-98000000D01*
X67000000Y-87000000D02*
X66840000Y-87000000D01*
X66840000Y-87000000D02*
X62000000Y-91840000D01*
X62000000Y-91840000D02*
X62000000Y-93000000D01*
X64540000Y-93000000D02*
X64540000Y-98000000D01*
X69540000Y-87000000D02*
X69520000Y-87000000D01*
X69520000Y-87000000D02*
X64540000Y-91980000D01*
X64540000Y-91980000D02*
X64540000Y-93000000D01*
X67080000Y-93000000D02*
X67080000Y-98000000D01*
X72080000Y-87000000D02*
X72080000Y-87400000D01*
X72080000Y-87400000D02*
X67080000Y-92400000D01*
X67080000Y-92400000D02*
X67080000Y-93000000D01*
X69620000Y-93000000D02*
X69620000Y-98000000D01*
X74620000Y-87000000D02*
X74620000Y-87770000D01*
X74620000Y-87770000D02*
X69620000Y-92770000D01*
X69620000Y-92770000D02*
X69620000Y-93000000D01*
X65000000Y-76000000D02*
X65000000Y-80180000D01*
X61820000Y-85540000D02*
X60000000Y-85540000D01*
X63310000Y-84050000D02*
X61820000Y-85540000D01*
X63310000Y-81870000D02*
X63310000Y-84050000D01*
X65000000Y-80180000D02*
X63310000Y-81870000D01*
X61000000Y-76000000D02*
X65000000Y-76000000D01*
X74700000Y-93000000D02*
X74700000Y-98000000D01*
X55000000Y-93000000D02*
X55000000Y-92690000D01*
X55000000Y-92690000D02*
X55990000Y-91700000D01*
X55990000Y-91700000D02*
X55990000Y-85170000D01*
X55990000Y-85170000D02*
X58160000Y-83000000D01*
X58160000Y-83000000D02*
X60000000Y-83000000D01*
X59190000Y-83000000D02*
X60000000Y-83000000D01*
X72160000Y-93000000D02*
X72160000Y-98000000D01*
X52500000Y-93000000D02*
X52500000Y-90490000D01*
X52500000Y-90490000D02*
X54040000Y-88950000D01*
X54040000Y-88950000D02*
X54040000Y-76660000D01*
X54040000Y-76660000D02*
X53380000Y-76000000D01*
X111000000Y-84000000D02*
X111000000Y-90000000D01*
X111000000Y-90000000D02*
X108000000Y-93000000D01*
X127700000Y-93000000D02*
X127700000Y-98000000D01*
X125160000Y-93000000D02*
X125160000Y-98000000D01*
X106380000Y-76000000D02*
X106380000Y-92120000D01*
X106380000Y-92120000D02*
X105500000Y-93000000D01*
X101000000Y-84000000D02*
X101000000Y-77000000D01*
X101000000Y-77000000D02*
X100000000Y-76000000D01*
X96160000Y-93000000D02*
X96160000Y-90840000D01*
X103540000Y-86460000D02*
X103540000Y-84000000D01*
X101000000Y-89000000D02*
X103540000Y-86460000D01*
X98000000Y-89000000D02*
X101000000Y-89000000D01*
X96160000Y-90840000D02*
X98000000Y-89000000D01*
X96160000Y-98000000D02*
X96160000Y-93000000D01*
X86000000Y-93000000D02*
X86000000Y-99000000D01*
X86000000Y-99000000D02*
X86000000Y-98000000D01*
X86000000Y-87000000D02*
X86000000Y-93000000D01*
X88540000Y-93000000D02*
X88540000Y-98000000D01*
X88540000Y-87000000D02*
X88540000Y-93000000D01*
X91080000Y-93000000D02*
X91080000Y-98000000D01*
X91080000Y-87000000D02*
X91080000Y-93000000D01*
X93620000Y-93000000D02*
X93620000Y-98000000D01*
X93620000Y-87000000D02*
X93620000Y-93000000D01*
X98700000Y-93000000D02*
X98700000Y-98000000D01*
X92380000Y-76000000D02*
X92380000Y-80620000D01*
X92380000Y-80620000D02*
X92000000Y-81000000D01*
X115000000Y-93000000D02*
X115000000Y-98000000D01*
X115000000Y-93000000D02*
X115000000Y-92000000D01*
X115000000Y-92000000D02*
X120000000Y-87000000D01*
X117540000Y-93000000D02*
X117540000Y-92000000D01*
X117540000Y-92000000D02*
X122540000Y-87000000D01*
X117540000Y-93000000D02*
X117540000Y-98000000D01*
X120080000Y-93000000D02*
X120080000Y-92000000D01*
X120080000Y-92000000D02*
X125080000Y-87000000D01*
X120080000Y-93000000D02*
X120080000Y-98000000D01*
X122620000Y-93000000D02*
X122620000Y-92000000D01*
X122620000Y-92000000D02*
X127620000Y-87000000D01*
X122620000Y-93000000D02*
X122620000Y-98000000D01*
X113540000Y-84000000D02*
X113540000Y-76460000D01*
X113540000Y-76460000D02*
X114000000Y-76000000D01*
X114000000Y-76000000D02*
X119000000Y-76000000D01*
X54370000Y-124860000D02*
X46840000Y-124860000D01*
X46840000Y-124860000D02*
X46700000Y-125000000D01*
X46700000Y-120000000D02*
X46700000Y-125000000D01*
X54000000Y-114000000D02*
X54000000Y-115890000D01*
X49890000Y-120000000D02*
X46700000Y-120000000D01*
X54000000Y-115890000D02*
X49890000Y-120000000D01*
X54370000Y-122360000D02*
X54960000Y-122360000D01*
X54960000Y-122360000D02*
X55970000Y-123370000D01*
X55970000Y-123370000D02*
X55970000Y-126490000D01*
X55970000Y-126490000D02*
X55360000Y-127100000D01*
X55360000Y-127100000D02*
X46260000Y-127100000D01*
X46260000Y-127100000D02*
X44160000Y-125000000D01*
X44160000Y-120000000D02*
X44160000Y-112700000D01*
X39470000Y-106760000D02*
X41230000Y-105000000D01*
X39470000Y-110640000D02*
X39470000Y-106760000D01*
X40310000Y-111480000D02*
X39470000Y-110640000D01*
X42940000Y-111480000D02*
X40310000Y-111480000D01*
X44160000Y-112700000D02*
X42940000Y-111480000D01*
X41230000Y-105000000D02*
X41380000Y-105000000D01*
X44160000Y-120000000D02*
X44160000Y-125000000D01*
X34000000Y-120000000D02*
X34000000Y-114000000D01*
X34000000Y-125000000D02*
X34000000Y-120000000D01*
X36540000Y-114000000D02*
X36540000Y-120000000D01*
X36540000Y-120000000D02*
X36540000Y-125000000D01*
X39080000Y-114000000D02*
X39080000Y-120000000D01*
X39080000Y-120000000D02*
X39080000Y-125000000D01*
X41620000Y-114000000D02*
X41620000Y-120000000D01*
X41620000Y-120000000D02*
X41620000Y-125000000D01*
X46220000Y-108940000D02*
X48360000Y-108940000D01*
X51460000Y-112040000D02*
X51460000Y-114000000D01*
X48360000Y-108940000D02*
X51460000Y-112040000D01*
X41830000Y-108940000D02*
X46220000Y-108940000D01*
X46220000Y-108940000D02*
X46730000Y-108940000D01*
X49000000Y-106670000D02*
X49000000Y-105000000D01*
X46730000Y-108940000D02*
X49000000Y-106670000D01*
X83370000Y-112370000D02*
X84176000Y-112370000D01*
X84176000Y-112370000D02*
X85344000Y-113538000D01*
X85344000Y-113538000D02*
X85344000Y-117348000D01*
X85344000Y-117348000D02*
X82804000Y-119888000D01*
X82804000Y-119888000D02*
X82804000Y-125000000D01*
X84660000Y-123940000D02*
X84580000Y-123940000D01*
X84580000Y-123940000D02*
X83520000Y-125000000D01*
X83520000Y-125000000D02*
X82804000Y-125000000D01*
X82804000Y-125000000D02*
X76700000Y-125000000D01*
X76700000Y-120000000D02*
X76700000Y-125000000D01*
X72898000Y-105156000D02*
X71374000Y-105156000D01*
X74160000Y-111752000D02*
X74160000Y-120000000D01*
X73660000Y-111252000D02*
X74160000Y-111752000D01*
X72390000Y-111252000D02*
X73660000Y-111252000D01*
X70612000Y-109474000D02*
X72390000Y-111252000D01*
X70612000Y-105918000D02*
X70612000Y-109474000D01*
X71374000Y-105156000D02*
X70612000Y-105918000D01*
X74160000Y-120000000D02*
X74160000Y-125000000D01*
X84660000Y-121440000D02*
X85990000Y-121440000D01*
X75240000Y-126900000D02*
X74160000Y-125820000D01*
X84910000Y-126900000D02*
X75240000Y-126900000D01*
X86500000Y-125310000D02*
X84910000Y-126900000D01*
X86500000Y-121950000D02*
X86500000Y-125310000D01*
X85990000Y-121440000D02*
X86500000Y-121950000D01*
X74160000Y-125820000D02*
X74160000Y-125000000D01*
X64000000Y-120000000D02*
X64000000Y-125000000D01*
X64000000Y-114000000D02*
X64000000Y-120000000D01*
X66540000Y-120000000D02*
X66540000Y-114000000D01*
X66540000Y-125000000D02*
X66540000Y-120000000D01*
X69080000Y-120000000D02*
X69080000Y-125000000D01*
X69080000Y-114000000D02*
X69080000Y-120000000D01*
X71620000Y-120000000D02*
X71620000Y-114000000D01*
X71620000Y-120000000D02*
X71620000Y-125000000D01*
X76962000Y-108712000D02*
X76962000Y-112268000D01*
X79604000Y-114910000D02*
X83370000Y-114910000D01*
X76962000Y-112268000D02*
X79604000Y-114910000D01*
X73660000Y-108712000D02*
X76962000Y-108712000D01*
X76962000Y-108712000D02*
X80518000Y-105156000D01*
X100080000Y-124000000D02*
X100080000Y-127920000D01*
X100080000Y-127920000D02*
X100000000Y-128000000D01*
X100080000Y-120540000D02*
X100080000Y-124000000D01*
X105160000Y-120540000D02*
X105160000Y-124000000D01*
X102620000Y-124000000D02*
X102620000Y-124620000D01*
X102620000Y-124620000D02*
X105080000Y-127080000D01*
X105080000Y-127080000D02*
X105080000Y-128000000D01*
X102620000Y-120540000D02*
X102620000Y-124000000D01*
X107700000Y-124000000D02*
X107700000Y-127920000D01*
X107700000Y-127920000D02*
X107620000Y-128000000D01*
X107700000Y-120540000D02*
X107700000Y-124000000D01*
X95000000Y-118000000D02*
X95000000Y-115000000D01*
X95000000Y-120540000D02*
X95000000Y-124000000D01*
X97540000Y-118000000D02*
X97540000Y-115000000D01*
X97540000Y-120540000D02*
X97540000Y-124000000D01*
X100080000Y-118000000D02*
X100080000Y-115000000D01*
X102620000Y-118000000D02*
X102620000Y-115000000D01*
X105160000Y-118000000D02*
X105160000Y-115000000D01*
X107700000Y-118000000D02*
X107700000Y-115000000D01*
X110240000Y-118000000D02*
X110240000Y-115000000D01*
X110240000Y-120540000D02*
X110240000Y-124000000D01*
X112780000Y-118000000D02*
X112780000Y-115000000D01*
X112780000Y-120540000D02*
X112780000Y-124000000D01*
X115320000Y-118000000D02*
X115320000Y-115000000D01*
X115320000Y-120540000D02*
X115320000Y-124000000D01*
X117860000Y-118000000D02*
X117860000Y-115000000D01*
X117860000Y-120540000D02*
X117860000Y-124000000D01*
X120400000Y-118000000D02*
X120400000Y-115000000D01*
X120400000Y-120540000D02*
X120400000Y-124000000D01*
X122940000Y-118000000D02*
X122940000Y-115000000D01*
X122940000Y-120540000D02*
X122940000Y-124000000D01*
X125480000Y-118000000D02*
X125480000Y-115000000D01*
X125480000Y-120540000D02*
X125480000Y-124000000D01*
X114010000Y-104350000D02*
X114010000Y-109350000D01*
X111470000Y-104350000D02*
X111470000Y-109350000D01*
X108930000Y-104350000D02*
X108930000Y-109350000D01*
X106390000Y-104350000D02*
X106390000Y-109350000D01*
X129000000Y-32000000D02*
X123000000Y-32000000D01*
X123000000Y-32000000D02*
X119000000Y-32000000D01*
X129000000Y-34540000D02*
X125960000Y-34540000D01*
X125250000Y-37370000D02*
X123000000Y-39620000D01*
X125250000Y-35250000D02*
X125250000Y-37370000D01*
X125960000Y-34540000D02*
X125250000Y-35250000D01*
X123000000Y-39620000D02*
X123000000Y-43000000D01*
X123000000Y-43000000D02*
X122500000Y-43500000D01*
X123000000Y-39620000D02*
X123380000Y-39620000D01*
X123000000Y-39620000D02*
X119000000Y-39620000D01*
X129000000Y-37080000D02*
X128170000Y-37080000D01*
X128000000Y-37250000D02*
X128000000Y-41500000D01*
X128170000Y-37080000D02*
X128000000Y-37250000D01*
X93000000Y-44500000D02*
X87000000Y-44500000D01*
X93000000Y-41960000D02*
X87000000Y-41960000D01*
X93000000Y-39420000D02*
X87000000Y-39420000D01*
X93000000Y-36880000D02*
X87000000Y-36880000D01*
X93000000Y-34340000D02*
X87000000Y-34340000D01*
X93000000Y-31800000D02*
X87000000Y-31800000D01*
M02*
