<?xml version="1.0" encoding="UTF-8" standalone="no"?>
<!-- Created with Inkscape (http://www.inkscape.org/) -->

<svg
   version="1.1"
   id="svg9"
   width="457.60001"
   height="587.20001"
   viewBox="0 0 457.60001 587.20001"
   sodipodi:docname="DERPlogo.svg"
   inkscape:version="1.1.1 (3bf5ae0d25, 2021-09-20)"
   xmlns:inkscape="http://www.inkscape.org/namespaces/inkscape"
   xmlns:sodipodi="http://sodipodi.sourceforge.net/DTD/sodipodi-0.dtd"
   xmlns="http://www.w3.org/2000/svg"
   xmlns:svg="http://www.w3.org/2000/svg">
  <defs
     id="defs13" />
  <sodipodi:namedview
     id="namedview11"
     pagecolor="#ffffff"
     bordercolor="#666666"
     borderopacity="1.0"
     inkscape:pageshadow="2"
     inkscape:pageopacity="0.0"
     inkscape:pagecheckerboard="0"
     showgrid="false"
     inkscape:zoom="1.7932561"
     inkscape:cx="228.63438"
     inkscape:cy="293.60001"
     inkscape:window-width="2400"
     inkscape:window-height="1271"
     inkscape:window-x="-9"
     inkscape:window-y="-9"
     inkscape:window-maximized="1"
     inkscape:current-layer="g15" />
  <g
     inkscape:groupmode="layer"
     inkscape:label="Image"
     id="g15">
    <path
       style="fill:#000000;stroke-width:0.8"
       d="m 115.25688,544.99877 c -3.96989,-2.02431 -7.22729,-6.45414 -7.46143,-10.147 l -0.19545,-3.08269 5.52159,-2.28453 c 3.03688,-1.2565 5.80515,-2.28454 6.15172,-2.28454 0.34656,0 0.74184,1.35 0.8784,3 l 0.24829,3 14.2,0.21846 14.2,0.21846 v -9.57125 c 0,-5.26418 -0.32118,-9.76975 -0.71375,-10.01237 -0.39256,-0.24261 -9.12256,2.83776 -19.4,6.84528 -10.27743,4.00752 -19.31625,7.46676 -20.08625,7.68721 -1.25401,0.35903 -1.39943,-0.29716 -1.39454,-6.29249 l 0.006,-6.6933 17.59454,-5.94716 c 9.67686,-3.27095 17.5944,-6.18332 17.5944,-6.47195 0,-0.28864 1.44,-1.00004 3.2,-1.58089 l 3.2,-1.0561 v -4.27195 -4.27195 h 59.0744 c 32.49093,0 63.45093,-0.23532 68.80001,-0.52295 l 9.7256,-0.52293 3.7e-4,4.72293 3.8e-4,4.72295 14.19962,4.91841 c 7.80979,2.70512 15.20429,5.14567 16.43221,5.42342 1.22793,0.27775 4.19793,1.24034 6.6,2.13906 l 4.36742,1.63407 v 6.39643 c 0,6.11812 -0.0726,6.37341 -1.66705,5.86733 -0.91687,-0.291 -9.99235,-3.19527 -20.16774,-6.45391 -10.17538,-3.25864 -18.78521,-5.92481 -19.13295,-5.92481 -0.34774,0 -0.63226,4.32 -0.63226,9.6 v 9.6 h 14.35819 14.35819 l 0.24181,-3.82943 0.24181,-3.82944 6.2,1.91704 6.2,1.91705 v 3.24211 c 0,4.6813 -3.14257,9.62486 -7.44127,11.70583 -3.17191,1.5355 -4.84811,1.67684 -19.88549,1.67684 -15.59935,0 -16.59602,-0.0922 -19.90523,-1.84219 -2.38106,-1.25914 -4.06669,-2.94476 -5.32582,-5.32583 -1.73936,-3.28918 -1.84219,-4.34739 -1.84219,-18.95781 v -15.47417 h -55.9551 -55.9551 l -0.2449,16.66467 -0.24491,16.66467 -2.15484,2.82275 c -3.85268,5.04685 -5.64756,5.44806 -24.36606,5.44667 -14.29831,-8e-4 -17.07065,-0.2009 -19.42222,-1.4 z M 107.2,508.2677 v -4.70575 l 5.8647,-2.18097 c 3.22559,-1.19953 6.10559,-2.18097 6.4,-2.18097 0.29441,0 0.5353,2.13413 0.5353,4.74252 v 4.74252 l -4.36741,1.63406 C 106.92437,513.57727 107.2,513.64432 107.2,508.2677 Z m 214.20001,1.49802 -6.2,-2.0909 v -5.13071 c 0,-4.50349 0.17114,-5.08244 1.4,-4.73583 0.77,0.21718 3.6495,1.06918 6.39889,1.8933 l 4.99889,1.49843 8e-4,5.4 c 6.2e-4,2.97 -0.0889,5.36773 -0.19889,5.3283 -0.11,-0.0394 -2.99,-1.01259 -6.4,-2.16259 z m -214.03366,-15.12179 0.23365,-6.15609 25.6,-9.8498 c 14.08,-5.41738 26.23,-10.05141 27,-10.29782 1.28656,-0.41172 1.4,0.43148 1.4,10.40588 v 10.85391 h -6.4 c -5.8018,0 -6.4,-0.14514 -6.4,-1.55279 0,-0.85403 -0.32147,-1.75146 -0.71437,-1.99429 -0.39291,-0.24283 -9.58995,2.97592 -20.43788,7.15278 -10.84793,4.17687 -19.9016,7.5943 -20.11928,7.5943 -0.21768,0 -0.29063,-2.77024 -0.16212,-6.15608 z m 199.48266,-2.67507 c -10.53304,-3.45216 -19.44304,-6.09614 -19.8,-5.87553 -0.35695,0.22061 -0.649,0.91986 -0.649,1.55389 0,0.90765 -1.36095,1.15279 -6.4,1.15279 h -6.4 v -11.2 c 0,-6.16 0.13048,-11.2 0.28996,-11.2 0.98086,0 12.12745,4.98097 12.50169,5.5865 0.25127,0.40655 8.00593,3.41792 17.23259,6.69195 9.22667,3.27401 18.48576,6.60839 20.57576,7.40972 l 3.8,1.45695 v 5.42744 c 0,3.84982 -0.29067,5.40498 -1,5.35018 -0.55,-0.0425 -9.61795,-2.90174 -20.151,-6.35389 z M 107.2,474.35918 c 0,-8.89598 -0.22149,-11.15917 -1.09211,-11.15917 -0.60066,0 -2.04066,-0.74613 -3.2,-1.65807 -1.85362,-1.45805 -2.10789,-2.23006 -2.10789,-6.4 v -4.74193 h 27.63003 27.63001 l -0.23001,-7.4 -0.23003,-7.4 -21,-0.21328 -21,-0.21329 v 6.41329 6.41328 h -6.47078 -6.47078 l 0.27078,-8.6 c 0.2352,-7.46975 0.51564,-8.94329 2.13385,-11.21207 3.7245,-5.22184 4.4659,-5.36158 29.88528,-5.63268 14.51496,-0.1548 24.11164,0.0685 26.11381,0.60763 4.21687,1.13549 8.74375,6.14157 9.42905,10.42721 l 0.51329,3.20991 h 48.60278 48.60278 l 0.87196,-3.46286 c 1.14075,-4.53033 3.62802,-7.59106 7.65511,-9.42008 2.93184,-1.33157 5.57603,-1.48193 26.06288,-1.48193 20.43,0 23.13263,0.15276 26,1.46945 6.18545,2.84038 8.31056,7.28511 8.36489,17.49542 l 0.0351,6.6 h -6.36635 -6.36635 l -0.23365,-6.2 -0.23365,-6.2 h -21.2 -21.2 l -0.23003,7.4 -0.23001,7.4 H 307.16997 335.2 v 3.65259 c 0,5.2733 -2.40789,9.06032 -5.8,9.12197 -1.2635,0.023 -1.4,1.08682 -1.4,10.91103 0,8.38647 -0.22959,10.79462 -1,10.48934 -0.55,-0.21793 -3.43,-1.37472 -6.4,-2.57066 l -5.4,-2.17442 v -8.31492 -8.31493 h -14.3517 -14.35171 l -0.24829,2.71891 -0.24829,2.71892 -8,-3.17315 C 267.8934,461.45597 267.0032,460.5976 266.55715,454.43108 l -0.34945,-4.83107 H 217.50385 168.8 v 4.83636 c 0,4.06824 -0.31187,5.14824 -1.96364,6.8 -1.08,1.08 -2.7,1.96364 -3.6,1.96364 -0.9,0 -1.63636,0.45856 -1.63636,1.01903 0,0.83082 -10.371,5.38097 -12.26469,5.38097 -0.29442,0 -0.53531,-1.44 -0.53531,-3.2 v -3.2 H 134.4 120 v 8.73383 8.73383 l -3.8,1.39582 c -2.09,0.76769 -4.97,1.85909 -6.4,2.42534 l -2.6,1.02954 z m 83.53783,1.30608 c -4.96461,-2.16176 -8.36395,-6.14399 -12.80683,-15.00284 l -4.34436,-8.66241 h 7.19516 7.19517 l 2.39391,4.7423 c 3.79634,7.52051 2.80611,7.2577 27.34575,7.2577 h 21.36062 l 2.29065,-1.92746 c 1.25986,-1.0601 3.14902,-3.7601 4.19813,-6 l 1.90747,-4.07254 h 7.06326 c 3.88478,0 7.06325,0.18654 7.06325,0.41453 0,1.65313 -8.42709,16.68948 -10.5349,18.79729 -5.40258,5.40258 -6.32093,5.55459 -33.46511,5.5393 -18.61234,-0.0105 -24.98402,-0.26805 -26.86217,-1.08587 z M 135.2,344.80001 c 0,-71.07577 -0.0768,-75.20144 -1.4,-75.22613 -0.77,-0.0143 -3.38,-0.7159 -5.8,-1.55899 l -4.4,-1.53287 -4.19147,2.52285 c -8.55232,5.14765 -15.63263,14.56854 -18.26909,24.30839 -1.327774,4.90522 -1.336134,5.3594 -0.11393,6.19019 6.1801,4.20083 7.7082,5.65236 9.50812,9.03166 1.1322,2.12569 2.27632,5.0349 2.54246,6.4649 l 0.48391,2.6 h -6.78 c -5.58196,0 -6.78,-0.21847 -6.78,-1.23636 0,-0.68 -0.883638,-2.12 -1.963638,-3.2 -2.87672,-2.87673 -7.039656,-2.68343 -10.196552,0.47347 -2.105728,2.10573 -2.372984,2.83998 -1.965464,5.4 0.965336,6.06434 8.026608,8.73466 12.162016,4.59925 1.08,-1.08 1.963638,-2.34 1.963638,-2.8 0,-0.51212 2.48116,-0.83636 6.4,-0.83636 5.90039,0 6.4,0.12691 6.4,1.62569 0,4.71121 -5.04975,11.60015 -10.6,14.46067 l -2.999998,1.54616 v 8.25532 c 0,7.98104 0.06504,8.28496 1.957048,9.14702 5.39652,2.45882 11.64295,10.4705 11.64295,14.93326 0,2.00507 -0.0837,2.03188 -6.34609,2.03188 -5.65502,0 -6.40169,-0.1752 -6.856692,-1.60878 -0.615528,-1.93934 -4.326816,-3.99122 -7.219024,-3.99122 -2.538384,0 -6.778192,3.96475 -6.778192,6.33846 0,1.61875 0.360496,1.66154 14,1.66154 H 113.6 v 2.41776 c 0,1.32976 1.44,5.28177 3.2,8.78224 2.89076,5.74943 3.2,6.94954 3.2,12.4186 0,5.36116 -0.22476,6.27888 -1.96364,8.01776 -2.64196,2.64196 -5.61212,2.51096 -8.49789,-0.37483 -1.90008,-1.90006 -2.33847,-3.02157 -2.33847,-5.98227 0,-2.3407 -0.77485,-5.2237 -2.16665,-8.06154 l -2.16666,-4.41772 h -9.821824 -9.821832 l -2.411512,4.77718 c -1.634256,3.23744 -2.41152,5.95659 -2.41152,8.43637 0,6.62387 -5.456917,9.69717 -10.110612,5.69423 -1.887852,-1.62386 -2.242642,-2.61661 -2.501684,-7 -0.280032,-4.73858 -0.03751,-5.64662 3.355223,-12.56245 2.908253,-5.92825 3.657986,-8.30345 3.661534,-11.6 0.0025,-2.27993 0.376865,-5.48624 0.832024,-7.12513 1.160735,-4.17944 5.429969,-9.48376 9.400875,-11.68014 l 3.36264,-1.85994 v -8.28012 -8.28012 l -3.36264,-1.85995 c -4.115637,-2.27643 -8.283906,-7.58062 -9.503666,-12.09357 -2.541069,-9.40162 2.487793,-20.13019 11.109738,-23.70152 1.763936,-0.73064 2.556568,-1.59683 2.556568,-2.79382 0,-3.53601 2.511,-11.46527 5.68164,-17.94155 2.529528,-5.16673 4.737008,-8.15664 9.792058,-13.26274 6.26453,-6.32782 6.89531,-6.73733 15.7263,-10.20961 l 9.2,-3.61737 1.81136,1.7824 c 0.99626,0.98031 2.93126,2.00636 4.3,2.28012 4.43401,0.8868 165.61665,0.56434 168.86506,-0.33783 1.63703,-0.45465 3.49895,-1.57265 4.13759,-2.48445 1.1514,-1.64384 1.2272,-1.64656 9.00044,-0.32156 9.13877,1.55776 14.70612,4.20547 21.41379,10.18392 8.74114,7.79085 15.29904,19.28343 17.34296,30.39314 0.93643,5.08998 1.12485,5.4001 4.09461,6.73927 5.77243,2.603 10.08533,8.9628 10.80468,15.93254 0.78892,7.64392 -3.16876,15.36613 -9.89567,19.30835 l -3.47481,2.03638 v 8.24797 8.24796 l 3.47481,2.03638 c 6.36904,3.7325 10.12519,10.61831 10.12519,18.56158 0,3.42014 0.71045,5.69294 3.65707,11.69941 3.39274,6.91583 3.63526,7.82387 3.35522,12.56245 -0.25904,4.38339 -0.61383,5.37614 -2.50168,7 -2.70999,2.33103 -5.24276,2.40514 -8.00272,0.23415 -1.7706,-1.39274 -2.10789,-2.29249 -2.10789,-5.62281 0,-2.81963 -0.69651,-5.34453 -2.41152,-8.74194 l -2.41151,-4.77718 -9.78849,0.002 -9.78848,0.002 -2.2,4.21078 c -1.51167,2.8933 -2.2,5.41501 -2.2,8.05963 0,7.04631 -6.4477,10.95082 -10.83636,6.56215 -1.73888,-1.73828 -1.96364,-2.656 -1.96364,-8.01716 0,-5.46906 0.30924,-6.66917 3.2,-12.4186 1.76,-3.50047 3.2,-7.45248 3.2,-8.78224 v -2.41776 h 14.08673 14.08672 l -0.54905,-2.2 c -0.76687,-3.07272 -2.61804,-4.88879 -5.54255,-5.43744 -3.34425,-0.62738 -6.69548,0.75311 -7.8201,3.22137 -0.87351,1.91715 -1.24176,2.01607 -7.50591,2.01607 h -6.58735 l 0.62636,-2.77717 c 1.04404,-4.62913 4.55094,-9.70367 8.52521,-12.33612 2.06483,-1.3677 4.05253,-2.48671 4.41709,-2.48671 0.36457,0 0.66285,-3.75575 0.66285,-8.34609 0,-7.49479 -0.15492,-8.39527 -1.51883,-8.82815 -5.21434,-1.65496 -11.18038,-9.10247 -12.35726,-15.42576 l -0.48391,-2.6 h 6.78 c 5.58196,0 6.78,0.21846 6.78,1.23636 0,0.68 0.88364,2.12 1.96364,3.2 2.61508,2.61508 6.76581,2.6357 9.77357,0.0486 4.89788,-4.213 1.66864,-12.48492 -4.87394,-12.48492 -2.8597,0 -6.86327,2.60053 -6.86327,4.45806 0,0.89989 -1.4446,1.14194 -6.81524,1.14194 h -6.81524 l 0.51701,-2.2 c 1.4205,-6.04444 5.49312,-11.18816 11.87644,-15 1.1687,-0.69789 1.2256,-1.30734 0.4458,-4.77482 C 339.09691,283.65676 330.6391,272.74 320.42309,267.481 l -5.90628,-3.04043 -3.13543,1.76221 c -1.72448,0.96922 -4.99076,2.1601 -7.2584,2.64642 l -4.12297,0.88423 v 75.1337 75.13372 h -6.4 -6.4 v -75.2 V 269.6 h -14 -14 v 6.4 6.4 h -6.8 -6.8 V 276 269.6 H 217.6 h -28 v 6.4 6.4 h -6.4 -6.4 V 276 269.6 H 162.4 148 v 75.20001 75.2 h -6.4 -6.4 z m 69.58153,47.02748 c -13.82323,-4.84084 -24.2494,-16.40954 -27.09746,-30.06686 -0.55171,-2.64566 -0.88407,-15.20181 -0.88407,-33.4 v -29.16062 h 6.35634 6.35633 l 0.24367,30.6 0.24366,30.6 2.2058,4.48943 c 2.98661,6.07865 9.3784,11.98961 15.41441,14.25489 3.85508,1.44678 6.01795,1.73857 11.17979,1.50824 10.88573,-0.48576 19.14885,-5.6903 24.17269,-15.22524 l 2.22732,-4.22732 0.23521,-31 0.23521,-31 h 6.83798 6.83799 l -0.34115,30.2 c -0.29368,25.99776 -0.53712,30.81224 -1.7495,34.6 -3.79138,11.8451 -11.69546,21.01821 -22.55369,26.17476 -5.86553,2.78553 -6.72154,2.96356 -15.45574,3.21453 -8.0059,0.23004 -9.94639,0.0205 -14.46479,-1.56181 z m 9.54933,-26.99206 c -5.62794,-1.70555 -8.73313,-6.03051 -8.72786,-12.15633 0.004,-4.18878 2.17336,-8.06029 5.78969,-10.33052 2.01684,-1.26612 3.61199,-1.57264 7.04367,-1.35348 5.38115,0.34367 8.11203,2.13509 10.4466,6.85286 4.71971,9.53774 -4.31864,20.08872 -14.5521,16.98747 z M 176.8,290.8 v -6 h 41.2 41.20001 v 6 6.00001 H 218 176.8 Z m -61.86666,-36.93333 c -0.98236,-0.98235 -0.54679,-7.94215 0.7319,-11.69491 1.42462,-4.18104 6.04233,-9.37704 9.81912,-11.0488 1.3836,-0.61244 2.51564,-1.38565 2.51564,-1.71824 0,-0.3326 40.32,-0.60472 89.6,-0.60472 51.93707,0 89.60001,0.29983 89.60001,0.71328 0,0.3923 0.81,0.92012 1.8,1.17293 5.54017,1.41476 11.7769,10.46603 11.79218,17.11379 0.009,3.89767 0.0398,3.88782 -7.69994,2.46172 -4.14488,-0.76372 -5.09224,-1.22167 -5.09224,-2.46154 0,-0.83778 -1.05231,-2.57556 -2.33847,-3.86171 L 303.32309,241.6 h -85.55366 c -85.21201,0 -85.56204,0.006 -87.65171,1.65033 -1.15393,0.90769 -2.38987,2.77648 -2.74653,4.15289 -0.55779,2.15256 -1.41529,2.81682 -6.13143,4.74967 -6.28918,2.57754 -5.62355,2.39665 -6.30642,1.71378 z M 128.8,223.68759 c 0,-5.28575 4.05269,-18.48425 8.37883,-27.28759 12.72841,-25.90121 35.25225,-43.33864 63.46055,-49.12967 6.10156,-1.25262 29.05264,-1.07905 35.36063,0.26742 27.0565,5.77535 50.45723,24.30928 62.38469,49.41017 3.51544,7.39812 6.96187,18.61462 7.73139,25.16207 l 0.5042,4.29001 h -6.4193 -6.41931 l -0.56851,-3.8 c -2.7734,-18.53796 -15.49234,-38.89976 -30.95673,-49.55874 -27.42259,-18.90127 -60.85513,-19.2036 -88.25644,-0.79811 -14.90555,10.01207 -27.15828,28.24137 -31.07619,46.23439 l -1.72381,7.9166 -6.2,0.003 -6.2,0.003 v -2.71242 z m 56.72583,-11.949 c -11.80867,-6.23425 -11.59101,-23.36542 0.37481,-29.50035 9.65604,-4.95069 21.43284,0.6927 24.12741,11.56176 l 0.54541,2.2 h -6.88673 c -3.89039,0 -6.88673,-0.33582 -6.88673,-0.77185 0,-0.42452 -0.74414,-1.17011 -1.65364,-1.65686 -3.48652,-1.86593 -7.38816,3.46691 -4.58636,6.26871 1.36172,1.36172 5.39854,1.19892 5.9507,-0.24 0.35882,-0.93507 1.94622,-1.2 7.19014,-1.2 h 6.72964 l -0.52751,2.2 c -1.24401,5.1882 -5.15301,9.99988 -9.67727,11.912 -4.07765,1.72337 -10.62284,1.379 -14.69987,-0.77341 z m 49.27418,0.53211 C 229.89919,209.68705 225.6,203.96782 225.6,200.03188 c 0,-1.5044 0.49231,-1.63188 6.30205,-1.63188 4.62586,0 6.56693,0.31917 7.29796,1.2 1.2658,1.52521 4.31416,1.54934 5.56345,0.044 1.34954,-1.62608 0.74143,-4.45931 -1.23769,-5.76642 -1.47171,-0.97199 -1.92242,-0.91051 -3.72617,0.50832 -1.64868,1.29689 -3.24567,1.6141 -8.12578,1.6141 -5.63586,0 -6.07382,-0.12107 -6.07382,-1.67909 0,-2.754 2.36596,-6.90398 5.60372,-9.82909 6.4873,-5.86089 16.88171,-5.3332 22.74303,1.15458 3.66032,4.05154 4.45326,6.12508 4.45326,11.64541 0,6.63845 -3.12393,11.78896 -8.96813,14.78605 -3.68367,1.8891 -11.22575,1.9885 -14.63187,0.19284 z M 132,81.412009 V 58.824011 l 10,9.97599 c 8.7212,8.700255 10,10.310016 10,12.587992 v 2.612008 h 23.2 23.2 V 94.000002 104 H 165.2 132 Z m 222.40001,2 V 62.824011 l 10,9.97599 10,9.975992 V 93.387994 104 h -10 -10 z m -120,-1.2 V 61.224011 l 10,9.97599 10,9.975992 V 92.187994 103.2 h -10 -10 z M 259.79532,77.795385 234.40001,52.390768 V 38.195385 24 h 29.47222 29.47222 l 4.98668,2.491872 c 6.07147,3.033951 9.79918,7.747797 11.72427,14.825822 2.32166,8.536106 -0.21459,18.114648 -6.50883,24.581656 -3.11281,3.198246 -9.92447,6.879086 -12.75569,6.892836 -0.97136,0.0047 -5.56892,-3.780853 -11.6,-9.55129 l -9.99087,-9.559105 8.63636,-0.0409 c 8.07541,-0.03824 8.76391,-0.168438 10.6,-2.004531 1.34639,-1.346387 1.96364,-2.855219 1.96364,-4.8 v -2.836363 h -17.22573 -17.22572 l 29.82572,29.568237 29.82573,29.568236 -15.20469,0.0318 -15.20469,0.0318 z M 27.200001,78.212006 V 54.024011 l 10,9.97599 10,9.975991 v 4.212005 4.212004 l 12.2,-0.0176 c 13.691498,-0.01968 16.441608,-0.74712 21.338465,-5.64397 3.945248,-3.945218 5.626592,-8.230851 5.62528,-14.33843 C 86.36237,55.988212 83.678682,50.538861 78.634395,46.7052 74.256486,43.377985 69.378429,42.400001 57.160624,42.400001 h -9.960623 v 11.387995 11.387996 l -10,-9.975991 -10,-9.975991 V 34.212005 23.2 h 23.115732 c 20.798385,0 23.631214,0.159216 28.257705,1.588194 13.275652,4.10043 23.043482,14.520995 26.602202,28.379886 5.40918,21.065207 -7.943862,42.977858 -29.250093,48.0001 -3.906121,0.92073 -10.312006,1.21098 -26.925546,1.22 l -21.8,0.0118 z M 144.19032,62.190619 132,49.981236 V 37.390618 24.8 h 33.2 33.2 v 9.600001 9.6 h -22.17688 -22.17689 l 5.15377,5.2 5.15378,5.2 H 181.37689 198.4 v 10 10 h -21.00968 -21.00968 z m 218.79605,0.396318 -8.58636,-8.613063 V 39.386937 24.8 h 22.70813 c 26.2079,0 28.4976,0.402932 34.87555,6.137253 6.84872,6.157592 9.4132,15.048183 6.86702,23.806737 -1.74144,5.990371 -8.6404,13.37458 -13.95913,14.940986 -3.38675,0.997421 -3.56711,0.96099 -5.2,-1.050353 -0.93036,-1.145987 -3.96651,-4.817589 -6.74698,-8.159117 l -5.05542,-6.075505 h 4.05542 c 2.98874,0 4.47625,-0.420837 5.65541,-1.6 2.47577,-2.475773 2.38319,-6.600363 -0.21099,-9.4 -1.56892,-1.693172 -2.3006,-1.8 -12.32846,-1.8 -12.95162,0 -13.19319,0.359753 -5.38753,8.02311 4.41034,4.329933 13.58123,14.705282 17.83459,20.17689 1.02691,1.32103 0.32615,1.4 -12.4233,1.4 h -13.5116 z"
       id="path233" />
  </g>
</svg>
