<?xml version="1.0" encoding="UTF-8" standalone="no"?>
<!-- Created with Inkscape (http://www.inkscape.org/) -->

<svg
   version="1.1"
   id="svg9"
   width="1066.4"
   height="785.59998"
   viewBox="0 0 1066.4 785.59998"
   sodipodi:docname="Front-Template.svg"
   inkscape:version="1.1.1 (3bf5ae0d25, 2021-09-20)"
   xmlns:inkscape="http://www.inkscape.org/namespaces/inkscape"
   xmlns:sodipodi="http://sodipodi.sourceforge.net/DTD/sodipodi-0.dtd"
   xmlns="http://www.w3.org/2000/svg"
   xmlns:svg="http://www.w3.org/2000/svg">
  <defs
     id="defs13" />
  <sodipodi:namedview
     id="namedview11"
     pagecolor="#ffffff"
     bordercolor="#666666"
     borderopacity="1.0"
     inkscape:pageshadow="2"
     inkscape:pageopacity="0.0"
     inkscape:pagecheckerboard="0"
     showgrid="false"
     inkscape:zoom="0.99669046"
     inkscape:cx="396.31161"
     inkscape:cy="604.50062"
     inkscape:window-width="2238"
     inkscape:window-height="1091"
     inkscape:window-x="20"
     inkscape:window-y="146"
     inkscape:window-maximized="0"
     inkscape:current-layer="g15" />
  <g
     inkscape:groupmode="layer"
     inkscape:label="Image"
     id="g15">
    <path
       style="fill:#000000;stroke-width:0.8"
       d="m -98.918003,934.41428 v -36.8 h -25.999997 -26 v -34.8 -34.8 h 34.4 34.399997 v 19.2 19.2 H -3.7180028 74.681997 v 52.4 52.4 h -86.8 -86.8 z M 234.682,922.52594 c 0,-26.77859 0.22894,-50.35859 0.50874,-52.4 l 0.50874,-3.71166 H 351.19074 466.682 v 52.4 52.4 h -116 -116 z m 374.4,-3.71166 v -52.4 h 121.2 121.2 v 52.4 52.4 h -121.2 -121.2 z m -749.6,21.6 v -14.8 h 13.6 13.6 v 14.8 14.8 h -13.6 -13.6 z m 1017.6,0.4 v -13.6 h 12.4 12.4 v 13.6 13.6 h -12.4 -12.4 z m -980,-681.99998 v -73.2 h 80.369177 80.36917 l -0.08689,73.2 -0.08691,73.2 H -22.635723 -102.918 Z m 384,-22.8 v -50.4 h 134.68603 134.68604 l 0.51396,4.91735 c 0.28268,2.70454 0.51397,25.38454 0.51397,50.4 v 45.48265 h -135.2 -135.2 z m 592.8,-19.2 v -14.4 h 14.8 14.8 v 14.4 14.4 h -14.8 -14.8 z m -1014.20003,-2 -0.017,-13.2 h 12.63483 12.63482 l -0.0303,13.2 -0.0303,13.2 h -12.58752 -12.58753 l -0.017,-13.2 z"
       id="path227" />
  </g>
</svg>
