M48
;DRILL file {KiCad 4.0.7} date 09/20/21 22:32:43
;FORMAT={-:-/ absolute / inch / decimal}
FMAT,2
INCH,TZ
T1C0.016
T2C0.030
T3C0.031
T4C0.035
T5C0.039
T6C0.043
T7C0.047
T8C0.059
T9C0.060
%
G90
G05
M72
T1
X3.9457Y-2.2232
X4.2791Y-2.2717
X4.313Y-1.887
X4.3831Y-2.2598
X4.5449Y-1.7685
X5.4646Y-3.8031
X5.5031Y-4.3807
X5.5091Y-3.9984
X5.5213Y-3.7787
X5.5283Y-3.5087
X5.5681Y-4.2102
X5.637Y-2.8484
X5.7913Y-3.9043
X5.9488Y-2.463
X5.96Y-3.26
X5.99Y-3.59
X5.9957Y-2.189
X6.0358Y-2.5094
X6.04Y-2.14
X6.2189Y-3.6
X6.5835Y-2.8114
X6.6118Y-2.9154
X6.665Y-3.0008
X6.7331Y-2.8984
X6.7465Y-4.0437
X6.7484Y-4.6508
X6.7937Y-2.6839
X6.924Y-3.6961
X7.2059Y-4.7673
X7.2705Y-4.737
X7.3276Y-4.698
X7.3358Y-4.487
X7.3425Y-4.5795
T2
X2.878Y-5.213
X2.878Y-5.413
T3
X2.3339Y-4.6114
X2.3339Y-4.7098
X2.34Y-4.91
X2.34Y-5.21
X2.47Y-4.89
X2.5684Y-4.89
X2.624Y-2.0441
X2.6248Y-2.172
X2.6323Y-3.048
X2.66Y-3.1631
X2.66Y-3.36
X2.6657Y-2.398
X2.6752Y-2.6004
X2.6752Y-2.9004
X2.69Y-4.91
X2.7941Y-3.165
X2.7941Y-3.465
X2.8291Y-3.048
X2.8941Y-2.6236
X2.9098Y-3.3197
X2.91Y-3.45
X2.9114Y-3.1906
X2.924Y-2.0441
X2.9248Y-2.172
X2.94Y-3.56
X2.94Y-3.86
X2.9657Y-2.398
X2.99Y-4.91
X2.9925Y-2.6236
X3.0043Y-2.7598
X3.0043Y-3.0598
X3.0315Y-2.1118
X3.1Y-4.63
X3.1Y-4.93
X3.1043Y-2.7598
X3.1043Y-3.0598
X3.12Y-3.62
X3.12Y-3.72
X3.12Y-3.82
X3.1299Y-2.1118
X3.1358Y-2.6004
X3.1386Y-2.4685
X3.2043Y-2.7598
X3.2043Y-3.0598
X3.2098Y-3.3197
X3.21Y-3.45
X3.21Y-4.89
X3.2114Y-3.1906
X3.2276Y-4.3693
X3.29Y-5.09
X3.29Y-5.39
X3.298Y-2.1
X3.3Y-3.39
X3.3Y-3.58
X3.3Y-3.68
X3.3Y-3.78
X3.3Y-3.88
X3.3035Y-4.011
X3.3043Y-2.7598
X3.3043Y-3.0598
X3.3539Y-1.626
X3.398Y-2.1
X3.402Y-4.011
X3.42Y-5.08
X3.42Y-5.18
X3.42Y-5.28
X3.42Y-5.38
X3.4244Y-4.3693
X3.4358Y-2.6004
X3.4386Y-2.4685
X3.45Y-3.0431
X3.45Y-3.24
X3.4528Y-2.7579
X3.4528Y-2.8563
X3.498Y-2.1
X3.51Y-4.89
X3.55Y-4.1
X3.55Y-4.4
X3.5819Y-2.6744
X3.5819Y-2.9744
X3.6Y-3.39
X3.6Y-3.58
X3.6Y-3.68
X3.6Y-3.78
X3.6Y-3.88
X3.6539Y-1.626
X3.68Y-4.8
X3.68Y-4.8984
X3.69Y-4.1
X3.69Y-4.4
X3.6933Y-2.0957
X3.72Y-5.08
X3.72Y-5.18
X3.72Y-5.28
X3.72Y-5.38
X3.73Y-5.54
X3.74Y-3.4716
X3.74Y-3.57
X3.7917Y-2.0957
X3.7929Y-3.7378
X3.7929Y-3.8378
X3.7929Y-3.9378
X3.8039Y-2.5335
X3.8039Y-2.7303
X3.811Y-2.8268
X3.811Y-3.1268
X3.8284Y-5.54
X3.87Y-4.94
X3.9126Y-2.5697
X3.9138Y-5.1303
X3.9138Y-5.2303
X3.9138Y-5.3303
X3.9299Y-2.1031
X3.9299Y-2.4031
X3.9358Y-4.0921
X3.9358Y-4.3921
X3.9684Y-4.94
X3.9862Y-3.6862
X3.9862Y-3.9862
X4.0299Y-2.1031
X4.0299Y-2.4031
X4.0522Y-4.4705
X4.0835Y-2.7047
X4.0846Y-5.0925
X4.0846Y-5.3925
X4.1094Y-2.5697
X4.1299Y-2.1031
X4.1299Y-2.4031
X4.13Y-4.
X4.13Y-4.3
X4.1522Y-4.4705
X4.22Y-5.09
X4.22Y-5.39
X4.2299Y-2.1031
X4.2299Y-2.4031
X4.25Y-2.83
X4.25Y-3.13
X4.2522Y-4.4705
X4.26Y-4.
X4.26Y-4.3
X4.3299Y-2.1031
X4.3299Y-2.4031
X4.33Y-5.1
X4.33Y-5.51
X4.33Y-5.6084
X4.38Y-2.83
X4.38Y-3.13
X4.3835Y-2.7047
X4.4299Y-2.1031
X4.4299Y-2.4031
X4.4331Y-4.96
X4.4685Y-5.3299
X4.4685Y-5.6299
X4.4827Y-3.322
X4.5224Y-5.2283
X4.5299Y-2.1031
X4.5299Y-2.4031
X4.58Y-2.59
X4.58Y-2.6884
X4.58Y-2.88
X4.58Y-2.98
X4.58Y-3.08
X4.6299Y-2.1031
X4.6299Y-2.4031
X4.63Y-4.96
X4.63Y-5.1
X4.64Y-3.5
X4.67Y-4.29
X4.67Y-4.42
X4.73Y-4.98
X4.73Y-5.11
X4.75Y-4.6731
X4.75Y-4.87
X4.77Y-2.62
X4.77Y-2.83
X4.77Y-2.93
X4.77Y-3.03
X4.77Y-3.13
X4.7827Y-3.322
X4.8224Y-5.2283
X4.8669Y-4.29
X4.8669Y-4.42
X4.92Y-3.2816
X4.92Y-3.38
X4.94Y-3.5
X4.94Y-3.76
X4.9539Y-2.4421
X5.03Y-4.2479
X5.03Y-4.44
X5.03Y-4.98
X5.03Y-5.11
X5.0488Y-3.3453
X5.0488Y-3.6453
X5.0524Y-2.4421
X5.07Y-2.62
X5.07Y-2.83
X5.07Y-2.93
X5.07Y-3.03
X5.07Y-3.13
X5.0807Y-4.0463
X5.17Y-2.46
X5.17Y-2.59
X5.1713Y-3.3445
X5.1713Y-3.6445
X5.1791Y-4.0463
X5.19Y-4.95
X5.19Y-5.05
X5.19Y-5.15
X5.2Y-2.72
X5.21Y-2.83
X5.21Y-3.13
X5.24Y-3.76
X5.2984Y-2.72
X5.34Y-2.83
X5.34Y-3.13
X5.36Y-3.46
X5.36Y-3.56
X5.36Y-3.66
X5.36Y-3.76
X5.36Y-3.86
X5.36Y-3.96
X5.36Y-4.06
X5.36Y-4.16
X5.36Y-4.26
X5.36Y-4.36
X5.36Y-4.46
X5.36Y-4.56
X5.36Y-4.66
X5.36Y-4.76
X5.4358Y-1.635
X5.4358Y-1.935
X5.46Y-2.83
X5.46Y-3.13
X5.47Y-2.46
X5.47Y-2.59
X5.5004Y-2.052
X5.5004Y-2.352
X5.63Y-2.03
X5.63Y-2.33
X5.66Y-3.46
X5.66Y-3.56
X5.66Y-3.66
X5.66Y-3.76
X5.66Y-3.86
X5.66Y-3.96
X5.66Y-4.06
X5.66Y-4.16
X5.66Y-4.26
X5.66Y-4.36
X5.66Y-4.46
X5.66Y-4.56
X5.66Y-4.66
X5.66Y-4.76
X5.765Y-2.3894
X5.765Y-2.6894
X5.8016Y-3.44
X5.8256Y-3.0756
X5.865Y-2.3894
X5.865Y-2.6894
X5.9Y-3.44
X5.924Y-3.0756
X5.9488Y-5.3146
X5.9488Y-5.6146
X5.965Y-2.3894
X5.965Y-2.6894
X6.065Y-2.3894
X6.065Y-2.6894
X6.0724Y-3.1429
X6.0724Y-3.2429
X6.0724Y-3.3429
X6.0724Y-3.4429
X6.0724Y-3.5429
X6.0724Y-3.6429
X6.0724Y-3.7429
X6.0724Y-3.8429
X6.1126Y-1.6681
X6.1126Y-1.7665
X6.165Y-2.3894
X6.165Y-2.6894
X6.2358Y-1.5996
X6.2358Y-1.8996
X6.265Y-2.3894
X6.265Y-2.6894
X6.34Y-4.22
X6.34Y-4.52
X6.365Y-2.3894
X6.365Y-2.6894
X6.3724Y-3.1429
X6.3724Y-3.2429
X6.3724Y-3.3429
X6.3724Y-3.4429
X6.3724Y-3.5429
X6.3724Y-3.6429
X6.3724Y-3.7429
X6.3724Y-3.8429
X6.465Y-2.3894
X6.465Y-2.6894
X6.4681Y-2.8177
X6.4681Y-2.9161
X6.47Y-4.22
X6.47Y-4.52
X6.5118Y-4.6886
X6.5118Y-4.787
X6.6122Y-2.0283
X6.6122Y-2.3283
X6.6307Y-3.1031
X6.6307Y-3.4031
X6.6319Y-3.5685
X6.6319Y-3.6669
X6.6661Y-4.0882
X6.6661Y-4.1882
X6.6661Y-4.2882
X6.6661Y-4.3882
X6.6661Y-4.4882
X6.6661Y-4.5882
X6.6661Y-4.6882
X6.6661Y-4.7882
X6.7004Y-3.8461
X6.767Y-2.9598
X6.767Y-3.0598
X6.767Y-3.1598
X6.767Y-3.2598
X6.767Y-3.3598
X6.767Y-3.4598
X6.767Y-3.5598
X6.767Y-3.6598
X6.8585Y-2.373
X6.9661Y-4.0882
X6.9661Y-4.1882
X6.9661Y-4.2882
X6.9661Y-4.3882
X6.9661Y-4.4882
X6.9661Y-4.5882
X6.9661Y-4.6882
X6.9661Y-4.7882
X7.0004Y-3.8461
X7.067Y-2.9598
X7.067Y-3.0598
X7.067Y-3.1598
X7.067Y-3.2598
X7.067Y-3.3598
X7.067Y-3.4598
X7.067Y-3.5598
X7.067Y-3.6598
X7.0738Y-2.0787
X7.0738Y-2.1772
X7.1585Y-2.373
X7.1846Y-4.4429
X7.1878Y-4.2228
X7.22Y-1.94
X7.2283Y-2.5118
X7.2283Y-2.6102
X7.2831Y-4.4429
X7.2862Y-4.2228
X7.4116Y-2.55
X7.51Y-2.55
X7.52Y-1.94
T4
X2.3406Y-2.0722
X2.3406Y-2.1722
X2.6969Y-1.722
X2.6969Y-1.822
X3.0906Y-1.722
X3.0906Y-1.822
X4.3154Y-1.7579
X4.4154Y-1.7579
X4.65Y-5.47
X4.7134Y-1.7717
X4.75Y-5.47
X4.8134Y-1.7717
X5.1075Y-1.7717
X5.1681Y-5.4724
X5.2075Y-1.7717
X5.2681Y-5.4724
X5.5606Y-5.4724
X5.6606Y-5.4724
X6.513Y-1.6996
X6.513Y-1.7996
X6.8079Y-2.1209
X6.8079Y-2.2209
X6.9075Y-1.6996
X6.9075Y-1.7996
X7.35Y-1.7
X7.35Y-1.8
T5
X3.5244Y-1.8358
X3.6244Y-1.8358
X3.7244Y-1.8358
X3.8244Y-1.8358
X3.9244Y-1.8358
X4.0244Y-1.8358
X4.2614Y-3.4476
X4.2614Y-3.5476
X4.2614Y-3.6476
X4.2614Y-3.7476
X5.72Y-2.92
X5.82Y-2.92
X5.92Y-2.92
X5.9606Y-4.0472
X6.02Y-2.92
X6.0207Y-4.2933
X6.0207Y-4.3933
X6.0207Y-4.4933
X6.0606Y-4.0472
X6.12Y-2.92
X6.1207Y-4.2933
X6.1207Y-4.3933
X6.1207Y-4.4933
X6.1606Y-4.0472
X6.22Y-2.92
X6.2606Y-4.0472
X6.3606Y-4.0472
X6.4606Y-4.0472
X7.6555Y-2.1102
X7.6555Y-2.2102
X7.6555Y-2.3102
T6
X2.8185Y-4.0618
X3.1185Y-4.0618
X3.12Y-4.22
X3.42Y-4.22
X3.9606Y-2.8189
X3.9606Y-3.1189
X4.11Y-2.83
X4.11Y-3.13
X4.32Y-4.68
X4.32Y-4.82
X4.5841Y-3.6228
X4.5841Y-3.8
X4.62Y-4.68
X4.62Y-4.82
X4.84Y-3.6228
X4.84Y-3.8
X6.89Y-5.22
X6.89Y-5.52
X7.03Y-5.22
X7.03Y-5.52
X7.16Y-5.23
X7.1803Y-5.0906
X7.2795Y-2.076
X7.2795Y-2.376
X7.3539Y-3.826
X7.3567Y-3.6937
X7.4429Y-4.1138
X7.4429Y-4.2138
X7.4429Y-4.3138
X7.4429Y-4.4138
X7.4429Y-4.5138
X7.4429Y-4.6138
X7.4429Y-4.7138
X7.4429Y-4.8138
X7.46Y-5.23
X7.4803Y-5.0906
X7.524Y-2.7587
X7.524Y-3.0587
X7.6429Y-4.1638
X7.6429Y-4.2638
X7.6429Y-4.3638
X7.6429Y-4.4638
X7.6429Y-4.5638
X7.6429Y-4.6638
X7.6429Y-4.7638
X7.6539Y-3.826
X7.6567Y-3.6937
X7.6614Y-2.7559
X7.6614Y-3.0559
T7
X6.1827Y-5.0161
X6.9827Y-5.0161
X7.35Y-2.75
X7.35Y-3.55
T9
X2.4Y-2.59
X2.4Y-2.79
X2.4004Y-3.0559
X2.4004Y-3.2559
X5.63Y-1.74
X5.83Y-1.74
X7.21Y-5.45
X7.41Y-5.45
X7.6224Y-3.2697
X7.6224Y-3.4697
T8
X5.8156Y-2.0798G85X5.8156Y-2.0602
G05
X5.9711Y-2.0798G85X5.9711Y-2.0602
G05
X6.1187Y-2.0798G85X6.1187Y-2.0602
G05
X6.2644Y-2.0798G85X6.2644Y-2.0602
G05
T0
M30
