G04 #@! TF.FileFunction,Legend,Bot*
%FSLAX46Y46*%
G04 Gerber Fmt 4.6, Leading zero omitted, Abs format (unit mm)*
G04 Created by KiCad (PCBNEW 4.0.7) date 09/26/21 17:55:18*
%MOMM*%
%LPD*%
G01*
G04 APERTURE LIST*
%ADD10C,0.100000*%
%ADD11C,0.150000*%
%ADD12C,0.120000*%
G04 APERTURE END LIST*
D10*
D11*
X76794857Y-134660143D02*
X76842476Y-134707762D01*
X76985333Y-134755381D01*
X77080571Y-134755381D01*
X77223429Y-134707762D01*
X77318667Y-134612524D01*
X77366286Y-134517286D01*
X77413905Y-134326810D01*
X77413905Y-134183952D01*
X77366286Y-133993476D01*
X77318667Y-133898238D01*
X77223429Y-133803000D01*
X77080571Y-133755381D01*
X76985333Y-133755381D01*
X76842476Y-133803000D01*
X76794857Y-133850619D01*
X76175810Y-133755381D02*
X75985333Y-133755381D01*
X75890095Y-133803000D01*
X75794857Y-133898238D01*
X75747238Y-134088714D01*
X75747238Y-134422048D01*
X75794857Y-134612524D01*
X75890095Y-134707762D01*
X75985333Y-134755381D01*
X76175810Y-134755381D01*
X76271048Y-134707762D01*
X76366286Y-134612524D01*
X76413905Y-134422048D01*
X76413905Y-134088714D01*
X76366286Y-133898238D01*
X76271048Y-133803000D01*
X76175810Y-133755381D01*
X75318667Y-134755381D02*
X75318667Y-133755381D01*
X74747238Y-134755381D01*
X74747238Y-133755381D01*
X74271048Y-134755381D02*
X74271048Y-133755381D01*
X74032953Y-133755381D01*
X73890095Y-133803000D01*
X73794857Y-133898238D01*
X73747238Y-133993476D01*
X73699619Y-134183952D01*
X73699619Y-134326810D01*
X73747238Y-134517286D01*
X73794857Y-134612524D01*
X73890095Y-134707762D01*
X74032953Y-134755381D01*
X74271048Y-134755381D01*
X73271048Y-134231571D02*
X72937714Y-134231571D01*
X72794857Y-134755381D02*
X73271048Y-134755381D01*
X73271048Y-133755381D01*
X72794857Y-133755381D01*
X72366286Y-134755381D02*
X72366286Y-133755381D01*
X71794857Y-134755381D01*
X71794857Y-133755381D01*
X71366286Y-134707762D02*
X71223429Y-134755381D01*
X70985333Y-134755381D01*
X70890095Y-134707762D01*
X70842476Y-134660143D01*
X70794857Y-134564905D01*
X70794857Y-134469667D01*
X70842476Y-134374429D01*
X70890095Y-134326810D01*
X70985333Y-134279190D01*
X71175810Y-134231571D01*
X71271048Y-134183952D01*
X71318667Y-134136333D01*
X71366286Y-134041095D01*
X71366286Y-133945857D01*
X71318667Y-133850619D01*
X71271048Y-133803000D01*
X71175810Y-133755381D01*
X70937714Y-133755381D01*
X70794857Y-133803000D01*
X70366286Y-134231571D02*
X70032952Y-134231571D01*
X69890095Y-134755381D02*
X70366286Y-134755381D01*
X70366286Y-133755381D01*
X69890095Y-133755381D01*
X68890095Y-134755381D02*
X69223429Y-134279190D01*
X69461524Y-134755381D02*
X69461524Y-133755381D01*
X69080571Y-133755381D01*
X68985333Y-133803000D01*
X68937714Y-133850619D01*
X68890095Y-133945857D01*
X68890095Y-134088714D01*
X68937714Y-134183952D01*
X68985333Y-134231571D01*
X69080571Y-134279190D01*
X69461524Y-134279190D01*
X77771047Y-136405381D02*
X77771047Y-135405381D01*
X77437713Y-136119667D01*
X77104380Y-135405381D01*
X77104380Y-136405381D01*
X76628190Y-136405381D02*
X76628190Y-135405381D01*
X75580571Y-136310143D02*
X75628190Y-136357762D01*
X75771047Y-136405381D01*
X75866285Y-136405381D01*
X76009143Y-136357762D01*
X76104381Y-136262524D01*
X76152000Y-136167286D01*
X76199619Y-135976810D01*
X76199619Y-135833952D01*
X76152000Y-135643476D01*
X76104381Y-135548238D01*
X76009143Y-135453000D01*
X75866285Y-135405381D01*
X75771047Y-135405381D01*
X75628190Y-135453000D01*
X75580571Y-135500619D01*
X74580571Y-136405381D02*
X74913905Y-135929190D01*
X75152000Y-136405381D02*
X75152000Y-135405381D01*
X74771047Y-135405381D01*
X74675809Y-135453000D01*
X74628190Y-135500619D01*
X74580571Y-135595857D01*
X74580571Y-135738714D01*
X74628190Y-135833952D01*
X74675809Y-135881571D01*
X74771047Y-135929190D01*
X75152000Y-135929190D01*
X73961524Y-135405381D02*
X73771047Y-135405381D01*
X73675809Y-135453000D01*
X73580571Y-135548238D01*
X73532952Y-135738714D01*
X73532952Y-136072048D01*
X73580571Y-136262524D01*
X73675809Y-136357762D01*
X73771047Y-136405381D01*
X73961524Y-136405381D01*
X74056762Y-136357762D01*
X74152000Y-136262524D01*
X74199619Y-136072048D01*
X74199619Y-135738714D01*
X74152000Y-135548238D01*
X74056762Y-135453000D01*
X73961524Y-135405381D01*
X73104381Y-136405381D02*
X73104381Y-135405381D01*
X72723428Y-135405381D01*
X72628190Y-135453000D01*
X72580571Y-135500619D01*
X72532952Y-135595857D01*
X72532952Y-135738714D01*
X72580571Y-135833952D01*
X72628190Y-135881571D01*
X72723428Y-135929190D01*
X73104381Y-135929190D01*
X72104381Y-136405381D02*
X72104381Y-135405381D01*
X72104381Y-135881571D02*
X71532952Y-135881571D01*
X71532952Y-136405381D02*
X71532952Y-135405381D01*
X70866286Y-135405381D02*
X70675809Y-135405381D01*
X70580571Y-135453000D01*
X70485333Y-135548238D01*
X70437714Y-135738714D01*
X70437714Y-136072048D01*
X70485333Y-136262524D01*
X70580571Y-136357762D01*
X70675809Y-136405381D01*
X70866286Y-136405381D01*
X70961524Y-136357762D01*
X71056762Y-136262524D01*
X71104381Y-136072048D01*
X71104381Y-135738714D01*
X71056762Y-135548238D01*
X70961524Y-135453000D01*
X70866286Y-135405381D01*
X70009143Y-136405381D02*
X70009143Y-135405381D01*
X69437714Y-136405381D01*
X69437714Y-135405381D01*
X68961524Y-135881571D02*
X68628190Y-135881571D01*
X68485333Y-136405381D02*
X68961524Y-136405381D01*
X68961524Y-135405381D01*
X68485333Y-135405381D01*
D12*
X175449538Y-41450000D02*
G75*
G02X176994830Y-47000000I462J-2990000D01*
G01*
X175450462Y-41450000D02*
G75*
G03X173905170Y-47000000I-462J-2990000D01*
G01*
X177950000Y-44440000D02*
G75*
G03X177950000Y-44440000I-2500000J0D01*
G01*
X176995000Y-47000000D02*
X173905000Y-47000000D01*
X135540000Y-139979538D02*
G75*
G02X129990000Y-141524830I-2990000J-462D01*
G01*
X135540000Y-139980462D02*
G75*
G03X129990000Y-138435170I-2990000J462D01*
G01*
X135050000Y-139980000D02*
G75*
G03X135050000Y-139980000I-2500000J0D01*
G01*
X129990000Y-141525000D02*
X129990000Y-138435000D01*
X68499538Y-42020000D02*
G75*
G02X70044830Y-47570000I462J-2990000D01*
G01*
X68500462Y-42020000D02*
G75*
G03X66955170Y-47570000I-462J-2990000D01*
G01*
X71000000Y-45010000D02*
G75*
G03X71000000Y-45010000I-2500000J0D01*
G01*
X70045000Y-47570000D02*
X66955000Y-47570000D01*
X123980000Y-44999538D02*
G75*
G02X118430000Y-46544830I-2990000J-462D01*
G01*
X123980000Y-45000462D02*
G75*
G03X118430000Y-43455170I-2990000J462D01*
G01*
X123490000Y-45000000D02*
G75*
G03X123490000Y-45000000I-2500000J0D01*
G01*
X118430000Y-46545000D02*
X118430000Y-43455000D01*
D11*
X80772000Y-134874000D02*
G75*
G03X80772000Y-134874000I-7620000J0D01*
G01*
D12*
X122624000Y-140207538D02*
G75*
G02X117074000Y-141752830I-2990000J-462D01*
G01*
X122624000Y-140208462D02*
G75*
G03X117074000Y-138663170I-2990000J462D01*
G01*
X122134000Y-140208000D02*
G75*
G03X122134000Y-140208000I-2500000J0D01*
G01*
X117074000Y-141753000D02*
X117074000Y-138663000D01*
X187959538Y-41460000D02*
G75*
G02X189504830Y-47010000I462J-2990000D01*
G01*
X187960462Y-41460000D02*
G75*
G03X186415170Y-47010000I-462J-2990000D01*
G01*
X190460000Y-44450000D02*
G75*
G03X190460000Y-44450000I-2500000J0D01*
G01*
X189505000Y-47010000D02*
X186415000Y-47010000D01*
X59449538Y-50915000D02*
G75*
G02X60994830Y-56465000I462J-2990000D01*
G01*
X59450462Y-50915000D02*
G75*
G03X57905170Y-56465000I-462J-2990000D01*
G01*
X61950000Y-53905000D02*
G75*
G03X61950000Y-53905000I-2500000J0D01*
G01*
X60995000Y-56465000D02*
X57905000Y-56465000D01*
X113870000Y-44649538D02*
G75*
G02X108320000Y-46194830I-2990000J-462D01*
G01*
X113870000Y-44650462D02*
G75*
G03X108320000Y-43105170I-2990000J462D01*
G01*
X113380000Y-44650000D02*
G75*
G03X113380000Y-44650000I-2500000J0D01*
G01*
X108320000Y-46195000D02*
X108320000Y-43105000D01*
X165429538Y-41450000D02*
G75*
G02X166974830Y-47000000I462J-2990000D01*
G01*
X165430462Y-41450000D02*
G75*
G03X163885170Y-47000000I-462J-2990000D01*
G01*
X167930000Y-44440000D02*
G75*
G03X167930000Y-44440000I-2500000J0D01*
G01*
X166975000Y-47000000D02*
X163885000Y-47000000D01*
X145550000Y-139979538D02*
G75*
G02X140000000Y-141524830I-2990000J-462D01*
G01*
X145550000Y-139980462D02*
G75*
G03X140000000Y-138435170I-2990000J462D01*
G01*
X145060000Y-139980000D02*
G75*
G03X145060000Y-139980000I-2500000J0D01*
G01*
X140000000Y-141525000D02*
X140000000Y-138435000D01*
X78499538Y-42020000D02*
G75*
G02X80044830Y-47570000I462J-2990000D01*
G01*
X78500462Y-42020000D02*
G75*
G03X76955170Y-47570000I-462J-2990000D01*
G01*
X81000000Y-45010000D02*
G75*
G03X81000000Y-45010000I-2500000J0D01*
G01*
X80045000Y-47570000D02*
X76955000Y-47570000D01*
X133990000Y-44999538D02*
G75*
G02X128440000Y-46544830I-2990000J-462D01*
G01*
X133990000Y-45000462D02*
G75*
G03X128440000Y-43455170I-2990000J462D01*
G01*
X133500000Y-45000000D02*
G75*
G03X133500000Y-45000000I-2500000J0D01*
G01*
X128440000Y-46545000D02*
X128440000Y-43455000D01*
X88110000Y-55190000D02*
X84510000Y-55190000D01*
X88634184Y-54462795D02*
G75*
G02X88110000Y-55190000I-2324184J1122795D01*
G01*
X88666400Y-52241193D02*
G75*
G03X86310000Y-50740000I-2356400J-1098807D01*
G01*
X83953600Y-52241193D02*
G75*
G02X86310000Y-50740000I2356400J-1098807D01*
G01*
X83985816Y-54462795D02*
G75*
G03X84510000Y-55190000I2324184J1122795D01*
G01*
D11*
X160434000Y-44450000D02*
X160434000Y-49450000D01*
X160434000Y-49450000D02*
X180434000Y-49450000D01*
X180434000Y-49450000D02*
X180434000Y-39450000D01*
X180434000Y-39450000D02*
X160434000Y-39450000D01*
X160434000Y-39450000D02*
X160434000Y-44450000D01*
X177934000Y-44450000D02*
G75*
G03X177934000Y-44450000I-2500000J0D01*
G01*
X167934000Y-44450000D02*
G75*
G03X167934000Y-44450000I-2500000J0D01*
G01*
X63500000Y-45000000D02*
X63500000Y-50000000D01*
X63500000Y-50000000D02*
X83500000Y-50000000D01*
X83500000Y-50000000D02*
X83500000Y-40000000D01*
X83500000Y-40000000D02*
X63500000Y-40000000D01*
X63500000Y-40000000D02*
X63500000Y-45000000D01*
X81000000Y-45000000D02*
G75*
G03X81000000Y-45000000I-2500000J0D01*
G01*
X71000000Y-45000000D02*
G75*
G03X71000000Y-45000000I-2500000J0D01*
G01*
X116000000Y-45000000D02*
X116000000Y-50000000D01*
X116000000Y-50000000D02*
X136000000Y-50000000D01*
X136000000Y-50000000D02*
X136000000Y-40000000D01*
X136000000Y-40000000D02*
X116000000Y-40000000D01*
X116000000Y-40000000D02*
X116000000Y-45000000D01*
X133500000Y-45000000D02*
G75*
G03X133500000Y-45000000I-2500000J0D01*
G01*
X123500000Y-45000000D02*
G75*
G03X123500000Y-45000000I-2500000J0D01*
G01*
X127540000Y-139980000D02*
X127540000Y-144980000D01*
X127540000Y-144980000D02*
X147540000Y-144980000D01*
X147540000Y-144980000D02*
X147540000Y-134980000D01*
X147540000Y-134980000D02*
X127540000Y-134980000D01*
X127540000Y-134980000D02*
X127540000Y-139980000D01*
X145040000Y-139980000D02*
G75*
G03X145040000Y-139980000I-2500000J0D01*
G01*
X135040000Y-139980000D02*
G75*
G03X135040000Y-139980000I-2500000J0D01*
G01*
X179862381Y-43463810D02*
X178862381Y-43463810D01*
X179862381Y-43940000D02*
X178862381Y-43940000D01*
X178862381Y-44178095D01*
X178910000Y-44320953D01*
X179005238Y-44416191D01*
X179100476Y-44463810D01*
X179290952Y-44511429D01*
X179433810Y-44511429D01*
X179624286Y-44463810D01*
X179719524Y-44416191D01*
X179814762Y-44320953D01*
X179862381Y-44178095D01*
X179862381Y-43940000D01*
X179862381Y-45463810D02*
X179862381Y-44892381D01*
X179862381Y-45178095D02*
X178862381Y-45178095D01*
X179005238Y-45082857D01*
X179100476Y-44987619D01*
X179148095Y-44892381D01*
X133526190Y-144392381D02*
X133526190Y-143392381D01*
X133050000Y-144392381D02*
X133050000Y-143392381D01*
X132811905Y-143392381D01*
X132669047Y-143440000D01*
X132573809Y-143535238D01*
X132526190Y-143630476D01*
X132478571Y-143820952D01*
X132478571Y-143963810D01*
X132526190Y-144154286D01*
X132573809Y-144249524D01*
X132669047Y-144344762D01*
X132811905Y-144392381D01*
X133050000Y-144392381D01*
X132097619Y-143487619D02*
X132050000Y-143440000D01*
X131954762Y-143392381D01*
X131716666Y-143392381D01*
X131621428Y-143440000D01*
X131573809Y-143487619D01*
X131526190Y-143582857D01*
X131526190Y-143678095D01*
X131573809Y-143820952D01*
X132145238Y-144392381D01*
X131526190Y-144392381D01*
X72912381Y-44033810D02*
X71912381Y-44033810D01*
X72912381Y-44510000D02*
X71912381Y-44510000D01*
X71912381Y-44748095D01*
X71960000Y-44890953D01*
X72055238Y-44986191D01*
X72150476Y-45033810D01*
X72340952Y-45081429D01*
X72483810Y-45081429D01*
X72674286Y-45033810D01*
X72769524Y-44986191D01*
X72864762Y-44890953D01*
X72912381Y-44748095D01*
X72912381Y-44510000D01*
X71912381Y-45414762D02*
X71912381Y-46033810D01*
X72293333Y-45700476D01*
X72293333Y-45843334D01*
X72340952Y-45938572D01*
X72388571Y-45986191D01*
X72483810Y-46033810D01*
X72721905Y-46033810D01*
X72817143Y-45986191D01*
X72864762Y-45938572D01*
X72912381Y-45843334D01*
X72912381Y-45557619D01*
X72864762Y-45462381D01*
X72817143Y-45414762D01*
X121966190Y-49412381D02*
X121966190Y-48412381D01*
X121490000Y-49412381D02*
X121490000Y-48412381D01*
X121251905Y-48412381D01*
X121109047Y-48460000D01*
X121013809Y-48555238D01*
X120966190Y-48650476D01*
X120918571Y-48840952D01*
X120918571Y-48983810D01*
X120966190Y-49174286D01*
X121013809Y-49269524D01*
X121109047Y-49364762D01*
X121251905Y-49412381D01*
X121490000Y-49412381D01*
X120061428Y-48745714D02*
X120061428Y-49412381D01*
X120299524Y-48364762D02*
X120537619Y-49079048D01*
X119918571Y-49079048D01*
X74663524Y-129814381D02*
X74663524Y-128814381D01*
X74330190Y-129528667D01*
X73996857Y-128814381D01*
X73996857Y-129814381D01*
X73520667Y-129814381D02*
X73520667Y-128814381D01*
X72949238Y-129814381D02*
X73377810Y-129242952D01*
X72949238Y-128814381D02*
X73520667Y-129385810D01*
X71996857Y-129814381D02*
X72568286Y-129814381D01*
X72282572Y-129814381D02*
X72282572Y-128814381D01*
X72377810Y-128957238D01*
X72473048Y-129052476D01*
X72568286Y-129100095D01*
X76072952Y-132405429D02*
X75311047Y-132405429D01*
X75691999Y-132786381D02*
X75691999Y-132024476D01*
X76072952Y-137485429D02*
X75311047Y-137485429D01*
X74223428Y-140406381D02*
X74223428Y-139406381D01*
X73890094Y-140120667D01*
X73556761Y-139406381D01*
X73556761Y-140406381D01*
X73080571Y-140406381D02*
X73080571Y-139406381D01*
X72032952Y-140311143D02*
X72080571Y-140358762D01*
X72223428Y-140406381D01*
X72318666Y-140406381D01*
X72461524Y-140358762D01*
X72556762Y-140263524D01*
X72604381Y-140168286D01*
X72652000Y-139977810D01*
X72652000Y-139834952D01*
X72604381Y-139644476D01*
X72556762Y-139549238D01*
X72461524Y-139454000D01*
X72318666Y-139406381D01*
X72223428Y-139406381D01*
X72080571Y-139454000D01*
X72032952Y-139501619D01*
X121253048Y-144620381D02*
X121253048Y-143620381D01*
X120872095Y-143620381D01*
X120776857Y-143668000D01*
X120729238Y-143715619D01*
X120681619Y-143810857D01*
X120681619Y-143953714D01*
X120729238Y-144048952D01*
X120776857Y-144096571D01*
X120872095Y-144144190D01*
X121253048Y-144144190D01*
X120253048Y-144620381D02*
X120253048Y-143620381D01*
X120014953Y-143620381D01*
X119872095Y-143668000D01*
X119776857Y-143763238D01*
X119729238Y-143858476D01*
X119681619Y-144048952D01*
X119681619Y-144191810D01*
X119729238Y-144382286D01*
X119776857Y-144477524D01*
X119872095Y-144572762D01*
X120014953Y-144620381D01*
X120253048Y-144620381D01*
X119395905Y-143620381D02*
X118824476Y-143620381D01*
X119110191Y-144620381D02*
X119110191Y-143620381D01*
X117967333Y-144620381D02*
X118538762Y-144620381D01*
X118253048Y-144620381D02*
X118253048Y-143620381D01*
X118348286Y-143763238D01*
X118443524Y-143858476D01*
X118538762Y-143906095D01*
X189071048Y-40838381D02*
X189071048Y-39838381D01*
X188690095Y-39838381D01*
X188594857Y-39886000D01*
X188547238Y-39933619D01*
X188499619Y-40028857D01*
X188499619Y-40171714D01*
X188547238Y-40266952D01*
X188594857Y-40314571D01*
X188690095Y-40362190D01*
X189071048Y-40362190D01*
X188071048Y-40838381D02*
X188071048Y-39838381D01*
X187832953Y-39838381D01*
X187690095Y-39886000D01*
X187594857Y-39981238D01*
X187547238Y-40076476D01*
X187499619Y-40266952D01*
X187499619Y-40409810D01*
X187547238Y-40600286D01*
X187594857Y-40695524D01*
X187690095Y-40790762D01*
X187832953Y-40838381D01*
X188071048Y-40838381D01*
X187213905Y-39838381D02*
X186642476Y-39838381D01*
X186928191Y-40838381D02*
X186928191Y-39838381D01*
X186356762Y-39933619D02*
X186309143Y-39886000D01*
X186213905Y-39838381D01*
X185975809Y-39838381D01*
X185880571Y-39886000D01*
X185832952Y-39933619D01*
X185785333Y-40028857D01*
X185785333Y-40124095D01*
X185832952Y-40266952D01*
X186404381Y-40838381D01*
X185785333Y-40838381D01*
X63862381Y-52285952D02*
X62862381Y-52285952D01*
X62862381Y-52666905D01*
X62910000Y-52762143D01*
X62957619Y-52809762D01*
X63052857Y-52857381D01*
X63195714Y-52857381D01*
X63290952Y-52809762D01*
X63338571Y-52762143D01*
X63386190Y-52666905D01*
X63386190Y-52285952D01*
X63862381Y-53285952D02*
X62862381Y-53285952D01*
X62862381Y-53524047D01*
X62910000Y-53666905D01*
X63005238Y-53762143D01*
X63100476Y-53809762D01*
X63290952Y-53857381D01*
X63433810Y-53857381D01*
X63624286Y-53809762D01*
X63719524Y-53762143D01*
X63814762Y-53666905D01*
X63862381Y-53524047D01*
X63862381Y-53285952D01*
X62862381Y-54143095D02*
X62862381Y-54714524D01*
X63862381Y-54428809D02*
X62862381Y-54428809D01*
X62862381Y-54952619D02*
X62862381Y-55571667D01*
X63243333Y-55238333D01*
X63243333Y-55381191D01*
X63290952Y-55476429D01*
X63338571Y-55524048D01*
X63433810Y-55571667D01*
X63671905Y-55571667D01*
X63767143Y-55524048D01*
X63814762Y-55476429D01*
X63862381Y-55381191D01*
X63862381Y-55095476D01*
X63814762Y-55000238D01*
X63767143Y-54952619D01*
X112499048Y-49062381D02*
X112499048Y-48062381D01*
X112118095Y-48062381D01*
X112022857Y-48110000D01*
X111975238Y-48157619D01*
X111927619Y-48252857D01*
X111927619Y-48395714D01*
X111975238Y-48490952D01*
X112022857Y-48538571D01*
X112118095Y-48586190D01*
X112499048Y-48586190D01*
X111499048Y-49062381D02*
X111499048Y-48062381D01*
X111260953Y-48062381D01*
X111118095Y-48110000D01*
X111022857Y-48205238D01*
X110975238Y-48300476D01*
X110927619Y-48490952D01*
X110927619Y-48633810D01*
X110975238Y-48824286D01*
X111022857Y-48919524D01*
X111118095Y-49014762D01*
X111260953Y-49062381D01*
X111499048Y-49062381D01*
X110641905Y-48062381D02*
X110070476Y-48062381D01*
X110356191Y-49062381D02*
X110356191Y-48062381D01*
X109308571Y-48395714D02*
X109308571Y-49062381D01*
X109546667Y-48014762D02*
X109784762Y-48729048D01*
X109165714Y-48729048D01*
X169842381Y-43320952D02*
X168842381Y-43320952D01*
X168842381Y-43701905D01*
X168890000Y-43797143D01*
X168937619Y-43844762D01*
X169032857Y-43892381D01*
X169175714Y-43892381D01*
X169270952Y-43844762D01*
X169318571Y-43797143D01*
X169366190Y-43701905D01*
X169366190Y-43320952D01*
X168842381Y-44178095D02*
X168842381Y-44749524D01*
X169842381Y-44463809D02*
X168842381Y-44463809D01*
X169842381Y-45606667D02*
X169842381Y-45035238D01*
X169842381Y-45320952D02*
X168842381Y-45320952D01*
X168985238Y-45225714D01*
X169080476Y-45130476D01*
X169128095Y-45035238D01*
X143679048Y-144392381D02*
X143679048Y-143392381D01*
X143298095Y-143392381D01*
X143202857Y-143440000D01*
X143155238Y-143487619D01*
X143107619Y-143582857D01*
X143107619Y-143725714D01*
X143155238Y-143820952D01*
X143202857Y-143868571D01*
X143298095Y-143916190D01*
X143679048Y-143916190D01*
X142821905Y-143392381D02*
X142250476Y-143392381D01*
X142536191Y-144392381D02*
X142536191Y-143392381D01*
X141964762Y-143487619D02*
X141917143Y-143440000D01*
X141821905Y-143392381D01*
X141583809Y-143392381D01*
X141488571Y-143440000D01*
X141440952Y-143487619D01*
X141393333Y-143582857D01*
X141393333Y-143678095D01*
X141440952Y-143820952D01*
X142012381Y-144392381D01*
X141393333Y-144392381D01*
X82912381Y-43890952D02*
X81912381Y-43890952D01*
X81912381Y-44271905D01*
X81960000Y-44367143D01*
X82007619Y-44414762D01*
X82102857Y-44462381D01*
X82245714Y-44462381D01*
X82340952Y-44414762D01*
X82388571Y-44367143D01*
X82436190Y-44271905D01*
X82436190Y-43890952D01*
X81912381Y-44748095D02*
X81912381Y-45319524D01*
X82912381Y-45033809D02*
X81912381Y-45033809D01*
X81912381Y-45557619D02*
X81912381Y-46176667D01*
X82293333Y-45843333D01*
X82293333Y-45986191D01*
X82340952Y-46081429D01*
X82388571Y-46129048D01*
X82483810Y-46176667D01*
X82721905Y-46176667D01*
X82817143Y-46129048D01*
X82864762Y-46081429D01*
X82912381Y-45986191D01*
X82912381Y-45700476D01*
X82864762Y-45605238D01*
X82817143Y-45557619D01*
X132119048Y-49412381D02*
X132119048Y-48412381D01*
X131738095Y-48412381D01*
X131642857Y-48460000D01*
X131595238Y-48507619D01*
X131547619Y-48602857D01*
X131547619Y-48745714D01*
X131595238Y-48840952D01*
X131642857Y-48888571D01*
X131738095Y-48936190D01*
X132119048Y-48936190D01*
X131261905Y-48412381D02*
X130690476Y-48412381D01*
X130976191Y-49412381D02*
X130976191Y-48412381D01*
X129928571Y-48745714D02*
X129928571Y-49412381D01*
X130166667Y-48364762D02*
X130404762Y-49079048D01*
X129785714Y-49079048D01*
X90202381Y-51681905D02*
X91011905Y-51681905D01*
X91107143Y-51729524D01*
X91154762Y-51777143D01*
X91202381Y-51872381D01*
X91202381Y-52062858D01*
X91154762Y-52158096D01*
X91107143Y-52205715D01*
X91011905Y-52253334D01*
X90202381Y-52253334D01*
X91202381Y-53253334D02*
X91202381Y-52681905D01*
X91202381Y-52967619D02*
X90202381Y-52967619D01*
X90345238Y-52872381D01*
X90440476Y-52777143D01*
X90488095Y-52681905D01*
X90202381Y-53872381D02*
X90202381Y-53967620D01*
X90250000Y-54062858D01*
X90297619Y-54110477D01*
X90392857Y-54158096D01*
X90583333Y-54205715D01*
X90821429Y-54205715D01*
X91011905Y-54158096D01*
X91107143Y-54110477D01*
X91154762Y-54062858D01*
X91202381Y-53967620D01*
X91202381Y-53872381D01*
X91154762Y-53777143D01*
X91107143Y-53729524D01*
X91011905Y-53681905D01*
X90821429Y-53634286D01*
X90583333Y-53634286D01*
X90392857Y-53681905D01*
X90297619Y-53729524D01*
X90250000Y-53777143D01*
X90202381Y-53872381D01*
M02*
