G04 #@! TF.FileFunction,Soldermask,Bot*
%FSLAX46Y46*%
G04 Gerber Fmt 4.6, Leading zero omitted, Abs format (unit mm)*
G04 Created by KiCad (PCBNEW 4.0.7) date 09/23/21 19:20:18*
%MOMM*%
%LPD*%
G01*
G04 APERTURE LIST*
%ADD10C,0.100000*%
%ADD11R,2.000000X2.000000*%
%ADD12O,2.000000X2.000000*%
%ADD13C,2.000000*%
%ADD14C,2.800000*%
%ADD15O,2.800000X2.800000*%
%ADD16O,2.400000X3.900000*%
%ADD17R,2.600000X2.600000*%
%ADD18O,2.600000X2.600000*%
%ADD19R,2.200000X2.200000*%
%ADD20C,2.200000*%
%ADD21R,3.400000X3.400000*%
%ADD22C,3.400000*%
%ADD23R,2.100000X2.100000*%
%ADD24O,2.100000X2.100000*%
%ADD25R,1.924000X1.924000*%
%ADD26C,1.924000*%
%ADD27C,1.920000*%
%ADD28R,1.920000X1.920000*%
%ADD29C,1.840000*%
%ADD30C,2.400000*%
%ADD31O,2.200000X2.200000*%
%ADD32O,2.800000X2.000000*%
%ADD33C,1.900000*%
%ADD34C,3.448000*%
%ADD35O,3.448000X3.448000*%
G04 APERTURE END LIST*
D10*
D11*
X135120000Y-132040000D03*
D12*
X150360000Y-124420000D03*
X137660000Y-132040000D03*
X147820000Y-124420000D03*
X140200000Y-132040000D03*
X145280000Y-124420000D03*
X142740000Y-132040000D03*
X142740000Y-124420000D03*
X145280000Y-132040000D03*
X140200000Y-124420000D03*
X147820000Y-132040000D03*
X137660000Y-124420000D03*
X150360000Y-132040000D03*
X135120000Y-124420000D03*
D13*
X118800000Y-126090000D03*
D12*
X118800000Y-118470000D03*
D11*
X76310000Y-77720000D03*
D12*
X83930000Y-70100000D03*
X78850000Y-77720000D03*
X81390000Y-70100000D03*
X81390000Y-77720000D03*
X78850000Y-70100000D03*
X83930000Y-77720000D03*
X76310000Y-70100000D03*
D14*
X179340000Y-127670000D03*
D15*
X159020000Y-127670000D03*
D16*
X151666000Y-52578000D03*
X147716000Y-52578000D03*
X155416000Y-52578000D03*
X159116000Y-52578000D03*
D11*
X183600000Y-63800000D03*
D13*
X183600000Y-66300000D03*
X124968000Y-85852000D03*
X124968000Y-83352000D03*
D11*
X179675000Y-52800000D03*
D13*
X179675000Y-55300000D03*
X131550000Y-102775000D03*
X129050000Y-102775000D03*
X168450000Y-93140000D03*
X168450000Y-90640000D03*
X165400000Y-121590000D03*
X165400000Y-119090000D03*
X121880000Y-108050000D03*
X126880000Y-108050000D03*
X121840000Y-111400000D03*
X126840000Y-111400000D03*
X184990000Y-112850000D03*
X182490000Y-112850000D03*
X98298000Y-125476000D03*
X100798000Y-125476000D03*
X147970000Y-78120000D03*
X150470000Y-78120000D03*
D11*
X62738000Y-124206000D03*
D13*
X65238000Y-124206000D03*
D11*
X128330000Y-62030000D03*
D13*
X125830000Y-62030000D03*
D11*
X93472000Y-121920000D03*
D13*
X93472000Y-124420000D03*
X103990000Y-125730000D03*
X108990000Y-125730000D03*
X112014000Y-110744000D03*
X112014000Y-115744000D03*
X164290000Y-71570000D03*
X164290000Y-74070000D03*
X59280000Y-119630000D03*
X59280000Y-117130000D03*
X132080000Y-69088000D03*
X134580000Y-69088000D03*
D11*
X150680000Y-87010000D03*
D13*
X148180000Y-87010000D03*
D11*
X116332000Y-65786000D03*
D13*
X116332000Y-68286000D03*
X104380000Y-65270000D03*
X99380000Y-65270000D03*
X96620000Y-69350000D03*
X96620000Y-64350000D03*
X77760000Y-66920000D03*
X77760000Y-64420000D03*
X94996000Y-90678000D03*
X94996000Y-88178000D03*
X70070000Y-83020000D03*
X70070000Y-88020000D03*
X87630000Y-82296000D03*
X87630000Y-77296000D03*
X71300000Y-97960000D03*
X71300000Y-92960000D03*
X86410000Y-101880000D03*
X83910000Y-101880000D03*
X81980000Y-110980000D03*
X86980000Y-110980000D03*
D11*
X131350000Y-92570000D03*
D12*
X131350000Y-84950000D03*
D17*
X184900000Y-52730000D03*
D18*
X184900000Y-60350000D03*
D19*
X172920000Y-56410000D03*
D20*
X172920000Y-53870000D03*
D17*
X191110000Y-70070000D03*
D18*
X191110000Y-77690000D03*
D17*
X194600000Y-77620000D03*
D18*
X194600000Y-70000000D03*
D17*
X178562000Y-132588000D03*
D18*
X178562000Y-140208000D03*
D17*
X175006000Y-140208000D03*
D18*
X175006000Y-132588000D03*
D17*
X186860000Y-93820000D03*
D18*
X194480000Y-93820000D03*
D17*
X194410000Y-97180000D03*
D18*
X186790000Y-97180000D03*
D17*
X181864000Y-132842000D03*
D18*
X189484000Y-132842000D03*
D17*
X190000000Y-129300000D03*
D18*
X182380000Y-129300000D03*
D19*
X175450000Y-45710000D03*
D20*
X175450000Y-43170000D03*
D19*
X131280000Y-139980000D03*
D20*
X133820000Y-139980000D03*
D19*
X68500000Y-46280000D03*
D20*
X68500000Y-43740000D03*
D19*
X119720000Y-45000000D03*
D20*
X122260000Y-45000000D03*
D21*
X143002000Y-44196000D03*
D22*
X148082000Y-44196000D03*
D23*
X108240000Y-95190000D03*
D24*
X108240000Y-92650000D03*
X108240000Y-90110000D03*
X108240000Y-87570000D03*
D23*
X152925000Y-109050000D03*
D24*
X155465000Y-109050000D03*
X152925000Y-111590000D03*
X155465000Y-111590000D03*
X152925000Y-114130000D03*
X155465000Y-114130000D03*
D21*
X193610000Y-83050000D03*
D22*
X193610000Y-88130000D03*
D21*
X188214000Y-138430000D03*
D22*
X183134000Y-138430000D03*
D21*
X161960000Y-139070000D03*
D22*
X156880000Y-139070000D03*
D21*
X60970000Y-82700000D03*
D22*
X60970000Y-77620000D03*
D25*
X73100000Y-132410000D03*
D26*
X73100000Y-137490000D03*
D19*
X118110000Y-138938000D03*
D20*
X120650000Y-138938000D03*
D19*
X187960000Y-45720000D03*
D20*
X187960000Y-43180000D03*
D19*
X59450000Y-55175000D03*
D20*
X59450000Y-52635000D03*
D19*
X109610000Y-44650000D03*
D20*
X112150000Y-44650000D03*
D19*
X165430000Y-45710000D03*
D20*
X165430000Y-43170000D03*
D19*
X141290000Y-139980000D03*
D20*
X143830000Y-139980000D03*
D19*
X78500000Y-46280000D03*
D20*
X78500000Y-43740000D03*
D19*
X129730000Y-45000000D03*
D20*
X132270000Y-45000000D03*
D27*
X117400000Y-115060000D03*
X119940000Y-115060000D03*
D28*
X114860000Y-115060000D03*
D27*
X105465000Y-113550000D03*
X108005000Y-113550000D03*
D28*
X102925000Y-113550000D03*
D13*
X113860000Y-84380000D03*
D12*
X121480000Y-84380000D03*
D13*
X117856000Y-88900000D03*
D12*
X125476000Y-88900000D03*
D13*
X128240000Y-92590000D03*
D12*
X128240000Y-84970000D03*
D13*
X181825000Y-60275000D03*
D12*
X174205000Y-60275000D03*
D13*
X59436000Y-132334000D03*
D12*
X59436000Y-124714000D03*
D13*
X138938000Y-62484000D03*
D12*
X131318000Y-62484000D03*
D13*
X131318000Y-65786000D03*
D12*
X138938000Y-65786000D03*
D13*
X75946000Y-124714000D03*
D12*
X68326000Y-124714000D03*
D13*
X83566000Y-136906000D03*
D12*
X83566000Y-129286000D03*
D13*
X78740000Y-117602000D03*
D12*
X78740000Y-125222000D03*
D14*
X186690000Y-90170000D03*
D15*
X186690000Y-69850000D03*
D13*
X164338000Y-107188000D03*
D12*
X164338000Y-114808000D03*
D13*
X81534000Y-124206000D03*
D12*
X89154000Y-124206000D03*
D13*
X170190000Y-97690000D03*
D12*
X177810000Y-97690000D03*
D13*
X103750000Y-136970000D03*
D12*
X103750000Y-129350000D03*
D13*
X107188000Y-136906000D03*
D12*
X107188000Y-129286000D03*
D13*
X115500000Y-118380000D03*
D12*
X115500000Y-126000000D03*
D13*
X117602000Y-132588000D03*
D12*
X109982000Y-132588000D03*
D13*
X168420000Y-78820000D03*
D12*
X168420000Y-86440000D03*
D13*
X109982000Y-129286000D03*
D12*
X117602000Y-129286000D03*
D13*
X138340000Y-49130000D03*
D12*
X138340000Y-41510000D03*
D13*
X111340000Y-68700000D03*
D12*
X103720000Y-68700000D03*
D13*
X74270000Y-51920000D03*
D12*
X66650000Y-51920000D03*
D13*
X124610000Y-133970000D03*
D12*
X124610000Y-141590000D03*
D13*
X83820000Y-86106000D03*
D12*
X91440000Y-86106000D03*
D13*
X155990000Y-48340000D03*
D12*
X155990000Y-40720000D03*
D13*
X90424000Y-41148000D03*
D12*
X98044000Y-41148000D03*
D13*
X74290000Y-55170000D03*
D12*
X66670000Y-55170000D03*
D13*
X183388000Y-49276000D03*
D12*
X191008000Y-49276000D03*
D13*
X113500000Y-143000000D03*
D12*
X113500000Y-135380000D03*
D13*
X167950000Y-51520000D03*
D12*
X167950000Y-59140000D03*
D13*
X161036000Y-114808000D03*
D12*
X161036000Y-107188000D03*
D13*
X139710000Y-52120000D03*
D12*
X139710000Y-59740000D03*
D13*
X143002000Y-51562000D03*
D12*
X143002000Y-59182000D03*
D13*
X138684000Y-79502000D03*
D12*
X138684000Y-71882000D03*
D13*
X132334000Y-79502000D03*
D12*
X132334000Y-71882000D03*
D13*
X135636000Y-79502000D03*
D12*
X135636000Y-71882000D03*
D13*
X128778000Y-66548000D03*
D12*
X121158000Y-66548000D03*
D13*
X111252000Y-79502000D03*
D12*
X111252000Y-71882000D03*
D13*
X107950000Y-79502000D03*
D12*
X107950000Y-71882000D03*
D13*
X96800000Y-71800000D03*
D12*
X96800000Y-79420000D03*
D13*
X70100000Y-73190000D03*
D12*
X70100000Y-80810000D03*
D13*
X80550000Y-66610000D03*
D12*
X88170000Y-66610000D03*
D13*
X89100000Y-63370000D03*
D12*
X81480000Y-63370000D03*
D13*
X90980000Y-75550000D03*
D12*
X90980000Y-67930000D03*
D13*
X73950000Y-81040000D03*
D12*
X81570000Y-81040000D03*
D13*
X81530000Y-84320000D03*
D12*
X73910000Y-84320000D03*
D13*
X67920000Y-97990000D03*
D12*
X67920000Y-90370000D03*
D13*
X74676000Y-98044000D03*
D12*
X74676000Y-90424000D03*
D13*
X73914000Y-87630000D03*
D12*
X81534000Y-87630000D03*
D13*
X90170000Y-104140000D03*
D12*
X90170000Y-111760000D03*
D13*
X93726000Y-111760000D03*
D12*
X93726000Y-104140000D03*
D13*
X99970000Y-111560000D03*
D12*
X99970000Y-103940000D03*
D13*
X101250000Y-101250000D03*
D12*
X101250000Y-93630000D03*
D13*
X104902000Y-109220000D03*
D12*
X104902000Y-101600000D03*
D13*
X108204000Y-109220000D03*
D12*
X108204000Y-101600000D03*
D29*
X99410000Y-130310000D03*
X99410000Y-132850000D03*
X99410000Y-135390000D03*
X116332000Y-73152000D03*
X116332000Y-75692000D03*
X116332000Y-78232000D03*
X79248000Y-91948000D03*
X79248000Y-94488000D03*
X79248000Y-97028000D03*
X96340000Y-94940000D03*
X96340000Y-97480000D03*
X96340000Y-100020000D03*
D30*
X122936000Y-92020000D03*
X122936000Y-96520000D03*
X116436000Y-92020000D03*
X116436000Y-96520000D03*
D11*
X136144000Y-87884000D03*
D12*
X143764000Y-120904000D03*
X136144000Y-90424000D03*
X143764000Y-118364000D03*
X136144000Y-92964000D03*
X143764000Y-115824000D03*
X136144000Y-95504000D03*
X143764000Y-113284000D03*
X136144000Y-98044000D03*
X143764000Y-110744000D03*
X136144000Y-100584000D03*
X143764000Y-108204000D03*
X136144000Y-103124000D03*
X143764000Y-105664000D03*
X136144000Y-105664000D03*
X143764000Y-103124000D03*
X136144000Y-108204000D03*
X143764000Y-100584000D03*
X136144000Y-110744000D03*
X143764000Y-98044000D03*
X136144000Y-113284000D03*
X143764000Y-95504000D03*
X136144000Y-115824000D03*
X143764000Y-92964000D03*
X136144000Y-118364000D03*
X143764000Y-90424000D03*
X136144000Y-120904000D03*
X143764000Y-87884000D03*
D19*
X194450000Y-53600000D03*
D31*
X194450000Y-56140000D03*
X194450000Y-58680000D03*
D11*
X176940000Y-121620000D03*
D12*
X169320000Y-103840000D03*
X176940000Y-119080000D03*
X169320000Y-106380000D03*
X176940000Y-116540000D03*
X169320000Y-108920000D03*
X176940000Y-114000000D03*
X169320000Y-111460000D03*
X176940000Y-111460000D03*
X169320000Y-114000000D03*
X176940000Y-108920000D03*
X169320000Y-116540000D03*
X176940000Y-106380000D03*
X169320000Y-119080000D03*
X176940000Y-103840000D03*
X169320000Y-121620000D03*
D32*
X189050000Y-104490000D03*
X194130000Y-105760000D03*
X189050000Y-107030000D03*
X194130000Y-108300000D03*
X189050000Y-109570000D03*
X194130000Y-110840000D03*
X189050000Y-112110000D03*
X194130000Y-113380000D03*
X189050000Y-114650000D03*
X194130000Y-115920000D03*
X189050000Y-117190000D03*
X194130000Y-118460000D03*
X189050000Y-119730000D03*
X194130000Y-121000000D03*
X189050000Y-122270000D03*
D11*
X179502000Y-92960000D03*
D12*
X171882000Y-75180000D03*
X179502000Y-90420000D03*
X171882000Y-77720000D03*
X179502000Y-87880000D03*
X171882000Y-80260000D03*
X179502000Y-85340000D03*
X171882000Y-82800000D03*
X179502000Y-82800000D03*
X171882000Y-85340000D03*
X179502000Y-80260000D03*
X171882000Y-87880000D03*
X179502000Y-77720000D03*
X171882000Y-90420000D03*
X179502000Y-75180000D03*
X171882000Y-92960000D03*
D27*
X86310000Y-53340000D03*
X83770000Y-53340000D03*
D28*
X88850000Y-53340000D03*
D11*
X164210000Y-60690000D03*
D12*
X146430000Y-68310000D03*
X161670000Y-60690000D03*
X148970000Y-68310000D03*
X159130000Y-60690000D03*
X151510000Y-68310000D03*
X156590000Y-60690000D03*
X154050000Y-68310000D03*
X154050000Y-60690000D03*
X156590000Y-68310000D03*
X151510000Y-60690000D03*
X159130000Y-68310000D03*
X148970000Y-60690000D03*
X161670000Y-68310000D03*
X146430000Y-60690000D03*
X164210000Y-68310000D03*
D11*
X154240000Y-79830000D03*
D12*
X161860000Y-97610000D03*
X154240000Y-82370000D03*
X161860000Y-95070000D03*
X154240000Y-84910000D03*
X161860000Y-92530000D03*
X154240000Y-87450000D03*
X161860000Y-89990000D03*
X154240000Y-89990000D03*
X161860000Y-87450000D03*
X154240000Y-92530000D03*
X161860000Y-84910000D03*
X154240000Y-95070000D03*
X161860000Y-82370000D03*
X154240000Y-97610000D03*
X161860000Y-79830000D03*
D11*
X99820000Y-61040000D03*
D12*
X117600000Y-53420000D03*
X102360000Y-61040000D03*
X115060000Y-53420000D03*
X104900000Y-61040000D03*
X112520000Y-53420000D03*
X107440000Y-61040000D03*
X109980000Y-53420000D03*
X109980000Y-61040000D03*
X107440000Y-53420000D03*
X112520000Y-61040000D03*
X104900000Y-53420000D03*
X115060000Y-61040000D03*
X102360000Y-53420000D03*
X117600000Y-61040000D03*
X99820000Y-53420000D03*
D33*
X130870000Y-112850000D03*
X130870000Y-107970000D03*
D13*
X185070000Y-107260000D03*
X182570000Y-107260000D03*
D11*
X190754000Y-64770000D03*
D13*
X188254000Y-64770000D03*
D34*
X196000000Y-43000000D03*
X196000000Y-141000000D03*
D35*
X59000000Y-43000000D03*
X59000000Y-141000000D03*
D13*
X96310000Y-53230000D03*
X93810000Y-53230000D03*
D23*
X151400000Y-102800000D03*
D24*
X153940000Y-102800000D03*
X156480000Y-102800000D03*
X159020000Y-102800000D03*
X161560000Y-102800000D03*
X164100000Y-102800000D03*
D23*
X145288000Y-74168000D03*
D24*
X147828000Y-74168000D03*
X150368000Y-74168000D03*
X152908000Y-74168000D03*
X155448000Y-74168000D03*
X157988000Y-74168000D03*
D23*
X102220000Y-46630000D03*
D24*
X99680000Y-46630000D03*
X97140000Y-46630000D03*
X94600000Y-46630000D03*
X92060000Y-46630000D03*
X89520000Y-46630000D03*
D17*
X111880000Y-122310000D03*
D18*
X104260000Y-122310000D03*
D17*
X111900000Y-118810000D03*
D18*
X104280000Y-118810000D03*
D17*
X100600000Y-71600000D03*
D18*
X100600000Y-79220000D03*
D17*
X104394000Y-79502000D03*
D18*
X104394000Y-71882000D03*
D17*
X79210000Y-103170000D03*
D18*
X71590000Y-103170000D03*
D17*
X86868000Y-107188000D03*
D18*
X79248000Y-107188000D03*
D11*
X86868000Y-129032000D03*
D12*
X94488000Y-136652000D03*
X86868000Y-131572000D03*
X94488000Y-134112000D03*
X86868000Y-134112000D03*
X94488000Y-131572000D03*
X86868000Y-136652000D03*
X94488000Y-129032000D03*
D11*
X121158000Y-71882000D03*
D12*
X128778000Y-79502000D03*
X121158000Y-74422000D03*
X128778000Y-76962000D03*
X121158000Y-76962000D03*
X128778000Y-74422000D03*
X121158000Y-79502000D03*
X128778000Y-71882000D03*
D11*
X83820000Y-90932000D03*
D12*
X91440000Y-98552000D03*
X83820000Y-93472000D03*
X91440000Y-96012000D03*
X83820000Y-96012000D03*
X91440000Y-93472000D03*
X83820000Y-98552000D03*
X91440000Y-90932000D03*
D13*
X109982000Y-139954000D03*
X109982000Y-142454000D03*
X152500000Y-42250000D03*
X152500000Y-44750000D03*
X77000000Y-53640000D03*
X79500000Y-53640000D03*
X87700000Y-70050000D03*
X87700000Y-72550000D03*
X94742000Y-140716000D03*
X97242000Y-140716000D03*
X133096000Y-95504000D03*
D12*
X125476000Y-95504000D03*
D13*
X67440000Y-64580000D03*
X72440000Y-64580000D03*
X67420000Y-67780000D03*
X72420000Y-67780000D03*
D23*
X60010000Y-69910000D03*
D24*
X60010000Y-67370000D03*
X60010000Y-64830000D03*
X60010000Y-62290000D03*
D13*
X65910000Y-70660000D03*
D12*
X73530000Y-70660000D03*
D13*
X67440000Y-61330000D03*
D12*
X75060000Y-61330000D03*
D13*
X157734000Y-132842000D03*
X160234000Y-132842000D03*
X131730000Y-124380000D03*
X131730000Y-121880000D03*
X125090000Y-125070000D03*
X125090000Y-127570000D03*
X128340000Y-132200000D03*
D12*
X128340000Y-124580000D03*
M02*
