%TF.GenerationSoftware,KiCad,Pcbnew,7.0.11+dfsg-1build4*%
%TF.CreationDate,2025-02-02T21:03:24-06:00*%
%TF.ProjectId,ControlBoard,436f6e74-726f-46c4-926f-6172642e6b69,rev?*%
%TF.SameCoordinates,Original*%
%TF.FileFunction,Copper,L2,Bot*%
%TF.FilePolarity,Positive*%
%FSLAX46Y46*%
G04 Gerber Fmt 4.6, Leading zero omitted, Abs format (unit mm)*
G04 Created by KiCad (PCBNEW 7.0.11+dfsg-1build4) date 2025-02-02 21:03:24*
%MOMM*%
%LPD*%
G01*
G04 APERTURE LIST*
%TA.AperFunction,ComponentPad*%
%ADD10C,1.600000*%
%TD*%
%TA.AperFunction,ComponentPad*%
%ADD11O,1.600000X1.600000*%
%TD*%
%TA.AperFunction,ComponentPad*%
%ADD12R,1.600000X1.600000*%
%TD*%
%TA.AperFunction,ComponentPad*%
%ADD13C,2.400000*%
%TD*%
%TA.AperFunction,ComponentPad*%
%ADD14O,2.400000X2.400000*%
%TD*%
%TA.AperFunction,ComponentPad*%
%ADD15O,2.000000X3.500000*%
%TD*%
%TA.AperFunction,ComponentPad*%
%ADD16R,2.200000X2.200000*%
%TD*%
%TA.AperFunction,ComponentPad*%
%ADD17O,2.200000X2.200000*%
%TD*%
%TA.AperFunction,ComponentPad*%
%ADD18R,1.800000X1.800000*%
%TD*%
%TA.AperFunction,ComponentPad*%
%ADD19C,1.800000*%
%TD*%
%TA.AperFunction,ComponentPad*%
%ADD20R,3.000000X3.000000*%
%TD*%
%TA.AperFunction,ComponentPad*%
%ADD21C,3.000000*%
%TD*%
%TA.AperFunction,ComponentPad*%
%ADD22R,1.700000X1.700000*%
%TD*%
%TA.AperFunction,ComponentPad*%
%ADD23O,1.700000X1.700000*%
%TD*%
%TA.AperFunction,ComponentPad*%
%ADD24R,1.524000X1.524000*%
%TD*%
%TA.AperFunction,ComponentPad*%
%ADD25C,1.524000*%
%TD*%
%TA.AperFunction,ComponentPad*%
%ADD26C,1.520000*%
%TD*%
%TA.AperFunction,ComponentPad*%
%ADD27R,1.520000X1.520000*%
%TD*%
%TA.AperFunction,ComponentPad*%
%ADD28C,1.440000*%
%TD*%
%TA.AperFunction,ComponentPad*%
%ADD29C,2.000000*%
%TD*%
%TA.AperFunction,ComponentPad*%
%ADD30O,1.800000X1.800000*%
%TD*%
%TA.AperFunction,ComponentPad*%
%ADD31O,2.400000X1.600000*%
%TD*%
%TA.AperFunction,ComponentPad*%
%ADD32C,1.500000*%
%TD*%
%TA.AperFunction,ViaPad*%
%ADD33C,0.600000*%
%TD*%
%TA.AperFunction,Conductor*%
%ADD34C,0.350000*%
%TD*%
%TA.AperFunction,Conductor*%
%ADD35C,1.500000*%
%TD*%
G04 APERTURE END LIST*
D10*
%TO.P,R9,1*%
%TO.N,Net-(U1A--)*%
X80390000Y-135410000D03*
D11*
%TO.P,R9,2*%
%TO.N,Net-(C49-Pad1)*%
X80390000Y-127790000D03*
%TD*%
D12*
%TO.P,U14,1*%
%TO.N,ULTRATRANS*%
X135120000Y-132040000D03*
D11*
%TO.P,U14,8*%
%TO.N,Net-(J6-Pin_1)*%
X150360000Y-124420000D03*
%TO.P,U14,2*%
%TO.N,Net-(C41-Pad1)*%
X137660000Y-132040000D03*
%TO.P,U14,9*%
%TO.N,Net-(U14-Pad10)*%
X147820000Y-124420000D03*
%TO.P,U14,3*%
%TO.N,ULTRATRANS*%
X140200000Y-132040000D03*
%TO.P,U14,10*%
%TO.N,Net-(U14-Pad10)*%
X145280000Y-124420000D03*
%TO.P,U14,4*%
%TO.N,Net-(C41-Pad1)*%
X142740000Y-132040000D03*
%TO.P,U14,11*%
%TO.N,ULTRATRANS*%
X142740000Y-124420000D03*
%TO.P,U14,5*%
%TO.N,Net-(U14-Pad10)*%
X145280000Y-132040000D03*
%TO.P,U14,12*%
%TO.N,PHOTSIG*%
X140200000Y-124420000D03*
%TO.P,U14,6*%
%TO.N,Net-(J6-Pin_1)*%
X147820000Y-132040000D03*
%TO.P,U14,13*%
%TO.N,Net-(C43-Pad1)*%
X137660000Y-124420000D03*
%TO.P,U14,7,GND*%
%TO.N,GND*%
X150360000Y-132040000D03*
%TO.P,U14,14,VCC*%
%TO.N,+5V*%
X135120000Y-124420000D03*
%TD*%
D10*
%TO.P,R19,1*%
%TO.N,GND*%
X117630000Y-129170000D03*
D11*
%TO.P,R19,2*%
%TO.N,Net-(Q1-B)*%
X110010000Y-129170000D03*
%TD*%
D12*
%TO.P,U3,1*%
%TO.N,Net-(C54-Pad1)*%
X76310000Y-77720000D03*
D11*
%TO.P,U3,5,+*%
%TO.N,2V5*%
X83930000Y-70100000D03*
%TO.P,U3,2,-*%
%TO.N,Net-(U3A--)*%
X78850000Y-77720000D03*
%TO.P,U3,6,-*%
%TO.N,Net-(U3B--)*%
X81390000Y-70100000D03*
%TO.P,U3,3,+*%
%TO.N,2V5*%
X81390000Y-77720000D03*
%TO.P,U3,7*%
%TO.N,Net-(C52-Pad1)*%
X78850000Y-70100000D03*
%TO.P,U3,4,V-*%
%TO.N,GND*%
X83930000Y-77720000D03*
%TO.P,U3,8,V+*%
%TO.N,+5V*%
X76310000Y-70100000D03*
%TD*%
D13*
%TO.P,R12,1*%
%TO.N,Net-(U8-Current_Sensing_B)*%
X177590000Y-130930000D03*
D14*
%TO.P,R12,2*%
%TO.N,GND*%
X157270000Y-130930000D03*
%TD*%
D15*
%TO.P,F1,1*%
%TO.N,Net-(J1-Pin_1)*%
X151666000Y-52578000D03*
X147716000Y-52578000D03*
%TO.P,F1,2*%
%TO.N,+12V*%
X155416000Y-52578000D03*
X159116000Y-52578000D03*
%TD*%
D12*
%TO.P,C3,1*%
%TO.N,+5V*%
X183600000Y-63800000D03*
D10*
%TO.P,C3,2*%
%TO.N,GND*%
X183600000Y-66300000D03*
%TD*%
%TO.P,C1,1*%
%TO.N,RESET*%
X124968000Y-85852000D03*
%TO.P,C1,2*%
%TO.N,Net-(J2-Pin_4)*%
X124968000Y-83352000D03*
%TD*%
D12*
%TO.P,C2,1*%
%TO.N,+12V*%
X179675000Y-52800000D03*
D10*
%TO.P,C2,2*%
%TO.N,GND*%
X179675000Y-55300000D03*
%TD*%
%TO.P,C4,1*%
%TO.N,+5V*%
X131550000Y-102775000D03*
%TO.P,C4,2*%
%TO.N,GND*%
X129050000Y-102775000D03*
%TD*%
%TO.P,C5,1*%
%TO.N,+5V*%
X168190000Y-95630000D03*
%TO.P,C5,2*%
%TO.N,GND*%
X168190000Y-98130000D03*
%TD*%
%TO.P,C6,1*%
%TO.N,+5V*%
X165400000Y-121590000D03*
%TO.P,C6,2*%
%TO.N,GND*%
X165400000Y-119090000D03*
%TD*%
%TO.P,C7,1*%
%TO.N,GND*%
X121920000Y-106680000D03*
%TO.P,C7,2*%
%TO.N,Net-(U5-(PCINT6{slash}XTAL1{slash}TOSC1)PB6)*%
X126920000Y-106680000D03*
%TD*%
%TO.P,C8,1*%
%TO.N,GND*%
X121920000Y-109982000D03*
%TO.P,C8,2*%
%TO.N,Net-(U5-(PCINT7{slash}XTAL2{slash}TOSC2)PB7)*%
X126920000Y-109982000D03*
%TD*%
%TO.P,C9,1*%
%TO.N,+5V*%
X184990000Y-112850000D03*
%TO.P,C9,2*%
%TO.N,GND*%
X182490000Y-112850000D03*
%TD*%
%TO.P,C10,1*%
%TO.N,+5V*%
X92010000Y-124210000D03*
%TO.P,C10,2*%
%TO.N,GND*%
X89510000Y-124210000D03*
%TD*%
%TO.P,C11,1*%
%TO.N,+5V*%
X147970000Y-78120000D03*
%TO.P,C11,2*%
%TO.N,GND*%
X150470000Y-78120000D03*
%TD*%
D12*
%TO.P,C12,1*%
%TO.N,Net-(MK1-+)*%
X62738000Y-124206000D03*
D10*
%TO.P,C12,2*%
%TO.N,Net-(C12-Pad2)*%
X65238000Y-124206000D03*
%TD*%
D12*
%TO.P,C13,1*%
%TO.N,2V5*%
X128470000Y-59090000D03*
D10*
%TO.P,C13,2*%
%TO.N,GND*%
X125970000Y-59090000D03*
%TD*%
D12*
%TO.P,C14,1*%
%TO.N,Net-(C14-Pad1)*%
X85075000Y-119675000D03*
D10*
%TO.P,C14,2*%
%TO.N,Net-(U1B--)*%
X87575000Y-119675000D03*
%TD*%
%TO.P,C15,1*%
%TO.N,Net-(D4-K)*%
X96530000Y-125280000D03*
%TO.P,C15,2*%
%TO.N,Net-(C15-Pad2)*%
X101530000Y-125280000D03*
%TD*%
%TO.P,C16,1*%
%TO.N,GND*%
X94770000Y-115170000D03*
%TO.P,C16,2*%
%TO.N,Net-(D5-K)*%
X99770000Y-115170000D03*
%TD*%
%TO.P,C17,1*%
%TO.N,+5V*%
X164290000Y-71570000D03*
%TO.P,C17,2*%
%TO.N,GND*%
X164290000Y-74070000D03*
%TD*%
%TO.P,C18,1*%
%TO.N,+5V*%
X66548000Y-117856000D03*
%TO.P,C18,2*%
%TO.N,GND*%
X66548000Y-115356000D03*
%TD*%
%TO.P,C19,1*%
%TO.N,+5V*%
X128500000Y-66780000D03*
%TO.P,C19,2*%
%TO.N,GND*%
X126000000Y-66780000D03*
%TD*%
D12*
%TO.P,C21,1*%
%TO.N,Net-(C21-Pad1)*%
X116332000Y-65786000D03*
D10*
%TO.P,C21,2*%
%TO.N,Net-(U2A--)*%
X116332000Y-68286000D03*
%TD*%
%TO.P,C22,1*%
%TO.N,Net-(C22-Pad1)*%
X104380000Y-65270000D03*
%TO.P,C22,2*%
%TO.N,Net-(D14-K)*%
X99380000Y-65270000D03*
%TD*%
%TO.P,C23,1*%
%TO.N,PHOTLEVELOUT*%
X96620000Y-69350000D03*
%TO.P,C23,2*%
%TO.N,GND*%
X96620000Y-64350000D03*
%TD*%
%TO.P,C24,1*%
%TO.N,+5V*%
X75184000Y-67056000D03*
%TO.P,C24,2*%
%TO.N,GND*%
X75184000Y-64556000D03*
%TD*%
%TO.P,C25,1*%
%TO.N,+5V*%
X94996000Y-90678000D03*
%TO.P,C25,2*%
%TO.N,GND*%
X94996000Y-88178000D03*
%TD*%
%TO.P,C26,1*%
%TO.N,Net-(C26-Pad1)*%
X67920000Y-83090000D03*
%TO.P,C26,2*%
%TO.N,Net-(J7-Pin_2)*%
X67920000Y-88090000D03*
%TD*%
%TO.P,C27,1*%
%TO.N,Net-(U3A--)*%
X87630000Y-82296000D03*
%TO.P,C27,2*%
%TO.N,Net-(C27-Pad2)*%
X87630000Y-77296000D03*
%TD*%
%TO.P,C28,1*%
%TO.N,Net-(U4A--)*%
X71300000Y-97960000D03*
%TO.P,C28,2*%
%TO.N,Net-(C28-Pad2)*%
X71300000Y-92960000D03*
%TD*%
%TO.P,C29,1*%
%TO.N,Net-(C29-Pad1)*%
X84780000Y-101840000D03*
%TO.P,C29,2*%
%TO.N,Net-(D16-K)*%
X82280000Y-101840000D03*
%TD*%
%TO.P,C30,1*%
%TO.N,GND*%
X81980000Y-110980000D03*
%TO.P,C30,2*%
%TO.N,ULTRASOUNDOUT*%
X86980000Y-110980000D03*
%TD*%
D12*
%TO.P,D1,1,K*%
%TO.N,+5V*%
X131350000Y-92570000D03*
D11*
%TO.P,D1,2,A*%
%TO.N,RESET*%
X131350000Y-84950000D03*
%TD*%
D16*
%TO.P,D2,1,K*%
%TO.N,+12V*%
X184900000Y-52730000D03*
D17*
%TO.P,D2,2,A*%
%TO.N,+5V*%
X184900000Y-60350000D03*
%TD*%
D18*
%TO.P,D3,1,K*%
%TO.N,Net-(D3-K)*%
X172920000Y-56410000D03*
D19*
%TO.P,D3,2,A*%
%TO.N,+5V*%
X172920000Y-53870000D03*
%TD*%
D16*
%TO.P,D6,1,K*%
%TO.N,+12V*%
X191110000Y-70070000D03*
D17*
%TO.P,D6,2,A*%
%TO.N,Net-(D6-A)*%
X191110000Y-77690000D03*
%TD*%
D16*
%TO.P,D7,1,K*%
%TO.N,Net-(D6-A)*%
X194600000Y-77620000D03*
D17*
%TO.P,D7,2,A*%
%TO.N,GND*%
X194600000Y-70000000D03*
%TD*%
D16*
%TO.P,D8,1,K*%
%TO.N,+12V*%
X178620000Y-134200000D03*
D17*
%TO.P,D8,2,A*%
%TO.N,Net-(D8-A)*%
X178620000Y-141820000D03*
%TD*%
D16*
%TO.P,D9,1,K*%
%TO.N,Net-(D8-A)*%
X175020000Y-141880000D03*
D17*
%TO.P,D9,2,A*%
%TO.N,GND*%
X175020000Y-134260000D03*
%TD*%
D16*
%TO.P,D10,1,K*%
%TO.N,+12V*%
X186860000Y-93820000D03*
D17*
%TO.P,D10,2,A*%
%TO.N,Net-(D10-A)*%
X194480000Y-93820000D03*
%TD*%
D16*
%TO.P,D11,1,K*%
%TO.N,Net-(D10-A)*%
X194410000Y-97180000D03*
D17*
%TO.P,D11,2,A*%
%TO.N,GND*%
X186790000Y-97180000D03*
%TD*%
D16*
%TO.P,D12,1,K*%
%TO.N,+12V*%
X181864000Y-132842000D03*
D17*
%TO.P,D12,2,A*%
%TO.N,Net-(D12-A)*%
X189484000Y-132842000D03*
%TD*%
D16*
%TO.P,D13,1,K*%
%TO.N,Net-(D12-A)*%
X190000000Y-129300000D03*
D17*
%TO.P,D13,2,A*%
%TO.N,GND*%
X182380000Y-129300000D03*
%TD*%
D18*
%TO.P,ID1,1,K*%
%TO.N,Net-(ID1-K)*%
X175450000Y-45710000D03*
D19*
%TO.P,ID1,2,A*%
%TO.N,+5V*%
X175450000Y-43170000D03*
%TD*%
D18*
%TO.P,ID2,1,K*%
%TO.N,Net-(ID2-K)*%
X131280000Y-139980000D03*
D19*
%TO.P,ID2,2,A*%
%TO.N,+5V*%
X133820000Y-139980000D03*
%TD*%
D18*
%TO.P,ID3,1,K*%
%TO.N,Net-(ID3-K)*%
X68500000Y-46280000D03*
D19*
%TO.P,ID3,2,A*%
%TO.N,+5V*%
X68500000Y-43740000D03*
%TD*%
D18*
%TO.P,ID4,1,K*%
%TO.N,Net-(ID4-K)*%
X119720000Y-45000000D03*
D19*
%TO.P,ID4,2,A*%
%TO.N,+5V*%
X122260000Y-45000000D03*
%TD*%
D20*
%TO.P,J1,1,Pin_1*%
%TO.N,Net-(J1-Pin_1)*%
X143002000Y-44196000D03*
D21*
%TO.P,J1,2,Pin_2*%
%TO.N,GND*%
X148082000Y-44196000D03*
%TD*%
D22*
%TO.P,J2,1,Pin_1*%
%TO.N,GND*%
X108240000Y-95190000D03*
D23*
%TO.P,J2,2,Pin_2*%
%TO.N,Net-(J2-Pin_2)*%
X108240000Y-92650000D03*
%TO.P,J2,3,Pin_3*%
%TO.N,Net-(J2-Pin_3)*%
X108240000Y-90110000D03*
%TO.P,J2,4,Pin_4*%
%TO.N,Net-(J2-Pin_4)*%
X108240000Y-87570000D03*
%TD*%
D22*
%TO.P,J3,1,Pin_1*%
%TO.N,MICTHR*%
X152925000Y-109050000D03*
D23*
%TO.P,J3,2,Pin_2*%
%TO.N,+5V*%
X155465000Y-109050000D03*
%TO.P,J3,3,Pin_3*%
%TO.N,SCK*%
X152925000Y-111590000D03*
%TO.P,J3,4,Pin_4*%
%TO.N,MOSI*%
X155465000Y-111590000D03*
%TO.P,J3,5,Pin_5*%
%TO.N,RESET*%
X152925000Y-114130000D03*
%TO.P,J3,6,Pin_6*%
%TO.N,GND*%
X155465000Y-114130000D03*
%TD*%
D20*
%TO.P,J4,1,Pin_1*%
%TO.N,Net-(D6-A)*%
X193610000Y-83050000D03*
D21*
%TO.P,J4,2,Pin_2*%
%TO.N,Net-(D10-A)*%
X193610000Y-88130000D03*
%TD*%
D20*
%TO.P,J5,1,Pin_1*%
%TO.N,Net-(D12-A)*%
X188290000Y-138950000D03*
D21*
%TO.P,J5,2,Pin_2*%
%TO.N,Net-(D8-A)*%
X183210000Y-138950000D03*
%TD*%
D20*
%TO.P,J6,1,Pin_1*%
%TO.N,Net-(J6-Pin_1)*%
X165050000Y-139180000D03*
D21*
%TO.P,J6,2,Pin_2*%
%TO.N,Net-(J6-Pin_2)*%
X159970000Y-139180000D03*
%TD*%
D20*
%TO.P,J7,1,Pin_1*%
%TO.N,GND*%
X60970000Y-82700000D03*
D21*
%TO.P,J7,2,Pin_2*%
%TO.N,Net-(J7-Pin_2)*%
X60970000Y-77620000D03*
%TD*%
D24*
%TO.P,MK1,1,-*%
%TO.N,GND*%
X70870000Y-137530000D03*
D25*
%TO.P,MK1,2,+*%
%TO.N,Net-(MK1-+)*%
X70870000Y-132450000D03*
%TD*%
D18*
%TO.P,PDT1,1,E*%
%TO.N,Net-(PDT1-E)*%
X118364000Y-140208000D03*
D19*
%TO.P,PDT1,2,C*%
%TO.N,+5V*%
X120904000Y-140208000D03*
%TD*%
D18*
%TO.P,PDT2,1,E*%
%TO.N,Net-(PDT2-E)*%
X187960000Y-45720000D03*
D19*
%TO.P,PDT2,2,C*%
%TO.N,+5V*%
X187960000Y-43180000D03*
%TD*%
D18*
%TO.P,PDT3,1,E*%
%TO.N,Net-(PDT3-E)*%
X59450000Y-55175000D03*
D19*
%TO.P,PDT3,2,C*%
%TO.N,+5V*%
X59450000Y-52635000D03*
%TD*%
D18*
%TO.P,PDT4,1,E*%
%TO.N,Net-(PDT4-E)*%
X109610000Y-44650000D03*
D19*
%TO.P,PDT4,2,C*%
%TO.N,+5V*%
X112150000Y-44650000D03*
%TD*%
D18*
%TO.P,PT1,1,E*%
%TO.N,GND*%
X165430000Y-45710000D03*
D19*
%TO.P,PT1,2,C*%
%TO.N,Net-(PT1-C)*%
X165430000Y-43170000D03*
%TD*%
D18*
%TO.P,PT2,1,E*%
%TO.N,GND*%
X141290000Y-139980000D03*
D19*
%TO.P,PT2,2,C*%
%TO.N,Net-(PT2-C)*%
X143830000Y-139980000D03*
%TD*%
D18*
%TO.P,PT3,1,E*%
%TO.N,GND*%
X78500000Y-46280000D03*
D19*
%TO.P,PT3,2,C*%
%TO.N,Net-(PT3-C)*%
X78500000Y-43740000D03*
%TD*%
D18*
%TO.P,PT4,1,E*%
%TO.N,GND*%
X129730000Y-45000000D03*
D19*
%TO.P,PT4,2,C*%
%TO.N,Net-(PT4-C)*%
X132270000Y-45000000D03*
%TD*%
D26*
%TO.P,Q1,2,B*%
%TO.N,Net-(Q1-B)*%
X112650000Y-113970000D03*
%TO.P,Q1,3,C*%
%TO.N,Net-(Q1-C)*%
X112650000Y-111430000D03*
D27*
%TO.P,Q1,1,E*%
%TO.N,GND*%
X112650000Y-116510000D03*
%TD*%
D26*
%TO.P,Q2,2,B*%
%TO.N,Net-(Q2-B)*%
X105465000Y-113550000D03*
%TO.P,Q2,3,C*%
%TO.N,ULTRASOUNDTHR*%
X108005000Y-113550000D03*
D27*
%TO.P,Q2,1,E*%
%TO.N,GND*%
X102925000Y-113550000D03*
%TD*%
D10*
%TO.P,R1,1*%
%TO.N,Net-(J2-Pin_3)*%
X113860000Y-84380000D03*
D11*
%TO.P,R1,2*%
%TO.N,GND*%
X121480000Y-84380000D03*
%TD*%
D10*
%TO.P,R2,1*%
%TO.N,Net-(J2-Pin_3)*%
X117856000Y-88900000D03*
D11*
%TO.P,R2,2*%
%TO.N,TXD*%
X125476000Y-88900000D03*
%TD*%
D10*
%TO.P,R3,1*%
%TO.N,+5V*%
X128240000Y-92590000D03*
D11*
%TO.P,R3,2*%
%TO.N,RESET*%
X128240000Y-84970000D03*
%TD*%
D10*
%TO.P,R4,1*%
%TO.N,Net-(D3-K)*%
X181825000Y-60275000D03*
D11*
%TO.P,R4,2*%
%TO.N,GND*%
X174205000Y-60275000D03*
%TD*%
D10*
%TO.P,R5,1*%
%TO.N,+5V*%
X59436000Y-122174000D03*
D11*
%TO.P,R5,2*%
%TO.N,Net-(MK1-+)*%
X59436000Y-129794000D03*
%TD*%
D10*
%TO.P,R6,1*%
%TO.N,+5V*%
X138938000Y-62484000D03*
D11*
%TO.P,R6,2*%
%TO.N,2V5*%
X131318000Y-62484000D03*
%TD*%
D10*
%TO.P,R7,1*%
%TO.N,2V5*%
X131318000Y-65786000D03*
D11*
%TO.P,R7,2*%
%TO.N,GND*%
X138938000Y-65786000D03*
%TD*%
D10*
%TO.P,R8,1*%
%TO.N,Net-(U1A--)*%
X75946000Y-124714000D03*
D11*
%TO.P,R8,2*%
%TO.N,Net-(C12-Pad2)*%
X68326000Y-124714000D03*
%TD*%
D10*
%TO.P,R10,1*%
%TO.N,GND*%
X68280000Y-121500000D03*
D11*
%TO.P,R10,2*%
%TO.N,Net-(C49-Pad1)*%
X75900000Y-121500000D03*
%TD*%
D13*
%TO.P,R11,1*%
%TO.N,Net-(U8-Current_Sensing_A)*%
X186690000Y-90170000D03*
D14*
%TO.P,R11,2*%
%TO.N,GND*%
X186690000Y-69850000D03*
%TD*%
D10*
%TO.P,R13,1*%
%TO.N,CURSEN2*%
X164338000Y-107188000D03*
D11*
%TO.P,R13,2*%
%TO.N,Net-(U8-Current_Sensing_B)*%
X164338000Y-114808000D03*
%TD*%
D10*
%TO.P,R14,1*%
%TO.N,Net-(C49-Pad1)*%
X78220000Y-124740000D03*
D11*
%TO.P,R14,2*%
%TO.N,Net-(C14-Pad1)*%
X85840000Y-124740000D03*
%TD*%
D10*
%TO.P,R15,1*%
%TO.N,CURSEN1*%
X171070000Y-99020000D03*
D11*
%TO.P,R15,2*%
%TO.N,Net-(U8-Current_Sensing_A)*%
X178690000Y-99020000D03*
%TD*%
D10*
%TO.P,R16,1*%
%TO.N,Net-(U1B--)*%
X103750000Y-136970000D03*
D11*
%TO.P,R16,2*%
%TO.N,MICOUT*%
X103750000Y-129350000D03*
%TD*%
D10*
%TO.P,R17,1*%
%TO.N,GND*%
X107188000Y-136906000D03*
D11*
%TO.P,R17,2*%
%TO.N,MICOUT*%
X107188000Y-129286000D03*
%TD*%
D10*
%TO.P,R18,1*%
%TO.N,Net-(Q1-B)*%
X110950000Y-126370000D03*
D11*
%TO.P,R18,2*%
%TO.N,Net-(D5-K)*%
X110950000Y-118750000D03*
%TD*%
D10*
%TO.P,R20,1*%
%TO.N,Net-(Q1-C)*%
X117570000Y-132380000D03*
D11*
%TO.P,R20,2*%
%TO.N,+5V*%
X109950000Y-132380000D03*
%TD*%
D10*
%TO.P,R21,1*%
%TO.N,+5V*%
X168420000Y-78820000D03*
D11*
%TO.P,R21,2*%
%TO.N,CLROUT*%
X168420000Y-86440000D03*
%TD*%
D10*
%TO.P,R22,1*%
%TO.N,MICOUT*%
X107790000Y-126400000D03*
D11*
%TO.P,R22,2*%
%TO.N,Net-(C15-Pad2)*%
X107790000Y-118780000D03*
%TD*%
D10*
%TO.P,R23,1*%
%TO.N,Net-(PT4-C)*%
X138340000Y-49130000D03*
D11*
%TO.P,R23,2*%
%TO.N,+5V*%
X138340000Y-41510000D03*
%TD*%
D10*
%TO.P,R24,1*%
%TO.N,Net-(R24-Pad1)*%
X111340000Y-68700000D03*
D11*
%TO.P,R24,2*%
%TO.N,Net-(C22-Pad1)*%
X103720000Y-68700000D03*
%TD*%
D10*
%TO.P,R25,1*%
%TO.N,Net-(PT3-C)*%
X74270000Y-51920000D03*
D11*
%TO.P,R25,2*%
%TO.N,+5V*%
X66650000Y-51920000D03*
%TD*%
D10*
%TO.P,R26,1*%
%TO.N,Net-(PT2-C)*%
X155230000Y-134780000D03*
D11*
%TO.P,R26,2*%
%TO.N,+5V*%
X155230000Y-142400000D03*
%TD*%
D10*
%TO.P,R27,1*%
%TO.N,Net-(R27-Pad1)*%
X83800000Y-87500000D03*
D11*
%TO.P,R27,2*%
%TO.N,Net-(C29-Pad1)*%
X91420000Y-87500000D03*
%TD*%
D10*
%TO.P,R28,1*%
%TO.N,Net-(PT1-C)*%
X155990000Y-48340000D03*
D11*
%TO.P,R28,2*%
%TO.N,+5V*%
X155990000Y-40720000D03*
%TD*%
D10*
%TO.P,R32,1*%
%TO.N,GND*%
X90424000Y-41148000D03*
D11*
%TO.P,R32,2*%
%TO.N,Net-(PDT4-E)*%
X98044000Y-41148000D03*
%TD*%
D10*
%TO.P,R35,1*%
%TO.N,GND*%
X74290000Y-55170000D03*
D11*
%TO.P,R35,2*%
%TO.N,Net-(PDT3-E)*%
X66670000Y-55170000D03*
%TD*%
D10*
%TO.P,R36,1*%
%TO.N,GND*%
X183388000Y-49276000D03*
D11*
%TO.P,R36,2*%
%TO.N,Net-(PDT2-E)*%
X191008000Y-49276000D03*
%TD*%
D10*
%TO.P,R37,1*%
%TO.N,GND*%
X113500000Y-143000000D03*
D11*
%TO.P,R37,2*%
%TO.N,Net-(PDT1-E)*%
X113500000Y-135380000D03*
%TD*%
D10*
%TO.P,R38,1*%
%TO.N,Net-(ID1-K)*%
X167950000Y-51520000D03*
D11*
%TO.P,R38,2*%
%TO.N,Net-(U11-O4)*%
X167950000Y-59140000D03*
%TD*%
D10*
%TO.P,R39,1*%
%TO.N,Net-(ID2-K)*%
X161036000Y-114808000D03*
D11*
%TO.P,R39,2*%
%TO.N,Net-(U11-O5)*%
X161036000Y-107188000D03*
%TD*%
D10*
%TO.P,R40,1*%
%TO.N,Net-(ID3-K)*%
X139710000Y-52120000D03*
D11*
%TO.P,R40,2*%
%TO.N,Net-(U11-O6)*%
X139710000Y-59740000D03*
%TD*%
D10*
%TO.P,R41,1*%
%TO.N,Net-(ID4-K)*%
X143002000Y-51562000D03*
D11*
%TO.P,R41,2*%
%TO.N,Net-(U11-O7)*%
X143002000Y-59182000D03*
%TD*%
D10*
%TO.P,R42,1*%
%TO.N,Net-(C20-Pad1)*%
X138684000Y-79502000D03*
D11*
%TO.P,R42,2*%
%TO.N,Net-(U2B--)*%
X138684000Y-71882000D03*
%TD*%
D10*
%TO.P,R43,1*%
%TO.N,Net-(U2B--)*%
X132334000Y-79502000D03*
D11*
%TO.P,R43,2*%
%TO.N,Net-(C48-Pad1)*%
X132334000Y-71882000D03*
%TD*%
D10*
%TO.P,R44,1*%
%TO.N,GND*%
X135636000Y-79502000D03*
D11*
%TO.P,R44,2*%
%TO.N,Net-(C48-Pad1)*%
X135636000Y-71882000D03*
%TD*%
D10*
%TO.P,R45,1*%
%TO.N,Net-(C48-Pad1)*%
X128970000Y-63560000D03*
D11*
%TO.P,R45,2*%
%TO.N,Net-(C21-Pad1)*%
X121350000Y-63560000D03*
%TD*%
D10*
%TO.P,R46,1*%
%TO.N,Net-(U2A--)*%
X111252000Y-79502000D03*
D11*
%TO.P,R46,2*%
%TO.N,Net-(R24-Pad1)*%
X111252000Y-71882000D03*
%TD*%
D10*
%TO.P,R47,1*%
%TO.N,GND*%
X107950000Y-79502000D03*
D11*
%TO.P,R47,2*%
%TO.N,Net-(R24-Pad1)*%
X107950000Y-71882000D03*
%TD*%
D10*
%TO.P,R48,1*%
%TO.N,GND*%
X96800000Y-71800000D03*
D11*
%TO.P,R48,2*%
%TO.N,PHOTLEVELOUT*%
X96800000Y-79420000D03*
%TD*%
D10*
%TO.P,R50,1*%
%TO.N,Net-(U3B--)*%
X67890000Y-73250000D03*
D11*
%TO.P,R50,2*%
%TO.N,Net-(C26-Pad1)*%
X67890000Y-80870000D03*
%TD*%
D10*
%TO.P,R51,1*%
%TO.N,Net-(C52-Pad1)*%
X79290000Y-66860000D03*
D11*
%TO.P,R51,2*%
%TO.N,Net-(U3B--)*%
X86910000Y-66860000D03*
%TD*%
D10*
%TO.P,R52,1*%
%TO.N,GND*%
X85470000Y-61660000D03*
D11*
%TO.P,R52,2*%
%TO.N,Net-(C52-Pad1)*%
X77850000Y-61660000D03*
%TD*%
D10*
%TO.P,R53,1*%
%TO.N,Net-(C27-Pad2)*%
X90910000Y-77340000D03*
D11*
%TO.P,R53,2*%
%TO.N,Net-(C52-Pad1)*%
X90910000Y-69720000D03*
%TD*%
D10*
%TO.P,R54,1*%
%TO.N,Net-(C54-Pad1)*%
X73950000Y-81040000D03*
D11*
%TO.P,R54,2*%
%TO.N,Net-(U3A--)*%
X81570000Y-81040000D03*
%TD*%
D10*
%TO.P,R55,1*%
%TO.N,GND*%
X81530000Y-84320000D03*
D11*
%TO.P,R55,2*%
%TO.N,Net-(C54-Pad1)*%
X73910000Y-84320000D03*
%TD*%
D10*
%TO.P,R56,1*%
%TO.N,Net-(C28-Pad2)*%
X67920000Y-97990000D03*
D11*
%TO.P,R56,2*%
%TO.N,Net-(C54-Pad1)*%
X67920000Y-90370000D03*
%TD*%
D10*
%TO.P,R57,1*%
%TO.N,Net-(U4A--)*%
X74676000Y-98044000D03*
D11*
%TO.P,R57,2*%
%TO.N,Net-(R27-Pad1)*%
X74676000Y-90424000D03*
%TD*%
D10*
%TO.P,R58,1*%
%TO.N,GND*%
X73914000Y-87630000D03*
D11*
%TO.P,R58,2*%
%TO.N,Net-(R27-Pad1)*%
X81534000Y-87630000D03*
%TD*%
D10*
%TO.P,R59,1*%
%TO.N,Net-(U4B-+)*%
X90170000Y-104140000D03*
D11*
%TO.P,R59,2*%
%TO.N,ULTRASOUNDOUT*%
X90170000Y-111760000D03*
%TD*%
D10*
%TO.P,R60,1*%
%TO.N,GND*%
X93726000Y-111760000D03*
D11*
%TO.P,R60,2*%
%TO.N,Net-(U4B-+)*%
X93726000Y-104140000D03*
%TD*%
D10*
%TO.P,R61,1*%
%TO.N,GND*%
X99970000Y-111560000D03*
D11*
%TO.P,R61,2*%
%TO.N,Net-(U4B--)*%
X99970000Y-103940000D03*
%TD*%
D10*
%TO.P,R62,1*%
%TO.N,Net-(U4B--)*%
X101250000Y-101250000D03*
D11*
%TO.P,R62,2*%
%TO.N,Net-(R62-Pad2)*%
X101250000Y-93630000D03*
%TD*%
D10*
%TO.P,R63,1*%
%TO.N,Net-(Q2-B)*%
X104902000Y-109220000D03*
D11*
%TO.P,R63,2*%
%TO.N,Net-(R62-Pad2)*%
X104902000Y-101600000D03*
%TD*%
D10*
%TO.P,R64,1*%
%TO.N,ULTRASOUNDTHR*%
X108204000Y-109220000D03*
D11*
%TO.P,R64,2*%
%TO.N,+5V*%
X108204000Y-101600000D03*
%TD*%
D28*
%TO.P,RV1,1,1*%
%TO.N,MICOUT*%
X99410000Y-130310000D03*
%TO.P,RV1,2,2*%
%TO.N,Net-(U1B--)*%
X99410000Y-132850000D03*
%TO.P,RV1,3,3*%
X99410000Y-135390000D03*
%TD*%
%TO.P,RV2,1,1*%
%TO.N,Net-(R24-Pad1)*%
X116332000Y-73152000D03*
%TO.P,RV2,2,2*%
X116332000Y-75692000D03*
%TO.P,RV2,3,3*%
%TO.N,Net-(U2A--)*%
X116332000Y-78232000D03*
%TD*%
%TO.P,RV3,1,1*%
%TO.N,Net-(R27-Pad1)*%
X79248000Y-91948000D03*
%TO.P,RV3,2,2*%
%TO.N,Net-(U4A--)*%
X79248000Y-94488000D03*
%TO.P,RV3,3,3*%
X79248000Y-97028000D03*
%TD*%
%TO.P,RV4,1,1*%
%TO.N,Net-(R62-Pad2)*%
X96340000Y-94940000D03*
%TO.P,RV4,2,2*%
%TO.N,Net-(U4B--)*%
X96340000Y-97480000D03*
%TO.P,RV4,3,3*%
X96340000Y-100020000D03*
%TD*%
D29*
%TO.P,SW1,2,2*%
%TO.N,RESET*%
X122936000Y-92020000D03*
%TO.P,SW1,1,1*%
%TO.N,GND*%
X122936000Y-96520000D03*
%TO.P,SW1,2,2*%
%TO.N,RESET*%
X116436000Y-92020000D03*
%TO.P,SW1,1,1*%
%TO.N,GND*%
X116436000Y-96520000D03*
%TD*%
D12*
%TO.P,U5,1,(PCINT14/~{RESET})PC6*%
%TO.N,RESET*%
X136144000Y-87884000D03*
D11*
%TO.P,U5,15,(PCINT1/OC1A)PB1*%
%TO.N,Net-(J21-Pin_3)*%
X143764000Y-120904000D03*
%TO.P,U5,2,(PCINT16/RXD)PD0*%
%TO.N,RXD*%
X136144000Y-90424000D03*
%TO.P,U5,16,(PCINT2/OC1B/~{SS})PB2*%
%TO.N,LATCH*%
X143764000Y-118364000D03*
%TO.P,U5,3,(PCINT17/TXD)PD1*%
%TO.N,TXD*%
X136144000Y-92964000D03*
%TO.P,U5,17,(PCINT3/OC2A/MOSI)PB3*%
%TO.N,MOSI*%
X143764000Y-115824000D03*
%TO.P,U5,4,(PCINT18/INT0)PD2*%
%TO.N,Net-(J19-Pin_2)*%
X136144000Y-95504000D03*
%TO.P,U5,18,(PCINT4/MISO)PB4*%
%TO.N,MICTHR*%
X143764000Y-113284000D03*
%TO.P,U5,5,(PCINT19/OC2B/INT1)PD3*%
%TO.N,Net-(J19-Pin_3)*%
X136144000Y-98044000D03*
%TO.P,U5,19,(PCINT5/SCK)PB5*%
%TO.N,SCK*%
X143764000Y-110744000D03*
%TO.P,U5,6,(PCINT20/XCK/T0)PD4*%
%TO.N,ULTRASOUNDTHR*%
X136144000Y-100584000D03*
%TO.P,U5,20,AVCC*%
%TO.N,+5V*%
X143764000Y-108204000D03*
%TO.P,U5,7,VCC*%
X136144000Y-103124000D03*
%TO.P,U5,21,AREF*%
%TO.N,Net-(U5-AREF)*%
X143764000Y-105664000D03*
%TO.P,U5,8,GND*%
%TO.N,GND*%
X136144000Y-105664000D03*
%TO.P,U5,22,GND*%
X143764000Y-103124000D03*
%TO.P,U5,9,(PCINT6/XTAL1/TOSC1)PB6*%
%TO.N,Net-(U5-(PCINT6{slash}XTAL1{slash}TOSC1)PB6)*%
X136144000Y-108204000D03*
%TO.P,U5,23,(PCINT8/ADC0)PC0*%
%TO.N,CURSEN1*%
X143764000Y-100584000D03*
%TO.P,U5,10,(PCINT7/XTAL2/TOSC2)PB7*%
%TO.N,Net-(U5-(PCINT7{slash}XTAL2{slash}TOSC2)PB7)*%
X136144000Y-110744000D03*
%TO.P,U5,24,(PCINT9/ADC1)PC1*%
%TO.N,CURSEN2*%
X143764000Y-98044000D03*
%TO.P,U5,11,(PCINT21/OC0B/T1)PD5*%
%TO.N,MOTORPWM1*%
X136144000Y-113284000D03*
%TO.P,U5,25,(PCINT10/ADC2)PC2*%
%TO.N,PHOTLEVELOUT*%
X143764000Y-95504000D03*
%TO.P,U5,12,(PCINT22/OC0A/AIN0)PD6*%
%TO.N,MOTORPWM2*%
X136144000Y-115824000D03*
%TO.P,U5,26,(PCINT11/ADC3)PC3*%
%TO.N,ULTRASOUNDOUT*%
X143764000Y-92964000D03*
%TO.P,U5,13,(PCINT23/AIN1)PD7*%
%TO.N,ULTRATRANS*%
X136144000Y-118364000D03*
%TO.P,U5,27,(PCINT12/SDA/ADC4)PC4*%
%TO.N,LIGHTLEVEL*%
X143764000Y-90424000D03*
%TO.P,U5,14,(PCINT0/CLKO/ICP1)PB0*%
%TO.N,Net-(J21-Pin_2)*%
X136144000Y-120904000D03*
%TO.P,U5,28,(PCINT13/SCL/ADC5)PC5*%
%TO.N,MICOUT*%
X143764000Y-87884000D03*
%TD*%
D18*
%TO.P,U6,1,VI*%
%TO.N,+12V*%
X194450000Y-53600000D03*
D30*
%TO.P,U6,2,GND*%
%TO.N,GND*%
X194450000Y-56140000D03*
%TO.P,U6,3,VO*%
%TO.N,+5V*%
X194450000Y-58680000D03*
%TD*%
D12*
%TO.P,U7,1,QB*%
%TO.N,MTRIN4*%
X176940000Y-121620000D03*
D11*
%TO.P,U7,9,~{QH}*%
%TO.N,Net-(U7-~{QH})*%
X169320000Y-103840000D03*
%TO.P,U7,2,QC*%
%TO.N,MTRIN3*%
X176940000Y-119080000D03*
%TO.P,U7,10,SRCLR*%
%TO.N,CLROUT*%
X169320000Y-106380000D03*
%TO.P,U7,3,QD*%
%TO.N,MTRIN2*%
X176940000Y-116540000D03*
%TO.P,U7,11,SRCLK*%
%TO.N,SCK*%
X169320000Y-108920000D03*
%TO.P,U7,4,QE*%
%TO.N,MTRIN1*%
X176940000Y-114000000D03*
%TO.P,U7,12,RCLK*%
%TO.N,LATCH*%
X169320000Y-111460000D03*
%TO.P,U7,5,QF*%
%TO.N,Net-(J20-Pin_2)*%
X176940000Y-111460000D03*
%TO.P,U7,13,G*%
%TO.N,GND*%
X169320000Y-114000000D03*
%TO.P,U7,6,QG*%
%TO.N,Net-(J20-Pin_3)*%
X176940000Y-108920000D03*
%TO.P,U7,14,SER*%
%TO.N,MOSI*%
X169320000Y-116540000D03*
%TO.P,U7,7,QH*%
%TO.N,Net-(J20-Pin_4)*%
X176940000Y-106380000D03*
%TO.P,U7,15,QA*%
%TO.N,Net-(J20-Pin_5)*%
X169320000Y-119080000D03*
%TO.P,U7,8,GND*%
%TO.N,GND*%
X176940000Y-103840000D03*
%TO.P,U7,16,VCC*%
%TO.N,+5V*%
X169320000Y-121620000D03*
%TD*%
D31*
%TO.P,U8,1,Current_Sensing_A*%
%TO.N,Net-(U8-Current_Sensing_A)*%
X189050000Y-104490000D03*
%TO.P,U8,2,OUT_1*%
%TO.N,Net-(D10-A)*%
X194130000Y-105760000D03*
%TO.P,U8,3,OUT_2*%
%TO.N,Net-(D6-A)*%
X189050000Y-107030000D03*
%TO.P,U8,4,Vs*%
%TO.N,+12V*%
X194130000Y-108300000D03*
%TO.P,U8,5,IN_1*%
%TO.N,MTRIN1*%
X189050000Y-109570000D03*
%TO.P,U8,6,EN_A*%
%TO.N,MOTORPWM1*%
X194130000Y-110840000D03*
%TO.P,U8,7,IN_2*%
%TO.N,MTRIN2*%
X189050000Y-112110000D03*
%TO.P,U8,8,GND*%
%TO.N,GND*%
X194130000Y-113380000D03*
%TO.P,U8,9,Vss*%
%TO.N,+5V*%
X189050000Y-114650000D03*
%TO.P,U8,10,IN_3*%
%TO.N,MTRIN3*%
X194130000Y-115920000D03*
%TO.P,U8,11,EN_B*%
%TO.N,MOTORPWM2*%
X189050000Y-117190000D03*
%TO.P,U8,12,IN_4*%
%TO.N,MTRIN4*%
X194130000Y-118460000D03*
%TO.P,U8,13,OUT_3*%
%TO.N,Net-(D8-A)*%
X189050000Y-119730000D03*
%TO.P,U8,14,OUT_4*%
%TO.N,Net-(D12-A)*%
X194130000Y-121000000D03*
%TO.P,U8,15,Current_Sensing_B*%
%TO.N,Net-(U8-Current_Sensing_B)*%
X189050000Y-122270000D03*
%TD*%
D12*
%TO.P,U9,1,QB*%
%TO.N,LIGHTSELA*%
X179502000Y-92960000D03*
D11*
%TO.P,U9,9,~{QH}*%
%TO.N,unconnected-(U9-~{QH}-Pad9)*%
X171882000Y-75180000D03*
%TO.P,U9,2,QC*%
%TO.N,LIGHTSELB*%
X179502000Y-90420000D03*
%TO.P,U9,10,SRCLR*%
%TO.N,CLROUT*%
X171882000Y-77720000D03*
%TO.P,U9,3,QD*%
%TO.N,LIGHTSELC*%
X179502000Y-87880000D03*
%TO.P,U9,11,SRCLK*%
%TO.N,SCK*%
X171882000Y-80260000D03*
%TO.P,U9,4,QE*%
%TO.N,PHOTSELA*%
X179502000Y-85340000D03*
%TO.P,U9,12,RCLK*%
%TO.N,LATCH*%
X171882000Y-82800000D03*
%TO.P,U9,5,QF*%
%TO.N,PHOTSELB*%
X179502000Y-82800000D03*
%TO.P,U9,13,G*%
%TO.N,GND*%
X171882000Y-85340000D03*
%TO.P,U9,6,QG*%
%TO.N,PHOTSELC*%
X179502000Y-80260000D03*
%TO.P,U9,14,SER*%
%TO.N,Net-(U7-~{QH})*%
X171882000Y-87880000D03*
%TO.P,U9,7,QH*%
%TO.N,PHOTSELON*%
X179502000Y-77720000D03*
%TO.P,U9,15,QA*%
%TO.N,unconnected-(U9-QA-Pad15)*%
X171882000Y-90420000D03*
%TO.P,U9,8,GND*%
%TO.N,GND*%
X179502000Y-75180000D03*
%TO.P,U9,16,VCC*%
%TO.N,+5V*%
X171882000Y-92960000D03*
%TD*%
D26*
%TO.P,U10,2,Vout*%
%TO.N,Net-(J18-Pin_4)*%
X86310000Y-53340000D03*
%TO.P,U10,3,GND*%
%TO.N,GND*%
X83770000Y-53340000D03*
D27*
%TO.P,U10,1,Vs*%
%TO.N,+5V*%
X88850000Y-53340000D03*
%TD*%
D12*
%TO.P,U11,1,A0*%
%TO.N,PHOTSELA*%
X164210000Y-60690000D03*
D11*
%TO.P,U11,9,O6*%
%TO.N,Net-(U11-O6)*%
X146430000Y-68310000D03*
%TO.P,U11,2,A1*%
%TO.N,PHOTSELB*%
X161670000Y-60690000D03*
%TO.P,U11,10,O5*%
%TO.N,Net-(U11-O5)*%
X148970000Y-68310000D03*
%TO.P,U11,3,A2*%
%TO.N,PHOTSELC*%
X159130000Y-60690000D03*
%TO.P,U11,11,O4*%
%TO.N,Net-(U11-O4)*%
X151510000Y-68310000D03*
%TO.P,U11,4,E1*%
%TO.N,GND*%
X156590000Y-60690000D03*
%TO.P,U11,12,O3*%
%TO.N,Net-(J17-Pin_1)*%
X154050000Y-68310000D03*
%TO.P,U11,5,E2*%
%TO.N,PHOTSIG*%
X154050000Y-60690000D03*
%TO.P,U11,13,O2*%
%TO.N,Net-(J17-Pin_2)*%
X156590000Y-68310000D03*
%TO.P,U11,6,E3*%
%TO.N,PHOTSELON*%
X151510000Y-60690000D03*
%TO.P,U11,14,O1*%
%TO.N,Net-(J17-Pin_3)*%
X159130000Y-68310000D03*
%TO.P,U11,7,O7*%
%TO.N,Net-(U11-O7)*%
X148970000Y-60690000D03*
%TO.P,U11,15,O0*%
%TO.N,Net-(J17-Pin_4)*%
X161670000Y-68310000D03*
%TO.P,U11,8,GND*%
%TO.N,GND*%
X146430000Y-60690000D03*
%TO.P,U11,16,VCC*%
%TO.N,+5V*%
X164210000Y-68310000D03*
%TD*%
D12*
%TO.P,U12,1,X4*%
%TO.N,Net-(PT1-C)*%
X154240000Y-79830000D03*
D11*
%TO.P,U12,9,C*%
%TO.N,PHOTSELC*%
X161860000Y-97610000D03*
%TO.P,U12,2,X6*%
%TO.N,Net-(PT3-C)*%
X154240000Y-82370000D03*
%TO.P,U12,10,B*%
%TO.N,PHOTSELB*%
X161860000Y-95070000D03*
%TO.P,U12,3,X*%
%TO.N,Net-(U12-X)*%
X154240000Y-84910000D03*
%TO.P,U12,11,A*%
%TO.N,PHOTSELA*%
X161860000Y-92530000D03*
%TO.P,U12,4,X7*%
%TO.N,Net-(PT4-C)*%
X154240000Y-87450000D03*
%TO.P,U12,12,X3*%
%TO.N,Net-(J16-Pin_1)*%
X161860000Y-89990000D03*
%TO.P,U12,5,X5*%
%TO.N,Net-(PT2-C)*%
X154240000Y-89990000D03*
%TO.P,U12,13,X0*%
%TO.N,Net-(J16-Pin_4)*%
X161860000Y-87450000D03*
%TO.P,U12,6,Inh*%
%TO.N,GND*%
X154240000Y-92530000D03*
%TO.P,U12,14,X1*%
%TO.N,Net-(J16-Pin_3)*%
X161860000Y-84910000D03*
%TO.P,U12,7,VEE*%
%TO.N,GND*%
X154240000Y-95070000D03*
%TO.P,U12,15,X2*%
%TO.N,Net-(J16-Pin_2)*%
X161860000Y-82370000D03*
%TO.P,U12,8,VSS*%
%TO.N,GND*%
X154240000Y-97610000D03*
%TO.P,U12,16,VDD*%
%TO.N,+5V*%
X161860000Y-79830000D03*
%TD*%
D12*
%TO.P,U13,1,X4*%
%TO.N,Net-(PDT1-E)*%
X99820000Y-61040000D03*
D11*
%TO.P,U13,9,C*%
%TO.N,LIGHTSELC*%
X117600000Y-53420000D03*
%TO.P,U13,2,X6*%
%TO.N,Net-(PDT3-E)*%
X102360000Y-61040000D03*
%TO.P,U13,10,B*%
%TO.N,LIGHTSELB*%
X115060000Y-53420000D03*
%TO.P,U13,3,X*%
%TO.N,LIGHTLEVEL*%
X104900000Y-61040000D03*
%TO.P,U13,11,A*%
%TO.N,LIGHTSELA*%
X112520000Y-53420000D03*
%TO.P,U13,4,X7*%
%TO.N,Net-(PDT4-E)*%
X107440000Y-61040000D03*
%TO.P,U13,12,X3*%
%TO.N,Net-(J18-Pin_4)*%
X109980000Y-53420000D03*
%TO.P,U13,5,X5*%
%TO.N,Net-(PDT2-E)*%
X109980000Y-61040000D03*
%TO.P,U13,13,X0*%
%TO.N,Net-(J18-Pin_1)*%
X107440000Y-53420000D03*
%TO.P,U13,6,Inh*%
%TO.N,GND*%
X112520000Y-61040000D03*
%TO.P,U13,14,X1*%
%TO.N,Net-(J18-Pin_2)*%
X104900000Y-53420000D03*
%TO.P,U13,7,VEE*%
%TO.N,GND*%
X115060000Y-61040000D03*
%TO.P,U13,15,X2*%
%TO.N,Net-(J18-Pin_3)*%
X102360000Y-53420000D03*
%TO.P,U13,8,VSS*%
%TO.N,GND*%
X117600000Y-61040000D03*
%TO.P,U13,16,VDD*%
%TO.N,+5V*%
X99820000Y-53420000D03*
%TD*%
D32*
%TO.P,Y1,1,1*%
%TO.N,Net-(U5-(PCINT7{slash}XTAL2{slash}TOSC2)PB7)*%
X130870000Y-112850000D03*
%TO.P,Y1,2,2*%
%TO.N,Net-(U5-(PCINT6{slash}XTAL1{slash}TOSC1)PB6)*%
X130870000Y-107970000D03*
%TD*%
D10*
%TO.P,C31,1*%
%TO.N,+12V*%
X185070000Y-107260000D03*
%TO.P,C31,2*%
%TO.N,GND*%
X182570000Y-107260000D03*
%TD*%
D12*
%TO.P,C32,1*%
%TO.N,+12V*%
X190754000Y-64770000D03*
D10*
%TO.P,C32,2*%
%TO.N,GND*%
X188254000Y-64770000D03*
%TD*%
%TO.P,C33,1*%
%TO.N,+5V*%
X96310000Y-53230000D03*
%TO.P,C33,2*%
%TO.N,GND*%
X93810000Y-53230000D03*
%TD*%
D22*
%TO.P,J16,1,Pin_1*%
%TO.N,Net-(J16-Pin_1)*%
X151400000Y-102800000D03*
D23*
%TO.P,J16,2,Pin_2*%
%TO.N,Net-(J16-Pin_2)*%
X153940000Y-102800000D03*
%TO.P,J16,3,Pin_3*%
%TO.N,Net-(J16-Pin_3)*%
X156480000Y-102800000D03*
%TO.P,J16,4,Pin_4*%
%TO.N,Net-(J16-Pin_4)*%
X159020000Y-102800000D03*
%TO.P,J16,5,Pin_5*%
%TO.N,+5V*%
X161560000Y-102800000D03*
%TO.P,J16,6,Pin_6*%
%TO.N,GND*%
X164100000Y-102800000D03*
%TD*%
D22*
%TO.P,J17,1,Pin_1*%
%TO.N,Net-(J17-Pin_1)*%
X145288000Y-74168000D03*
D23*
%TO.P,J17,2,Pin_2*%
%TO.N,Net-(J17-Pin_2)*%
X147828000Y-74168000D03*
%TO.P,J17,3,Pin_3*%
%TO.N,Net-(J17-Pin_3)*%
X150368000Y-74168000D03*
%TO.P,J17,4,Pin_4*%
%TO.N,Net-(J17-Pin_4)*%
X152908000Y-74168000D03*
%TO.P,J17,5,Pin_5*%
%TO.N,+5V*%
X155448000Y-74168000D03*
%TO.P,J17,6,Pin_6*%
%TO.N,GND*%
X157988000Y-74168000D03*
%TD*%
D22*
%TO.P,J18,1,Pin_1*%
%TO.N,Net-(J18-Pin_1)*%
X102220000Y-46630000D03*
D23*
%TO.P,J18,2,Pin_2*%
%TO.N,Net-(J18-Pin_2)*%
X99680000Y-46630000D03*
%TO.P,J18,3,Pin_3*%
%TO.N,Net-(J18-Pin_3)*%
X97140000Y-46630000D03*
%TO.P,J18,4,Pin_4*%
%TO.N,Net-(J18-Pin_4)*%
X94600000Y-46630000D03*
%TO.P,J18,5,Pin_5*%
%TO.N,+5V*%
X92060000Y-46630000D03*
%TO.P,J18,6,Pin_6*%
%TO.N,GND*%
X89520000Y-46630000D03*
%TD*%
D16*
%TO.P,D4,1,K*%
%TO.N,Net-(D4-K)*%
X104440000Y-121960000D03*
D17*
%TO.P,D4,2,A*%
%TO.N,GND*%
X96820000Y-121960000D03*
%TD*%
D16*
%TO.P,D5,1,K*%
%TO.N,Net-(D5-K)*%
X104470000Y-118520000D03*
D17*
%TO.P,D5,2,A*%
%TO.N,Net-(D4-K)*%
X96850000Y-118520000D03*
%TD*%
D16*
%TO.P,D14,1,K*%
%TO.N,Net-(D14-K)*%
X100600000Y-71600000D03*
D17*
%TO.P,D14,2,A*%
%TO.N,GND*%
X100600000Y-79220000D03*
%TD*%
D16*
%TO.P,D15,1,K*%
%TO.N,PHOTLEVELOUT*%
X104394000Y-79502000D03*
D17*
%TO.P,D15,2,A*%
%TO.N,Net-(D14-K)*%
X104394000Y-71882000D03*
%TD*%
D16*
%TO.P,D16,1,K*%
%TO.N,Net-(D16-K)*%
X79210000Y-103170000D03*
D17*
%TO.P,D16,2,A*%
%TO.N,GND*%
X71590000Y-103170000D03*
%TD*%
D16*
%TO.P,D17,1,K*%
%TO.N,ULTRASOUNDOUT*%
X86868000Y-107188000D03*
D17*
%TO.P,D17,2,A*%
%TO.N,Net-(D16-K)*%
X79248000Y-107188000D03*
%TD*%
D12*
%TO.P,U1,1*%
%TO.N,Net-(C49-Pad1)*%
X86868000Y-129032000D03*
D11*
%TO.P,U1,5,+*%
%TO.N,2V5*%
X94488000Y-136652000D03*
%TO.P,U1,2,-*%
%TO.N,Net-(U1A--)*%
X86868000Y-131572000D03*
%TO.P,U1,6,-*%
%TO.N,Net-(U1B--)*%
X94488000Y-134112000D03*
%TO.P,U1,3,+*%
%TO.N,2V5*%
X86868000Y-134112000D03*
%TO.P,U1,7*%
%TO.N,MICOUT*%
X94488000Y-131572000D03*
%TO.P,U1,4,V-*%
%TO.N,GND*%
X86868000Y-136652000D03*
%TO.P,U1,8,V+*%
%TO.N,+5V*%
X94488000Y-129032000D03*
%TD*%
D12*
%TO.P,U2,1*%
%TO.N,Net-(R24-Pad1)*%
X121158000Y-71882000D03*
D11*
%TO.P,U2,5,+*%
%TO.N,2V5*%
X128778000Y-79502000D03*
%TO.P,U2,2,-*%
%TO.N,Net-(U2A--)*%
X121158000Y-74422000D03*
%TO.P,U2,6,-*%
%TO.N,Net-(U2B--)*%
X128778000Y-76962000D03*
%TO.P,U2,3,+*%
%TO.N,2V5*%
X121158000Y-76962000D03*
%TO.P,U2,7*%
%TO.N,Net-(C48-Pad1)*%
X128778000Y-74422000D03*
%TO.P,U2,4,V-*%
%TO.N,GND*%
X121158000Y-79502000D03*
%TO.P,U2,8,V+*%
%TO.N,+5V*%
X128778000Y-71882000D03*
%TD*%
D12*
%TO.P,U4,1*%
%TO.N,Net-(R27-Pad1)*%
X83820000Y-90932000D03*
D11*
%TO.P,U4,5,+*%
%TO.N,Net-(U4B-+)*%
X91440000Y-98552000D03*
%TO.P,U4,2,-*%
%TO.N,Net-(U4A--)*%
X83820000Y-93472000D03*
%TO.P,U4,6,-*%
%TO.N,Net-(U4B--)*%
X91440000Y-96012000D03*
%TO.P,U4,3,+*%
%TO.N,2V5*%
X83820000Y-96012000D03*
%TO.P,U4,7*%
%TO.N,Net-(R62-Pad2)*%
X91440000Y-93472000D03*
%TO.P,U4,4,V-*%
%TO.N,GND*%
X83820000Y-98552000D03*
%TO.P,U4,8,V+*%
%TO.N,+5V*%
X91440000Y-90932000D03*
%TD*%
D10*
%TO.P,C34,1*%
%TO.N,+5V*%
X109982000Y-139954000D03*
%TO.P,C34,2*%
%TO.N,GND*%
X109982000Y-142454000D03*
%TD*%
%TO.P,C35,1*%
%TO.N,+5V*%
X152500000Y-42250000D03*
%TO.P,C35,2*%
%TO.N,GND*%
X152500000Y-44750000D03*
%TD*%
%TO.P,C36,1*%
%TO.N,+5V*%
X77000000Y-53640000D03*
%TO.P,C36,2*%
%TO.N,GND*%
X79500000Y-53640000D03*
%TD*%
%TO.P,C37,1*%
%TO.N,2V5*%
X87700000Y-70050000D03*
%TO.P,C37,2*%
%TO.N,GND*%
X87700000Y-72550000D03*
%TD*%
%TO.P,C38,1*%
%TO.N,2V5*%
X94742000Y-140716000D03*
%TO.P,C38,2*%
%TO.N,GND*%
X97242000Y-140716000D03*
%TD*%
%TO.P,R29,1*%
%TO.N,RXD*%
X133096000Y-95504000D03*
D11*
%TO.P,R29,2*%
%TO.N,Net-(J2-Pin_2)*%
X125476000Y-95504000D03*
%TD*%
D10*
%TO.P,C39,1*%
%TO.N,Net-(J19-Pin_3)*%
X67440000Y-64580000D03*
%TO.P,C39,2*%
%TO.N,GND*%
X72440000Y-64580000D03*
%TD*%
%TO.P,C40,1*%
%TO.N,Net-(J19-Pin_2)*%
X67420000Y-67780000D03*
%TO.P,C40,2*%
%TO.N,GND*%
X72420000Y-67780000D03*
%TD*%
D22*
%TO.P,J19,1,Pin_1*%
%TO.N,+5V*%
X60010000Y-69910000D03*
D23*
%TO.P,J19,2,Pin_2*%
%TO.N,Net-(J19-Pin_2)*%
X60010000Y-67370000D03*
%TO.P,J19,3,Pin_3*%
%TO.N,Net-(J19-Pin_3)*%
X60010000Y-64830000D03*
%TO.P,J19,4,Pin_4*%
%TO.N,GND*%
X60010000Y-62290000D03*
%TD*%
D10*
%TO.P,R30,1*%
%TO.N,Net-(J19-Pin_2)*%
X65910000Y-70660000D03*
D11*
%TO.P,R30,2*%
%TO.N,+5V*%
X73530000Y-70660000D03*
%TD*%
D10*
%TO.P,R31,1*%
%TO.N,Net-(J19-Pin_3)*%
X67440000Y-61330000D03*
D11*
%TO.P,R31,2*%
%TO.N,+5V*%
X75060000Y-61330000D03*
%TD*%
D10*
%TO.P,C41,1*%
%TO.N,Net-(C41-Pad1)*%
X153920000Y-129110000D03*
%TO.P,C41,2*%
%TO.N,Net-(J6-Pin_2)*%
X153920000Y-131610000D03*
%TD*%
%TO.P,C42,1*%
%TO.N,+5V*%
X131730000Y-124380000D03*
%TO.P,C42,2*%
%TO.N,GND*%
X131730000Y-121880000D03*
%TD*%
%TO.P,C43,1*%
%TO.N,Net-(C43-Pad1)*%
X121158000Y-133604000D03*
%TO.P,C43,2*%
%TO.N,GND*%
X121158000Y-131104000D03*
%TD*%
%TO.P,R33,1*%
%TO.N,PHOTSIG*%
X131520000Y-132130000D03*
D11*
%TO.P,R33,2*%
%TO.N,Net-(C43-Pad1)*%
X123900000Y-132130000D03*
%TD*%
D22*
%TO.P,J20,1,Pin_1*%
%TO.N,GND*%
X178370000Y-126340000D03*
D23*
%TO.P,J20,2,Pin_2*%
%TO.N,Net-(J20-Pin_2)*%
X175830000Y-126340000D03*
%TO.P,J20,3,Pin_3*%
%TO.N,Net-(J20-Pin_3)*%
X173290000Y-126340000D03*
%TO.P,J20,4,Pin_4*%
%TO.N,Net-(J20-Pin_4)*%
X170750000Y-126340000D03*
%TO.P,J20,5,Pin_5*%
%TO.N,Net-(J20-Pin_5)*%
X168210000Y-126340000D03*
%TO.P,J20,6,Pin_6*%
%TO.N,+5V*%
X165670000Y-126340000D03*
%TD*%
D10*
%TO.P,C44,1*%
%TO.N,Net-(J21-Pin_3)*%
X125270000Y-120860000D03*
%TO.P,C44,2*%
%TO.N,GND*%
X125270000Y-125860000D03*
%TD*%
%TO.P,C45,1*%
%TO.N,Net-(J21-Pin_2)*%
X118710000Y-120920000D03*
%TO.P,C45,2*%
%TO.N,GND*%
X118710000Y-125920000D03*
%TD*%
%TO.P,C46,1*%
%TO.N,CLROUT*%
X168450000Y-89230000D03*
%TO.P,C46,2*%
%TO.N,GND*%
X168450000Y-91730000D03*
%TD*%
D22*
%TO.P,J21,1,Pin_1*%
%TO.N,+5V*%
X118364000Y-115824000D03*
D23*
%TO.P,J21,2,Pin_2*%
%TO.N,Net-(J21-Pin_2)*%
X120904000Y-115824000D03*
%TO.P,J21,3,Pin_3*%
%TO.N,Net-(J21-Pin_3)*%
X123444000Y-115824000D03*
%TO.P,J21,4,Pin_4*%
%TO.N,GND*%
X125984000Y-115824000D03*
%TD*%
D10*
%TO.P,R34,1*%
%TO.N,Net-(J21-Pin_3)*%
X128540000Y-120840000D03*
D11*
%TO.P,R34,2*%
%TO.N,+5V*%
X128540000Y-128460000D03*
%TD*%
D10*
%TO.P,R49,1*%
%TO.N,Net-(J21-Pin_2)*%
X121980000Y-120860000D03*
D11*
%TO.P,R49,2*%
%TO.N,+5V*%
X121980000Y-128480000D03*
%TD*%
D10*
%TO.P,R65,1*%
%TO.N,Net-(Q1-C)*%
X111740000Y-108450000D03*
D11*
%TO.P,R65,2*%
%TO.N,MICTHR*%
X119360000Y-108450000D03*
%TD*%
D20*
%TO.P,J22,1,Pin_1*%
%TO.N,+5V*%
X59436000Y-116078000D03*
D21*
%TO.P,J22,2,Pin_2*%
%TO.N,GND*%
X59436000Y-110998000D03*
%TD*%
D10*
%TO.P,C20,1*%
%TO.N,Net-(C20-Pad1)*%
X148400000Y-84610000D03*
%TO.P,C20,2*%
%TO.N,Net-(U12-X)*%
X148400000Y-89610000D03*
%TD*%
D12*
%TO.P,C47,1*%
%TO.N,+5V*%
X72140000Y-111200000D03*
D10*
%TO.P,C47,2*%
%TO.N,GND*%
X72140000Y-108700000D03*
%TD*%
%TO.P,C48,1*%
%TO.N,Net-(C48-Pad1)*%
X134040000Y-69040000D03*
%TO.P,C48,2*%
%TO.N,Net-(U2B--)*%
X139040000Y-69040000D03*
%TD*%
%TO.P,C49,1*%
%TO.N,Net-(C49-Pad1)*%
X83630000Y-128740000D03*
%TO.P,C49,2*%
%TO.N,Net-(U1A--)*%
X83630000Y-133740000D03*
%TD*%
%TO.P,C50,1*%
%TO.N,GND*%
X77450000Y-118240000D03*
%TO.P,C50,2*%
%TO.N,Net-(C14-Pad1)*%
X82450000Y-118240000D03*
%TD*%
%TO.P,C51,1*%
%TO.N,Net-(C21-Pad1)*%
X122682000Y-59182000D03*
%TO.P,C51,2*%
%TO.N,GND*%
X122682000Y-54182000D03*
%TD*%
%TO.P,C52,1*%
%TO.N,Net-(C52-Pad1)*%
X89720000Y-62220000D03*
%TO.P,C52,2*%
%TO.N,Net-(U3B--)*%
X89720000Y-67220000D03*
%TD*%
%TO.P,C53,1*%
%TO.N,GND*%
X90975000Y-84725000D03*
%TO.P,C53,2*%
%TO.N,Net-(C27-Pad2)*%
X90975000Y-79725000D03*
%TD*%
%TO.P,C54,1*%
%TO.N,Net-(C54-Pad1)*%
X71170000Y-81690000D03*
%TO.P,C54,2*%
%TO.N,Net-(U3A--)*%
X71170000Y-76690000D03*
%TD*%
%TO.P,C55,1*%
%TO.N,Net-(U5-AREF)*%
X146850000Y-106140000D03*
%TO.P,C55,2*%
%TO.N,GND*%
X146850000Y-103640000D03*
%TD*%
D33*
%TO.N,RESET*%
X138800000Y-96600000D03*
X141430000Y-106940000D03*
%TO.N,+5V*%
X140410000Y-122270000D03*
X143180000Y-72350000D03*
X139780000Y-111270000D03*
X100220000Y-56470000D03*
X171410000Y-118130000D03*
X172560000Y-68170000D03*
X175870000Y-93880000D03*
%TO.N,MICOUT*%
X140420000Y-89120000D03*
%TO.N,ULTRASOUNDOUT*%
X140240000Y-95980000D03*
%TO.N,SCK*%
X171640000Y-102820000D03*
%TO.N,Net-(PDT2-E)*%
X115440000Y-44920000D03*
X111330000Y-57400000D03*
%TO.N,Net-(PDT4-E)*%
X109550000Y-47930000D03*
X108690000Y-57700000D03*
%TO.N,Net-(PT1-C)*%
X153416000Y-54356000D03*
X151100000Y-62560000D03*
%TO.N,Net-(PT2-C)*%
X139930000Y-101560000D03*
X145720000Y-99190000D03*
%TO.N,Net-(PT4-C)*%
X152290000Y-55600000D03*
X153310000Y-63740000D03*
%TO.N,MICTHR*%
X138140000Y-112140000D03*
%TO.N,MTRIN3*%
X185850000Y-116060000D03*
%TO.N,MTRIN4*%
X184680000Y-118460000D03*
%TO.N,PHOTSELB*%
X169290000Y-76220000D03*
X167940000Y-74050000D03*
%TO.N,PHOTSELC*%
X167220000Y-71410000D03*
X171020000Y-73620000D03*
%TO.N,Net-(U11-O5)*%
X152146000Y-91186000D03*
X151384000Y-82804000D03*
%TO.N,Net-(J16-Pin_1)*%
X157960000Y-91440000D03*
%TO.N,MOTORPWM1*%
X166350000Y-123300000D03*
X160120000Y-122180000D03*
X146640000Y-120770000D03*
%TO.N,MOTORPWM2*%
X146910000Y-122260000D03*
X165470000Y-124090000D03*
X160670000Y-124050000D03*
%TO.N,Net-(J21-Pin_3)*%
X137390000Y-114600000D03*
X140700000Y-117160000D03*
%TD*%
D34*
%TO.N,Net-(ID4-K)*%
X143002000Y-51562000D02*
X142150000Y-50710000D01*
X142150000Y-50710000D02*
X135640000Y-50710000D01*
X135640000Y-50710000D02*
X133160000Y-48230000D01*
X133160000Y-48230000D02*
X120650000Y-48230000D01*
X120650000Y-48230000D02*
X119720000Y-47300000D01*
X119720000Y-47300000D02*
X119720000Y-45000000D01*
%TO.N,2V5*%
X124750000Y-76962000D02*
X127290000Y-79502000D01*
X127290000Y-79502000D02*
X128778000Y-79502000D01*
%TO.N,RESET*%
X128240000Y-84970000D02*
X128240000Y-85390000D01*
X128240000Y-85390000D02*
X127778000Y-85852000D01*
X127778000Y-85852000D02*
X124968000Y-85852000D01*
X122936000Y-92020000D02*
X122936000Y-87884000D01*
X122936000Y-87884000D02*
X124968000Y-85852000D01*
X136144000Y-87884000D02*
X137584000Y-87884000D01*
X138800000Y-89100000D02*
X138800000Y-96600000D01*
X137584000Y-87884000D02*
X138800000Y-89100000D01*
X149955000Y-117100000D02*
X152925000Y-114130000D01*
X141850000Y-117100000D02*
X149955000Y-117100000D01*
X141380000Y-116410000D02*
X141850000Y-117100000D01*
X141410000Y-106960000D02*
X141380000Y-116410000D01*
X141430000Y-106940000D02*
X141410000Y-106960000D01*
X122936000Y-92020000D02*
X116436000Y-92020000D01*
X131350000Y-84950000D02*
X133210000Y-84950000D01*
X133210000Y-84950000D02*
X136144000Y-87884000D01*
X128240000Y-84970000D02*
X131330000Y-84970000D01*
X131330000Y-84970000D02*
X131350000Y-84950000D01*
X127880000Y-85330000D02*
X128240000Y-84970000D01*
%TO.N,Net-(J2-Pin_4)*%
X124968000Y-83352000D02*
X123568000Y-83352000D01*
X113850000Y-87570000D02*
X108240000Y-87570000D01*
X114530000Y-86890000D02*
X113850000Y-87570000D01*
X121630000Y-86890000D02*
X114530000Y-86890000D01*
X122820000Y-85700000D02*
X121630000Y-86890000D01*
X122820000Y-84100000D02*
X122820000Y-85700000D01*
X123568000Y-83352000D02*
X122820000Y-84100000D01*
D35*
%TO.N,+12V*%
X197060000Y-107000000D02*
X197060000Y-71575000D01*
D34*
X194130000Y-108300000D02*
X186110000Y-108300000D01*
X186110000Y-108300000D02*
X185070000Y-107260000D01*
D35*
X159116000Y-52578000D02*
X164338000Y-52832000D01*
X177965000Y-51090000D02*
X179675000Y-52800000D01*
X171760000Y-51090000D02*
X177965000Y-51090000D01*
X169240000Y-53864000D02*
X171760000Y-51090000D01*
X166770000Y-53864000D02*
X169240000Y-53864000D01*
X164338000Y-52832000D02*
X166770000Y-53864000D01*
X155416000Y-52578000D02*
X159116000Y-52578000D01*
X184900000Y-52730000D02*
X179745000Y-52730000D01*
X179745000Y-52730000D02*
X179675000Y-52800000D01*
X189794000Y-53594000D02*
X185764000Y-53594000D01*
X185764000Y-53594000D02*
X184900000Y-52730000D01*
X197060000Y-71575000D02*
X197060000Y-54635000D01*
X197060000Y-54635000D02*
X196019000Y-53594000D01*
X196019000Y-53594000D02*
X194450000Y-53600000D01*
X189794000Y-53594000D02*
X194450000Y-53600000D01*
X197060000Y-125984000D02*
X197060000Y-126282000D01*
X191770000Y-131572000D02*
X191770000Y-140970000D01*
X197060000Y-126282000D02*
X191770000Y-131572000D01*
X178620000Y-134200000D02*
X178620000Y-134708000D01*
X178620000Y-134708000D02*
X176415664Y-137965856D01*
X176415664Y-137965856D02*
X171969107Y-138072884D01*
X171969107Y-138072884D02*
X171715107Y-138326884D01*
X171715107Y-138326884D02*
X171706000Y-142350000D01*
X171706000Y-142350000D02*
X173067762Y-144070539D01*
X173067762Y-144070539D02*
X189988000Y-144062000D01*
X189988000Y-144062000D02*
X191770000Y-140970000D01*
X197060000Y-125984000D02*
X197060000Y-107000000D01*
X197060000Y-107000000D02*
X197060000Y-106910000D01*
X181864000Y-132842000D02*
X178832000Y-134412000D01*
X178832000Y-134412000D02*
X178620000Y-134200000D01*
X194130000Y-108300000D02*
X196250000Y-108300000D01*
X197060000Y-67840000D02*
X194470000Y-64770000D01*
X194470000Y-64770000D02*
X192786000Y-64770000D01*
X197060000Y-71575000D02*
X197060000Y-67840000D01*
X196250000Y-108300000D02*
X197060000Y-106910000D01*
X191110000Y-70070000D02*
X191262000Y-66294000D01*
X191262000Y-66294000D02*
X192786000Y-64770000D01*
X194450000Y-53600000D02*
X195212000Y-53600000D01*
X192786000Y-64770000D02*
X190754000Y-64770000D01*
X186944000Y-93726000D02*
X188214000Y-93726000D01*
X188214000Y-73152000D02*
X191110000Y-70070000D01*
X188214000Y-86106000D02*
X188214000Y-73152000D01*
X188920000Y-87062000D02*
X188214000Y-86106000D01*
X188920000Y-92650000D02*
X188920000Y-87062000D01*
X188214000Y-93726000D02*
X188920000Y-92650000D01*
D34*
%TO.N,+5V*%
X93062500Y-62662500D02*
X93062500Y-89309500D01*
X93062500Y-89309500D02*
X91440000Y-90932000D01*
X73530000Y-70660000D02*
X68170000Y-70660000D01*
X62770000Y-72670000D02*
X60010000Y-69910000D01*
X66160000Y-72670000D02*
X62770000Y-72670000D01*
X68170000Y-70660000D02*
X66160000Y-72670000D01*
X75184000Y-67056000D02*
X74936000Y-67056000D01*
X74936000Y-67056000D02*
X73760000Y-65880000D01*
X73760000Y-62630000D02*
X75060000Y-61330000D01*
X73760000Y-65880000D02*
X73760000Y-62630000D01*
X75184000Y-67056000D02*
X75184000Y-68974000D01*
X75184000Y-68974000D02*
X76310000Y-70100000D01*
X75060000Y-61330000D02*
X75150000Y-61330000D01*
X75150000Y-61330000D02*
X76740000Y-59740000D01*
X90140000Y-59740000D02*
X93062500Y-62662500D01*
X76740000Y-59740000D02*
X90140000Y-59740000D01*
X138938000Y-62484000D02*
X135486000Y-62484000D01*
X135486000Y-62484000D02*
X134000000Y-63970000D01*
X128778000Y-71882000D02*
X128778000Y-67058000D01*
X128778000Y-67058000D02*
X128500000Y-66780000D01*
X130760000Y-56380000D02*
X130760000Y-56390000D01*
X130760000Y-56390000D02*
X134000000Y-59630000D01*
X134000000Y-59630000D02*
X134000000Y-63970000D01*
X129610000Y-67890000D02*
X128500000Y-66780000D01*
X134000000Y-63970000D02*
X134000000Y-65800000D01*
X134000000Y-65800000D02*
X131910000Y-67890000D01*
X131910000Y-67890000D02*
X129610000Y-67890000D01*
X100310000Y-56380000D02*
X130760000Y-56380000D01*
X128500000Y-66780000D02*
X128500000Y-66930000D01*
X68370000Y-53640000D02*
X77000000Y-53640000D01*
X68370000Y-53640000D02*
X66650000Y-51920000D01*
X66650000Y-51920000D02*
X68930000Y-51920000D01*
X73350000Y-47500000D02*
X73350000Y-44575000D01*
X73350000Y-44575000D02*
X76025000Y-41900000D01*
X76025000Y-41900000D02*
X79775000Y-41900000D01*
X79775000Y-41900000D02*
X82225000Y-44350000D01*
X82225000Y-44350000D02*
X82225000Y-54025000D01*
X82225000Y-54025000D02*
X83150000Y-54950000D01*
X83150000Y-54950000D02*
X87240000Y-54950000D01*
X87240000Y-54950000D02*
X88850000Y-53340000D01*
X68930000Y-51920000D02*
X73350000Y-47500000D01*
X66548000Y-117856000D02*
X66548000Y-118158000D01*
X66548000Y-118158000D02*
X68020000Y-119630000D01*
X62988000Y-119630000D02*
X68020000Y-119630000D01*
X62988000Y-119630000D02*
X59436000Y-116078000D01*
X59436000Y-122174000D02*
X59436000Y-116078000D01*
X72140000Y-111200000D02*
X72140000Y-111256000D01*
X72140000Y-111256000D02*
X74267000Y-113383000D01*
X84328000Y-105918000D02*
X85506000Y-104740000D01*
X84320000Y-105918000D02*
X84328000Y-105918000D01*
X84320000Y-105918000D02*
X84320000Y-106900000D01*
X109950000Y-132380000D02*
X109990000Y-132380000D01*
X109990000Y-132380000D02*
X111030000Y-133420000D01*
X120904000Y-138944000D02*
X120904000Y-140208000D01*
X115380000Y-133420000D02*
X120904000Y-138944000D01*
X111030000Y-133420000D02*
X115380000Y-133420000D01*
X120904000Y-140208000D02*
X120904000Y-142364000D01*
X120904000Y-142364000D02*
X122970000Y-144430000D01*
X92010000Y-124210000D02*
X92010000Y-118410000D01*
X74000000Y-119630000D02*
X68020000Y-119630000D01*
X77620000Y-116010000D02*
X74000000Y-119630000D01*
X89610000Y-116010000D02*
X77620000Y-116010000D01*
X92010000Y-118410000D02*
X89610000Y-116010000D01*
X93618000Y-129032000D02*
X94488000Y-129032000D01*
X98240000Y-131560000D02*
X108954000Y-131560000D01*
X98240000Y-131560000D02*
X96970000Y-132830000D01*
X96970000Y-132830000D02*
X93350000Y-132830000D01*
X93350000Y-132830000D02*
X92480000Y-131960000D01*
X92480000Y-131960000D02*
X92480000Y-130170000D01*
X92480000Y-130170000D02*
X93618000Y-129032000D01*
X168310000Y-143450000D02*
X168310000Y-135790000D01*
X128540000Y-128460000D02*
X122000000Y-128460000D01*
X122000000Y-128460000D02*
X121980000Y-128480000D01*
X131730000Y-124380000D02*
X131730000Y-125270000D01*
X131730000Y-125270000D02*
X128540000Y-128460000D01*
X131730000Y-124380000D02*
X117710000Y-124380000D01*
X118364000Y-118346000D02*
X118364000Y-115824000D01*
X116230000Y-120480000D02*
X118364000Y-118346000D01*
X116230000Y-122900000D02*
X116230000Y-120480000D01*
X117710000Y-124380000D02*
X116230000Y-122900000D01*
X161560000Y-102800000D02*
X161560000Y-101910000D01*
X166880000Y-95630000D02*
X168190000Y-95630000D01*
X163380000Y-99130000D02*
X166880000Y-95630000D01*
X163380000Y-100090000D02*
X163380000Y-99130000D01*
X161560000Y-101910000D02*
X163380000Y-100090000D01*
X94488000Y-129032000D02*
X94234000Y-129032000D01*
X94234000Y-129032000D02*
X92010000Y-126808000D01*
X92010000Y-126808000D02*
X92010000Y-124210000D01*
X82140000Y-109080000D02*
X84320000Y-106900000D01*
X86710000Y-104740000D02*
X85506000Y-104740000D01*
X90958000Y-90932000D02*
X89570000Y-92320000D01*
X89570000Y-92320000D02*
X89570000Y-100170000D01*
X89570000Y-100170000D02*
X87970000Y-101770000D01*
X87970000Y-101770000D02*
X87970000Y-103480000D01*
X87970000Y-103480000D02*
X86710000Y-104740000D01*
X68020000Y-119630000D02*
X74267000Y-113383000D01*
X74267000Y-113383000D02*
X76500000Y-111150000D01*
X76500000Y-111150000D02*
X76500000Y-109860000D01*
X76500000Y-109860000D02*
X77280000Y-109080000D01*
X77280000Y-109080000D02*
X82140000Y-109080000D01*
X155230000Y-142400000D02*
X155230000Y-143650000D01*
X155230000Y-143650000D02*
X156010000Y-144430000D01*
X133820000Y-139980000D02*
X133820000Y-143840000D01*
X133820000Y-143840000D02*
X134410000Y-144430000D01*
X134410000Y-144430000D02*
X156010000Y-144430000D01*
X156010000Y-144430000D02*
X167330000Y-144430000D01*
X162330000Y-123370000D02*
X162500000Y-123200000D01*
X162330000Y-129810000D02*
X162330000Y-123370000D01*
X168310000Y-135790000D02*
X162330000Y-129810000D01*
X167330000Y-144430000D02*
X168310000Y-143450000D01*
X162500000Y-123200000D02*
X162500000Y-113240000D01*
X122970000Y-144430000D02*
X134410000Y-144430000D01*
X112850000Y-144430000D02*
X122970000Y-144430000D01*
X111750000Y-141722000D02*
X109982000Y-139954000D01*
X111750000Y-143330000D02*
X111750000Y-141722000D01*
X112850000Y-144430000D02*
X111750000Y-143330000D01*
X168190000Y-95630000D02*
X168190000Y-95210000D01*
X168190000Y-95210000D02*
X166470000Y-93490000D01*
X167470000Y-79770000D02*
X168420000Y-78820000D01*
X167470000Y-83150000D02*
X167470000Y-79770000D01*
X166470000Y-84150000D02*
X167470000Y-83150000D01*
X166470000Y-93490000D02*
X166470000Y-84150000D01*
X165400000Y-121590000D02*
X165400000Y-121680000D01*
X165400000Y-121680000D02*
X164040000Y-123040000D01*
X164040000Y-125040000D02*
X165340000Y-126340000D01*
X164040000Y-123040000D02*
X164040000Y-125040000D01*
X165340000Y-126340000D02*
X165670000Y-126340000D01*
X171410000Y-118130000D02*
X171410000Y-117660000D01*
X172840000Y-106340000D02*
X175350000Y-103830000D01*
X172840000Y-109270000D02*
X172840000Y-106340000D01*
X171630000Y-110480000D02*
X172840000Y-109270000D01*
X171630000Y-117440000D02*
X171630000Y-110480000D01*
X171410000Y-117660000D02*
X171630000Y-117440000D01*
X143170000Y-122300000D02*
X140450000Y-122310000D01*
X140450000Y-122310000D02*
X140410000Y-122270000D01*
X135120000Y-124420000D02*
X131770000Y-124420000D01*
X131770000Y-124420000D02*
X131730000Y-124380000D01*
X169320000Y-121620000D02*
X173070000Y-121620000D01*
X182870000Y-114970000D02*
X184990000Y-112850000D01*
X181390000Y-114970000D02*
X182870000Y-114970000D01*
X178580000Y-117780000D02*
X181390000Y-114970000D01*
X175620000Y-117780000D02*
X178580000Y-117780000D01*
X174850000Y-118550000D02*
X175620000Y-117780000D01*
X174850000Y-119840000D02*
X174850000Y-118550000D01*
X173070000Y-121620000D02*
X174850000Y-119840000D01*
X184990000Y-112850000D02*
X186190000Y-112850000D01*
X186190000Y-112850000D02*
X187990000Y-114650000D01*
X187990000Y-114650000D02*
X189050000Y-114650000D01*
X108954000Y-131560000D02*
X109950000Y-132380000D01*
X155990000Y-40720000D02*
X154030000Y-40720000D01*
X154030000Y-40720000D02*
X152500000Y-42250000D01*
X152500000Y-42250000D02*
X152500000Y-42140000D01*
X152500000Y-42140000D02*
X151390000Y-41030000D01*
X151390000Y-41030000D02*
X138840000Y-41010000D01*
X138840000Y-41010000D02*
X138340000Y-41510000D01*
X73530000Y-70660000D02*
X75750000Y-70660000D01*
X75750000Y-70660000D02*
X76310000Y-70100000D01*
X68500000Y-43740000D02*
X67810000Y-43740000D01*
X67810000Y-43740000D02*
X65070000Y-46480000D01*
X66650000Y-51920000D02*
X60165000Y-51920000D01*
X60165000Y-51920000D02*
X59450000Y-52635000D01*
X169320000Y-121620000D02*
X165430000Y-121620000D01*
X165430000Y-121620000D02*
X165400000Y-121590000D01*
X165695000Y-114035000D02*
X165695000Y-116235000D01*
X167530000Y-119830000D02*
X169320000Y-121620000D01*
X167530000Y-118070000D02*
X167530000Y-119830000D01*
X165695000Y-116235000D02*
X167530000Y-118070000D01*
X147970000Y-78120000D02*
X147970000Y-76470000D01*
X147970000Y-76470000D02*
X148430000Y-76010000D01*
X91440000Y-90932000D02*
X90958000Y-90932000D01*
X136144000Y-103124000D02*
X131924000Y-103149000D01*
X131924000Y-103149000D02*
X131550000Y-102775000D01*
X108204000Y-101600000D02*
X107850000Y-101600000D01*
X107850000Y-101600000D02*
X106400000Y-100150000D01*
X106400000Y-100150000D02*
X104950000Y-100150000D01*
X104950000Y-100150000D02*
X102850000Y-98050000D01*
X102850000Y-98050000D02*
X102850000Y-91750000D01*
X102850000Y-91750000D02*
X101778000Y-90678000D01*
X101778000Y-90678000D02*
X94996000Y-90678000D01*
X91440000Y-90932000D02*
X91440000Y-90810000D01*
X94996000Y-90678000D02*
X91694000Y-90678000D01*
X91694000Y-90678000D02*
X91440000Y-90932000D01*
X91948000Y-90424000D02*
X91440000Y-90932000D01*
X155990000Y-40720000D02*
X172720000Y-40640000D01*
X172720000Y-40640000D02*
X175450000Y-43170000D01*
X112150000Y-44650000D02*
X112150000Y-45010000D01*
X112150000Y-45010000D02*
X113600000Y-46460000D01*
X119780000Y-41550000D02*
X125990000Y-41550000D01*
X117600000Y-43730000D02*
X119780000Y-41550000D01*
X117600000Y-45150000D02*
X117600000Y-43730000D01*
X116290000Y-46460000D02*
X117600000Y-45150000D01*
X113600000Y-46460000D02*
X116290000Y-46460000D01*
X187960000Y-43180000D02*
X175450000Y-43170000D01*
X155448000Y-74168000D02*
X155448000Y-74602000D01*
X155448000Y-74602000D02*
X154040000Y-76010000D01*
X148430000Y-76010000D02*
X144010000Y-76010000D01*
X144010000Y-76010000D02*
X143180000Y-75180000D01*
X143180000Y-75180000D02*
X143180000Y-72350000D01*
X154040000Y-76010000D02*
X148430000Y-76010000D01*
X164900000Y-113240000D02*
X165695000Y-114035000D01*
X164900000Y-113240000D02*
X162500000Y-113240000D01*
X158000000Y-114610000D02*
X158000000Y-116630000D01*
X155420000Y-119210000D02*
X158000000Y-116630000D01*
X139780000Y-120460000D02*
X139780000Y-111270000D01*
X141620000Y-122300000D02*
X139780000Y-120460000D01*
X145320000Y-122300000D02*
X143170000Y-122300000D01*
X143170000Y-122300000D02*
X141620000Y-122300000D01*
X145920000Y-121700000D02*
X145320000Y-122300000D01*
X145920000Y-120050000D02*
X145920000Y-121700000D01*
X146760000Y-119210000D02*
X145920000Y-120050000D01*
X146760000Y-119210000D02*
X155420000Y-119210000D01*
X162500000Y-113240000D02*
X159370000Y-113240000D01*
X159370000Y-113240000D02*
X158000000Y-114610000D01*
X138340000Y-41510000D02*
X125990000Y-41550000D01*
X125990000Y-41550000D02*
X122260000Y-45000000D01*
X88850000Y-53340000D02*
X88850000Y-52460000D01*
X88850000Y-52460000D02*
X89990000Y-51320000D01*
X89990000Y-51320000D02*
X95360000Y-51320000D01*
X95360000Y-51320000D02*
X96310000Y-52270000D01*
X96310000Y-52270000D02*
X96310000Y-53230000D01*
X65070000Y-46480000D02*
X65070000Y-49480000D01*
X65070000Y-49480000D02*
X66650000Y-51920000D01*
X99820000Y-53420000D02*
X99820000Y-52160000D01*
X92990000Y-48230000D02*
X92060000Y-47300000D01*
X95890000Y-48230000D02*
X92990000Y-48230000D01*
X99820000Y-52160000D02*
X95890000Y-48230000D01*
X92060000Y-47300000D02*
X92060000Y-46630000D01*
X100220000Y-56470000D02*
X100310000Y-56380000D01*
X99820000Y-53420000D02*
X96500000Y-53420000D01*
X96500000Y-53420000D02*
X96310000Y-53230000D01*
X177620000Y-94490000D02*
X176860000Y-94490000D01*
X176860000Y-94490000D02*
X175350000Y-96000000D01*
X175350000Y-96000000D02*
X175350000Y-103830000D01*
X155465000Y-109050000D02*
X155465000Y-108445000D01*
X155465000Y-108445000D02*
X154410000Y-107390000D01*
X150146000Y-108204000D02*
X143764000Y-108204000D01*
X150960000Y-107390000D02*
X150146000Y-108204000D01*
X154410000Y-107390000D02*
X150960000Y-107390000D01*
X155465000Y-109050000D02*
X155465000Y-108615000D01*
X182600000Y-63550000D02*
X183600000Y-63800000D01*
X181530000Y-64620000D02*
X182600000Y-63550000D01*
X181530000Y-67410000D02*
X181530000Y-64620000D01*
X180650000Y-68290000D02*
X181530000Y-67410000D01*
X172680000Y-68290000D02*
X180650000Y-68290000D01*
X172560000Y-68170000D02*
X172680000Y-68290000D01*
X184510000Y-63550000D02*
X183600000Y-63800000D01*
X177620000Y-94490000D02*
X180220000Y-94490000D01*
X180220000Y-94490000D02*
X182780000Y-91930000D01*
X182780000Y-91930000D02*
X182780000Y-91290000D01*
X182780000Y-91290000D02*
X186640000Y-87430000D01*
X186640000Y-87430000D02*
X186640000Y-72560000D01*
X186640000Y-72560000D02*
X188900000Y-70300000D01*
X188900000Y-70300000D02*
X188900000Y-68810000D01*
X188900000Y-68810000D02*
X185740000Y-65650000D01*
X185740000Y-65650000D02*
X185740000Y-64780000D01*
X185740000Y-64780000D02*
X184510000Y-63550000D01*
X176320000Y-94490000D02*
X177620000Y-94490000D01*
X175870000Y-93880000D02*
X176320000Y-94490000D01*
X184900000Y-60350000D02*
X184900000Y-60060000D01*
X184900000Y-60060000D02*
X182370000Y-57530000D01*
X182370000Y-57530000D02*
X177670000Y-57530000D01*
X177670000Y-57530000D02*
X174010000Y-53870000D01*
X174010000Y-53870000D02*
X172920000Y-53870000D01*
D35*
X184900000Y-60350000D02*
X184900000Y-62180000D01*
X184900000Y-62180000D02*
X183600000Y-63800000D01*
X194450000Y-58680000D02*
X193688000Y-58680000D01*
X193688000Y-58680000D02*
X191110000Y-60350000D01*
X191110000Y-60350000D02*
X184900000Y-60350000D01*
D34*
X168460000Y-95400000D02*
X168280000Y-95580000D01*
X131350000Y-92570000D02*
X128260000Y-92570000D01*
X128260000Y-92570000D02*
X128240000Y-92590000D01*
%TO.N,Net-(U5-(PCINT6{slash}XTAL1{slash}TOSC1)PB6)*%
X130870000Y-107970000D02*
X128210000Y-107970000D01*
X128210000Y-107970000D02*
X126920000Y-106680000D01*
X131370000Y-108050000D02*
X131290000Y-107970000D01*
X131290000Y-107970000D02*
X130870000Y-107970000D01*
X130870000Y-107970000D02*
X135910000Y-107970000D01*
X135910000Y-107970000D02*
X136144000Y-108204000D01*
X131178000Y-108278000D02*
X130870000Y-107970000D01*
%TO.N,Net-(U5-(PCINT7{slash}XTAL2{slash}TOSC2)PB7)*%
X129540000Y-109982000D02*
X135382000Y-109982000D01*
X135382000Y-109982000D02*
X136144000Y-110744000D01*
X130870000Y-112850000D02*
X130870000Y-111058000D01*
X129794000Y-109982000D02*
X129540000Y-109982000D01*
X129540000Y-109982000D02*
X126920000Y-109982000D01*
X130870000Y-111058000D02*
X129794000Y-109982000D01*
%TO.N,Net-(MK1-+)*%
X62738000Y-125222000D02*
X62738000Y-127254000D01*
X62738000Y-127254000D02*
X60198000Y-129794000D01*
X60198000Y-129794000D02*
X59436000Y-129794000D01*
X70870000Y-132450000D02*
X69342000Y-132334000D01*
X62738000Y-125730000D02*
X62738000Y-125222000D01*
X62738000Y-125222000D02*
X62738000Y-124206000D01*
X69342000Y-132334000D02*
X62738000Y-125730000D01*
%TO.N,Net-(C12-Pad2)*%
X68326000Y-124714000D02*
X65746000Y-124714000D01*
X65746000Y-124714000D02*
X65238000Y-124206000D01*
%TO.N,2V5*%
X124750000Y-76962000D02*
X124750000Y-70410000D01*
X126570000Y-60990000D02*
X128470000Y-59090000D01*
X124610000Y-60990000D02*
X126570000Y-60990000D01*
X123300000Y-62300000D02*
X124610000Y-60990000D01*
X123300000Y-68960000D02*
X123300000Y-62300000D01*
X124750000Y-70410000D02*
X123300000Y-68960000D01*
X107780000Y-63260000D02*
X118790000Y-63260000D01*
X59430000Y-57830000D02*
X93040000Y-57810000D01*
X93040000Y-57810000D02*
X97840000Y-63090000D01*
X97840000Y-63090000D02*
X102840000Y-63090000D01*
X102840000Y-63090000D02*
X103630000Y-62300000D01*
X103630000Y-62300000D02*
X103630000Y-60350000D01*
X103630000Y-60350000D02*
X104390000Y-59590000D01*
X104390000Y-59590000D02*
X105750000Y-59590000D01*
X105750000Y-59590000D02*
X106130000Y-59970000D01*
X106130000Y-59970000D02*
X106130000Y-61610000D01*
X106130000Y-61610000D02*
X107780000Y-63260000D01*
X57070000Y-72390000D02*
X57070000Y-59920000D01*
X57070000Y-59920000D02*
X59030000Y-57960000D01*
X59030000Y-57960000D02*
X59430000Y-57840000D01*
X59430000Y-57840000D02*
X59430000Y-57830000D01*
X79430000Y-75320000D02*
X58480000Y-75320000D01*
X58480000Y-75320000D02*
X57060000Y-73900000D01*
X57060000Y-73900000D02*
X57060000Y-72390000D01*
X57060000Y-72390000D02*
X57070000Y-72390000D01*
X81390000Y-77280000D02*
X79430000Y-75320000D01*
X118790000Y-63260000D02*
X119710000Y-62340000D01*
X119710000Y-62340000D02*
X119710000Y-59580000D01*
X119710000Y-59580000D02*
X121910000Y-57380000D01*
X121910000Y-57380000D02*
X127610000Y-57380000D01*
X127610000Y-57380000D02*
X128470000Y-58240000D01*
X128470000Y-58240000D02*
X128470000Y-59090000D01*
X131318000Y-62484000D02*
X128924000Y-59544000D01*
X81390000Y-77720000D02*
X81390000Y-77280000D01*
X83820000Y-96012000D02*
X83820000Y-96520000D01*
X83820000Y-96520000D02*
X80264000Y-100076000D01*
X90424000Y-140970000D02*
X90424000Y-135636000D01*
X88472000Y-143272000D02*
X90424000Y-140970000D01*
X66374000Y-143272000D02*
X88472000Y-143272000D01*
X64770000Y-141478000D02*
X66374000Y-143272000D01*
X64770000Y-135890000D02*
X64770000Y-141478000D01*
X63754000Y-134874000D02*
X64770000Y-135890000D01*
X59690000Y-134874000D02*
X63754000Y-134874000D01*
X57150000Y-132334000D02*
X59690000Y-134874000D01*
X57150000Y-104902000D02*
X57150000Y-132334000D01*
X61976000Y-100076000D02*
X57150000Y-104902000D01*
X80264000Y-100076000D02*
X61976000Y-100076000D01*
X94488000Y-136652000D02*
X91440000Y-136652000D01*
X88900000Y-134112000D02*
X86868000Y-134112000D01*
X91440000Y-136652000D02*
X90424000Y-135636000D01*
X90424000Y-135636000D02*
X88900000Y-134112000D01*
X94488000Y-136652000D02*
X94488000Y-140462000D01*
X94488000Y-140462000D02*
X94742000Y-140716000D01*
X83820000Y-96012000D02*
X85090000Y-96012000D01*
X82804000Y-79756000D02*
X81390000Y-78342000D01*
X88392000Y-79756000D02*
X82804000Y-79756000D01*
X89662000Y-81026000D02*
X88392000Y-79756000D01*
X89662000Y-83566000D02*
X89662000Y-81026000D01*
X88138000Y-85090000D02*
X89662000Y-83566000D01*
X88138000Y-92964000D02*
X88138000Y-85090000D01*
X85090000Y-96012000D02*
X88138000Y-92964000D01*
X81390000Y-78342000D02*
X81390000Y-77720000D01*
X81390000Y-77720000D02*
X81390000Y-74260000D01*
X81390000Y-74260000D02*
X83030000Y-72620000D01*
X87700000Y-70020000D02*
X87700000Y-70300000D01*
X87700000Y-70300000D02*
X85380000Y-72620000D01*
X85380000Y-72620000D02*
X83030000Y-72620000D01*
X87700000Y-70020000D02*
X84010000Y-70020000D01*
X84010000Y-70020000D02*
X83930000Y-70100000D01*
X128924000Y-59544000D02*
X128470000Y-59090000D01*
X121158000Y-76962000D02*
X124750000Y-76962000D01*
X131318000Y-62484000D02*
X131318000Y-65786000D01*
%TO.N,Net-(C14-Pad1)*%
X82450000Y-118240000D02*
X83640000Y-118240000D01*
X83640000Y-118240000D02*
X85075000Y-119675000D01*
X85075000Y-119675000D02*
X85075000Y-120700000D01*
X85840000Y-121465000D02*
X85840000Y-124740000D01*
X85075000Y-120700000D02*
X85840000Y-121465000D01*
%TO.N,Net-(U1B--)*%
X87585000Y-125415000D02*
X87585000Y-119685000D01*
X87585000Y-119685000D02*
X87575000Y-119675000D01*
X94488000Y-134112000D02*
X91552000Y-134112000D01*
X87585000Y-125415000D02*
X88620000Y-126450000D01*
X88620000Y-131180000D02*
X88620000Y-126450000D01*
X91552000Y-134112000D02*
X88620000Y-131180000D01*
X99410000Y-135390000D02*
X95766000Y-135390000D01*
X95766000Y-135390000D02*
X94488000Y-134112000D01*
X99410000Y-135390000D02*
X102170000Y-135390000D01*
X102170000Y-135390000D02*
X103750000Y-136970000D01*
X99410000Y-132850000D02*
X99410000Y-135390000D01*
%TO.N,Net-(D4-K)*%
X104440000Y-121960000D02*
X100370000Y-121960000D01*
X100370000Y-121960000D02*
X99410000Y-121000000D01*
X96850000Y-118520000D02*
X98040000Y-118520000D01*
X99410000Y-122400000D02*
X96530000Y-125280000D01*
X99410000Y-119890000D02*
X99410000Y-121000000D01*
X99410000Y-121000000D02*
X99410000Y-122400000D01*
X98040000Y-118520000D02*
X99410000Y-119890000D01*
%TO.N,MICOUT*%
X110240000Y-115010000D02*
X110240000Y-105450000D01*
X115780000Y-101870000D02*
X115780000Y-101900000D01*
X113820000Y-101870000D02*
X115780000Y-101870000D01*
X110240000Y-105450000D02*
X113820000Y-101870000D01*
X107790000Y-126400000D02*
X107740000Y-128734000D01*
X107740000Y-128734000D02*
X107188000Y-129286000D01*
X94020000Y-126030000D02*
X94020000Y-118470000D01*
X115780000Y-101900000D02*
X126390000Y-101900000D01*
X126390000Y-101900000D02*
X127680000Y-100610000D01*
X127680000Y-100610000D02*
X133410000Y-100610000D01*
X133410000Y-100610000D02*
X134610000Y-101810000D01*
X134610000Y-101810000D02*
X137980000Y-101810000D01*
X137980000Y-101810000D02*
X140820000Y-98970000D01*
X140820000Y-98970000D02*
X140820000Y-96710000D01*
X140820000Y-96710000D02*
X141150000Y-96380000D01*
X141150000Y-96380000D02*
X141150000Y-94820000D01*
X141150000Y-94820000D02*
X140420000Y-94090000D01*
X140420000Y-94090000D02*
X140420000Y-89120000D01*
X110240000Y-115010000D02*
X109300000Y-115950000D01*
X102590000Y-115950000D02*
X109300000Y-115950000D01*
X101760000Y-115120000D02*
X102590000Y-115950000D01*
X101760000Y-114500000D02*
X101760000Y-115120000D01*
X100670000Y-113410000D02*
X101760000Y-114500000D01*
X97850000Y-113410000D02*
X100670000Y-113410000D01*
X96450000Y-114810000D02*
X97850000Y-113410000D01*
X96450000Y-116040000D02*
X96450000Y-114810000D01*
X94020000Y-118470000D02*
X96450000Y-116040000D01*
X94488000Y-131572000D02*
X94968000Y-131572000D01*
X94968000Y-131572000D02*
X96240000Y-130300000D01*
X96240000Y-128250000D02*
X94020000Y-126030000D01*
X96240000Y-130300000D02*
X96240000Y-128250000D01*
X107188000Y-129286000D02*
X103814000Y-129286000D01*
X103814000Y-129286000D02*
X103750000Y-129350000D01*
X99410000Y-130310000D02*
X98100000Y-130310000D01*
X96838000Y-131572000D02*
X94488000Y-131572000D01*
X98100000Y-130310000D02*
X96838000Y-131572000D01*
X100370000Y-129350000D02*
X103750000Y-129350000D01*
X100370000Y-129350000D02*
X99410000Y-130310000D01*
%TO.N,Net-(C20-Pad1)*%
X148400000Y-84610000D02*
X147420000Y-84610000D01*
X142312000Y-79502000D02*
X138684000Y-79502000D01*
X147420000Y-84610000D02*
X142312000Y-79502000D01*
%TO.N,Net-(U12-X)*%
X148400000Y-89610000D02*
X148400000Y-89420000D01*
X148400000Y-89420000D02*
X152910000Y-84910000D01*
X152910000Y-84910000D02*
X154240000Y-84910000D01*
%TO.N,Net-(C21-Pad1)*%
X122682000Y-59182000D02*
X122682000Y-62228000D01*
X122682000Y-62228000D02*
X121350000Y-63560000D01*
X116332000Y-65786000D02*
X119124000Y-65786000D01*
X119124000Y-65786000D02*
X121350000Y-63560000D01*
%TO.N,Net-(U2A--)*%
X121158000Y-74422000D02*
X120142000Y-74422000D01*
X116332000Y-78232000D02*
X120142000Y-74422000D01*
X111252000Y-79502000D02*
X114300000Y-79502000D01*
X114300000Y-79502000D02*
X115570000Y-78232000D01*
X115570000Y-78232000D02*
X116332000Y-78232000D01*
X116332000Y-68286000D02*
X120864000Y-68286000D01*
X123190000Y-73152000D02*
X121920000Y-74422000D01*
X123190000Y-70612000D02*
X123190000Y-73152000D01*
X120864000Y-68286000D02*
X123190000Y-70612000D01*
X121920000Y-74422000D02*
X121158000Y-74422000D01*
%TO.N,Net-(C22-Pad1)*%
X104380000Y-65270000D02*
X104380000Y-68040000D01*
X104380000Y-68040000D02*
X103720000Y-68700000D01*
%TO.N,Net-(D14-K)*%
X99380000Y-65270000D02*
X99380000Y-65410000D01*
X99380000Y-65410000D02*
X100600000Y-66630000D01*
X100600000Y-66630000D02*
X100600000Y-71600000D01*
X104394000Y-71882000D02*
X100882000Y-71882000D01*
X100882000Y-71882000D02*
X100600000Y-71600000D01*
%TO.N,PHOTLEVELOUT*%
X96620000Y-69350000D02*
X96580000Y-69350000D01*
X96580000Y-69350000D02*
X95140000Y-70790000D01*
X95140000Y-70790000D02*
X95140000Y-77760000D01*
X95140000Y-77760000D02*
X96800000Y-79420000D01*
X104394000Y-79502000D02*
X104394000Y-78914000D01*
X104394000Y-78914000D02*
X102960000Y-77480000D01*
X96800000Y-78210000D02*
X96800000Y-79420000D01*
X97530000Y-77480000D02*
X96800000Y-78210000D01*
X102960000Y-77480000D02*
X97530000Y-77480000D01*
X104394000Y-79502000D02*
X104394000Y-80264000D01*
X104394000Y-80264000D02*
X106334000Y-81824000D01*
X141478000Y-93726000D02*
X143764000Y-95504000D01*
X141478000Y-87376000D02*
X141478000Y-93726000D01*
X136814000Y-81824000D02*
X141478000Y-87376000D01*
X106334000Y-81824000D02*
X136814000Y-81824000D01*
%TO.N,Net-(C26-Pad1)*%
X67890000Y-80870000D02*
X67890000Y-83060000D01*
X67890000Y-83060000D02*
X67920000Y-83090000D01*
X67910000Y-83080000D02*
X67920000Y-83090000D01*
%TO.N,Net-(J7-Pin_2)*%
X67920000Y-88090000D02*
X67920000Y-87900000D01*
X67920000Y-87900000D02*
X65490000Y-85470000D01*
X65490000Y-82140000D02*
X60970000Y-77620000D01*
X65490000Y-85470000D02*
X65490000Y-82140000D01*
%TO.N,Net-(U3A--)*%
X78850000Y-77720000D02*
X78850000Y-76790000D01*
X71810000Y-76050000D02*
X71170000Y-76690000D01*
X78110000Y-76050000D02*
X71810000Y-76050000D01*
X78850000Y-76790000D02*
X78110000Y-76050000D01*
X78850000Y-77720000D02*
X78850000Y-79190000D01*
X80700000Y-81040000D02*
X81570000Y-81040000D01*
X78850000Y-79190000D02*
X80700000Y-81040000D01*
X87630000Y-82296000D02*
X85426000Y-82296000D01*
X84170000Y-81040000D02*
X81570000Y-81040000D01*
X85426000Y-82296000D02*
X84170000Y-81040000D01*
%TO.N,Net-(C27-Pad2)*%
X90910000Y-77340000D02*
X90910000Y-79660000D01*
X90910000Y-79660000D02*
X90975000Y-79725000D01*
X90910000Y-77340000D02*
X87674000Y-77340000D01*
X87674000Y-77340000D02*
X87630000Y-77296000D01*
%TO.N,Net-(U4A--)*%
X74676000Y-98044000D02*
X71384000Y-98044000D01*
X71384000Y-98044000D02*
X71300000Y-97960000D01*
X83820000Y-93472000D02*
X80264000Y-93472000D01*
X80264000Y-93472000D02*
X79248000Y-94488000D01*
X79248000Y-97028000D02*
X79248000Y-97282000D01*
X79248000Y-97282000D02*
X78486000Y-98044000D01*
X78486000Y-98044000D02*
X74676000Y-98044000D01*
X79248000Y-94488000D02*
X79248000Y-97028000D01*
%TO.N,Net-(C28-Pad2)*%
X71300000Y-92960000D02*
X70220000Y-92960000D01*
X67920000Y-95260000D02*
X67920000Y-97990000D01*
X70220000Y-92960000D02*
X67920000Y-95260000D01*
%TO.N,Net-(C29-Pad1)*%
X88810000Y-94030000D02*
X88810000Y-90110000D01*
X88810000Y-90110000D02*
X91420000Y-87500000D01*
X85890000Y-100730000D02*
X84780000Y-101840000D01*
X85890000Y-96950000D02*
X85890000Y-100730000D01*
X88810000Y-94030000D02*
X85890000Y-96950000D01*
%TO.N,Net-(D16-K)*%
X82280000Y-101840000D02*
X80500000Y-101880000D01*
X80500000Y-101880000D02*
X79210000Y-103170000D01*
X79210000Y-103170000D02*
X79210000Y-107150000D01*
X79210000Y-107150000D02*
X79248000Y-107188000D01*
%TO.N,ULTRASOUNDOUT*%
X109732500Y-102892500D02*
X109732500Y-102917500D01*
X105462000Y-107188000D02*
X86868000Y-107188000D01*
X109732500Y-102917500D02*
X105462000Y-107188000D01*
X135423000Y-99295000D02*
X138975000Y-99295000D01*
X140240000Y-98030000D02*
X140240000Y-95980000D01*
X138975000Y-99295000D02*
X140240000Y-98030000D01*
X112325000Y-100300000D02*
X125506000Y-100300000D01*
X134874000Y-98806000D02*
X135423000Y-99295000D01*
X127000000Y-98806000D02*
X134874000Y-98806000D01*
X125506000Y-100300000D02*
X127000000Y-98806000D01*
X109732500Y-102892500D02*
X112325000Y-100300000D01*
X86980000Y-110980000D02*
X89390000Y-110980000D01*
X89390000Y-110980000D02*
X90170000Y-111760000D01*
X86868000Y-107188000D02*
X86868000Y-110868000D01*
X86868000Y-110868000D02*
X86980000Y-110980000D01*
%TO.N,Net-(D3-K)*%
X172920000Y-56410000D02*
X174040000Y-56410000D01*
X177905000Y-60275000D02*
X181825000Y-60275000D01*
X174040000Y-56410000D02*
X177905000Y-60275000D01*
D35*
%TO.N,Net-(D6-A)*%
X193610000Y-83050000D02*
X192070000Y-83050000D01*
X190420000Y-107030000D02*
X189050000Y-107030000D01*
X191640000Y-105810000D02*
X190420000Y-107030000D01*
X191640000Y-102720000D02*
X191640000Y-105810000D01*
X190800000Y-101880000D02*
X191640000Y-102720000D01*
X190800000Y-84320000D02*
X190800000Y-101880000D01*
X192070000Y-83050000D02*
X190800000Y-84320000D01*
X193610000Y-83050000D02*
X193610000Y-78610000D01*
X193610000Y-78610000D02*
X194600000Y-77620000D01*
X194600000Y-77620000D02*
X191180000Y-77620000D01*
X191180000Y-77620000D02*
X191110000Y-77690000D01*
%TO.N,Net-(D8-A)*%
X178620000Y-141820000D02*
X175020000Y-141880000D01*
X183210000Y-138950000D02*
X181946000Y-138950000D01*
X181946000Y-138950000D02*
X180848000Y-140208000D01*
X180848000Y-140208000D02*
X178620000Y-141820000D01*
X183210000Y-138950000D02*
X182260000Y-138950000D01*
X189050000Y-119730000D02*
X190630000Y-119730000D01*
X185600000Y-136720000D02*
X183210000Y-138950000D01*
X185600000Y-127100000D02*
X185600000Y-136720000D01*
X186600000Y-126100000D02*
X185600000Y-127100000D01*
X189500000Y-126100000D02*
X186600000Y-126100000D01*
X191600000Y-124000000D02*
X189500000Y-126100000D01*
X191600000Y-120700000D02*
X191600000Y-124000000D01*
X190630000Y-119730000D02*
X191600000Y-120700000D01*
X189050000Y-119730000D02*
X190088000Y-119730000D01*
%TO.N,Net-(D10-A)*%
X194564000Y-93726000D02*
X194118000Y-88638000D01*
X194118000Y-88638000D02*
X193610000Y-88130000D01*
X194818000Y-97282000D02*
X194818000Y-105072000D01*
X194818000Y-105072000D02*
X194130000Y-105760000D01*
X194564000Y-93726000D02*
X194564000Y-97028000D01*
X194564000Y-97028000D02*
X194818000Y-97282000D01*
X194520000Y-105370000D02*
X194130000Y-105760000D01*
%TO.N,Net-(D12-A)*%
X190000000Y-129300000D02*
X189216000Y-129300000D01*
X189216000Y-129300000D02*
X189484000Y-129568000D01*
X189484000Y-129568000D02*
X189484000Y-132842000D01*
X188290000Y-138950000D02*
X188214000Y-134112000D01*
X188214000Y-134112000D02*
X189484000Y-132842000D01*
X189920000Y-129380000D02*
X190000000Y-129300000D01*
X190000000Y-129300000D02*
X190200000Y-129300000D01*
X190200000Y-129300000D02*
X194130000Y-125370000D01*
X194130000Y-125370000D02*
X194130000Y-121000000D01*
%TO.N,Net-(J1-Pin_1)*%
X143002000Y-44196000D02*
X143002000Y-45212000D01*
X143002000Y-45212000D02*
X147716000Y-49926000D01*
X147716000Y-49926000D02*
X147716000Y-52578000D01*
X143002000Y-44196000D02*
X143002000Y-44958000D01*
X151666000Y-52578000D02*
X147716000Y-52578000D01*
D34*
%TO.N,Net-(ID1-K)*%
X167950000Y-51520000D02*
X168760000Y-51520000D01*
X168760000Y-51520000D02*
X174570000Y-45710000D01*
X174570000Y-45710000D02*
X175450000Y-45710000D01*
%TO.N,Net-(ID2-K)*%
X154380000Y-140550000D02*
X157050000Y-140550000D01*
X134030000Y-138070000D02*
X133190000Y-138070000D01*
X139750000Y-143790000D02*
X134030000Y-138070000D01*
X151140000Y-143790000D02*
X139750000Y-143790000D01*
X154380000Y-140550000D02*
X151140000Y-143790000D01*
X160379998Y-143879998D02*
X166870002Y-143879998D01*
X133190000Y-138070000D02*
X131280000Y-139980000D01*
X160379998Y-143879998D02*
X157050000Y-140550000D01*
X161660000Y-130280000D02*
X161660000Y-123760000D01*
X167640000Y-136260000D02*
X161660000Y-130280000D01*
X167640000Y-143110000D02*
X167640000Y-136260000D01*
X166870002Y-143879998D02*
X167640000Y-143110000D01*
X161036000Y-115700000D02*
X161036000Y-123136000D01*
X161036000Y-123136000D02*
X161660000Y-123760000D01*
X161036000Y-115700000D02*
X161036000Y-114808000D01*
%TO.N,Net-(ID3-K)*%
X135880000Y-52120000D02*
X139710000Y-52120000D01*
X109550000Y-49420000D02*
X133060000Y-49420000D01*
X133180000Y-49420000D02*
X133060000Y-49420000D01*
X135880000Y-52120000D02*
X133180000Y-49420000D01*
X90180000Y-43470000D02*
X106590000Y-43470000D01*
X69770000Y-46280000D02*
X68500000Y-46280000D01*
X70600000Y-45450000D02*
X69770000Y-46280000D01*
X70600000Y-40690000D02*
X70600000Y-45450000D01*
X71400000Y-39890000D02*
X70600000Y-40690000D01*
X86600000Y-39890000D02*
X71400000Y-39890000D01*
X90180000Y-43470000D02*
X86600000Y-39890000D01*
X109550000Y-49420000D02*
X107430000Y-47300000D01*
X107430000Y-44310000D02*
X106590000Y-43470000D01*
X107430000Y-47300000D02*
X107430000Y-44310000D01*
%TO.N,RXD*%
X136144000Y-90424000D02*
X135128000Y-90424000D01*
X133604000Y-91948000D02*
X133604000Y-94996000D01*
X135128000Y-90424000D02*
X133604000Y-91948000D01*
X133604000Y-94996000D02*
X133096000Y-95504000D01*
%TO.N,Net-(J2-Pin_3)*%
X108240000Y-90110000D02*
X106790000Y-90110000D01*
X107290000Y-84380000D02*
X113860000Y-84380000D01*
X106030000Y-85640000D02*
X107290000Y-84380000D01*
X106030000Y-89350000D02*
X106030000Y-85640000D01*
X106790000Y-90110000D02*
X106030000Y-89350000D01*
X117856000Y-88900000D02*
X113160000Y-88900000D01*
X111950000Y-90110000D02*
X108240000Y-90110000D01*
X113160000Y-88900000D02*
X111950000Y-90110000D01*
%TO.N,SCK*%
X142600000Y-114525000D02*
X142025000Y-113950000D01*
X170320000Y-85060000D02*
X170320000Y-93680000D01*
X172560000Y-101900000D02*
X171640000Y-102820000D01*
X172560000Y-95920000D02*
X172560000Y-101900000D01*
X170320000Y-93680000D02*
X172560000Y-95920000D01*
X171882000Y-80260000D02*
X170850000Y-80260000D01*
X169790000Y-81320000D02*
X170850000Y-80260000D01*
X169790000Y-84530000D02*
X169790000Y-81320000D01*
X170320000Y-85060000D02*
X169790000Y-84530000D01*
X152925000Y-111590000D02*
X152925000Y-111505000D01*
X152925000Y-111505000D02*
X154130000Y-110300000D01*
X167240000Y-111000000D02*
X169320000Y-108920000D01*
X157090000Y-111000000D02*
X167240000Y-111000000D01*
X156390000Y-110300000D02*
X157090000Y-111000000D01*
X154130000Y-110300000D02*
X156390000Y-110300000D01*
X152925000Y-111590000D02*
X152925000Y-111435000D01*
X152925000Y-111590000D02*
X149810000Y-111590000D01*
X142025000Y-111950000D02*
X143231000Y-110744000D01*
X142025000Y-113950000D02*
X142025000Y-111950000D01*
X146875000Y-114525000D02*
X142600000Y-114525000D01*
X149810000Y-111590000D02*
X146875000Y-114525000D01*
X143231000Y-110744000D02*
X143764000Y-110744000D01*
%TO.N,MOSI*%
X155465000Y-111590000D02*
X166290000Y-111590000D01*
X167580000Y-114800000D02*
X169320000Y-116540000D01*
X167580000Y-112880000D02*
X167580000Y-114800000D01*
X166290000Y-111590000D02*
X167580000Y-112880000D01*
X155465000Y-111590000D02*
X155185000Y-111590000D01*
X155185000Y-111590000D02*
X153925000Y-112850000D01*
X147251000Y-115824000D02*
X143764000Y-115824000D01*
X150225000Y-112850000D02*
X147251000Y-115824000D01*
X153925000Y-112850000D02*
X150225000Y-112850000D01*
%TO.N,Net-(J6-Pin_1)*%
X150360000Y-124420000D02*
X150360000Y-126170000D01*
X159220000Y-133350000D02*
X165050000Y-139180000D01*
X159220000Y-129800000D02*
X159220000Y-133350000D01*
X157170000Y-127160000D02*
X159220000Y-129800000D01*
X151940000Y-127160000D02*
X157170000Y-127160000D01*
X150360000Y-126170000D02*
X151940000Y-127160000D01*
X150360000Y-124420000D02*
X150360000Y-126630000D01*
X147820000Y-129170000D02*
X147820000Y-132040000D01*
X150360000Y-126630000D02*
X150040000Y-126950000D01*
X150040000Y-126950000D02*
X150130000Y-126860000D01*
X150130000Y-126860000D02*
X147820000Y-129170000D01*
%TO.N,Net-(PDT1-E)*%
X109750000Y-137940000D02*
X110940000Y-137940000D01*
X110940000Y-137940000D02*
X113500000Y-135380000D01*
X111030000Y-137940000D02*
X113150000Y-137940000D01*
X115418000Y-140208000D02*
X118364000Y-140208000D01*
X113150000Y-137940000D02*
X115418000Y-140208000D01*
X56270000Y-132810000D02*
X56270000Y-59660000D01*
X58680000Y-57250000D02*
X59010000Y-57140000D01*
X56270000Y-59660000D02*
X58680000Y-57250000D01*
X64160000Y-57190000D02*
X59010000Y-57140000D01*
X95450000Y-57190000D02*
X64160000Y-57190000D01*
X99270000Y-61040000D02*
X95450000Y-57190000D01*
X99820000Y-61040000D02*
X99270000Y-61040000D01*
X56270000Y-132810000D02*
X59210000Y-135750000D01*
X59210000Y-135750000D02*
X62640000Y-135750000D01*
X62640000Y-135750000D02*
X64120000Y-137230000D01*
X64120000Y-137230000D02*
X64120000Y-142490000D01*
X64120000Y-142490000D02*
X65560000Y-143930000D01*
X65560000Y-143930000D02*
X105010000Y-143930000D01*
X105010000Y-143930000D02*
X107760000Y-141180000D01*
X107760000Y-141180000D02*
X107760000Y-138530000D01*
X107760000Y-138530000D02*
X108350000Y-137940000D01*
X108350000Y-137940000D02*
X109750000Y-137940000D01*
X109750000Y-137940000D02*
X111030000Y-137940000D01*
%TO.N,Net-(PDT2-E)*%
X191008000Y-43992000D02*
X191008000Y-41148000D01*
X116740000Y-39446000D02*
X189306000Y-39446000D01*
X191008000Y-41148000D02*
X189306000Y-39446000D01*
X187960000Y-45720000D02*
X189280000Y-45720000D01*
X189280000Y-45720000D02*
X191008000Y-43992000D01*
X115370000Y-44850000D02*
X115370000Y-41070000D01*
X115370000Y-41070000D02*
X116740000Y-39446000D01*
X191008000Y-43992000D02*
X191008000Y-49276000D01*
X109980000Y-61040000D02*
X109980000Y-60400000D01*
X109980000Y-60400000D02*
X111330000Y-59050000D01*
X115440000Y-44920000D02*
X115370000Y-44850000D01*
X111330000Y-59050000D02*
X111330000Y-57400000D01*
X109980000Y-61040000D02*
X109980000Y-60510000D01*
%TO.N,Net-(PDT3-E)*%
X68055000Y-56555000D02*
X98425000Y-56555000D01*
X68055000Y-56555000D02*
X66670000Y-55170000D01*
X66670000Y-55170000D02*
X59455000Y-55170000D01*
X59455000Y-55170000D02*
X59450000Y-55175000D01*
X98425000Y-56555000D02*
X99400000Y-57350000D01*
X99400000Y-57350000D02*
X101200000Y-57350000D01*
X101200000Y-57350000D02*
X102360000Y-58510000D01*
X102360000Y-58510000D02*
X102360000Y-61040000D01*
%TO.N,Net-(PDT4-E)*%
X109610000Y-44650000D02*
X109610000Y-42808000D01*
X107950000Y-41148000D02*
X98044000Y-41148000D01*
X109610000Y-42808000D02*
X107950000Y-41148000D01*
X107440000Y-61040000D02*
X107440000Y-58950000D01*
X109610000Y-47870000D02*
X109610000Y-44650000D01*
X109550000Y-47930000D02*
X109610000Y-47870000D01*
X107440000Y-58950000D02*
X108690000Y-57700000D01*
%TO.N,Net-(PT1-C)*%
X165430000Y-43170000D02*
X164850000Y-43170000D01*
X164850000Y-43170000D02*
X159680000Y-48340000D01*
X159680000Y-48340000D02*
X155990000Y-48340000D01*
X153416000Y-54356000D02*
X153416000Y-50546000D01*
X155702000Y-48260000D02*
X155990000Y-48340000D01*
X153416000Y-50546000D02*
X155702000Y-48260000D01*
X154400000Y-79830000D02*
X156400000Y-77830000D01*
X165520000Y-72450000D02*
X165520000Y-66250000D01*
X165520000Y-66250000D02*
X164040000Y-64210000D01*
X164040000Y-64210000D02*
X159990000Y-64210000D01*
X159990000Y-64210000D02*
X158840000Y-63060000D01*
X158840000Y-63060000D02*
X153270000Y-63060000D01*
X153270000Y-63060000D02*
X152770000Y-62560000D01*
X152770000Y-62560000D02*
X151100000Y-62560000D01*
X165180000Y-72790000D02*
X163430000Y-72790000D01*
X163430000Y-72790000D02*
X163190000Y-73030000D01*
X165520000Y-72450000D02*
X165180000Y-72790000D01*
X156400000Y-77830000D02*
X161990000Y-77830000D01*
X161990000Y-77830000D02*
X162520000Y-77300000D01*
X162520000Y-77300000D02*
X162520000Y-73740000D01*
X162520000Y-73740000D02*
X163190000Y-73070000D01*
X163190000Y-73070000D02*
X163190000Y-73030000D01*
X154240000Y-79830000D02*
X154400000Y-79830000D01*
%TO.N,Net-(PT2-C)*%
X143060000Y-135560000D02*
X154450000Y-135560000D01*
X154450000Y-135560000D02*
X155230000Y-134780000D01*
X120505000Y-136525000D02*
X125335000Y-136525000D01*
X143830000Y-136330000D02*
X143830000Y-139980000D01*
X143060000Y-135560000D02*
X143830000Y-136330000D01*
X126300000Y-135560000D02*
X143060000Y-135560000D01*
X125335000Y-136525000D02*
X126300000Y-135560000D01*
X115440000Y-118581000D02*
X115440000Y-107720000D01*
X147464000Y-99170000D02*
X147828000Y-98806000D01*
X147828000Y-98806000D02*
X147828000Y-93726000D01*
X147828000Y-93726000D02*
X151564000Y-89990000D01*
X151564000Y-89990000D02*
X154240000Y-89990000D01*
X119170000Y-104390000D02*
X138610000Y-104390000D01*
X139630000Y-103370000D02*
X138610000Y-104390000D01*
X139630000Y-101860000D02*
X139630000Y-103370000D01*
X139930000Y-101560000D02*
X139630000Y-101860000D01*
X145720000Y-99190000D02*
X147464000Y-99170000D01*
X119170000Y-104390000D02*
X115460000Y-107700000D01*
X115440000Y-107720000D02*
X115460000Y-107700000D01*
X118980000Y-133440000D02*
X118996000Y-133440000D01*
X118980000Y-135000000D02*
X118980000Y-133440000D01*
X120505000Y-136525000D02*
X118980000Y-135000000D01*
X118996000Y-129246000D02*
X118872000Y-128778000D01*
X114300000Y-119700000D02*
X115440000Y-118581000D01*
X114300000Y-126490000D02*
X114300000Y-119700000D01*
X114690000Y-126880000D02*
X114300000Y-126490000D01*
X117290000Y-126880000D02*
X114690000Y-126880000D01*
X118872000Y-128778000D02*
X117290000Y-126880000D01*
X118996000Y-133440000D02*
X118996000Y-129246000D01*
%TO.N,Net-(PT3-C)*%
X138750000Y-61130000D02*
X138590000Y-61130000D01*
X138590000Y-61130000D02*
X133120000Y-55660000D01*
X81560000Y-55660000D02*
X133120000Y-55660000D01*
X80850000Y-54950000D02*
X81560000Y-55660000D01*
X80850000Y-51630000D02*
X80850000Y-54950000D01*
X75840000Y-50350000D02*
X79570000Y-50350000D01*
X75840000Y-50350000D02*
X74270000Y-51920000D01*
X78500000Y-43740000D02*
X79900000Y-43740000D01*
X80850000Y-44690000D02*
X80850000Y-51630000D01*
X79900000Y-43740000D02*
X80850000Y-44690000D01*
X152250000Y-84074000D02*
X150254000Y-84074000D01*
X154104000Y-82370000D02*
X152400000Y-84074000D01*
X152400000Y-84074000D02*
X152250000Y-84074000D01*
X140890000Y-74710000D02*
X140890000Y-62320000D01*
X140890000Y-62320000D02*
X139700000Y-61130000D01*
X139700000Y-61130000D02*
X138750000Y-61130000D01*
X150254000Y-84074000D02*
X140890000Y-74710000D01*
X80850000Y-51630000D02*
X79570000Y-50350000D01*
X154240000Y-82370000D02*
X154104000Y-82370000D01*
%TO.N,Net-(PT4-C)*%
X138340000Y-49130000D02*
X143930000Y-49130000D01*
X145710000Y-50910000D02*
X145710000Y-54410000D01*
X143930000Y-49130000D02*
X145710000Y-50910000D01*
X132270000Y-45000000D02*
X136310000Y-45000000D01*
X138340000Y-47030000D02*
X138340000Y-49130000D01*
X136310000Y-45000000D02*
X138340000Y-47030000D01*
X146880000Y-55580000D02*
X152270000Y-55580000D01*
X146880000Y-55580000D02*
X145710000Y-54410000D01*
X152290000Y-55600000D02*
X152270000Y-55580000D01*
X162950000Y-69200000D02*
X162950000Y-66520000D01*
X162950000Y-66520000D02*
X161390000Y-64960000D01*
X161390000Y-64960000D02*
X158870000Y-64960000D01*
X158870000Y-64960000D02*
X158110000Y-64200000D01*
X158110000Y-64200000D02*
X153770000Y-64200000D01*
X153770000Y-64200000D02*
X153310000Y-63740000D01*
X161770000Y-71420000D02*
X161770000Y-75970000D01*
X154610000Y-77240000D02*
X152700000Y-79150000D01*
X160500000Y-77240000D02*
X154610000Y-77240000D01*
X161770000Y-75970000D02*
X160500000Y-77240000D01*
X162930000Y-69200000D02*
X162930000Y-70260000D01*
X162930000Y-70260000D02*
X161770000Y-71420000D01*
X154240000Y-87450000D02*
X154600000Y-87450000D01*
X154600000Y-87450000D02*
X155750000Y-86300000D01*
X155750000Y-86300000D02*
X155750000Y-81800000D01*
X155750000Y-81800000D02*
X155100000Y-81150000D01*
X155100000Y-81150000D02*
X153200000Y-81150000D01*
X153200000Y-81150000D02*
X152700000Y-80650000D01*
X152700000Y-80650000D02*
X152700000Y-79150000D01*
X162930000Y-69200000D02*
X162950000Y-69200000D01*
%TO.N,Net-(Q1-B)*%
X110950000Y-126370000D02*
X111790000Y-126370000D01*
X113490000Y-113970000D02*
X112650000Y-113970000D01*
X114050000Y-114530000D02*
X113490000Y-113970000D01*
X114050000Y-117910000D02*
X114050000Y-114530000D01*
X112680000Y-119280000D02*
X114050000Y-117910000D01*
X112680000Y-125480000D02*
X112680000Y-119280000D01*
X111790000Y-126370000D02*
X112680000Y-125480000D01*
X110950000Y-126370000D02*
X110950000Y-128230000D01*
X110950000Y-128230000D02*
X110010000Y-129170000D01*
%TO.N,MICTHR*%
X132380000Y-114290000D02*
X128020000Y-114290000D01*
X134180000Y-112020000D02*
X132380000Y-114290000D01*
X134180000Y-112020000D02*
X138020000Y-112020000D01*
X119360000Y-110920000D02*
X119360000Y-108450000D01*
X120610000Y-112170000D02*
X119360000Y-110920000D01*
X125970000Y-112170000D02*
X120610000Y-112170000D01*
X128020000Y-114290000D02*
X125970000Y-112170000D01*
X138020000Y-112020000D02*
X138140000Y-112140000D01*
X143764000Y-113284000D02*
X146091000Y-113284000D01*
X146091000Y-113284000D02*
X150325000Y-109050000D01*
X150325000Y-109050000D02*
X152925000Y-109050000D01*
%TO.N,Net-(Q2-B)*%
X104902000Y-109220000D02*
X104902000Y-112987000D01*
X104902000Y-112987000D02*
X105465000Y-113550000D01*
%TO.N,ULTRASOUNDTHR*%
X136144000Y-100584000D02*
X135494000Y-100584000D01*
X135494000Y-100584000D02*
X134440000Y-99530000D01*
X127470000Y-99530000D02*
X126025000Y-100975000D01*
X134440000Y-99530000D02*
X127470000Y-99530000D01*
X108204000Y-109220000D02*
X108204000Y-105921000D01*
X113150000Y-100975000D02*
X126025000Y-100975000D01*
X108204000Y-105921000D02*
X113150000Y-100975000D01*
X108204000Y-109220000D02*
X108204000Y-113351000D01*
X108204000Y-113351000D02*
X108005000Y-113550000D01*
%TO.N,TXD*%
X136144000Y-92964000D02*
X136606000Y-92964000D01*
X136606000Y-92964000D02*
X137690000Y-91880000D01*
X137690000Y-91880000D02*
X137690000Y-89620000D01*
X137690000Y-89620000D02*
X137210000Y-89140000D01*
X137210000Y-89140000D02*
X125716000Y-89140000D01*
X125716000Y-89140000D02*
X125476000Y-88900000D01*
%TO.N,Net-(U8-Current_Sensing_A)*%
X178690000Y-99020000D02*
X183620000Y-99020000D01*
X183620000Y-99020000D02*
X184404000Y-98236000D01*
D35*
X186690000Y-90170000D02*
X186436000Y-90170000D01*
X186436000Y-90170000D02*
X184404000Y-92202000D01*
X184404000Y-92202000D02*
X184404000Y-98236000D01*
X184404000Y-98236000D02*
X184404000Y-101346000D01*
X184404000Y-101346000D02*
X187548000Y-104490000D01*
X187548000Y-104490000D02*
X189050000Y-104490000D01*
D34*
%TO.N,Net-(U8-Current_Sensing_B)*%
X163225000Y-122915000D02*
X163225000Y-123605000D01*
X164710000Y-130930000D02*
X177336000Y-130676000D01*
X162950000Y-129170000D02*
X164710000Y-130930000D01*
X162950000Y-123880000D02*
X162950000Y-129170000D01*
X163225000Y-123605000D02*
X162950000Y-123880000D01*
X163225000Y-122915000D02*
X163180000Y-122870000D01*
X163180000Y-122870000D02*
X163180000Y-115966000D01*
X163180000Y-115966000D02*
X164338000Y-114808000D01*
D35*
X177336000Y-130676000D02*
X178056000Y-130676000D01*
X178056000Y-130676000D02*
X185206000Y-122016000D01*
X185206000Y-122016000D02*
X189050000Y-122270000D01*
D34*
%TO.N,CURSEN2*%
X150350000Y-106150000D02*
X156300000Y-106150000D01*
X142870000Y-101840000D02*
X142100000Y-101070000D01*
X147710000Y-101840000D02*
X142870000Y-101840000D01*
X148360000Y-102490000D02*
X147710000Y-101840000D01*
X148360000Y-104160000D02*
X148360000Y-102490000D01*
X150350000Y-106150000D02*
X148360000Y-104160000D01*
X156300000Y-106150000D02*
X156650000Y-106150000D01*
X164338000Y-109162000D02*
X164338000Y-107188000D01*
X164000000Y-109500000D02*
X164338000Y-109162000D01*
X158800000Y-109500000D02*
X164000000Y-109500000D01*
X157900000Y-108600000D02*
X158800000Y-109500000D01*
X157900000Y-107400000D02*
X157900000Y-108600000D01*
X156650000Y-106150000D02*
X157900000Y-107400000D01*
X142100000Y-99708000D02*
X143764000Y-98044000D01*
X142100000Y-101070000D02*
X142100000Y-99708000D01*
X156520000Y-106150000D02*
X156730000Y-106150000D01*
X156520000Y-106150000D02*
X156300000Y-106150000D01*
%TO.N,CURSEN1*%
X150500000Y-105500000D02*
X157080000Y-105500000D01*
X148524000Y-100584000D02*
X143764000Y-100584000D01*
X149030000Y-101090000D02*
X148524000Y-100584000D01*
X149030000Y-104030000D02*
X149030000Y-101090000D01*
X150500000Y-105500000D02*
X149030000Y-104030000D01*
X163100000Y-105700000D02*
X166030000Y-105700000D01*
X167680000Y-102410000D02*
X171070000Y-99020000D01*
X167680000Y-104050000D02*
X167680000Y-102410000D01*
X166030000Y-105700000D02*
X167680000Y-104050000D01*
X158600000Y-107000000D02*
X158600000Y-107020000D01*
X160300000Y-108700000D02*
X158600000Y-107000000D01*
X161900000Y-108700000D02*
X160300000Y-108700000D01*
X162500000Y-108100000D02*
X161900000Y-108700000D01*
X162500000Y-106300000D02*
X162500000Y-108100000D01*
X163100000Y-105700000D02*
X162500000Y-106300000D01*
X157080000Y-105500000D02*
X158600000Y-107020000D01*
%TO.N,CLROUT*%
X168420000Y-86440000D02*
X168420000Y-81350000D01*
X170750000Y-77720000D02*
X171882000Y-77720000D01*
X170100000Y-78370000D02*
X170750000Y-77720000D01*
X170100000Y-79670000D02*
X170100000Y-78370000D01*
X168420000Y-81350000D02*
X170100000Y-79670000D01*
X168420000Y-86440000D02*
X168420000Y-89200000D01*
X168420000Y-89200000D02*
X168450000Y-89230000D01*
X173795000Y-100220000D02*
X173795000Y-103095000D01*
X173785000Y-100530000D02*
X173785000Y-85245000D01*
X173785000Y-85245000D02*
X172565000Y-84065000D01*
X172565000Y-84065000D02*
X170990000Y-84065000D01*
X170990000Y-84065000D02*
X170515000Y-83590000D01*
X170515000Y-83590000D02*
X170515000Y-81890000D01*
X170515000Y-81890000D02*
X170865000Y-81540000D01*
X170865000Y-81540000D02*
X172815000Y-81540000D01*
X172815000Y-81540000D02*
X173265000Y-81090000D01*
X173265000Y-81090000D02*
X173265000Y-79103000D01*
X173265000Y-79103000D02*
X171882000Y-77720000D01*
X173785000Y-100530000D02*
X173795000Y-100220000D01*
X173795000Y-103095000D02*
X172480000Y-104410000D01*
X172480000Y-104410000D02*
X171290000Y-104410000D01*
X171290000Y-104410000D02*
X169320000Y-106380000D01*
%TO.N,Net-(U4B-+)*%
X91440000Y-98552000D02*
X91440000Y-99822000D01*
X90170000Y-101092000D02*
X90170000Y-104140000D01*
X91440000Y-99822000D02*
X90170000Y-101092000D01*
X93726000Y-104140000D02*
X90170000Y-104140000D01*
%TO.N,Net-(U4B--)*%
X101250000Y-101250000D02*
X101250000Y-102660000D01*
X101250000Y-102660000D02*
X99970000Y-103940000D01*
X96340000Y-100020000D02*
X100020000Y-100020000D01*
X100020000Y-100020000D02*
X101250000Y-101250000D01*
X96340000Y-97480000D02*
X96340000Y-100020000D01*
X91440000Y-96012000D02*
X94872000Y-96012000D01*
X94872000Y-96012000D02*
X96340000Y-97480000D01*
%TO.N,Net-(R62-Pad2)*%
X101250000Y-93630000D02*
X101250000Y-97694000D01*
X101250000Y-97694000D02*
X104902000Y-101600000D01*
X96340000Y-94940000D02*
X96760000Y-94940000D01*
X96760000Y-94940000D02*
X98070000Y-93630000D01*
X98070000Y-93630000D02*
X101250000Y-93630000D01*
X91440000Y-93472000D02*
X94872000Y-93472000D01*
X94872000Y-93472000D02*
X96340000Y-94940000D01*
%TO.N,LATCH*%
X169320000Y-111460000D02*
X169560000Y-111460000D01*
X169560000Y-111460000D02*
X172020000Y-109000000D01*
X173210000Y-82800000D02*
X171882000Y-82800000D01*
X174540000Y-84130000D02*
X173210000Y-82800000D01*
X174540000Y-103520000D02*
X174540000Y-84130000D01*
X172020000Y-106040000D02*
X174540000Y-103520000D01*
X172020000Y-109000000D02*
X172020000Y-106040000D01*
X158960000Y-112280000D02*
X165350000Y-112280000D01*
X166600000Y-115970000D02*
X168400000Y-117770000D01*
X166600000Y-113530000D02*
X166600000Y-115970000D01*
X165350000Y-112280000D02*
X166600000Y-113530000D01*
X168400000Y-117770000D02*
X169930000Y-117770000D01*
X170960000Y-112630000D02*
X170960000Y-116740000D01*
X170960000Y-116740000D02*
X169930000Y-117770000D01*
X169790000Y-111460000D02*
X170960000Y-112630000D01*
X150476000Y-118364000D02*
X143764000Y-118364000D01*
X151910000Y-116930000D02*
X150476000Y-118364000D01*
X156130000Y-116930000D02*
X151910000Y-116930000D01*
X157350000Y-115710000D02*
X156130000Y-116930000D01*
X157350000Y-113890000D02*
X157350000Y-115710000D01*
X158960000Y-112280000D02*
X157350000Y-113890000D01*
X169320000Y-111460000D02*
X169790000Y-111460000D01*
X169806000Y-111460000D02*
X169320000Y-111460000D01*
X169320000Y-111460000D02*
X169880000Y-111460000D01*
%TO.N,PHOTSIG*%
X140200000Y-124420000D02*
X140200000Y-126350000D01*
X134380000Y-128930000D02*
X131520000Y-131790000D01*
X137620000Y-128930000D02*
X134380000Y-128930000D01*
X140200000Y-126350000D02*
X137620000Y-128930000D01*
X131520000Y-131790000D02*
X131520000Y-132130000D01*
X145260000Y-96750000D02*
X142530000Y-96750000D01*
X152084000Y-88700000D02*
X155450000Y-88700000D01*
X155450000Y-88700000D02*
X158760000Y-85390000D01*
X158760000Y-85390000D02*
X158760000Y-82230000D01*
X158760000Y-82230000D02*
X159910000Y-81080000D01*
X159910000Y-81080000D02*
X163040000Y-81080000D01*
X163040000Y-81080000D02*
X164230000Y-79890000D01*
X164230000Y-79890000D02*
X164230000Y-76890000D01*
X164230000Y-76890000D02*
X166410000Y-74710000D01*
X166410000Y-65240000D02*
X166410000Y-74710000D01*
X152084000Y-88700000D02*
X147166000Y-93568000D01*
X147166000Y-93568000D02*
X147166000Y-95694000D01*
X147166000Y-95694000D02*
X145260000Y-96750000D01*
X139060000Y-122630000D02*
X140200000Y-124420000D01*
X139060000Y-106590000D02*
X139060000Y-122630000D01*
X141470000Y-103650000D02*
X139060000Y-106590000D01*
X141470000Y-97810000D02*
X141470000Y-103650000D01*
X142530000Y-96750000D02*
X141470000Y-97810000D01*
X154050000Y-61740000D02*
X154050000Y-60690000D01*
X154490000Y-62180000D02*
X154050000Y-61740000D01*
X159490000Y-62180000D02*
X154490000Y-62180000D01*
X160820000Y-63510000D02*
X159490000Y-62180000D01*
X164680000Y-63510000D02*
X160820000Y-63510000D01*
X166410000Y-65240000D02*
X164680000Y-63510000D01*
X154050000Y-61450000D02*
X154050000Y-60690000D01*
%TO.N,LIGHTLEVEL*%
X143764000Y-90424000D02*
X143324000Y-90424000D01*
X143324000Y-90424000D02*
X142300000Y-89400000D01*
X142300000Y-89400000D02*
X142300000Y-86600000D01*
X142300000Y-86600000D02*
X137184000Y-81234000D01*
X104900000Y-61040000D02*
X104900000Y-61466000D01*
X104900000Y-61466000D02*
X108712000Y-65278000D01*
X108712000Y-65278000D02*
X108712000Y-69088000D01*
X108712000Y-69088000D02*
X106172000Y-71628000D01*
X106172000Y-71628000D02*
X106172000Y-80518000D01*
X106172000Y-80518000D02*
X107138000Y-81234000D01*
X107138000Y-81234000D02*
X137184000Y-81234000D01*
%TO.N,MTRIN2*%
X176940000Y-116540000D02*
X178180000Y-116540000D01*
X187300000Y-110360000D02*
X189050000Y-112110000D01*
X181140000Y-110360000D02*
X187300000Y-110360000D01*
X179960000Y-111540000D02*
X181140000Y-110360000D01*
X179960000Y-114760000D02*
X179960000Y-111540000D01*
X178180000Y-116540000D02*
X179960000Y-114760000D01*
%TO.N,Net-(U7-~{QH})*%
X173140000Y-89138000D02*
X173140000Y-102710000D01*
X172010000Y-103840000D02*
X169320000Y-103840000D01*
X173140000Y-102710000D02*
X172010000Y-103840000D01*
X173140000Y-89138000D02*
X171882000Y-87880000D01*
%TO.N,MTRIN3*%
X176940000Y-119080000D02*
X178620000Y-119080000D01*
X178620000Y-119080000D02*
X181640000Y-116060000D01*
X181640000Y-116060000D02*
X185850000Y-116060000D01*
%TO.N,MTRIN4*%
X176940000Y-121620000D02*
X177820000Y-121620000D01*
X180970000Y-118470000D02*
X184680000Y-118460000D01*
X177820000Y-121620000D02*
X180970000Y-118470000D01*
%TO.N,MTRIN1*%
X176940000Y-114000000D02*
X178090000Y-114000000D01*
X180530000Y-109570000D02*
X189050000Y-109570000D01*
X179150000Y-110950000D02*
X180530000Y-109570000D01*
X179150000Y-112940000D02*
X179150000Y-110950000D01*
X178090000Y-114000000D02*
X179150000Y-112940000D01*
%TO.N,PHOTSELB*%
X165770000Y-80500000D02*
X165770000Y-80580000D01*
X163200000Y-93730000D02*
X161860000Y-95070000D01*
X163200000Y-93080000D02*
X163200000Y-93730000D01*
X164290000Y-91990000D02*
X163200000Y-93080000D01*
X164290000Y-82060000D02*
X164290000Y-91990000D01*
X165770000Y-80580000D02*
X164290000Y-82060000D01*
X164310000Y-61990000D02*
X162070000Y-61990000D01*
X164310000Y-62000000D02*
X164310000Y-61990000D01*
X165470000Y-62000000D02*
X164310000Y-62000000D01*
X168010000Y-64540000D02*
X165470000Y-62000000D01*
X161670000Y-61590000D02*
X161670000Y-60690000D01*
X162070000Y-61990000D02*
X161670000Y-61590000D01*
X182220002Y-80081998D02*
X179502000Y-82800000D01*
X182220002Y-74540002D02*
X182220002Y-80081998D01*
X179769998Y-72569998D02*
X182220002Y-74540002D01*
X168010000Y-73980000D02*
X168010000Y-64540000D01*
X170200002Y-72569998D02*
X170350000Y-72569998D01*
X170200002Y-72569998D02*
X169230000Y-73540000D01*
X170350000Y-72569998D02*
X179769998Y-72569998D01*
X169225000Y-75195000D02*
X169225000Y-76155000D01*
X169225000Y-76155000D02*
X169290000Y-76220000D01*
X168130000Y-75720000D02*
X168790000Y-75720000D01*
X168790000Y-75720000D02*
X169290000Y-76220000D01*
X167940000Y-74050000D02*
X168010000Y-73980000D01*
X168700000Y-75720000D02*
X168130000Y-75720000D01*
X168130000Y-75720000D02*
X167690000Y-75720000D01*
X169230000Y-75190000D02*
X169225000Y-75195000D01*
X169225000Y-75195000D02*
X168700000Y-75720000D01*
X169230000Y-73540000D02*
X169230000Y-75190000D01*
X167690000Y-75720000D02*
X165770000Y-77640000D01*
X165770000Y-77640000D02*
X165770000Y-80500000D01*
%TO.N,PHOTSELC*%
X166540000Y-81430000D02*
X166170000Y-81430000D01*
X164900000Y-94570000D02*
X161860000Y-97610000D01*
X164900000Y-82700000D02*
X164900000Y-94570000D01*
X166170000Y-81430000D02*
X164900000Y-82700000D01*
X174940000Y-74550000D02*
X174380000Y-74550000D01*
X167260534Y-71369466D02*
X167260534Y-64890003D01*
X167220000Y-71410000D02*
X167260534Y-71369466D01*
X173450000Y-73620000D02*
X171020000Y-73620000D01*
X174380000Y-74550000D02*
X173450000Y-73620000D01*
X176110000Y-73230000D02*
X176110000Y-73380000D01*
X173070000Y-76420000D02*
X170390000Y-76420000D01*
X176110000Y-73380000D02*
X174940000Y-74550000D01*
X174940000Y-74550000D02*
X173070000Y-76420000D01*
X167850000Y-77070000D02*
X166540000Y-78380000D01*
X169740000Y-77070000D02*
X167850000Y-77070000D01*
X170390000Y-76420000D02*
X169740000Y-77070000D01*
X166540000Y-81430000D02*
X166540000Y-78380000D01*
X161139998Y-62669998D02*
X159130000Y-60690000D01*
X165069998Y-62669998D02*
X167260534Y-64890003D01*
X165069998Y-62669998D02*
X161139998Y-62669998D01*
X180530000Y-80260000D02*
X179502000Y-80260000D01*
X181670000Y-79120000D02*
X180530000Y-80260000D01*
X181670000Y-75110000D02*
X181670000Y-79120000D01*
X179360000Y-73230000D02*
X181670000Y-75110000D01*
X176110000Y-73230000D02*
X179360000Y-73230000D01*
%TO.N,PHOTSELON*%
X170409998Y-71409998D02*
X181489998Y-71409998D01*
X167500000Y-61000000D02*
X167500000Y-61010000D01*
X169150000Y-62650000D02*
X167500000Y-61000000D01*
X169150000Y-70150000D02*
X169150000Y-62650000D01*
X170409998Y-71409998D02*
X169150000Y-70150000D01*
X165430000Y-58950000D02*
X165440000Y-58950000D01*
X165440000Y-58950000D02*
X167500000Y-61010000D01*
X153250000Y-58950000D02*
X151510000Y-60690000D01*
X165430000Y-58950000D02*
X153250000Y-58950000D01*
X179502000Y-77720000D02*
X178350000Y-77720000D01*
X183610000Y-73530000D02*
X181489998Y-71409998D01*
X183610000Y-83840000D02*
X183610000Y-73530000D01*
X180870000Y-86580000D02*
X183610000Y-83840000D01*
X178700000Y-86580000D02*
X180870000Y-86580000D01*
X177930000Y-85810000D02*
X178700000Y-86580000D01*
X177930000Y-78140000D02*
X177930000Y-85810000D01*
X178350000Y-77720000D02*
X177930000Y-78140000D01*
%TO.N,LIGHTSELA*%
X146350000Y-56380000D02*
X169000000Y-56380000D01*
X112520000Y-52160000D02*
X112520000Y-53420000D01*
X114670000Y-50010000D02*
X112520000Y-52160000D01*
X132600000Y-50010000D02*
X114670000Y-50010000D01*
X136120000Y-53530000D02*
X132600000Y-50010000D01*
X143500000Y-53530000D02*
X136120000Y-53530000D01*
X146350000Y-56380000D02*
X143500000Y-53530000D01*
X179502000Y-92960000D02*
X179980000Y-92960000D01*
X179980000Y-92960000D02*
X185720002Y-87219998D01*
X170940000Y-58320000D02*
X169000000Y-56380000D01*
X170940000Y-68099998D02*
X170940000Y-58320000D01*
X172190002Y-69350000D02*
X170940000Y-68099998D01*
X182820000Y-69350000D02*
X172190002Y-69350000D01*
X185720002Y-72250002D02*
X182820000Y-69350000D01*
X185720002Y-87219998D02*
X185720002Y-72250002D01*
%TO.N,LIGHTSELB*%
X145960000Y-57000000D02*
X168840000Y-57000000D01*
X115060000Y-52080000D02*
X115060000Y-53420000D01*
X116579998Y-50560002D02*
X115060000Y-52080000D01*
X132170002Y-50560002D02*
X116579998Y-50560002D01*
X135760000Y-54150000D02*
X132170002Y-50560002D01*
X143110000Y-54150000D02*
X135760000Y-54150000D01*
X145960000Y-57000000D02*
X143110000Y-54150000D01*
X179502000Y-90420000D02*
X181460000Y-90420000D01*
X170320000Y-58480000D02*
X168840000Y-57000000D01*
X170320000Y-68560000D02*
X170320000Y-58480000D01*
X171720000Y-69960000D02*
X170320000Y-68560000D01*
X182330000Y-69960000D02*
X171720000Y-69960000D01*
X185170000Y-72800000D02*
X182330000Y-69960000D01*
X185170000Y-86710000D02*
X185170000Y-72800000D01*
X181460000Y-90420000D02*
X185170000Y-86710000D01*
%TO.N,LIGHTSELC*%
X145350000Y-57610000D02*
X168450000Y-57610000D01*
X117600000Y-52440000D02*
X117600000Y-53420000D01*
X118720000Y-51320000D02*
X117600000Y-52440000D01*
X131940000Y-51320000D02*
X118720000Y-51320000D01*
X135480000Y-54860000D02*
X131940000Y-51320000D01*
X142600000Y-54860000D02*
X135480000Y-54860000D01*
X145350000Y-57610000D02*
X142600000Y-54860000D01*
X179502000Y-87880000D02*
X182250000Y-87880000D01*
X169740000Y-58900000D02*
X168450000Y-57610000D01*
X169740000Y-69730000D02*
X169740000Y-58900000D01*
X170640000Y-70630000D02*
X169740000Y-69730000D01*
X182000000Y-70630000D02*
X170640000Y-70630000D01*
X184600000Y-73230000D02*
X182000000Y-70630000D01*
X184600000Y-85530000D02*
X184600000Y-73230000D01*
X182250000Y-87880000D02*
X184600000Y-85530000D01*
%TO.N,PHOTSELA*%
X161860000Y-92530000D02*
X162710000Y-92530000D01*
X163600000Y-81680000D02*
X165070000Y-80210000D01*
X163600000Y-91640000D02*
X163600000Y-81680000D01*
X162710000Y-92530000D02*
X163600000Y-91640000D01*
X169990000Y-71960000D02*
X169860000Y-71960000D01*
X165720000Y-60690000D02*
X164210000Y-60690000D01*
X168599998Y-63569998D02*
X165720000Y-60690000D01*
X168599998Y-70699998D02*
X168599998Y-63569998D01*
X169860000Y-71960000D02*
X169595000Y-71695000D01*
X169595000Y-71695000D02*
X168599998Y-70699998D01*
X170550000Y-71960000D02*
X169990000Y-71960000D01*
X169848000Y-71960000D02*
X169926000Y-71960000D01*
X182950000Y-81892000D02*
X179502000Y-85340000D01*
X182950000Y-73980000D02*
X182950000Y-81892000D01*
X180380000Y-71960000D02*
X182950000Y-73980000D01*
X169926000Y-71960000D02*
X170550000Y-71960000D01*
X170550000Y-71960000D02*
X180380000Y-71960000D01*
X169595000Y-71695000D02*
X169595000Y-71955000D01*
X165070000Y-77220000D02*
X165070000Y-80210000D01*
X167220000Y-75070000D02*
X165070000Y-77220000D01*
X168070000Y-75070000D02*
X167220000Y-75070000D01*
X168670000Y-74470000D02*
X168070000Y-75070000D01*
X168670000Y-72880000D02*
X168670000Y-74470000D01*
X169595000Y-71955000D02*
X168670000Y-72880000D01*
%TO.N,Net-(U11-O4)*%
X150240000Y-65860000D02*
X150240000Y-60090000D01*
X167150000Y-58340000D02*
X167950000Y-59140000D01*
X151990000Y-58340000D02*
X167150000Y-58340000D01*
X150240000Y-60090000D02*
X151990000Y-58340000D01*
X151510000Y-68310000D02*
X151510000Y-67130000D01*
X151510000Y-67130000D02*
X150240000Y-65860000D01*
%TO.N,Net-(U11-O5)*%
X150748000Y-104648000D02*
X158242000Y-104648000D01*
X152146000Y-99064000D02*
X152146000Y-91186000D01*
X149650000Y-101560000D02*
X152146000Y-99064000D01*
X149650000Y-103550000D02*
X149650000Y-101560000D01*
X150748000Y-104648000D02*
X149650000Y-103550000D01*
X141732000Y-71882000D02*
X141732000Y-74732000D01*
X149910000Y-81330000D02*
X151384000Y-82804000D01*
X148330000Y-81330000D02*
X149910000Y-81330000D01*
X141732000Y-74732000D02*
X148330000Y-81330000D01*
X161036000Y-107188000D02*
X160782000Y-107188000D01*
X160782000Y-107188000D02*
X158242000Y-104648000D01*
X141732000Y-71882000D02*
X142494000Y-71120000D01*
X142494000Y-71120000D02*
X146160000Y-71120000D01*
X146160000Y-71120000D02*
X148970000Y-68310000D01*
%TO.N,Net-(U11-O6)*%
X146430000Y-68310000D02*
X146430000Y-66460000D01*
X146430000Y-66460000D02*
X139710000Y-59740000D01*
%TO.N,Net-(U11-O7)*%
X143002000Y-59182000D02*
X147828000Y-59182000D01*
X147828000Y-59182000D02*
X148970000Y-60324000D01*
X148970000Y-60324000D02*
X148970000Y-60690000D01*
%TO.N,Net-(J16-Pin_1)*%
X151400000Y-102800000D02*
X151400000Y-102110000D01*
X151400000Y-102110000D02*
X153620000Y-99820000D01*
X153620000Y-99820000D02*
X156480000Y-99820000D01*
X156480000Y-99820000D02*
X157960000Y-98340000D01*
X157960000Y-98340000D02*
X157960000Y-91440000D01*
%TO.N,Net-(J16-Pin_2)*%
X153940000Y-102800000D02*
X153940000Y-102120000D01*
X153940000Y-102120000D02*
X155290000Y-100700000D01*
X155290000Y-100700000D02*
X156740000Y-100700000D01*
X156740000Y-100700000D02*
X158720000Y-98720000D01*
X158720000Y-98720000D02*
X158720000Y-86950000D01*
X158720000Y-86950000D02*
X160290000Y-85380000D01*
X160290000Y-85380000D02*
X160290000Y-83940000D01*
X160290000Y-83940000D02*
X161860000Y-82370000D01*
%TO.N,Net-(J16-Pin_3)*%
X156480000Y-102800000D02*
X156480000Y-102670000D01*
X156480000Y-102670000D02*
X159600000Y-99020000D01*
X159600000Y-99020000D02*
X159600000Y-87020000D01*
X159600000Y-87020000D02*
X161860000Y-85220000D01*
X161860000Y-85220000D02*
X161860000Y-84910000D01*
%TO.N,Net-(J16-Pin_4)*%
X159020000Y-102800000D02*
X159020000Y-102040000D01*
X159020000Y-102040000D02*
X160250000Y-100740000D01*
X160250000Y-100740000D02*
X160250000Y-89270000D01*
X160250000Y-89270000D02*
X161860000Y-87660000D01*
X161860000Y-87660000D02*
X161860000Y-87450000D01*
%TO.N,Net-(J17-Pin_1)*%
X154050000Y-68310000D02*
X154050000Y-70150000D01*
X146926000Y-72530000D02*
X145288000Y-74168000D01*
X148190000Y-72530000D02*
X146926000Y-72530000D01*
X148550000Y-72170000D02*
X148190000Y-72530000D01*
X149810000Y-72170000D02*
X148550000Y-72170000D01*
X150680000Y-71300000D02*
X149810000Y-72170000D01*
X152470000Y-71300000D02*
X150680000Y-71300000D01*
X153250000Y-70520000D02*
X152470000Y-71300000D01*
X153680000Y-70520000D02*
X153250000Y-70520000D01*
X154050000Y-70150000D02*
X153680000Y-70520000D01*
%TO.N,Net-(J17-Pin_2)*%
X156590000Y-68310000D02*
X156590000Y-70680000D01*
X149216000Y-72780000D02*
X147828000Y-74168000D01*
X150690000Y-72780000D02*
X149216000Y-72780000D01*
X151500000Y-71970000D02*
X150690000Y-72780000D01*
X152720000Y-71970000D02*
X151500000Y-71970000D01*
X153610000Y-71080000D02*
X152720000Y-71970000D01*
X156190000Y-71080000D02*
X153610000Y-71080000D01*
X156590000Y-70680000D02*
X156190000Y-71080000D01*
%TO.N,Net-(J17-Pin_3)*%
X159130000Y-68310000D02*
X159130000Y-70450000D01*
X151896000Y-72640000D02*
X150368000Y-74168000D01*
X153340000Y-72640000D02*
X151896000Y-72640000D01*
X154150000Y-71830000D02*
X153340000Y-72640000D01*
X157750000Y-71830000D02*
X154150000Y-71830000D01*
X159130000Y-70450000D02*
X157750000Y-71830000D01*
%TO.N,Net-(J17-Pin_4)*%
X161670000Y-68310000D02*
X161670000Y-69030000D01*
X161670000Y-69030000D02*
X158200000Y-72500000D01*
X154576000Y-72500000D02*
X152908000Y-74168000D01*
X158200000Y-72500000D02*
X154576000Y-72500000D01*
X161670000Y-68310000D02*
X161670000Y-68962000D01*
%TO.N,Net-(J18-Pin_1)*%
X102220000Y-46630000D02*
X102370000Y-46630000D01*
X102370000Y-46630000D02*
X107440000Y-51700000D01*
X107440000Y-51700000D02*
X107440000Y-53420000D01*
%TO.N,Net-(J18-Pin_2)*%
X99680000Y-46630000D02*
X99860000Y-46630000D01*
X99860000Y-46630000D02*
X104900000Y-51670000D01*
X104900000Y-51670000D02*
X104900000Y-53420000D01*
%TO.N,Net-(J18-Pin_3)*%
X97140000Y-46630000D02*
X97140000Y-46960000D01*
X97140000Y-46960000D02*
X102360000Y-52180000D01*
X102360000Y-52180000D02*
X102360000Y-53420000D01*
%TO.N,Net-(J18-Pin_4)*%
X86310000Y-53340000D02*
X86310000Y-45820000D01*
X87290000Y-44840000D02*
X95670000Y-44840000D01*
X86310000Y-45820000D02*
X87290000Y-44840000D01*
X94600000Y-46630000D02*
X94600000Y-45910000D01*
X94600000Y-45910000D02*
X95670000Y-44840000D01*
X95670000Y-44840000D02*
X103940000Y-44840000D01*
X103940000Y-44840000D02*
X105270000Y-46170000D01*
X105270000Y-46170000D02*
X105270000Y-47020000D01*
X105270000Y-47020000D02*
X109980000Y-51730000D01*
X109980000Y-51730000D02*
X109980000Y-53420000D01*
%TO.N,Net-(C15-Pad2)*%
X107790000Y-118780000D02*
X107740000Y-122680000D01*
X105140000Y-125280000D02*
X101530000Y-125280000D01*
X107740000Y-122680000D02*
X105140000Y-125280000D01*
%TO.N,Net-(R24-Pad1)*%
X111340000Y-68700000D02*
X111340000Y-71794000D01*
X111340000Y-71794000D02*
X111252000Y-71882000D01*
X111252000Y-71882000D02*
X107950000Y-71882000D01*
X116332000Y-73152000D02*
X116332000Y-75692000D01*
X116332000Y-73152000D02*
X112522000Y-73152000D01*
X112522000Y-73152000D02*
X111252000Y-71882000D01*
X121158000Y-71882000D02*
X117602000Y-71882000D01*
X117602000Y-71882000D02*
X116332000Y-73152000D01*
%TO.N,Net-(R27-Pad1)*%
X83800000Y-87500000D02*
X81664000Y-87500000D01*
X81664000Y-87500000D02*
X81534000Y-87630000D01*
X83800000Y-87500000D02*
X83820000Y-90932000D01*
X79248000Y-91948000D02*
X76962000Y-91948000D01*
X76962000Y-91948000D02*
X75438000Y-90424000D01*
X75438000Y-90424000D02*
X74676000Y-90424000D01*
X83820000Y-90932000D02*
X82296000Y-90932000D01*
X81280000Y-91948000D02*
X79248000Y-91948000D01*
X82296000Y-90932000D02*
X81280000Y-91948000D01*
%TO.N,Net-(J2-Pin_2)*%
X125476000Y-95504000D02*
X124968000Y-95504000D01*
X124968000Y-95504000D02*
X123444000Y-93980000D01*
X123444000Y-93980000D02*
X112522000Y-93980000D01*
X112522000Y-93980000D02*
X111192000Y-92650000D01*
X111192000Y-92650000D02*
X108240000Y-92650000D01*
%TO.N,Net-(D5-K)*%
X104470000Y-118520000D02*
X104470000Y-117960000D01*
X104470000Y-117960000D02*
X105360000Y-117070000D01*
X110060000Y-117070000D02*
X110950000Y-117960000D01*
X105360000Y-117070000D02*
X110060000Y-117070000D01*
X110950000Y-117960000D02*
X110950000Y-118750000D01*
X104470000Y-118520000D02*
X104470000Y-117900000D01*
X111010000Y-118030000D02*
X110950000Y-118750000D01*
X99770000Y-115170000D02*
X99770000Y-117010000D01*
X101280000Y-118520000D02*
X104470000Y-118520000D01*
X99770000Y-117010000D02*
X101280000Y-118520000D01*
%TO.N,Net-(J19-Pin_3)*%
X67440000Y-61330000D02*
X67440000Y-59270000D01*
X67440000Y-59270000D02*
X67210000Y-59040000D01*
X67440000Y-64580000D02*
X67440000Y-61330000D01*
X136144000Y-98044000D02*
X126406000Y-98044000D01*
X126406000Y-98044000D02*
X125430000Y-99020000D01*
X125430000Y-99020000D02*
X107290000Y-99020000D01*
X107290000Y-99020000D02*
X104330000Y-96060000D01*
X104330000Y-96060000D02*
X104330000Y-84980000D01*
X104330000Y-84980000D02*
X101460000Y-82110000D01*
X101460000Y-82110000D02*
X94850000Y-82110000D01*
X94850000Y-82110000D02*
X93760000Y-81020000D01*
X93760000Y-81020000D02*
X93760000Y-62090000D01*
X93760000Y-62090000D02*
X90860000Y-59040000D01*
X90860000Y-59040000D02*
X67210000Y-59040000D01*
X61690000Y-63980000D02*
X60840000Y-64830000D01*
X67210000Y-59040000D02*
X63640000Y-59050000D01*
X63640000Y-59050000D02*
X61690000Y-61250000D01*
X61690000Y-61250000D02*
X61690000Y-63980000D01*
X60840000Y-64830000D02*
X60010000Y-64830000D01*
%TO.N,Net-(J19-Pin_2)*%
X67420000Y-67780000D02*
X67420000Y-69150000D01*
X67420000Y-69150000D02*
X65910000Y-70660000D01*
X65910000Y-70660000D02*
X65910000Y-70600000D01*
X65910000Y-70600000D02*
X62680000Y-67370000D01*
X62680000Y-67370000D02*
X60010000Y-67370000D01*
X65680000Y-58430000D02*
X59710000Y-58420000D01*
X58330000Y-67210000D02*
X59850000Y-67210000D01*
X57870000Y-66750000D02*
X58330000Y-67210000D01*
X57870000Y-60240000D02*
X57870000Y-66750000D01*
X59710000Y-58420000D02*
X57870000Y-60240000D01*
X59850000Y-67210000D02*
X60010000Y-67370000D01*
X136144000Y-95504000D02*
X136144000Y-95846000D01*
X136144000Y-95846000D02*
X134680000Y-97310000D01*
X134680000Y-97310000D02*
X125650000Y-97310000D01*
X125650000Y-97310000D02*
X124700000Y-98260000D01*
X124700000Y-98260000D02*
X108040000Y-98260000D01*
X108040000Y-98260000D02*
X105110000Y-95330000D01*
X105110000Y-95330000D02*
X105110000Y-84890000D01*
X105110000Y-84890000D02*
X101680000Y-81460000D01*
X101680000Y-81460000D02*
X95380000Y-81460000D01*
X95380000Y-81460000D02*
X94520000Y-80600000D01*
X94520000Y-80600000D02*
X94520000Y-61610000D01*
X94520000Y-61610000D02*
X91730000Y-58430000D01*
X91730000Y-58430000D02*
X65680000Y-58430000D01*
%TO.N,Net-(C41-Pad1)*%
X153920000Y-129110000D02*
X152210000Y-129810000D01*
X150840000Y-134070000D02*
X141510000Y-134070000D01*
X152050000Y-132860000D02*
X150840000Y-134070000D01*
X152050000Y-129970000D02*
X152050000Y-132860000D01*
X152210000Y-129810000D02*
X152050000Y-129970000D01*
X142740000Y-132040000D02*
X142740000Y-133230000D01*
X137660000Y-133210000D02*
X137660000Y-132040000D01*
X138520000Y-134070000D02*
X137660000Y-133210000D01*
X141900000Y-134070000D02*
X141770000Y-134070000D01*
X141770000Y-134070000D02*
X141510000Y-134070000D01*
X141510000Y-134070000D02*
X138520000Y-134070000D01*
X142740000Y-133230000D02*
X141900000Y-134070000D01*
%TO.N,Net-(J6-Pin_2)*%
X153920000Y-131610000D02*
X153920000Y-132020000D01*
X153920000Y-132020000D02*
X155020000Y-133120000D01*
X155020000Y-133120000D02*
X156480000Y-133120000D01*
X156480000Y-133120000D02*
X159970000Y-136610000D01*
X159970000Y-136610000D02*
X159970000Y-139180000D01*
%TO.N,ULTRATRANS*%
X140200000Y-129680000D02*
X136530000Y-129680000D01*
X135120000Y-131090000D02*
X135120000Y-132040000D01*
X136530000Y-129680000D02*
X135120000Y-131090000D01*
X142740000Y-124420000D02*
X142740000Y-125850000D01*
X140200000Y-128390000D02*
X140200000Y-129680000D01*
X140200000Y-129680000D02*
X140200000Y-132040000D01*
X142740000Y-125850000D02*
X140200000Y-128390000D01*
%TO.N,Net-(C43-Pad1)*%
X123900000Y-132130000D02*
X123900000Y-132894000D01*
X123900000Y-132894000D02*
X123190000Y-133604000D01*
X123190000Y-133604000D02*
X121158000Y-133604000D01*
X137660000Y-124420000D02*
X137660000Y-126210000D01*
X128240000Y-132130000D02*
X123900000Y-132130000D01*
X132430000Y-127940000D02*
X128240000Y-132130000D01*
X135930000Y-127940000D02*
X132430000Y-127940000D01*
X137660000Y-126210000D02*
X135930000Y-127940000D01*
%TO.N,Net-(U14-Pad10)*%
X147820000Y-124420000D02*
X147820000Y-126270000D01*
X145280000Y-128810000D02*
X145280000Y-132040000D01*
X147820000Y-126270000D02*
X145280000Y-128810000D01*
X145280000Y-124420000D02*
X147820000Y-124420000D01*
%TO.N,MOTORPWM1*%
X181060000Y-123320000D02*
X185490000Y-118890000D01*
X191800000Y-112440000D02*
X193400000Y-110840000D01*
X191800000Y-115000000D02*
X191800000Y-112440000D01*
X190850000Y-115950000D02*
X191800000Y-115000000D01*
X187470000Y-115950000D02*
X190850000Y-115950000D01*
X186930000Y-116490000D02*
X187470000Y-115950000D01*
X186930000Y-117430000D02*
X186930000Y-116490000D01*
X185490000Y-118870000D02*
X186930000Y-117430000D01*
X185490000Y-118890000D02*
X185490000Y-118870000D01*
X193400000Y-110840000D02*
X194130000Y-110840000D01*
X166370000Y-123320000D02*
X181060000Y-123320000D01*
X166350000Y-123300000D02*
X166370000Y-123320000D01*
X158820000Y-120880000D02*
X160120000Y-122180000D01*
X146750000Y-120880000D02*
X158820000Y-120880000D01*
X146640000Y-120770000D02*
X146750000Y-120880000D01*
%TO.N,MOTORPWM2*%
X158860000Y-122240000D02*
X160670000Y-124050000D01*
X146930000Y-122240000D02*
X158860000Y-122240000D01*
X146910000Y-122260000D02*
X146930000Y-122240000D01*
X181450000Y-124070000D02*
X188330000Y-117190000D01*
X165490000Y-124070000D02*
X181450000Y-124070000D01*
X165470000Y-124090000D02*
X165490000Y-124070000D01*
X188330000Y-117190000D02*
X189050000Y-117190000D01*
%TO.N,Net-(J21-Pin_3)*%
X123444000Y-115824000D02*
X123444000Y-118064000D01*
X125270000Y-119890000D02*
X125270000Y-120860000D01*
X123444000Y-118064000D02*
X125270000Y-119890000D01*
X137390000Y-114600000D02*
X137200000Y-114600000D01*
X134820000Y-114560000D02*
X128540000Y-120840000D01*
X137160000Y-114560000D02*
X134820000Y-114560000D01*
X137200000Y-114600000D02*
X137160000Y-114560000D01*
X128540000Y-120840000D02*
X125290000Y-120880000D01*
X125290000Y-120880000D02*
X125270000Y-120860000D01*
X143764000Y-120904000D02*
X142204000Y-120904000D01*
X137390000Y-114600000D02*
X137320000Y-114530000D01*
X141200000Y-117660000D02*
X140700000Y-117160000D01*
X141200000Y-119900000D02*
X141200000Y-117660000D01*
X142204000Y-120904000D02*
X141200000Y-119900000D01*
%TO.N,Net-(J21-Pin_2)*%
X136144000Y-120904000D02*
X135314000Y-120904000D01*
X121980000Y-121780000D02*
X121980000Y-120860000D01*
X122650000Y-122450000D02*
X121980000Y-121780000D01*
X129620000Y-122450000D02*
X122650000Y-122450000D01*
X130090000Y-121980000D02*
X129620000Y-122450000D01*
X130090000Y-120700000D02*
X130090000Y-121980000D01*
X130680000Y-120110000D02*
X130090000Y-120700000D01*
X134520000Y-120110000D02*
X130680000Y-120110000D01*
X135314000Y-120904000D02*
X134520000Y-120110000D01*
X120904000Y-115824000D02*
X120904000Y-117836000D01*
X120904000Y-117836000D02*
X121980000Y-118912000D01*
X121980000Y-118912000D02*
X121980000Y-120860000D01*
X121980000Y-120860000D02*
X118770000Y-120860000D01*
X118770000Y-120860000D02*
X118710000Y-120920000D01*
%TO.N,Net-(Q1-C)*%
X111740000Y-108450000D02*
X111740000Y-110520000D01*
X111740000Y-110520000D02*
X112650000Y-111430000D01*
X117570000Y-132380000D02*
X115090000Y-132380000D01*
X112650000Y-111430000D02*
X114830000Y-113610000D01*
X114830000Y-118300000D02*
X114830000Y-113610000D01*
X113460000Y-119670000D02*
X114830000Y-118300000D01*
X113460000Y-130750000D02*
X113460000Y-119670000D01*
X115090000Y-132380000D02*
X113460000Y-130750000D01*
%TO.N,Net-(C48-Pad1)*%
X134040000Y-69040000D02*
X134370000Y-69040000D01*
X134370000Y-69040000D02*
X135636000Y-70306000D01*
X135636000Y-70306000D02*
X135636000Y-71882000D01*
X128778000Y-74422000D02*
X127422000Y-74422000D01*
X125680000Y-63560000D02*
X128970000Y-63560000D01*
X124110000Y-65130000D02*
X125680000Y-63560000D01*
X124110000Y-68100000D02*
X124110000Y-65130000D01*
X126720000Y-70710000D02*
X124110000Y-68100000D01*
X126720000Y-73720000D02*
X126720000Y-70710000D01*
X127422000Y-74422000D02*
X126720000Y-73720000D01*
X132334000Y-71882000D02*
X132334000Y-72898000D01*
X130810000Y-74422000D02*
X128778000Y-74422000D01*
X132334000Y-72898000D02*
X130810000Y-74422000D01*
X135636000Y-71882000D02*
X132334000Y-71882000D01*
%TO.N,Net-(U2B--)*%
X139040000Y-69040000D02*
X139040000Y-71526000D01*
X139040000Y-71526000D02*
X138684000Y-71882000D01*
X132334000Y-79502000D02*
X132334000Y-77470000D01*
X136144000Y-74422000D02*
X138684000Y-71882000D01*
X135382000Y-74422000D02*
X136144000Y-74422000D01*
X132334000Y-77470000D02*
X135382000Y-74422000D01*
X128778000Y-76962000D02*
X131318000Y-76962000D01*
X132334000Y-77978000D02*
X132334000Y-79502000D01*
X131318000Y-76962000D02*
X132334000Y-77978000D01*
%TO.N,Net-(C49-Pad1)*%
X80390000Y-127790000D02*
X80390000Y-126910000D01*
X80390000Y-126910000D02*
X78220000Y-124740000D01*
X83630000Y-128740000D02*
X81340000Y-128740000D01*
X81340000Y-128740000D02*
X80390000Y-127790000D01*
X86868000Y-129032000D02*
X83922000Y-129032000D01*
X83922000Y-129032000D02*
X83630000Y-128740000D01*
X75900000Y-121500000D02*
X76650000Y-121500000D01*
X76650000Y-121500000D02*
X78220000Y-123070000D01*
X78220000Y-123070000D02*
X78220000Y-124740000D01*
%TO.N,Net-(U1A--)*%
X83630000Y-133740000D02*
X82060000Y-133740000D01*
X82060000Y-133740000D02*
X80390000Y-135410000D01*
X86868000Y-131572000D02*
X85798000Y-131572000D01*
X85798000Y-131572000D02*
X83630000Y-133740000D01*
X75946000Y-124714000D02*
X75946000Y-126886000D01*
X75946000Y-126886000D02*
X80390000Y-131330000D01*
X80390000Y-131330000D02*
X80390000Y-135410000D01*
%TO.N,Net-(C52-Pad1)*%
X89720000Y-62220000D02*
X89910000Y-62220000D01*
X89910000Y-62220000D02*
X91950000Y-64260000D01*
X91950000Y-68680000D02*
X90910000Y-69720000D01*
X91950000Y-64260000D02*
X91950000Y-68680000D01*
X79290000Y-66860000D02*
X79290000Y-63100000D01*
X79290000Y-63100000D02*
X77850000Y-61660000D01*
X89720000Y-62220000D02*
X89190000Y-62220000D01*
X89190000Y-62220000D02*
X87620000Y-63790000D01*
X79980000Y-63790000D02*
X77850000Y-61660000D01*
X87620000Y-63790000D02*
X79980000Y-63790000D01*
X79290000Y-66860000D02*
X80550000Y-68400000D01*
X80550000Y-68400000D02*
X78850000Y-70100000D01*
%TO.N,Net-(U3B--)*%
X86910000Y-66860000D02*
X84380000Y-66860000D01*
X84380000Y-66860000D02*
X81390000Y-69850000D01*
X81390000Y-69850000D02*
X81390000Y-70100000D01*
X89720000Y-67220000D02*
X87270000Y-67220000D01*
X87270000Y-67220000D02*
X86910000Y-66860000D01*
X81390000Y-70100000D02*
X81390000Y-70670000D01*
X81390000Y-70670000D02*
X78870000Y-73190000D01*
X78870000Y-73190000D02*
X67890000Y-73250000D01*
X81390000Y-70100000D02*
X81390000Y-70770000D01*
%TO.N,Net-(C54-Pad1)*%
X73950000Y-81040000D02*
X71820000Y-81040000D01*
X71820000Y-81040000D02*
X71170000Y-81690000D01*
X67920000Y-90370000D02*
X70330000Y-90370000D01*
X72200000Y-85460000D02*
X73340000Y-84320000D01*
X72200000Y-88500000D02*
X72200000Y-85460000D01*
X70330000Y-90370000D02*
X72200000Y-88500000D01*
X73340000Y-84320000D02*
X73910000Y-84320000D01*
X73950000Y-81040000D02*
X73950000Y-84280000D01*
X73950000Y-84280000D02*
X73910000Y-84320000D01*
X76310000Y-77720000D02*
X76310000Y-79750000D01*
X75020000Y-81040000D02*
X73950000Y-81040000D01*
X76310000Y-79750000D02*
X75020000Y-81040000D01*
%TO.N,Net-(U5-AREF)*%
X143764000Y-105664000D02*
X146374000Y-105664000D01*
X146374000Y-105664000D02*
X146850000Y-106140000D01*
%TD*%
M02*
