G04 #@! TF.FileFunction,Copper,L2,Bot,Signal*
%FSLAX46Y46*%
G04 Gerber Fmt 4.6, Leading zero omitted, Abs format (unit mm)*
G04 Created by KiCad (PCBNEW 4.0.7) date 09/20/21 22:32:42*
%MOMM*%
%LPD*%
G01*
G04 APERTURE LIST*
%ADD10C,0.100000*%
%ADD11R,1.600000X1.600000*%
%ADD12O,1.600000X1.600000*%
%ADD13C,2.400000*%
%ADD14O,2.400000X2.400000*%
%ADD15O,2.000000X3.500000*%
%ADD16C,1.600000*%
%ADD17R,2.200000X2.200000*%
%ADD18O,2.200000X2.200000*%
%ADD19R,1.800000X1.800000*%
%ADD20C,1.800000*%
%ADD21R,3.000000X3.000000*%
%ADD22C,3.000000*%
%ADD23R,1.700000X1.700000*%
%ADD24O,1.700000X1.700000*%
%ADD25R,1.524000X1.524000*%
%ADD26C,1.524000*%
%ADD27C,1.520000*%
%ADD28R,1.520000X1.520000*%
%ADD29C,1.440000*%
%ADD30C,2.000000*%
%ADD31O,1.800000X1.800000*%
%ADD32O,2.400000X1.600000*%
%ADD33C,1.500000*%
%ADD34C,0.600000*%
%ADD35C,0.350000*%
%ADD36C,1.500000*%
G04 APERTURE END LIST*
D10*
D11*
X76310000Y-77720000D03*
D12*
X83930000Y-70100000D03*
X78850000Y-77720000D03*
X81390000Y-70100000D03*
X81390000Y-77720000D03*
X78850000Y-70100000D03*
X83930000Y-77720000D03*
X76310000Y-70100000D03*
D13*
X177360000Y-127410000D03*
D14*
X157040000Y-127410000D03*
D15*
X151666000Y-52578000D03*
X147716000Y-52578000D03*
X155416000Y-52578000D03*
X159116000Y-52578000D03*
D11*
X183600000Y-63800000D03*
D16*
X183600000Y-66300000D03*
X124968000Y-85852000D03*
X124968000Y-83352000D03*
D11*
X179675000Y-52800000D03*
D16*
X179675000Y-55300000D03*
X131550000Y-102775000D03*
X129050000Y-102775000D03*
X168450000Y-93140000D03*
X168450000Y-90640000D03*
X165400000Y-121590000D03*
X165400000Y-119090000D03*
X118618000Y-108966000D03*
X123618000Y-108966000D03*
X118618000Y-112268000D03*
X123618000Y-112268000D03*
X184990000Y-112850000D03*
X182490000Y-112850000D03*
X98298000Y-125476000D03*
X100798000Y-125476000D03*
X147970000Y-78120000D03*
X150470000Y-78120000D03*
D11*
X62738000Y-124206000D03*
D16*
X65238000Y-124206000D03*
D11*
X128330000Y-62030000D03*
D16*
X125830000Y-62030000D03*
D11*
X93472000Y-121920000D03*
D16*
X93472000Y-124420000D03*
X117602000Y-125984000D03*
X112602000Y-125984000D03*
X120650000Y-123698000D03*
X120650000Y-118698000D03*
X164290000Y-71570000D03*
X164290000Y-74070000D03*
X59280000Y-119630000D03*
X59280000Y-117130000D03*
X132080000Y-69088000D03*
X134580000Y-69088000D03*
D11*
X149860000Y-87376000D03*
D16*
X147360000Y-87376000D03*
D11*
X116332000Y-65786000D03*
D16*
X116332000Y-68286000D03*
X104380000Y-65270000D03*
X99380000Y-65270000D03*
X96620000Y-69350000D03*
X96620000Y-64350000D03*
X76010000Y-66640000D03*
X73510000Y-66640000D03*
X94996000Y-90678000D03*
X94996000Y-88178000D03*
X71860000Y-77420000D03*
X66860000Y-77420000D03*
X87630000Y-82296000D03*
X87630000Y-77296000D03*
X67564000Y-85344000D03*
X67564000Y-80344000D03*
X86410000Y-101880000D03*
X83910000Y-101880000D03*
X81980000Y-110980000D03*
X86980000Y-110980000D03*
D11*
X131350000Y-92570000D03*
D12*
X131350000Y-84950000D03*
D17*
X184900000Y-52730000D03*
D18*
X184900000Y-60350000D03*
D19*
X172920000Y-56410000D03*
D20*
X172920000Y-53870000D03*
D17*
X191110000Y-70070000D03*
D18*
X191110000Y-77690000D03*
D17*
X194600000Y-77620000D03*
D18*
X194600000Y-70000000D03*
D17*
X178562000Y-132588000D03*
D18*
X178562000Y-140208000D03*
D17*
X175006000Y-140208000D03*
D18*
X175006000Y-132588000D03*
D17*
X186860000Y-93820000D03*
D18*
X194480000Y-93820000D03*
D17*
X194410000Y-97180000D03*
D18*
X186790000Y-97180000D03*
D17*
X181864000Y-132842000D03*
D18*
X189484000Y-132842000D03*
D17*
X190000000Y-129300000D03*
D18*
X182380000Y-129300000D03*
D19*
X175450000Y-45710000D03*
D20*
X175450000Y-43170000D03*
D19*
X131270000Y-139000000D03*
D20*
X133810000Y-139000000D03*
D19*
X68500000Y-46280000D03*
D20*
X68500000Y-43740000D03*
D19*
X119720000Y-45000000D03*
D20*
X122260000Y-45000000D03*
D21*
X143002000Y-44196000D03*
D22*
X148082000Y-44196000D03*
D23*
X108240000Y-95190000D03*
D24*
X108240000Y-92650000D03*
X108240000Y-90110000D03*
X108240000Y-87570000D03*
D23*
X152925000Y-109050000D03*
D24*
X155465000Y-109050000D03*
X152925000Y-111590000D03*
X155465000Y-111590000D03*
X152925000Y-114130000D03*
X155465000Y-114130000D03*
D21*
X193610000Y-83050000D03*
D22*
X193610000Y-88130000D03*
D21*
X188214000Y-138430000D03*
D22*
X183134000Y-138430000D03*
D21*
X60960000Y-70866000D03*
D22*
X60960000Y-65786000D03*
D21*
X60970000Y-82700000D03*
D22*
X60970000Y-77620000D03*
D25*
X73100000Y-132410000D03*
D26*
X73100000Y-137490000D03*
D19*
X118110000Y-138938000D03*
D20*
X120650000Y-138938000D03*
D19*
X186690000Y-45720000D03*
D20*
X186690000Y-43180000D03*
D19*
X59450000Y-55175000D03*
D20*
X59450000Y-52635000D03*
D19*
X109610000Y-44650000D03*
D20*
X112150000Y-44650000D03*
D19*
X165430000Y-45710000D03*
D20*
X165430000Y-43170000D03*
D19*
X141240000Y-139000000D03*
D20*
X143780000Y-139000000D03*
D19*
X78500000Y-46280000D03*
D20*
X78500000Y-43740000D03*
D19*
X129730000Y-45000000D03*
D20*
X132270000Y-45000000D03*
D27*
X131826000Y-128270000D03*
X131826000Y-130810000D03*
D28*
X131826000Y-125730000D03*
D27*
X105465000Y-113550000D03*
X108005000Y-113550000D03*
D28*
X102925000Y-113550000D03*
D16*
X113860000Y-84380000D03*
D12*
X121480000Y-84380000D03*
D16*
X117856000Y-88900000D03*
D12*
X125476000Y-88900000D03*
D16*
X128240000Y-92590000D03*
D12*
X128240000Y-84970000D03*
D16*
X181825000Y-60275000D03*
D12*
X174205000Y-60275000D03*
D16*
X59436000Y-132334000D03*
D12*
X59436000Y-124714000D03*
D16*
X138938000Y-62484000D03*
D12*
X131318000Y-62484000D03*
D16*
X131318000Y-65786000D03*
D12*
X138938000Y-65786000D03*
D16*
X75946000Y-124714000D03*
D12*
X68326000Y-124714000D03*
D16*
X83566000Y-136906000D03*
D12*
X83566000Y-129286000D03*
D16*
X78740000Y-117602000D03*
D12*
X78740000Y-125222000D03*
D13*
X186690000Y-90170000D03*
D14*
X186690000Y-69850000D03*
D16*
X164338000Y-107188000D03*
D12*
X164338000Y-114808000D03*
D16*
X81534000Y-124206000D03*
D12*
X89154000Y-124206000D03*
D16*
X170190000Y-97690000D03*
D12*
X177810000Y-97690000D03*
D16*
X103750000Y-136970000D03*
D12*
X103750000Y-129350000D03*
D16*
X107188000Y-136906000D03*
D12*
X107188000Y-129286000D03*
D16*
X127762000Y-126492000D03*
D12*
X120142000Y-126492000D03*
D16*
X120142000Y-129794000D03*
D12*
X127762000Y-129794000D03*
D16*
X122490000Y-132800000D03*
D12*
X114870000Y-132800000D03*
D16*
X168420000Y-78820000D03*
D12*
X168420000Y-86440000D03*
D16*
X109982000Y-129540000D03*
D12*
X117602000Y-129540000D03*
D16*
X138070000Y-49150000D03*
D12*
X138070000Y-41530000D03*
D16*
X111340000Y-68700000D03*
D12*
X103720000Y-68700000D03*
D16*
X74270000Y-51920000D03*
D12*
X66650000Y-51920000D03*
D16*
X151100000Y-134990000D03*
D12*
X151100000Y-142610000D03*
D16*
X83820000Y-86106000D03*
D12*
X91440000Y-86106000D03*
D16*
X158390000Y-48250000D03*
D12*
X158390000Y-40630000D03*
D16*
X85190000Y-41300000D03*
D12*
X92810000Y-41300000D03*
D16*
X74290000Y-55170000D03*
D12*
X66670000Y-55170000D03*
D16*
X183388000Y-49276000D03*
D12*
X191008000Y-49276000D03*
D16*
X113500000Y-143000000D03*
D12*
X113500000Y-135380000D03*
D16*
X167950000Y-51520000D03*
D12*
X167950000Y-59140000D03*
D16*
X161036000Y-114808000D03*
D12*
X161036000Y-107188000D03*
D16*
X139710000Y-52120000D03*
D12*
X139710000Y-59740000D03*
D16*
X143002000Y-51562000D03*
D12*
X143002000Y-59182000D03*
D16*
X138684000Y-79502000D03*
D12*
X138684000Y-71882000D03*
D16*
X132334000Y-79502000D03*
D12*
X132334000Y-71882000D03*
D16*
X135636000Y-79502000D03*
D12*
X135636000Y-71882000D03*
D16*
X128778000Y-66548000D03*
D12*
X121158000Y-66548000D03*
D16*
X111252000Y-79502000D03*
D12*
X111252000Y-71882000D03*
D16*
X107950000Y-79502000D03*
D12*
X107950000Y-71882000D03*
D16*
X96800000Y-71800000D03*
D12*
X96800000Y-79420000D03*
D16*
X75330000Y-60910000D03*
D12*
X67710000Y-60910000D03*
D16*
X67950000Y-66050000D03*
D12*
X67950000Y-73670000D03*
D16*
X79650000Y-66050000D03*
D12*
X87270000Y-66050000D03*
D16*
X87340000Y-62700000D03*
D12*
X79720000Y-62700000D03*
D16*
X90980000Y-75550000D03*
D12*
X90980000Y-67930000D03*
D16*
X73950000Y-81040000D03*
D12*
X81570000Y-81040000D03*
D16*
X81530000Y-84320000D03*
D12*
X73910000Y-84320000D03*
D16*
X70970000Y-88010000D03*
D12*
X70970000Y-80390000D03*
D16*
X74676000Y-98044000D03*
D12*
X74676000Y-90424000D03*
D16*
X73914000Y-87630000D03*
D12*
X81534000Y-87630000D03*
D16*
X90170000Y-104140000D03*
D12*
X90170000Y-111760000D03*
D16*
X93726000Y-111760000D03*
D12*
X93726000Y-104140000D03*
D16*
X99970000Y-111560000D03*
D12*
X99970000Y-103940000D03*
D16*
X101250000Y-101250000D03*
D12*
X101250000Y-93630000D03*
D16*
X104902000Y-109220000D03*
D12*
X104902000Y-101600000D03*
D16*
X108204000Y-109220000D03*
D12*
X108204000Y-101600000D03*
D29*
X99410000Y-130310000D03*
X99410000Y-132850000D03*
X99410000Y-135390000D03*
X116332000Y-73152000D03*
X116332000Y-75692000D03*
X116332000Y-78232000D03*
X79248000Y-91948000D03*
X79248000Y-94488000D03*
X79248000Y-97028000D03*
X96340000Y-94940000D03*
X96340000Y-97480000D03*
X96340000Y-100020000D03*
D30*
X122936000Y-92020000D03*
X122936000Y-96520000D03*
X116436000Y-92020000D03*
X116436000Y-96520000D03*
D11*
X136144000Y-87884000D03*
D12*
X143764000Y-120904000D03*
X136144000Y-90424000D03*
X143764000Y-118364000D03*
X136144000Y-92964000D03*
X143764000Y-115824000D03*
X136144000Y-95504000D03*
X143764000Y-113284000D03*
X136144000Y-98044000D03*
X143764000Y-110744000D03*
X136144000Y-100584000D03*
X143764000Y-108204000D03*
X136144000Y-103124000D03*
X143764000Y-105664000D03*
X136144000Y-105664000D03*
X143764000Y-103124000D03*
X136144000Y-108204000D03*
X143764000Y-100584000D03*
X136144000Y-110744000D03*
X143764000Y-98044000D03*
X136144000Y-113284000D03*
X143764000Y-95504000D03*
X136144000Y-115824000D03*
X143764000Y-92964000D03*
X136144000Y-118364000D03*
X143764000Y-90424000D03*
X136144000Y-120904000D03*
X143764000Y-87884000D03*
D19*
X194450000Y-53600000D03*
D31*
X194450000Y-56140000D03*
X194450000Y-58680000D03*
D11*
X176940000Y-121620000D03*
D12*
X169320000Y-103840000D03*
X176940000Y-119080000D03*
X169320000Y-106380000D03*
X176940000Y-116540000D03*
X169320000Y-108920000D03*
X176940000Y-114000000D03*
X169320000Y-111460000D03*
X176940000Y-111460000D03*
X169320000Y-114000000D03*
X176940000Y-108920000D03*
X169320000Y-116540000D03*
X176940000Y-106380000D03*
X169320000Y-119080000D03*
X176940000Y-103840000D03*
X169320000Y-121620000D03*
D32*
X189050000Y-104490000D03*
X194130000Y-105760000D03*
X189050000Y-107030000D03*
X194130000Y-108300000D03*
X189050000Y-109570000D03*
X194130000Y-110840000D03*
X189050000Y-112110000D03*
X194130000Y-113380000D03*
X189050000Y-114650000D03*
X194130000Y-115920000D03*
X189050000Y-117190000D03*
X194130000Y-118460000D03*
X189050000Y-119730000D03*
X194130000Y-121000000D03*
X189050000Y-122270000D03*
D11*
X179502000Y-92960000D03*
D12*
X171882000Y-75180000D03*
X179502000Y-90420000D03*
X171882000Y-77720000D03*
X179502000Y-87880000D03*
X171882000Y-80260000D03*
X179502000Y-85340000D03*
X171882000Y-82800000D03*
X179502000Y-82800000D03*
X171882000Y-85340000D03*
X179502000Y-80260000D03*
X171882000Y-87880000D03*
X179502000Y-77720000D03*
X171882000Y-90420000D03*
X179502000Y-75180000D03*
X171882000Y-92960000D03*
D27*
X86310000Y-53340000D03*
X83770000Y-53340000D03*
D28*
X88850000Y-53340000D03*
D11*
X164210000Y-60690000D03*
D12*
X146430000Y-68310000D03*
X161670000Y-60690000D03*
X148970000Y-68310000D03*
X159130000Y-60690000D03*
X151510000Y-68310000D03*
X156590000Y-60690000D03*
X154050000Y-68310000D03*
X154050000Y-60690000D03*
X156590000Y-68310000D03*
X151510000Y-60690000D03*
X159130000Y-68310000D03*
X148970000Y-60690000D03*
X161670000Y-68310000D03*
X146430000Y-60690000D03*
X164210000Y-68310000D03*
D11*
X154240000Y-79830000D03*
D12*
X161860000Y-97610000D03*
X154240000Y-82370000D03*
X161860000Y-95070000D03*
X154240000Y-84910000D03*
X161860000Y-92530000D03*
X154240000Y-87450000D03*
X161860000Y-89990000D03*
X154240000Y-89990000D03*
X161860000Y-87450000D03*
X154240000Y-92530000D03*
X161860000Y-84910000D03*
X154240000Y-95070000D03*
X161860000Y-82370000D03*
X154240000Y-97610000D03*
X161860000Y-79830000D03*
D11*
X99820000Y-61040000D03*
D12*
X117600000Y-53420000D03*
X102360000Y-61040000D03*
X115060000Y-53420000D03*
X104900000Y-61040000D03*
X112520000Y-53420000D03*
X107440000Y-61040000D03*
X109980000Y-53420000D03*
X109980000Y-61040000D03*
X107440000Y-53420000D03*
X112520000Y-61040000D03*
X104900000Y-53420000D03*
X115060000Y-61040000D03*
X102360000Y-53420000D03*
X117600000Y-61040000D03*
X99820000Y-53420000D03*
D33*
X127762000Y-112776000D03*
X127762000Y-107896000D03*
D16*
X185070000Y-107260000D03*
X182570000Y-107260000D03*
D11*
X190754000Y-64770000D03*
D16*
X188254000Y-64770000D03*
X96310000Y-53230000D03*
X93810000Y-53230000D03*
D23*
X151400000Y-102800000D03*
D24*
X153940000Y-102800000D03*
X156480000Y-102800000D03*
X159020000Y-102800000D03*
X161560000Y-102800000D03*
X164100000Y-102800000D03*
D23*
X145288000Y-74168000D03*
D24*
X147828000Y-74168000D03*
X150368000Y-74168000D03*
X152908000Y-74168000D03*
X155448000Y-74168000D03*
X157988000Y-74168000D03*
D23*
X102220000Y-46630000D03*
D24*
X99680000Y-46630000D03*
X97140000Y-46630000D03*
X94600000Y-46630000D03*
X92060000Y-46630000D03*
X89520000Y-46630000D03*
D17*
X117348000Y-122428000D03*
D18*
X109728000Y-122428000D03*
D17*
X117348000Y-118872000D03*
D18*
X109728000Y-118872000D03*
D17*
X100600000Y-71600000D03*
D18*
X100600000Y-79220000D03*
D17*
X104394000Y-79502000D03*
D18*
X104394000Y-71882000D03*
D17*
X79210000Y-103170000D03*
D18*
X71590000Y-103170000D03*
D17*
X86868000Y-107188000D03*
D18*
X79248000Y-107188000D03*
D11*
X86868000Y-129032000D03*
D12*
X94488000Y-136652000D03*
X86868000Y-131572000D03*
X94488000Y-134112000D03*
X86868000Y-134112000D03*
X94488000Y-131572000D03*
X86868000Y-136652000D03*
X94488000Y-129032000D03*
D11*
X121158000Y-71882000D03*
D12*
X128778000Y-79502000D03*
X121158000Y-74422000D03*
X128778000Y-76962000D03*
X121158000Y-76962000D03*
X128778000Y-74422000D03*
X121158000Y-79502000D03*
X128778000Y-71882000D03*
D11*
X83820000Y-90932000D03*
D12*
X91440000Y-98552000D03*
X83820000Y-93472000D03*
X91440000Y-96012000D03*
X83820000Y-96012000D03*
X91440000Y-93472000D03*
X83820000Y-98552000D03*
X91440000Y-90932000D03*
D16*
X109982000Y-139954000D03*
X109982000Y-142454000D03*
X155260000Y-42370000D03*
X155260000Y-44870000D03*
X77000000Y-53640000D03*
X79500000Y-53640000D03*
X87700000Y-70050000D03*
X87700000Y-72550000D03*
X94742000Y-140716000D03*
X97242000Y-140716000D03*
X133096000Y-95504000D03*
D12*
X125476000Y-95504000D03*
D34*
X138800000Y-96600000D03*
X141430000Y-106940000D03*
X143180000Y-72350000D03*
X139780000Y-111270000D03*
X183030000Y-121090000D03*
X100220000Y-56470000D03*
X171410000Y-118130000D03*
X172560000Y-68170000D03*
X175870000Y-93880000D03*
X140420000Y-89120000D03*
X140240000Y-95980000D03*
X171360000Y-102710000D03*
X115440000Y-44920000D03*
X111330000Y-57400000D03*
X109550000Y-47930000D03*
X108690000Y-57700000D03*
X153416000Y-54356000D03*
X151100000Y-62560000D03*
X147100000Y-99170000D03*
X139930000Y-101560000D03*
X152290000Y-55600000D03*
X153310000Y-63740000D03*
X184670000Y-120320000D03*
X186330000Y-113970000D03*
X186500000Y-116320000D03*
X186120000Y-119330000D03*
X169290000Y-76220000D03*
X167940000Y-74050000D03*
X167220000Y-71410000D03*
X171020000Y-73620000D03*
X152146000Y-91186000D03*
X151384000Y-82804000D03*
X157960000Y-91440000D03*
D35*
X128240000Y-84970000D02*
X128240000Y-85390000D01*
X128240000Y-85390000D02*
X127778000Y-85852000D01*
X127778000Y-85852000D02*
X124968000Y-85852000D01*
X122936000Y-92020000D02*
X122936000Y-87884000D01*
X122936000Y-87884000D02*
X124968000Y-85852000D01*
X136144000Y-87884000D02*
X137584000Y-87884000D01*
X138800000Y-89100000D02*
X138800000Y-96600000D01*
X137584000Y-87884000D02*
X138800000Y-89100000D01*
X149955000Y-117100000D02*
X152925000Y-114130000D01*
X141850000Y-117100000D02*
X149955000Y-117100000D01*
X141380000Y-116410000D02*
X141850000Y-117100000D01*
X141410000Y-106960000D02*
X141380000Y-116410000D01*
X141430000Y-106940000D02*
X141410000Y-106960000D01*
X122936000Y-92020000D02*
X116436000Y-92020000D01*
X122936000Y-92020000D02*
X122936000Y-91820000D01*
X131350000Y-84950000D02*
X133210000Y-84950000D01*
X133210000Y-84950000D02*
X136144000Y-87884000D01*
X128240000Y-84970000D02*
X131330000Y-84970000D01*
X131330000Y-84970000D02*
X131350000Y-84950000D01*
X127880000Y-85330000D02*
X128240000Y-84970000D01*
X124968000Y-83352000D02*
X123568000Y-83352000D01*
X113850000Y-87570000D02*
X108240000Y-87570000D01*
X114530000Y-86890000D02*
X113850000Y-87570000D01*
X121630000Y-86890000D02*
X114530000Y-86890000D01*
X122820000Y-85700000D02*
X121630000Y-86890000D01*
X122820000Y-84100000D02*
X122820000Y-85700000D01*
X123568000Y-83352000D02*
X122820000Y-84100000D01*
X124718000Y-83102000D02*
X124968000Y-83352000D01*
X194130000Y-108300000D02*
X186110000Y-108300000D01*
X186110000Y-108300000D02*
X185070000Y-107260000D01*
D36*
X159116000Y-52578000D02*
X164338000Y-52832000D01*
X177965000Y-51090000D02*
X179675000Y-52800000D01*
X171760000Y-51090000D02*
X177965000Y-51090000D01*
X169240000Y-53610000D02*
X171760000Y-51090000D01*
X166770000Y-53610000D02*
X169240000Y-53610000D01*
X164338000Y-52832000D02*
X166770000Y-53610000D01*
X155416000Y-52578000D02*
X159116000Y-52578000D01*
X184900000Y-52730000D02*
X179745000Y-52730000D01*
X179745000Y-52730000D02*
X179675000Y-52800000D01*
X189794000Y-53594000D02*
X185764000Y-53594000D01*
X185764000Y-53594000D02*
X184900000Y-52730000D01*
X197060000Y-71575000D02*
X197060000Y-54635000D01*
X196019000Y-53594000D02*
X194450000Y-53600000D01*
X197060000Y-54635000D02*
X196019000Y-53594000D01*
X189794000Y-53594000D02*
X194450000Y-53600000D01*
X197060000Y-125984000D02*
X197060000Y-126282000D01*
X191770000Y-131572000D02*
X191770000Y-140970000D01*
X197060000Y-126282000D02*
X191770000Y-131572000D01*
X178562000Y-132588000D02*
X178562000Y-133096000D01*
X178562000Y-133096000D02*
X176530000Y-135636000D01*
X176530000Y-135636000D02*
X172720000Y-135636000D01*
X172720000Y-135636000D02*
X172466000Y-135890000D01*
X172466000Y-135890000D02*
X172466000Y-142240000D01*
X172466000Y-142240000D02*
X173228000Y-143002000D01*
X173228000Y-143002000D02*
X189738000Y-143002000D01*
X189738000Y-143002000D02*
X191770000Y-140970000D01*
X197060000Y-125984000D02*
X197060000Y-106910000D01*
X181864000Y-132842000D02*
X178774000Y-132800000D01*
X178774000Y-132800000D02*
X178562000Y-132588000D01*
X194130000Y-108300000D02*
X196250000Y-108300000D01*
X197060000Y-67840000D02*
X194470000Y-64770000D01*
X197060000Y-106910000D02*
X197060000Y-71575000D01*
X197060000Y-71575000D02*
X197060000Y-67840000D01*
X196250000Y-108300000D02*
X197060000Y-106910000D01*
X191110000Y-70070000D02*
X191262000Y-66294000D01*
X191262000Y-66294000D02*
X192786000Y-64770000D01*
X194450000Y-53600000D02*
X195212000Y-53600000D01*
X194470000Y-64770000D02*
X192786000Y-64770000D01*
X192786000Y-64770000D02*
X190754000Y-64770000D01*
D35*
X185070000Y-107260000D02*
X185470000Y-107260000D01*
X194120000Y-108310000D02*
X194130000Y-108300000D01*
D36*
X186944000Y-93726000D02*
X188214000Y-93726000D01*
X188214000Y-73152000D02*
X191110000Y-70070000D01*
X188214000Y-86106000D02*
X188214000Y-73152000D01*
X188920000Y-87062000D02*
X188214000Y-86106000D01*
X188920000Y-92650000D02*
X188920000Y-87062000D01*
X188214000Y-93726000D02*
X188920000Y-92650000D01*
D35*
X68500000Y-43740000D02*
X67810000Y-43740000D01*
X67810000Y-43740000D02*
X65070000Y-46480000D01*
X114870000Y-132800000D02*
X103500000Y-132800000D01*
X93618000Y-129032000D02*
X94488000Y-129032000D01*
X92480000Y-130170000D02*
X93618000Y-129032000D01*
X92480000Y-131960000D02*
X92480000Y-130170000D01*
X93350000Y-132830000D02*
X92480000Y-131960000D01*
X96970000Y-132830000D02*
X93350000Y-132830000D01*
X98240000Y-131560000D02*
X96970000Y-132830000D01*
X102260000Y-131560000D02*
X98240000Y-131560000D01*
X103500000Y-132800000D02*
X102260000Y-131560000D01*
X120650000Y-138938000D02*
X120650000Y-136160000D01*
X117380000Y-132890000D02*
X114960000Y-132890000D01*
X120650000Y-136160000D02*
X117380000Y-132890000D01*
X114960000Y-132890000D02*
X114870000Y-132800000D01*
X77000000Y-53640000D02*
X73830000Y-53640000D01*
X72580000Y-52390000D02*
X72580000Y-49480000D01*
X73830000Y-53640000D02*
X72580000Y-52390000D01*
X73350000Y-47040000D02*
X73350000Y-48710000D01*
X73350000Y-47040000D02*
X73350000Y-44575000D01*
X73350000Y-44575000D02*
X76025000Y-41900000D01*
X76025000Y-41900000D02*
X79775000Y-41900000D01*
X79775000Y-41900000D02*
X82225000Y-44350000D01*
X82225000Y-44350000D02*
X82225000Y-54025000D01*
X82225000Y-54025000D02*
X83150000Y-54950000D01*
X83150000Y-54950000D02*
X87240000Y-54950000D01*
X87240000Y-54950000D02*
X88850000Y-53340000D01*
X73350000Y-48710000D02*
X72580000Y-49480000D01*
X70140000Y-51920000D02*
X66650000Y-51920000D01*
X72580000Y-49480000D02*
X70140000Y-51920000D01*
X66650000Y-51920000D02*
X60165000Y-51920000D01*
X60165000Y-51920000D02*
X59450000Y-52635000D01*
X66650000Y-51920000D02*
X66750000Y-51920000D01*
X66692500Y-51877500D02*
X66650000Y-51920000D01*
X59360000Y-122174000D02*
X59360000Y-119710000D01*
X59360000Y-119710000D02*
X59280000Y-119630000D01*
X169320000Y-121620000D02*
X165430000Y-121620000D01*
X165430000Y-121620000D02*
X165400000Y-121590000D01*
X165695000Y-114035000D02*
X165695000Y-116235000D01*
X167530000Y-119830000D02*
X169320000Y-121620000D01*
X167530000Y-118070000D02*
X167530000Y-119830000D01*
X165695000Y-116235000D02*
X167530000Y-118070000D01*
X147970000Y-78120000D02*
X147970000Y-76470000D01*
X147970000Y-76470000D02*
X148430000Y-76010000D01*
X91440000Y-90932000D02*
X90958000Y-90932000D01*
X90958000Y-90932000D02*
X89570000Y-92320000D01*
X84320000Y-121500000D02*
X83646000Y-122174000D01*
X84320000Y-104860000D02*
X84320000Y-121500000D01*
X84200000Y-104740000D02*
X84320000Y-104860000D01*
X86710000Y-104740000D02*
X84200000Y-104740000D01*
X87970000Y-103480000D02*
X86710000Y-104740000D01*
X87970000Y-101770000D02*
X87970000Y-103480000D01*
X89570000Y-100170000D02*
X87970000Y-101770000D01*
X89570000Y-92320000D02*
X89570000Y-100170000D01*
X59436000Y-132334000D02*
X59182000Y-132334000D01*
X59182000Y-132334000D02*
X57912000Y-131064000D01*
X57912000Y-131064000D02*
X57912000Y-123190000D01*
X57912000Y-123190000D02*
X58928000Y-122174000D01*
X58928000Y-122174000D02*
X59360000Y-122174000D01*
X59360000Y-122174000D02*
X83646000Y-122174000D01*
X83646000Y-122174000D02*
X88900000Y-122174000D01*
X88900000Y-122174000D02*
X90932000Y-120142000D01*
X90932000Y-120142000D02*
X96520000Y-120142000D01*
X96520000Y-120142000D02*
X98298000Y-121920000D01*
X98298000Y-121920000D02*
X98298000Y-125476000D01*
X98298000Y-125476000D02*
X98044000Y-125476000D01*
X98044000Y-125476000D02*
X94488000Y-129032000D01*
X136144000Y-103124000D02*
X131924000Y-103149000D01*
X131924000Y-103149000D02*
X131550000Y-102775000D01*
X108204000Y-101600000D02*
X107850000Y-101600000D01*
X107850000Y-101600000D02*
X106400000Y-100150000D01*
X106400000Y-100150000D02*
X104950000Y-100150000D01*
X104950000Y-100150000D02*
X102850000Y-98050000D01*
X102850000Y-98050000D02*
X102850000Y-91750000D01*
X102850000Y-91750000D02*
X101778000Y-90678000D01*
X101778000Y-90678000D02*
X94996000Y-90678000D01*
X91440000Y-90932000D02*
X91440000Y-90810000D01*
X91440000Y-90810000D02*
X93180000Y-89070000D01*
X92460000Y-81470000D02*
X92456000Y-81470000D01*
X92460000Y-83460000D02*
X92460000Y-81470000D01*
X93180000Y-84180000D02*
X92460000Y-83460000D01*
X93180000Y-89070000D02*
X93180000Y-84180000D01*
X94996000Y-90678000D02*
X91694000Y-90678000D01*
X91694000Y-90678000D02*
X91440000Y-90932000D01*
X91948000Y-90424000D02*
X91440000Y-90932000D01*
X76010000Y-63690000D02*
X76010000Y-66640000D01*
X79502000Y-60198000D02*
X76010000Y-63690000D01*
X88900000Y-60198000D02*
X79502000Y-60198000D01*
X92456000Y-63754000D02*
X88900000Y-60198000D01*
X92456000Y-82042000D02*
X92456000Y-81470000D01*
X92456000Y-81470000D02*
X92456000Y-63754000D01*
X76010000Y-66640000D02*
X76010000Y-69800000D01*
X76010000Y-69800000D02*
X76310000Y-70100000D01*
X158390000Y-40630000D02*
X156990000Y-40640000D01*
X156990000Y-40640000D02*
X155260000Y-42370000D01*
X158390000Y-40630000D02*
X172720000Y-40640000D01*
X172720000Y-40640000D02*
X175450000Y-43170000D01*
X112150000Y-44650000D02*
X112150000Y-45010000D01*
X112150000Y-45010000D02*
X113600000Y-46460000D01*
X119780000Y-41550000D02*
X125990000Y-41550000D01*
X117600000Y-43730000D02*
X119780000Y-41550000D01*
X117600000Y-45150000D02*
X117600000Y-43730000D01*
X116290000Y-46460000D02*
X117600000Y-45150000D01*
X113600000Y-46460000D02*
X116290000Y-46460000D01*
X155260000Y-42370000D02*
X154750000Y-42370000D01*
X154750000Y-42370000D02*
X153910000Y-41530000D01*
X153910000Y-41530000D02*
X138070000Y-41530000D01*
X175450000Y-43170000D02*
X175450000Y-42662000D01*
X186690000Y-43180000D02*
X175450000Y-43170000D01*
X155448000Y-74168000D02*
X155448000Y-74602000D01*
X155448000Y-74602000D02*
X154040000Y-76010000D01*
X143180000Y-75180000D02*
X143180000Y-72350000D01*
X144010000Y-76010000D02*
X143180000Y-75180000D01*
X154040000Y-76010000D02*
X148430000Y-76010000D01*
X148430000Y-76010000D02*
X144010000Y-76010000D01*
X123698000Y-142620000D02*
X117474000Y-142620000D01*
X114808000Y-139954000D02*
X109982000Y-139954000D01*
X117474000Y-142620000D02*
X114808000Y-139954000D01*
X136144000Y-103124000D02*
X136144000Y-103244000D01*
X151100000Y-142610000D02*
X169380000Y-142620000D01*
X162500000Y-123200000D02*
X162500000Y-113240000D01*
X170200000Y-130900000D02*
X162500000Y-123200000D01*
X170200000Y-141800000D02*
X170200000Y-130900000D01*
X169380000Y-142620000D02*
X170200000Y-141800000D01*
X138700000Y-142620000D02*
X123698000Y-142620000D01*
X123698000Y-142620000D02*
X123160000Y-142620000D01*
X123160000Y-142620000D02*
X120650000Y-138938000D01*
X165770000Y-114110000D02*
X165695000Y-114035000D01*
X165695000Y-114035000D02*
X164900000Y-113240000D01*
X164900000Y-113240000D02*
X162500000Y-113240000D01*
X158000000Y-114610000D02*
X158000000Y-116630000D01*
X155420000Y-119210000D02*
X158000000Y-116630000D01*
X139780000Y-120460000D02*
X139780000Y-111270000D01*
X141620000Y-122300000D02*
X139780000Y-120460000D01*
X145320000Y-122300000D02*
X141620000Y-122300000D01*
X145920000Y-121700000D02*
X145320000Y-122300000D01*
X145920000Y-120050000D02*
X145920000Y-121700000D01*
X146760000Y-119210000D02*
X145920000Y-120050000D01*
X147710000Y-119210000D02*
X146760000Y-119210000D01*
X147710000Y-119210000D02*
X155420000Y-119210000D01*
X162500000Y-113240000D02*
X159370000Y-113240000D01*
X159370000Y-113240000D02*
X158000000Y-114610000D01*
X189050000Y-114650000D02*
X185290000Y-114650000D01*
X184990000Y-114350000D02*
X184990000Y-112850000D01*
X185290000Y-114650000D02*
X184990000Y-114350000D01*
X181160000Y-121080000D02*
X183030000Y-121090000D01*
X178450000Y-123790000D02*
X181160000Y-121080000D01*
X170540000Y-123790000D02*
X178450000Y-123790000D01*
X169320000Y-122570000D02*
X170540000Y-123790000D01*
X169320000Y-121620000D02*
X169320000Y-122570000D01*
X133810000Y-139000000D02*
X133700000Y-139000000D01*
X151100000Y-142610000D02*
X138700000Y-142620000D01*
X138700000Y-142620000D02*
X138590000Y-142620000D01*
X134970000Y-139000000D02*
X133810000Y-139000000D01*
X138590000Y-142620000D02*
X134970000Y-139000000D01*
X112150000Y-44650000D02*
X111600000Y-44650000D01*
X122260000Y-44220000D02*
X122260000Y-45000000D01*
X138070000Y-41530000D02*
X125990000Y-41550000D01*
X125990000Y-41550000D02*
X122260000Y-45000000D01*
X88850000Y-53340000D02*
X88850000Y-52460000D01*
X88850000Y-52460000D02*
X89990000Y-51320000D01*
X89990000Y-51320000D02*
X95360000Y-51320000D01*
X95360000Y-51320000D02*
X96310000Y-52270000D01*
X96310000Y-52270000D02*
X96310000Y-53230000D01*
X65070000Y-46480000D02*
X65070000Y-49480000D01*
X65070000Y-49480000D02*
X66650000Y-51920000D01*
X99820000Y-53420000D02*
X99820000Y-52160000D01*
X92990000Y-48230000D02*
X92060000Y-47300000D01*
X95890000Y-48230000D02*
X92990000Y-48230000D01*
X99820000Y-52160000D02*
X95890000Y-48230000D01*
X92060000Y-47300000D02*
X92060000Y-46630000D01*
X131080000Y-52650000D02*
X138938000Y-62484000D01*
X122060000Y-52630000D02*
X131080000Y-52650000D01*
X118690000Y-56380000D02*
X122060000Y-52630000D01*
X100310000Y-56380000D02*
X118690000Y-56380000D01*
X100220000Y-56470000D02*
X100310000Y-56380000D01*
X138938000Y-62484000D02*
X138534000Y-62484000D01*
X99820000Y-53420000D02*
X96500000Y-53420000D01*
X96500000Y-53420000D02*
X96310000Y-53230000D01*
X168450000Y-93140000D02*
X168450000Y-96730000D01*
X161650000Y-101440000D02*
X161560000Y-102800000D01*
X162510000Y-100580000D02*
X161650000Y-101440000D01*
X164600000Y-100580000D02*
X162510000Y-100580000D01*
X168450000Y-96730000D02*
X164600000Y-100580000D01*
X169320000Y-121620000D02*
X169320000Y-121930000D01*
X177620000Y-94490000D02*
X176860000Y-94490000D01*
X172220000Y-118130000D02*
X171410000Y-118130000D01*
X173400000Y-116950000D02*
X172220000Y-118130000D01*
X173400000Y-106730000D02*
X173400000Y-116950000D01*
X175350000Y-104780000D02*
X173400000Y-106730000D01*
X175350000Y-96000000D02*
X175350000Y-104780000D01*
X176860000Y-94490000D02*
X175350000Y-96000000D01*
X155465000Y-109050000D02*
X155465000Y-108445000D01*
X155465000Y-108445000D02*
X154410000Y-107390000D01*
X150146000Y-108204000D02*
X143764000Y-108204000D01*
X150960000Y-107390000D02*
X150146000Y-108204000D01*
X154410000Y-107390000D02*
X150960000Y-107390000D01*
X155465000Y-109050000D02*
X155465000Y-108615000D01*
X122260000Y-44460000D02*
X122260000Y-45000000D01*
X138280000Y-41320000D02*
X138070000Y-41530000D01*
X132080000Y-69088000D02*
X132080000Y-68326000D01*
X132080000Y-68326000D02*
X134620000Y-65786000D01*
X136652000Y-62484000D02*
X138938000Y-62484000D01*
X134620000Y-64516000D02*
X136652000Y-62484000D01*
X134620000Y-65786000D02*
X134620000Y-65460000D01*
X134620000Y-65460000D02*
X134620000Y-64516000D01*
X132080000Y-69088000D02*
X131572000Y-69088000D01*
X131572000Y-69088000D02*
X128778000Y-71882000D01*
X182600000Y-63550000D02*
X183600000Y-63800000D01*
X181530000Y-64620000D02*
X182600000Y-63550000D01*
X181530000Y-67410000D02*
X181530000Y-64620000D01*
X180650000Y-68290000D02*
X181530000Y-67410000D01*
X172680000Y-68290000D02*
X180650000Y-68290000D01*
X172560000Y-68170000D02*
X172680000Y-68290000D01*
X184510000Y-63550000D02*
X183600000Y-63800000D01*
X177620000Y-94490000D02*
X180220000Y-94490000D01*
X180220000Y-94490000D02*
X182780000Y-91930000D01*
X182780000Y-91930000D02*
X182780000Y-91290000D01*
X182780000Y-91290000D02*
X186640000Y-87430000D01*
X186640000Y-87430000D02*
X186640000Y-72560000D01*
X186640000Y-72560000D02*
X188900000Y-70300000D01*
X188900000Y-70300000D02*
X188900000Y-68810000D01*
X188900000Y-68810000D02*
X185740000Y-65650000D01*
X185740000Y-65650000D02*
X185740000Y-64780000D01*
X185740000Y-64780000D02*
X184510000Y-63550000D01*
X176320000Y-94490000D02*
X177620000Y-94490000D01*
X175870000Y-93880000D02*
X176320000Y-94490000D01*
X184900000Y-60350000D02*
X184900000Y-60060000D01*
X184900000Y-60060000D02*
X182370000Y-57530000D01*
X182370000Y-57530000D02*
X177670000Y-57530000D01*
X177670000Y-57530000D02*
X174010000Y-53870000D01*
X174010000Y-53870000D02*
X172920000Y-53870000D01*
X168450000Y-93140000D02*
X167930000Y-93140000D01*
D36*
X184900000Y-60350000D02*
X184900000Y-62180000D01*
X184900000Y-62180000D02*
X183600000Y-63800000D01*
X194450000Y-58680000D02*
X193688000Y-58680000D01*
X193688000Y-58680000D02*
X191110000Y-60350000D01*
X191110000Y-60350000D02*
X184900000Y-60350000D01*
D35*
X169320000Y-121620000D02*
X169990000Y-121620000D01*
X168710000Y-92960000D02*
X168530000Y-93140000D01*
X131350000Y-92570000D02*
X128260000Y-92570000D01*
X128260000Y-92570000D02*
X128240000Y-92590000D01*
X131350000Y-92570000D02*
X131880000Y-92570000D01*
X136856000Y-103124000D02*
X136144000Y-103124000D01*
X135890000Y-102870000D02*
X136144000Y-103124000D01*
X127762000Y-107896000D02*
X124688000Y-107896000D01*
X124688000Y-107896000D02*
X123618000Y-108966000D01*
X136144000Y-108204000D02*
X128070000Y-108204000D01*
X128070000Y-108204000D02*
X127762000Y-107896000D01*
X127762000Y-112776000D02*
X124126000Y-112776000D01*
X124126000Y-112776000D02*
X123618000Y-112268000D01*
X136144000Y-110744000D02*
X129794000Y-110744000D01*
X129794000Y-110744000D02*
X127762000Y-112776000D01*
X62738000Y-124206000D02*
X59944000Y-124206000D01*
X59944000Y-124206000D02*
X59436000Y-124714000D01*
X73100000Y-137490000D02*
X72212000Y-137490000D01*
X72212000Y-137490000D02*
X59436000Y-124714000D01*
X73100000Y-137490000D02*
X73100000Y-137616000D01*
X68326000Y-124714000D02*
X65746000Y-124714000D01*
X65746000Y-124714000D02*
X65238000Y-124206000D01*
X83820000Y-96012000D02*
X83820000Y-96520000D01*
X83820000Y-96520000D02*
X80264000Y-100076000D01*
X90424000Y-140970000D02*
X90424000Y-135636000D01*
X88392000Y-143002000D02*
X90424000Y-140970000D01*
X66294000Y-143002000D02*
X88392000Y-143002000D01*
X64770000Y-141478000D02*
X66294000Y-143002000D01*
X64770000Y-135890000D02*
X64770000Y-141478000D01*
X63754000Y-134874000D02*
X64770000Y-135890000D01*
X59690000Y-134874000D02*
X63754000Y-134874000D01*
X57150000Y-132334000D02*
X59690000Y-134874000D01*
X57150000Y-104902000D02*
X57150000Y-132334000D01*
X61976000Y-100076000D02*
X57150000Y-104902000D01*
X80264000Y-100076000D02*
X61976000Y-100076000D01*
X94488000Y-136652000D02*
X91440000Y-136652000D01*
X88900000Y-134112000D02*
X86868000Y-134112000D01*
X91440000Y-136652000D02*
X90424000Y-135636000D01*
X90424000Y-135636000D02*
X88900000Y-134112000D01*
X94488000Y-136652000D02*
X94488000Y-140462000D01*
X94488000Y-140462000D02*
X94742000Y-140716000D01*
X83820000Y-96012000D02*
X85090000Y-96012000D01*
X82804000Y-79756000D02*
X81390000Y-78342000D01*
X88392000Y-79756000D02*
X82804000Y-79756000D01*
X89662000Y-81026000D02*
X88392000Y-79756000D01*
X89662000Y-83566000D02*
X89662000Y-81026000D01*
X88138000Y-85090000D02*
X89662000Y-83566000D01*
X88138000Y-92964000D02*
X88138000Y-85090000D01*
X85090000Y-96012000D02*
X88138000Y-92964000D01*
X81390000Y-78342000D02*
X81390000Y-77720000D01*
X83820000Y-95758000D02*
X83820000Y-96012000D01*
X81390000Y-77720000D02*
X81390000Y-74260000D01*
X81390000Y-74260000D02*
X83030000Y-72620000D01*
X87700000Y-70020000D02*
X87700000Y-70300000D01*
X87700000Y-70300000D02*
X85380000Y-72620000D01*
X123780000Y-63260000D02*
X125970000Y-65450000D01*
X107780000Y-63260000D02*
X123780000Y-63260000D01*
X106130000Y-61610000D02*
X107780000Y-63260000D01*
X106130000Y-59970000D02*
X106130000Y-61610000D01*
X105750000Y-59590000D02*
X106130000Y-59970000D01*
X104390000Y-59590000D02*
X105750000Y-59590000D01*
X103630000Y-60350000D02*
X104390000Y-59590000D01*
X103630000Y-62300000D02*
X103630000Y-60350000D01*
X102840000Y-63090000D02*
X103630000Y-62300000D01*
X97840000Y-63090000D02*
X102840000Y-63090000D01*
X92700000Y-57950000D02*
X97840000Y-63090000D01*
X64480000Y-57950000D02*
X92700000Y-57950000D01*
X63760000Y-58670000D02*
X64480000Y-57950000D01*
X63760000Y-59540000D02*
X63760000Y-58670000D01*
X60380000Y-62920000D02*
X63760000Y-59540000D01*
X59680000Y-62920000D02*
X60380000Y-62920000D01*
X58060000Y-64540000D02*
X59680000Y-62920000D01*
X58060000Y-73180000D02*
X58060000Y-64540000D01*
X58700000Y-73820000D02*
X58060000Y-73180000D01*
X61630000Y-73820000D02*
X58700000Y-73820000D01*
X63980000Y-71470000D02*
X61630000Y-73820000D01*
X63980000Y-70610000D02*
X63980000Y-71470000D01*
X66700000Y-67890000D02*
X63980000Y-70610000D01*
X68930000Y-67890000D02*
X66700000Y-67890000D01*
X73660000Y-72620000D02*
X68930000Y-67890000D01*
X85380000Y-72620000D02*
X83030000Y-72620000D01*
X83030000Y-72620000D02*
X73660000Y-72620000D01*
X87700000Y-70020000D02*
X84010000Y-70020000D01*
X84010000Y-70020000D02*
X83930000Y-70100000D01*
X128330000Y-62030000D02*
X128330000Y-63090000D01*
X125350000Y-66070000D02*
X125350000Y-76962000D01*
X128330000Y-63090000D02*
X125970000Y-65450000D01*
X125970000Y-65450000D02*
X125350000Y-66070000D01*
X131318000Y-62484000D02*
X128784000Y-62484000D01*
X128784000Y-62484000D02*
X128330000Y-62030000D01*
X122936000Y-76962000D02*
X125350000Y-76962000D01*
X122936000Y-76962000D02*
X121158000Y-76962000D01*
X125350000Y-76962000D02*
X125222000Y-76962000D01*
X125603000Y-77089000D02*
X128016000Y-79502000D01*
X125476000Y-76962000D02*
X125603000Y-77089000D01*
X125222000Y-76962000D02*
X125476000Y-76962000D01*
X128016000Y-79502000D02*
X128778000Y-79502000D01*
X131318000Y-62484000D02*
X131318000Y-65786000D01*
X93472000Y-121920000D02*
X91440000Y-121920000D01*
X91440000Y-121920000D02*
X89154000Y-124206000D01*
X93472000Y-124420000D02*
X92310000Y-124420000D01*
X92332000Y-134112000D02*
X94488000Y-134112000D01*
X91200000Y-132980000D02*
X92332000Y-134112000D01*
X91200000Y-125530000D02*
X91200000Y-132980000D01*
X92310000Y-124420000D02*
X91200000Y-125530000D01*
X99410000Y-135390000D02*
X95766000Y-135390000D01*
X95766000Y-135390000D02*
X94488000Y-134112000D01*
X99410000Y-135390000D02*
X102170000Y-135390000D01*
X102170000Y-135390000D02*
X103750000Y-136970000D01*
X99410000Y-132850000D02*
X99410000Y-135390000D01*
X117348000Y-122428000D02*
X116586000Y-122428000D01*
X116586000Y-122428000D02*
X113030000Y-118872000D01*
X113030000Y-118872000D02*
X109728000Y-118872000D01*
X117602000Y-125984000D02*
X117602000Y-122682000D01*
X117602000Y-122682000D02*
X117348000Y-122428000D01*
X109982000Y-129540000D02*
X107442000Y-129540000D01*
X107442000Y-129540000D02*
X107188000Y-129286000D01*
X107188000Y-129286000D02*
X107188000Y-118402000D01*
X140420000Y-94090000D02*
X140420000Y-89120000D01*
X141150000Y-94820000D02*
X140420000Y-94090000D01*
X141150000Y-96380000D02*
X141150000Y-94820000D01*
X140820000Y-96710000D02*
X141150000Y-96380000D01*
X140820000Y-98970000D02*
X140820000Y-96710000D01*
X137980000Y-101810000D02*
X140820000Y-98970000D01*
X134610000Y-101810000D02*
X137980000Y-101810000D01*
X133410000Y-100610000D02*
X134610000Y-101810000D01*
X127680000Y-100610000D02*
X133410000Y-100610000D01*
X126390000Y-101900000D02*
X127680000Y-100610000D01*
X119780000Y-101900000D02*
X126390000Y-101900000D01*
X115170000Y-106510000D02*
X119780000Y-101900000D01*
X115170000Y-114280000D02*
X115170000Y-106510000D01*
X113950000Y-115500000D02*
X115170000Y-114280000D01*
X110090000Y-115500000D02*
X113950000Y-115500000D01*
X107188000Y-118402000D02*
X110090000Y-115500000D01*
X107188000Y-129286000D02*
X103814000Y-129286000D01*
X103814000Y-129286000D02*
X103750000Y-129350000D01*
X99410000Y-130310000D02*
X98100000Y-130310000D01*
X96838000Y-131572000D02*
X94488000Y-131572000D01*
X98100000Y-130310000D02*
X96838000Y-131572000D01*
X103750000Y-129350000D02*
X100370000Y-129350000D01*
X100370000Y-129350000D02*
X99410000Y-130310000D01*
X120650000Y-118698000D02*
X135810000Y-118698000D01*
X135810000Y-118698000D02*
X136144000Y-118364000D01*
X117348000Y-118872000D02*
X120476000Y-118872000D01*
X120476000Y-118872000D02*
X120650000Y-118698000D01*
X120650000Y-118698000D02*
X120650000Y-118872000D01*
X120650000Y-118872000D02*
X122682000Y-120904000D01*
X122682000Y-120904000D02*
X122682000Y-124714000D01*
X122682000Y-124714000D02*
X120904000Y-126492000D01*
X120904000Y-126492000D02*
X120142000Y-126492000D01*
X149860000Y-87376000D02*
X151774000Y-87376000D01*
X151774000Y-87376000D02*
X154240000Y-84910000D01*
X147360000Y-87376000D02*
X147360000Y-84368000D01*
X142494000Y-79502000D02*
X138684000Y-79502000D01*
X147360000Y-84368000D02*
X142494000Y-79502000D01*
X116332000Y-65786000D02*
X120396000Y-65786000D01*
X120396000Y-65786000D02*
X121158000Y-66548000D01*
X121158000Y-74422000D02*
X120142000Y-74422000D01*
X118364000Y-76200000D02*
X116332000Y-78232000D01*
X120142000Y-74422000D02*
X118364000Y-76200000D01*
X111252000Y-79502000D02*
X114300000Y-79502000D01*
X114300000Y-79502000D02*
X115570000Y-78232000D01*
X115570000Y-78232000D02*
X116332000Y-78232000D01*
X116332000Y-68286000D02*
X120864000Y-68286000D01*
X123190000Y-73152000D02*
X121920000Y-74422000D01*
X123190000Y-70612000D02*
X123190000Y-73152000D01*
X120864000Y-68286000D02*
X123190000Y-70612000D01*
X121920000Y-74422000D02*
X121158000Y-74422000D01*
X104380000Y-65270000D02*
X104380000Y-68040000D01*
X104380000Y-68040000D02*
X103720000Y-68700000D01*
X99380000Y-65270000D02*
X99380000Y-65410000D01*
X99380000Y-65410000D02*
X100600000Y-66630000D01*
X100600000Y-66630000D02*
X100600000Y-71600000D01*
X104394000Y-71882000D02*
X100882000Y-71882000D01*
X100882000Y-71882000D02*
X100600000Y-71600000D01*
X96620000Y-69350000D02*
X96580000Y-69350000D01*
X96580000Y-69350000D02*
X95140000Y-70790000D01*
X95140000Y-70790000D02*
X95140000Y-77760000D01*
X95140000Y-77760000D02*
X96800000Y-79420000D01*
X104394000Y-79502000D02*
X104394000Y-78914000D01*
X104394000Y-78914000D02*
X102960000Y-77480000D01*
X96800000Y-78210000D02*
X96800000Y-79420000D01*
X97530000Y-77480000D02*
X96800000Y-78210000D01*
X102960000Y-77480000D02*
X97530000Y-77480000D01*
X104394000Y-79502000D02*
X104394000Y-80264000D01*
X104394000Y-80264000D02*
X106334000Y-81824000D01*
X141478000Y-93726000D02*
X143764000Y-95504000D01*
X141478000Y-87376000D02*
X141478000Y-93726000D01*
X136814000Y-81824000D02*
X141478000Y-87376000D01*
X106334000Y-81824000D02*
X136814000Y-81824000D01*
X67950000Y-73670000D02*
X68110000Y-73670000D01*
X68110000Y-73670000D02*
X71860000Y-77420000D01*
X66860000Y-77420000D02*
X61170000Y-77420000D01*
X61170000Y-77420000D02*
X60970000Y-77620000D01*
X78850000Y-77720000D02*
X78850000Y-79190000D01*
X80700000Y-81040000D02*
X81570000Y-81040000D01*
X78850000Y-79190000D02*
X80700000Y-81040000D01*
X87630000Y-82296000D02*
X85426000Y-82296000D01*
X84170000Y-81040000D02*
X81570000Y-81040000D01*
X85426000Y-82296000D02*
X84170000Y-81040000D01*
X87630000Y-77296000D02*
X88244000Y-77296000D01*
X88244000Y-77296000D02*
X89990000Y-75550000D01*
X89990000Y-75550000D02*
X90980000Y-75550000D01*
X83820000Y-93472000D02*
X80264000Y-93472000D01*
X80264000Y-93472000D02*
X79248000Y-94488000D01*
X67564000Y-85344000D02*
X68072000Y-85344000D01*
X68072000Y-85344000D02*
X69596000Y-86868000D01*
X69596000Y-86868000D02*
X69596000Y-89154000D01*
X69596000Y-89154000D02*
X74676000Y-94234000D01*
X74676000Y-94234000D02*
X74676000Y-98044000D01*
X79248000Y-97028000D02*
X79248000Y-97282000D01*
X79248000Y-97282000D02*
X78486000Y-98044000D01*
X78486000Y-98044000D02*
X74676000Y-98044000D01*
X79248000Y-94488000D02*
X79248000Y-97028000D01*
X70970000Y-88010000D02*
X70970000Y-85194000D01*
X67564000Y-81788000D02*
X67564000Y-80344000D01*
X70970000Y-85194000D02*
X67564000Y-81788000D01*
X91440000Y-86106000D02*
X89912002Y-86106000D01*
X86410000Y-98260000D02*
X86410000Y-101880000D01*
X88810000Y-95860000D02*
X86410000Y-98260000D01*
X88810000Y-87208002D02*
X88810000Y-95860000D01*
X89912002Y-86106000D02*
X88810000Y-87208002D01*
X83910000Y-101880000D02*
X80500000Y-101880000D01*
X80500000Y-101880000D02*
X79210000Y-103170000D01*
X79210000Y-103170000D02*
X79210000Y-104950000D01*
X79210000Y-104950000D02*
X79210000Y-107150000D01*
X79210000Y-107150000D02*
X79248000Y-107188000D01*
X109732500Y-102892500D02*
X109732500Y-102917500D01*
X105462000Y-107188000D02*
X86868000Y-107188000D01*
X109732500Y-102917500D02*
X105462000Y-107188000D01*
X138610000Y-99295000D02*
X138975000Y-99295000D01*
X140240000Y-98030000D02*
X140240000Y-95980000D01*
X138975000Y-99295000D02*
X140240000Y-98030000D01*
X124968000Y-100300000D02*
X125506000Y-100300000D01*
X134874000Y-98806000D02*
X135423000Y-99295000D01*
X127000000Y-98806000D02*
X134874000Y-98806000D01*
X125506000Y-100300000D02*
X127000000Y-98806000D01*
X135423000Y-99295000D02*
X138610000Y-99295000D01*
X138610000Y-99295000D02*
X138780000Y-99295000D01*
X112325000Y-100300000D02*
X124968000Y-100300000D01*
X109575000Y-103050000D02*
X109732500Y-102892500D01*
X109732500Y-102892500D02*
X112325000Y-100300000D01*
X86980000Y-110980000D02*
X89390000Y-110980000D01*
X89390000Y-110980000D02*
X90170000Y-111760000D01*
X86868000Y-107188000D02*
X86868000Y-110868000D01*
X86868000Y-110868000D02*
X86980000Y-110980000D01*
X172920000Y-56410000D02*
X174040000Y-56410000D01*
X177905000Y-60275000D02*
X181825000Y-60275000D01*
X174040000Y-56410000D02*
X177905000Y-60275000D01*
D36*
X193610000Y-83050000D02*
X192278000Y-83058000D01*
X191008000Y-106680000D02*
X189400000Y-106680000D01*
X191516000Y-106172000D02*
X191008000Y-106680000D01*
X191026000Y-102616000D02*
X191516000Y-106172000D01*
X190772000Y-102362000D02*
X191026000Y-102616000D01*
X190772000Y-84074000D02*
X190772000Y-102362000D01*
X192278000Y-83058000D02*
X190772000Y-84074000D01*
X189400000Y-106680000D02*
X189050000Y-107030000D01*
X193610000Y-83050000D02*
X193000000Y-79570000D01*
X193000000Y-79570000D02*
X192532000Y-77724000D01*
X194600000Y-77620000D02*
X192532000Y-77724000D01*
X192532000Y-77724000D02*
X191110000Y-77690000D01*
X178562000Y-140208000D02*
X175006000Y-140208000D01*
X183134000Y-138430000D02*
X181870000Y-138430000D01*
X181870000Y-138430000D02*
X180848000Y-140208000D01*
X180848000Y-140208000D02*
X178562000Y-140208000D01*
X183134000Y-138430000D02*
X182184000Y-138430000D01*
X189050000Y-119730000D02*
X190630000Y-119730000D01*
X185600000Y-136720000D02*
X183134000Y-138430000D01*
X185600000Y-127100000D02*
X185600000Y-136720000D01*
X186600000Y-126100000D02*
X185600000Y-127100000D01*
X189500000Y-126100000D02*
X186600000Y-126100000D01*
X191600000Y-124000000D02*
X189500000Y-126100000D01*
X191600000Y-120700000D02*
X191600000Y-124000000D01*
X190630000Y-119730000D02*
X191600000Y-120700000D01*
X189050000Y-119730000D02*
X190088000Y-119730000D01*
X194564000Y-93726000D02*
X194118000Y-88638000D01*
X194118000Y-88638000D02*
X193610000Y-88130000D01*
X194818000Y-97282000D02*
X194818000Y-105072000D01*
X194818000Y-105072000D02*
X194130000Y-105760000D01*
X194564000Y-93726000D02*
X194564000Y-97028000D01*
X194564000Y-97028000D02*
X194818000Y-97282000D01*
X194520000Y-105370000D02*
X194130000Y-105760000D01*
X190000000Y-129300000D02*
X189216000Y-129300000D01*
X189216000Y-129300000D02*
X189484000Y-129568000D01*
X189484000Y-129568000D02*
X189484000Y-132842000D01*
X188214000Y-138430000D02*
X188214000Y-134112000D01*
X188214000Y-134112000D02*
X189484000Y-132842000D01*
X189920000Y-129380000D02*
X190000000Y-129300000D01*
X190000000Y-129300000D02*
X190200000Y-129300000D01*
X190200000Y-129300000D02*
X194130000Y-125370000D01*
X194130000Y-125370000D02*
X194130000Y-121000000D01*
X143002000Y-44196000D02*
X143002000Y-45212000D01*
X143002000Y-45212000D02*
X147716000Y-49926000D01*
X147716000Y-49926000D02*
X147716000Y-52578000D01*
X143002000Y-44196000D02*
X143002000Y-44958000D01*
X151666000Y-52578000D02*
X147716000Y-52578000D01*
D35*
X175450000Y-45710000D02*
X172974000Y-45720000D01*
X172974000Y-45720000D02*
X167950000Y-50744000D01*
X167950000Y-50744000D02*
X167950000Y-51520000D01*
X167950000Y-51520000D02*
X168400000Y-51520000D01*
X167950000Y-51520000D02*
X168200000Y-51520000D01*
X167950000Y-51520000D02*
X168260000Y-51520000D01*
X161036000Y-115700000D02*
X161036000Y-123136000D01*
X133100000Y-137400000D02*
X131270000Y-139000000D01*
X135200000Y-137400000D02*
X133100000Y-137400000D01*
X138700000Y-140900000D02*
X135200000Y-137400000D01*
X169000000Y-140900000D02*
X138700000Y-140900000D01*
X169500000Y-140400000D02*
X169000000Y-140900000D01*
X169500000Y-131600000D02*
X169500000Y-140400000D01*
X161036000Y-123136000D02*
X169500000Y-131600000D01*
X161036000Y-115700000D02*
X161036000Y-114808000D01*
X84075000Y-43470000D02*
X83470000Y-43470000D01*
X69475000Y-46000000D02*
X68500000Y-46280000D01*
X74475000Y-41000000D02*
X69475000Y-46000000D01*
X81000000Y-41000000D02*
X74475000Y-41000000D01*
X83470000Y-43470000D02*
X81000000Y-41000000D01*
X112600000Y-49420000D02*
X109550000Y-49420000D01*
X109550000Y-49420000D02*
X107430000Y-47300000D01*
X107430000Y-44310000D02*
X106590000Y-43470000D01*
X106590000Y-43470000D02*
X84075000Y-43470000D01*
X84075000Y-43470000D02*
X83890000Y-43470000D01*
X107430000Y-47300000D02*
X107430000Y-44310000D01*
X107430000Y-47380000D02*
X107430000Y-47300000D01*
X133213850Y-49566373D02*
X133206373Y-49566373D01*
X133060000Y-49420000D02*
X112600000Y-49420000D01*
X112600000Y-49420000D02*
X110190000Y-49420000D01*
X133206373Y-49566373D02*
X133060000Y-49420000D01*
X68720000Y-46500000D02*
X68500000Y-46280000D01*
X139710000Y-52120000D02*
X135860000Y-52120000D01*
X135860000Y-52120000D02*
X133213850Y-49566373D01*
X133213850Y-49566373D02*
X133000000Y-49360000D01*
X133160000Y-48230000D02*
X123230000Y-48230000D01*
X135640000Y-50710000D02*
X133160000Y-48230000D01*
X141478000Y-50710000D02*
X135640000Y-50710000D01*
X123230000Y-48230000D02*
X119720000Y-45000000D01*
X141478000Y-50710000D02*
X142150000Y-50710000D01*
X142150000Y-50710000D02*
X143002000Y-51562000D01*
X141730000Y-50710000D02*
X141478000Y-50710000D01*
X120100000Y-45000000D02*
X119720000Y-45000000D01*
X136144000Y-90424000D02*
X135128000Y-90424000D01*
X133604000Y-91948000D02*
X133604000Y-94996000D01*
X135128000Y-90424000D02*
X133604000Y-91948000D01*
X133604000Y-94996000D02*
X133096000Y-95504000D01*
X108240000Y-90110000D02*
X106790000Y-90110000D01*
X107290000Y-84380000D02*
X113860000Y-84380000D01*
X106030000Y-85640000D02*
X107290000Y-84380000D01*
X106030000Y-89350000D02*
X106030000Y-85640000D01*
X106790000Y-90110000D02*
X106030000Y-89350000D01*
X117856000Y-88900000D02*
X113160000Y-88900000D01*
X111950000Y-90110000D02*
X108240000Y-90110000D01*
X113160000Y-88900000D02*
X111950000Y-90110000D01*
X117406000Y-88450000D02*
X117856000Y-88900000D01*
X143764000Y-113284000D02*
X146091000Y-113284000D01*
X150325000Y-109050000D02*
X152925000Y-109050000D01*
X146091000Y-113284000D02*
X150325000Y-109050000D01*
X170330000Y-93360000D02*
X170320000Y-93360000D01*
X170330000Y-95340000D02*
X170330000Y-93360000D01*
X171580000Y-96590000D02*
X170330000Y-95340000D01*
X171580000Y-102490000D02*
X171580000Y-96590000D01*
X171360000Y-102710000D02*
X171580000Y-102490000D01*
X171882000Y-80260000D02*
X170850000Y-80260000D01*
X169790000Y-81320000D02*
X170850000Y-80260000D01*
X169790000Y-84530000D02*
X169790000Y-81320000D01*
X170320000Y-85060000D02*
X169790000Y-84530000D01*
X170320000Y-93700000D02*
X170320000Y-93360000D01*
X170320000Y-93360000D02*
X170320000Y-85060000D01*
X152925000Y-111590000D02*
X152925000Y-111505000D01*
X152925000Y-111505000D02*
X154130000Y-110300000D01*
X154130000Y-110300000D02*
X156390000Y-110300000D01*
X156390000Y-110300000D02*
X157090000Y-111000000D01*
X157090000Y-111000000D02*
X167240000Y-111000000D01*
X167240000Y-111000000D02*
X169320000Y-108920000D01*
X152925000Y-111590000D02*
X152925000Y-111195000D01*
X152925000Y-111590000D02*
X152925000Y-111435000D01*
X152925000Y-111590000D02*
X149810000Y-111590000D01*
X142025000Y-111950000D02*
X143231000Y-110744000D01*
X142025000Y-113950000D02*
X142025000Y-111950000D01*
X142600000Y-114525000D02*
X142025000Y-113950000D01*
X146875000Y-114525000D02*
X142600000Y-114525000D01*
X149810000Y-111590000D02*
X146875000Y-114525000D01*
X143231000Y-110744000D02*
X143764000Y-110744000D01*
X171420000Y-80260000D02*
X171882000Y-80260000D01*
X164290000Y-111590000D02*
X166290000Y-111590000D01*
X167580000Y-114800000D02*
X169320000Y-116540000D01*
X167580000Y-112880000D02*
X167580000Y-114800000D01*
X166290000Y-111590000D02*
X167580000Y-112880000D01*
X160060000Y-111590000D02*
X164290000Y-111590000D01*
X155465000Y-111590000D02*
X160060000Y-111590000D01*
X169320000Y-116460000D02*
X169320000Y-116540000D01*
X155465000Y-111590000D02*
X155185000Y-111590000D01*
X155185000Y-111590000D02*
X153925000Y-112850000D01*
X153925000Y-112850000D02*
X150225000Y-112850000D01*
X150225000Y-112850000D02*
X147251000Y-115824000D01*
X147251000Y-115824000D02*
X143764000Y-115824000D01*
X60960000Y-70866000D02*
X62244000Y-70866000D01*
X62244000Y-70866000D02*
X63650000Y-69460000D01*
X63650000Y-69460000D02*
X63650000Y-63750000D01*
X63650000Y-63750000D02*
X66490000Y-60910000D01*
X66490000Y-60910000D02*
X67710000Y-60910000D01*
X126497500Y-97222500D02*
X134425500Y-97222500D01*
X134425500Y-97222500D02*
X136144000Y-95504000D01*
X62530000Y-64216000D02*
X60960000Y-65786000D01*
X62530000Y-62300000D02*
X62530000Y-64216000D01*
X66270000Y-58560000D02*
X62530000Y-62300000D01*
X90750000Y-58560000D02*
X66270000Y-58560000D01*
X93904000Y-61460000D02*
X90750000Y-58560000D01*
X93904000Y-80390000D02*
X93904000Y-61460000D01*
X94760000Y-81500000D02*
X93904000Y-80390000D01*
X102650000Y-81500000D02*
X94760000Y-81500000D01*
X104700000Y-83550000D02*
X102650000Y-81500000D01*
X104700000Y-96770000D02*
X104700000Y-83550000D01*
X106530000Y-98600000D02*
X104700000Y-96770000D01*
X125120000Y-98600000D02*
X106530000Y-98600000D01*
X126497500Y-97222500D02*
X125120000Y-98600000D01*
X113500000Y-135380000D02*
X116130000Y-135380000D01*
X118110000Y-137360000D02*
X118110000Y-138938000D01*
X116130000Y-135380000D02*
X118110000Y-137360000D01*
X64190000Y-57250000D02*
X63080000Y-57250000D01*
X62060000Y-59900000D02*
X60260000Y-61700000D01*
X62060000Y-58270000D02*
X62060000Y-59900000D01*
X63080000Y-57250000D02*
X62060000Y-58270000D01*
X113500000Y-135380000D02*
X113500000Y-135500000D01*
X99820000Y-61040000D02*
X99270000Y-61040000D01*
X99270000Y-61040000D02*
X95480000Y-57250000D01*
X95480000Y-57250000D02*
X64190000Y-57250000D01*
X60260000Y-61700000D02*
X57510000Y-61700000D01*
X57510000Y-61700000D02*
X56270000Y-62940000D01*
X56270000Y-62940000D02*
X56270000Y-132810000D01*
X56270000Y-132810000D02*
X59210000Y-135750000D01*
X59210000Y-135750000D02*
X62640000Y-135750000D01*
X62640000Y-135750000D02*
X64120000Y-137230000D01*
X64120000Y-137230000D02*
X64120000Y-142490000D01*
X64120000Y-142490000D02*
X65560000Y-143930000D01*
X65560000Y-143930000D02*
X105010000Y-143930000D01*
X105010000Y-143930000D02*
X107760000Y-141180000D01*
X107760000Y-141180000D02*
X107760000Y-138530000D01*
X107760000Y-138530000D02*
X108350000Y-137940000D01*
X108350000Y-137940000D02*
X111640000Y-137940000D01*
X111640000Y-137940000D02*
X113500000Y-136080000D01*
X113500000Y-136080000D02*
X113500000Y-135380000D01*
X186690000Y-45720000D02*
X189280000Y-45720000D01*
X189280000Y-45720000D02*
X191008000Y-43992000D01*
X115370000Y-42370000D02*
X115370000Y-41070000D01*
X115370000Y-41070000D02*
X116740000Y-39446000D01*
X116740000Y-39446000D02*
X187030000Y-39446000D01*
X187030000Y-39446000D02*
X191008000Y-43678000D01*
X191008000Y-43678000D02*
X191008000Y-43992000D01*
X191008000Y-43992000D02*
X191008000Y-49276000D01*
X109980000Y-61040000D02*
X109980000Y-60400000D01*
X109980000Y-60400000D02*
X111330000Y-59050000D01*
X115370000Y-44850000D02*
X115370000Y-42370000D01*
X115370000Y-42370000D02*
X115370000Y-41910000D01*
X115440000Y-44920000D02*
X115370000Y-44850000D01*
X111330000Y-59050000D02*
X111330000Y-57400000D01*
X186690000Y-45720000D02*
X187452000Y-45720000D01*
X109980000Y-61040000D02*
X109980000Y-60510000D01*
X71570000Y-56555000D02*
X68055000Y-56555000D01*
X68055000Y-56555000D02*
X66670000Y-55170000D01*
X66670000Y-55170000D02*
X59455000Y-55170000D01*
X59455000Y-55170000D02*
X59450000Y-55175000D01*
X71570000Y-56555000D02*
X98425000Y-56555000D01*
X98425000Y-56555000D02*
X99400000Y-57350000D01*
X99400000Y-57350000D02*
X101200000Y-57350000D01*
X101200000Y-57350000D02*
X102360000Y-58510000D01*
X102360000Y-58510000D02*
X102360000Y-61040000D01*
X59750000Y-54875000D02*
X59450000Y-55175000D01*
X109610000Y-44650000D02*
X109610000Y-43840000D01*
X109610000Y-43840000D02*
X107070000Y-41300000D01*
X107070000Y-41300000D02*
X92810000Y-41300000D01*
X107440000Y-61040000D02*
X107440000Y-58950000D01*
X109610000Y-47870000D02*
X109610000Y-44650000D01*
X109550000Y-47930000D02*
X109610000Y-47870000D01*
X107440000Y-58950000D02*
X108690000Y-57700000D01*
X109720000Y-44710000D02*
X108940000Y-44710000D01*
X158390000Y-48250000D02*
X158390000Y-45960000D01*
X161180000Y-43170000D02*
X165430000Y-43170000D01*
X158390000Y-45960000D02*
X161180000Y-43170000D01*
X153416000Y-51562000D02*
X153416000Y-50546000D01*
X155702000Y-48260000D02*
X158390000Y-48250000D01*
X153416000Y-50546000D02*
X155702000Y-48260000D01*
X153416000Y-54356000D02*
X153416000Y-51562000D01*
X153416000Y-51562000D02*
X153416000Y-50954000D01*
X154400000Y-79830000D02*
X156400000Y-77830000D01*
X165520000Y-70860000D02*
X165520000Y-66250000D01*
X165520000Y-66250000D02*
X164040000Y-64210000D01*
X164040000Y-64210000D02*
X159990000Y-64210000D01*
X159990000Y-64210000D02*
X158840000Y-63060000D01*
X158840000Y-63060000D02*
X153270000Y-63060000D01*
X153270000Y-63060000D02*
X152770000Y-62560000D01*
X152770000Y-62560000D02*
X151100000Y-62560000D01*
X165180000Y-72790000D02*
X163430000Y-72790000D01*
X163430000Y-72790000D02*
X163190000Y-73030000D01*
X165520000Y-72450000D02*
X165180000Y-72790000D01*
X165520000Y-70860000D02*
X165520000Y-72450000D01*
X156400000Y-77830000D02*
X161990000Y-77830000D01*
X161990000Y-77830000D02*
X162520000Y-77300000D01*
X162520000Y-77300000D02*
X162520000Y-73740000D01*
X162520000Y-73740000D02*
X163190000Y-73070000D01*
X163190000Y-73070000D02*
X163190000Y-73030000D01*
X154240000Y-79830000D02*
X154400000Y-79830000D01*
X147100000Y-99170000D02*
X147464000Y-99170000D01*
X151100000Y-127400000D02*
X147420000Y-123720000D01*
X147420000Y-123720000D02*
X141420000Y-123720000D01*
X141420000Y-123720000D02*
X139160000Y-121460000D01*
X139930000Y-101560000D02*
X139630000Y-101860000D01*
X139630000Y-101860000D02*
X139630000Y-103370000D01*
X139630000Y-103370000D02*
X138610000Y-104390000D01*
X138610000Y-104390000D02*
X134620000Y-104390000D01*
X134620000Y-104390000D02*
X134050000Y-104960000D01*
X134050000Y-104960000D02*
X123140000Y-104960000D01*
X123140000Y-104960000D02*
X121570000Y-106530000D01*
X121570000Y-106530000D02*
X121570000Y-114810000D01*
X121570000Y-114810000D02*
X123050000Y-116290000D01*
X123050000Y-116290000D02*
X130760000Y-116290000D01*
X130760000Y-116290000D02*
X132490000Y-114560000D01*
X132490000Y-114560000D02*
X137900000Y-114560000D01*
X137900000Y-114560000D02*
X139160000Y-115820000D01*
X139160000Y-115820000D02*
X139160000Y-121460000D01*
X151100000Y-134990000D02*
X151100000Y-127400000D01*
X151564000Y-89990000D02*
X154240000Y-89990000D01*
X147828000Y-93726000D02*
X151564000Y-89990000D01*
X147828000Y-98806000D02*
X147828000Y-93726000D01*
X147464000Y-99170000D02*
X147828000Y-98806000D01*
X151100000Y-134990000D02*
X151100000Y-137300000D01*
X149400000Y-139000000D02*
X143780000Y-139000000D01*
X151100000Y-137300000D02*
X149400000Y-139000000D01*
X154240000Y-89990000D02*
X154240000Y-90620000D01*
X82560000Y-55660000D02*
X82320000Y-55660000D01*
X139700000Y-61130000D02*
X138750000Y-61130000D01*
X138750000Y-61130000D02*
X131480000Y-51920000D01*
X131480000Y-51920000D02*
X121760000Y-51920000D01*
X121760000Y-51920000D02*
X118320000Y-55660000D01*
X118320000Y-55660000D02*
X88890000Y-55660000D01*
X88890000Y-55660000D02*
X83590000Y-55660000D01*
X83590000Y-55660000D02*
X82560000Y-55660000D01*
X140890000Y-62320000D02*
X139700000Y-61130000D01*
X140890000Y-78152000D02*
X140890000Y-62320000D01*
X141478000Y-78740000D02*
X140890000Y-78152000D01*
X143256000Y-78740000D02*
X141478000Y-78740000D01*
X148590000Y-84074000D02*
X143256000Y-78740000D01*
X152400000Y-84074000D02*
X148590000Y-84074000D01*
X154104000Y-82370000D02*
X152400000Y-84074000D01*
X79570000Y-50350000D02*
X74870000Y-50350000D01*
X81674998Y-52454998D02*
X79570000Y-50350000D01*
X81674998Y-55014998D02*
X81674998Y-52454998D01*
X82320000Y-55660000D02*
X81674998Y-55014998D01*
X154240000Y-82370000D02*
X154104000Y-82370000D01*
X74270000Y-51920000D02*
X74870000Y-50350000D01*
X74870000Y-50350000D02*
X74870000Y-46410000D01*
X74870000Y-46410000D02*
X77820000Y-43740000D01*
X77820000Y-43740000D02*
X78500000Y-43740000D01*
X152270000Y-55580000D02*
X148300000Y-55580000D01*
X148300000Y-55580000D02*
X146880000Y-55580000D01*
X144600000Y-50900000D02*
X142870000Y-49170000D01*
X144600000Y-53300000D02*
X144600000Y-50900000D01*
X146880000Y-55580000D02*
X144600000Y-53300000D01*
X152290000Y-55600000D02*
X152270000Y-55580000D01*
X161770000Y-73220000D02*
X161770000Y-75970000D01*
X154610000Y-77240000D02*
X152700000Y-79150000D01*
X160500000Y-77240000D02*
X154610000Y-77240000D01*
X161770000Y-75970000D02*
X160500000Y-77240000D01*
X162930000Y-69740000D02*
X162930000Y-70260000D01*
X161770000Y-71420000D02*
X161770000Y-73220000D01*
X162930000Y-70260000D02*
X161770000Y-71420000D01*
X154240000Y-87450000D02*
X154600000Y-87450000D01*
X154600000Y-87450000D02*
X155750000Y-86300000D01*
X155750000Y-86300000D02*
X155750000Y-81800000D01*
X155750000Y-81800000D02*
X155100000Y-81150000D01*
X155100000Y-81150000D02*
X153200000Y-81150000D01*
X153200000Y-81150000D02*
X152700000Y-80650000D01*
X152700000Y-80650000D02*
X152700000Y-79150000D01*
X162930000Y-69740000D02*
X162930000Y-69200000D01*
X162930000Y-69200000D02*
X162950000Y-69200000D01*
X162950000Y-69530000D02*
X162950000Y-69200000D01*
X162950000Y-69200000D02*
X162950000Y-66520000D01*
X162950000Y-66520000D02*
X161390000Y-64960000D01*
X161390000Y-64960000D02*
X158870000Y-64960000D01*
X158870000Y-64960000D02*
X158110000Y-64200000D01*
X158110000Y-64200000D02*
X153770000Y-64200000D01*
X153770000Y-64200000D02*
X153310000Y-63740000D01*
X142870000Y-49170000D02*
X138070000Y-49150000D01*
X132270000Y-45000000D02*
X132970000Y-45000000D01*
X132970000Y-45000000D02*
X138070000Y-49150000D01*
X127762000Y-126492000D02*
X127762000Y-127508000D01*
X127762000Y-127508000D02*
X128905000Y-128651000D01*
X131826000Y-128270000D02*
X129286000Y-128270000D01*
X129286000Y-128270000D02*
X128905000Y-128651000D01*
X128905000Y-128651000D02*
X127762000Y-129794000D01*
X131826000Y-130810000D02*
X131826000Y-131024000D01*
X131826000Y-131024000D02*
X129730000Y-133120000D01*
X129730000Y-133120000D02*
X122810000Y-133120000D01*
X122810000Y-133120000D02*
X122490000Y-132800000D01*
X131826000Y-130810000D02*
X134620000Y-130810000D01*
X136144000Y-129286000D02*
X136144000Y-120904000D01*
X134620000Y-130810000D02*
X136144000Y-129286000D01*
X104902000Y-109220000D02*
X104902000Y-112987000D01*
X104902000Y-112987000D02*
X105465000Y-113550000D01*
X136144000Y-100584000D02*
X135494000Y-100584000D01*
X135494000Y-100584000D02*
X134440000Y-99530000D01*
X127470000Y-99530000D02*
X126025000Y-100975000D01*
X134440000Y-99530000D02*
X127470000Y-99530000D01*
X108204000Y-109220000D02*
X108204000Y-105921000D01*
X113150000Y-100975000D02*
X126025000Y-100975000D01*
X108204000Y-105921000D02*
X113150000Y-100975000D01*
X108204000Y-109220000D02*
X108204000Y-113351000D01*
X108204000Y-113351000D02*
X108005000Y-113550000D01*
X136144000Y-92964000D02*
X136606000Y-92964000D01*
X136606000Y-92964000D02*
X137690000Y-91880000D01*
X137690000Y-91880000D02*
X137690000Y-89620000D01*
X137690000Y-89620000D02*
X137210000Y-89140000D01*
X137210000Y-89140000D02*
X125716000Y-89140000D01*
X125716000Y-89140000D02*
X125476000Y-88900000D01*
X86868000Y-131572000D02*
X85852000Y-131572000D01*
X85852000Y-131572000D02*
X83566000Y-133858000D01*
X75946000Y-124714000D02*
X75946000Y-127000000D01*
X82042000Y-135382000D02*
X83566000Y-136906000D01*
X82042000Y-133096000D02*
X82042000Y-135382000D01*
X75946000Y-127000000D02*
X82042000Y-133096000D01*
X83566000Y-133858000D02*
X83566000Y-136906000D01*
X177810000Y-97690000D02*
X181570000Y-97690000D01*
X181570000Y-97690000D02*
X184404000Y-94856000D01*
D36*
X186690000Y-90170000D02*
X186436000Y-90170000D01*
X186436000Y-90170000D02*
X184404000Y-92202000D01*
X184404000Y-92202000D02*
X184404000Y-94856000D01*
X184404000Y-94856000D02*
X184404000Y-101346000D01*
X184404000Y-101346000D02*
X187548000Y-104490000D01*
X187548000Y-104490000D02*
X189050000Y-104490000D01*
D35*
X170230000Y-127410000D02*
X167720000Y-127410000D01*
X163180000Y-115966000D02*
X164338000Y-114808000D01*
X163180000Y-122870000D02*
X163180000Y-115966000D01*
X167720000Y-127410000D02*
X163180000Y-122870000D01*
D36*
X189050000Y-122270000D02*
X183950000Y-122270000D01*
X179600000Y-125170000D02*
X177360000Y-127410000D01*
X181050000Y-125170000D02*
X179600000Y-125170000D01*
X183950000Y-122270000D02*
X181050000Y-125170000D01*
D35*
X170230000Y-127410000D02*
X177360000Y-127410000D01*
X189050000Y-122270000D02*
X188410000Y-122270000D01*
X156300000Y-106150000D02*
X156650000Y-106150000D01*
X164338000Y-109162000D02*
X164338000Y-107188000D01*
X164000000Y-109500000D02*
X164338000Y-109162000D01*
X158800000Y-109500000D02*
X164000000Y-109500000D01*
X157900000Y-108600000D02*
X158800000Y-109500000D01*
X157900000Y-107400000D02*
X157900000Y-108600000D01*
X156650000Y-106150000D02*
X157900000Y-107400000D01*
X156520000Y-106150000D02*
X156710000Y-106150000D01*
X142100000Y-99708000D02*
X143764000Y-98044000D01*
X142100000Y-103710000D02*
X142100000Y-99708000D01*
X142690000Y-104300000D02*
X142100000Y-103710000D01*
X144580000Y-104300000D02*
X142690000Y-104300000D01*
X145250000Y-104970000D02*
X144580000Y-104300000D01*
X145250000Y-105770000D02*
X145250000Y-104970000D01*
X146180000Y-106700000D02*
X145250000Y-105770000D01*
X148840000Y-106700000D02*
X146180000Y-106700000D01*
X149390000Y-106150000D02*
X148840000Y-106700000D01*
X156730000Y-106150000D02*
X156520000Y-106150000D01*
X156520000Y-106150000D02*
X156300000Y-106150000D01*
X156300000Y-106150000D02*
X149390000Y-106150000D01*
X143636000Y-98044000D02*
X143764000Y-98044000D01*
X170190000Y-97690000D02*
X170190000Y-97710000D01*
X170190000Y-97710000D02*
X167800000Y-100100000D01*
X158600000Y-107000000D02*
X158600000Y-107020000D01*
X160300000Y-108700000D02*
X158600000Y-107000000D01*
X161900000Y-108700000D02*
X160300000Y-108700000D01*
X162500000Y-108100000D02*
X161900000Y-108700000D01*
X162500000Y-106300000D02*
X162500000Y-108100000D01*
X163100000Y-105700000D02*
X162500000Y-106300000D01*
X165700000Y-105700000D02*
X163100000Y-105700000D01*
X167800000Y-103600000D02*
X165700000Y-105700000D01*
X167800000Y-100100000D02*
X167800000Y-103600000D01*
X145240000Y-102830000D02*
X145240000Y-102060000D01*
X147910000Y-105500000D02*
X145240000Y-102830000D01*
X157080000Y-105500000D02*
X147910000Y-105500000D01*
X158730000Y-107150000D02*
X158600000Y-107020000D01*
X158600000Y-107020000D02*
X157080000Y-105500000D01*
X145240000Y-102060000D02*
X143764000Y-100584000D01*
X170190000Y-97690000D02*
X170190000Y-98150000D01*
X143914000Y-100584000D02*
X143764000Y-100584000D01*
X170190000Y-97690000D02*
X170190000Y-98310000D01*
X144454000Y-100584000D02*
X143764000Y-100584000D01*
X144214000Y-100584000D02*
X143764000Y-100584000D01*
X173795000Y-102710000D02*
X173795000Y-103095000D01*
X171290000Y-104410000D02*
X169320000Y-106380000D01*
X172480000Y-104410000D02*
X171290000Y-104410000D01*
X173795000Y-103095000D02*
X172480000Y-104410000D01*
X156265000Y-106875000D02*
X156265000Y-106925000D01*
X167670000Y-108030000D02*
X169320000Y-106380000D01*
X167670000Y-108910000D02*
X167670000Y-108030000D01*
X166360000Y-110220000D02*
X167670000Y-108910000D01*
X157660000Y-110220000D02*
X166360000Y-110220000D01*
X157190000Y-109750000D02*
X157660000Y-110220000D01*
X157190000Y-107850000D02*
X157190000Y-109750000D01*
X156265000Y-106925000D02*
X157190000Y-107850000D01*
X173795000Y-100220000D02*
X173795000Y-102710000D01*
X140810010Y-106210000D02*
X140600000Y-106420010D01*
X141790000Y-106210000D02*
X140810010Y-106210000D01*
X142500000Y-106920000D02*
X141790000Y-106210000D01*
X145590000Y-106920000D02*
X142500000Y-106920000D01*
X146120000Y-107450000D02*
X145590000Y-106920000D01*
X149330000Y-107450000D02*
X146120000Y-107450000D01*
X150060000Y-106720000D02*
X149330000Y-107450000D01*
X156110000Y-106720000D02*
X150060000Y-106720000D01*
X156265000Y-106875000D02*
X156110000Y-106720000D01*
X171882000Y-77720000D02*
X169520000Y-77720000D01*
X169520000Y-77720000D02*
X168420000Y-78820000D01*
X142364000Y-120904000D02*
X140600000Y-118750000D01*
X143764000Y-120904000D02*
X142364000Y-120904000D01*
X140600000Y-118750000D02*
X140600000Y-106420010D01*
X173795000Y-100010000D02*
X173795000Y-100220000D01*
X169320000Y-106380000D02*
X169631000Y-106380000D01*
X169320000Y-106380000D02*
X169600000Y-106380000D01*
X173265000Y-79103000D02*
X171882000Y-77720000D01*
X173265000Y-81090000D02*
X173265000Y-79103000D01*
X172815000Y-81540000D02*
X173265000Y-81090000D01*
X170865000Y-81540000D02*
X172815000Y-81540000D01*
X170515000Y-81890000D02*
X170865000Y-81540000D01*
X170515000Y-83590000D02*
X170515000Y-81890000D01*
X170990000Y-84065000D02*
X170515000Y-83590000D01*
X172565000Y-84065000D02*
X170990000Y-84065000D01*
X173795000Y-84725000D02*
X172565000Y-84065000D01*
X173795000Y-100010000D02*
X173795000Y-84725000D01*
X132334000Y-79502000D02*
X132334000Y-77470000D01*
X136144000Y-74422000D02*
X138684000Y-71882000D01*
X135382000Y-74422000D02*
X136144000Y-74422000D01*
X132334000Y-77470000D02*
X135382000Y-74422000D01*
X128778000Y-76962000D02*
X131318000Y-76962000D01*
X132334000Y-77978000D02*
X132334000Y-79502000D01*
X131318000Y-76962000D02*
X132334000Y-77978000D01*
X136144000Y-98044000D02*
X126816000Y-98044000D01*
X76680000Y-59560000D02*
X75330000Y-60910000D01*
X89870000Y-59560000D02*
X76680000Y-59560000D01*
X93074000Y-62510000D02*
X89870000Y-59560000D01*
X93074000Y-80530000D02*
X93074000Y-62510000D01*
X94600000Y-82310000D02*
X93074000Y-80530000D01*
X102040000Y-82310000D02*
X94600000Y-82310000D01*
X104110000Y-84030000D02*
X102040000Y-82310000D01*
X104110000Y-97400000D02*
X104110000Y-84030000D01*
X106040000Y-99330000D02*
X104110000Y-97400000D01*
X125280000Y-99330000D02*
X106040000Y-99330000D01*
X126816000Y-98044000D02*
X125280000Y-99330000D01*
X81390000Y-70100000D02*
X81390000Y-70770000D01*
X81390000Y-70770000D02*
X80410000Y-71750000D01*
X73760000Y-71750000D02*
X68060000Y-66050000D01*
X80410000Y-71750000D02*
X73760000Y-71750000D01*
X68060000Y-66050000D02*
X67950000Y-66050000D01*
X81390000Y-70100000D02*
X81390000Y-68410000D01*
X83750000Y-66050000D02*
X87270000Y-66050000D01*
X81390000Y-68410000D02*
X83750000Y-66050000D01*
X91440000Y-98552000D02*
X91440000Y-99822000D01*
X90170000Y-101092000D02*
X90170000Y-104140000D01*
X91440000Y-99822000D02*
X90170000Y-101092000D01*
X93726000Y-104140000D02*
X90170000Y-104140000D01*
X101250000Y-101250000D02*
X101250000Y-102660000D01*
X101250000Y-102660000D02*
X99970000Y-103940000D01*
X96340000Y-100020000D02*
X100020000Y-100020000D01*
X100020000Y-100020000D02*
X101250000Y-101250000D01*
X96340000Y-97480000D02*
X96340000Y-100020000D01*
X91440000Y-96012000D02*
X94872000Y-96012000D01*
X94872000Y-96012000D02*
X96340000Y-97480000D01*
X101250000Y-93630000D02*
X101250000Y-97694000D01*
X101250000Y-97694000D02*
X104902000Y-101600000D01*
X96340000Y-94940000D02*
X96760000Y-94940000D01*
X96760000Y-94940000D02*
X98070000Y-93630000D01*
X98070000Y-93630000D02*
X101250000Y-93630000D01*
X91440000Y-93472000D02*
X94872000Y-93472000D01*
X94872000Y-93472000D02*
X96340000Y-94940000D01*
X169320000Y-111460000D02*
X169560000Y-111460000D01*
X169560000Y-111460000D02*
X172020000Y-109000000D01*
X173210000Y-82800000D02*
X171882000Y-82800000D01*
X174540000Y-84130000D02*
X173210000Y-82800000D01*
X174540000Y-103520000D02*
X174540000Y-84130000D01*
X172020000Y-106040000D02*
X174540000Y-103520000D01*
X172020000Y-109000000D02*
X172020000Y-106040000D01*
X162780000Y-112280000D02*
X165350000Y-112280000D01*
X166600000Y-115970000D02*
X168400000Y-117770000D01*
X166600000Y-113530000D02*
X166600000Y-115970000D01*
X165350000Y-112280000D02*
X166600000Y-113530000D01*
X169050000Y-117770000D02*
X168400000Y-117770000D01*
X170960000Y-112630000D02*
X170960000Y-116740000D01*
X170960000Y-116740000D02*
X169930000Y-117770000D01*
X169930000Y-117770000D02*
X169050000Y-117770000D01*
X169790000Y-111460000D02*
X170960000Y-112630000D01*
X150476000Y-118364000D02*
X143764000Y-118364000D01*
X151910000Y-116930000D02*
X150476000Y-118364000D01*
X156130000Y-116930000D02*
X151910000Y-116930000D01*
X157350000Y-115710000D02*
X156130000Y-116930000D01*
X157350000Y-113890000D02*
X157350000Y-115710000D01*
X158960000Y-112280000D02*
X157350000Y-113890000D01*
X162780000Y-112280000D02*
X158960000Y-112280000D01*
X169320000Y-111460000D02*
X169790000Y-111460000D01*
X169806000Y-111460000D02*
X169320000Y-111460000D01*
X144028000Y-118100000D02*
X143764000Y-118364000D01*
X172025000Y-82800000D02*
X171882000Y-82800000D01*
X169320000Y-111460000D02*
X169880000Y-111460000D01*
X153416000Y-88700000D02*
X151184000Y-88700000D01*
X146666000Y-95344000D02*
X145260000Y-96750000D01*
X146666000Y-93218000D02*
X146666000Y-95344000D01*
X151184000Y-88700000D02*
X146666000Y-93218000D01*
X166410000Y-73340000D02*
X166410000Y-65240000D01*
X154050000Y-61740000D02*
X154050000Y-60690000D01*
X154490000Y-62180000D02*
X154050000Y-61740000D01*
X159490000Y-62180000D02*
X154490000Y-62180000D01*
X160820000Y-63510000D02*
X159490000Y-62180000D01*
X164680000Y-63510000D02*
X160820000Y-63510000D01*
X166410000Y-65240000D02*
X164680000Y-63510000D01*
X142400000Y-96750000D02*
X145260000Y-96750000D01*
X166410000Y-74710000D02*
X166410000Y-73340000D01*
X166410000Y-73340000D02*
X166410000Y-73010000D01*
X164230000Y-76890000D02*
X166410000Y-74710000D01*
X164230000Y-79890000D02*
X164230000Y-76890000D01*
X163040000Y-81080000D02*
X164230000Y-79890000D01*
X159910000Y-81080000D02*
X163040000Y-81080000D01*
X158760000Y-82230000D02*
X159910000Y-81080000D01*
X158760000Y-85390000D02*
X158760000Y-82230000D01*
X155450000Y-88700000D02*
X158760000Y-85390000D01*
X153416000Y-88700000D02*
X155450000Y-88700000D01*
X139970000Y-105540000D02*
X139970000Y-105530000D01*
X141410000Y-97740000D02*
X142400000Y-96750000D01*
X142400000Y-96750000D02*
X142410000Y-96740000D01*
X141410000Y-103950000D02*
X141410000Y-97740000D01*
X139970000Y-105530000D02*
X141410000Y-103950000D01*
X142570000Y-96740000D02*
X142410000Y-96740000D01*
X139970000Y-109708000D02*
X136144000Y-113284000D01*
X139970000Y-105540000D02*
X139970000Y-109708000D01*
X154050000Y-61450000D02*
X154050000Y-60690000D01*
X143764000Y-90424000D02*
X143324000Y-90424000D01*
X143324000Y-90424000D02*
X142300000Y-89400000D01*
X142300000Y-89400000D02*
X142300000Y-86600000D01*
X142300000Y-86600000D02*
X137184000Y-81234000D01*
X104900000Y-61040000D02*
X104900000Y-61466000D01*
X104900000Y-61466000D02*
X108712000Y-65278000D01*
X108712000Y-65278000D02*
X108712000Y-69088000D01*
X108712000Y-69088000D02*
X106172000Y-71628000D01*
X106172000Y-71628000D02*
X106172000Y-80518000D01*
X106172000Y-80518000D02*
X107138000Y-81234000D01*
X107138000Y-81234000D02*
X137184000Y-81234000D01*
X176940000Y-121620000D02*
X176950000Y-121620000D01*
X176950000Y-121620000D02*
X178230000Y-120340000D01*
X178230000Y-120340000D02*
X184670000Y-120320000D01*
X186330000Y-113970000D02*
X187620000Y-112680000D01*
X187620000Y-112680000D02*
X188480000Y-112680000D01*
X188480000Y-112680000D02*
X189050000Y-112110000D01*
X173140000Y-99080000D02*
X173140000Y-102710000D01*
X172010000Y-103840000D02*
X169320000Y-103840000D01*
X173140000Y-102710000D02*
X172010000Y-103840000D01*
X168845000Y-104295000D02*
X168845000Y-104319000D01*
X173140000Y-97510000D02*
X173140000Y-99080000D01*
X173140000Y-98690000D02*
X173140000Y-97510000D01*
X173140000Y-97510000D02*
X173140000Y-89138000D01*
X173140000Y-89138000D02*
X171882000Y-87880000D01*
X171882000Y-87880000D02*
X171575000Y-87880000D01*
X169320000Y-103840000D02*
X169320000Y-103806000D01*
X194130000Y-110840000D02*
X179990000Y-110840000D01*
X175540002Y-117680002D02*
X176940000Y-119080000D01*
X175540002Y-110609998D02*
X175540002Y-117680002D01*
X175950000Y-110200000D02*
X175540002Y-110609998D01*
X179350000Y-110200000D02*
X175950000Y-110200000D01*
X179990000Y-110840000D02*
X179350000Y-110200000D01*
X194120000Y-110830000D02*
X194130000Y-110840000D01*
X194090000Y-115880000D02*
X194130000Y-115920000D01*
X186940000Y-115880000D02*
X194090000Y-115880000D01*
X186500000Y-116320000D02*
X186940000Y-115880000D01*
X180180000Y-119330000D02*
X186120000Y-119330000D01*
X177390000Y-116540000D02*
X180180000Y-119330000D01*
X176940000Y-116540000D02*
X177390000Y-116540000D01*
X177372000Y-116108000D02*
X176940000Y-116540000D01*
X194130000Y-118460000D02*
X181452000Y-118460000D01*
X181452000Y-118460000D02*
X176992000Y-114000000D01*
X176992000Y-114000000D02*
X176940000Y-114000000D01*
X176306000Y-114000000D02*
X176940000Y-114000000D01*
X189050000Y-117190000D02*
X181452000Y-117190000D01*
X178308000Y-112828000D02*
X176940000Y-111460000D01*
X178308000Y-114046000D02*
X178308000Y-112828000D01*
X181452000Y-117190000D02*
X178308000Y-114046000D01*
X169320000Y-119080000D02*
X173500000Y-119080000D01*
X174230000Y-108470000D02*
X175090000Y-107610000D01*
X174230000Y-118350000D02*
X174230000Y-108470000D01*
X173500000Y-119080000D02*
X174230000Y-118350000D01*
X176520000Y-107610000D02*
X175090000Y-107610000D01*
X179880000Y-109570000D02*
X189050000Y-109570000D01*
X177920000Y-107610000D02*
X179880000Y-109570000D01*
X176030000Y-107610000D02*
X176520000Y-107610000D01*
X176520000Y-107610000D02*
X177920000Y-107610000D01*
X188650000Y-109970000D02*
X189050000Y-109570000D01*
X164310000Y-61990000D02*
X162070000Y-61990000D01*
X164310000Y-62000000D02*
X164310000Y-61990000D01*
X165470000Y-62000000D02*
X164310000Y-62000000D01*
X168010000Y-64540000D02*
X165470000Y-62000000D01*
X161670000Y-61590000D02*
X161670000Y-60690000D01*
X162070000Y-61990000D02*
X161670000Y-61590000D01*
X182220002Y-80081998D02*
X179502000Y-82800000D01*
X182220002Y-74540002D02*
X182220002Y-80081998D01*
X179769998Y-72569998D02*
X182220002Y-74540002D01*
X168010000Y-72840000D02*
X168010000Y-64540000D01*
X170350000Y-72569998D02*
X170200002Y-72569998D01*
X170200002Y-72569998D02*
X169230000Y-73540000D01*
X170160002Y-72569998D02*
X170350000Y-72569998D01*
X170350000Y-72569998D02*
X179769998Y-72569998D01*
X169225000Y-75195000D02*
X169225000Y-76155000D01*
X169225000Y-76155000D02*
X169290000Y-76220000D01*
X168130000Y-75720000D02*
X168790000Y-75720000D01*
X168790000Y-75720000D02*
X169290000Y-76220000D01*
X167940000Y-74050000D02*
X168010000Y-73980000D01*
X168010000Y-73980000D02*
X168010000Y-72840000D01*
X168700000Y-75720000D02*
X168130000Y-75720000D01*
X168130000Y-75720000D02*
X167690000Y-75720000D01*
X169230000Y-75190000D02*
X169225000Y-75195000D01*
X169225000Y-75195000D02*
X168700000Y-75720000D01*
X169230000Y-73540000D02*
X169230000Y-75190000D01*
X167690000Y-75720000D02*
X165770000Y-77640000D01*
X165770000Y-77640000D02*
X165770000Y-93570000D01*
X165770000Y-93570000D02*
X164270000Y-95070000D01*
X164270000Y-95070000D02*
X161860000Y-95070000D01*
X174940000Y-74550000D02*
X174380000Y-74550000D01*
X167260534Y-71369466D02*
X167260534Y-64890003D01*
X167220000Y-71410000D02*
X167260534Y-71369466D01*
X173450000Y-73620000D02*
X171020000Y-73620000D01*
X174380000Y-74550000D02*
X173450000Y-73620000D01*
X176110000Y-73230000D02*
X176110000Y-73380000D01*
X173070000Y-76420000D02*
X170390000Y-76420000D01*
X176110000Y-73380000D02*
X174940000Y-74550000D01*
X174940000Y-74550000D02*
X173070000Y-76420000D01*
X167850000Y-77070000D02*
X166540000Y-78380000D01*
X169740000Y-77070000D02*
X167850000Y-77070000D01*
X170390000Y-76420000D02*
X169740000Y-77070000D01*
X161860000Y-97610000D02*
X162960000Y-97610000D01*
X162960000Y-97610000D02*
X166540000Y-94030000D01*
X166540000Y-94030000D02*
X166540000Y-78380000D01*
X161139998Y-62669998D02*
X159130000Y-60690000D01*
X167260534Y-64890003D02*
X165069998Y-62669998D01*
X165069998Y-62669998D02*
X161139998Y-62669998D01*
X167300000Y-64930000D02*
X167260534Y-64890003D01*
X180530000Y-80260000D02*
X179502000Y-80260000D01*
X181670000Y-79120000D02*
X180530000Y-80260000D01*
X181670000Y-75110000D02*
X181670000Y-79120000D01*
X179360000Y-73230000D02*
X181670000Y-75110000D01*
X176110000Y-73230000D02*
X179360000Y-73230000D01*
X170610000Y-71409998D02*
X170409998Y-71409998D01*
X167500000Y-61000000D02*
X167500000Y-61010000D01*
X169150000Y-62650000D02*
X167500000Y-61000000D01*
X169150000Y-70150000D02*
X169150000Y-62650000D01*
X170409998Y-71409998D02*
X169150000Y-70150000D01*
X165430000Y-58950000D02*
X165440000Y-58950000D01*
X165440000Y-58950000D02*
X167500000Y-61010000D01*
X153250000Y-58950000D02*
X151510000Y-60690000D01*
X165430000Y-58950000D02*
X153250000Y-58950000D01*
X179502000Y-77720000D02*
X178350000Y-77720000D01*
X181489998Y-71409998D02*
X170610000Y-71409998D01*
X183610000Y-73530000D02*
X181489998Y-71409998D01*
X183610000Y-83840000D02*
X183610000Y-73530000D01*
X180870000Y-86580000D02*
X183610000Y-83840000D01*
X178700000Y-86580000D02*
X180870000Y-86580000D01*
X177930000Y-85810000D02*
X178700000Y-86580000D01*
X177930000Y-78140000D02*
X177930000Y-85810000D01*
X178350000Y-77720000D02*
X177930000Y-78140000D01*
X147130000Y-56380000D02*
X146350000Y-56380000D01*
X112520000Y-52160000D02*
X112520000Y-53420000D01*
X114670000Y-50010000D02*
X112520000Y-52160000D01*
X132600000Y-50010000D02*
X114670000Y-50010000D01*
X136120000Y-53530000D02*
X132600000Y-50010000D01*
X143500000Y-53530000D02*
X136120000Y-53530000D01*
X146350000Y-56380000D02*
X143500000Y-53530000D01*
X179502000Y-92960000D02*
X179980000Y-92960000D01*
X179980000Y-92960000D02*
X185720002Y-87219998D01*
X169000000Y-56380000D02*
X147130000Y-56380000D01*
X170940000Y-58320000D02*
X169000000Y-56380000D01*
X170940000Y-68099998D02*
X170940000Y-58320000D01*
X172190002Y-69350000D02*
X170940000Y-68099998D01*
X182820000Y-69350000D02*
X172190002Y-69350000D01*
X185720002Y-72250002D02*
X182820000Y-69350000D01*
X185720002Y-87219998D02*
X185720002Y-72250002D01*
X146460000Y-57000000D02*
X145960000Y-57000000D01*
X115060000Y-52080000D02*
X115060000Y-53420000D01*
X116579998Y-50560002D02*
X115060000Y-52080000D01*
X132170002Y-50560002D02*
X116579998Y-50560002D01*
X135760000Y-54150000D02*
X132170002Y-50560002D01*
X143110000Y-54150000D02*
X135760000Y-54150000D01*
X145960000Y-57000000D02*
X143110000Y-54150000D01*
X179502000Y-90420000D02*
X181460000Y-90420000D01*
X168840000Y-57000000D02*
X146460000Y-57000000D01*
X170320000Y-58480000D02*
X168840000Y-57000000D01*
X170320000Y-68560000D02*
X170320000Y-58480000D01*
X171720000Y-69960000D02*
X170320000Y-68560000D01*
X182330000Y-69960000D02*
X171720000Y-69960000D01*
X185170000Y-72800000D02*
X182330000Y-69960000D01*
X185170000Y-86710000D02*
X185170000Y-72800000D01*
X181460000Y-90420000D02*
X185170000Y-86710000D01*
X146230000Y-57610000D02*
X145350000Y-57610000D01*
X117600000Y-52440000D02*
X117600000Y-53420000D01*
X118720000Y-51320000D02*
X117600000Y-52440000D01*
X131940000Y-51320000D02*
X118720000Y-51320000D01*
X135480000Y-54860000D02*
X131940000Y-51320000D01*
X142600000Y-54860000D02*
X135480000Y-54860000D01*
X145350000Y-57610000D02*
X142600000Y-54860000D01*
X179502000Y-87880000D02*
X182250000Y-87880000D01*
X168450000Y-57610000D02*
X146230000Y-57610000D01*
X169740000Y-58900000D02*
X168450000Y-57610000D01*
X169740000Y-69730000D02*
X169740000Y-58900000D01*
X170640000Y-70630000D02*
X169740000Y-69730000D01*
X182000000Y-70630000D02*
X170640000Y-70630000D01*
X184600000Y-73230000D02*
X182000000Y-70630000D01*
X184600000Y-85530000D02*
X184600000Y-73230000D01*
X182250000Y-87880000D02*
X184600000Y-85530000D01*
X169990000Y-71960000D02*
X169860000Y-71960000D01*
X165720000Y-60690000D02*
X164210000Y-60690000D01*
X168599998Y-63569998D02*
X165720000Y-60690000D01*
X168599998Y-70699998D02*
X168599998Y-63569998D01*
X169860000Y-71960000D02*
X169595000Y-71695000D01*
X169595000Y-71695000D02*
X168599998Y-70699998D01*
X170550000Y-71960000D02*
X169990000Y-71960000D01*
X164210000Y-60690000D02*
X164570000Y-60690000D01*
X169848000Y-71960000D02*
X169926000Y-71960000D01*
X182950000Y-81892000D02*
X179502000Y-85340000D01*
X182950000Y-73980000D02*
X182950000Y-81892000D01*
X180380000Y-71960000D02*
X182950000Y-73980000D01*
X169926000Y-71960000D02*
X170550000Y-71960000D01*
X170550000Y-71960000D02*
X180380000Y-71960000D01*
X179502000Y-85340000D02*
X178990002Y-85340000D01*
X169595000Y-71695000D02*
X169595000Y-71955000D01*
X169595000Y-71955000D02*
X168670000Y-72880000D01*
X168670000Y-72880000D02*
X168670000Y-74470000D01*
X168670000Y-74470000D02*
X168070000Y-75070000D01*
X168070000Y-75070000D02*
X167220000Y-75070000D01*
X167220000Y-75070000D02*
X165070000Y-77220000D01*
X165070000Y-77220000D02*
X165070000Y-91680000D01*
X165070000Y-91680000D02*
X164220000Y-92530000D01*
X164220000Y-92530000D02*
X161860000Y-92530000D01*
X150240000Y-60410000D02*
X150240000Y-60090000D01*
X167150000Y-58340000D02*
X167950000Y-59140000D01*
X151990000Y-58340000D02*
X167150000Y-58340000D01*
X150240000Y-60090000D02*
X151990000Y-58340000D01*
X151510000Y-68310000D02*
X151510000Y-67130000D01*
X150240000Y-65860000D02*
X150240000Y-60410000D01*
X150240000Y-60410000D02*
X150240000Y-60100000D01*
X151510000Y-67130000D02*
X150240000Y-65860000D01*
X151384000Y-82804000D02*
X148594000Y-82804000D01*
X143020000Y-77230000D02*
X143020000Y-77234000D01*
X148594000Y-82804000D02*
X143020000Y-77230000D01*
X161036000Y-107188000D02*
X160782000Y-107188000D01*
X160782000Y-107188000D02*
X158242000Y-104648000D01*
X158242000Y-104648000D02*
X148844000Y-104648000D01*
X148844000Y-104648000D02*
X147320000Y-103124000D01*
X147320000Y-103124000D02*
X147320000Y-101346000D01*
X147320000Y-101346000D02*
X152146000Y-96520000D01*
X152146000Y-96520000D02*
X152146000Y-91186000D01*
X143020000Y-77234000D02*
X141732000Y-75946000D01*
X141732000Y-75946000D02*
X141732000Y-71882000D01*
X141732000Y-71882000D02*
X142494000Y-71120000D01*
X142494000Y-71120000D02*
X146160000Y-71120000D01*
X146160000Y-71120000D02*
X148970000Y-68310000D01*
X146430000Y-68310000D02*
X146430000Y-66460000D01*
X146430000Y-66460000D02*
X139710000Y-59740000D01*
X143002000Y-59182000D02*
X147828000Y-59182000D01*
X147828000Y-59182000D02*
X148970000Y-60324000D01*
X148970000Y-60324000D02*
X148970000Y-60690000D01*
X128778000Y-66548000D02*
X128778000Y-66802000D01*
X128778000Y-66802000D02*
X127000000Y-68580000D01*
X127000000Y-68580000D02*
X127000000Y-73406000D01*
X127000000Y-73406000D02*
X128016000Y-74422000D01*
X128016000Y-74422000D02*
X128778000Y-74422000D01*
X132334000Y-71882000D02*
X132334000Y-72898000D01*
X130810000Y-74422000D02*
X128778000Y-74422000D01*
X132334000Y-72898000D02*
X130810000Y-74422000D01*
X135636000Y-71882000D02*
X132334000Y-71882000D01*
X151400000Y-102800000D02*
X151400000Y-102110000D01*
X151400000Y-102110000D02*
X153620000Y-99820000D01*
X153620000Y-99820000D02*
X156480000Y-99820000D01*
X156480000Y-99820000D02*
X157960000Y-98340000D01*
X157960000Y-98340000D02*
X157960000Y-91440000D01*
X153940000Y-102800000D02*
X153940000Y-102120000D01*
X153940000Y-102120000D02*
X155290000Y-100700000D01*
X155290000Y-100700000D02*
X156740000Y-100700000D01*
X156740000Y-100700000D02*
X158720000Y-98720000D01*
X158720000Y-98720000D02*
X158720000Y-86950000D01*
X158720000Y-86950000D02*
X160290000Y-85380000D01*
X160290000Y-85380000D02*
X160290000Y-83940000D01*
X160290000Y-83940000D02*
X161860000Y-82370000D01*
X156480000Y-102800000D02*
X156480000Y-102670000D01*
X156480000Y-102670000D02*
X159600000Y-99020000D01*
X159600000Y-99020000D02*
X159600000Y-87020000D01*
X159600000Y-87020000D02*
X161860000Y-85220000D01*
X161860000Y-85220000D02*
X161860000Y-84910000D01*
X159020000Y-102800000D02*
X159020000Y-102040000D01*
X159020000Y-102040000D02*
X160250000Y-100740000D01*
X160250000Y-100740000D02*
X160250000Y-89270000D01*
X160250000Y-89270000D02*
X161860000Y-87660000D01*
X161860000Y-87660000D02*
X161860000Y-87450000D01*
X154050000Y-68310000D02*
X154050000Y-70150000D01*
X146926000Y-72530000D02*
X145288000Y-74168000D01*
X148190000Y-72530000D02*
X146926000Y-72530000D01*
X148550000Y-72170000D02*
X148190000Y-72530000D01*
X149810000Y-72170000D02*
X148550000Y-72170000D01*
X150680000Y-71300000D02*
X149810000Y-72170000D01*
X152470000Y-71300000D02*
X150680000Y-71300000D01*
X153250000Y-70520000D02*
X152470000Y-71300000D01*
X153680000Y-70520000D02*
X153250000Y-70520000D01*
X154050000Y-70150000D02*
X153680000Y-70520000D01*
X154050000Y-68310000D02*
X154050000Y-68450000D01*
X156590000Y-68310000D02*
X156590000Y-70680000D01*
X149216000Y-72780000D02*
X147828000Y-74168000D01*
X150690000Y-72780000D02*
X149216000Y-72780000D01*
X151500000Y-71970000D02*
X150690000Y-72780000D01*
X152720000Y-71970000D02*
X151500000Y-71970000D01*
X153610000Y-71080000D02*
X152720000Y-71970000D01*
X156190000Y-71080000D02*
X153610000Y-71080000D01*
X156590000Y-70680000D02*
X156190000Y-71080000D01*
X156590000Y-68310000D02*
X156590000Y-68450000D01*
X159130000Y-68310000D02*
X159130000Y-70450000D01*
X151896000Y-72640000D02*
X150368000Y-74168000D01*
X153340000Y-72640000D02*
X151896000Y-72640000D01*
X154150000Y-71830000D02*
X153340000Y-72640000D01*
X157750000Y-71830000D02*
X154150000Y-71830000D01*
X159130000Y-70450000D02*
X157750000Y-71830000D01*
X159130000Y-68310000D02*
X159130000Y-68450000D01*
X161670000Y-68310000D02*
X161670000Y-69030000D01*
X161670000Y-69030000D02*
X158200000Y-72500000D01*
X154576000Y-72500000D02*
X152908000Y-74168000D01*
X158200000Y-72500000D02*
X154576000Y-72500000D01*
X161670000Y-68310000D02*
X161670000Y-68962000D01*
X161670000Y-68310000D02*
X161670000Y-68450000D01*
X102220000Y-46630000D02*
X102370000Y-46630000D01*
X102370000Y-46630000D02*
X107440000Y-51700000D01*
X107440000Y-51700000D02*
X107440000Y-53420000D01*
X107370000Y-53350000D02*
X107440000Y-53420000D01*
X99680000Y-46630000D02*
X99860000Y-46630000D01*
X99860000Y-46630000D02*
X104900000Y-51670000D01*
X104900000Y-51670000D02*
X104900000Y-53420000D01*
X104830000Y-53350000D02*
X104900000Y-53420000D01*
X97140000Y-46630000D02*
X97140000Y-46960000D01*
X97140000Y-46960000D02*
X102360000Y-52180000D01*
X102360000Y-52180000D02*
X102360000Y-53420000D01*
X102290000Y-53350000D02*
X102360000Y-53420000D01*
X86310000Y-53340000D02*
X86310000Y-45820000D01*
X87290000Y-44840000D02*
X95670000Y-44840000D01*
X86310000Y-45820000D02*
X87290000Y-44840000D01*
X94600000Y-46630000D02*
X94600000Y-45910000D01*
X94600000Y-45910000D02*
X95670000Y-44840000D01*
X95670000Y-44840000D02*
X103940000Y-44840000D01*
X103940000Y-44840000D02*
X105270000Y-46170000D01*
X105270000Y-46170000D02*
X105270000Y-47020000D01*
X105270000Y-47020000D02*
X109980000Y-51730000D01*
X109980000Y-51730000D02*
X109980000Y-53420000D01*
X79720000Y-64350000D02*
X89110000Y-64350000D01*
X90980000Y-66220000D02*
X90980000Y-67930000D01*
X89110000Y-64350000D02*
X90980000Y-66220000D01*
X79650000Y-66050000D02*
X79650000Y-69300000D01*
X79650000Y-69300000D02*
X78850000Y-70100000D01*
X79720000Y-62700000D02*
X79720000Y-64350000D01*
X79720000Y-64350000D02*
X79720000Y-65980000D01*
X79720000Y-65980000D02*
X79650000Y-66050000D01*
X73950000Y-81040000D02*
X71620000Y-81040000D01*
X71620000Y-81040000D02*
X70970000Y-80390000D01*
X73950000Y-81040000D02*
X73950000Y-84280000D01*
X73950000Y-84280000D02*
X73910000Y-84320000D01*
X76310000Y-77720000D02*
X76310000Y-79750000D01*
X75020000Y-81040000D02*
X73950000Y-81040000D01*
X76310000Y-79750000D02*
X75020000Y-81040000D01*
X112602000Y-125984000D02*
X112602000Y-126064000D01*
X112602000Y-126064000D02*
X116078000Y-129540000D01*
X116078000Y-129540000D02*
X117602000Y-129540000D01*
X111340000Y-68700000D02*
X111340000Y-71794000D01*
X111340000Y-71794000D02*
X111252000Y-71882000D01*
X111252000Y-71882000D02*
X107950000Y-71882000D01*
X116332000Y-73152000D02*
X116332000Y-75692000D01*
X116332000Y-73152000D02*
X112522000Y-73152000D01*
X112522000Y-73152000D02*
X111252000Y-71882000D01*
X121158000Y-71882000D02*
X117602000Y-71882000D01*
X117602000Y-71882000D02*
X116332000Y-73152000D01*
X83820000Y-86106000D02*
X83820000Y-90932000D01*
X79248000Y-91948000D02*
X76962000Y-91948000D01*
X76962000Y-91948000D02*
X75438000Y-90424000D01*
X75438000Y-90424000D02*
X74676000Y-90424000D01*
X83820000Y-90932000D02*
X82296000Y-90932000D01*
X81280000Y-91948000D02*
X79248000Y-91948000D01*
X82296000Y-90932000D02*
X81280000Y-91948000D01*
X83820000Y-90932000D02*
X83820000Y-89916000D01*
X83820000Y-89916000D02*
X81534000Y-87630000D01*
X81534000Y-124206000D02*
X79756000Y-124206000D01*
X79756000Y-124206000D02*
X78740000Y-125222000D01*
X83566000Y-129286000D02*
X82804000Y-129286000D01*
X82804000Y-129286000D02*
X78740000Y-125222000D01*
X86614000Y-129286000D02*
X86868000Y-129032000D01*
X83566000Y-129286000D02*
X86614000Y-129286000D01*
X125476000Y-95504000D02*
X124968000Y-95504000D01*
X124968000Y-95504000D02*
X123444000Y-93980000D01*
X123444000Y-93980000D02*
X112522000Y-93980000D01*
X112522000Y-93980000D02*
X111192000Y-92650000D01*
X111192000Y-92650000D02*
X108240000Y-92650000D01*
M02*
