%TF.GenerationSoftware,KiCad,Pcbnew,7.0.11+dfsg-1build4*%
%TF.CreationDate,2025-02-02T21:03:16-06:00*%
%TF.ProjectId,ControlBoard,436f6e74-726f-46c4-926f-6172642e6b69,rev?*%
%TF.SameCoordinates,Original*%
%TF.FileFunction,Drillmap*%
%TF.FilePolarity,Positive*%
%FSLAX45Y45*%
G04 Gerber Fmt 4.5, Leading zero omitted, Abs format (unit mm)*
G04 Created by KiCad (PCBNEW 7.0.11+dfsg-1build4) date 2025-02-02 21:03:16*
%MOMM*%
%LPD*%
G01*
G04 APERTURE LIST*
%ADD10C,0.150000*%
%ADD11C,0.200000*%
%ADD12C,0.304800*%
G04 APERTURE END LIST*
D10*
X5500000Y-14500000D02*
X5500000Y-3900000D01*
X19900000Y-14500000D02*
X5500000Y-14500000D01*
X19900000Y-3900000D02*
X19900000Y-14500000D01*
X5500000Y-3900000D02*
X19900000Y-3900000D01*
D11*
D12*
X5747600Y-4147600D02*
X6052400Y-4452400D01*
X6052400Y-4147600D02*
X5747600Y-4452400D01*
X5747600Y-13947600D02*
X6052400Y-14252400D01*
X6052400Y-13947600D02*
X5747600Y-14252400D01*
X19447600Y-4147600D02*
X19752400Y-4452400D01*
X19752400Y-4147600D02*
X19447600Y-4452400D01*
X19447600Y-13947600D02*
X19752400Y-14252400D01*
X19752400Y-13947600D02*
X19447600Y-14252400D01*
D11*
X5753277Y-14818984D02*
X5753277Y-14618984D01*
X5753277Y-14618984D02*
X5800896Y-14618984D01*
X5800896Y-14618984D02*
X5829467Y-14628508D01*
X5829467Y-14628508D02*
X5848515Y-14647555D01*
X5848515Y-14647555D02*
X5858039Y-14666603D01*
X5858039Y-14666603D02*
X5867562Y-14704698D01*
X5867562Y-14704698D02*
X5867562Y-14733269D01*
X5867562Y-14733269D02*
X5858039Y-14771365D01*
X5858039Y-14771365D02*
X5848515Y-14790412D01*
X5848515Y-14790412D02*
X5829467Y-14809460D01*
X5829467Y-14809460D02*
X5800896Y-14818984D01*
X5800896Y-14818984D02*
X5753277Y-14818984D01*
X5953277Y-14818984D02*
X5953277Y-14685650D01*
X5953277Y-14723746D02*
X5962801Y-14704698D01*
X5962801Y-14704698D02*
X5972324Y-14695174D01*
X5972324Y-14695174D02*
X5991372Y-14685650D01*
X5991372Y-14685650D02*
X6010420Y-14685650D01*
X6077086Y-14818984D02*
X6077086Y-14685650D01*
X6077086Y-14618984D02*
X6067562Y-14628508D01*
X6067562Y-14628508D02*
X6077086Y-14638031D01*
X6077086Y-14638031D02*
X6086610Y-14628508D01*
X6086610Y-14628508D02*
X6077086Y-14618984D01*
X6077086Y-14618984D02*
X6077086Y-14638031D01*
X6200896Y-14818984D02*
X6181848Y-14809460D01*
X6181848Y-14809460D02*
X6172324Y-14790412D01*
X6172324Y-14790412D02*
X6172324Y-14618984D01*
X6305658Y-14818984D02*
X6286610Y-14809460D01*
X6286610Y-14809460D02*
X6277086Y-14790412D01*
X6277086Y-14790412D02*
X6277086Y-14618984D01*
X6534229Y-14818984D02*
X6534229Y-14618984D01*
X6534229Y-14618984D02*
X6600896Y-14761841D01*
X6600896Y-14761841D02*
X6667562Y-14618984D01*
X6667562Y-14618984D02*
X6667562Y-14818984D01*
X6848515Y-14818984D02*
X6848515Y-14714222D01*
X6848515Y-14714222D02*
X6838991Y-14695174D01*
X6838991Y-14695174D02*
X6819943Y-14685650D01*
X6819943Y-14685650D02*
X6781848Y-14685650D01*
X6781848Y-14685650D02*
X6762801Y-14695174D01*
X6848515Y-14809460D02*
X6829467Y-14818984D01*
X6829467Y-14818984D02*
X6781848Y-14818984D01*
X6781848Y-14818984D02*
X6762801Y-14809460D01*
X6762801Y-14809460D02*
X6753277Y-14790412D01*
X6753277Y-14790412D02*
X6753277Y-14771365D01*
X6753277Y-14771365D02*
X6762801Y-14752317D01*
X6762801Y-14752317D02*
X6781848Y-14742793D01*
X6781848Y-14742793D02*
X6829467Y-14742793D01*
X6829467Y-14742793D02*
X6848515Y-14733269D01*
X6943753Y-14685650D02*
X6943753Y-14885650D01*
X6943753Y-14695174D02*
X6962801Y-14685650D01*
X6962801Y-14685650D02*
X7000896Y-14685650D01*
X7000896Y-14685650D02*
X7019943Y-14695174D01*
X7019943Y-14695174D02*
X7029467Y-14704698D01*
X7029467Y-14704698D02*
X7038991Y-14723746D01*
X7038991Y-14723746D02*
X7038991Y-14780888D01*
X7038991Y-14780888D02*
X7029467Y-14799936D01*
X7029467Y-14799936D02*
X7019943Y-14809460D01*
X7019943Y-14809460D02*
X7000896Y-14818984D01*
X7000896Y-14818984D02*
X6962801Y-14818984D01*
X6962801Y-14818984D02*
X6943753Y-14809460D01*
X7124705Y-14799936D02*
X7134229Y-14809460D01*
X7134229Y-14809460D02*
X7124705Y-14818984D01*
X7124705Y-14818984D02*
X7115182Y-14809460D01*
X7115182Y-14809460D02*
X7124705Y-14799936D01*
X7124705Y-14799936D02*
X7124705Y-14818984D01*
X7124705Y-14695174D02*
X7134229Y-14704698D01*
X7134229Y-14704698D02*
X7124705Y-14714222D01*
X7124705Y-14714222D02*
X7115182Y-14704698D01*
X7115182Y-14704698D02*
X7124705Y-14695174D01*
X7124705Y-14695174D02*
X7124705Y-14714222D01*
X5292500Y-15047500D02*
X5492500Y-15247500D01*
X5492500Y-15047500D02*
X5292500Y-15247500D01*
X5734229Y-15038984D02*
X5858039Y-15038984D01*
X5858039Y-15038984D02*
X5791372Y-15115174D01*
X5791372Y-15115174D02*
X5819943Y-15115174D01*
X5819943Y-15115174D02*
X5838991Y-15124698D01*
X5838991Y-15124698D02*
X5848515Y-15134222D01*
X5848515Y-15134222D02*
X5858039Y-15153269D01*
X5858039Y-15153269D02*
X5858039Y-15200888D01*
X5858039Y-15200888D02*
X5848515Y-15219936D01*
X5848515Y-15219936D02*
X5838991Y-15229460D01*
X5838991Y-15229460D02*
X5819943Y-15238984D01*
X5819943Y-15238984D02*
X5762801Y-15238984D01*
X5762801Y-15238984D02*
X5743753Y-15229460D01*
X5743753Y-15229460D02*
X5734229Y-15219936D01*
X5943753Y-15219936D02*
X5953277Y-15229460D01*
X5953277Y-15229460D02*
X5943753Y-15238984D01*
X5943753Y-15238984D02*
X5934229Y-15229460D01*
X5934229Y-15229460D02*
X5943753Y-15219936D01*
X5943753Y-15219936D02*
X5943753Y-15238984D01*
X6077086Y-15038984D02*
X6096134Y-15038984D01*
X6096134Y-15038984D02*
X6115182Y-15048508D01*
X6115182Y-15048508D02*
X6124705Y-15058031D01*
X6124705Y-15058031D02*
X6134229Y-15077079D01*
X6134229Y-15077079D02*
X6143753Y-15115174D01*
X6143753Y-15115174D02*
X6143753Y-15162793D01*
X6143753Y-15162793D02*
X6134229Y-15200888D01*
X6134229Y-15200888D02*
X6124705Y-15219936D01*
X6124705Y-15219936D02*
X6115182Y-15229460D01*
X6115182Y-15229460D02*
X6096134Y-15238984D01*
X6096134Y-15238984D02*
X6077086Y-15238984D01*
X6077086Y-15238984D02*
X6058039Y-15229460D01*
X6058039Y-15229460D02*
X6048515Y-15219936D01*
X6048515Y-15219936D02*
X6038991Y-15200888D01*
X6038991Y-15200888D02*
X6029467Y-15162793D01*
X6029467Y-15162793D02*
X6029467Y-15115174D01*
X6029467Y-15115174D02*
X6038991Y-15077079D01*
X6038991Y-15077079D02*
X6048515Y-15058031D01*
X6048515Y-15058031D02*
X6058039Y-15048508D01*
X6058039Y-15048508D02*
X6077086Y-15038984D01*
X6315182Y-15105650D02*
X6315182Y-15238984D01*
X6267562Y-15029460D02*
X6219943Y-15172317D01*
X6219943Y-15172317D02*
X6343753Y-15172317D01*
X6448515Y-15124698D02*
X6429467Y-15115174D01*
X6429467Y-15115174D02*
X6419943Y-15105650D01*
X6419943Y-15105650D02*
X6410420Y-15086603D01*
X6410420Y-15086603D02*
X6410420Y-15077079D01*
X6410420Y-15077079D02*
X6419943Y-15058031D01*
X6419943Y-15058031D02*
X6429467Y-15048508D01*
X6429467Y-15048508D02*
X6448515Y-15038984D01*
X6448515Y-15038984D02*
X6486610Y-15038984D01*
X6486610Y-15038984D02*
X6505658Y-15048508D01*
X6505658Y-15048508D02*
X6515182Y-15058031D01*
X6515182Y-15058031D02*
X6524705Y-15077079D01*
X6524705Y-15077079D02*
X6524705Y-15086603D01*
X6524705Y-15086603D02*
X6515182Y-15105650D01*
X6515182Y-15105650D02*
X6505658Y-15115174D01*
X6505658Y-15115174D02*
X6486610Y-15124698D01*
X6486610Y-15124698D02*
X6448515Y-15124698D01*
X6448515Y-15124698D02*
X6429467Y-15134222D01*
X6429467Y-15134222D02*
X6419943Y-15143746D01*
X6419943Y-15143746D02*
X6410420Y-15162793D01*
X6410420Y-15162793D02*
X6410420Y-15200888D01*
X6410420Y-15200888D02*
X6419943Y-15219936D01*
X6419943Y-15219936D02*
X6429467Y-15229460D01*
X6429467Y-15229460D02*
X6448515Y-15238984D01*
X6448515Y-15238984D02*
X6486610Y-15238984D01*
X6486610Y-15238984D02*
X6505658Y-15229460D01*
X6505658Y-15229460D02*
X6515182Y-15219936D01*
X6515182Y-15219936D02*
X6524705Y-15200888D01*
X6524705Y-15200888D02*
X6524705Y-15162793D01*
X6524705Y-15162793D02*
X6515182Y-15143746D01*
X6515182Y-15143746D02*
X6505658Y-15134222D01*
X6505658Y-15134222D02*
X6486610Y-15124698D01*
X6610420Y-15238984D02*
X6610420Y-15105650D01*
X6610420Y-15124698D02*
X6619943Y-15115174D01*
X6619943Y-15115174D02*
X6638991Y-15105650D01*
X6638991Y-15105650D02*
X6667563Y-15105650D01*
X6667563Y-15105650D02*
X6686610Y-15115174D01*
X6686610Y-15115174D02*
X6696134Y-15134222D01*
X6696134Y-15134222D02*
X6696134Y-15238984D01*
X6696134Y-15134222D02*
X6705658Y-15115174D01*
X6705658Y-15115174D02*
X6724705Y-15105650D01*
X6724705Y-15105650D02*
X6753277Y-15105650D01*
X6753277Y-15105650D02*
X6772324Y-15115174D01*
X6772324Y-15115174D02*
X6781848Y-15134222D01*
X6781848Y-15134222D02*
X6781848Y-15238984D01*
X6877086Y-15238984D02*
X6877086Y-15105650D01*
X6877086Y-15124698D02*
X6886610Y-15115174D01*
X6886610Y-15115174D02*
X6905658Y-15105650D01*
X6905658Y-15105650D02*
X6934229Y-15105650D01*
X6934229Y-15105650D02*
X6953277Y-15115174D01*
X6953277Y-15115174D02*
X6962801Y-15134222D01*
X6962801Y-15134222D02*
X6962801Y-15238984D01*
X6962801Y-15134222D02*
X6972324Y-15115174D01*
X6972324Y-15115174D02*
X6991372Y-15105650D01*
X6991372Y-15105650D02*
X7019943Y-15105650D01*
X7019943Y-15105650D02*
X7038991Y-15115174D01*
X7038991Y-15115174D02*
X7048515Y-15134222D01*
X7048515Y-15134222D02*
X7048515Y-15238984D01*
X7438991Y-15029460D02*
X7267563Y-15286603D01*
X7696134Y-15038984D02*
X7715182Y-15038984D01*
X7715182Y-15038984D02*
X7734229Y-15048508D01*
X7734229Y-15048508D02*
X7743753Y-15058031D01*
X7743753Y-15058031D02*
X7753277Y-15077079D01*
X7753277Y-15077079D02*
X7762801Y-15115174D01*
X7762801Y-15115174D02*
X7762801Y-15162793D01*
X7762801Y-15162793D02*
X7753277Y-15200888D01*
X7753277Y-15200888D02*
X7743753Y-15219936D01*
X7743753Y-15219936D02*
X7734229Y-15229460D01*
X7734229Y-15229460D02*
X7715182Y-15238984D01*
X7715182Y-15238984D02*
X7696134Y-15238984D01*
X7696134Y-15238984D02*
X7677086Y-15229460D01*
X7677086Y-15229460D02*
X7667563Y-15219936D01*
X7667563Y-15219936D02*
X7658039Y-15200888D01*
X7658039Y-15200888D02*
X7648515Y-15162793D01*
X7648515Y-15162793D02*
X7648515Y-15115174D01*
X7648515Y-15115174D02*
X7658039Y-15077079D01*
X7658039Y-15077079D02*
X7667563Y-15058031D01*
X7667563Y-15058031D02*
X7677086Y-15048508D01*
X7677086Y-15048508D02*
X7696134Y-15038984D01*
X7848515Y-15219936D02*
X7858039Y-15229460D01*
X7858039Y-15229460D02*
X7848515Y-15238984D01*
X7848515Y-15238984D02*
X7838991Y-15229460D01*
X7838991Y-15229460D02*
X7848515Y-15219936D01*
X7848515Y-15219936D02*
X7848515Y-15238984D01*
X8048515Y-15238984D02*
X7934229Y-15238984D01*
X7991372Y-15238984D02*
X7991372Y-15038984D01*
X7991372Y-15038984D02*
X7972325Y-15067555D01*
X7972325Y-15067555D02*
X7953277Y-15086603D01*
X7953277Y-15086603D02*
X7934229Y-15096127D01*
X8124706Y-15058031D02*
X8134229Y-15048508D01*
X8134229Y-15048508D02*
X8153277Y-15038984D01*
X8153277Y-15038984D02*
X8200896Y-15038984D01*
X8200896Y-15038984D02*
X8219944Y-15048508D01*
X8219944Y-15048508D02*
X8229467Y-15058031D01*
X8229467Y-15058031D02*
X8238991Y-15077079D01*
X8238991Y-15077079D02*
X8238991Y-15096127D01*
X8238991Y-15096127D02*
X8229467Y-15124698D01*
X8229467Y-15124698D02*
X8115182Y-15238984D01*
X8115182Y-15238984D02*
X8238991Y-15238984D01*
X8362801Y-15038984D02*
X8381848Y-15038984D01*
X8381848Y-15038984D02*
X8400896Y-15048508D01*
X8400896Y-15048508D02*
X8410420Y-15058031D01*
X8410420Y-15058031D02*
X8419944Y-15077079D01*
X8419944Y-15077079D02*
X8429468Y-15115174D01*
X8429468Y-15115174D02*
X8429468Y-15162793D01*
X8429468Y-15162793D02*
X8419944Y-15200888D01*
X8419944Y-15200888D02*
X8410420Y-15219936D01*
X8410420Y-15219936D02*
X8400896Y-15229460D01*
X8400896Y-15229460D02*
X8381848Y-15238984D01*
X8381848Y-15238984D02*
X8362801Y-15238984D01*
X8362801Y-15238984D02*
X8343753Y-15229460D01*
X8343753Y-15229460D02*
X8334229Y-15219936D01*
X8334229Y-15219936D02*
X8324706Y-15200888D01*
X8324706Y-15200888D02*
X8315182Y-15162793D01*
X8315182Y-15162793D02*
X8315182Y-15115174D01*
X8315182Y-15115174D02*
X8324706Y-15077079D01*
X8324706Y-15077079D02*
X8334229Y-15058031D01*
X8334229Y-15058031D02*
X8343753Y-15048508D01*
X8343753Y-15048508D02*
X8362801Y-15038984D01*
X8553277Y-15038984D02*
X8572325Y-15038984D01*
X8572325Y-15038984D02*
X8591372Y-15048508D01*
X8591372Y-15048508D02*
X8600896Y-15058031D01*
X8600896Y-15058031D02*
X8610420Y-15077079D01*
X8610420Y-15077079D02*
X8619944Y-15115174D01*
X8619944Y-15115174D02*
X8619944Y-15162793D01*
X8619944Y-15162793D02*
X8610420Y-15200888D01*
X8610420Y-15200888D02*
X8600896Y-15219936D01*
X8600896Y-15219936D02*
X8591372Y-15229460D01*
X8591372Y-15229460D02*
X8572325Y-15238984D01*
X8572325Y-15238984D02*
X8553277Y-15238984D01*
X8553277Y-15238984D02*
X8534229Y-15229460D01*
X8534229Y-15229460D02*
X8524706Y-15219936D01*
X8524706Y-15219936D02*
X8515182Y-15200888D01*
X8515182Y-15200888D02*
X8505658Y-15162793D01*
X8505658Y-15162793D02*
X8505658Y-15115174D01*
X8505658Y-15115174D02*
X8515182Y-15077079D01*
X8515182Y-15077079D02*
X8524706Y-15058031D01*
X8524706Y-15058031D02*
X8534229Y-15048508D01*
X8534229Y-15048508D02*
X8553277Y-15038984D01*
X8696134Y-15038984D02*
X8696134Y-15077079D01*
X8772325Y-15038984D02*
X8772325Y-15077079D01*
X9067563Y-15315174D02*
X9058039Y-15305650D01*
X9058039Y-15305650D02*
X9038991Y-15277079D01*
X9038991Y-15277079D02*
X9029468Y-15258031D01*
X9029468Y-15258031D02*
X9019944Y-15229460D01*
X9019944Y-15229460D02*
X9010420Y-15181841D01*
X9010420Y-15181841D02*
X9010420Y-15143746D01*
X9010420Y-15143746D02*
X9019944Y-15096127D01*
X9019944Y-15096127D02*
X9029468Y-15067555D01*
X9029468Y-15067555D02*
X9038991Y-15048508D01*
X9038991Y-15048508D02*
X9058039Y-15019936D01*
X9058039Y-15019936D02*
X9067563Y-15010412D01*
X9229468Y-15105650D02*
X9229468Y-15238984D01*
X9181849Y-15029460D02*
X9134230Y-15172317D01*
X9134230Y-15172317D02*
X9258039Y-15172317D01*
X9486611Y-15238984D02*
X9486611Y-15038984D01*
X9572325Y-15238984D02*
X9572325Y-15134222D01*
X9572325Y-15134222D02*
X9562801Y-15115174D01*
X9562801Y-15115174D02*
X9543753Y-15105650D01*
X9543753Y-15105650D02*
X9515182Y-15105650D01*
X9515182Y-15105650D02*
X9496134Y-15115174D01*
X9496134Y-15115174D02*
X9486611Y-15124698D01*
X9696134Y-15238984D02*
X9677087Y-15229460D01*
X9677087Y-15229460D02*
X9667563Y-15219936D01*
X9667563Y-15219936D02*
X9658039Y-15200888D01*
X9658039Y-15200888D02*
X9658039Y-15143746D01*
X9658039Y-15143746D02*
X9667563Y-15124698D01*
X9667563Y-15124698D02*
X9677087Y-15115174D01*
X9677087Y-15115174D02*
X9696134Y-15105650D01*
X9696134Y-15105650D02*
X9724706Y-15105650D01*
X9724706Y-15105650D02*
X9743753Y-15115174D01*
X9743753Y-15115174D02*
X9753277Y-15124698D01*
X9753277Y-15124698D02*
X9762801Y-15143746D01*
X9762801Y-15143746D02*
X9762801Y-15200888D01*
X9762801Y-15200888D02*
X9753277Y-15219936D01*
X9753277Y-15219936D02*
X9743753Y-15229460D01*
X9743753Y-15229460D02*
X9724706Y-15238984D01*
X9724706Y-15238984D02*
X9696134Y-15238984D01*
X9877087Y-15238984D02*
X9858039Y-15229460D01*
X9858039Y-15229460D02*
X9848515Y-15210412D01*
X9848515Y-15210412D02*
X9848515Y-15038984D01*
X10029468Y-15229460D02*
X10010420Y-15238984D01*
X10010420Y-15238984D02*
X9972325Y-15238984D01*
X9972325Y-15238984D02*
X9953277Y-15229460D01*
X9953277Y-15229460D02*
X9943753Y-15210412D01*
X9943753Y-15210412D02*
X9943753Y-15134222D01*
X9943753Y-15134222D02*
X9953277Y-15115174D01*
X9953277Y-15115174D02*
X9972325Y-15105650D01*
X9972325Y-15105650D02*
X10010420Y-15105650D01*
X10010420Y-15105650D02*
X10029468Y-15115174D01*
X10029468Y-15115174D02*
X10038992Y-15134222D01*
X10038992Y-15134222D02*
X10038992Y-15153269D01*
X10038992Y-15153269D02*
X9943753Y-15172317D01*
X10115182Y-15229460D02*
X10134230Y-15238984D01*
X10134230Y-15238984D02*
X10172325Y-15238984D01*
X10172325Y-15238984D02*
X10191373Y-15229460D01*
X10191373Y-15229460D02*
X10200896Y-15210412D01*
X10200896Y-15210412D02*
X10200896Y-15200888D01*
X10200896Y-15200888D02*
X10191373Y-15181841D01*
X10191373Y-15181841D02*
X10172325Y-15172317D01*
X10172325Y-15172317D02*
X10143753Y-15172317D01*
X10143753Y-15172317D02*
X10124706Y-15162793D01*
X10124706Y-15162793D02*
X10115182Y-15143746D01*
X10115182Y-15143746D02*
X10115182Y-15134222D01*
X10115182Y-15134222D02*
X10124706Y-15115174D01*
X10124706Y-15115174D02*
X10143753Y-15105650D01*
X10143753Y-15105650D02*
X10172325Y-15105650D01*
X10172325Y-15105650D02*
X10191373Y-15115174D01*
X10267563Y-15315174D02*
X10277087Y-15305650D01*
X10277087Y-15305650D02*
X10296134Y-15277079D01*
X10296134Y-15277079D02*
X10305658Y-15258031D01*
X10305658Y-15258031D02*
X10315182Y-15229460D01*
X10315182Y-15229460D02*
X10324706Y-15181841D01*
X10324706Y-15181841D02*
X10324706Y-15143746D01*
X10324706Y-15143746D02*
X10315182Y-15096127D01*
X10315182Y-15096127D02*
X10305658Y-15067555D01*
X10305658Y-15067555D02*
X10296134Y-15048508D01*
X10296134Y-15048508D02*
X10277087Y-15019936D01*
X10277087Y-15019936D02*
X10267563Y-15010412D01*
X10629468Y-15315174D02*
X10619944Y-15305650D01*
X10619944Y-15305650D02*
X10600896Y-15277079D01*
X10600896Y-15277079D02*
X10591373Y-15258031D01*
X10591373Y-15258031D02*
X10581849Y-15229460D01*
X10581849Y-15229460D02*
X10572325Y-15181841D01*
X10572325Y-15181841D02*
X10572325Y-15143746D01*
X10572325Y-15143746D02*
X10581849Y-15096127D01*
X10581849Y-15096127D02*
X10591373Y-15067555D01*
X10591373Y-15067555D02*
X10600896Y-15048508D01*
X10600896Y-15048508D02*
X10619944Y-15019936D01*
X10619944Y-15019936D02*
X10629468Y-15010412D01*
X10705658Y-15105650D02*
X10705658Y-15238984D01*
X10705658Y-15124698D02*
X10715182Y-15115174D01*
X10715182Y-15115174D02*
X10734230Y-15105650D01*
X10734230Y-15105650D02*
X10762801Y-15105650D01*
X10762801Y-15105650D02*
X10781849Y-15115174D01*
X10781849Y-15115174D02*
X10791373Y-15134222D01*
X10791373Y-15134222D02*
X10791373Y-15238984D01*
X10915182Y-15238984D02*
X10896134Y-15229460D01*
X10896134Y-15229460D02*
X10886611Y-15219936D01*
X10886611Y-15219936D02*
X10877087Y-15200888D01*
X10877087Y-15200888D02*
X10877087Y-15143746D01*
X10877087Y-15143746D02*
X10886611Y-15124698D01*
X10886611Y-15124698D02*
X10896134Y-15115174D01*
X10896134Y-15115174D02*
X10915182Y-15105650D01*
X10915182Y-15105650D02*
X10943754Y-15105650D01*
X10943754Y-15105650D02*
X10962801Y-15115174D01*
X10962801Y-15115174D02*
X10972325Y-15124698D01*
X10972325Y-15124698D02*
X10981849Y-15143746D01*
X10981849Y-15143746D02*
X10981849Y-15200888D01*
X10981849Y-15200888D02*
X10972325Y-15219936D01*
X10972325Y-15219936D02*
X10962801Y-15229460D01*
X10962801Y-15229460D02*
X10943754Y-15238984D01*
X10943754Y-15238984D02*
X10915182Y-15238984D01*
X11038992Y-15105650D02*
X11115182Y-15105650D01*
X11067563Y-15038984D02*
X11067563Y-15210412D01*
X11067563Y-15210412D02*
X11077087Y-15229460D01*
X11077087Y-15229460D02*
X11096134Y-15238984D01*
X11096134Y-15238984D02*
X11115182Y-15238984D01*
X11334230Y-15105650D02*
X11334230Y-15305650D01*
X11334230Y-15115174D02*
X11353277Y-15105650D01*
X11353277Y-15105650D02*
X11391373Y-15105650D01*
X11391373Y-15105650D02*
X11410420Y-15115174D01*
X11410420Y-15115174D02*
X11419944Y-15124698D01*
X11419944Y-15124698D02*
X11429468Y-15143746D01*
X11429468Y-15143746D02*
X11429468Y-15200888D01*
X11429468Y-15200888D02*
X11419944Y-15219936D01*
X11419944Y-15219936D02*
X11410420Y-15229460D01*
X11410420Y-15229460D02*
X11391373Y-15238984D01*
X11391373Y-15238984D02*
X11353277Y-15238984D01*
X11353277Y-15238984D02*
X11334230Y-15229460D01*
X11543753Y-15238984D02*
X11524706Y-15229460D01*
X11524706Y-15229460D02*
X11515182Y-15210412D01*
X11515182Y-15210412D02*
X11515182Y-15038984D01*
X11705658Y-15238984D02*
X11705658Y-15134222D01*
X11705658Y-15134222D02*
X11696134Y-15115174D01*
X11696134Y-15115174D02*
X11677087Y-15105650D01*
X11677087Y-15105650D02*
X11638992Y-15105650D01*
X11638992Y-15105650D02*
X11619944Y-15115174D01*
X11705658Y-15229460D02*
X11686611Y-15238984D01*
X11686611Y-15238984D02*
X11638992Y-15238984D01*
X11638992Y-15238984D02*
X11619944Y-15229460D01*
X11619944Y-15229460D02*
X11610420Y-15210412D01*
X11610420Y-15210412D02*
X11610420Y-15191365D01*
X11610420Y-15191365D02*
X11619944Y-15172317D01*
X11619944Y-15172317D02*
X11638992Y-15162793D01*
X11638992Y-15162793D02*
X11686611Y-15162793D01*
X11686611Y-15162793D02*
X11705658Y-15153269D01*
X11772325Y-15105650D02*
X11848515Y-15105650D01*
X11800896Y-15038984D02*
X11800896Y-15210412D01*
X11800896Y-15210412D02*
X11810420Y-15229460D01*
X11810420Y-15229460D02*
X11829468Y-15238984D01*
X11829468Y-15238984D02*
X11848515Y-15238984D01*
X11991373Y-15229460D02*
X11972325Y-15238984D01*
X11972325Y-15238984D02*
X11934230Y-15238984D01*
X11934230Y-15238984D02*
X11915182Y-15229460D01*
X11915182Y-15229460D02*
X11905658Y-15210412D01*
X11905658Y-15210412D02*
X11905658Y-15134222D01*
X11905658Y-15134222D02*
X11915182Y-15115174D01*
X11915182Y-15115174D02*
X11934230Y-15105650D01*
X11934230Y-15105650D02*
X11972325Y-15105650D01*
X11972325Y-15105650D02*
X11991373Y-15115174D01*
X11991373Y-15115174D02*
X12000896Y-15134222D01*
X12000896Y-15134222D02*
X12000896Y-15153269D01*
X12000896Y-15153269D02*
X11905658Y-15172317D01*
X12172325Y-15238984D02*
X12172325Y-15038984D01*
X12172325Y-15229460D02*
X12153277Y-15238984D01*
X12153277Y-15238984D02*
X12115182Y-15238984D01*
X12115182Y-15238984D02*
X12096134Y-15229460D01*
X12096134Y-15229460D02*
X12086611Y-15219936D01*
X12086611Y-15219936D02*
X12077087Y-15200888D01*
X12077087Y-15200888D02*
X12077087Y-15143746D01*
X12077087Y-15143746D02*
X12086611Y-15124698D01*
X12086611Y-15124698D02*
X12096134Y-15115174D01*
X12096134Y-15115174D02*
X12115182Y-15105650D01*
X12115182Y-15105650D02*
X12153277Y-15105650D01*
X12153277Y-15105650D02*
X12172325Y-15115174D01*
X12248515Y-15315174D02*
X12258039Y-15305650D01*
X12258039Y-15305650D02*
X12277087Y-15277079D01*
X12277087Y-15277079D02*
X12286611Y-15258031D01*
X12286611Y-15258031D02*
X12296134Y-15229460D01*
X12296134Y-15229460D02*
X12305658Y-15181841D01*
X12305658Y-15181841D02*
X12305658Y-15143746D01*
X12305658Y-15143746D02*
X12296134Y-15096127D01*
X12296134Y-15096127D02*
X12286611Y-15067555D01*
X12286611Y-15067555D02*
X12277087Y-15048508D01*
X12277087Y-15048508D02*
X12258039Y-15019936D01*
X12258039Y-15019936D02*
X12248515Y-15010412D01*
M02*
